<?xml version="1.0" standalone="no"?>
<!DOCTYPE svg PUBLIC "-//W3C//DTD SVG 1.1//EN" "http://www.w3.org/Graphics/SVG/1.1/DTD/svg11.dtd" >
<svg xmlns="http://www.w3.org/2000/svg">
<metadata>
This is a custom SVG webfont generated by Font Squirrel.
Copyright   : Copyright  1990 2001 Adobe Systems Incorporated  All Rights Reserved
Designer    : Tony Stan
Foundry URL : httpwwwadobecomtype
</metadata>
<defs>
<font id="ITCCenturyStdUltra" horiz-adv-x="1593" >
<font-face units-per-em="2048" ascent="1409" descent="-639" />
<missing-glyph horiz-adv-x="681" />
<glyph unicode=" "  horiz-adv-x="681" />
<glyph unicode="&#x09;" horiz-adv-x="681" />
<glyph unicode="&#xa0;" horiz-adv-x="681" />
<glyph unicode="!" horiz-adv-x="796" d="M109 1231q0 135 93 197.5t232 62.5q115 0 194 -66.5t79 -177.5q0 -92 -116 -336.5t-124 -345.5h-145q-16 135 -69.5 271.5t-98.5 236t-45 158.5zM147 223.5q0 102.5 73 175t175.5 72.5t175 -72.5t72.5 -175t-72.5 -175.5t-175 -73t-175.5 73t-73 175.5z" />
<glyph unicode="&#x22;" horiz-adv-x="681" d="M53 1268q-12 166 104.5 166t104.5 -166l-41 -418q-2 -18 -18.5 -41t-45 -23t-45 22.5t-18.5 41.5zM420 1268q-12 166 104.5 166t104.5 -166l-41 -418q-2 -18 -18.5 -41t-45 -23t-45 22.5t-18.5 41.5z" />
<glyph unicode="#" horiz-adv-x="1366" d="M184 397v189h199l33 237h-172v189h196l56 397h200l-53 -397h182l56 397h200l-55 -397h154v-189h-179l-32 -237h155v-189h-184l-53 -397h-203l55 397h-184l-53 -397h-201l53 397h-170zM584 586h184l31 237h-183z" />
<glyph unicode="$" horiz-adv-x="1366" d="M223 971q0 182 120 294.5t308 135.5v184h156v-176q68 -2 131 -14.5t123.5 -39t96.5 -75.5t36 -115q0 -94 -56.5 -137t-140.5 -43q-90 0 -141 46t-51 126q0 74 35 123q-29 14 -84 14q-68 0 -112 -43t-44 -114q0 -59 50 -106.5t125 -77t163 -72.5t163 -90.5t125 -132.5 t50 -193q0 -188 -132 -307t-337 -152v-203h-156v197q-61 4 -128.5 22.5t-135.5 50t-111 86t-43 122.5q0 86 53.5 137t151.5 51q90 0 147.5 -50t57.5 -120q0 -45 -11 -75.5t-24.5 -41t-25 -19.5t-11.5 -20q0 -29 127 -28q78 0 133.5 41t55.5 116q0 80 -68.5 136.5t-166 96.5 t-195 89t-166 144.5t-68.5 232.5z" />
<glyph unicode="%" horiz-adv-x="1933" d="M70 1022q0 168 92 290t264 122t264 -122t92 -290t-92 -290t-264 -122t-264 122t-92 290zM266 -25l994 1459h170l-994 -1459h-170zM356 1022q0 -203 13.5 -266.5t56.5 -63.5t56.5 63.5t13.5 266.5t-13.5 266.5t-56.5 63.5t-56.5 -63.5t-13.5 -266.5zM913 387 q0 168 92.5 290t264.5 122t264 -122t92 -290t-92 -290t-264 -122t-264.5 122t-92.5 290zM1200 387q0 -203 13.5 -266.5t56.5 -63.5t56 63.5t13 266.5t-13 266.5t-56 63.5t-56.5 -63.5t-13.5 -266.5z" />
<glyph unicode="&#x26;" horiz-adv-x="1933" d="M49 395q0 145 110.5 255t356.5 151q-2 4 -16.5 28.5t-18.5 30.5t-15 27.5t-15.5 32t-12.5 30t-10 32.5t-5 31.5t-3 35.5q0 182 134 271t376 89q436 0 436 -264q0 -59 -18.5 -103.5t-46 -71t-73.5 -46t-87 -27.5t-101 -16l74 -99q49 -66 80 -105.5t76 -93t88 -94.5 q94 80 92 160q-2 39 -33 50.5t-104 15.5v110h545v-98q-70 -2 -132.5 -40t-99.5 -80t-92 -112.5t-84 -101.5q70 -106 172 -106q125 0 137 184h107v-57q0 -203 -133.5 -321t-323.5 -118q-195 0 -354 156q-188 -156 -457 -156q-242 0 -395.5 122t-153.5 298zM528 549 q0 -131 97.5 -248t224.5 -117q66 0 102 31q-164 166 -364 477q-60 -43 -60 -143zM891 1151q0 -45 24.5 -97.5t59.5 -78.5q66 14 114 63t48 115q0 141 -127 141q-53 0 -86 -44t-33 -99z" />
<glyph unicode="'" horiz-adv-x="454" d="M123 1268q-12 166 104.5 166t104.5 -166l-41 -418q-2 -18 -18.5 -41t-45 -23t-45 22.5t-18.5 41.5z" />
<glyph unicode="(" horiz-adv-x="1024" d="M139 463q0 322 190.5 564.5t504.5 406.5l67 -70q-172 -176 -231.5 -393t-59.5 -508q0 -481 303 -869l-69 -73q-705 383 -705 942z" />
<glyph unicode=")" horiz-adv-x="1024" d="M111 -410q303 389 303 938q0 522 -291 836l65 70q326 -162 511.5 -412t185.5 -586q0 -295 -201 -528.5t-504 -386.5z" />
<glyph unicode="*" horiz-adv-x="909" d="M25 1137q0 43 34.5 85t79.5 42q47 0 84 -31t55.5 -71t50 -82t68.5 -56l29 16q-2 61 -50 153.5t-48 139.5q0 100 116.5 100.5t116.5 -100.5q0 -47 -48 -139t-50 -154l33 -12q55 43 96 107.5t72.5 101.5t87.5 37q47 0 78.5 -46t31.5 -95q0 -37 -18.5 -59.5t-53 -32 t-60 -11.5t-62.5 -2q-100 0 -152 -37v-30q49 -14 123 -23.5t118 -14.5t77.5 -32t33.5 -78q0 -43 -34.5 -85t-79.5 -42q-47 0 -84 31t-55.5 70.5t-50.5 81.5t-68 57l-29 -17q2 -61 50 -153t48 -140q0 -100 -116.5 -100t-116.5 100q0 47 48 139.5t50 153.5l-33 13 q-55 -43 -96 -107.5t-72.5 -101.5t-87.5 -37q-47 0 -78.5 46t-31.5 95q0 37 18.5 59.5t53 32t60 11.5t62.5 2q100 0 152 36v31q-49 14 -123 23.5t-118 14.5t-77.5 32t-33.5 78z" />
<glyph unicode="+" horiz-adv-x="1228" d="M133 367v229h367v367h229v-367h367v-229h-367v-367h-229v367h-367z" />
<glyph unicode="," horiz-adv-x="681" d="M92 223q0 102 73 175t175 73q131 0 199.5 -100.5t68.5 -223.5q0 -168 -72.5 -300t-302.5 -322l-88 106q219 168 238 349q-133 0 -212 69.5t-79 173.5z" />
<glyph unicode="-" horiz-adv-x="681" d="M33 324v315h598v-315h-598z" />
<glyph unicode="." horiz-adv-x="681" d="M92 223.5q0 102.5 73 175t175 72.5t175 -72.5t73 -175t-73 -175.5t-175 -73t-175 73t-73 175.5z" />
<glyph unicode="/" horiz-adv-x="569" d="M-102 -25l536 1459h238l-533 -1459h-241z" />
<glyph unicode="0" horiz-adv-x="1366" d="M63 704.5q0 307.5 166 518.5t453 211t452.5 -211t165.5 -518.5t-165.5 -518.5t-452.5 -211t-453 211t-166 518.5zM571 704.5q0 -266.5 13.5 -403.5t35 -174t62.5 -37t62.5 37t35 174t13.5 403.5t-13.5 403.5t-35 174t-62.5 37t-62.5 -37t-35 -174t-13.5 -403.5z" />
<glyph unicode="1" horiz-adv-x="1366" d="M166 1139v114q205 4 325.5 42t202.5 139h283v-1188q0 -74 43 -102.5t180 -28.5v-115h-1020v115q158 0 205 27.5t47 103.5v762q0 76 -50 103.5t-216 27.5z" />
<glyph unicode="2" horiz-adv-x="1366" d="M72 0v145q104 88 167.5 144.5t158 156t148.5 181.5t95 190.5t41 214.5q0 111 -59.5 186.5t-167.5 75.5q-39 0 -76 -14t-56.5 -30.5t-19.5 -26.5q0 -6 33 -6q94 0 155.5 -66t61.5 -154q0 -96 -65.5 -163.5t-178.5 -67.5q-102 0 -166.5 72.5t-64.5 175.5q0 195 160.5 307.5 t414.5 112.5q96 0 192.5 -21.5t184.5 -65.5t142.5 -124t54.5 -185q0 -145 -95.5 -248.5t-254.5 -189.5l-408 -219l4 -4h412q68 0 116 16.5t75.5 48t40.5 60t26 67.5h98l-16 -569h-1153z" />
<glyph unicode="3" horiz-adv-x="1366" d="M76 326q0 102 62.5 169.5t172.5 67.5q109 0 184.5 -62.5t75.5 -164.5q0 -176 -155 -203q35 -43 125 -43q84 0 139 51q66 59 65 328q0 113 -28.5 166t-104.5 53q-25 0 -64.5 -13t-53.5 -13q-78 0 -78 57q0 59 78 59q14 0 54 -6t64 -6q53 0 74 50t21 179q0 186 -50.5 255 t-150.5 69q-57 0 -105.5 -26.5t-52.5 -55.5h29q82 0 141.5 -50t59.5 -136q0 -92 -63.5 -147.5t-164.5 -55.5q-98 0 -164.5 62.5t-66.5 162.5q0 154 148.5 257.5t367.5 103.5q143 0 268 -35t218 -125t93 -221q0 -147 -126.5 -223t-288.5 -80v-5q100 0 182 -15t154.5 -51 t113.5 -104.5t41 -163t-43 -171t-111.5 -124.5t-156.5 -81t-175 -46.5t-171 -13.5q-238 0 -397.5 92.5t-159.5 258.5z" />
<glyph unicode="4" horiz-adv-x="1366" d="M18 369v180l574 885h461v-926h256v-139h-256v-123q0 -74 44 -102.5t183 -28.5v-115h-991v115q145 0 190 28.5t45 102.5v123h-506zM150 508h374v590h-4z" />
<glyph unicode="5" horiz-adv-x="1366" d="M117 332q0 109 60.5 168t166.5 59q92 0 164 -59.5t72 -155.5q0 -55 -18.5 -96t-45.5 -61.5t-53.5 -32t-45 -14.5t-18.5 -5q0 -16 34 -30.5t83 -14.5q66 0 110 28.5t62.5 82t25.5 101.5t7 112q0 182 -46 258t-165 76q-51 0 -93 -29t-72 -57.5t-50 -28.5q-59 0 -59 84 q0 37 4 114l16 603q274 -70 537 -70q205 0 387 70q0 -102 -47.5 -186.5t-122 -134.5t-157.5 -77.5t-161 -27.5q-152 0 -313 51l-8 -256q92 57 171 74.5t203 17.5q195 0 349.5 -121t154.5 -309q0 -158 -98 -272.5t-237.5 -166t-292.5 -51.5q-223 0 -363.5 96.5t-140.5 260.5z " />
<glyph unicode="6" horiz-adv-x="1366" d="M61 713q0 303 205 512t512 209q156 0 279 -67t123 -204q0 -106 -61.5 -163.5t-168.5 -57.5q-96 0 -164.5 52.5t-68.5 142.5q0 63 30.5 98t60.5 47t30 18q0 18 -58 19q-80 0 -119.5 -39t-58 -154.5t-20.5 -353.5q109 100 262 100q190 0 324.5 -114.5t134.5 -298.5 q0 -205 -171 -344.5t-413 -139.5q-305 0 -481.5 212.5t-176.5 525.5zM578 231q0 -141 102 -141q51 0 72.5 39t21.5 129v250q0 111 -22.5 154t-81.5 43q-37 0 -64.5 -23t-27.5 -45v-406z" />
<glyph unicode="7" horiz-adv-x="1366" d="M205 868l16 541h1026v-152q-152 -199 -219 -444.5t-67 -486.5q0 -78 -9.5 -133.5t-35 -108.5t-79 -81t-135.5 -28q-127 0 -198.5 71t-71.5 196q0 102 39 198.5t110.5 180.5t141.5 151.5t162 150.5t143 138h-438q-244 0 -275 -193h-110z" />
<glyph unicode="8" horiz-adv-x="1366" d="M70 342q0 63 26.5 114.5t75.5 87.5t97 59.5t112 45.5q-266 125 -266 363q0 115 52 200.5t140 132t185.5 68t203.5 21.5q78 0 162 -15.5t172 -48.5t143.5 -98.5t55.5 -153.5q0 -57 -21.5 -100t-68.5 -73t-83 -46t-100 -37q88 -45 134.5 -73.5t101.5 -79t78.5 -112.5 t23.5 -146q0 -123 -61.5 -219.5t-160.5 -149.5t-211.5 -80t-229.5 -27q-90 0 -183.5 19.5t-180.5 60.5t-142 116t-55 171zM401 342q0 -113 58.5 -182.5t167.5 -69.5q213 0 213 199q0 104 -72 163.5t-287 139.5q-80 -92 -80 -250zM553 1167q0 -78 53 -123t236 -124 q76 84 76 219q0 180 -201 180q-68 0 -116 -40t-48 -112z" />
<glyph unicode="9" horiz-adv-x="1366" d="M76 934q0 233 170 366.5t413 133.5q295 0 463 -207t168 -500q0 -307 -215 -529.5t-524 -222.5q-193 0 -313.5 75t-120.5 208q0 92 62.5 149.5t152.5 57.5q100 0 163.5 -50t63.5 -139q0 -41 -14.5 -72.5t-32.5 -46t-32.5 -26.5t-14.5 -16q0 -8 26.5 -16.5t57.5 -8.5 q233 0 233 434v82l-4 4q-82 -106 -260 -106q-186 0 -314 126t-128 304zM584 860q0 -180 104 -180q94 0 94 141v211q0 172 -21.5 229.5t-78.5 57.5q-53 0 -75.5 -45t-22.5 -178v-236z" />
<glyph unicode=":" horiz-adv-x="681" d="M92 223.5q0 102.5 73 175t175 72.5t175 -72.5t73 -175t-73 -175.5t-175 -73t-175 73t-73 175.5zM92 796.5q0 102.5 73 175t175 72.5t175 -72.5t73 -175t-73 -175t-175 -72.5t-175 72.5t-73 175z" />
<glyph unicode=";" horiz-adv-x="681" d="M92 223q0 102 73 175t175 73q131 0 199.5 -100.5t68.5 -223.5q0 -168 -72.5 -300t-302.5 -322l-88 106q219 168 238 344q-131 0 -211 71t-80 177zM92 796.5q0 102.5 73 175t175 72.5t175 -72.5t73 -175t-73 -175t-175 -72.5t-175 72.5t-73 175z" />
<glyph unicode="&#x3c;" horiz-adv-x="1228" d="M133 391v180l963 406v-217l-668 -279l668 -278v-217z" />
<glyph unicode="=" horiz-adv-x="1228" d="M133 164v229h963v-229h-963zM133 569v230h963v-230h-963z" />
<glyph unicode="&#x3e;" horiz-adv-x="1228" d="M133 -14v217l668 278l-668 279v217l963 -406v-180z" />
<glyph unicode="?" horiz-adv-x="1251" d="M53 1110q0 180 168 286.5t414 106.5q152 0 282 -43t217 -136t87 -222q0 -100 -61.5 -179t-135.5 -119t-173 -90t-142 -83q-35 -29 -35 -74h-131q-16 61 -17 90q0 66 69 208t69 237q0 111 -58.5 183.5t-165.5 72.5q-37 0 -66.5 -10.5t-29.5 -20.5l41 -19q43 -18 85 -70 t42 -134q0 -90 -59.5 -156t-171.5 -66q-100 0 -164 64.5t-64 173.5zM381 223.5q0 102.5 72.5 175t175 72.5t175.5 -72.5t73 -175t-73 -175.5t-175.5 -73t-175 73t-72.5 175.5z" />
<glyph unicode="@" horiz-adv-x="1638" d="M86 672q0 336 225.5 549t546.5 213q295 0 494.5 -178.5t199.5 -444.5q0 -180 -108.5 -340t-282.5 -160q-92 0 -143 55.5t-49 94.5h-4q-14 -37 -86 -93.5t-156 -56.5q-76 0 -140.5 62.5t-64.5 193.5q0 199 123 361t295 162q57 0 87 -21.5t54 -75.5l21 66h162l-117 -490 q-8 -33 -8 -53q0 -45 15 -75.5t42 -30.5q66 0 131.5 134t65.5 265q0 182 -148.5 321.5t-382.5 139.5q-86 0 -171 -32t-165 -100.5t-129 -194.5t-49 -294q0 -217 165 -363.5t370 -146.5q236 0 417 99l21 -129q-233 -133 -436 -134q-197 0 -355.5 69t-251 175.5t-140.5 224 t-48 228.5zM715 602q0 -164 96 -164q70 0 123 77t73.5 162t20.5 148q0 72 -17.5 105t-62.5 33q-96 0 -164.5 -116t-68.5 -245z" />
<glyph unicode="A" d="M-70 0v115q197 16 242 143l416 1151h397l420 -1120q33 -90 86 -132t145 -42v-115h-979v115q182 0 183 65q0 25 -62 201h-413q-4 -14 -14.5 -47t-16.5 -58.5t-6 -48.5q0 -57 46 -84.5t154 -27.5v-115h-598zM410 508h325l-170 455h-4z" />
<glyph unicode="B" horiz-adv-x="1705" d="M33 0v115q125 0 165 28.5t40 102.5v917q0 74 -39 102.5t-160 28.5v115h651q18 0 112 1q47 1 83.5 1t63.5 -1q54 -1 137 -4t144.5 -11.5t102.5 -22.5q223 -80 223 -295q0 -324 -471 -334v-10q244 0 378 -90t134 -258q0 -164 -118.5 -274.5t-319.5 -110.5h-1126zM807 213 q0 -55 24.5 -76.5t71.5 -21.5q125 0 125 256q0 199 -44 256t-177 57v-471zM807 799q125 0 165 30.5t40 126.5v148q0 190 -123 190q-39 0 -60.5 -17t-21.5 -73v-405z" />
<glyph unicode="C" horiz-adv-x="1478" d="M49 688q0 197 82 365t246 274.5t377 106.5q117 0 210 -32t143 -63.5t60 -31.5q12 0 22.5 11t26 35.5t25.5 39.5h119v-467h-111q-152 381 -364 381q-45 0 -80 -20.5t-65.5 -73t-47 -160t-16.5 -267.5q0 -147 9 -258.5t26.5 -185.5t40 -123t53.5 -73.5t61.5 -34t71.5 -9.5 q168 0 249 121t93 305h119q0 -272 -156 -412.5t-432 -140.5q-332 0 -547 187.5t-215 525.5z" />
<glyph unicode="D" horiz-adv-x="1705" d="M14 0v115q123 0 163 28.5t40 102.5v917q0 74 -40 102.5t-163 28.5v115h863q154 0 285.5 -40t237 -122t166 -219t60.5 -317q0 -184 -61.5 -320.5t-148.5 -209t-208 -115.5t-211 -54.5t-186 -11.5h-797zM786 209q0 -94 84 -94q55 0 87 47t49.5 177t17.5 365.5t-17.5 365.5 t-49 177t-87.5 47q-84 0 -84 -69v-1016z" />
<glyph unicode="E" d="M33 0v115q133 0 175 28.5t42 102.5v917q0 74 -41 102.5t-170 28.5v115h1393l8 -487h-107q-133 373 -342 372q-127 0 -172 -45v-454q111 0 160 57t76 172h102v-598h-102q-29 137 -73 189.5t-163 52.5v-469q0 -84 156 -84q135 0 238.5 113.5t140.5 312.5h108l-12 -541 h-1417z" />
<glyph unicode="F" horiz-adv-x="1478" d="M10 0v115q139 0 183.5 28.5t44.5 102.5v917q0 74 -43 102.5t-177 28.5v115h1371l12 -471h-109q-102 356 -313 356q-127 0 -172 -45v-454q109 0 151.5 58t65.5 183h102v-598h-102q-4 12 -13.5 43t-13.5 43.5t-15 38t-20.5 35.5t-24.5 27.5t-32.5 23.5t-42 12.5t-55.5 6.5 v-422q0 -74 44 -102.5t183 -28.5v-115h-1024z" />
<glyph unicode="G" horiz-adv-x="1705" d="M74 705q0 326 225 527.5t555 201.5q98 0 185 -29t136.5 -57.5t59.5 -28.5q16 0 27.5 12t26 44t16.5 34h120v-483h-110q-96 197 -152 262q-106 131 -256 131q-125 0 -166 -127t-41 -510q0 -121 9 -428q4 -164 116 -164q57 0 83 49t26 176v127q0 160 -141 160v98h862v-98 q-104 0 -140 -20.5t-36 -83.5v-478h-117l-16 17l-18 17q-5 5 -17.5 16.5t-19.5 16.5t-19 13.5t-22.5 12.5t-21.5 7t-24 3q-31 0 -89 -37t-144 -74t-185 -37q-180 0 -338.5 79t-266 249.5t-107.5 401.5z" />
<glyph unicode="H" horiz-adv-x="1820" d="M35 0v115q115 0 152.5 28.5t37.5 102.5v917q0 74 -37.5 102.5t-152.5 28.5v115h842v-115q-41 -4 -61.5 -19t-20.5 -58v-424h231v424q0 43 -18.5 58t-55.5 19v115h834v-115q-115 0 -153 -28.5t-38 -102.5v-917q0 -74 38 -102.5t153 -28.5v-115h-834v115q37 4 55.5 19.5 t18.5 58.5v473h-231v-473q0 -43 20.5 -58.5t61.5 -19.5v-115h-842z" />
<glyph unicode="I" horiz-adv-x="1138" d="M41 1294v115h1046v-115q-145 0 -190 -28.5t-45 -102.5v-917q0 -76 46 -103.5t200 -27.5v-115h-1049v115q143 0 188.5 28.5t45.5 102.5v917q0 76 -46 103.5t-196 27.5z" />
<glyph unicode="J" horiz-adv-x="1478" d="M33 334q0 106 68.5 179t183.5 73q113 0 190.5 -70t77.5 -172q0 -70 -41 -128t-106 -71q37 -43 120 -43q160 0 160 189v872q0 74 -43 102.5t-178 28.5v115h981v-115q-115 0 -153 -28.5t-38 -102.5v-753q0 -203 -183 -319t-521 -116q-217 0 -367.5 91.5t-150.5 267.5z" />
<glyph unicode="K" horiz-adv-x="1933" d="M74 0v115q121 0 160.5 28.5t39.5 102.5v917q0 74 -39.5 102.5t-160.5 28.5v115h936v-115q-106 0 -142.5 -28.5t-36.5 -102.5v-362q27 29 147 124t211 180t91 122q0 68 -176 67v115h774v-115q-139 -2 -209 -19.5t-129 -62.5l-260 -194l469 -813q51 -90 184 -90v-115h-923 v111q100 12 100 69q0 18 -61.5 130t-132 234t-80.5 142h-5v-498q0 -31 26 -52t73 -21v-115h-856z" />
<glyph unicode="L" horiz-adv-x="1478" d="M39 0v115q129 0 171 28.5t42 102.5v917q0 74 -41 102.5t-168 28.5v115h999v-115q-135 0 -178 -28.5t-43 -102.5v-917q0 -68 29 -99.5t100 -31.5q102 0 198.5 115.5t133.5 310.5h109l-13 -541h-1339z" />
<glyph unicode="M" horiz-adv-x="2048" d="M63 0v115q84 8 130.5 63t46.5 187v798q0 74 -35 102.5t-137 28.5v115h809l147 -582h4l154 582h803v-115q-104 0 -140.5 -28.5t-36.5 -102.5v-917q0 -74 35 -102.5t135 -28.5v-115h-913v115q111 0 148.5 28.5t37.5 102.5v897h-4l-309 -1143h-272l-295 1126h-4v-835 q0 -80 53 -128t133 -48v-115h-490z" />
<glyph unicode="N" horiz-adv-x="1705" d="M18 0v115q123 8 177.5 61t54.5 189v798q0 74 -43 102.5t-178 28.5v115h794l496 -715l4 4v469q0 70 -51 98.5t-164 28.5v115h580l-2 -115q-113 0 -164.5 -28.5t-51.5 -98.5v-1167h-366l-703 1026h-4v-661q0 -135 54.5 -188.5t173.5 -61.5v-115h-607z" />
<glyph unicode="O" horiz-adv-x="1705" d="M72 704.5q0 325.5 225 527.5t555 202t555 -202t225 -527.5t-225 -527.5t-555 -202t-555 202t-225 527.5zM698 704.5q0 -370.5 31 -492.5t123 -122t123 122t31 492.5t-31 492.5t-123 122t-123 -122t-31 -492.5z" />
<glyph unicode="P" d="M4 0v115q129 0 170 28.5t41 102.5v917q0 74 -41 102.5t-166 28.5v115h1065q88 0 172 -17.5t165 -55.5t130 -111.5t49 -175.5q0 -188 -163.5 -291t-405.5 -103h-236v-409q0 -74 44 -102.5t186 -28.5v-115h-1010zM784 770q119 6 169.5 60.5t50.5 222.5q0 119 -40 180 t-108 61q-72 0 -72 -55v-469z" />
<glyph unicode="Q" horiz-adv-x="1705" d="M72 704.5q0 325.5 225 527.5t555 202t555 -202t225 -527q0 -203 -92 -361t-250 -252q12 -47 55.5 -77.5t94.5 -30.5q129 0 143 213h103v-117q0 -182 -93.5 -311t-271.5 -129q-152 0 -242 95t-108 249q-37 -4 -57.5 -6.5t-61.5 -2.5q-330 0 -555 202t-225 527.5zM698 709 q0 -250 7 -312q53 66 88 82q29 14 63 15q92 0 143 -95h5q0 25 1 129.5t1 180.5q0 252 -13.5 378.5t-45.5 179t-95.5 52.5t-95 -52.5t-45 -179t-13.5 -378.5zM745 227q0 -57 30 -97t81 -40q53 0 94 27v80q0 51 -27.5 104t-76.5 53q-51 0 -76 -36t-25 -91z" />
<glyph unicode="R" horiz-adv-x="1820" d="M29 0v115q129 0 170 28.5t41 102.5v917q0 74 -41 102.5t-170 28.5v115h1003q254 0 404.5 -76t150.5 -241q0 -334 -579 -334v-4q195 -4 306 -85t154 -180q20 -47 42 -119.5t37.5 -100t43.5 -27.5q33 0 50.5 43t17.5 104h115q1 -13 0 -26q0 -172 -101 -277 q-106 -111 -301 -111q-391 0 -391 424q0 182 -33 239.5t-139 57.5v-450q0 -72 32.5 -101.5t121.5 -29.5v-115h-934zM809 811q115 0 153.5 44t38.5 196q0 244 -129 243q-63 0 -63 -73v-410z" />
<glyph unicode="S" horiz-adv-x="1366" d="M61 0v520h111q45 -178 165 -304t290 -126q98 0 167.5 42t69.5 134q0 66 -59.5 111t-147.5 67.5t-191.5 58.5t-191.5 79t-147 131t-59 213q0 242 174 362.5t428 120.5q76 0 157.5 -23.5t136 -47t60.5 -23.5q14 0 24.5 11t19.5 35.5t11 27.5h111v-410h-111 q-125 315 -391 315q-66 0 -118 -35.5t-52 -99.5q0 -78 81 -123t195.5 -72.5t230.5 -67.5t197 -135t81 -247q0 -256 -192.5 -397.5t-463.5 -141.5q-94 0 -180 30t-142.5 59.5t-76.5 29.5q-18 0 -32.5 -14t-32 -40t-31.5 -40h-91z" />
<glyph unicode="T" horiz-adv-x="1478" d="M14 918l21 491h1409l20 -491h-112q-16 82 -56.5 161.5t-113 144t-158.5 70.5v-1048q0 -76 46 -103.5t200 -27.5v-115h-1067v115q158 0 205 27.5t47 103.5v1048q-86 -6 -159 -70.5t-113 -144.5t-56 -161h-113z" />
<glyph unicode="U" d="M18 1294v115h926v-115q-100 0 -135 -28.5t-35 -102.5v-815q0 -225 225 -225q127 0 182.5 63.5t55.5 192.5v788q0 127 -188 127v115h501v-115q-178 0 -178 -127v-798q0 -111 -49 -192t-132 -123t-173 -60.5t-191 -18.5q-113 0 -195.5 8.5t-167.5 37t-138.5 75.5t-87 131 t-33.5 199v737q0 74 -38 102.5t-149 28.5z" />
<glyph unicode="V" horiz-adv-x="1478" d="M-47 1294v115h897v-115q-90 -14 -111 -39q-18 -20 -18 -55q0 -10 47 -144t105.5 -305t80.5 -249h4q10 51 114 351t104 335q0 98 -146 106v115h496v-115q-156 -2 -197 -123l-414 -1171h-366l-395 1135q-33 92 -76 121.5t-125 37.5z" />
<glyph unicode="W" horiz-adv-x="1933" d="M-29 1311v98h1516v-115q-86 0 -86 -73q0 -16 24.5 -135t57.5 -277t47 -240h4q12 76 71.5 332t59.5 291q0 53 -30.5 76.5t-98.5 25.5v115h426v-98q-82 -6 -110.5 -22.5t-39.5 -63.5l-282 -1225h-416l-149 705h-4l-158 -705h-430l-277 1237q-14 68 -125 74zM670 1253 q0 -37 6 -65l115 -608h4l86 360q16 66 16 94q0 113 -34 195t-111 82q-37 0 -59.5 -16.5t-22.5 -41.5z" />
<glyph unicode="X" d="M-23 0v115q203 12 293 139l262 373l-325 553q-35 57 -72 80.5t-125 33.5v115h901v-115q-106 0 -106 -45q0 -25 22.5 -67.5t61.5 -109t63 -122.5q31 51 78 117t68.5 101.5t21.5 58.5q0 61 -112 67v115h557v-115q-117 0 -172.5 -21.5t-100.5 -84.5l-252 -357l351 -614 q37 -63 77.5 -82.5t118.5 -19.5v-115h-946v115q66 4 92.5 16t26.5 47q0 29 -29 89.5t-69.5 131t-49.5 86.5q-57 -63 -115.5 -153t-58.5 -148q0 -35 24.5 -51t84.5 -18v-115h-570z" />
<glyph unicode="Y" d="M25 1311v98h884v-115q-115 -6 -114 -69q0 -16 34.5 -92t90 -189t77.5 -160q14 33 69.5 134.5t96.5 185.5t41 113q0 41 -31.5 56t-111.5 21v115h508v-98h-7q-83 0 -134 -48q-52 -50 -103 -147l-246 -459v-411q0 -74 40 -102.5t165 -28.5v-115h-989v115q131 0 173 28.5 t42 102.5v375l-338 616q-38 70 -147 74z" />
<glyph unicode="Z" horiz-adv-x="1478" d="M94 0v129l649 1165q-223 0 -335.5 -76.5t-163.5 -289.5h-109l12 481h1217v-143l-631 -1151q250 0 363.5 88t179.5 338h108l-12 -541h-1278z" />
<glyph unicode="[" horiz-adv-x="909" d="M147 -459v1893h738v-127h-267v-1639h267v-127h-738z" />
<glyph unicode="\" horiz-adv-x="569" d="M-102 1434h237l537 -1459h-242z" />
<glyph unicode="]" horiz-adv-x="909" d="M25 -332h266v1639h-266v127h737v-1893h-737v127z" />
<glyph unicode="^" horiz-adv-x="1228" d="M150 664l356 745h217l356 -745h-239l-226 503l-227 -503h-237z" />
<glyph unicode="_" horiz-adv-x="1024" d="M0 -156h1024v-98h-1024v98z" />
<glyph unicode="`" horiz-adv-x="681" d="M0 1389q0 47 35 76.5t84 29.5q94 0 164 -92l233 -309h-139l-252 141q-45 25 -65.5 39t-40 45t-19.5 70z" />
<glyph unicode="a" horiz-adv-x="1366" d="M18 238q0 86 45.5 145t126 89t157.5 45t175.5 29.5t145.5 26.5v177q0 111 -138 110q-76 0 -75 -20q0 -6 10 -13.5t21.5 -14.5t21.5 -29.5t10 -57.5q0 -74 -58.5 -113t-146.5 -39q-84 0 -144 48.5t-60 128.5q0 225 450 225q166 0 301 -31t225.5 -101.5t90.5 -170.5v-426 q0 -27 15 -44.5t33.5 -17.5t32 12.5t17.5 24.5t10 38t8 32h90q-8 -166 -108 -240q-86 -63 -262 -63q-109 0 -180.5 36.5t-118.5 127.5q-84 -100 -162 -132t-209 -32q-125 0 -224.5 62.5t-99.5 187.5zM514 283q0 -82 82 -82q72 0 72 110v131q0 14 -19 15q-61 0 -98 -51 t-37 -123z" />
<glyph unicode="b" horiz-adv-x="1478" d="M2 1278v115l696 16v-537q74 55 135.5 79t143.5 24q190 0 319 -137.5t129 -354.5q0 -213 -182 -354t-412 -141q-225 0 -407 188l-143 -176h-127q16 78 16 182v994q0 61 -38 80.5t-130 21.5zM698 195q0 -39 19.5 -59.5t44.5 -20.5q37 0 57.5 16t34.5 92t14 223.5t-14 223 t-34.5 92t-57.5 16.5q-25 0 -44.5 -20.5t-19.5 -59.5v-503z" />
<glyph unicode="c" horiz-adv-x="1251" d="M53 481q0 127 62.5 227.5t160 156t200 83t198.5 27.5q242 0 371 -81t129 -192q0 -96 -59.5 -147t-156.5 -51q-84 0 -143 56t-59 138q0 92 80 144q-29 18 -76 18q-74 0 -105.5 -70.5t-31.5 -248.5q0 -213 56 -299t177 -86t264 151l76 -61q-199 -258 -567 -258 q-143 0 -271.5 52t-216.5 167.5t-88 273.5z" />
<glyph unicode="d" horiz-adv-x="1478" d="M55 483q0 217 129 354.5t320 137.5q96 0 152.5 -17.5t113.5 -68.5v287q0 61 -40 80.5t-144 21.5v115l712 16v-1180q0 -61 37 -80.5t129 -21.5v-115l-661 -12v127q-133 -139 -311.5 -139t-307.5 139t-129 356zM612 496q0 -188 18.5 -248t67.5 -60q72 0 72 97v422 q0 96 -72 96q-49 0 -67.5 -60.5t-18.5 -246.5z" />
<glyph unicode="e" horiz-adv-x="1251" d="M53 475q0 233 165 366.5t403 133.5q244 0 401.5 -125t157.5 -367h-598q4 -348 229 -348q55 0 94 10.5t81 45t56.5 50t67.5 76.5l88 -49q-96 -152 -227 -216t-316 -64q-258 0 -430 120.5t-172 366.5zM582 598h151v74q0 106 -17.5 147t-58.5 41t-58 -41t-17 -147v-74z" />
<glyph unicode="f" horiz-adv-x="1024" d="M25 0v115q125 2 169 21.5t44 80.5v635h-213v115h213v118q0 190 155.5 283.5t397.5 93.5q367 0 366 -211q0 -61 -44 -107t-109 -46q-72 0 -121 38t-49 105q0 39 19 75t19 38q0 10 -30 10q-76 0 -76 -90v-307h244v-115h-244v-635q0 -61 43 -80.5t164 -21.5v-115h-948z" />
<glyph unicode="g" horiz-adv-x="1366" d="M41 -270q0 45 41 75.5t84 43t92 20.5q12 2 16 2v4q-201 61 -200 225q0 100 73.5 157.5t227.5 90.5v4q-127 18 -212 97t-85 182q0 174 150.5 265t426.5 91q186 0 373 -59q78 137 201 137q59 0 100 -33t41 -88q0 -41 -29.5 -70.5t-70.5 -29.5q-45 0 -65.5 21.5t-35.5 70.5 q-6 0 -13 -4t-13 -11.5t-11.5 -13.5t-11.5 -15t-8 -13q141 -104 141 -238q0 -156 -129 -241t-368 -85q-174 0 -229.5 -11t-55.5 -42q0 -29 67.5 -35t350.5 -6q434 0 434 -297q0 -166 -162 -272.5t-510 -106.5q-248 0 -389 29t-181 66t-40 90zM311 -233q0 -123 328 -123 q186 0 259 19.5t73 64.5q0 47 -54.5 55t-298.5 8q-92 0 -151 7t-85 14.5t-36 7.5q-35 0 -35 -53zM594 651.5q0 -100.5 11 -155t27.5 -68.5t43 -14t43 14t28 68.5t11.5 155t-11.5 154.5t-28 68.5t-43 14.5t-43 -14.5t-27.5 -68.5t-11 -154.5z" />
<glyph unicode="h" d="M-8 0v115q106 2 147 21.5t41 80.5v959q0 61 -40 80.5t-144 21.5v115l713 16v-580q156 145 335 146q184 0 277.5 -91t93.5 -220v-447q0 -59 35 -79.5t111 -22.5v-115h-674v692q0 33 -22.5 55.5t-61.5 22.5q-31 0 -62.5 -24.5t-31.5 -53.5v-499q0 -78 106 -78v-115h-823z " />
<glyph unicode="i" horiz-adv-x="909" d="M12 0v115q111 2 152 21.5t41 80.5v512q0 61 -40 80.5t-145 21.5v115l693 17v-746q0 -61 40 -80.5t144 -21.5v-115h-885zM172 1220.5q0 104.5 80 159t188.5 54.5t188.5 -54.5t80 -159t-80 -158.5t-188.5 -54t-188.5 54t-80 158.5z" />
<glyph unicode="j" horiz-adv-x="909" d="M-111 -231q0 174 199 174q74 0 128 -37t54 -111q0 -25 -13 -47t-26.5 -36.5t-13.5 -16.5q0 -14 29 -14q43 0 71.5 40.5t28.5 85.5q0 55 -21.5 90t-47 54.5t-47 80t-21.5 161.5v536q0 61 -42 80.5t-155 21.5v115l717 17v-971q0 -170 -147.5 -290t-393.5 -120 q-61 0 -125.5 16.5t-119 62t-54.5 108.5zM188 1220.5q0 104.5 80 159t188.5 54.5t188.5 -54.5t80 -159t-80 -158.5t-188.5 -54t-188.5 54t-80 158.5z" />
<glyph unicode="k" d="M12 0v115q98 2 137 21.5t39 80.5v959q0 61 -37.5 80.5t-134.5 21.5v115l701 16v-895q6 6 85 59.5t128 101.5t49 89q0 43 -35 56.5t-121 15.5v114h672v-114q-197 0 -360 -105l327 -565q29 -51 119 -51v-115h-600l-233 432l-31 -20v-195q0 -59 30.5 -79.5t92.5 -22.5v-115 h-828z" />
<glyph unicode="l" horiz-adv-x="909" d="M8 0v115q102 2 141 21.5t39 80.5v959q0 61 -38.5 80.5t-141.5 21.5v115l709 16v-1192q0 -61 40 -80.5t142 -21.5v-115h-891z" />
<glyph unicode="m" horiz-adv-x="2048" d="M37 831v115l584 17v-119q156 131 280 131q111 0 180.5 -35t139.5 -123q76 63 107.5 88t92 47.5t133.5 22.5q133 0 229.5 -89t96.5 -231v-438q0 -98 107 -102v-115h-586v655q0 102 -72 102.5t-72 -102.5v-438q0 -98 95 -102v-115h-553v655q0 102 -72 102.5t-72 -102.5 v-438q0 -96 88 -102v-115h-704v115q72 2 104.5 22.5t32.5 79.5v512q0 59 -33.5 79.5t-105.5 22.5z" />
<glyph unicode="n" d="M14 0v115q90 2 127 21.5t37 80.5v512q0 61 -37 80.5t-127 21.5v115l678 17v-136q180 147 352 148q180 0 277.5 -84t97.5 -178v-496q0 -61 37 -80.5t123 -21.5v-115h-688v645q0 109 -92 109t-92 -109v-428q0 -59 30.5 -79.5t91.5 -22.5v-115h-815z" />
<glyph unicode="o" horiz-adv-x="1478" d="M49 481q0 129 63.5 227.5t167 155t220 84t239.5 27.5t240 -27.5t220.5 -84t167 -155t63.5 -227.5t-63.5 -227t-167 -154.5t-220.5 -84t-240 -27.5t-239.5 27.5t-220 84t-167 154.5t-63.5 227zM635 481q0 -162 12 -244.5t32.5 -108.5t59.5 -26t59.5 26t33 108.5 t12.5 244.5t-12.5 245t-33 108.5t-59.5 25.5t-59.5 -25.5t-32.5 -108.5t-12 -245z" />
<glyph unicode="p" horiz-adv-x="1478" d="M-16 -279q102 2 142 22.5t40 84.5v901q0 61 -38 80.5t-130 21.5v115l676 17v-123q57 66 124.5 100.5t180.5 34.5q190 0 319 -137.5t129 -354.5q0 -221 -139 -358t-362 -137q-135 0 -232 84v-244q0 -63 44 -83.5t167 -23.5v-114h-921v114zM694 236q0 -43 19.5 -66 t50.5 -23q51 0 78.5 48.5t27.5 193.5v217q0 96 -21.5 134t-68.5 38q-35 0 -60.5 -31.5t-25.5 -80.5v-430z" />
<glyph unicode="q" horiz-adv-x="1478" d="M49 483q0 219 156.5 355.5t396.5 136.5q252 0 457 -162l141 150h127v-1135q0 -63 38 -83.5t138 -23.5v-114h-919v114q117 2 157.5 22.5t40.5 84.5v246q-51 -51 -115.5 -68.5t-181.5 -17.5q-178 0 -307 139t-129 356zM606 496q0 -207 22.5 -278t80.5 -71q39 0 56 23t17 82 v493q0 102 -69 103q-55 0 -81 -74.5t-26 -277.5z" />
<glyph unicode="r" horiz-adv-x="1251" d="M12 0v115q113 2 154 21.5t41 80.5v528q0 61 -40 81t-144 22v98l692 17v-189h4q57 96 118.5 148.5t157.5 52.5q100 0 171 -55.5t71 -155.5q0 -86 -59.5 -140.5t-147.5 -54.5q-158 0 -190 164q-45 -14 -75 -89t-30 -148v-279q0 -61 43 -80.5t160 -21.5v-115h-926z" />
<glyph unicode="s" horiz-adv-x="1138" d="M41 0v332h106q53 -117 136.5 -173.5t212.5 -56.5q63 0 99 28t36 75q0 45 -59.5 71.5t-144.5 45t-170 45t-144.5 89t-59.5 158.5q0 172 126 266.5t356 94.5q82 0 159.5 -17.5t124.5 -35t53 -17.5q12 0 22.5 11.5t21 32t16.5 26.5h98v-283h-98q-88 96 -150.5 132t-142.5 36 q-43 0 -70.5 -18.5t-27.5 -53.5q0 -51 57 -80.5t139 -47t164 -43t139.5 -90t57.5 -165.5q0 -184 -158 -279t-383 -95q-104 0 -189 18.5t-129 36.5t-49 18q-10 0 -19 -12t-18.5 -28.5t-13.5 -20.5h-98z" />
<glyph unicode="t" horiz-adv-x="909" d="M-29 852v115q203 4 341.5 96t189.5 276h160v-372h223v-115h-228v-561q0 -68 12.5 -91.5t45.5 -23.5q25 0 40 12.5t21 37t9 44t3 51t3 44.5h106q1 -23 1 -45q0 -163 -82 -242q-93 -90 -294 -90q-213 0 -303 77.5t-90 225.5v561h-158z" />
<glyph unicode="u" d="M10 831v115l688 17v-656q0 -115 90 -114q45 0 68 30.5t23 108.5v397q0 59 -30 79.5t-85 22.5v115l643 17v-734q0 -61 39 -80.5t137 -21.5v-115l-686 -12v123q-88 -74 -168 -104.5t-190 -30.5q-154 0 -261.5 76.5t-107.5 214.5v450q0 61 -37 80.5t-123 21.5z" />
<glyph unicode="v" horiz-adv-x="1251" d="M-31 848v115h824v-115q-33 0 -60.5 -17.5t-27.5 -48.5q0 -16 22.5 -71.5t65.5 -152.5t63 -148h4q12 33 50 125t55.5 143t17.5 78q0 88 -106 92v115h405v-115q-78 -2 -117 -46t-78 -138l-266 -664h-334l-333 725q-29 66 -65 87.5t-120 35.5z" />
<glyph unicode="w" horiz-adv-x="1933" d="M-12 848v115h1509v-115q-86 0 -86 -57q0 -20 19.5 -72.5t51 -142t54.5 -164.5h4q2 10 65.5 154.5t63.5 203.5q0 78 -100 78v115h397v-115q-74 -2 -107.5 -38t-66.5 -116l-287 -694h-356l-180 498l-201 -498h-358l-289 750q-35 94 -133 98zM666 786q0 -20 63.5 -181 t67.5 -177h4q31 45 66.5 127t35.5 115q0 57 -37 117.5t-110 60.5q-37 0 -63.5 -19.5t-26.5 -42.5z" />
<glyph unicode="x" horiz-adv-x="1366" d="M-2 0v115q78 2 141.5 34.5t94 63.5t99 118t107.5 130l-225 287q-43 53 -86 73.5t-113 26.5v115h807v-115q-78 -4 -78 -43q0 -23 46.5 -81t52.5 -73q4 8 62.5 68.5t58.5 85.5q0 18 -12.5 27.5t-27 11.5t-42.5 4v115h446v-115q-111 -2 -175 -52.5t-216 -238.5l223 -313 q90 -129 207 -129v-115h-823v115q82 0 82 51q0 14 -21.5 52t-49.5 83t-34 55q-6 -6 -48 -51t-67.5 -82t-25.5 -61q0 -47 84 -47v-115h-467z" />
<glyph unicode="y" horiz-adv-x="1251" d="M-10 848v115h774v-115q-84 -4 -84 -57q0 -12 35 -75t77 -132.5t50 -89.5q8 20 66.5 130.5t58.5 143.5q0 43 -23.5 59.5t-81.5 20.5v115h393v-115q-63 -6 -99 -38t-62 -93l-381 -830q-129 -281 -406 -280q-121 0 -189.5 52t-68.5 151q0 76 51.5 113.5t128.5 37.5 q74 0 121 -32.5t47 -98.5q0 -16 -3 -29.5t-6 -18.5l-6 -10q-3 -5 -3 -8q0 -14 27 -14q63 0 112 57.5t64 112.5l-441 832q-23 43 -54 60.5t-97 35.5z" />
<glyph unicode="z" horiz-adv-x="1251" d="M57 0v125l478 723h-127q-154 0 -215 -172h-99v287h1075v-99l-487 -749h90q131 0 200.5 59t121.5 215h98v-389h-1135z" />
<glyph unicode="{" horiz-adv-x="909" d="M-8 477q92 29 123.5 85t31.5 169v391q0 98 38 161t121 95.5t185.5 44t260.5 11.5v-107q-72 -14 -103 -60t-31 -132v-371q0 -129 -32.5 -193.5t-132.5 -91.5v-4q100 -27 132.5 -91.5t32.5 -193.5v-370q0 -86 31 -132t103 -61v-106q-158 0 -260.5 11t-185.5 44t-121 95.5 t-38 160.5v391q0 113 -31.5 169t-123.5 85z" />
<glyph unicode="|" horiz-adv-x="454" d="M113 0v1409h229v-1409h-229z" />
<glyph unicode="}" horiz-adv-x="909" d="M158 -373q72 14 102.5 60.5t30.5 132.5v370q0 129 32.5 194t133.5 91v4q-100 27 -133 91.5t-33 193.5v371q0 86 -31 132t-102 60v107q158 0 260 -11.5t185 -44t121 -95t38 -161.5v-391q0 -113 31.5 -169t124.5 -85q-92 -29 -124 -85t-32 -169v-391q0 -98 -38 -160.5 t-121 -95.5t-185.5 -44t-259.5 -11v106z" />
<glyph unicode="~" horiz-adv-x="1228" d="M141 487q92 176 256 177q80 0 228 -66q14 -6 43.5 -19.5t47 -20.5t41 -16.5t42 -13.5t35.5 -4q39 0 74.5 24.5t55 50.5t50.5 73l73 -197q-41 -55 -67.5 -86t-77.5 -60.5t-111 -29.5q-74 0 -210 69.5t-234 69.5q-104 0 -172 -147z" />
<glyph unicode="&#xa1;" horiz-adv-x="796" d="M90 -219q0 92 116 336.5t124 345.5h145q16 -135 69.5 -271.5t98.5 -235.5t45 -159q0 -135 -93 -197.5t-233 -62.5q-115 0 -193.5 66.5t-78.5 177.5zM154 772q0 102 72.5 175t175 73t175 -73t72.5 -175t-72.5 -175t-175 -73t-175 73t-72.5 175z" />
<glyph unicode="&#xa2;" horiz-adv-x="1366" d="M94 694q0 182 137.5 306t325.5 155v279h152v-273q6 0 17 1t17 1q174 0 288 -67.5t114 -180.5q0 -84 -55.5 -131t-145.5 -47q-84 0 -138 51.5t-54 129.5q0 35 15 64.5t31.5 45.5t16.5 21q0 16 -43 16q-76 0 -112.5 -61.5t-36.5 -219.5q0 -201 46 -283.5t187 -82.5 q45 0 94 28.5t73 51t71 73.5l71 -73q-74 -104 -197.5 -165t-258.5 -67v-291h-152v291q-184 16 -323.5 133t-139.5 295z" />
<glyph unicode="&#xa3;" horiz-adv-x="1366" d="M45 252q0 102 85 166.5t192 64.5q131 0 219 -57q0 94 -74 180h-363v127h252q-68 63 -98.5 95t-67 96.5t-36.5 128.5q0 106 45 184t122.5 119t164.5 59.5t188 18.5q221 0 365.5 -74t144.5 -207q0 -176 -187 -176q-86 0 -140 43t-54 125q0 49 20.5 80.5t40 46t19.5 18.5 q0 8 -31 18.5t-61 10.5q-61 0 -95 -43t-34 -102q0 -76 126.5 -233t145.5 -208h303v-127h-256q6 -33 6 -67q0 -121 -86 -254q53 -23 133 -23q162 0 197 207l90 -14q-4 -127 -38 -229.5t-121 -176.5t-216 -74q-131 0 -254 109q-86 -61 -154.5 -85t-166.5 -24q-135 0 -230.5 74 t-95.5 203zM233 242q0 -66 41 -98.5t109 -32.5q51 0 100 38.5t64 88.5q-80 119 -185 118q-57 0 -93 -29.5t-36 -84.5z" />
<glyph unicode="&#xa4;" horiz-adv-x="1366" d="M63 242l134 133q-45 49 -74 140t-29 190q0 100 28 191t75 142l-134 133l162 160l137 -137q47 43 135.5 71.5t184.5 28.5t184 -28.5t135 -71.5l138 137l161 -160l-133 -133q47 -51 75 -142t28 -191q0 -98 -29 -189.5t-74 -140.5l133 -133l-161 -164l-138 139 q-47 -43 -135 -70.5t-184 -27.5t-184 27.5t-136 70.5l-137 -139zM369 706.5q0 -133.5 90 -229.5t223 -96t223 96t90 229.5t-90 229.5t-223 96t-223 -96t-90 -229.5z" />
<glyph unicode="&#xa5;" horiz-adv-x="1366" d="M39 1294v115h737v-115q-39 -8 -56.5 -14t-28.5 -20.5t-11 -38.5q0 -14 29.5 -89t75.5 -186.5t65 -161.5q12 33 57 125t79 174t34 123q0 51 -24.5 66.5t-92.5 21.5v115h424v-115q-74 2 -118 -42t-85 -136l-116 -260h219v-127h-277l-32 -72v-75h309v-127h-309v-209 q0 -47 10 -75t36.5 -40t50 -14t75.5 -2v-115h-828v115q53 0 79 2t53.5 14t37.5 40t10 75v209h-297v127h297v39l-49 108h-252v127h195l-176 381q-25 53 -121 57z" />
<glyph unicode="&#xa6;" horiz-adv-x="454" d="M113 0v526h229v-526h-229zM113 883v526h229v-526h-229z" />
<glyph unicode="&#xa7;" horiz-adv-x="1138" d="M78 502q0 119 69.5 198.5t186.5 96.5q-76 66 -113 131t-37 155q0 160 106.5 255.5t280.5 95.5q147 0 262 -67t115 -196q0 -76 -42 -118.5t-109 -42.5q-59 0 -109.5 35.5t-50.5 93.5q0 51 34 97t34 52q0 18 -30 32.5t-77 14.5q-72 0 -118 -36.5t-46 -94.5 q0 -61 62.5 -126.5t151.5 -129t179.5 -134.5t152.5 -167t62 -203q0 -131 -52 -197.5t-179 -103.5q72 -68 104.5 -128t32.5 -146q0 -176 -123 -262t-307 -86q-84 0 -167 25.5t-146.5 87t-63.5 147.5q0 72 45 123t115 51q66 0 115 -37t49 -100q0 -51 -32 -90t-32 -54 q0 -31 47.5 -43t88.5 -12q63 0 112 31t49 90q0 49 -46 104.5t-114.5 103.5t-149.5 111.5t-149.5 125t-114.5 145.5t-46 172zM295 610q0 -66 181 -225.5t253 -159.5q43 0 69.5 24.5t26.5 74.5q0 80 -175 235.5t-261 155.5q-41 0 -67.5 -29t-26.5 -76z" />
<glyph unicode="&#xa8;" horiz-adv-x="681" d="M-45 1271.5q0 67.5 47 115t114.5 47.5t115 -47.5t47.5 -115t-47.5 -114.5t-115 -47t-114.5 47t-47 114.5zM406 1271.5q0 67.5 47 115t114.5 47.5t114.5 -47.5t47 -115t-47 -114.5t-114.5 -47t-114.5 47t-47 114.5z" />
<glyph unicode="&#xa9;" horiz-adv-x="1638" d="M90 702.5q0 313.5 206 522.5t523.5 209t523 -209t205.5 -522.5t-205.5 -520.5t-523 -207t-523.5 207t-206 520.5zM279 702.5q0 -253.5 151.5 -425t389 -171.5t389 171.5t151.5 425t-151.5 427t-389.5 173.5q-236 0 -388 -173.5t-152 -427zM414 721q0 213 131 313.5 t336 100.5q90 0 172 -22.5t82 -53.5v-154h-50q-68 172 -202 172q-96 0 -147.5 -91t-51.5 -245q0 -377 197 -376q152 0 241 190h47l-32 -170q-4 -18 -105.5 -48t-169.5 -30q-213 0 -330.5 109.5t-117.5 304.5z" />
<glyph unicode="&#xaa;" horiz-adv-x="819" d="M-33 991q0 51 30 87t82 53.5t102 26.5t113.5 17.5t94.5 16.5v111q0 61 -90 61q-49 0 -49 -10q0 -2 11 -7.5t22.5 -18.5t11.5 -34q0 -102 -137 -102q-53 0 -93 28.5t-40 77.5q0 135 294 136q59 0 121 -8.5t129.5 -27t109.5 -57t42 -94.5v-252q0 -16 9 -26.5t22 -10.5 q8 0 14 3.5t10 7.5t7 13t3 13t2.5 15.5t2.5 13.5h61q-4 -104 -64.5 -144t-175.5 -40q-137 0 -194 98q-53 -59 -107 -80q-47 -18 -133 -18q-82 0 -146.5 37.5t-64.5 113.5zM291 1016q0 -45 51 -45q47 0 47 63v80q0 8 -12 8q-39 0 -62.5 -31.5t-23.5 -74.5z" />
<glyph unicode="&#xab;" horiz-adv-x="1138" d="M86 469v27l360 280q121 96 136 96q37 0 36.5 -32.5t-35 -90t-70.5 -101.5t-87 -102.5t-57 -64.5q4 -6 42 -52t66.5 -83t64.5 -85t55 -86t19 -58q0 -12 -8 -21.5t-20 -9.5q-25 0 -70 32t-118.5 96.5t-98.5 82.5zM508 469v27l360 280q121 96 136 96q37 0 36.5 -32.5 t-35 -90t-70.5 -101.5t-87 -102.5t-57 -64.5q4 -6 41.5 -52t66.5 -83t64.5 -85t55 -86t19.5 -58q0 -12 -8 -21.5t-20 -9.5q-25 0 -70 32t-118.5 96.5t-98.5 82.5z" />
<glyph unicode="&#xac;" horiz-adv-x="1228" d="M133 549v229h963v-594h-230v365h-733z" />
<glyph unicode="&#xad;" horiz-adv-x="681" d="M33 324v315h598v-315h-598z" />
<glyph unicode="&#xae;" horiz-adv-x="1638" d="M90 702.5q0 313.5 206 522.5t523.5 209t523 -209t205.5 -522.5t-205.5 -520.5t-523 -207t-523.5 207t-206 520.5zM279 702.5q0 -253.5 151.5 -425t389 -171.5t389 171.5t151.5 425t-151.5 427t-389.5 173.5q-236 0 -388 -173.5t-152 -427zM467 332v45q57 2 70.5 17.5 t13.5 58.5v540q0 43 -13.5 58.5t-70.5 17.5v45h426q100 0 161.5 -53t61.5 -158q0 -66 -41 -123t-112 -80l116 -174q55 -84 117 -164v-30h-203q-27 0 -59.5 55t-74.5 149.5t-66 135.5h-41v-219q0 -43 14 -58.5t72 -17.5v-45h-371zM752 729h51q96 0 96 168q0 160 -90 160h-57 v-328z" />
<glyph unicode="&#xaf;" horiz-adv-x="681" d="M-18 1167v185h720v-185h-720z" />
<glyph unicode="&#xb0;" horiz-adv-x="819" d="M117 1141q0 123 85 208t207.5 85t207.5 -85t85 -208t-85 -208t-207.5 -85t-207.5 85t-85 208zM244 1141q0 -78 45 -126t120.5 -48t120.5 48t45 126t-45 126t-120.5 48t-120.5 -48t-45 -126z" />
<glyph unicode="&#xb1;" horiz-adv-x="1228" d="M133 0v229h963v-229h-963zM133 520v230h367v213h229v-213h367v-230h-367v-213h-229v213h-367z" />
<glyph unicode="&#xb2;" horiz-adv-x="819" d="M29 573v89q84 66 137 110.5t121.5 116.5t103.5 147.5t35 153.5q0 68 -39 113t-111 45q-37 0 -67.5 -15.5t-30.5 -25.5q0 -4 23 -4q59 0 99 -39t40 -93q0 -57 -43 -98t-115 -41q-66 0 -107.5 44t-41.5 106q0 117 104.5 184.5t268.5 67.5q141 0 256.5 -59.5t115.5 -178.5 q0 -152 -227 -262l-264 -131l2 -4h268q57 0 94 20.5t50.5 42t23.5 53.5h63l-10 -342h-749z" />
<glyph unicode="&#xb3;" horiz-adv-x="819" d="M16 768q0 61 41 102t113 41t121 -37.5t49 -99.5q0 -106 -102 -121q20 -25 84 -24q55 0 90 30q43 37 43 195q0 68 -19.5 100.5t-70.5 32.5q-16 0 -42 -8t-34 -8q-51 0 -51 34.5t51 34.5q8 0 33.5 -4t42.5 -4q35 0 48 31t13 108q0 111 -32 152t-97 41q-39 0 -69.5 -15.5 t-32.5 -33.5h18q55 0 93 -30t38 -81q0 -55 -41 -89t-108 -34q-63 0 -106.5 38t-43.5 98q0 92 96.5 154.5t239.5 62.5q150 0 263.5 -57.5t113.5 -172.5q0 -88 -83 -133t-188 -47v-4q319 0 320 -199q0 -92 -74 -154.5t-166 -85t-188 -22.5q-156 0 -259.5 55.5t-103.5 153.5z " />
<glyph unicode="&#xb4;" horiz-adv-x="681" d="M168 1094l233 309q70 92 164 92q49 0 84 -29.5t35 -76.5q0 -57 -29.5 -87t-95.5 -67l-252 -141h-139z" />
<glyph unicode="&#xb5;" d="M10 -303q86 2 123 21.5t37 80.5v930q0 61 -37 80.5t-123 21.5v115l688 17v-656q0 -115 90 -114q45 0 68 30.5t23 108.5v397q0 59 -30 79.5t-85 22.5v115l643 17v-734q0 -61 39 -80.5t137 -21.5v-115l-686 -12v123q-111 -94 -199 -115v-426h-688v115z" />
<glyph unicode="&#xb6;" horiz-adv-x="1269" d="M82 1004q0 215 99.5 310t328.5 95h647v-55q-80 -8 -112.5 -27.5t-32.5 -56.5v-1626h-246v1704h-121v-1704h-246v921q-143 0 -230 122t-87 317z" />
<glyph unicode="&#xb7;" horiz-adv-x="681" d="M100 481.5q0 100.5 70 170t170 69.5t170 -69.5t70 -170t-70 -170t-170 -69.5t-170 69.5t-70 170z" />
<glyph unicode="&#xb8;" horiz-adv-x="681" d="M74 -426l35 88q98 -27 135 -27q39 0 67.5 18.5t28.5 57.5q0 33 -19.5 52.5t-50.5 23.5q-35 0 -59 -14l-33 18l94 209h95l-56 -133q53 12 84 12q72 0 125 -41t53 -110q0 -74 -56 -119t-119.5 -58.5t-137.5 -13.5q-98 0 -186 37z" />
<glyph unicode="&#xb9;" horiz-adv-x="819" d="M74 1249v78q272 0 344 107h186v-721q0 -39 29 -50.5t112 -11.5v-78h-661v78q96 0 128 11.5t32 50.5v475q0 39 -34 50t-136 11z" />
<glyph unicode="&#xba;" horiz-adv-x="886" d="M-6 1136.5q0 147.5 137 222.5t311 75t311.5 -75t137.5 -222.5t-137.5 -222t-311.5 -74.5t-311 74.5t-137 222zM375 1136.5q0 -145.5 12 -186.5t55 -41t55.5 41t12.5 186.5t-12.5 186.5t-55.5 41t-55 -41t-12 -186.5z" />
<glyph unicode="&#xbb;" horiz-adv-x="1138" d="M98 839.5q0 32.5 37 32.5q14 0 135 -96l361 -280v-27l-215 -172q-25 -18 -98.5 -82.5t-118.5 -96.5t-70 -32q-12 0 -20.5 9t-8.5 22q0 20 19.5 58t55.5 86t64.5 85t66.5 83t42 52q-6 6 -57 64.5t-87 102.5t-71 101.5t-35 90zM520 839.5q0 32.5 37 32.5q14 0 135 -96 l361 -280v-27l-215 -172q-25 -18 -98.5 -82.5t-119 -96.5t-69.5 -32q-12 0 -20.5 9t-8.5 22q0 20 19.5 58t55.5 86t64.5 85t66.5 83t42 52q-6 6 -57 64.5t-87 102.5t-71 101.5t-35 90z" />
<glyph unicode="&#xbc;" horiz-adv-x="2048" d="M111 1249v78q272 0 344 107h186v-721q0 -39 28.5 -50.5t112.5 -11.5v-78h-661v78q96 0 128 11.5t32 50.5v475q0 39 -34 50t-136 11zM555 -25l856 1459h231l-854 -1459h-233zM1157 221v109l373 530h299v-536h166v-103h-166v-57q0 -55 28.5 -69.5t118.5 -16.5v-78h-643v78 q92 2 122 16.5t30 69.5v57h-328zM1243 324h242v335h-4z" />
<glyph unicode="&#xbd;" horiz-adv-x="2048" d="M98 1249v78q272 0 344 107h187v-721q0 -39 28.5 -50.5t112.5 -11.5v-78h-661v78q96 0 127.5 11.5t31.5 50.5v475q0 39 -34 50t-136 11zM498 -25l856 1459h231l-854 -1459h-233zM1225 0v88q84 66 137 111t121.5 116.5t103.5 147.5t35 153q0 68 -39 113t-110 45 q-37 0 -68 -15.5t-31 -25.5q0 -4 23 -4q59 0 99 -39t40 -92q0 -57 -43 -98t-115 -41q-66 0 -107.5 44t-41.5 105q0 117 104.5 184.5t268.5 67.5q141 0 256.5 -59.5t115.5 -177.5q0 -152 -227 -263l-264 -131l2 -4h268q57 0 94 20.5t50.5 42t23.5 54.5h64l-11 -342h-749z" />
<glyph unicode="&#xbe;" horiz-adv-x="2048" d="M66 768q0 61 40.5 102t112.5 41t121 -37.5t49 -99.5q0 -106 -102 -121q20 -25 84 -24q55 0 90 30q43 37 43 195q0 68 -19.5 100.5t-70.5 32.5q-16 0 -42 -8t-34 -8q-51 0 -51 34.5t51 34.5q8 0 33.5 -4t42.5 -4q35 0 48 31t13 108q0 111 -31.5 152t-97.5 41 q-39 0 -69.5 -15.5t-32.5 -33.5h18q55 0 93 -30t38 -81q0 -55 -41 -89t-108 -34q-63 0 -106.5 38t-43.5 98q0 92 96.5 154.5t239.5 62.5q150 0 263.5 -57.5t113.5 -172.5q0 -88 -83 -133t-187 -47v-4q319 0 319 -199q0 -92 -73.5 -154.5t-166 -85t-188.5 -22.5 q-156 0 -259 55.5t-103 153.5zM530 -25l856 1459h232l-854 -1459h-234zM1182 221v109l372 530h299v-536h166v-103h-166v-55q0 -55 29 -70.5t119 -17.5v-78h-643v78q92 2 121.5 17.5t29.5 70.5v55h-327zM1268 324h241v335h-4z" />
<glyph unicode="&#xbf;" horiz-adv-x="1251" d="M31 -78q0 100 61.5 179t135 119t173 90t142.5 83q35 29 35 74h131q16 -61 16 -90q0 -66 -68.5 -208t-68.5 -237q0 -111 58.5 -183.5t164.5 -72.5q37 0 66.5 10.5t29.5 20.5l-43 19q-41 18 -83 70t-42 134q0 90 59.5 156t172.5 66q100 0 163.5 -64.5t63.5 -173.5 q0 -180 -168 -286.5t-414 -106.5q-152 0 -281.5 43t-216.5 136t-87 222zM375 772q0 102 72.5 175t175 73t175 -73t72.5 -175t-72.5 -175t-175 -73t-175 73t-72.5 175z" />
<glyph unicode="&#xc0;" d="M-70 0v115q197 16 242 143l416 1151h397l420 -1120q33 -90 86 -132t145 -42v-115h-979v115q182 0 183 65q0 25 -62 201h-413q-4 -14 -14.5 -47t-16.5 -58.5t-6 -48.5q0 -57 46 -84.5t154 -27.5v-115h-598zM410 508h325l-170 455h-4zM432 1792q0 47 35 76.5t84 29.5 q94 0 164 -92l233 -309h-139l-252 141q-45 25 -65.5 39.5t-40 45t-19.5 69.5z" />
<glyph unicode="&#xc1;" d="M-70 0v115q197 16 242 143l416 1151h397l420 -1120q33 -90 86 -132t145 -42v-115h-979v115q182 0 183 65q0 25 -62 201h-413q-4 -14 -14.5 -47t-16.5 -58.5t-6 -48.5q0 -57 46 -84.5t154 -27.5v-115h-598zM410 508h325l-170 455h-4zM600 1497l234 309q70 92 163 92 q49 0 84 -29.5t35 -76.5q0 -57 -29.5 -87t-95.5 -67l-252 -141h-139z" />
<glyph unicode="&#xc2;" d="M-70 0v115q197 16 242 143l416 1151h397l420 -1120q33 -90 86 -132t145 -42v-115h-979v115q182 0 183 65q0 25 -62 201h-413q-4 -14 -14.5 -47t-16.5 -58.5t-6 -48.5q0 -57 46 -84.5t154 -27.5v-115h-598zM395 1497l250 369h256l252 -369h-162l-217 189l-219 -189h-160z M410 508h325l-170 455h-4z" />
<glyph unicode="&#xc3;" d="M-70 0v115q197 16 242 143l416 1151h397l420 -1120q33 -90 86 -132t145 -42v-115h-979v115q182 0 183 65q0 25 -62 201h-413q-4 -14 -14.5 -47t-16.5 -58.5t-6 -48.5q0 -57 46 -84.5t154 -27.5v-115h-598zM369 1538q12 129 81.5 214t190.5 85q59 0 176 -53t154 -53 q74 0 98 98h111q-25 -125 -86.5 -212t-169.5 -87q-84 0 -205 53t-148 53q-80 0 -96 -98h-106zM410 508h325l-170 455h-4z" />
<glyph unicode="&#xc4;" d="M-70 0v115q197 16 242 143l416 1151h397l420 -1120q33 -90 86 -132t145 -42v-115h-979v115q182 0 183 65q0 25 -62 201h-413q-4 -14 -14.5 -47t-16.5 -58.5t-6 -48.5q0 -57 46 -84.5t154 -27.5v-115h-598zM387 1675.5q0 67.5 47 114.5t114.5 47t115 -47t47.5 -114.5 t-47.5 -115t-115 -47.5t-114.5 47.5t-47 115zM410 508h325l-170 455h-4zM838 1675.5q0 67.5 47 114.5t114.5 47t114.5 -47t47 -114.5t-47 -115t-114.5 -47.5t-114.5 47.5t-47 115z" />
<glyph unicode="&#xc5;" d="M-70 0v115q197 16 242 143l416 1151h397l420 -1120q33 -90 86 -132t145 -42v-115h-979v115q182 0 183 65q0 25 -62 201h-413q-4 -14 -14.5 -47t-16.5 -58.5t-6 -48.5q0 -57 46 -84.5t154 -27.5v-115h-598zM410 508h325l-170 455h-4zM551 1722.5q0 92.5 64.5 157 t156.5 64.5t156.5 -64.5t64.5 -157t-64.5 -157t-156.5 -64.5t-156.5 64.5t-64.5 157zM662 1722q0 -47 31.5 -78.5t78.5 -31.5t79 31.5t32 78.5t-32 79t-79 32t-78.5 -32t-31.5 -79z" />
<glyph unicode="&#xc6;" horiz-adv-x="2048" d="M-131 0v115q90 10 139 62t101 153l405 823q29 57 29 80q0 37 -35 48t-148 13v115h1528l13 -467l-109 -16q-20 63 -34.5 104t-43 96.5t-60.5 88t-83 56t-113 23.5q-66 0 -86 -27.5t-20 -107.5v-344q168 2 176 217h102v-586h-102q-10 143 -42 185.5t-134 56.5v-450 q0 -72 24.5 -97.5t91.5 -25.5q238 0 334 442l109 -16l-13 -541h-1306v115q123 0 163 28.5t40 102.5v284h-418q-6 -12 -30.5 -64t-43 -91t-35 -85t-16.5 -69q0 -53 37 -74.5t100 -31.5v-115h-520zM440 670h355v612h-56z" />
<glyph unicode="&#xc7;" horiz-adv-x="1478" d="M49 688q0 197 82 365t246 274.5t377 106.5q117 0 210 -32t143 -63.5t60 -31.5q12 0 22.5 11t26 35.5t25.5 39.5h119v-467h-111q-152 381 -364 381q-45 0 -80 -20.5t-65.5 -73t-47 -160t-16.5 -267.5q0 -147 9 -258.5t26.5 -185.5t40 -123t53.5 -73.5t61.5 -34t71.5 -9.5 q168 0 249 121t93 305h119q0 -272 -156 -412.5t-432 -140.5h-31l-45 -108q53 12 84 12q72 0 125 -41t53 -110q0 -74 -56 -119t-119.5 -58.5t-137.5 -13.5q-98 0 -186 37l34 88q98 -27 136 -27q39 0 67.5 18.5t28.5 57.5q0 33 -19.5 52.5t-50.5 23.5q-35 0 -59 -14l-33 18 l86 193q-285 33 -462 217t-177 487z" />
<glyph unicode="&#xc8;" d="M33 0v115q133 0 175 28.5t42 102.5v917q0 74 -41 102.5t-170 28.5v115h1393l8 -487h-107q-133 373 -342 372q-127 0 -172 -45v-454q111 0 160 57t76 172h102v-598h-102q-29 137 -73 189.5t-163 52.5v-469q0 -84 156 -84q135 0 238.5 113.5t140.5 312.5h108l-12 -541 h-1417zM457 1792q0 47 34.5 76.5t83.5 29.5q94 0 164 -92l234 -309h-139l-252 141q-45 25 -65.5 39.5t-40 45t-19.5 69.5z" />
<glyph unicode="&#xc9;" d="M33 0v115q133 0 175 28.5t42 102.5v917q0 74 -41 102.5t-170 28.5v115h1393l8 -487h-107q-133 373 -342 372q-127 0 -172 -45v-454q111 0 160 57t76 172h102v-598h-102q-29 137 -73 189.5t-163 52.5v-469q0 -84 156 -84q135 0 238.5 113.5t140.5 312.5h108l-12 -541 h-1417zM625 1497l233 309q70 92 164 92q49 0 84 -29.5t35 -76.5q0 -57 -30 -87t-95 -67l-252 -141h-139z" />
<glyph unicode="&#xca;" d="M33 0v115q133 0 175 28.5t42 102.5v917q0 74 -41 102.5t-170 28.5v115h1393l8 -487h-107q-133 373 -342 372q-127 0 -172 -45v-454q111 0 160 57t76 172h102v-598h-102q-29 137 -73 189.5t-163 52.5v-469q0 -84 156 -84q135 0 238.5 113.5t140.5 312.5h108l-12 -541 h-1417zM420 1497l250 369h256l252 -369h-162l-217 189l-219 -189h-160z" />
<glyph unicode="&#xcb;" d="M33 0v115q133 0 175 28.5t42 102.5v917q0 74 -41 102.5t-170 28.5v115h1393l8 -487h-107q-133 373 -342 372q-127 0 -172 -45v-454q111 0 160 57t76 172h102v-598h-102q-29 137 -73 189.5t-163 52.5v-469q0 -84 156 -84q135 0 238.5 113.5t140.5 312.5h108l-12 -541 h-1417zM412 1675.5q0 67.5 47 114.5t114.5 47t114.5 -47t47 -114.5t-47 -115t-114.5 -47.5t-114.5 47.5t-47 115zM862 1675.5q0 67.5 47 114.5t115 47t115 -47t47 -114.5t-47 -115t-115 -47.5t-115 47.5t-47 115z" />
<glyph unicode="&#xcc;" horiz-adv-x="1138" d="M41 1294v115h1046v-115q-145 0 -190 -28.5t-45 -102.5v-917q0 -76 46 -103.5t200 -27.5v-115h-1049v115q143 0 188.5 28.5t45.5 102.5v917q0 76 -46 103.5t-196 27.5zM229 1792q0 47 35 76.5t84 29.5q94 0 164 -92l233 -309h-139l-252 141q-45 25 -65.5 39.5t-40 45 t-19.5 69.5z" />
<glyph unicode="&#xcd;" horiz-adv-x="1138" d="M41 1294v115h1046v-115q-145 0 -190 -28.5t-45 -102.5v-917q0 -76 46 -103.5t200 -27.5v-115h-1049v115q143 0 188.5 28.5t45.5 102.5v917q0 76 -46 103.5t-196 27.5zM397 1497l234 309q70 92 164 92q49 0 83.5 -29.5t34.5 -76.5q0 -57 -29.5 -87t-95.5 -67l-251 -141 h-140z" />
<glyph unicode="&#xce;" horiz-adv-x="1138" d="M41 1294v115h1046v-115q-145 0 -190 -28.5t-45 -102.5v-917q0 -76 46 -103.5t200 -27.5v-115h-1049v115q143 0 188.5 28.5t45.5 102.5v917q0 76 -46 103.5t-196 27.5zM193 1497l249 369h256l252 -369h-162l-217 189l-219 -189h-159z" />
<glyph unicode="&#xcf;" horiz-adv-x="1138" d="M41 1294v115h1046v-115q-145 0 -190 -28.5t-45 -102.5v-917q0 -76 46 -103.5t200 -27.5v-115h-1049v115q143 0 188.5 28.5t45.5 102.5v917q0 76 -46 103.5t-196 27.5zM184 1675.5q0 67.5 47.5 114.5t115 47t114.5 -47t47 -114.5t-47 -115t-114.5 -47.5t-115 47.5 t-47.5 115zM635 1675.5q0 67.5 47 114.5t114.5 47t114.5 -47t47 -114.5t-47 -115t-114.5 -47.5t-114.5 47.5t-47 115z" />
<glyph unicode="&#xd0;" horiz-adv-x="1705" d="M14 0v115q123 0 163 28.5t40 102.5v467h-184v127h184v323q0 74 -40 102.5t-163 28.5v115h863q154 0 285.5 -40t237 -122t166 -219t60.5 -317q0 -184 -61.5 -320.5t-148.5 -209t-208 -115.5t-211 -54.5t-186 -11.5h-797zM786 209q0 -94 84 -94q55 0 87 47t49.5 177 t17.5 365.5t-17.5 365.5t-49 177t-87.5 47q-84 0 -84 -69v-385h148v-127h-148v-504z" />
<glyph unicode="&#xd1;" horiz-adv-x="1705" d="M18 0v115q123 8 177.5 61t54.5 189v798q0 74 -43 102.5t-178 28.5v115h794l496 -715l4 4v469q0 70 -51 98.5t-164 28.5v115h580l-2 -115q-113 0 -164.5 -28.5t-51.5 -98.5v-1167h-366l-703 1026h-4v-661q0 -135 54.5 -188.5t173.5 -61.5v-115h-607zM449 1538 q12 129 81.5 214t190.5 85q59 0 176 -53t154 -53q74 0 98 98h111q-25 -125 -86.5 -212t-169.5 -87q-82 0 -203 53t-150 53q-80 0 -96 -98h-106z" />
<glyph unicode="&#xd2;" horiz-adv-x="1705" d="M72 704.5q0 325.5 225 527.5t555 202t555 -202t225 -527.5t-225 -527.5t-555 -202t-555 202t-225 527.5zM512 1792q0 47 35 76.5t84 29.5q94 0 164 -92l233 -309h-139l-252 141q-45 25 -65.5 39.5t-40 45t-19.5 69.5zM698 704.5q0 -370.5 31 -492.5t123 -122t123 122 t31 492.5t-31 492.5t-123 122t-123 -122t-31 -492.5z" />
<glyph unicode="&#xd3;" horiz-adv-x="1705" d="M72 704.5q0 325.5 225 527.5t555 202t555 -202t225 -527.5t-225 -527.5t-555 -202t-555 202t-225 527.5zM680 1497l233 309q70 92 164 92q49 0 84 -29.5t35 -76.5q0 -57 -29.5 -87t-95.5 -67l-252 -141h-139zM698 704.5q0 -370.5 31 -492.5t123 -122t123 122t31 492.5 t-31 492.5t-123 122t-123 -122t-31 -492.5z" />
<glyph unicode="&#xd4;" horiz-adv-x="1705" d="M72 704.5q0 325.5 225 527.5t555 202t555 -202t225 -527.5t-225 -527.5t-555 -202t-555 202t-225 527.5zM475 1497l250 369h256l252 -369h-162l-217 189l-219 -189h-160zM698 704.5q0 -370.5 31 -492.5t123 -122t123 122t31 492.5t-31 492.5t-123 122t-123 -122 t-31 -492.5z" />
<glyph unicode="&#xd5;" horiz-adv-x="1705" d="M72 704.5q0 325.5 225 527.5t555 202t555 -202t225 -527.5t-225 -527.5t-555 -202t-555 202t-225 527.5zM449 1538q12 129 81.5 214t190.5 85q59 0 176 -53t154 -53q74 0 98 98h111q-25 -125 -86.5 -212t-169.5 -87q-82 0 -203 53t-150 53q-80 0 -96 -98h-106zM698 704.5 q0 -370.5 31 -492.5t123 -122t123 122t31 492.5t-31 492.5t-123 122t-123 -122t-31 -492.5z" />
<glyph unicode="&#xd6;" horiz-adv-x="1705" d="M72 704.5q0 325.5 225 527.5t555 202t555 -202t225 -527.5t-225 -527.5t-555 -202t-555 202t-225 527.5zM467 1675.5q0 67.5 47 114.5t114.5 47t115 -47t47.5 -114.5t-47.5 -115t-115 -47.5t-114.5 47.5t-47 115zM698 704.5q0 -370.5 31 -492.5t123 -122t123 122 t31 492.5t-31 492.5t-123 122t-123 -122t-31 -492.5zM918 1675.5q0 67.5 47 114.5t114.5 47t114.5 -47t47 -114.5t-47 -115t-114.5 -47.5t-114.5 47.5t-47 115z" />
<glyph unicode="&#xd7;" horiz-adv-x="1228" d="M133 162l320 319l-320 320l162 162l319 -320l320 320l162 -162l-320 -320l320 -319l-162 -162l-320 319l-319 -319z" />
<glyph unicode="&#xd8;" horiz-adv-x="1705" d="M18 -90l254 295q-201 197 -200 500q0 326 225 527.5t555 201.5q223 0 397 -93l183 211h170l-242 -282q272 -209 272 -565q0 -326 -225 -528t-555 -202q-276 0 -481 144l-181 -209h-172zM698 700l295 344q-10 158 -41.5 216.5t-99.5 58.5q-92 0 -123 -122t-31 -492v-5z M702 506q6 -244 39 -330t111 -86q92 0 123 122t31 493q0 117 -5 149z" />
<glyph unicode="&#xd9;" d="M18 1294v115h926v-115q-100 0 -135 -28.5t-35 -102.5v-815q0 -225 225 -225q127 0 182.5 63.5t55.5 192.5v788q0 127 -188 127v115h501v-115q-178 0 -178 -127v-798q0 -111 -49 -192t-132 -123t-173 -60.5t-191 -18.5q-113 0 -195.5 8.5t-167.5 37t-138.5 75.5t-87 131 t-33.5 199v737q0 74 -38 102.5t-149 28.5zM457 1792q0 47 34.5 76.5t83.5 29.5q94 0 164 -92l234 -309h-139l-252 141q-45 25 -65.5 39.5t-40 45t-19.5 69.5z" />
<glyph unicode="&#xda;" d="M18 1294v115h926v-115q-100 0 -135 -28.5t-35 -102.5v-815q0 -225 225 -225q127 0 182.5 63.5t55.5 192.5v788q0 127 -188 127v115h501v-115q-178 0 -178 -127v-798q0 -111 -49 -192t-132 -123t-173 -60.5t-191 -18.5q-113 0 -195.5 8.5t-167.5 37t-138.5 75.5t-87 131 t-33.5 199v737q0 74 -38 102.5t-149 28.5zM625 1497l233 309q70 92 164 92q49 0 84 -29.5t35 -76.5q0 -57 -30 -87t-95 -67l-252 -141h-139z" />
<glyph unicode="&#xdb;" d="M18 1294v115h926v-115q-100 0 -135 -28.5t-35 -102.5v-815q0 -225 225 -225q127 0 182.5 63.5t55.5 192.5v788q0 127 -188 127v115h501v-115q-178 0 -178 -127v-798q0 -111 -49 -192t-132 -123t-173 -60.5t-191 -18.5q-113 0 -195.5 8.5t-167.5 37t-138.5 75.5t-87 131 t-33.5 199v737q0 74 -38 102.5t-149 28.5zM420 1497l250 369h256l252 -369h-162l-217 189l-219 -189h-160z" />
<glyph unicode="&#xdc;" d="M18 1294v115h926v-115q-100 0 -135 -28.5t-35 -102.5v-815q0 -225 225 -225q127 0 182.5 63.5t55.5 192.5v788q0 127 -188 127v115h501v-115q-178 0 -178 -127v-798q0 -111 -49 -192t-132 -123t-173 -60.5t-191 -18.5q-113 0 -195.5 8.5t-167.5 37t-138.5 75.5t-87 131 t-33.5 199v737q0 74 -38 102.5t-149 28.5zM412 1675.5q0 67.5 47 114.5t114.5 47t114.5 -47t47 -114.5t-47 -115t-114.5 -47.5t-114.5 47.5t-47 115zM862 1675.5q0 67.5 47 114.5t115 47t115 -47t47 -114.5t-47 -115t-115 -47.5t-115 47.5t-47 115z" />
<glyph unicode="&#xdd;" d="M25 1311v98h884v-115q-115 -6 -114 -69q0 -16 34.5 -92t90 -189t77.5 -160q14 33 69.5 134.5t96.5 185.5t41 113q0 41 -31.5 56t-111.5 21v115h508v-98q-88 2 -140.5 -48.5t-103.5 -146.5l-246 -459v-411q0 -74 40 -102.5t165 -28.5v-115h-989v115q131 0 173 28.5 t42 102.5v375l-338 616q-38 70 -147 74zM600 1497l234 309q70 92 163 92q49 0 84 -29.5t35 -76.5q0 -57 -29.5 -87t-95.5 -67l-252 -141h-139z" />
<glyph unicode="&#xde;" d="M4 0v115q129 0 170 28.5t41 102.5v917q0 74 -41 102.5t-166 28.5v115h1000v-115q-137 0 -180.5 -28.5t-43.5 -102.5v-41q96 4 289 4q88 0 172 -16t165 -53t130 -111t49 -176q0 -188 -163.5 -290.5t-405.5 -102.5q-80 0 -236 4v-135q0 -74 45 -102.5t189 -28.5v-115h-1014 zM784 492q137 0 178.5 60t41.5 200q0 260 -148 260q-29 0 -50.5 -12.5t-21.5 -34.5v-473z" />
<glyph unicode="&#xdf;" horiz-adv-x="1820" d="M0 0v115q113 2 155 20.5t42 79.5v739q0 170 95 279.5t249.5 155t371.5 45.5q276 0 451.5 -99.5t175.5 -273.5q0 -86 -41 -140.5t-89 -70.5t-89 -29.5t-41 -27.5q0 -20 51 -41t124 -48.5t146.5 -69.5t125 -126t51.5 -197q0 -158 -141.5 -247t-321.5 -89q-109 0 -205 37 t-119 37q-29 0 -43 -49h-106v319h110q76 -205 226 -204q51 0 81.5 32.5t30.5 85.5q0 61 -49 104.5t-118.5 71t-138.5 59.5t-118 91t-49 146q0 49 23.5 90t53.5 66.5t53.5 64.5t23.5 86v186q0 121 -102.5 121t-102.5 -121v-1198h-766z" />
<glyph unicode="&#xe0;" horiz-adv-x="1366" d="M18 238q0 86 45.5 145t126 89t157.5 45t175.5 29.5t145.5 26.5v177q0 111 -138 110q-76 0 -75 -20q0 -6 10 -13.5t21.5 -14.5t21.5 -29.5t10 -57.5q0 -74 -58.5 -113t-146.5 -39q-84 0 -144 48.5t-60 128.5q0 225 450 225q166 0 301 -31t225.5 -101.5t90.5 -170.5v-426 q0 -27 15 -44.5t33.5 -17.5t32 12.5t17.5 24.5t10 38t8 32h90q-8 -166 -108 -240q-86 -63 -262 -63q-109 0 -180.5 36.5t-118.5 127.5q-84 -100 -162 -132t-209 -32q-125 0 -224.5 62.5t-99.5 187.5zM317 1389q0 47 35 76.5t84 29.5q94 0 164 -92l234 -309h-140l-252 141 q-45 25 -65.5 39t-40 45t-19.5 70zM514 283q0 -82 82 -82q72 0 72 110v131q0 14 -19 15q-61 0 -98 -51t-37 -123z" />
<glyph unicode="&#xe1;" horiz-adv-x="1366" d="M18 238q0 86 45.5 145t126 89t157.5 45t175.5 29.5t145.5 26.5v177q0 111 -138 110q-76 0 -75 -20q0 -6 10 -13.5t21.5 -14.5t21.5 -29.5t10 -57.5q0 -74 -58.5 -113t-146.5 -39q-84 0 -144 48.5t-60 128.5q0 225 450 225q166 0 301 -31t225.5 -101.5t90.5 -170.5v-426 q0 -27 15 -44.5t33.5 -17.5t32 12.5t17.5 24.5t10 38t8 32h90q-8 -166 -108 -240q-86 -63 -262 -63q-109 0 -180.5 36.5t-118.5 127.5q-84 -100 -162 -132t-209 -32q-125 0 -224.5 62.5t-99.5 187.5zM485 1094l234 309q70 92 164 92q49 0 83.5 -29.5t34.5 -76.5 q0 -57 -29.5 -87t-94.5 -67l-252 -141h-140zM514 283q0 -82 82 -82q72 0 72 110v131q0 14 -19 15q-61 0 -98 -51t-37 -123z" />
<glyph unicode="&#xe2;" horiz-adv-x="1366" d="M18 238q0 86 45.5 145t126 89t157.5 45t175.5 29.5t145.5 26.5v177q0 111 -138 110q-76 0 -75 -20q0 -6 10 -13.5t21.5 -14.5t21.5 -29.5t10 -57.5q0 -74 -58.5 -113t-146.5 -39q-84 0 -144 48.5t-60 128.5q0 225 450 225q166 0 301 -31t225.5 -101.5t90.5 -170.5v-426 q0 -27 15 -44.5t33.5 -17.5t32 12.5t17.5 24.5t10 38t8 32h90q-8 -166 -108 -240q-86 -63 -262 -63q-109 0 -180.5 36.5t-118.5 127.5q-84 -100 -162 -132t-209 -32q-125 0 -224.5 62.5t-99.5 187.5zM281 1094l249 368h256l252 -368h-161l-218 188l-219 -188h-159zM514 283 q0 -82 82 -82q72 0 72 110v131q0 14 -19 15q-61 0 -98 -51t-37 -123z" />
<glyph unicode="&#xe3;" horiz-adv-x="1366" d="M18 238q0 86 45.5 145t126 89t157.5 45t175.5 29.5t145.5 26.5v177q0 111 -138 110q-76 0 -75 -20q0 -6 10 -13.5t21.5 -14.5t21.5 -29.5t10 -57.5q0 -74 -58.5 -113t-146.5 -39q-84 0 -144 48.5t-60 128.5q0 225 450 225q166 0 301 -31t225.5 -101.5t90.5 -170.5v-426 q0 -27 15 -44.5t33.5 -17.5t32 12.5t17.5 24.5t10 38t8 32h90q-8 -166 -108 -240q-86 -63 -262 -63q-109 0 -180.5 36.5t-118.5 127.5q-84 -100 -162 -132t-209 -32q-125 0 -224.5 62.5t-99.5 187.5zM254 1135q12 129 82 214t190 85q59 0 176 -53.5t154 -53.5q74 0 98 98 h111q-25 -125 -86 -212t-170 -87q-84 0 -205 53.5t-147 53.5q-80 0 -97 -98h-106zM514 283q0 -82 82 -82q72 0 72 110v131q0 14 -19 15q-61 0 -98 -51t-37 -123z" />
<glyph unicode="&#xe4;" horiz-adv-x="1366" d="M18 238q0 86 45.5 145t126 89t157.5 45t175.5 29.5t145.5 26.5v177q0 111 -138 110q-76 0 -75 -20q0 -6 10 -13.5t21.5 -14.5t21.5 -29.5t10 -57.5q0 -74 -58.5 -113t-146.5 -39q-84 0 -144 48.5t-60 128.5q0 225 450 225q166 0 301 -31t225.5 -101.5t90.5 -170.5v-426 q0 -27 15 -44.5t33.5 -17.5t32 12.5t17.5 24.5t10 38t8 32h90q-8 -166 -108 -240q-86 -63 -262 -63q-109 0 -180.5 36.5t-118.5 127.5q-84 -100 -162 -132t-209 -32q-125 0 -224.5 62.5t-99.5 187.5zM272 1271.5q0 67.5 47.5 115t115 47.5t114.5 -47.5t47 -115t-47 -114.5 t-114.5 -47t-115 47t-47.5 114.5zM514 283q0 -82 82 -82q72 0 72 110v131q0 14 -19 15q-61 0 -98 -51t-37 -123zM723 1271.5q0 67.5 47 115t114.5 47.5t115 -47.5t47.5 -115t-47.5 -114.5t-115 -47t-114.5 47t-47 114.5z" />
<glyph unicode="&#xe5;" horiz-adv-x="1366" d="M18 238q0 86 45.5 145t126 89t157.5 45t175.5 29.5t145.5 26.5v177q0 111 -138 110q-76 0 -75 -20q0 -6 10 -13.5t21.5 -14.5t21.5 -29.5t10 -57.5q0 -74 -58.5 -113t-146.5 -39q-84 0 -144 48.5t-60 128.5q0 225 450 225q166 0 301 -31t225.5 -101.5t90.5 -170.5v-426 q0 -27 15 -44.5t33.5 -17.5t32 12.5t17.5 24.5t10 38t8 32h90q-8 -166 -108 -240q-86 -63 -262 -63q-109 0 -180.5 36.5t-118.5 127.5q-84 -100 -162 -132t-209 -32q-125 0 -224.5 62.5t-99.5 187.5zM436 1319q0 92 64.5 156.5t157 64.5t157 -64.5t64.5 -156.5t-64.5 -156.5 t-157 -64.5t-157 64.5t-64.5 156.5zM514 283q0 -82 82 -82q72 0 72 110v131q0 14 -19 15q-61 0 -98 -51t-37 -123zM547 1319q0 -45 31.5 -78t79 -33t79 33t31.5 78t-31.5 78t-79 33t-79 -33t-31.5 -78z" />
<glyph unicode="&#xe6;" horiz-adv-x="1933" d="M49 256q0 78 48 132t131 83t162 45t174 30.5t136 26.5v150q0 74 -35.5 105.5t-111.5 31.5q-72 0 -72 -16q0 -2 17.5 -13.5t36 -36t18.5 -61.5q0 -72 -57.5 -118t-157.5 -46t-153.5 46.5t-53.5 117.5q0 66 48 116t123 75.5t150.5 38t147.5 12.5q205 0 379 -105 q141 104 364 105q221 0 369 -127t156 -344h-623q0 -340 264 -340q158 0 293 192l82 -57q-113 -172 -247 -241.5t-330 -69.5q-195 0 -355 127q-102 -74 -207.5 -100.5t-263.5 -26.5q-197 0 -314.5 64.5t-117.5 203.5zM557 295q0 -156 64 -156q41 0 60 34t19 122v119 q0 49 -18 49q-49 0 -87 -47t-38 -121zM1245 618h152v70q0 106 -17.5 147.5t-58.5 41.5t-58.5 -41t-17.5 -148v-70z" />
<glyph unicode="&#xe7;" horiz-adv-x="1251" d="M53 481q0 127 62.5 227.5t160 156t200 83t198.5 27.5q242 0 371 -81t129 -192q0 -96 -59.5 -147t-156.5 -51q-84 0 -143 56t-59 138q0 92 80 144q-29 18 -76 18q-74 0 -105.5 -70.5t-31.5 -248.5q0 -213 56 -299t177 -86t264 151l76 -61q-178 -233 -489 -256l-52 -123 q53 12 84 12q72 0 125.5 -41t53.5 -110q0 -74 -56.5 -119t-120 -58.5t-137.5 -13.5q-98 0 -186 37l35 88q98 -27 135 -27q39 0 67.5 18.5t28.5 57.5q0 33 -19.5 52.5t-50.5 23.5q-35 0 -59 -14l-33 18l90 197q-141 4 -265 57t-209 167.5t-85 268.5z" />
<glyph unicode="&#xe8;" horiz-adv-x="1251" d="M53 475q0 233 165 366.5t403 133.5q244 0 401.5 -125t157.5 -367h-598q4 -348 229 -348q55 0 94 10.5t81 45t56.5 50t67.5 76.5l88 -49q-96 -152 -227 -216t-316 -64q-258 0 -430 120.5t-172 366.5zM297 1389q0 47 35 76.5t84 29.5q94 0 164 -92l233 -309h-139l-252 141 q-45 25 -65.5 39t-40 45t-19.5 70zM582 598h151v74q0 106 -17.5 147t-58.5 41t-58 -41t-17 -147v-74z" />
<glyph unicode="&#xe9;" horiz-adv-x="1251" d="M53 475q0 233 165 366.5t403 133.5q244 0 401.5 -125t157.5 -367h-598q4 -348 229 -348q55 0 94 10.5t81 45t56.5 50t67.5 76.5l88 -49q-96 -152 -227 -216t-316 -64q-258 0 -430 120.5t-172 366.5zM465 1094l233 309q70 92 164 92q49 0 84 -29.5t35 -76.5 q0 -57 -29.5 -87t-95.5 -67l-252 -141h-139zM582 598h151v74q0 106 -17.5 147t-58.5 41t-58 -41t-17 -147v-74z" />
<glyph unicode="&#xea;" horiz-adv-x="1251" d="M53 475q0 233 165 366.5t403 133.5q244 0 401.5 -125t157.5 -367h-598q4 -348 229 -348q55 0 94 10.5t81 45t56.5 50t67.5 76.5l88 -49q-96 -152 -227 -216t-316 -64q-258 0 -430 120.5t-172 366.5zM260 1094l250 368h256l252 -368h-162l-217 188l-219 -188h-160z M582 598h151v74q0 106 -17.5 147t-58.5 41t-58 -41t-17 -147v-74z" />
<glyph unicode="&#xeb;" horiz-adv-x="1251" d="M53 475q0 233 165 366.5t403 133.5q244 0 401.5 -125t157.5 -367h-598q4 -348 229 -348q55 0 94 10.5t81 45t56.5 50t67.5 76.5l88 -49q-96 -152 -227 -216t-316 -64q-258 0 -430 120.5t-172 366.5zM252 1271.5q0 67.5 47 115t114.5 47.5t114.5 -47.5t47 -115t-47 -114.5 t-114.5 -47t-114.5 47t-47 114.5zM582 598h151v74q0 106 -17.5 147t-58.5 41t-58 -41t-17 -147v-74zM702 1271.5q0 67.5 47.5 115t115 47.5t114.5 -47.5t47 -115t-47 -114.5t-114.5 -47t-115 47t-47.5 114.5z" />
<glyph unicode="&#xec;" horiz-adv-x="909" d="M12 0v115q111 2 152 21.5t41 80.5v512q0 61 -40 80.5t-145 21.5v115l693 17v-746q0 -61 40 -80.5t144 -21.5v-115h-885zM102 1389q0 47 35 76.5t84 29.5q94 0 164 -92l233 -309h-139l-252 141q-45 25 -65.5 39t-40 45t-19.5 70z" />
<glyph unicode="&#xed;" horiz-adv-x="909" d="M12 0v115q111 2 152 21.5t41 80.5v512q0 61 -40 80.5t-145 21.5v115l693 17v-746q0 -61 40 -80.5t144 -21.5v-115h-885zM270 1094l234 309q70 92 164 92q49 0 83.5 -29.5t34.5 -76.5q0 -57 -29.5 -87t-94.5 -67l-252 -141h-140z" />
<glyph unicode="&#xee;" horiz-adv-x="909" d="M12 0v115q111 2 152 21.5t41 80.5v512q0 61 -40 80.5t-145 21.5v115l693 17v-746q0 -61 40 -80.5t144 -21.5v-115h-885zM66 1094l249 368h256l252 -368h-161l-218 188l-219 -188h-159z" />
<glyph unicode="&#xef;" horiz-adv-x="909" d="M12 0v115q111 2 152 21.5t41 80.5v512q0 61 -40 80.5t-145 21.5v115l693 17v-746q0 -61 40 -80.5t144 -21.5v-115h-885zM57 1271.5q0 67.5 47.5 115t115 47.5t114.5 -47.5t47 -115t-47 -114.5t-114.5 -47t-115 47t-47.5 114.5zM508 1271.5q0 67.5 47 115t114.5 47.5 t114.5 -47.5t47 -115t-47 -114.5t-114.5 -47t-114.5 47t-47 114.5z" />
<glyph unicode="&#xf0;" horiz-adv-x="1478" d="M49 471q0 119 63.5 212t167 145.5t220 79t239.5 26.5q31 0 105 -4q-2 158 -131 258l-230 -105l-123 86l218 101q-102 45 -230 73l47 91q229 0 410 -58l207 94l123 -86l-158 -73q217 -106 335 -291.5t118 -425.5q0 -166 -52.5 -286t-150 -188.5t-217 -100t-271.5 -31.5 q-123 0 -239.5 27.5t-220 83t-167 151.5t-63.5 221zM635 471q0 -156 12 -237.5t32.5 -106.5t59.5 -25t59.5 25t33 106.5t12.5 237.5q0 147 -12.5 224t-33 100.5t-59.5 23.5t-59.5 -23.5t-32.5 -100.5t-12 -224z" />
<glyph unicode="&#xf1;" d="M14 0v115q90 2 127 21.5t37 80.5v512q0 61 -37 80.5t-127 21.5v115l678 17v-136q180 147 352 148q180 0 277.5 -84t97.5 -178v-496q0 -61 37 -80.5t123 -21.5v-115h-688v645q0 109 -92 109t-92 -109v-428q0 -59 30.5 -79.5t91.5 -22.5v-115h-815zM393 1135q12 129 82 214 t191 85q59 0 175.5 -53.5t153.5 -53.5q74 0 99 98h110q-25 -125 -86 -212t-170 -87q-84 0 -204.5 53.5t-147.5 53.5q-80 0 -96 -98h-107z" />
<glyph unicode="&#xf2;" horiz-adv-x="1478" d="M49 481q0 129 63.5 227.5t167 155t220 84t239.5 27.5t240 -27.5t220.5 -84t167 -155t63.5 -227.5t-63.5 -227t-167 -154.5t-220.5 -84t-240 -27.5t-239.5 27.5t-220 84t-167 154.5t-63.5 227zM399 1389q0 47 35 76.5t84 29.5q94 0 164 -92l233 -309h-139l-252 141 q-45 25 -65.5 39t-40 45t-19.5 70zM635 481q0 -162 12 -244.5t32.5 -108.5t59.5 -26t59.5 26t33 108.5t12.5 244.5t-12.5 245t-33 108.5t-59.5 25.5t-59.5 -25.5t-32.5 -108.5t-12 -245z" />
<glyph unicode="&#xf3;" horiz-adv-x="1478" d="M49 481q0 129 63.5 227.5t167 155t220 84t239.5 27.5t240 -27.5t220.5 -84t167 -155t63.5 -227.5t-63.5 -227t-167 -154.5t-220.5 -84t-240 -27.5t-239.5 27.5t-220 84t-167 154.5t-63.5 227zM567 1094l234 309q70 92 164 92q49 0 83.5 -29.5t34.5 -76.5q0 -57 -29.5 -87 t-95.5 -67l-251 -141h-140zM635 481q0 -162 12 -244.5t32.5 -108.5t59.5 -26t59.5 26t33 108.5t12.5 244.5t-12.5 245t-33 108.5t-59.5 25.5t-59.5 -25.5t-32.5 -108.5t-12 -245z" />
<glyph unicode="&#xf4;" horiz-adv-x="1478" d="M49 481q0 129 63.5 227.5t167 155t220 84t239.5 27.5t240 -27.5t220.5 -84t167 -155t63.5 -227.5t-63.5 -227t-167 -154.5t-220.5 -84t-240 -27.5t-239.5 27.5t-220 84t-167 154.5t-63.5 227zM362 1094l250 368h256l252 -368h-162l-217 188l-219 -188h-160zM635 481 q0 -162 12 -244.5t32.5 -108.5t59.5 -26t59.5 26t33 108.5t12.5 244.5t-12.5 245t-33 108.5t-59.5 25.5t-59.5 -25.5t-32.5 -108.5t-12 -245z" />
<glyph unicode="&#xf5;" horiz-adv-x="1478" d="M49 481q0 129 63.5 227.5t167 155t220 84t239.5 27.5t240 -27.5t220.5 -84t167 -155t63.5 -227.5t-63.5 -227t-167 -154.5t-220.5 -84t-240 -27.5t-239.5 27.5t-220 84t-167 154.5t-63.5 227zM336 1135q12 129 81.5 214t190.5 85q59 0 176 -53.5t154 -53.5q74 0 98 98 h111q-25 -125 -86.5 -212t-169.5 -87q-84 0 -205 53.5t-147 53.5q-80 0 -97 -98h-106zM635 481q0 -162 12 -244.5t32.5 -108.5t59.5 -26t59.5 26t33 108.5t12.5 244.5t-12.5 245t-33 108.5t-59.5 25.5t-59.5 -25.5t-32.5 -108.5t-12 -245z" />
<glyph unicode="&#xf6;" horiz-adv-x="1478" d="M49 481q0 129 63.5 227.5t167 155t220 84t239.5 27.5t240 -27.5t220.5 -84t167 -155t63.5 -227.5t-63.5 -227t-167 -154.5t-220.5 -84t-240 -27.5t-239.5 27.5t-220 84t-167 154.5t-63.5 227zM354 1271.5q0 67.5 47.5 115t115 47.5t114.5 -47.5t47 -115t-47 -114.5 t-114.5 -47t-115 47t-47.5 114.5zM635 481q0 -162 12 -244.5t32.5 -108.5t59.5 -26t59.5 26t33 108.5t12.5 244.5t-12.5 245t-33 108.5t-59.5 25.5t-59.5 -25.5t-32.5 -108.5t-12 -245zM805 1271.5q0 67.5 47 115t114.5 47.5t114.5 -47.5t47 -115t-47 -114.5t-114.5 -47 t-114.5 47t-47 114.5z" />
<glyph unicode="&#xf7;" horiz-adv-x="1228" d="M133 367v229h963v-229h-963zM438 86q0 72 52.5 124t124 52t124 -52t52.5 -124t-52.5 -124t-124 -52t-124 52t-52.5 124zM438 876.5q0 71.5 52.5 124t124 52.5t124 -52.5t52.5 -124t-52.5 -124t-124 -52.5t-124 52.5t-52.5 124z" />
<glyph unicode="&#xf8;" horiz-adv-x="1478" d="M49 481q0 129 63.5 227.5t167 155t220 84t239.5 27.5q164 0 312 -47l106 121h156l-150 -168q266 -131 267 -400q0 -129 -63.5 -227t-167 -154.5t-220.5 -84t-240 -27.5q-176 0 -317 51l-123 -141h-154l164 188q-260 131 -260 395zM635 457l203 229q-10 104 -33 139 t-66 35q-39 0 -59.5 -25.5t-32.5 -108.5t-12 -245v-24zM641 287q8 -111 31.5 -148t66.5 -37q39 0 59.5 26t33 108.5t12.5 244.5v35z" />
<glyph unicode="&#xf9;" d="M10 831v115l688 17v-656q0 -115 90 -114q45 0 68 30.5t23 108.5v397q0 59 -30 79.5t-85 22.5v115l643 17v-734q0 -61 39 -80.5t137 -21.5v-115l-686 -12v123q-88 -74 -168 -104.5t-190 -30.5q-154 0 -261.5 76.5t-107.5 214.5v450q0 61 -37 80.5t-123 21.5zM457 1389 q0 47 34.5 76.5t83.5 29.5q94 0 164 -92l234 -309h-139l-252 141q-45 25 -65.5 39t-40 45t-19.5 70z" />
<glyph unicode="&#xfa;" d="M10 831v115l688 17v-656q0 -115 90 -114q45 0 68 30.5t23 108.5v397q0 59 -30 79.5t-85 22.5v115l643 17v-734q0 -61 39 -80.5t137 -21.5v-115l-686 -12v123q-88 -74 -168 -104.5t-190 -30.5q-154 0 -261.5 76.5t-107.5 214.5v450q0 61 -37 80.5t-123 21.5zM625 1094 l233 309q70 92 164 92q49 0 84 -29.5t35 -76.5q0 -57 -30 -87t-95 -67l-252 -141h-139z" />
<glyph unicode="&#xfb;" d="M10 831v115l688 17v-656q0 -115 90 -114q45 0 68 30.5t23 108.5v397q0 59 -30 79.5t-85 22.5v115l643 17v-734q0 -61 39 -80.5t137 -21.5v-115l-686 -12v123q-88 -74 -168 -104.5t-190 -30.5q-154 0 -261.5 76.5t-107.5 214.5v450q0 61 -37 80.5t-123 21.5zM420 1094 l250 368h256l252 -368h-162l-217 188l-219 -188h-160z" />
<glyph unicode="&#xfc;" d="M10 831v115l688 17v-656q0 -115 90 -114q45 0 68 30.5t23 108.5v397q0 59 -30 79.5t-85 22.5v115l643 17v-734q0 -61 39 -80.5t137 -21.5v-115l-686 -12v123q-88 -74 -168 -104.5t-190 -30.5q-154 0 -261.5 76.5t-107.5 214.5v450q0 61 -37 80.5t-123 21.5zM412 1271.5 q0 67.5 47 115t114.5 47.5t114.5 -47.5t47 -115t-47 -114.5t-114.5 -47t-114.5 47t-47 114.5zM862 1271.5q0 67.5 47 115t115 47.5t115 -47.5t47 -115t-47 -114.5t-115 -47t-115 47t-47 114.5z" />
<glyph unicode="&#xfd;" horiz-adv-x="1251" d="M-10 848v115h774v-115q-84 -4 -84 -57q0 -12 35 -75t77 -132.5t50 -89.5q8 20 66.5 130.5t58.5 143.5q0 43 -23.5 59.5t-81.5 20.5v115h393v-115q-63 -6 -99 -38t-62 -93l-381 -830q-129 -281 -406 -280q-121 0 -189.5 52t-68.5 151q0 76 51.5 113.5t128.5 37.5 q74 0 121 -32.5t47 -98.5q0 -16 -3 -29.5t-6 -18.5l-6 -10q-3 -5 -3 -8q0 -14 27 -14q63 0 112 57.5t64 112.5l-441 832q-23 43 -54 60.5t-97 35.5zM453 1094l233 309q70 92 164 92q49 0 84 -29.5t35 -76.5q0 -57 -30 -87t-95 -67l-252 -141h-139z" />
<glyph unicode="&#xfe;" horiz-adv-x="1478" d="M-16 -279q102 2 142 22.5t40 84.5v1348q0 61 -40 80.5t-142 21.5v115l690 16v-569q57 66 124.5 100.5t180.5 34.5q190 0 319 -137.5t129 -354.5q0 -221 -139 -358t-362 -137q-135 0 -232 84v-244q0 -63 44 -83.5t167 -23.5v-114h-921v114zM694 236q0 -43 19.5 -66 t50.5 -23q51 0 78.5 48.5t27.5 193.5v217q0 96 -21.5 134t-68.5 38q-35 0 -60.5 -31.5t-25.5 -80.5v-430z" />
<glyph unicode="&#xff;" horiz-adv-x="1251" d="M-10 848v115h774v-115q-84 -4 -84 -57q0 -12 35 -75t77 -132.5t50 -89.5q8 20 66.5 130.5t58.5 143.5q0 43 -23.5 59.5t-81.5 20.5v115h393v-115q-63 -6 -99 -38t-62 -93l-381 -830q-129 -281 -406 -280q-121 0 -189.5 52t-68.5 151q0 76 51.5 113.5t128.5 37.5 q74 0 121 -32.5t47 -98.5q0 -16 -3 -29.5t-6 -18.5l-6 -10q-3 -5 -3 -8q0 -14 27 -14q63 0 112 57.5t64 112.5l-441 832q-23 43 -54 60.5t-97 35.5zM240 1271.5q0 67.5 47 115t114.5 47.5t114.5 -47.5t47 -115t-47 -114.5t-114.5 -47t-114.5 47t-47 114.5zM690 1271.5 q0 67.5 47 115t115 47.5t115 -47.5t47 -115t-47 -114.5t-115 -47t-115 47t-47 114.5z" />
<glyph unicode="&#x152;" horiz-adv-x="2048" d="M12 717q0 180 94.5 346t255 268.5t343.5 102.5q70 0 147.5 -12.5t97.5 -12.5h1000l12 -467l-109 -16q-20 63 -34.5 104t-43 96.5t-60.5 88t-83 56t-112 23.5q-66 0 -86.5 -27.5t-20.5 -107.5v-344q168 2 176 217h103v-586h-103q-10 143 -41.5 185.5t-134.5 56.5v-450 q0 -72 24.5 -97.5t92.5 -25.5q238 0 334 442l108 -16l-12 -541h-881q-59 0 -170 -12q-115 -12 -172 -13q-324 0 -524.5 209t-200.5 533zM598 311q0 -221 129 -221q141 0 141 221v787q0 221 -141 221q-129 0 -129 -221v-787z" />
<glyph unicode="&#x153;" horiz-adv-x="2048" d="M51 481.5q0 102.5 42 188.5t109.5 141t154.5 93t174 54.5t174 16.5q172 0 370 -82q156 82 357 82q231 0 389.5 -129t158.5 -354h-618q-10 -137 48 -245t192 -108q166 0 315 193l80 -58q-102 -154 -236.5 -220t-322.5 -66q-190 0 -351 90q-172 -90 -382 -90 q-86 0 -173.5 16t-174.5 54t-154.5 93.5t-109.5 141.5t-42 188.5zM608 481q0 -162 11.5 -244.5t31 -108.5t56 -26t56 26t31 108.5t11.5 244.5t-11.5 245t-31 108.5t-56 25.5t-56 -25.5t-31 -108.5t-11.5 -245zM1362 606h151v74q0 106 -17 147t-58 41t-58.5 -41t-17.5 -147 v-74z" />
<glyph unicode="&#x178;" d="M25 1311v98h884v-115q-115 -6 -114 -69q0 -16 34.5 -92t90 -189t77.5 -160q14 33 69.5 134.5t96.5 185.5t41 113q0 41 -31.5 56t-111.5 21v115h508v-98q-88 2 -140.5 -48.5t-103.5 -146.5l-246 -459v-411q0 -74 40 -102.5t165 -28.5v-115h-989v115q131 0 173 28.5 t42 102.5v375l-338 616q-38 70 -147 74zM412 1675.5q0 67.5 47 114.5t114.5 47t114.5 -47t47 -114.5t-47 -115t-114.5 -47.5t-114.5 47.5t-47 115zM862 1675.5q0 67.5 47 114.5t115 47t115 -47t47 -114.5t-47 -115t-115 -47.5t-115 47.5t-47 115z" />
<glyph unicode="&#x2c6;" horiz-adv-x="681" d="M-37 1094l250 368h256l252 -368h-162l-217 188l-219 -188h-160z" />
<glyph unicode="&#x2dc;" horiz-adv-x="681" d="M-63 1135q12 129 81.5 214t190.5 85q59 0 176 -53.5t154 -53.5q74 0 98 98h111q-25 -125 -86.5 -212t-169.5 -87q-82 0 -203 53.5t-150 53.5q-80 0 -96 -98h-106z" />
<glyph unicode="&#x2000;" horiz-adv-x="970" />
<glyph unicode="&#x2001;" horiz-adv-x="1943" />
<glyph unicode="&#x2002;" horiz-adv-x="970" />
<glyph unicode="&#x2003;" horiz-adv-x="1943" />
<glyph unicode="&#x2004;" horiz-adv-x="647" />
<glyph unicode="&#x2005;" horiz-adv-x="485" />
<glyph unicode="&#x2006;" horiz-adv-x="323" />
<glyph unicode="&#x2007;" horiz-adv-x="323" />
<glyph unicode="&#x2008;" horiz-adv-x="241" />
<glyph unicode="&#x2009;" horiz-adv-x="387" />
<glyph unicode="&#x200a;" horiz-adv-x="106" />
<glyph unicode="&#x2010;" horiz-adv-x="681" d="M33 324v315h598v-315h-598z" />
<glyph unicode="&#x2011;" horiz-adv-x="681" d="M33 324v315h598v-315h-598z" />
<glyph unicode="&#x2012;" horiz-adv-x="681" d="M33 324v315h598v-315h-598z" />
<glyph unicode="&#x2013;" horiz-adv-x="1024" d="M0 354v254h1024v-254h-1024z" />
<glyph unicode="&#x2014;" horiz-adv-x="2048" d="M0 354v254h2048v-254h-2048z" />
<glyph unicode="&#x2018;" horiz-adv-x="681" d="M35 870q0 156 94 302.5t236 261.5l92 -115q-184 -160 -185 -318q31 6 58 7q98 0 157.5 -73t59.5 -173q0 -106 -73 -170t-179 -64q-127 0 -193.5 103.5t-66.5 238.5z" />
<glyph unicode="&#x2019;" horiz-adv-x="681" d="M135 1200q0 106 73 170t179 64q127 0 193.5 -103.5t66.5 -238.5q0 -156 -94 -302.5t-236 -261.5l-92 115q184 160 185 318q-31 -6 -58 -7q-98 0 -157.5 73t-59.5 173z" />
<glyph unicode="&#x201a;" horiz-adv-x="681" d="M137 246q0 106 73 169.5t179 63.5q127 0 193.5 -103.5t66.5 -238.5q0 -156 -94 -302t-236 -261l-92 115q184 160 185 317q-31 -6 -58 -6q-98 0 -157.5 73t-59.5 173z" />
<glyph unicode="&#x201c;" horiz-adv-x="1366" d="M35 870q0 156 94 302.5t236 261.5l92 -115q-184 -160 -185 -318q31 6 58 7q98 0 157.5 -73t59.5 -173q0 -106 -73 -170t-179 -64q-127 0 -193.5 103.5t-66.5 238.5zM717 870q0 156 94 302.5t236 261.5l92 -115q-184 -160 -185 -318q31 6 58 7q98 0 157.5 -73t59.5 -173 q0 -106 -73 -170t-179 -64q-127 0 -193.5 103.5t-66.5 238.5z" />
<glyph unicode="&#x201d;" horiz-adv-x="1366" d="M137 1200q0 106 73 170t179 64q127 0 193.5 -103.5t66.5 -238.5q0 -156 -94 -302.5t-236 -261.5l-92 115q184 160 185 318q-31 -6 -58 -7q-98 0 -157.5 73t-59.5 173zM819 1200q0 106 73 170t179 64q127 0 193.5 -103.5t66.5 -238.5q0 -156 -94 -302.5t-236 -261.5 l-92 115q184 160 185 318q-31 -6 -58 -7q-98 0 -157.5 73t-59.5 173z" />
<glyph unicode="&#x201e;" horiz-adv-x="1366" d="M137 246q0 106 73 169.5t179 63.5q127 0 193.5 -103.5t66.5 -238.5q0 -156 -94 -302t-236 -261l-92 115q184 160 185 317q-31 -6 -58 -6q-98 0 -157.5 73t-59.5 173zM819 246q0 106 73 169.5t179 63.5q127 0 193.5 -103.5t66.5 -238.5q0 -156 -94 -302t-236 -261l-92 115 q184 160 185 317q-31 -6 -58 -6q-98 0 -157.5 73t-59.5 173z" />
<glyph unicode="&#x2022;" horiz-adv-x="1024" d="M160 705q0 147 101 249.5t251 102.5q147 0 249.5 -102.5t102.5 -250t-102.5 -250t-249.5 -102.5t-248.5 103t-103.5 250z" />
<glyph unicode="&#x2026;" horiz-adv-x="2048" d="M94 223.5q0 102.5 73 175t175 72.5t175 -72.5t73 -175t-73 -175.5t-175 -73t-175 73t-73 175.5zM776 223.5q0 102.5 73 175t175 72.5t175 -72.5t73 -175t-73 -175.5t-175 -73t-175 73t-73 175.5zM1458 223.5q0 102.5 73 175t175 72.5t175 -72.5t73 -175t-73 -175.5 t-175 -73t-175 73t-73 175.5z" />
<glyph unicode="&#x202f;" horiz-adv-x="387" />
<glyph unicode="&#x2039;" horiz-adv-x="681" d="M74 469v27l360 280q121 96 135 96q37 0 37 -32.5t-34.5 -90t-70.5 -101.5t-87.5 -102.5t-57.5 -64.5q4 -6 42 -52t67 -83t64.5 -85t55 -86t19.5 -58q0 -12 -8 -21.5t-21 -9.5q-25 0 -69.5 32t-118.5 96.5t-98 82.5z" />
<glyph unicode="&#x203a;" horiz-adv-x="681" d="M76 839.5q0 32.5 37 32.5q14 0 135 -96l360 -280v-27l-215 -172q-25 -18 -98.5 -82.5t-118.5 -96.5t-70 -32q-12 0 -20 9t-8 22q0 20 19.5 58t55 86t64.5 85t67 83t42 52q-6 6 -57.5 64.5t-87.5 102.5t-70.5 101.5t-34.5 90z" />
<glyph unicode="&#x205f;" horiz-adv-x="485" />
<glyph unicode="&#x20ac;" horiz-adv-x="1366" d="M12 524l25 127h127v37q0 63 4 94h-156l25 127h153q55 227 207 376t379 149q80 0 148.5 -19.5t105.5 -44t65.5 -44t39 -19.5t19.5 11t21.5 35.5t22.5 39.5h105v-406h-97q-55 121 -149 220.5t-187 99.5q-180 0 -194 -398h385l-25 -127h-362q0 -90 2 -131h346l-25 -127h-315 q16 -219 70.5 -320.5t165.5 -101.5q143 0 216.5 93.5t98.5 271.5h102q-49 -492 -510 -492q-268 0 -436 150.5t-211 398.5h-166z" />
<glyph unicode="&#x2122;" horiz-adv-x="2048" d="M12 1229v180h787v-180h-58q-23 123 -127 123h-84v-652q0 -33 20.5 -46t84.5 -15v-57h-459v57q63 2 84 15.5t21 45.5v652h-84q-104 0 -127 -123h-58zM874 1352v57h334l260 -539l283 539h285v-57q-63 -2 -84 -15.5t-21 -46.5v-590q0 -33 20.5 -46t84.5 -15v-57h-459v57 q63 2 83.5 15.5t20.5 45.5v445h-4l-286 -561h-33l-262 561h-4v-391q0 -70 21.5 -91.5t82.5 -23.5v-57h-276v57q61 2 81.5 23.5t20.5 91.5v487q-52 111 -148 111z" />
<glyph unicode="&#xe000;" horiz-adv-x="965" d="M0 965h965v-965h-965v965z" />
<glyph unicode="&#xfb01;" horiz-adv-x="1820" d="M10 0v115q117 2 159 21.5t42 80.5v635h-195v115h195v61q0 434 594 434q68 0 132 -16t116.5 -63.5t52.5 -114.5q0 -158 -162 -158q-66 0 -112 36t-46 103q0 29 8.5 49.5t17.5 30.5t9 14.5t-26 4.5q-53 0 -95.5 -39t-42.5 -105q0 -37 12.5 -78t33 -89t26.5 -70h907v-750 q0 -61 38 -80.5t134 -21.5v-115h-1798zM731 217q0 -61 42 -81.5t150.5 -20.5t150.5 20.5t42 81.5v533q0 49 -29.5 75.5t-70.5 26.5h-285v-635zM1157 1265.5q0 94.5 69.5 145.5t168 51t168 -51t69.5 -145.5t-69.5 -145.5t-168 -51t-168 51t-69.5 145.5z" />
<glyph unicode="&#xfb02;" horiz-adv-x="1820" d="M10 0v115q117 2 159 20.5t42 79.5v637h-195v115h195v53q0 221 164 325.5t428 104.5q33 0 140.5 -8t180.5 -8q96 0 276.5 4t235.5 4v-1227q0 -61 38 -79.5t134 -20.5v-115h-1798zM694 1180q0 -74 33 -213h389v219q0 59 -54 104t-188 45q-180 1 -180 -155zM731 217 q0 -61 41 -80.5t152 -21.5q109 -2 150.5 18.5t41.5 81.5v637h-385v-635z" />
<glyph unicode="&#xfb03;" horiz-adv-x="2957" d="M2060 0v115q111 2 152 21.5t41 80.5v512q0 61 -40 80.5t-145 21.5v115l693 17v-746q0 -61 40 -80.5t144 -21.5v-115h-885zM2220 1220.5q0 104.5 80 159t188.5 54.5t188.5 -54.5t80 -159t-80 -158.5t-188.5 -54t-188.5 54t-80 158.5zM1049 0v115q125 2 169 21.5t44 80.5 v635h-213v115h213v118q0 190 155.5 283.5t397.5 93.5q367 0 366 -211q0 -61 -44 -107t-109 -46q-72 0 -121 38t-49 105q0 39 19 75t19 38q0 10 -30 10q-76 0 -76 -90v-307h244v-115h-244v-635q0 -61 43 -80.5t164 -21.5v-115h-948zM25 0v115q125 2 169 21.5t44 80.5v635 h-213v115h213v118q0 190 155.5 283.5t397.5 93.5q367 0 366 -211q0 -61 -44 -107t-109 -46q-72 0 -121 38t-49 105q0 39 19 75t19 38q0 10 -30 10q-76 0 -76 -90v-307h244v-115h-244v-635q0 -61 43 -80.5t164 -21.5v-115h-948z" />
<glyph unicode="&#xfb04;" horiz-adv-x="2957" d="M2056 0v115q102 2 141 21.5t39 80.5v959q0 61 -38.5 80.5t-141.5 21.5v115l709 16v-1192q0 -61 40 -80.5t142 -21.5v-115h-891zM1049 0v115q125 2 169 21.5t44 80.5v635h-213v115h213v118q0 190 155.5 283.5t397.5 93.5q367 0 366 -211q0 -61 -44 -107t-109 -46 q-72 0 -121 38t-49 105q0 39 19 75t19 38q0 10 -30 10q-76 0 -76 -90v-307h244v-115h-244v-635q0 -61 43 -80.5t164 -21.5v-115h-948zM25 0v115q125 2 169 21.5t44 80.5v635h-213v115h213v118q0 190 155.5 283.5t397.5 93.5q367 0 366 -211q0 -61 -44 -107t-109 -46 q-72 0 -121 38t-49 105q0 39 19 75t19 38q0 10 -30 10q-76 0 -76 -90v-307h244v-115h-244v-635q0 -61 43 -80.5t164 -21.5v-115h-948z" />
</font>
</defs>
</svg>
