<?xml version="1.0" standalone="no"?>
<!DOCTYPE svg PUBLIC "-//W3C//DTD SVG 1.1//EN" "http://www.w3.org/Graphics/SVG/1.1/DTD/svg11.dtd" >
<svg xmlns="http://www.w3.org/2000/svg">
<metadata>
This is a custom SVG webfont generated by Font Squirrel.
Copyright   : Copyright  1990 2001 Adobe Systems Incorporated  All Rights Reserved
Designer    : Tony Stan
Foundry URL : httpwwwadobecomtype
</metadata>
<defs>
<font id="ITCCenturyStdUltraItalic" horiz-adv-x="1593" >
<font-face units-per-em="2048" ascent="1409" descent="-639" />
<missing-glyph horiz-adv-x="681" />
<glyph unicode=" "  horiz-adv-x="681" />
<glyph unicode="&#x09;" horiz-adv-x="681" />
<glyph unicode="&#xa0;" horiz-adv-x="681" />
<glyph unicode="!" horiz-adv-x="796" d="M-20 217q0 98 71.5 170t169.5 72t170 -72t72 -170t-72 -170t-170 -72t-169.5 72t-71.5 170zM223 1100q0 158 84 246t246 88q248 0 248 -197q0 -100 -69.5 -203.5t-178.5 -240t-166 -265.5h-127q2 158 -17.5 352.5t-19.5 219.5z" />
<glyph unicode="&#x22;" horiz-adv-x="681" d="M106 1268q-12 166 105 166t104 -166l-41 -418q-2 -18 -18 -41t-45 -23t-45 22.5t-19 41.5zM473 1268q-12 166 104.5 166t104.5 -166l-41 -418q-2 -18 -18.5 -41t-45 -23t-45 22.5t-18.5 41.5z" />
<glyph unicode="#" horiz-adv-x="1366" d="M115 397v189h198l33 237h-172v189h197l55 397h201l-54 -397h183l55 397h201l-56 -397h154v-189h-178l-33 -237h156v-189h-185l-53 -397h-203l56 397h-185l-53 -397h-201l54 397h-170zM514 586h184l31 237h-182z" />
<glyph unicode="$" horiz-adv-x="1366" d="M45 301q0 86 58.5 140.5t138.5 54.5t140 -52.5t60 -136.5q0 -94 -71 -164q41 -29 118 -28q86 0 143.5 48t57.5 132q0 74 -49 135.5t-119.5 108.5t-142.5 98t-121 128t-49 173q0 143 82 251.5t203.5 162t261.5 57.5l47 184h145l-45 -184q111 -16 198 -81.5t87 -168.5 q0 -88 -56.5 -142t-144.5 -54q-82 0 -139 54t-57 134q0 88 63 131q-31 12 -61 12q-80 0 -127.5 -43t-47.5 -114q0 -59 36 -108.5t89.5 -81.5t116 -76t115.5 -89t89 -122.5t36 -176.5q0 -209 -170 -340t-387 -143l-58 -205h-145l55 205q-127 10 -238.5 96t-111.5 205z" />
<glyph unicode="%" horiz-adv-x="1933" d="M129 913q0 238 144.5 379.5t340.5 141.5q137 0 215 -90.5t78 -208.5q0 -225 -157.5 -373t-327.5 -148q-137 0 -215 90t-78 209zM317 -25l990 1459h172l-992 -1459h-170zM379 741q0 -53 45 -53q66 0 149.5 273.5t83.5 345.5q0 53 -45 53q-66 0 -149.5 -273.5t-83.5 -345.5 zM903 274q0 238 144.5 379.5t341.5 141.5q137 0 214.5 -90.5t77.5 -208.5q0 -225 -157.5 -373t-327.5 -148q-137 0 -215 90t-78 209zM1153 102q0 -53 45 -53q66 0 150 273.5t84 345.5q0 53 -46 53q-66 0 -149.5 -273.5t-83.5 -345.5z" />
<glyph unicode="&#x26;" horiz-adv-x="1933" d="M-16 367q0 47 10 89t24.5 74.5t44 63.5t51 51.5t65.5 43t68.5 34.5t78 29.5t77 24.5t81 22.5t75.5 21.5q-20 78 -20 160q0 213 147.5 333t370.5 120q182 0 289.5 -69t107.5 -187q0 -227 -373 -316q66 -182 181 -354q45 47 82.5 128t61.5 141.5t79 106.5t139 46 t142.5 -54.5t58.5 -144.5q0 -78 -48 -136t-135 -58q-90 0 -167 92q-53 -143 -129 -221q109 -133 196 -134q16 0 30.5 3.5t26 7.5t22.5 13t18.5 15t17.5 21l15 21q5 7 14.5 24.5t11.5 24t11 27t11 24.5l99 -37q-82 -203 -222.5 -323t-334.5 -120q-90 0 -178.5 38t-147.5 96 q-213 -133 -483 -134q-201 0 -335 112t-134 280zM504 520q0 -121 71.5 -216t174.5 -95q49 0 96 22q-119 152 -252 465q-90 -31 -90 -176zM1022 1139q0 -84 18 -154q86 20 145.5 79.5t59.5 145.5q0 41 -28.5 75t-71.5 34q-51 0 -87 -51t-36 -129z" />
<glyph unicode="'" horiz-adv-x="454" d="M172 1268q-12 166 104.5 166t104.5 -166l-41 -418q-2 -18 -18.5 -41t-45 -23t-45 22.5t-18.5 41.5z" />
<glyph unicode="(" horiz-adv-x="1024" d="M59 262q0 414 262.5 724t675.5 448l43 -103q-147 -68 -238 -181.5t-143 -324.5l-139 -571q-51 -207 -51 -336q0 -201 166 -307l-57 -82q-231 96 -375 292.5t-144 440.5z" />
<glyph unicode=")" horiz-adv-x="1024" d="M-254 -369q147 68 238.5 181.5t142.5 324.5l139 572q51 207 51 335q0 201 -165 308l57 82q231 -96 374.5 -293t143.5 -441q0 -414 -262 -724t-676 -447z" />
<glyph unicode="*" horiz-adv-x="909" d="M-10 907q0 47 29.5 79t76.5 32q33 0 99 -17q70 -16 100 -16q12 0 70 10l6 29q-33 29 -90.5 50.5t-101.5 33.5t-77.5 42t-33.5 77q0 49 36.5 87t85.5 38q53 0 82 -32t38 -75t32 -100.5t59 -93.5l29 8q4 33 4 59q0 41 -16.5 105.5t-16.5 85.5q0 57 28 91t79 34 q131 0 131 -117q0 -55 -81 -135t-87 -133l21 -21q61 25 112 70t86 76.5t70 31.5q59 0 89 -38t30 -93q0 -113 -107 -112q-35 0 -106.5 16t-102.5 16q-29 0 -59 -6l-8 -33q39 -35 98 -57t101 -32.5t73 -37t31 -71.5q0 -55 -41 -92t-84 -37q-51 0 -81 35.5t-40 81t-32.5 100.5 t-55.5 84l-31 -12q-4 -33 -4 -60q0 -41 16.5 -106.5t16.5 -85.5q0 -57 -27.5 -91t-77.5 -34q-133 0 -133 116q0 55 82 136t88 141l-20 22q-72 -35 -122 -82t-82 -70.5t-83 -23.5q-45 0 -71.5 40t-26.5 87z" />
<glyph unicode="+" horiz-adv-x="1228" d="M49 373v229h373v373h229v-373h373v-229h-373v-373h-229v373h-373z" />
<glyph unicode="," horiz-adv-x="681" d="M-88 -356q94 59 191.5 159.5t127.5 171.5q-96 0 -162.5 72t-66.5 170t66.5 170t162.5 72q117 0 185.5 -81t68.5 -202q0 -319 -497 -635z" />
<glyph unicode="-" horiz-adv-x="796" d="M-45 328l86 319h598l-86 -319h-598z" />
<glyph unicode="." horiz-adv-x="681" d="M2 217q0 98 66.5 170t163 72t163 -72t66.5 -170t-66.5 -170t-163 -72t-163 72t-66.5 170z" />
<glyph unicode="/" horiz-adv-x="569" d="M-270 -25l743 1459h258l-743 -1459h-258z" />
<glyph unicode="0" horiz-adv-x="1366" d="M-27 541q0 373 231.5 633t583.5 260q211 0 347.5 -153t136.5 -413q0 -215 -109.5 -421.5t-300 -339t-405.5 -132.5q-211 0 -347.5 153t-136.5 413zM379 156q0 -74 47 -74q45 0 78 52t78 169q55 143 159.5 507t104.5 445q0 31 -17.5 51.5t-42.5 20.5q-35 0 -69.5 -48 t-81.5 -183q-78 -223 -167 -552t-89 -388z" />
<glyph unicode="1" horiz-adv-x="1366" d="M-16 0l26 115q156 8 204 38.5t73 118.5l174 643q20 82 20 113q0 94 -141 94h-74l29 115q184 0 320.5 36t256.5 136h261l-299 -1112q-16 -57 -17 -92q0 -47 42 -67.5t157 -22.5l-27 -115h-1005z" />
<glyph unicode="2" horiz-adv-x="1366" d="M-131 0q12 88 25.5 128t42.5 67q72 68 193.5 167t210.5 174.5t178 166t137.5 181.5t48.5 181t-56.5 155.5t-146.5 65.5q-63 0 -101 -26q160 -63 160 -220q0 -100 -71.5 -172.5t-182 -72.5t-176 66.5t-65.5 166.5q0 188 180 297t463 109q262 0 419.5 -87t157.5 -257 q0 -92 -44 -167t-112.5 -126.5t-172 -105.5t-204 -96t-225.5 -106.5t-221 -128.5v-4h436q123 0 194 46.5t138 158.5l121 -29l-166 -532h-1161z" />
<glyph unicode="3" horiz-adv-x="1366" d="M-94 352q0 104 63.5 171t169.5 67q100 0 165 -64.5t65 -165.5q0 -78 -52.5 -136t-132.5 -72q57 -45 148 -46q131 0 215 157t84 306q0 94 -58 95q-14 0 -56 -6.5t-58 -6.5q-31 0 -55.5 19.5t-24.5 42.5q0 27 20.5 46t51.5 19q10 0 60 -6t83 -6q63 0 106 131t43 203 q0 117 -42 168t-128 51q-57 0 -120 -41q156 -61 155 -203q0 -90 -69.5 -158.5t-182.5 -68.5q-96 0 -159.5 56.5t-63.5 154.5q0 168 152.5 271.5t443.5 103.5q225 0 386 -93.5t161 -257.5q0 -88 -40 -151.5t-116 -101t-138 -56t-157 -37.5v-4q166 -10 264.5 -74.5 t98.5 -216.5q0 -193 -196.5 -330t-516.5 -137q-268 0 -418.5 109.5t-150.5 267.5z" />
<glyph unicode="4" horiz-adv-x="1366" d="M-92 381l33 158l850 895h448l-240 -938h240l-31 -115h-239q-37 -115 -37 -176q0 -47 38 -67.5t136 -22.5l-33 -115h-950l27 115q141 6 193 29.5t71 101.5q4 18 14 65t14 70h-534zM80 496h393l148 553l-5 4z" />
<glyph unicode="5" horiz-adv-x="1366" d="M-61 307q0 115 64.5 178.5t173 63.5t175 -60.5t66.5 -158.5q0 -158 -162 -203q29 -20 96 -21q113 0 191 135.5t78 340.5q0 80 -47.5 130t-131.5 50q-57 0 -98 -31t-72.5 -60.5t-64.5 -29.5q-82 0 -82 66q0 29 21.5 58.5t21.5 31.5l192 612q324 -41 488 -41q307 0 491 82 q-8 -207 -192 -337t-455 -130q-184 0 -303 37l-53 -176q135 49 287 49q256 0 409.5 -111.5t153.5 -289.5q0 -131 -72 -234.5t-185.5 -163t-240.5 -89.5t-254 -30q-205 0 -350 86t-145 246z" />
<glyph unicode="6" horiz-adv-x="1366" d="M-2 614q0 211 125 400.5t333 304.5t441 115q180 0 284.5 -75t104.5 -183.5t-57.5 -167t-157.5 -58.5q-109 0 -168 58.5t-59 150.5q0 47 32.5 91t77.5 63q-29 14 -51 14q-102 0 -153.5 -95t-149.5 -407q102 59 223 60q160 0 293 -103.5t133 -277.5q0 -90 -45 -182.5 t-124 -170t-204.5 -127t-273.5 -49.5q-266 0 -435 172t-169 467zM457 160q0 -27 20.5 -48.5t52.5 -21.5q49 0 89 77t81 284q25 123 25 196q0 90 -61 90q-51 0 -89 -61.5t-75 -231.5q-43 -190 -43 -284z" />
<glyph unicode="7" horiz-adv-x="1366" d="M84 868l176 541h1176q0 -88 -62.5 -166t-180.5 -197.5t-198 -246.5q-70 -111 -115.5 -245t-68.5 -228.5t-58.5 -179.5t-107.5 -128t-194 -43q-98 0 -165 62.5t-67 152.5q0 100 64.5 197.5t169 182.5t214 162t223.5 166t173 163h-494q-131 0 -227 -62.5t-137 -152.5z" />
<glyph unicode="8" horiz-adv-x="1366" d="M-80 348q0 139 97.5 224t252.5 116q-78 55 -129 134t-51 163q0 201 178 325t441 124q258 0 415.5 -84t157.5 -248q0 -100 -73.5 -172t-198.5 -103q203 -135 202 -340q0 -229 -194.5 -370.5t-546.5 -141.5q-250 0 -400.5 99.5t-150.5 273.5zM207 326q0 -121 67.5 -182.5 t192.5 -61.5q250 0 250 221q0 55 -40 103.5t-86 76t-120 68.5t-109 63q-70 -27 -112.5 -103t-42.5 -185zM565 1159q0 -27 21.5 -56.5t50.5 -52t70 -48t70.5 -40t64.5 -29.5t39 -18q68 16 109.5 69.5t41.5 121.5q0 109 -77.5 161t-204.5 52q-80 0 -132.5 -44t-52.5 -116z" />
<glyph unicode="9" horiz-adv-x="1366" d="M-119 252q0 90 58.5 147.5t150.5 57.5q90 0 153.5 -54.5t63.5 -148.5q0 -92 -86 -150q37 -14 76 -14q135 0 200.5 103.5t145.5 388.5q-135 -82 -283 -82q-145 0 -246.5 98t-101.5 252q0 172 100.5 309t243 206t287.5 69q291 0 454 -153t163 -439q0 -244 -148.5 -446.5 t-374 -311.5t-467.5 -109q-178 0 -283.5 77t-105.5 200zM537 760q0 -80 61 -80q49 0 76.5 51t60.5 195q66 285 66 340q0 61 -56 61q-45 0 -76.5 -61.5t-80.5 -237.5q-51 -182 -51 -268z" />
<glyph unicode=":" horiz-adv-x="681" d="M-16 217q0 98 66.5 170t162.5 72t162.5 -72t66.5 -170t-66.5 -170t-162.5 -72t-162.5 72t-66.5 170zM127 757.5q0 98.5 66.5 170t163 71.5t163 -71.5t66.5 -170t-66.5 -170t-163 -71.5t-163 71.5t-66.5 170z" />
<glyph unicode=";" horiz-adv-x="681" d="M-111 -356q94 59 191.5 159.5t128.5 171.5q-96 0 -162.5 72t-66.5 170t66.5 170t162.5 72q117 0 185.5 -81t68.5 -202q0 -319 -498 -635zM127 757.5q0 98.5 66.5 170t163 71.5t163 -71.5t66.5 -170t-66.5 -170t-163 -71.5t-163 71.5t-66.5 170z" />
<glyph unicode="&#x3c;" horiz-adv-x="1228" d="M57 397v181l975 413v-221l-676 -283l676 -282v-221z" />
<glyph unicode="=" horiz-adv-x="1228" d="M49 143v230h975v-230h-975zM49 602v229h975v-229h-975z" />
<glyph unicode="&#x3e;" horiz-adv-x="1228" d="M57 -16v221l676 282l-676 283v221l975 -413v-181z" />
<glyph unicode="?" horiz-adv-x="1251" d="M72 1049q0 162 150.5 273.5t389.5 111.5q264 0 424 -100.5t160 -243.5q0 -111 -66.5 -185t-164 -110.5t-195.5 -67.5t-177 -79t-95 -120h-156q4 59 39 123t81 117l92 106q46 53 78 111.5t32 112.5q0 88 -62.5 142t-138.5 54q-72 0 -127 -45q141 -63 141 -211 q0 -72 -60.5 -126t-142.5 -54q-84 0 -143 53.5t-59 137.5zM104 217q0 98 72 170t170 72t170 -72t72 -170t-72 -170t-170 -72t-170 72t-72 170z" />
<glyph unicode="@" horiz-adv-x="1638" d="M27 672q0 334 225 548t545 214q295 0 495.5 -178.5t200.5 -444.5q0 -113 -44 -225.5t-137 -194.5t-212 -82q-76 0 -132.5 45t-60.5 101h-4q-117 -145 -252 -146q-72 0 -132 70t-60 174q0 209 121.5 374t271.5 165q68 0 102.5 -21.5t61.5 -79.5l20 70h164l-102 -438 q-2 -12 -9.5 -34t-10.5 -39.5t-3 -33.5q0 -43 14.5 -75.5t40.5 -32.5q63 0 129 136t66 265q0 182 -147.5 323.5t-380.5 141.5q-68 0 -135.5 -18.5t-138 -65.5t-123 -115.5t-86 -179.5t-33.5 -246q0 -217 165.5 -365.5t370.5 -148.5q231 0 420 103l18 -129 q-233 -133 -436 -134q-197 0 -354.5 69t-249.5 175.5t-140 224t-48 228.5zM655 616q0 -78 28 -128t67 -50q86 0 151.5 132t65.5 282q0 109 -80 109q-74 0 -153 -105t-79 -240z" />
<glyph unicode="A" d="M-268 0l26 115q137 4 207 54t170 208l662 1032h407l111 -1114q10 -111 45 -147q33 -34 134 -33h11l-26 -115h-961l27 115q121 0 154.5 26.5t33.5 83.5q0 33 -20 197h-381q-109 -178 -109 -225q0 -43 37 -62.5t141 -19.5l-26 -115h-643zM408 553h297l-39 397h-4z" />
<glyph unicode="B" horiz-adv-x="1705" d="M-221 0l26 115q147 10 188.5 34.5t67.5 122.5l215 805q25 94 25 127q0 47 -39 67.5t-139 22.5l27 115h1128q166 0 259 -88t93 -211q0 -154 -139 -251t-344 -97h-98v-8q80 0 154.5 -16.5t145 -52.5t112.5 -103.5t42 -159.5q0 -176 -168 -299t-442 -123h-1114zM639 184 q0 -70 74 -69q53 0 97 44t68.5 110.5t38 136t13.5 131.5q0 84 -35 117.5t-131 33.5l-113 -418q-12 -45 -12 -86zM793 819h84q84 0 136 115t52 285q0 96 -78 96q-57 0 -78 -72z" />
<glyph unicode="C" horiz-adv-x="1478" d="M-6 555q0 182 62.5 335.5t159.5 251t218 166t232.5 97.5t210.5 29q113 0 208 -26t147 -51.5t62 -25.5q55 0 92 78h136l-113 -491h-131q-8 59 -14.5 98t-24.5 99.5t-43 96t-68 63.5t-98 28q-106 0 -195.5 -124t-139.5 -294t-76.5 -314.5t-26.5 -214.5q0 -113 50 -177 t149 -64q76 0 143 35.5t121.5 104.5t88.5 125t73 134l114 -47q-193 -492 -680 -492q-272 0 -464.5 174.5t-192.5 405.5z" />
<glyph unicode="D" horiz-adv-x="1820" d="M-221 0l26 115q176 8 223.5 33.5t73.5 123.5l215 805q25 94 25 127q0 47 -42 67.5t-161 22.5l27 115h878q168 0 302.5 -52t213 -139.5t119.5 -190.5t41 -216q0 -145 -56 -284.5t-167 -259.5t-300 -193.5t-431 -73.5h-987zM678 166q0 -51 63 -51q160 0 299 497q4 14 7 21 q96 352 96 477q0 184 -109 184q-49 0 -73 -84l-252 -891q-31 -118 -31 -153z" />
<glyph unicode="E" d="M-209 0l27 115q164 10 208 34.5t70 122.5l215 805q25 94 25 127q0 47 -42 67.5t-157 22.5l27 115h1433l-108 -481h-119q-23 209 -83 287.5t-175 78.5q-72 0 -111.5 -22.5t-56.5 -85.5l-98 -379q106 0 166.5 50t101.5 165h127l-151 -573h-119q-2 139 -39 183t-119 44 l-96 -348q-27 -96 -27 -140q0 -25 24.5 -41t67.5 -16q319 0 527 414l121 -31l-158 -514h-1481z" />
<glyph unicode="F" horiz-adv-x="1478" d="M-209 0l27 115q164 10 208 34.5t70 122.5l215 805q25 94 25 127q0 47 -42 67.5t-157 22.5l27 115h1417l-108 -481h-132q-2 160 -66.5 263t-170.5 103q-80 0 -111.5 -16t-46.5 -66l-108 -405q104 0 160.5 49t97.5 166h127l-152 -573h-119q-2 143 -34.5 185t-116.5 42 l-90 -342q-29 -100 -29 -129q0 -47 45 -67.5t174 -22.5l-27 -115h-1083z" />
<glyph unicode="G" horiz-adv-x="1705" d="M-16 592q0 231 135 426.5t353 305.5t458 110q143 0 243.5 -27t147.5 -53.5t63 -26.5q12 0 24.5 5t23 16.5t16.5 19.5t15.5 22.5t11.5 18.5h116l-112 -496h-131q-6 86 -19.5 149.5t-44.5 126t-90 96.5t-145 34q-117 0 -202 -97.5t-153 -297.5q-59 -174 -112.5 -383 t-53.5 -314q0 -76 22.5 -110.5t76.5 -34.5q113 0 172 211q41 147 41 225q0 84 -133 84l28 107h907l-28 -107q-100 -8 -146.5 -35.5t-68.5 -115.5l-115 -451h-145q-8 33 -32 61.5t-50 28.5q-25 0 -83.5 -28.5t-150.5 -57.5t-200 -29q-283 0 -461 181.5t-178 435.5z" />
<glyph unicode="H" horiz-adv-x="1933" d="M-158 0l27 115q121 8 168 47t67 121q25 104 88.5 330.5t106.5 389t43 201.5q0 47 -40 67.5t-146 22.5l26 115h860l-24 -115q-49 0 -77 -18.5t-42 -65.5l-111 -411h279q0 2 18.5 68.5t37 134t35 138t16.5 93.5q0 35 -12.5 48t-47.5 13l27 115h835l-24 -115 q-109 0 -160 -28.5t-74 -96.5q-33 -100 -136 -503.5t-103 -450.5q0 -57 35.5 -78.5t144.5 -21.5l-27 -115h-858l27 115q51 4 76.5 22.5t37.5 71.5l121 475h-278l-117 -432q-16 -57 -16 -86q0 -51 73 -51l-24 -115h-832z" />
<glyph unicode="I" horiz-adv-x="1138" d="M-209 0l27 115q162 10 206 34.5t70 122.5l215 805q25 94 25 127q0 47 -42 67.5t-157 22.5l27 115h1067l-27 -115q-162 -10 -206 -34.5t-70 -122.5l-215 -801q-25 -94 -25 -131q0 -47 42 -67.5t157 -22.5l-27 -115h-1067z" />
<glyph unicode="J" horiz-adv-x="1478" d="M-137 340q0 117 80 193.5t196 76.5q104 0 180 -67.5t76 -171.5q0 -98 -48 -150.5t-134 -83.5q29 -31 123 -31q72 0 119 48.5t65 124.5l193 759q31 119 30.5 166t-42.5 67.5t-156 22.5l26 115h977l-26 -115q-92 0 -138.5 -25.5t-64.5 -94.5l-203 -785 q-51 -195 -233.5 -304.5t-481.5 -109.5q-231 0 -384.5 100.5t-153.5 264.5z" />
<glyph unicode="K" horiz-adv-x="1933" d="M-156 0l27 115q154 8 208 46t75 122q25 104 88 330.5t106 389t43 201.5q0 47 -41 67.5t-153 22.5l26 115h977l-26 -115q-86 0 -131.5 -25.5t-63.5 -94.5l-94 -338l4 -5q98 74 250.5 172.5t215 148.5t62.5 85t-33.5 46t-119.5 11l26 115h697l-25 -119q-53 -2 -110.5 -18.5 t-125 -51t-112.5 -61t-129 -80t-121 -75.5l242 -775q20 -61 65 -87.5t137 -26.5l-26 -115h-934l26 119q2 0 17.5 1t18.5 1t16.5 2t16.5 3t13.5 4t13.5 7t10 9.5t9 12.5t4 16t2 20q0 25 -24.5 106.5t-60.5 202.5t-56 209h-4l-109 -412q-29 -106 -28 -131q0 -56 68 -56 q5 0 10 1l-25 -115h-922z" />
<glyph unicode="L" horiz-adv-x="1478" d="M-188 0l26 115q162 10 206 34.5t71 122.5l215 805q25 94 24 127q0 47 -40 67.5t-146 22.5l27 115h1042l-27 -115q-154 -10 -195.5 -34.5t-68.5 -122.5l-215 -801q-37 -135 -37 -160q0 -45 92 -45q289 0 461 416l125 -17l-151 -530h-1409z" />
<glyph unicode="M" horiz-adv-x="2048" d="M-147 0l26 115q106 14 145 52t60 122q14 61 80.5 283.5t122 413t55.5 216.5q0 51 -35 71.5t-127 20.5l21 115h803l-13 -586l4 -4l303 590h734l-27 -115q-49 -6 -78 -17t-48 -38t-27.5 -48.5t-22.5 -78.5l-207 -770q-27 -98 -27 -139q0 -88 156 -88l-25 -115h-897l27 115 q96 6 134 29.5t50 72.5l258 922l-4 4l-598 -1143h-264l17 1139l-5 4q-39 -152 -104.5 -387.5t-101 -373.5t-35.5 -177q0 -90 139 -90l-27 -115h-462z" />
<glyph unicode="N" d="M-229 0l24 115q119 2 173.5 43t84.5 153l211 787q23 90 23 112q0 84 -176 84l26 115h688l328 -805h4l113 445q29 104 28 149q0 59 -33.5 77.5t-146.5 18.5l27 115h559l-27 -115q-109 -2 -162 -36.5t-77 -131.5l-297 -1126h-355l-405 1004h-4l-166 -633q-23 -86 -23 -142 q0 -115 177 -114l-25 -115h-569z" />
<glyph unicode="O" horiz-adv-x="1705" d="M-12 614q0 346 268 583t653 237q297 0 492.5 -182.5t195.5 -456.5q0 -346 -268 -583t-653 -237q-297 0 -492.5 182.5t-195.5 456.5zM545 223q0 -133 82 -133q41 0 77.5 27.5t61.5 64.5t50.5 97.5t38.5 100.5t30.5 100.5t21.5 72.5q47 147 90 335.5t43 297.5 q0 133 -98 133q-68 0 -123 -88t-119 -295q-155 -514 -155 -713z" />
<glyph unicode="P" d="M-197 0l27 115q143 10 184 34.5t68 122.5l215 805q25 94 25 127q0 47 -38 67.5t-137 22.5l27 115h928q223 0 357 -85t134 -257q0 -193 -169 -304.5t-420 -111.5h-263l-84 -309q-25 -94 -24 -137q0 -47 39 -67.5t139 -22.5l-27 -115h-981zM774 766q127 0 162 33 q57 53 95 151.5t38 206.5q0 74 -20.5 105.5t-65.5 31.5q-66 0 -84 -65z" />
<glyph unicode="Q" horiz-adv-x="1705" d="M-12 614q0 346 268 583t653 237q297 0 492.5 -182.5t195.5 -456.5q0 -256 -151.5 -458t-398.5 -294q12 -41 56 -62.5t93 -21.5q74 0 118 47t81 131l100 -35q-55 -195 -173 -322.5t-302 -127.5q-143 0 -221 91q-74 87 -74 220v14q-16 -2 -49 -2q-297 0 -492.5 182.5 t-195.5 456.5zM549 199q0 -109 108 -109q39 0 66 16q18 59 18 148q0 104 -77 104q-53 0 -84 -42.5t-31 -116.5zM563 412l4 -4q70 102 170 102q63 0 135 -61q59 164 113.5 389t54.5 348q0 133 -98 133q-68 0 -123 -88t-119 -295q-80 -264 -137 -524z" />
<glyph unicode="R" horiz-adv-x="1820" d="M-221 0l26 115q172 10 218.5 34.5t72.5 122.5l215 805q25 94 25 127q0 47 -42 67.5t-161 22.5l35 115h1014q295 0 427 -82t132 -237q0 -92 -46 -160t-128 -108t-178.5 -60.5t-214.5 -26.5l-132 -6v-4q252 0 367 -127q39 -43 66.5 -125t45 -138t38.5 -56q14 0 26 7 t22.5 22.5t16.5 26.5t15.5 30.5t11.5 23.5l106 -31q-143 -383 -487 -383q-160 0 -261.5 95.5t-101.5 240.5q0 74 15.5 167t15.5 116q0 45 -25.5 59.5t-109.5 14.5q-16 -72 -47 -177.5t-49.5 -177t-18.5 -108.5q0 -45 36 -66.5t122 -23.5l-27 -115h-1040zM840 799 q10 -2 30 -2q150 0 203 96q27 51 48.5 137t21.5 144q0 121 -103 120q-72 0 -90 -73z" />
<glyph unicode="S" horiz-adv-x="1366" d="M-127 -25l82 500l125 4q31 -172 130 -280.5t263 -108.5q98 0 161.5 41t63.5 133q0 70 -67.5 121t-162.5 90t-191.5 86t-164 132t-67.5 204q0 170 103.5 296t252 183.5t312.5 57.5q119 0 207 -20.5t131 -41t51 -20.5q16 0 28.5 8t19.5 17t17.5 28.5t16.5 28.5h137 l-74 -459l-129 -4q-31 170 -104.5 259t-231.5 89q-98 0 -151 -46t-53 -116q0 -51 67.5 -91t163.5 -78t191.5 -87t163 -141t67.5 -219q0 -246 -214 -406t-489 -160q-121 0 -217 20.5t-149 41t-68 20.5q-8 0 -17 -5t-19.5 -15t-17.5 -18.5t-18.5 -22.5t-17.5 -21h-131z" />
<glyph unicode="T" horiz-adv-x="1366" d="M-78 0l27 115q150 10 191.5 34.5t68.5 122.5l268 1006q-205 -14 -362 -338h-119l129 469h1354l-111 -473h-115q-6 203 -51 272.5t-145 69.5l-252 -961q-20 -82 -21 -112q0 -47 41 -67.5t154 -22.5l-27 -115h-1030z" />
<glyph unicode="U" d="M55 350q0 72 43 236l140 520q14 51 14 98t-40 67.5t-146 22.5l26 115h1006l-27 -115q-125 -10 -163 -35.5t-64 -121.5l-193 -740q-20 -78 -20 -139q0 -72 44 -107.5t118 -35.5q123 0 203.5 72.5t113.5 195.5l172 659q29 115 29 154q0 61 -33 79.5t-119 18.5l27 119h491 l-26 -119q-80 -2 -127 -39.5t-74 -138.5l-209 -792q-92 -348 -596 -349q-299 0 -444.5 107.5t-145.5 267.5z" />
<glyph unicode="V" horiz-adv-x="1478" d="M2 1294l31 115h948l-31 -115q-102 0 -136 -24.5t-34 -89.5q0 -25 6.5 -88.5t8.5 -98.5l28 -450h4l330 551q45 78 45 137q0 33 -28.5 48t-108.5 15l29 115h501l-28 -115q-59 -2 -99.5 -23.5t-56.5 -43t-47 -74.5l-692 -1153h-387l-95 1178q-4 66 -43 91t-145 25z" />
<glyph unicode="W" horiz-adv-x="2048" d="M51 1294l29 115h1552l-24 -115q-98 -4 -127 -30.5t-29 -118.5q0 -45 4 -131l17 -422h4l241 514q45 94 45 139q0 29 -26.5 39t-89.5 10l28 115h447l-33 -115q-84 0 -130 -35.5t-81 -111.5l-555 -1147h-389l-8 696h-4l-308 -696h-407l-12 1161q-2 72 -34 99.5t-110 33.5z M733 1192q0 -201 8 -602h4l162 375v206q0 123 -88 123q-35 0 -60.5 -29.5t-25.5 -72.5z" />
<glyph unicode="X" d="M-242 0l27 115q147 35 211.5 71.5t171.5 139.5l348 331l-180 502q-25 72 -77 100.5t-157 34.5l31 115h950l-28 -115q-74 0 -104.5 -20.5t-30.5 -67.5q0 -18 7 -45.5t14 -48t27.5 -72t30.5 -79.5q37 43 103.5 109.5t98.5 106.5t32 68q0 43 -100 49l30 115h520l-30 -115 q-90 -2 -136.5 -24.5t-103.5 -81.5l-362 -373l206 -579q41 -117 201 -121l-28 -115h-984l27 115q90 0 133 23.5t43 82.5q0 53 -43 174t-45 129l-180 -180q-4 -4 -27.5 -26.5t-32 -32t-23.5 -29.5t-20.5 -37.5t-5.5 -38.5q0 -59 109 -65l-29 -115h-594z" />
<glyph unicode="Y" d="M29 0l26 115q162 10 208 34.5t69 122.5l88 381l-160 539q-18 59 -60 80.5t-128 21.5l28 115h936l-28 -115q-92 0 -129 -21.5t-37 -88.5q0 -51 47 -206t55 -190q170 217 233.5 309.5t63.5 135.5q0 37 -30.5 49t-114.5 12l28 115h543l-33 -115q-5 0 -10 1q-114 0 -184 -91 l-439 -563l-86 -342q-14 -53 -14 -88q0 -49 39 -72.5t141 -23.5l-26 -115h-1026z" />
<glyph unicode="Z" horiz-adv-x="1478" d="M-207 0l29 123l932 1171h-113q-154 0 -257 -91t-185 -259l-129 8l123 457h1333l-41 -147l-901 -1129q12 -2 34 -2q219 0 351.5 99.5t220.5 291.5l125 -12l-150 -510h-1372z" />
<glyph unicode="[" horiz-adv-x="1138" d="M-152 -446l496 1855h692l-37 -127h-227l-424 -1601h254l-39 -127h-715z" />
<glyph unicode="\" horiz-adv-x="569" d="M-272 1434h258l743 -1459h-258z" />
<glyph unicode="]" horiz-adv-x="1138" d="M-242 -446l37 127h228l423 1601h-253l38 127h715l-495 -1855h-693z" />
<glyph unicode="^" horiz-adv-x="1228" d="M150 664l356 745h217l356 -745h-239l-226 505l-227 -505h-237z" />
<glyph unicode="_" horiz-adv-x="1024" d="M0 -154h1024v-102h-1024v102z" />
<glyph unicode="`" horiz-adv-x="681" d="M131 1399q0 43 33 75.5t88 32.5q80 0 160 -112l194 -273h-127l-264 160q-84 51 -84 117z" />
<glyph unicode="a" horiz-adv-x="1478" d="M-57 410q0 227 164.5 408t420.5 181q90 0 149.5 -31.5t117.5 -107.5l34 115h529l-162 -610q-27 -102 -27 -109q0 -47 43 -47q25 0 52.5 30.5t53 78t32.5 53.5l77 -56q-176 -340 -479 -340q-106 0 -192 56.5t-86 165.5h-4q-61 -98 -155.5 -160t-201.5 -62 q-168 0 -267 127.5t-99 307.5zM487 305q0 -29 15.5 -48t38.5 -19q16 0 31.5 6t28.5 21.5t22.5 26.5t18.5 35.5t13 35t13.5 36t9.5 27.5q59 178 59 301q0 84 -61 84q-35 0 -68 -58.5t-73 -203.5q-48 -162 -48 -244z" />
<glyph unicode="b" horiz-adv-x="1478" d="M20 315q0 51 108 439.5t108 459.5q0 43 -35 61.5t-117 18.5l22 99l723 16l-137 -500l4 -4q115 94 269 94q164 0 265 -118.5t101 -262.5q0 -199 -114.5 -348t-294 -222t-392.5 -73q-236 0 -373 92t-137 248zM504 160q0 -53 49 -54q72 0 134.5 144.5t91 283t28.5 185.5 q0 84 -68 84q-66 0 -92 -90q-143 -496 -143 -553z" />
<glyph unicode="c" horiz-adv-x="1251" d="M0 432q0 250 205 408.5t512 158.5q72 0 139.5 -14t131 -44t102 -87t38.5 -133q0 -98 -53 -153.5t-147 -55.5q-84 0 -136.5 57.5t-52.5 137.5q0 55 23.5 95t46 57.5t22.5 19.5q0 14 -43 14q-66 0 -121 -78t-83.5 -186.5t-44 -199.5t-15.5 -140q0 -70 37 -116t105 -46 q158 0 317 231l96 -67q-109 -162 -246 -239t-329.5 -77t-348 122t-155.5 335z" />
<glyph unicode="d" horiz-adv-x="1478" d="M-49 401q0 233 162.5 415.5t418.5 182.5q123 0 238 -129q4 23 41 164.5t37 179.5q0 80 -143 80l22 99l707 16l-273 -1073q-20 -82 -20 -103q0 -41 37 -40q23 0 51 29.5t62 78.5t40 55l78 -69q-76 -131 -199 -221.5t-260 -90.5q-213 0 -286 205q-152 -205 -351 -205 q-172 0 -267 116.5t-95 309.5zM475 287q0 -78 57 -78q33 0 57.5 29.5t35 58.5t32.5 100q68 221 68 322q0 92 -57 92q-45 0 -72 -54.5t-59 -166.5q-62 -211 -62 -303z" />
<glyph unicode="e" horiz-adv-x="1251" d="M-8 432q0 246 219 406.5t518 160.5q201 0 308.5 -68.5t107.5 -189.5q0 -328 -621 -340q-8 -39 -8 -90q0 -86 41 -141t125 -55q160 0 362 233l76 -74q-115 -154 -260 -226.5t-350 -72.5q-129 0 -243.5 49.5t-194.5 156t-80 251.5zM543 508q100 10 179 108.5t79 219.5 q0 57 -57.5 57t-114.5 -109.5t-86 -275.5z" />
<glyph unicode="f" horiz-adv-x="1024" d="M-10 0l235 860h-215l29 115h221q78 213 265.5 336t408.5 123q352 0 352 -250q0 -74 -50 -119t-122 -45q-70 0 -117 43t-47 106q0 115 78 148v4q-20 6 -45 6q-53 0 -111.5 -84t-85.5 -268h240l-29 -115h-235l-219 -860h-553z" />
<glyph unicode="g" horiz-adv-x="1478" d="M-123 -219q0 80 57.5 131t141.5 51q90 0 144 -49t54 -127q0 -82 -47 -129q27 -14 68 -14q137 0 198.5 89t112.5 328l-4 5q-115 -90 -248 -91q-164 0 -273.5 116t-109.5 278q0 254 179.5 442t412.5 188q106 0 162.5 -29.5t105.5 -101.5l23 107h526l-233 -922 q-133 -524 -828 -524q-209 0 -325.5 63.5t-116.5 188.5zM496 217q0 -53 57 -53q82 0 117 133q100 381 100 451q0 72 -57 71q-45 0 -74 -59.5t-76 -229.5q-67 -245 -67 -313z" />
<glyph unicode="h" d="M-49 0l299 1118q16 72 16 96q0 43 -35.5 61.5t-124.5 18.5l29 99l733 16l-161 -604l4 -4q104 92 186 133t199 41q125 0 192.5 -58.5t67.5 -168.5q0 -86 -56.5 -283t-56.5 -229q0 -39 29 -39q18 0 42.5 19.5t39 38.5t37 53t24.5 38l88 -55q-203 -315 -487 -316 q-127 0 -212 56.5t-85 175.5q0 80 56 280.5t56 208.5q0 37 -34 37q-27 0 -80 -45t-68 -100l-164 -588h-534z" />
<glyph unicode="i" horiz-adv-x="909" d="M0 860l23 98l731 17l-176 -672q-16 -61 -16.5 -92t34.5 -31q31 0 76 55.5t71 104.5l84 -57q-176 -307 -487 -308q-135 0 -219 70t-84 197q0 61 61.5 286.5t61.5 251.5q0 43 -36 61.5t-124 18.5zM266 1229q0 86 79 145.5t183.5 59.5t183.5 -59.5t79 -145.5t-79 -145.5 t-183.5 -59.5t-183.5 59.5t-79 145.5z" />
<glyph unicode="j" horiz-adv-x="909" d="M-332 -233q0 90 63.5 142t162.5 52q76 0 128 -49t52 -117q0 -90 -74 -131v-4q152 8 162 193v13q0 52 -29 95q-33 49 -67.5 85t-34.5 60q0 16 4 35t11 41.5t9 32.5l127 477q12 53 13 88q0 43 -36 61.5t-124 18.5l22 98l744 17l-244 -924q-57 -215 -233.5 -356t-397.5 -141 q-119 0 -188.5 59.5t-69.5 153.5zM319 1229q0 86 79 145.5t183.5 59.5t183.5 -59.5t79 -145.5t-79 -145.5t-183.5 -59.5t-183.5 59.5t-79 145.5z" />
<glyph unicode="k" horiz-adv-x="1478" d="M-61 0q47 186 94 367.5t74.5 285t53 202.5t38 149.5t22.5 96.5t13.5 69.5t3.5 43.5q0 43 -36 61.5t-124 18.5l22 99l731 16l-223 -844q66 2 120 39t78.5 69t70.5 101q43 66 70.5 100.5t83.5 67.5t126 33q88 0 144.5 -54.5t56.5 -142.5q0 -76 -49 -128t-129 -52 q-76 0 -119 43t-51 117h-4q-92 -152 -166 -205q131 -23 190.5 -71t89.5 -175q16 -78 64 -78q29 0 49 18.5t46 63.5t28 49l90 -47q-74 -162 -178.5 -250t-266.5 -88q-281 0 -280 316q0 92 -13.5 119.5t-50.5 27.5h-33l-118 -438h-518z" />
<glyph unicode="l" horiz-adv-x="909" d="M29 242q0 63 32 190l181 686q16 72 16 96q0 43 -36 61.5t-124 18.5l23 99l737 16l-278 -1061q-4 -16 -13.5 -46t-15.5 -52.5t-6 -40.5q0 -45 41 -45q12 0 25.5 7t25.5 21.5t23.5 27.5t24.5 33.5t20.5 33t17.5 32t12 21.5l84 -57q-102 -178 -208.5 -243t-278.5 -65 q-135 0 -219 70t-84 197z" />
<glyph unicode="m" horiz-adv-x="2048" d="M-63 0l178 662q20 76 20 118q0 80 -98 80l22 98l617 17l-33 -152l4 -4q154 180 348 180q90 0 149.5 -57t74.5 -149q63 59 111 97t125 73.5t147 35.5q133 0 193 -58t60 -183q0 -72 -60 -281t-60 -231q0 -45 32 -45q25 0 44.5 19.5t41 61.5t29.5 54l76 -39 q-66 -145 -175.5 -233.5t-246.5 -88.5q-129 0 -213 52.5t-84 165.5q0 88 60.5 292.5t60.5 231.5q0 37 -29 37q-25 0 -57.5 -24.5t-48.5 -49.5l-174 -680h-492l168 627q18 66 18 78q0 37 -32 36q-31 0 -69 -38.5t-48 -75.5l-172 -627h-487z" />
<glyph unicode="n" d="M-16 0l168 639q31 119 30 141q0 43 -35.5 61.5t-119.5 18.5l22 98l694 17l-32 -156l4 -4q215 184 395 184q123 0 198.5 -62.5t75.5 -178.5q0 -72 -58 -281t-58 -231q0 -45 32 -45q12 0 25.5 9t30 26.5t29 35t33 45t32.5 43.5l74 -57q-199 -328 -518 -328 q-104 0 -183.5 53.5t-79.5 164.5q0 78 58.5 287.5t58.5 232.5q0 41 -39 41q-29 0 -79 -40t-68 -69l-166 -645h-524z" />
<glyph unicode="o" horiz-adv-x="1366" d="M-43 432q0 250 205 408.5t512 158.5q242 0 407.5 -119.5t165.5 -336.5q0 -250 -204.5 -409t-512.5 -159q-242 0 -407.5 120t-165.5 337zM453 162q0 -80 61 -80q45 0 79 66.5t83 248.5q76 281 76 402q0 94 -58 94q-49 0 -88 -85t-80 -247q-73 -278 -73 -399z" />
<glyph unicode="p" horiz-adv-x="1478" d="M-344 -446l29 114q127 0 168 22.5t55 82.5l219 862q20 76 20 137q0 45 -35.5 66.5t-131.5 21.5l22 98l727 17l-27 -115l5 -4q135 143 303 143q154 0 252 -110.5t98 -284.5q0 -233 -186.5 -431t-411.5 -198q-162 0 -250 91l-53 -199q-20 -72 -20.5 -119t42.5 -63.5 t142 -16.5l-27 -114h-940zM557 209q0 -33 16.5 -53.5t42.5 -20.5q33 0 55.5 21.5t52.5 98.5t67 224q45 184 45 221q0 74 -56 74q-96 0 -182 -373q-41 -169 -41 -192z" />
<glyph unicode="q" horiz-adv-x="1478" d="M-33 381q0 268 199 443t479 175q123 0 223.5 -36.5t154.5 -72.5t62 -36q14 0 150 121h131q-25 -63 -70 -246l-213 -856q-25 -98 -24 -135q0 -41 31.5 -55.5t136.5 -14.5l-27 -114h-926l29 114q127 0 169 22.5t56 82.5l74 293l-4 4q-115 -94 -266 -95q-166 0 -265.5 123 t-99.5 283zM492 229q0 -74 61 -73q43 0 74.5 53t68.5 207q82 342 82 391q0 61 -49 61q-41 0 -73.5 -54t-71.5 -177q-29 -88 -60.5 -230.5t-31.5 -177.5z" />
<glyph unicode="r" horiz-adv-x="1138" d="M-27 0l150 571q14 51 14 166q0 74 -29.5 98.5t-121.5 24.5l14 98l610 17l-12 -273l4 -4q31 66 52.5 105t61.5 92t90 78.5t109 25.5q96 0 150.5 -55t54.5 -151q0 -94 -57 -157t-152 -63q-68 0 -110.5 45.5t-48.5 110.5q-31 -37 -63 -106.5t-62.5 -167t-50 -164t-46 -172 t-30.5 -119.5h-527z" />
<glyph unicode="s" horiz-adv-x="1138" d="M-106 233q0 74 47 120t120 46q76 0 130.5 -41t54.5 -114q0 -78 -51 -121q27 -16 92 -17q59 0 111.5 28t52.5 87q0 51 -64.5 100.5t-141.5 85t-141.5 97t-64.5 133.5v37q0 152 151.5 238.5t370.5 86.5h70q205 0 297 -60t92 -161q0 -53 -42 -99t-114 -46q-63 0 -115.5 42 t-52.5 105q0 68 39 99q-27 14 -78 14q-57 0 -89.5 -32t-32.5 -77q0 -47 47 -81.5t113.5 -62.5t132 -60.5t111.5 -92.5q44 -57 44 -134q0 -191 -179 -285q-175 -92 -444 -93q-201 0 -333.5 70.5t-132.5 187.5z" />
<glyph unicode="t" horiz-adv-x="909" d="M-14 844l22 114h191l116 373h508l-96 -373h250l-33 -114h-248l-118 -459q-4 -12 -13.5 -44t-14.5 -54.5t-5 -44.5q0 -49 43 -49q20 0 45.5 20t43 41.5t42 56.5t29.5 39l83 -57q-178 -317 -469 -318q-152 0 -242.5 77t-90.5 208q0 47 37 189l102 395h-182z" />
<glyph unicode="u" d="M0 860l23 98l741 17l-152 -533q-25 -84 -24 -116q0 -23 14 -39.5t37 -16.5q94 0 158 238l125 467h542l-164 -606q-29 -111 -28 -136q0 -33 33 -32q25 0 51 24.5t62 74.5t42 56l88 -49q-176 -332 -504 -332q-117 0 -199.5 59.5t-92.5 178.5q-123 -125 -229.5 -181.5 t-260.5 -56.5q-109 0 -176.5 64.5t-67.5 169.5q0 84 66 308t66 263q0 43 -35 61.5t-115 18.5z" />
<glyph unicode="v" horiz-adv-x="1251" d="M-4 860l24 98l717 17l-139 -512q-37 -143 -37 -207q0 -100 90 -100q141 0 253 163.5t112 280.5q0 16 -2 23q-33 -16 -74 -17q-80 0 -126 55.5t-46 133.5q0 94 51 149t147.5 55t145.5 -71.5t49 -186.5q0 -90 -26.5 -189t-87 -202.5t-145.5 -186.5t-217 -135.5t-288 -52.5 q-160 0 -264 81t-104 214q0 76 58 275.5t58 234.5q0 43 -34.5 61.5t-114.5 18.5z" />
<glyph unicode="w" horiz-adv-x="1933" d="M-10 860l30 98l736 17l-154 -584q-18 -74 -18 -98q0 -47 43 -47q45 0 86 43t57 108l150 578h538l-162 -641q-12 -49 -12 -92q0 -78 72 -78q98 0 206.5 155.5t120.5 262.5h-26q-84 0 -140.5 50t-56.5 148q0 84 53.5 139.5t122.5 55.5q102 0 154.5 -63.5t52.5 -168.5 q0 -205 -164 -440q-125 -180 -256 -254t-315 -74q-264 0 -330 236q-143 -139 -233 -187.5t-250 -48.5q-113 0 -190.5 70t-77.5 182q0 80 59 276.5t59 276.5q0 43 -35.5 61.5t-119.5 18.5z" />
<glyph unicode="x" horiz-adv-x="1366" d="M-211 190q0 84 57.5 137.5t143.5 53.5q78 0 121 -56.5t43 -136.5q20 10 39.5 25.5t33 28t33 36t26.5 34t28.5 39t25.5 34.5l-166 375q-25 57 -61.5 75.5t-116.5 24.5l24 115h627l101 -264q35 59 55 91t61 80t90.5 70.5t106.5 22.5q76 0 137.5 -53.5t61.5 -137.5 t-53.5 -143t-137.5 -59q-63 0 -109.5 41t-66.5 102h-4l-82 -127l111 -274q37 -94 90 -95q33 0 55 27t51 96l86 -37q-109 -340 -457 -340q-135 0 -210.5 78t-139.5 226q-57 -86 -101 -139.5t-123 -102.5t-163 -49q-94 0 -155.5 55t-61.5 147z" />
<glyph unicode="y" horiz-adv-x="1478" d="M-111 -221q0 63 49.5 113.5t133.5 50.5q92 0 147 -47.5t55 -131.5q0 -57 -45 -110q61 -10 86 -10q102 0 173 53t96 151l67 277l-4 4q-168 -154 -375 -154q-115 0 -193.5 60.5t-78.5 171.5q0 94 60.5 315t60.5 258q0 80 -144 80l23 98l715 17l-162 -617q-20 -78 -21 -102 q0 -43 37 -43q106 0 148 160l157 602h537l-242 -912q-74 -272 -293 -403t-552 -131q-205 0 -320 62.5t-115 187.5z" />
<glyph unicode="z" horiz-adv-x="1251" d="M-170 86q113 137 226.5 218t287.5 153q76 31 199 92t168 98l-2 4q-127 -57 -271 -57q-63 0 -162.5 10t-109.5 10q-49 0 -107 -69l-82 28l113 293q51 133 186 133q102 0 304 -34.5t305 -34.5q190 0 301 65l78 -63q-31 -39 -72 -80t-96.5 -82t-103.5 -74.5t-121.5 -78 t-119.5 -71t-131 -70.5t-122 -62.5t-126 -62.5t-110 -54l4 -6q168 74 285 106.5t246 32.5q74 0 114.5 5t85.5 36t66 92l90 -33l-100 -288q-53 -154 -125 -210.5t-189 -56.5q-63 0 -274 45.5t-359 45.5q-125 0 -208 -54z" />
<glyph unicode="{" horiz-adv-x="1138" d="M-23 479v4q98 47 148.5 114t77.5 177l59 248q53 223 194.5 317.5t463.5 94.5l-29 -127q-88 -25 -137 -89.5t-78 -183.5l-55 -227q-33 -135 -84.5 -216t-149.5 -108v-4q100 -33 100 -162q0 -59 -24 -161l-53 -228q-20 -82 -21 -127q0 -111 103 -145l-31 -127 q-268 0 -374.5 60.5t-106.5 205.5q0 47 22 146l59 247q16 70 17 97q-1 131 -101 194z" />
<glyph unicode="|" horiz-adv-x="454" d="M59 0v1409h230v-1409h-230z" />
<glyph unicode="}" horiz-adv-x="1138" d="M-111 -471l29 127q88 25 137 89.5t78 182.5l55 228q33 135 84.5 216t149.5 107v4q-100 33 -100 162q0 59 24 162l53 227q20 82 21 127q0 111 -103 146l31 127q268 0 374.5 -60.5t106.5 -206.5q0 -47 -22 -145l-59 -248q-16 -70 -17 -96q0 -131 100 -195v-4 q-98 -47 -148 -113.5t-77 -177.5l-59 -247q-53 -223 -194.5 -317.5t-463.5 -94.5z" />
<glyph unicode="~" horiz-adv-x="1228" d="M37 494q98 178 248 178q84 0 243.5 -70t208.5 -70q78 0 174 144l76 -195q-43 -57 -69.5 -86.5t-81 -60.5t-119.5 -31q-20 0 -40 4t-44.5 13.5t-36.5 15.5t-43 22.5t-39 20.5q-123 63 -229 63q-102 0 -174 -143z" />
<glyph unicode="&#xa1;" horiz-adv-x="796" d="M-229 -262q0 100 69.5 203.5t178 239.5t165.5 265h127q-2 -158 17.5 -352t19.5 -219q0 -158 -84 -246t-246 -88q-247 0 -247 197zM109 757.5q0 98.5 71.5 170t170 71.5t170 -71.5t71.5 -170t-71.5 -170t-170 -71.5t-170 71.5t-71.5 170z" />
<glyph unicode="&#xa2;" horiz-adv-x="1366" d="M45 680q0 205 183.5 347t428.5 165l80 242h142l-76 -242q164 -10 264 -75.5t100 -172.5q0 -92 -54 -150.5t-144 -58.5q-80 0 -137.5 50.5t-57.5 127.5q0 51 31 99.5t78 56.5q-16 16 -66 16q-66 0 -122 -67.5t-88 -161.5t-49 -177t-17 -128q0 -154 157 -154q162 0 320 207 l94 -59q-88 -129 -235.5 -204t-307.5 -75q-16 0 -49 4l-94 -295h-141l96 312q-154 45 -245 144t-91 249z" />
<glyph unicode="&#xa3;" horiz-adv-x="1366" d="M-139 213q0 254 278 254q133 0 234 -51q8 66 8 86q0 53 -27 133h-370l32 115h271q-70 109 -99.5 185.5t-29.5 164.5q0 172 144 253t394 81q231 0 366.5 -67t135.5 -193q0 -201 -209 -201q-63 0 -117.5 47t-54.5 110q0 104 82 166q-49 23 -82 23q-70 0 -102.5 -49 t-32.5 -123q0 -35 11.5 -77t35 -91t38.5 -80t47 -86t36 -63h289l-35 -115h-211q2 -18 2 -53q0 -86 -46 -162t-122 -121q66 -33 156 -33q92 0 153.5 48t112.5 139l88 -29q-37 -106 -68.5 -174t-86 -137.5t-133.5 -103.5t-185 -34q-164 0 -309 103q-152 -102 -293 -103 q-129 0 -215 75t-86 163zM12 217q0 -49 38 -73.5t89 -24.5q113 0 172 102q-100 90 -198 90q-43 0 -72 -25.5t-29 -68.5z" />
<glyph unicode="&#xa4;" horiz-adv-x="1366" d="M78 303l115 115q-86 92 -86.5 286.5t86.5 286.5l-115 115l139 139l119 -119q94 86 278.5 86t278.5 -86l119 119l139 -139l-115 -115q86 -92 86 -286.5t-86 -286.5l115 -115l-139 -139l-119 119q-94 -86 -278.5 -86t-278.5 86l-119 -119zM344 704.5q0 -116.5 79 -199.5 t191.5 -83t191.5 83t79 199.5t-79 199.5t-191.5 83t-191.5 -83t-79 -199.5z" />
<glyph unicode="&#xa5;" horiz-adv-x="1366" d="M-57 516l32 115h330l4 22l-37 133h-258l31 115h199l-82 291q-16 57 -56 79.5t-120 22.5l26 115h869l-27 -115q-80 0 -117 -20.5t-37 -79.5q0 -51 44 -212t51 -194q4 4 46 59.5t73.5 98.5t71.5 101.5t62.5 104.5t22.5 73q0 43 -27.5 56t-107.5 13l27 115h503l-30 -115 q-113 4 -181 -90l-221 -303h193l-33 -115h-242l-104 -145l-2 -10h309l-31 -115h-305l-51 -217q-12 -45 -12 -88q0 -49 35.5 -72.5t130.5 -23.5l-25 -115h-950l24 115q150 10 193 34.5t63 122.5l54 244h-338z" />
<glyph unicode="&#xa6;" horiz-adv-x="454" d="M59 0v528h230v-528h-230zM59 881v528h230v-528h-230z" />
<glyph unicode="&#xa7;" horiz-adv-x="1138" d="M-137 -248q0 70 41 112t110 42q66 0 109 -40t43 -104q0 -45 -17.5 -74.5t-34 -43t-16.5 -19.5q0 -55 127 -55q197 0 197 168q0 61 -46 135t-111.5 146.5t-131 148.5t-112 166t-46.5 174q0 90 30 155.5t72 95t83 46t70.5 25t29.5 14.5q0 16 -32.5 85.5t-32.5 137.5 q0 174 113.5 270.5t293.5 96.5q176 0 282.5 -61.5t106.5 -186.5q0 -72 -41 -112t-112 -40q-61 0 -101.5 42t-40.5 104q0 49 28 84.5t28 42.5q0 45 -117 45q-82 0 -132 -40t-50 -122q0 -70 70.5 -170t155.5 -190.5t155.5 -209t70.5 -221.5q0 -143 -67.5 -208.5t-157.5 -75.5 q-80 -8 -80 -31q0 -4 19.5 -37t40 -91t20.5 -126q0 -143 -109.5 -242.5t-337.5 -99.5q-150 0 -260 67.5t-110 196.5zM188 635q0 -39 29 -93.5t109 -162.5q158 -211 258 -211q45 0 72.5 27.5t27.5 74.5q0 82 -129 252q-92 123 -146.5 173t-101.5 50q-53 0 -86 -28.5 t-33 -81.5z" />
<glyph unicode="&#xa8;" horiz-adv-x="681" d="M35 1294.5q0 67.5 47 115.5t116.5 48t116.5 -48t47 -115.5t-47 -116t-116.5 -48.5t-116.5 48.5t-47 116zM485 1294.5q0 67.5 47.5 115.5t117 48t116.5 -48t47 -115.5t-47 -116t-116.5 -48.5t-117 48.5t-47.5 116z" />
<glyph unicode="&#xa9;" horiz-adv-x="1638" d="M45 702.5q0 313.5 202 522.5t511 209t510.5 -209t201.5 -522.5t-200.5 -520.5t-512 -207t-512 207t-200.5 520.5zM229 702.5q0 -253.5 148.5 -425t380 -171.5t380 171.5t148.5 425t-148.5 427t-380 173.5t-380 -173.5t-148.5 -427zM348 721q0 213 131 313.5t336 100.5 q90 0 172 -22.5t82 -53.5v-154h-49q-68 172 -203 172q-96 0 -147.5 -91t-51.5 -245q0 -377 197 -376q152 0 242 190h47l-33 -170q-4 -18 -105.5 -48t-168.5 -30q-213 0 -331 109.5t-118 304.5z" />
<glyph unicode="&#xaa;" horiz-adv-x="886" d="M-14 1079q0 137 107.5 246t273.5 109q57 0 95 -19.5t75 -66.5l22 69h344q-123 -428 -123 -436q0 -23 23 -23q39 0 92 99l53 -37q-113 -201 -311 -201q-70 0 -125 34t-55 97h-4q-94 -131 -230 -131q-109 0 -173 75.5t-64 184.5zM338 1016q0 -37 39 -37q51 0 87 117.5 t36 179.5q0 47 -47 47q-31 0 -73 -124t-42 -183z" />
<glyph unicode="&#xab;" horiz-adv-x="1138" d="M-16 463v31q158 109 287.5 210t177 138t65.5 37q35 0 35 -37q0 -14 -24.5 -50t-67.5 -86.5t-78 -90.5t-81 -89t-50 -55q154 -258 153 -338q0 -37 -34 -37q-16 0 -76 60.5t-152 156t-155 150.5zM391 463v31q158 109 288 210t177 138t66 37q35 0 34 -37q0 -14 -24.5 -50 t-67.5 -86.5t-77.5 -90.5t-81 -89t-50.5 -55q154 -258 154 -338q0 -37 -35 -37q-16 0 -75.5 60.5t-152 156t-155.5 150.5z" />
<glyph unicode="&#xac;" horiz-adv-x="1228" d="M49 559v229h975v-602h-229v373h-746z" />
<glyph unicode="&#xad;" horiz-adv-x="796" d="M-45 328l86 319h598l-86 -319h-598z" />
<glyph unicode="&#xae;" horiz-adv-x="1638" d="M45 702.5q0 313.5 202 522.5t511 209t510.5 -209t201.5 -522.5t-200.5 -520.5t-512 -207t-512 207t-200.5 520.5zM229 702.5q0 -253.5 148.5 -425t380 -171.5t380 171.5t148.5 425t-148.5 427t-380 173.5t-380 -173.5t-148.5 -427zM406 332v45q57 2 70 17.5t13 58.5v540 q0 43 -13 58.5t-70 17.5v45h425q100 0 162 -53t62 -158q0 -66 -41 -123t-113 -80l117 -174q55 -84 117 -164v-30h-203q-27 0 -59.5 55t-74.5 149.5t-67 135.5h-41v-219q0 -43 14.5 -58.5t71.5 -17.5v-45h-370zM690 729h51q96 0 97 168q0 160 -90 160h-58v-328z" />
<glyph unicode="&#xaf;" horiz-adv-x="681" d="M35 1204l51 176h711l-49 -176h-713z" />
<glyph unicode="&#xb0;" horiz-adv-x="819" d="M117 1141q0 123 85 208t207.5 85t207.5 -85t85 -208t-85 -208t-207.5 -85t-207.5 85t-85 208zM240 1140.5q0 -71.5 50 -124.5t119.5 -53t120 53t50.5 124.5t-50.5 125t-120 53.5t-119.5 -53.5t-50 -125z" />
<glyph unicode="&#xb1;" horiz-adv-x="1228" d="M49 0v229h975v-229h-975zM49 528v230h373v217h229v-217h373v-230h-373v-217h-229v217h-373z" />
<glyph unicode="&#xb2;" horiz-adv-x="819" d="M-74 573q14 90 43 117q51 45 157.5 125t170 132t118 126t54.5 139q0 53 -38 92t-95 39q-39 0 -64 -16q100 -35 101 -129q0 -61 -45 -104t-117 -43t-115 39.5t-43 99.5q0 113 117 178.5t301 65.5q172 0 273.5 -52.5t101.5 -154.5q0 -80 -63.5 -141.5t-146.5 -96.5 t-212 -91t-213 -107v-5h283q80 0 126 28t89 95l79 -16l-108 -320h-754z" />
<glyph unicode="&#xb3;" horiz-adv-x="819" d="M-53 784q0 63 41 103.5t110 40.5q66 0 109 -39t43 -98q0 -47 -35 -82t-86 -45q37 -27 94 -27q86 0 140.5 94t54.5 184q0 55 -37 56q-8 0 -32.5 -4t-37.5 -4q-57 0 -57 38.5t41 38.5q12 0 46 -4t54 -4q41 0 69 79t28 122q0 70 -27 100.5t-84 30.5q-39 0 -78 -25 q102 -33 103 -120q0 -53 -46.5 -95.5t-119.5 -42.5q-61 0 -103.5 35t-42.5 92q0 100 98.5 163t288.5 63q147 0 253 -56.5t106 -154.5q0 -43 -19.5 -77t-46 -53.5t-72 -36t-78 -24.5t-79.5 -16v-4q238 -12 237 -172q0 -117 -128 -199t-337 -82q-174 0 -272 65.5t-98 159.5z " />
<glyph unicode="&#xb4;" horiz-adv-x="681" d="M229 1122l250 291q47 53 77 73.5t79 20.5q57 0 90 -33.5t33 -91.5q0 -55 -78 -96l-315 -164h-136z" />
<glyph unicode="&#xb5;" d="M-135 -201q0 106 71.5 304t142.5 390.5t71 286.5q0 43 -35 61.5t-115 18.5l23 98l741 17l-152 -533q-25 -84 -24 -116q0 -23 14 -39.5t37 -16.5q94 0 158 238l125 467h542l-164 -606q-29 -111 -28 -136q0 -33 33 -32q25 0 51 24.5t62 74.5t42 56l88 -49 q-176 -332 -504 -332q-117 0 -199.5 59.5t-90.5 178.5h-4q-133 -197 -261 -197h-61q0 -2 -3 -22.5t-3 -30.5q0 -410 -332 -409q-100 0 -162.5 71.5t-62.5 173.5z" />
<glyph unicode="&#xb6;" horiz-adv-x="1269" d="M102 848q0 266 132.5 426t388.5 160h675l-14 -66q-86 -8 -121 -24.5t-47 -63.5l-389 -1612h-246l410 1696h-121l-410 -1696h-245l223 922q-106 0 -171 73.5t-65 184.5z" />
<glyph unicode="&#xb7;" horiz-adv-x="681" d="M10 487.5q0 98.5 72 170t170 71.5t170 -71.5t72 -170t-72 -170t-170 -71.5t-170 71.5t-72 170z" />
<glyph unicode="&#xb8;" horiz-adv-x="681" d="M-66 -395l48 69q90 -39 147 -39q109 0 109 82q0 66 -86 66q-39 0 -64 -8l-37 37l148 192h104l-110 -135q8 0 37.5 4t43.5 4q80 0 132.5 -44t52.5 -103q0 -84 -82 -136.5t-203 -52.5q-138 1 -240 64z" />
<glyph unicode="&#xb9;" horiz-adv-x="819" d="M-16 573l16 70q102 4 133 22.5t47 71.5l113 385q14 43 14 68q0 55 -92 55h-47l18 70q238 0 375 106h168l-192 -669q-12 -49 -13 -56q0 -53 129 -53l-16 -70h-653z" />
<glyph unicode="&#xba;" horiz-adv-x="819" d="M43 1094q0 150 133 245t334 95q156 0 264.5 -72t108.5 -203q0 -150 -134.5 -245t-332.5 -95q-158 0 -265.5 72t-107.5 203zM365 946q0 -61 41 -61q51 0 102 178t51 244q0 61 -39 61q-51 0 -103 -178t-52 -244z" />
<glyph unicode="&#xbb;" horiz-adv-x="1138" d="M25 100q0 14 24.5 50t67.5 86.5t77.5 90.5t81 89t50.5 55q-154 258 -154 338q0 37 35 37q16 0 75.5 -60.5t151.5 -155.5t156 -151v-30q-158 -109 -288 -210.5t-177 -138.5t-66 -37q-34 0 -34 37zM432 100q0 14 24.5 50t67.5 86.5t78 90.5t81 89t50 55q-154 258 -153 338 q0 37 34 37q16 0 76 -60.5t152 -155.5t155 -151v-30q-158 -109 -287.5 -210.5t-177 -138.5t-65.5 -37q-35 0 -35 37z" />
<glyph unicode="&#xbc;" horiz-adv-x="2048" d="M4 573l16 70q102 4 133 22.5t48 71.5l112 385q14 43 15 68q0 55 -92 55h-48l19 70q238 0 375 106h168l-193 -669q-12 -49 -12 -56q0 -53 129 -53l-17 -70h-653zM498 -25l854 1459h172l-852 -1459h-174zM1022 225l22 99q72 72 264.5 254t286.5 282h293l-155 -565h155 l-20 -70h-156q-25 -61 -24 -102q0 -53 112 -53l-20 -70h-619l19 70q106 4 136 27.5t54 127.5h-348zM1135 295h256l94 332l-2 -2l-4 4z" />
<glyph unicode="&#xbd;" horiz-adv-x="2048" d="M-45 573l16 70q102 4 133 22.5t48 71.5l112 385q14 43 15 68q0 55 -93 55h-47l19 70q238 0 374 106h168l-192 -669q-12 -49 -12 -56q0 -53 129 -53l-17 -70h-653zM416 -25l854 1459h172l-852 -1459h-174zM1018 0q14 90 43 117q51 45 157.5 125t170 132t118 125.5 t54.5 139.5q0 53 -38 92t-96 39q-39 0 -63 -16q100 -35 100 -129q0 -61 -45 -104.5t-116.5 -43.5t-114.5 40t-43 99q0 113 116.5 178.5t301.5 65.5q172 0 273 -52t101 -155q0 -80 -63.5 -141t-146 -96t-212 -91.5t-212.5 -107.5v-4h282q80 0 126 27.5t89 95.5l80 -17 l-108 -319h-754z" />
<glyph unicode="&#xbe;" horiz-adv-x="2048" d="M29 784q0 63 41 103.5t110 40.5q66 0 109 -39t43 -98q0 -47 -35 -82t-86 -45q37 -27 94 -27q86 0 140.5 94t54.5 184q0 55 -37 56q-8 0 -32.5 -4t-37.5 -4q-57 0 -57 38.5t41 38.5q12 0 46 -4t54 -4q41 0 68.5 79t27.5 122q0 70 -26.5 100.5t-83.5 30.5q-39 0 -78 -25 q102 -33 102 -120q0 -53 -46 -95.5t-119 -42.5q-61 0 -103.5 35t-42.5 92q0 100 98.5 163t288.5 63q147 0 253 -56.5t106 -154.5q0 -43 -19.5 -77t-46.5 -53.5t-72 -36t-77.5 -24.5t-79.5 -16v-4q238 -12 237 -172q0 -117 -128 -199t-337 -82q-174 0 -272 65.5t-98 159.5z M539 -25l854 1459h172l-852 -1459h-174zM1042 225l23 99q72 72 264.5 254t286.5 282h293l-156 -565h156l-21 -70h-155q-25 -61 -25 -102q0 -53 113 -53l-21 -70h-618l18 70q106 4 136 27.5t55 127.5h-349zM1155 295h256l94 332l-2 -2l-4 4z" />
<glyph unicode="&#xbf;" horiz-adv-x="1251" d="M-156 -115q0 111 66.5 184.5t164 110.5t196 68t177 79t95.5 119h155q-4 -59 -38.5 -122.5t-80.5 -116.5l-93 -107q-46 -53 -77.5 -111.5t-31.5 -111.5q0 -88 62.5 -142t138.5 -54q72 0 127 45q-141 63 -142 211q0 72 60.5 126t142.5 54q84 0 143.5 -53.5t59.5 -137.5 q0 -162 -150.5 -273.5t-390.5 -111.5q-264 0 -424 100.5t-160 243.5zM453 757.5q0 98.5 71.5 170t170 71.5t170 -71.5t71.5 -170t-71.5 -170t-170 -71.5t-170 71.5t-71.5 170z" />
<glyph unicode="&#xc0;" d="M-268 0l26 115q137 4 207 54t170 208l662 1032h407l111 -1114q10 -111 45 -146.5t145 -33.5l-26 -115h-961l27 115q121 0 154.5 26.5t33.5 83.5q0 33 -20 197h-381q-109 -178 -109 -225q0 -43 37 -62.5t141 -19.5l-26 -115h-643zM408 553h297l-39 397h-4zM741 1763 q0 43 33 76t88 33q80 0 160 -113l195 -272h-127l-265 160q-84 50 -84 116z" />
<glyph unicode="&#xc1;" d="M-268 0l26 115q137 4 207 54t170 208l662 1032h407l111 -1114q10 -111 45 -146.5t145 -33.5l-26 -115h-961l27 115q121 0 154.5 26.5t33.5 83.5q0 33 -20 197h-381q-109 -178 -109 -225q0 -43 37 -62.5t141 -19.5l-26 -115h-643zM408 553h297l-39 397h-4zM840 1487 l250 291q47 53 76.5 73.5t78.5 20.5q57 0 90 -34t33 -91q0 -55 -78 -96l-315 -164h-135z" />
<glyph unicode="&#xc2;" d="M-268 0l26 115q137 4 207 54t170 208l662 1032h407l111 -1114q10 -111 45 -146.5t145 -33.5l-26 -115h-961l27 115q121 0 154.5 26.5t33.5 83.5q0 33 -20 197h-381q-109 -178 -109 -225q0 -43 37 -62.5t141 -19.5l-26 -115h-643zM408 553h297l-39 397h-4zM637 1487 l319 360h246l172 -360h-135l-197 176l-249 -176h-156z" />
<glyph unicode="&#xc3;" d="M-268 0l26 115q137 4 207 54t170 208l662 1032h407l111 -1114q10 -111 45 -146.5t145 -33.5l-26 -115h-961l27 115q121 0 154.5 26.5t33.5 83.5q0 33 -20 197h-381q-109 -178 -109 -225q0 -43 37 -62.5t141 -19.5l-26 -115h-643zM408 553h297l-39 397h-4zM631 1528 q14 111 91 190.5t185 79.5q59 0 164 -41t146 -41q63 0 98 76v2l2 4h108q-23 -109 -93 -191.5t-173 -82.5q-70 0 -187.5 43t-152.5 43q-27 0 -53.5 -24.5t-34.5 -57.5h-100z" />
<glyph unicode="&#xc4;" d="M-268 0l26 115q137 4 207 54t170 208l662 1032h407l111 -1114q10 -111 45 -146.5t145 -33.5l-26 -115h-961l27 115q121 0 154.5 26.5t33.5 83.5q0 33 -20 197h-381q-109 -178 -109 -225q0 -43 37 -62.5t141 -19.5l-26 -115h-643zM408 553h297l-39 397h-4zM645 1658.5 q0 67.5 47 116t117 48.5t117 -48.5t47 -116t-47 -115.5t-117 -48t-117 48t-47 115.5zM1096 1658.5q0 67.5 47 116t116.5 48.5t116.5 -48.5t47 -116t-47 -115.5t-116.5 -48t-116.5 48t-47 115.5z" />
<glyph unicode="&#xc5;" d="M-268 0l26 115q137 4 207 54t170 208l662 1032h407l111 -1114q10 -111 45 -146.5t145 -33.5l-26 -115h-961l27 115q121 0 154.5 26.5t33.5 83.5q0 33 -20 197h-381q-109 -178 -109 -225q0 -43 37 -62.5t141 -19.5l-26 -115h-643zM408 553h297l-39 397h-4zM821 1708 q0 92 62.5 156.5t154.5 64.5q90 0 156 -65.5t66 -155.5q0 -92 -65 -154.5t-157 -62.5t-154.5 62.5t-62.5 154.5zM932 1710q0 -47 31.5 -77.5t76.5 -30.5t77 31.5t32 76.5t-32 77t-77 32t-76.5 -32t-31.5 -77z" />
<glyph unicode="&#xc6;" horiz-adv-x="2048" d="M-238 0l27 115q61 8 96 40.5t99 127.5l542 813q82 121 82 149q0 27 -42 36t-158 13l38 115h1526l-74 -479h-118q-4 365 -232 364q-90 0 -118 -127l-87 -360q80 2 122 44t89 157h129l-141 -553h-115q-4 129 -30.5 175t-87.5 46l-95 -373q-25 -102 -24 -117q0 -55 82 -55 q78 0 146.5 34t124.5 97.5t97 127t86 151.5l121 -29l-151 -512h-1293l29 115q123 14 159 37.5t52 89.5l74 286h-400q-10 -20 -64 -101t-94 -150.5t-40 -98.5q0 -53 137 -63l-31 -115h-463zM403 659h349l166 639h-107z" />
<glyph unicode="&#xc7;" horiz-adv-x="1478" d="M-6 555q0 182 62.5 335.5t159.5 251t218 166t232.5 97.5t210.5 29q113 0 208 -26t147 -51.5t62 -25.5q55 0 92 78h136l-113 -491h-131q-8 59 -14.5 98t-24.5 99.5t-43 96t-68 63.5t-98 28q-106 0 -195.5 -124t-139.5 -294t-76.5 -314.5t-26.5 -214.5q0 -113 50 -177 t149 -64q76 0 143 35.5t121.5 104.5t88.5 125t73 134l112 -45q-176 -453 -596 -489l-90 -111q8 0 38 4t44 4q80 0 132 -44t52 -103q0 -84 -82 -136.5t-202 -52.5q-137 0 -240 64l47 69q90 -39 148 -39q109 0 108 82q0 66 -86 66q-39 0 -63 -8l-37 37l127 163 q-264 8 -449.5 180.5t-185.5 399.5z" />
<glyph unicode="&#xc8;" d="M-209 0l27 115q164 10 208 34.5t70 122.5l215 805q25 94 25 127q0 47 -42 67.5t-157 22.5l27 115h1433l-108 -481h-119q-23 209 -83 287.5t-175 78.5q-72 0 -111.5 -22.5t-56.5 -85.5l-98 -379q106 0 166.5 50t101.5 165h127l-151 -573h-119q-2 139 -39 183t-119 44 l-96 -348q-27 -96 -27 -140q0 -25 24.5 -41t67.5 -16q319 0 527 414l121 -31l-158 -514h-1481zM707 1763q0 43 32.5 76t87.5 33q80 0 160 -113l195 -272h-127l-264 160q-84 50 -84 116z" />
<glyph unicode="&#xc9;" d="M-209 0l27 115q164 10 208 34.5t70 122.5l215 805q25 94 25 127q0 47 -42 67.5t-157 22.5l27 115h1433l-108 -481h-119q-23 209 -83 287.5t-175 78.5q-72 0 -111.5 -22.5t-56.5 -85.5l-98 -379q106 0 166.5 50t101.5 165h127l-151 -573h-119q-2 139 -39 183t-119 44 l-96 -348q-27 -96 -27 -140q0 -25 24.5 -41t67.5 -16q319 0 527 414l121 -31l-158 -514h-1481zM805 1487l250 291q47 53 76.5 73.5t78.5 20.5q57 0 90 -34t33 -91q0 -55 -78 -96l-315 -164h-135z" />
<glyph unicode="&#xca;" d="M-209 0l27 115q164 10 208 34.5t70 122.5l215 805q25 94 25 127q0 47 -42 67.5t-157 22.5l27 115h1433l-108 -481h-119q-23 209 -83 287.5t-175 78.5q-72 0 -111.5 -22.5t-56.5 -85.5l-98 -379q106 0 166.5 50t101.5 165h127l-151 -573h-119q-2 139 -39 183t-119 44 l-96 -348q-27 -96 -27 -140q0 -25 24.5 -41t67.5 -16q319 0 527 414l121 -31l-158 -514h-1481zM602 1487l320 360h245l172 -360h-135l-196 176l-250 -176h-156z" />
<glyph unicode="&#xcb;" d="M-209 0l27 115q164 10 208 34.5t70 122.5l215 805q25 94 25 127q0 47 -42 67.5t-157 22.5l27 115h1433l-108 -481h-119q-23 209 -83 287.5t-175 78.5q-72 0 -111.5 -22.5t-56.5 -85.5l-98 -379q106 0 166.5 50t101.5 165h127l-151 -573h-119q-2 139 -39 183t-119 44 l-96 -348q-27 -96 -27 -140q0 -25 24.5 -41t67.5 -16q319 0 527 414l121 -31l-158 -514h-1481zM610 1658.5q0 67.5 47.5 116t117 48.5t116.5 -48.5t47 -116t-47 -115.5t-116.5 -48t-117 48t-47.5 115.5zM1061 1658.5q0 67.5 47 116t116.5 48.5t117 -48.5t47.5 -116 t-47.5 -115.5t-117 -48t-116.5 48t-47 115.5z" />
<glyph unicode="&#xcc;" horiz-adv-x="1138" d="M-209 0l27 115q162 10 206 34.5t70 122.5l215 805q25 94 25 127q0 47 -42 67.5t-157 22.5l27 115h1067l-27 -115q-162 -10 -206 -34.5t-70 -122.5l-215 -801q-25 -94 -25 -131q0 -47 42 -67.5t157 -22.5l-27 -115h-1067zM479 1763q0 43 33 76t88 33q80 0 160 -113 l194 -272h-127l-264 160q-84 50 -84 116z" />
<glyph unicode="&#xcd;" horiz-adv-x="1138" d="M-209 0l27 115q162 10 206 34.5t70 122.5l215 805q25 94 25 127q0 47 -42 67.5t-157 22.5l27 115h1067l-27 -115q-162 -10 -206 -34.5t-70 -122.5l-215 -801q-25 -94 -25 -131q0 -47 42 -67.5t157 -22.5l-27 -115h-1067zM578 1487l249 291q47 53 77 73.5t79 20.5 q57 0 90 -34t33 -91q0 -55 -78 -96l-315 -164h-135z" />
<glyph unicode="&#xce;" horiz-adv-x="1138" d="M-209 0l27 115q162 10 206 34.5t70 122.5l215 805q25 94 25 127q0 47 -42 67.5t-157 22.5l27 115h1067l-27 -115q-162 -10 -206 -34.5t-70 -122.5l-215 -801q-25 -94 -25 -131q0 -47 42 -67.5t157 -22.5l-27 -115h-1067zM375 1487l319 360h246l172 -360h-135l-197 176 l-250 -176h-155z" />
<glyph unicode="&#xcf;" horiz-adv-x="1138" d="M-209 0l27 115q162 10 206 34.5t70 122.5l215 805q25 94 25 127q0 47 -42 67.5t-157 22.5l27 115h1067l-27 -115q-162 -10 -206 -34.5t-70 -122.5l-215 -801q-25 -94 -25 -131q0 -47 42 -67.5t157 -22.5l-27 -115h-1067zM383 1658.5q0 67.5 47 116t116.5 48.5t117 -48.5 t47.5 -116t-47.5 -115.5t-117 -48t-116.5 48t-47 115.5zM834 1658.5q0 67.5 47 116t116.5 48.5t116.5 -48.5t47 -116t-47 -115.5t-116.5 -48t-116.5 48t-47 115.5z" />
<glyph unicode="&#xd0;" horiz-adv-x="1820" d="M-221 0l26 115q176 8 223.5 33.5t73.5 123.5l117 441h-182l37 127h180l63 237q25 94 25 127q0 47 -42 67.5t-161 22.5l27 115h878q168 0 302.5 -52t213 -139.5t119.5 -190.5t41 -216q0 -145 -56 -284.5t-167 -259.5t-300 -193.5t-431 -73.5h-987zM678 166q0 -51 63 -51 q160 0 299 497q4 14 7 21q96 352 96 477q0 184 -109 184q-49 0 -73 -84l-105 -370h156l-37 -127h-154l-112 -394q-31 -100 -31 -153z" />
<glyph unicode="&#xd1;" d="M-229 0l24 115q119 2 173.5 43t84.5 153l211 787q23 90 23 112q0 84 -176 84l26 115h688l328 -805h4l113 445q29 104 28 149q0 59 -33.5 77.5t-146.5 18.5l27 115h559l-27 -115q-109 -2 -162 -36.5t-77 -131.5l-297 -1126h-355l-405 1004h-4l-166 -633q-23 -86 -23 -142 q0 -115 177 -114l-25 -115h-569zM584 1528q14 111 91 190.5t185 79.5q57 0 163.5 -41t145.5 -41q63 0 99 76q0 2 2 6h108q-23 -109 -93.5 -191.5t-172.5 -82.5q-70 0 -187.5 43t-152.5 43q-27 0 -53.5 -24.5t-34.5 -57.5h-100z" />
<glyph unicode="&#xd2;" horiz-adv-x="1705" d="M-12 614q0 346 268 583t653 237q297 0 492.5 -182.5t195.5 -456.5q0 -346 -268 -583t-653 -237q-297 0 -492.5 182.5t-195.5 456.5zM545 223q0 -133 82 -133q41 0 77.5 27.5t61.5 64.5t50.5 97.5t38.5 100.5t30.5 100.5t21.5 72.5q47 147 90 335.5t43 297.5 q0 133 -98 133q-68 0 -123 -88t-119 -295q-155 -514 -155 -713zM750 1763q0 43 32.5 76t87.5 33q80 0 160 -113l195 -272h-127l-264 160q-84 50 -84 116z" />
<glyph unicode="&#xd3;" horiz-adv-x="1705" d="M-12 614q0 346 268 583t653 237q297 0 492.5 -182.5t195.5 -456.5q0 -346 -268 -583t-653 -237q-297 0 -492.5 182.5t-195.5 456.5zM545 223q0 -133 82 -133q41 0 77.5 27.5t61.5 64.5t50.5 97.5t38.5 100.5t30.5 100.5t21.5 72.5q47 147 90 335.5t43 297.5 q0 133 -98 133q-68 0 -123 -88t-119 -295q-155 -514 -155 -713zM848 1487l250 291q47 53 76.5 73.5t78.5 20.5q57 0 90 -34t33 -91q0 -55 -78 -96l-315 -164h-135z" />
<glyph unicode="&#xd4;" horiz-adv-x="1705" d="M-12 614q0 346 268 583t653 237q297 0 492.5 -182.5t195.5 -456.5q0 -346 -268 -583t-653 -237q-297 0 -492.5 182.5t-195.5 456.5zM545 223q0 -133 82 -133q41 0 77.5 27.5t61.5 64.5t50.5 97.5t38.5 100.5t30.5 100.5t21.5 72.5q47 147 90 335.5t43 297.5 q0 133 -98 133q-68 0 -123 -88t-119 -295q-155 -514 -155 -713zM645 1487l320 360h245l172 -360h-135l-196 176l-250 -176h-156z" />
<glyph unicode="&#xd5;" horiz-adv-x="1705" d="M-12 614q0 346 268 583t653 237q297 0 492.5 -182.5t195.5 -456.5q0 -346 -268 -583t-653 -237q-297 0 -492.5 182.5t-195.5 456.5zM545 223q0 -133 82 -133q41 0 77.5 27.5t61.5 64.5t50.5 97.5t38.5 100.5t30.5 100.5t21.5 72.5q47 147 90 335.5t43 297.5 q0 133 -98 133q-68 0 -123 -88t-119 -295q-155 -514 -155 -713zM639 1528q14 111 91 190.5t185 79.5q59 0 164 -41t146 -41q63 0 98 76v2l2 4h109q-23 -109 -93.5 -191.5t-173.5 -82.5q-70 0 -187.5 43t-152.5 43q-27 0 -53 -24.5t-35 -57.5h-100z" />
<glyph unicode="&#xd6;" horiz-adv-x="1705" d="M-12 614q0 346 268 583t653 237q297 0 492.5 -182.5t195.5 -456.5q0 -346 -268 -583t-653 -237q-297 0 -492.5 182.5t-195.5 456.5zM545 223q0 -133 82 -133q41 0 77.5 27.5t61.5 64.5t50.5 97.5t38.5 100.5t30.5 100.5t21.5 72.5q47 147 90 335.5t43 297.5 q0 133 -98 133q-68 0 -123 -88t-119 -295q-155 -514 -155 -713zM653 1658.5q0 67.5 47.5 116t117 48.5t116.5 -48.5t47 -116t-47 -115.5t-116.5 -48t-117 48t-47.5 115.5zM1104 1658.5q0 67.5 47 116t116.5 48.5t117 -48.5t47.5 -116t-47.5 -115.5t-117 -48t-116.5 48 t-47 115.5z" />
<glyph unicode="&#xd7;" horiz-adv-x="1228" d="M49 164l326 323l-326 322l162 166l326 -326l325 326l162 -166l-326 -322l326 -323l-162 -164l-325 326l-326 -326z" />
<glyph unicode="&#xd8;" horiz-adv-x="1705" d="M-12 614q0 346 268 583t653 237q154 0 285 -54l135 185h168l-180 -246q131 -86 205.5 -223.5t74.5 -300.5q0 -346 -268 -583t-653 -237q-168 0 -301 62l-152 -209h-166l199 272q-127 88 -197.5 221t-70.5 293zM545 223q0 -133 82 -133q35 0 66.5 18.5t57 55.5t46 71.5 t39 89t30 85t25.5 83t16 60.5q57 188 86 321l-4 5l-442 -609q-2 -20 -2 -47zM598 571l4 -4l436 600q2 6 2 19q0 133 -98 133q-68 0 -123 -88t-119 -295q-65 -218 -102 -365z" />
<glyph unicode="&#xd9;" d="M55 350q0 72 43 236l140 520q14 51 14 98t-40 67.5t-146 22.5l26 115h1006l-27 -115q-125 -10 -163 -35.5t-64 -121.5l-193 -740q-20 -78 -20 -139q0 -72 44 -107.5t118 -35.5q123 0 203.5 72.5t113.5 195.5l172 659q29 115 29 154q0 61 -33 79.5t-119 18.5l27 119h491 l-26 -119q-80 -2 -127 -39.5t-74 -138.5l-209 -792q-92 -348 -596 -349q-299 0 -444.5 107.5t-145.5 267.5zM682 1763q0 43 33 76t88 33q80 0 160 -113l194 -272h-127l-264 160q-84 50 -84 116z" />
<glyph unicode="&#xda;" d="M55 350q0 72 43 236l140 520q14 51 14 98t-40 67.5t-146 22.5l26 115h1006l-27 -115q-125 -10 -163 -35.5t-64 -121.5l-193 -740q-20 -78 -20 -139q0 -72 44 -107.5t118 -35.5q123 0 203.5 72.5t113.5 195.5l172 659q29 115 29 154q0 61 -33 79.5t-119 18.5l27 119h491 l-26 -119q-80 -2 -127 -39.5t-74 -138.5l-209 -792q-92 -348 -596 -349q-299 0 -444.5 107.5t-145.5 267.5zM780 1487l250 291q47 53 77 73.5t79 20.5q57 0 90 -34t33 -91q0 -55 -78 -96l-316 -164h-135z" />
<glyph unicode="&#xdb;" d="M55 350q0 72 43 236l140 520q14 51 14 98t-40 67.5t-146 22.5l26 115h1006l-27 -115q-125 -10 -163 -35.5t-64 -121.5l-193 -740q-20 -78 -20 -139q0 -72 44 -107.5t118 -35.5q123 0 203.5 72.5t113.5 195.5l172 659q29 115 29 154q0 61 -33 79.5t-119 18.5l27 119h491 l-26 -119q-80 -2 -127 -39.5t-74 -138.5l-209 -792q-92 -348 -596 -349q-299 0 -444.5 107.5t-145.5 267.5zM578 1487l319 360h246l172 -360h-135l-197 176l-250 -176h-155z" />
<glyph unicode="&#xdc;" d="M55 350q0 72 43 236l140 520q14 51 14 98t-40 67.5t-146 22.5l26 115h1006l-27 -115q-125 -10 -163 -35.5t-64 -121.5l-193 -740q-20 -78 -20 -139q0 -72 44 -107.5t118 -35.5q123 0 203.5 72.5t113.5 195.5l172 659q29 115 29 154q0 61 -33 79.5t-119 18.5l27 119h491 l-26 -119q-80 -2 -127 -39.5t-74 -138.5l-209 -792q-92 -348 -596 -349q-299 0 -444.5 107.5t-145.5 267.5zM586 1658.5q0 67.5 47 116t116.5 48.5t116.5 -48.5t47 -116t-47 -115.5t-116.5 -48t-116.5 48t-47 115.5zM1036 1658.5q0 67.5 47 116t117 48.5t117 -48.5t47 -116 t-47 -115.5t-117 -48t-117 48t-47 115.5z" />
<glyph unicode="&#xdd;" d="M29 0l26 115q162 10 208 34.5t69 122.5l88 381l-160 539q-18 59 -60 80.5t-128 21.5l28 115h936l-28 -115q-92 0 -129 -21.5t-37 -88.5q0 -51 47 -206t55 -190q170 217 233.5 309.5t63.5 135.5q0 37 -30.5 49t-114.5 12l28 115h543l-33 -115q-121 4 -194 -90l-439 -563 l-86 -342q-14 -53 -14 -88q0 -49 39 -72.5t141 -23.5l-26 -115h-1026zM817 1487l250 291q47 53 77 73.5t79 20.5q57 0 90 -34t33 -91q0 -55 -78 -96l-316 -164h-135z" />
<glyph unicode="&#xde;" d="M-197 0l27 115q162 10 206 34.5t70 122.5l216 805q25 94 24 127q0 47 -42 67.5t-157 22.5l27 115h1067l-27 -115q-162 -10 -206.5 -34.5t-71.5 -124.5q102 4 149 4q223 0 357.5 -87t134.5 -259q0 -193 -169 -304.5t-421 -111.5q-88 0 -252 4l-12 -45q-25 -94 -25 -131 q0 -47 42 -67.5t157 -22.5l-27 -115h-1067zM762 492h57q104 0 169 139t65 256q0 137 -82 137q-66 0 -84 -70z" />
<glyph unicode="&#xdf;" horiz-adv-x="1705" d="M-43 0l260 965q127 469 733 469q254 0 404.5 -92.5t150.5 -241.5q0 -74 -33.5 -127t-83 -79t-98.5 -43t-82.5 -34.5t-33.5 -40.5q0 -20 58 -52t129 -67.5t129 -115.5t58 -185q0 -178 -137 -279.5t-401 -101.5q-195 0 -288 53.5t-93 170.5q0 78 46 128t120 50 q72 0 119 -39t47 -107q0 -39 -26 -80.5t-61 -56.5v-6q49 -6 52 -6q72 0 109.5 49t37.5 129q0 72 -50 132.5t-109.5 96t-109.5 89t-50 114.5q0 47 26.5 81t63.5 62.5t74.5 67.5t64.5 118t27 191q0 90 -74 91q-41 0 -71.5 -37t-57.5 -136l-305 -1130h-545z" />
<glyph unicode="&#xe0;" horiz-adv-x="1478" d="M-57 410q0 227 164.5 408t420.5 181q90 0 149.5 -31.5t117.5 -107.5l34 115h529l-162 -610q-27 -102 -27 -109q0 -47 43 -47q25 0 52.5 30.5t53 78t32.5 53.5l77 -56q-176 -340 -479 -340q-106 0 -192 56.5t-86 165.5h-4q-61 -98 -155.5 -160t-201.5 -62 q-168 0 -267 127.5t-99 307.5zM487 305q0 -29 15.5 -48t38.5 -19q16 0 31.5 6t28.5 21.5t22.5 26.5t18.5 35.5t13 35t13.5 36t9.5 27.5q59 178 59 301q0 84 -61 84q-35 0 -68 -58.5t-73 -203.5q-48 -162 -48 -244zM530 1399q0 43 33 75.5t88 32.5q80 0 160 -112l195 -273 h-127l-265 160q-84 51 -84 117z" />
<glyph unicode="&#xe1;" horiz-adv-x="1478" d="M-57 410q0 227 164.5 408t420.5 181q90 0 149.5 -31.5t117.5 -107.5l34 115h529l-162 -610q-27 -102 -27 -109q0 -47 43 -47q25 0 52.5 30.5t53 78t32.5 53.5l77 -56q-176 -340 -479 -340q-106 0 -192 56.5t-86 165.5h-4q-61 -98 -155.5 -160t-201.5 -62 q-168 0 -267 127.5t-99 307.5zM487 305q0 -29 15.5 -48t38.5 -19q16 0 31.5 6t28.5 21.5t22.5 26.5t18.5 35.5t13 35t13.5 36t9.5 27.5q59 178 59 301q0 84 -61 84q-35 0 -68 -58.5t-73 -203.5q-48 -162 -48 -244zM629 1122l250 291q47 53 76.5 73.5t78.5 20.5 q57 0 90 -33.5t33 -91.5q0 -55 -78 -96l-315 -164h-135z" />
<glyph unicode="&#xe2;" horiz-adv-x="1478" d="M-57 410q0 227 164.5 408t420.5 181q90 0 149.5 -31.5t117.5 -107.5l34 115h529l-162 -610q-27 -102 -27 -109q0 -47 43 -47q25 0 52.5 30.5t53 78t32.5 53.5l77 -56q-176 -340 -479 -340q-106 0 -192 56.5t-86 165.5h-4q-61 -98 -155.5 -160t-201.5 -62 q-168 0 -267 127.5t-99 307.5zM426 1122l319 361h246l172 -361h-135l-197 176l-249 -176h-156zM487 305q0 -29 15.5 -48t38.5 -19q16 0 31.5 6t28.5 21.5t22.5 26.5t18.5 35.5t13 35t13.5 36t9.5 27.5q59 178 59 301q0 84 -61 84q-35 0 -68 -58.5t-73 -203.5 q-48 -162 -48 -244z" />
<glyph unicode="&#xe3;" horiz-adv-x="1478" d="M-57 410q0 227 164.5 408t420.5 181q90 0 149.5 -31.5t117.5 -107.5l34 115h529l-162 -610q-27 -102 -27 -109q0 -47 43 -47q25 0 52.5 30.5t53 78t32.5 53.5l77 -56q-176 -340 -479 -340q-106 0 -192 56.5t-86 165.5h-4q-61 -98 -155.5 -160t-201.5 -62 q-168 0 -267 127.5t-99 307.5zM420 1163q14 111 91 191t185 80q57 0 164 -41t146 -41q63 0 98 75q0 2 2 7h108q-23 -109 -93 -192t-173 -83q-70 0 -187.5 43t-152.5 43q-27 0 -53.5 -24.5t-34.5 -57.5h-100zM487 305q0 -29 15.5 -48t38.5 -19q16 0 31.5 6t28.5 21.5 t22.5 26.5t18.5 35.5t13 35t13.5 36t9.5 27.5q59 178 59 301q0 84 -61 84q-35 0 -68 -58.5t-73 -203.5q-48 -162 -48 -244z" />
<glyph unicode="&#xe4;" horiz-adv-x="1478" d="M-57 410q0 227 164.5 408t420.5 181q90 0 149.5 -31.5t117.5 -107.5l34 115h529l-162 -610q-27 -102 -27 -109q0 -47 43 -47q25 0 52.5 30.5t53 78t32.5 53.5l77 -56q-176 -340 -479 -340q-106 0 -192 56.5t-86 165.5h-4q-61 -98 -155.5 -160t-201.5 -62 q-168 0 -267 127.5t-99 307.5zM434 1294.5q0 67.5 47 115.5t117 48t117 -48t47 -115.5t-47 -116t-117 -48.5t-117 48.5t-47 116zM487 305q0 -29 15.5 -48t38.5 -19q16 0 31.5 6t28.5 21.5t22.5 26.5t18.5 35.5t13 35t13.5 36t9.5 27.5q59 178 59 301q0 84 -61 84 q-35 0 -68 -58.5t-73 -203.5q-48 -162 -48 -244zM885 1294.5q0 67.5 47 115.5t116.5 48t116.5 -48t47 -115.5t-47 -116t-116.5 -48.5t-116.5 48.5t-47 116z" />
<glyph unicode="&#xe5;" horiz-adv-x="1478" d="M-57 410q0 227 164.5 408t420.5 181q90 0 149.5 -31.5t117.5 -107.5l34 115h529l-162 -610q-27 -102 -27 -109q0 -47 43 -47q25 0 52.5 30.5t53 78t32.5 53.5l77 -56q-176 -340 -479 -340q-106 0 -192 56.5t-86 165.5h-4q-61 -98 -155.5 -160t-201.5 -62 q-168 0 -267 127.5t-99 307.5zM487 305q0 -29 15.5 -48t38.5 -19q16 0 31.5 6t28.5 21.5t22.5 26.5t18.5 35.5t13 35t13.5 36t9.5 27.5q59 178 59 301q0 84 -61 84q-35 0 -68 -58.5t-73 -203.5q-48 -162 -48 -244zM610 1343.5q0 92.5 62.5 157t154.5 64.5q90 0 156 -65.5 t66 -156.5q0 -92 -64.5 -154.5t-157 -62.5t-155 62.5t-62.5 155zM721 1346q0 -47 30.5 -78t77.5 -31q45 0 77 31.5t32 77t-32 77t-77 31.5t-76.5 -31.5t-31.5 -76.5z" />
<glyph unicode="&#xe6;" horiz-adv-x="1820" d="M-51 410q0 223 155.5 406t370.5 183q113 0 173.5 -25.5t119.5 -88.5l27 90h385l-19 -86h4q104 111 256 110q150 0 244 -69.5t94 -188.5q0 -96 -53 -164.5t-145.5 -104.5t-189.5 -52.5t-212 -18.5q-8 -39 -8 -90q0 -86 39 -141t123 -55q143 0 346 233l76 -74 q-115 -154 -258.5 -226.5t-335.5 -72.5q-352 0 -443 232q-145 -231 -383 -232q-168 0 -267 127.5t-99 307.5zM461 303q0 -88 55 -88q43 0 72.5 48t56.5 171q8 35 26.5 105.5t27 114.5t8.5 83q0 86 -64 86q-35 0 -56.5 -30.5t-43.5 -102.5q-82 -250 -82 -387zM1178 508 q100 10 185 107.5t85 203.5q0 33 -19.5 53.5t-48.5 20.5q-124 0 -202 -385z" />
<glyph unicode="&#xe7;" horiz-adv-x="1251" d="M0 432q0 250 205 408.5t512 158.5q72 0 139.5 -14t131 -44t102 -87t38.5 -133q0 -98 -53 -153.5t-147 -55.5q-84 0 -136.5 57.5t-52.5 137.5q0 55 23.5 95t46 57.5t22.5 19.5q0 14 -43 14q-66 0 -121 -78t-83.5 -186.5t-44 -199.5t-15.5 -140q0 -70 37 -116t105 -46 q158 0 317 231l96 -67q-96 -143 -212.5 -220t-274.5 -91l-90 -111q8 0 37.5 4t44.5 4q80 0 132 -44t52 -103q0 -84 -82 -136.5t-203 -52.5q-137 0 -239 64l47 69q90 -39 147 -39q109 0 109 82q0 66 -86 66q-39 0 -64 -8l-37 37l125 163q-190 6 -337.5 128t-147.5 329z" />
<glyph unicode="&#xe8;" horiz-adv-x="1251" d="M-8 432q0 246 219 406.5t518 160.5q201 0 308.5 -68.5t107.5 -189.5q0 -328 -621 -340q-8 -39 -8 -90q0 -86 41 -141t125 -55q160 0 362 233l76 -74q-115 -154 -260 -226.5t-350 -72.5q-129 0 -243.5 49.5t-194.5 156t-80 251.5zM440 1399q0 43 33 75.5t88 32.5 q80 0 160 -112l194 -273h-127l-264 160q-84 51 -84 117zM543 508q100 10 179 108.5t79 219.5q0 57 -57.5 57t-114.5 -109.5t-86 -275.5z" />
<glyph unicode="&#xe9;" horiz-adv-x="1251" d="M-8 432q0 246 219 406.5t518 160.5q201 0 308.5 -68.5t107.5 -189.5q0 -328 -621 -340q-8 -39 -8 -90q0 -86 41 -141t125 -55q160 0 362 233l76 -74q-115 -154 -260 -226.5t-350 -72.5q-129 0 -243.5 49.5t-194.5 156t-80 251.5zM539 1122l249 291q47 53 77 73.5t79 20.5 q57 0 90 -33.5t33 -91.5q0 -55 -78 -96l-315 -164h-135zM543 508q100 10 179 108.5t79 219.5q0 57 -57.5 57t-114.5 -109.5t-86 -275.5z" />
<glyph unicode="&#xea;" horiz-adv-x="1251" d="M-8 432q0 246 219 406.5t518 160.5q201 0 308.5 -68.5t107.5 -189.5q0 -328 -621 -340q-8 -39 -8 -90q0 -86 41 -141t125 -55q160 0 362 233l76 -74q-115 -154 -260 -226.5t-350 -72.5q-129 0 -243.5 49.5t-194.5 156t-80 251.5zM336 1122l319 361h246l172 -361h-135 l-197 176l-249 -176h-156zM543 508q100 10 179 108.5t79 219.5q0 57 -57.5 57t-114.5 -109.5t-86 -275.5z" />
<glyph unicode="&#xeb;" horiz-adv-x="1251" d="M-8 432q0 246 219 406.5t518 160.5q201 0 308.5 -68.5t107.5 -189.5q0 -328 -621 -340q-8 -39 -8 -90q0 -86 41 -141t125 -55q160 0 362 233l76 -74q-115 -154 -260 -226.5t-350 -72.5q-129 0 -243.5 49.5t-194.5 156t-80 251.5zM344 1294.5q0 67.5 47 115.5t117 48 t117 -48t47 -115.5t-47 -116t-117 -48.5t-117 48.5t-47 116zM543 508q100 10 179 108.5t79 219.5q0 57 -57.5 57t-114.5 -109.5t-86 -275.5zM795 1294.5q0 67.5 47 115.5t116.5 48t116.5 -48t47 -115.5t-47 -116t-116.5 -48.5t-116.5 48.5t-47 116z" />
<glyph unicode="&#xec;" horiz-adv-x="909" d="M0 860l23 98l731 17l-176 -672q-16 -61 -16.5 -92t34.5 -31q31 0 76 55.5t71 104.5l84 -57q-176 -307 -487 -308q-135 0 -219 70t-84 197q0 61 61.5 286.5t61.5 251.5q0 43 -36 61.5t-124 18.5zM246 1399q0 43 32.5 75.5t88.5 32.5q80 0 159 -112l195 -273h-127l-264 160 q-84 51 -84 117z" />
<glyph unicode="&#xed;" horiz-adv-x="909" d="M0 860l23 98l731 17l-176 -672q-16 -61 -16.5 -92t34.5 -31q31 0 76 55.5t71 104.5l84 -57q-176 -307 -487 -308q-135 0 -219 70t-84 197q0 61 61.5 286.5t61.5 251.5q0 43 -36 61.5t-124 18.5zM344 1122l250 291q47 53 76.5 73.5t79.5 20.5q57 0 89.5 -33.5t32.5 -91.5 q0 -55 -77 -96l-316 -164h-135z" />
<glyph unicode="&#xee;" horiz-adv-x="909" d="M0 860l23 98l731 17l-176 -672q-16 -61 -16.5 -92t34.5 -31q31 0 76 55.5t71 104.5l84 -57q-176 -307 -487 -308q-135 0 -219 70t-84 197q0 61 61.5 286.5t61.5 251.5q0 43 -36 61.5t-124 18.5zM141 1122l320 361h246l172 -361h-136l-196 176l-250 -176h-156z" />
<glyph unicode="&#xef;" horiz-adv-x="909" d="M0 860l23 98l731 17l-176 -672q-16 -61 -16.5 -92t34.5 -31q31 0 76 55.5t71 104.5l84 -57q-176 -307 -487 -308q-135 0 -219 70t-84 197q0 61 61.5 286.5t61.5 251.5q0 43 -36 61.5t-124 18.5zM150 1294.5q0 67.5 47 115.5t116.5 48t116.5 -48t47 -115.5t-47 -116 t-116.5 -48.5t-116.5 48.5t-47 116zM600 1294.5q0 67.5 47 115.5t117 48t117 -48t47 -115.5t-47 -116t-117 -48.5t-117 48.5t-47 116z" />
<glyph unicode="&#xf0;" horiz-adv-x="1366" d="M-23 414q0 240 202 392t503 152q55 0 106 -6q0 166 -67 246l-225 -96l-119 90l221 96q-76 33 -238 47l37 99q236 0 408 -58l223 94l117 -90l-184 -80q303 -184 303 -649q0 -326 -196 -501t-525 -175q-238 0 -402 115t-164 324zM465 158q0 -76 61 -76q43 0 77 62.5 t81 236.5q76 270 76 385q0 86 -58 86q-47 0 -84.5 -79t-78.5 -234q-74 -281 -74 -381z" />
<glyph unicode="&#xf1;" d="M-16 0l168 639q31 119 30 141q0 43 -35.5 61.5t-119.5 18.5l22 98l694 17l-32 -156l4 -4q215 184 395 184q123 0 198.5 -62.5t75.5 -178.5q0 -72 -58 -281t-58 -231q0 -45 32 -45q12 0 25.5 9t30 26.5t29 35t33 45t32.5 43.5l74 -57q-199 -328 -518 -328 q-104 0 -183.5 53.5t-79.5 164.5q0 78 58.5 287.5t58.5 232.5q0 41 -39 41q-29 0 -79 -40t-68 -69l-166 -645h-524zM489 1163q14 111 91 191t186 80q57 0 163.5 -41t145.5 -41q63 0 99 75q0 2 2 7h108q-23 -109 -93.5 -192t-172.5 -83q-70 0 -187.5 43t-152.5 43 q-27 0 -53.5 -24.5t-34.5 -57.5h-101z" />
<glyph unicode="&#xf2;" horiz-adv-x="1366" d="M-43 432q0 250 205 408.5t512 158.5q242 0 407.5 -119.5t165.5 -336.5q0 -250 -204.5 -409t-512.5 -159q-242 0 -407.5 120t-165.5 337zM453 162q0 -80 61 -80q45 0 79 66.5t83 248.5q76 281 76 402q0 94 -58 94q-49 0 -88 -85t-80 -247q-73 -278 -73 -399zM473 1399 q0 43 33 75.5t88 32.5q80 0 160 -112l194 -273h-127l-264 160q-84 51 -84 117z" />
<glyph unicode="&#xf3;" horiz-adv-x="1366" d="M-43 432q0 250 205 408.5t512 158.5q242 0 407.5 -119.5t165.5 -336.5q0 -250 -204.5 -409t-512.5 -159q-242 0 -407.5 120t-165.5 337zM453 162q0 -80 61 -80q45 0 79 66.5t83 248.5q76 281 76 402q0 94 -58 94q-49 0 -88 -85t-80 -247q-73 -278 -73 -399zM571 1122 l250 291q47 53 77 73.5t79 20.5q57 0 90 -33.5t33 -91.5q0 -55 -78 -96l-315 -164h-136z" />
<glyph unicode="&#xf4;" horiz-adv-x="1366" d="M-43 432q0 250 205 408.5t512 158.5q242 0 407.5 -119.5t165.5 -336.5q0 -250 -204.5 -409t-512.5 -159q-242 0 -407.5 120t-165.5 337zM369 1122l319 361h246l172 -361h-135l-197 176l-250 -176h-155zM453 162q0 -80 61 -80q45 0 79 66.5t83 248.5q76 281 76 402 q0 94 -58 94q-49 0 -88 -85t-80 -247q-73 -278 -73 -399z" />
<glyph unicode="&#xf5;" horiz-adv-x="1366" d="M-43 432q0 250 205 408.5t512 158.5q242 0 407.5 -119.5t165.5 -336.5q0 -250 -204.5 -409t-512.5 -159q-242 0 -407.5 120t-165.5 337zM362 1163q14 111 91 191t186 80q57 0 163.5 -41t145.5 -41q63 0 99 75q0 2 2 7h108q-23 -109 -93.5 -192t-172.5 -83 q-70 0 -187.5 43t-152.5 43q-27 0 -53.5 -24.5t-34.5 -57.5h-101zM453 162q0 -80 61 -80q45 0 79 66.5t83 248.5q76 281 76 402q0 94 -58 94q-49 0 -88 -85t-80 -247q-73 -278 -73 -399z" />
<glyph unicode="&#xf6;" horiz-adv-x="1366" d="M-43 432q0 250 205 408.5t512 158.5q242 0 407.5 -119.5t165.5 -336.5q0 -250 -204.5 -409t-512.5 -159q-242 0 -407.5 120t-165.5 337zM377 1294.5q0 67.5 47 115.5t116.5 48t117 -48t47.5 -115.5t-47.5 -116t-117 -48.5t-116.5 48.5t-47 116zM453 162q0 -80 61 -80 q45 0 79 66.5t83 248.5q76 281 76 402q0 94 -58 94q-49 0 -88 -85t-80 -247q-73 -278 -73 -399zM827 1294.5q0 67.5 47.5 115.5t117 48t116.5 -48t47 -115.5t-47 -116t-116.5 -48.5t-117 48.5t-47.5 116z" />
<glyph unicode="&#xf7;" horiz-adv-x="1228" d="M49 371v229h975v-229h-975zM356 86q0 74 53.5 126t125 52t125 -52t53.5 -126q0 -68 -54.5 -123t-121.5 -55q-74 0 -127.5 53t-53.5 125zM356 885q0 74 53.5 126t125 52t125 -53.5t53.5 -124.5q0 -68 -54.5 -123t-121.5 -55q-74 0 -127.5 53t-53.5 125z" />
<glyph unicode="&#xf8;" horiz-adv-x="1366" d="M-43 432q0 250 205 408.5t512 158.5q104 0 194 -24l121 164h158l-154 -209q119 -55 186.5 -153.5t67.5 -233.5q0 -250 -204.5 -409t-512.5 -159q-117 0 -208 29l-121 -164h-156l154 209q-242 123 -242 383zM453 162q0 -80 61 -80q31 0 55.5 28.5t50 102.5t41 131 t46.5 184q10 45 16 68l-4 4l-260 -385q-6 -24 -6 -53zM492 416l4 -4l254 370q2 8 2 17q0 94 -58 94q-31 0 -57.5 -29.5t-53 -109.5t-37.5 -123t-42 -166z" />
<glyph unicode="&#xf9;" d="M0 860l23 98l741 17l-152 -533q-25 -84 -24 -116q0 -23 14 -39.5t37 -16.5q94 0 158 238l125 467h542l-164 -606q-29 -111 -28 -136q0 -33 33 -32q25 0 51 24.5t62 74.5t42 56l88 -49q-176 -332 -504 -332q-117 0 -199.5 59.5t-92.5 178.5q-123 -125 -229.5 -181.5 t-260.5 -56.5q-109 0 -176.5 64.5t-67.5 169.5q0 84 66 308t66 263q0 43 -35 61.5t-115 18.5zM600 1399q0 43 33 75.5t88 32.5q80 0 160 -112l194 -273h-127l-264 160q-84 51 -84 117z" />
<glyph unicode="&#xfa;" d="M0 860l23 98l741 17l-152 -533q-25 -84 -24 -116q0 -23 14 -39.5t37 -16.5q94 0 158 238l125 467h542l-164 -606q-29 -111 -28 -136q0 -33 33 -32q25 0 51 24.5t62 74.5t42 56l88 -49q-176 -332 -504 -332q-117 0 -199.5 59.5t-92.5 178.5q-123 -125 -229.5 -181.5 t-260.5 -56.5q-109 0 -176.5 64.5t-67.5 169.5q0 84 66 308t66 263q0 43 -35 61.5t-115 18.5zM698 1122l250 291q47 53 77 73.5t79 20.5q57 0 90 -33.5t33 -91.5q0 -55 -78 -96l-315 -164h-136z" />
<glyph unicode="&#xfb;" d="M0 860l23 98l741 17l-152 -533q-25 -84 -24 -116q0 -23 14 -39.5t37 -16.5q94 0 158 238l125 467h542l-164 -606q-29 -111 -28 -136q0 -33 33 -32q25 0 51 24.5t62 74.5t42 56l88 -49q-176 -332 -504 -332q-117 0 -199.5 59.5t-92.5 178.5q-123 -125 -229.5 -181.5 t-260.5 -56.5q-109 0 -176.5 64.5t-67.5 169.5q0 84 66 308t66 263q0 43 -35 61.5t-115 18.5zM496 1122l319 361h246l172 -361h-135l-197 176l-250 -176h-155z" />
<glyph unicode="&#xfc;" d="M0 860l23 98l741 17l-152 -533q-25 -84 -24 -116q0 -23 14 -39.5t37 -16.5q94 0 158 238l125 467h542l-164 -606q-29 -111 -28 -136q0 -33 33 -32q25 0 51 24.5t62 74.5t42 56l88 -49q-176 -332 -504 -332q-117 0 -199.5 59.5t-92.5 178.5q-123 -125 -229.5 -181.5 t-260.5 -56.5q-109 0 -176.5 64.5t-67.5 169.5q0 84 66 308t66 263q0 43 -35 61.5t-115 18.5zM504 1294.5q0 67.5 47 115.5t116.5 48t116.5 -48t47 -115.5t-47 -116t-116.5 -48.5t-116.5 48.5t-47 116zM954 1294.5q0 67.5 47.5 115.5t117 48t116.5 -48t47 -115.5t-47 -116 t-116.5 -48.5t-117 48.5t-47.5 116z" />
<glyph unicode="&#xfd;" horiz-adv-x="1478" d="M-111 -221q0 63 49.5 113.5t133.5 50.5q92 0 147 -47.5t55 -131.5q0 -57 -45 -110q61 -10 86 -10q102 0 173 53t96 151l67 277l-4 4q-168 -154 -375 -154q-115 0 -193.5 60.5t-78.5 171.5q0 94 60.5 315t60.5 258q0 80 -144 80l23 98l715 17l-162 -617q-20 -78 -21 -102 q0 -43 37 -43q106 0 148 160l157 602h537l-242 -912q-74 -272 -293 -403t-552 -131q-205 0 -320 62.5t-115 187.5zM629 1122l250 291q47 53 76.5 73.5t78.5 20.5q57 0 90 -33.5t33 -91.5q0 -55 -78 -96l-315 -164h-135z" />
<glyph unicode="&#xfe;" horiz-adv-x="1478" d="M-344 -446l29 114q127 0 168 22.5t55 82.5l330 1296q20 76 20 137q0 45 -36 66.5t-132 21.5l23 99l727 16l-138 -549l5 -4q135 143 303 143q154 0 252 -110.5t98 -284.5q0 -233 -186.5 -431t-411.5 -198q-162 0 -250 91l-53 -199q-20 -72 -20.5 -119t42.5 -63.5 t142 -16.5l-27 -114h-940zM557 209q0 -33 16.5 -53.5t42.5 -20.5q33 0 55.5 21.5t52.5 98.5t67 224q45 184 45 221q0 74 -56 74q-96 0 -182 -373q-41 -169 -41 -192z" />
<glyph unicode="&#xff;" horiz-adv-x="1478" d="M-111 -221q0 63 49.5 113.5t133.5 50.5q92 0 147 -47.5t55 -131.5q0 -57 -45 -110q61 -10 86 -10q102 0 173 53t96 151l67 277l-4 4q-168 -154 -375 -154q-115 0 -193.5 60.5t-78.5 171.5q0 94 60.5 315t60.5 258q0 80 -144 80l23 98l715 17l-162 -617q-20 -78 -21 -102 q0 -43 37 -43q106 0 148 160l157 602h537l-242 -912q-74 -272 -293 -403t-552 -131q-205 0 -320 62.5t-115 187.5zM434 1294.5q0 67.5 47 115.5t117 48t117 -48t47 -115.5t-47 -116t-117 -48.5t-117 48.5t-47 116zM885 1294.5q0 67.5 47 115.5t116.5 48t116.5 -48t47 -115.5 t-47 -116t-116.5 -48.5t-116.5 48.5t-47 116z" />
<glyph unicode="&#x152;" horiz-adv-x="2048" d="M-37 618q0 330 238.5 573t564.5 243q80 0 166 -13q90 -12 117 -12h995l-74 -479h-119q-4 365 -243 364q-59 0 -88 -28.5t-43 -89.5l-95 -369q104 6 151.5 52t82.5 149h131l-145 -549h-125q2 25 2 69q0 147 -129 148l-101 -389q-18 -66 -18 -103q0 -31 22.5 -50t55.5 -19 q74 0 140.5 26.5t113.5 63.5t95 99.5t77.5 112.5t66.5 124l121 -29l-151 -512h-971q-6 0 -96 -12q-86 -12 -160 -13q-254 0 -418 182t-164 461zM459 244q0 -80 24.5 -109t67.5 -29q68 0 105.5 79t95.5 292q154 565 153 721q0 121 -96 121q-55 0 -98 -81t-107 -314 q-45 -168 -95 -400.5t-50 -279.5z" />
<glyph unicode="&#x153;" horiz-adv-x="1820" d="M-43 432q0 248 196.5 407.5t467.5 159.5q104 0 176.5 -21.5t160.5 -78.5q123 57 214.5 78.5t220.5 21.5q158 0 252 -69.5t94 -190.5q0 -96 -52.5 -164.5t-145.5 -102.5t-183 -49t-207 -22q-8 -57 -8 -90q0 -84 37 -140t104 -56q92 0 178 64.5t176 168.5l76 -74 q-223 -299 -538 -299q-162 0 -318 105q-201 -104 -373 -105q-211 0 -369.5 121t-158.5 336zM432 170q0 -88 55 -88q45 0 79 78t83 307q47 215 47 352q0 74 -47 74t-73.5 -60.5t-71.5 -240.5q-72 -287 -72 -422zM1165 508q100 10 179 108.5t79 219.5q0 57 -57 57 t-114.5 -109.5t-86.5 -275.5z" />
<glyph unicode="&#x178;" d="M29 0l26 115q162 10 208 34.5t69 122.5l88 381l-160 539q-18 59 -60 80.5t-128 21.5l28 115h936l-28 -115q-92 0 -129 -21.5t-37 -88.5q0 -51 47 -206t55 -190q170 217 233.5 309.5t63.5 135.5q0 37 -30.5 49t-114.5 12l28 115h543l-33 -115q-121 4 -194 -90l-439 -563 l-86 -342q-14 -53 -14 -88q0 -49 39 -72.5t141 -23.5l-26 -115h-1026zM623 1658.5q0 67.5 47 116t116.5 48.5t116.5 -48.5t47 -116t-47 -115.5t-116.5 -48t-116.5 48t-47 115.5zM1073 1658.5q0 67.5 47 116t117 48.5t117 -48.5t47 -116t-47 -115.5t-117 -48t-117 48 t-47 115.5z" />
<glyph unicode="&#x2c6;" horiz-adv-x="681" d="M27 1122l319 361h246l172 -361h-135l-197 176l-250 -176h-155z" />
<glyph unicode="&#x2dc;" horiz-adv-x="681" d="M20 1163q14 111 91 191t186 80q59 0 163.5 -41t145.5 -41q63 0 99 75v3l2 4h108q-23 -109 -93.5 -192t-172.5 -83q-70 0 -187.5 43t-152.5 43q-27 0 -53.5 -24.5t-34.5 -57.5h-101z" />
<glyph unicode="&#x2000;" horiz-adv-x="964" />
<glyph unicode="&#x2001;" horiz-adv-x="1929" />
<glyph unicode="&#x2002;" horiz-adv-x="964" />
<glyph unicode="&#x2003;" horiz-adv-x="1929" />
<glyph unicode="&#x2004;" horiz-adv-x="643" />
<glyph unicode="&#x2005;" horiz-adv-x="481" />
<glyph unicode="&#x2006;" horiz-adv-x="321" />
<glyph unicode="&#x2007;" horiz-adv-x="321" />
<glyph unicode="&#x2008;" horiz-adv-x="239" />
<glyph unicode="&#x2009;" horiz-adv-x="385" />
<glyph unicode="&#x200a;" horiz-adv-x="106" />
<glyph unicode="&#x2010;" horiz-adv-x="796" d="M-45 328l86 319h598l-86 -319h-598z" />
<glyph unicode="&#x2011;" horiz-adv-x="796" d="M-45 328l86 319h598l-86 -319h-598z" />
<glyph unicode="&#x2012;" horiz-adv-x="796" d="M-45 328l86 319h598l-86 -319h-598z" />
<glyph unicode="&#x2013;" horiz-adv-x="1024" d="M-135 362l69 250h1024l-69 -250h-1024z" />
<glyph unicode="&#x2014;" horiz-adv-x="2048" d="M-139 362l69 250h2048l-69 -250h-2048z" />
<glyph unicode="&#x2018;" horiz-adv-x="681" d="M88 866q0 72 36 146.5t80 130t124 123t126 101.5t130 91l78 -102q-229 -180 -304 -287q96 -8 154.5 -69.5t58.5 -159.5q0 -115 -71.5 -178.5t-171.5 -63.5q-111 0 -175.5 74.5t-64.5 193.5z" />
<glyph unicode="&#x2019;" horiz-adv-x="681" d="M66 676q229 180 303 287q-96 8 -154.5 69.5t-58.5 159.5q0 115 71.5 178.5t171.5 63.5q111 0 175.5 -75t64.5 -194q0 -72 -36 -146.5t-80 -129.5t-124 -123t-126 -101.5t-130 -91.5z" />
<glyph unicode="&#x201a;" horiz-adv-x="681" d="M-98 -291q229 180 303 287q-96 8 -154.5 69.5t-58.5 159.5q0 115 71.5 178.5t172.5 63.5q111 0 175 -75t64 -193q0 -72 -36 -147t-80 -130t-123.5 -122.5t-126 -101.5t-129.5 -91z" />
<glyph unicode="&#x201c;" horiz-adv-x="1366" d="M109 866q0 72 35.5 146.5t79.5 130t124 123t126 101.5t130 91l78 -102q-229 -180 -303 -287q96 -8 154.5 -69.5t58.5 -159.5q0 -115 -71.5 -178.5t-172.5 -63.5q-111 0 -175 74.5t-64 193.5zM754 866q0 72 35.5 146.5t79.5 130t124 123t126 101.5t130 91l78 -102 q-229 -180 -303 -287q96 -8 154.5 -69.5t58.5 -159.5q0 -115 -71.5 -178.5t-172.5 -63.5q-111 0 -175 74.5t-64 193.5z" />
<glyph unicode="&#x201d;" horiz-adv-x="1366" d="M82 676q229 180 303 287q-96 8 -154.5 69.5t-58.5 159.5q0 115 71.5 178.5t172.5 63.5q111 0 175 -75t64 -194q0 -72 -35.5 -146.5t-79.5 -129.5t-124 -123t-126 -101.5t-130 -91.5zM727 676q229 180 303 287q-96 8 -154.5 69.5t-58.5 159.5q0 115 72 178.5t172 63.5 q111 0 175 -75t64 -194q0 -72 -35.5 -146.5t-79.5 -129.5t-124 -123t-126 -101.5t-130 -91.5z" />
<glyph unicode="&#x201e;" horiz-adv-x="1366" d="M-98 -291q229 180 303 287q-96 8 -154.5 69.5t-58.5 159.5q0 115 71.5 178.5t172.5 63.5q111 0 175 -75t64 -193q0 -72 -36 -147t-80 -130t-123.5 -122.5t-126 -101.5t-129.5 -91zM547 -291q229 180 303 287q-96 8 -154.5 69.5t-58.5 159.5q0 115 71.5 178.5t172.5 63.5 q111 0 175 -75t64 -193q0 -72 -35.5 -147t-79.5 -130t-124 -122.5t-126 -101.5t-130 -91z" />
<glyph unicode="&#x2022;" horiz-adv-x="1024" d="M98 704.5q0 145.5 102.5 249t250 103.5t250 -103.5t102.5 -249t-102.5 -249t-250 -103.5t-250 103.5t-102.5 249z" />
<glyph unicode="&#x2026;" horiz-adv-x="2048" d="M-72 217q0 98 66.5 170t163 72t163 -72t66.5 -170t-66.5 -170t-163 -72t-163 72t-66.5 170zM610 217q0 98 66.5 170t163 72t163 -72t66.5 -170t-66.5 -170t-163 -72t-163 72t-66.5 170zM1292 217q0 98 66.5 170t163 72t163 -72t66.5 -170t-66.5 -170t-163 -72t-163 72 t-66.5 170z" />
<glyph unicode="&#x202f;" horiz-adv-x="385" />
<glyph unicode="&#x2039;" horiz-adv-x="681" d="M-43 463v31q158 109 288 210t177 138t65 37q35 0 35 -37q0 -14 -24.5 -50t-67.5 -86.5t-78 -90.5t-81 -89t-50 -55q154 -258 154 -338q0 -37 -35 -37q-16 0 -75.5 60.5t-152 156t-155.5 150.5z" />
<glyph unicode="&#x203a;" horiz-adv-x="681" d="M-2 100q0 14 24.5 50t67.5 86.5t78 90.5t81 89t50 55q-154 258 -154 338q0 37 35 37q16 0 75.5 -60.5t152 -155.5t155.5 -151v-30q-158 -109 -288 -210.5t-177 -138.5t-65 -37q-35 0 -35 37z" />
<glyph unicode="&#x205f;" horiz-adv-x="481" />
<glyph unicode="&#x20ac;" horiz-adv-x="1366" d="M-61 539l32 114h140q6 78 20 135h-158l33 115h158q49 137 135 243.5t184.5 165t191.5 88.5t175 30q96 0 176 -25t124 -49.5t52 -24.5q45 0 78 78h115l-84 -420h-111q-55 313 -221 313.5t-281 -399.5h365l-31 -115h-362q-18 -80 -29 -135h363l-31 -114h-350 q-14 -102 -15 -183q0 -111 44 -176t124 -65q125 0 207 87t150 242l96 -47q-88 -227 -224.5 -324.5t-345.5 -97.5q-223 0 -389 173.5t-166 390.5h-165z" />
<glyph unicode="&#x2122;" horiz-adv-x="2048" d="M12 1253v181h787v-181h-58q-23 123 -127 123h-84v-651q0 -33 20.5 -46t84.5 -15v-58h-459v58q63 2 84 15t21 46v651h-84q-104 0 -127 -123h-58zM874 1376v58h334l260 -539l283 539h285v-58q-63 -2 -84 -15t-21 -46v-590q0 -33 20.5 -46t84.5 -15v-58h-459v58 q63 2 83.5 15t20.5 46v444h-4l-286 -561h-33l-262 561h-4v-391q0 -70 21.5 -91t82.5 -23v-58h-276v58q61 2 81.5 23.5t20.5 90.5v488q-52 110 -148 110z" />
<glyph unicode="&#xe000;" horiz-adv-x="975" d="M0 975h975v-975h-975v975z" />
<glyph unicode="&#xfb01;" horiz-adv-x="1820" d="M-27 0l244 860h-211l29 115h209q78 211 267 335t402 124q307 0 308 -201q0 -82 -54.5 -128t-136.5 -46q-61 0 -109.5 41t-48.5 100q0 90 72 121v4q-6 0 -14 1t-15 1q-51 0 -102 -54t-51 -163q0 -82 12 -135h926l-180 -672q-16 -61 -16.5 -92t34.5 -31q31 0 76 55.5 t72 104.5l83 -57q-176 -307 -487 -308q-139 0 -225 69t-86 198q0 76 65.5 301t65.5 252q0 33 -22.5 49t-55.5 16h-270l-228 -860h-553zM1249 1241q0 88 85 140.5t179 52.5q92 0 176.5 -53.5t84.5 -139.5q0 -88 -84 -140t-177 -52q-96 0 -180 51t-84 141z" />
<glyph unicode="&#xfb02;" horiz-adv-x="1820" d="M-27 0l238 860h-217l29 115h221q78 213 261 336t388 123h928l-299 -1137q-23 -90 -23 -94q0 -43 41 -43q14 0 31.5 11t36 33.5t30 38t30 45t20.5 31.5l92 -45q-82 -154 -192.5 -226.5t-278.5 -72.5q-141 0 -237.5 81t-96.5 218q0 72 47 246l94 340h-366l-224 -860h-553z M762 1073q0 -82 6 -98h379q55 193 55 242q0 61 -41 85.5t-143 24.5q-125 0 -190.5 -64.5t-65.5 -189.5z" />
<glyph unicode="&#xfb03;" horiz-adv-x="2957" d="M2048 860l23 98l731 17l-176 -672q-16 -61 -16.5 -92t34.5 -31q31 0 76 55.5t71 104.5l84 -57q-176 -307 -487 -308q-135 0 -219 70t-84 197q0 61 61.5 286.5t61.5 251.5q0 43 -36 61.5t-124 18.5zM2314 1229q0 86 79 145.5t183.5 59.5t183.5 -59.5t79 -145.5t-79 -145.5 t-183.5 -59.5t-183.5 59.5t-79 145.5zM1014 0l235 860h-215l29 115h221q78 213 265.5 336t408.5 123q352 0 352 -250q0 -74 -50 -119t-122 -45q-70 0 -117 43t-47 106q0 115 78 148v4q-20 6 -45 6q-53 0 -111.5 -84t-85.5 -268h240l-29 -115h-235l-219 -860h-553zM-10 0 l235 860h-215l29 115h221q78 213 265.5 336t408.5 123q352 0 352 -250q0 -74 -50 -119t-122 -45q-70 0 -117 43t-47 106q0 115 78 148v4q-20 6 -45 6q-53 0 -111.5 -84t-85.5 -268h240l-29 -115h-235l-219 -860h-553z" />
<glyph unicode="&#xfb04;" horiz-adv-x="2957" d="M2077 242q0 63 32 190l181 686q16 72 16 96q0 43 -36 61.5t-124 18.5l23 99l737 16l-278 -1061q-4 -16 -13.5 -46t-15.5 -52.5t-6 -40.5q0 -45 41 -45q12 0 25.5 7t25.5 21.5t23.5 27.5t24.5 33.5t20.5 33t17.5 32t12 21.5l84 -57q-102 -178 -208.5 -243t-278.5 -65 q-135 0 -219 70t-84 197zM1014 0l235 860h-215l29 115h221q78 213 265.5 336t408.5 123q352 0 352 -250q0 -74 -50 -119t-122 -45q-70 0 -117 43t-47 106q0 115 78 148v4q-20 6 -45 6q-53 0 -111.5 -84t-85.5 -268h240l-29 -115h-235l-219 -860h-553zM-10 0l235 860h-215 l29 115h221q78 213 265.5 336t408.5 123q352 0 352 -250q0 -74 -50 -119t-122 -45q-70 0 -117 43t-47 106q0 115 78 148v4q-20 6 -45 6q-53 0 -111.5 -84t-85.5 -268h240l-29 -115h-235l-219 -860h-553z" />
</font>
</defs>
</svg>
