<?xml version="1.0" standalone="no"?>
<!DOCTYPE svg PUBLIC "-//W3C//DTD SVG 1.1//EN" "http://www.w3.org/Graphics/SVG/1.1/DTD/svg11.dtd" >
<svg xmlns="http://www.w3.org/2000/svg">
<metadata>
This is a custom SVG webfont generated by Font Squirrel.
Copyright   : Copyright  1990 2001 Adobe Systems Incorporated  All Rights Reserved
Designer    : Tony Stan
Foundry URL : httpwwwadobecomtype
</metadata>
<defs>
<font id="ITCCenturyStdLight" horiz-adv-x="1062" >
<font-face units-per-em="2048" ascent="1409" descent="-639" />
<missing-glyph horiz-adv-x="530" />
<glyph unicode=" "  horiz-adv-x="530" />
<glyph unicode="&#x09;" horiz-adv-x="530" />
<glyph unicode="&#xa0;" horiz-adv-x="530" />
<glyph unicode="!" horiz-adv-x="493" d="M143 86q0 41 31 71.5t72 30.5t71.5 -30.5t30.5 -71.5t-29.5 -71.5t-72.5 -30.5q-45 0 -74 28.5t-29 73.5zM164 1303q0 61 18.5 83.5t63.5 22.5t63.5 -22.5t18.5 -83.5q0 -127 -8.5 -276.5t-27 -378t-20.5 -259.5h-53q-2 31 -20.5 259.5t-26.5 378t-8 276.5z" />
<glyph unicode="&#x22;" horiz-adv-x="681" d="M137 1270q-12 164 63.5 164t63.5 -164l-33 -410q0 -2 -1 -12t-2 -16.5t-4 -15.5t-9 -13t-14 -4t-14.5 4t-9.5 13t-4 15.5t-2 16.5t-1 12zM418 1270q-12 164 63.5 164t63.5 -164l-33 -410q0 -2 -1 -12t-2 -16.5t-4 -15.5t-9.5 -13t-14.5 -4t-14 4t-9 13t-4 15.5t-2 16.5 t-1 12z" />
<glyph unicode="#" d="M20 463v86h246l45 328h-233v86h246l63 446h102l-65 -446h287l65 446h103l-60 -446h213v-86h-229l-45 -328h213v-86h-226l-67 -463h-103l66 463h-287l-65 -463h-103l68 463h-234zM367 549h286l45 328h-286z" />
<glyph unicode="$" d="M102 344q0 53 31 94t80 41q41 0 66.5 -28.5t25.5 -73.5q0 -94 -137 -94q16 -96 113.5 -150.5t201.5 -50.5v627q-158 39 -242.5 125t-84.5 196q0 141 88 234.5t239 115.5v197h62v-193q127 0 225 -59t98 -180q0 -49 -27.5 -84t-72.5 -35q-37 0 -62.5 24.5t-25.5 63.5 q0 45 21.5 68.5t54.5 23.5q27 0 39 -2q0 59 -78 94t-172 29v-502q84 -25 143.5 -52.5t119.5 -72.5t91 -112.5t31 -157.5q0 -162 -104.5 -270.5t-280.5 -130.5v-181h-62v177q-150 -4 -265.5 82.5t-115.5 236.5zM262 1087q0 -98 52.5 -150t168.5 -95v481q-90 -10 -155.5 -79 t-65.5 -157zM545 86q123 16 200.5 96t77.5 203q0 129 -71.5 198.5t-206.5 108.5v-606z" />
<glyph unicode="%" horiz-adv-x="1705" d="M90 983q0 184 82 292.5t207 108.5t207 -108.5t82 -292.5t-82 -292.5t-207 -108.5t-207 108.5t-82 292.5zM217 983.5q0 -192.5 36 -274.5t126 -82q92 0 127 82t35 274.5t-35 274t-127 81.5q-90 0 -126 -81.5t-36 -274zM285 -25l897 1434h96l-901 -1434h-92zM889 401.5 q0 184.5 82 293t207 108.5t206.5 -108.5t81.5 -293t-81.5 -293t-206.5 -108.5t-207 108.5t-82 293zM1016 401.5q0 -192.5 35.5 -274.5t126.5 -82q92 0 126.5 82t34.5 274.5t-34.5 274.5t-126.5 82q-90 0 -126 -82t-36 -274.5z" />
<glyph unicode="&#x26;" horiz-adv-x="1441" d="M68 342q0 76 27.5 138.5t84 111.5t104.5 78.5t126 70.5q-88 184 -88 312q0 154 93 255t255 101q133 0 220 -79t87 -191q0 -63 -22.5 -114.5t-74 -94.5t-88 -66.5t-111.5 -62.5t-99 -53q170 -301 362 -527q53 49 90 139.5t37 165.5q0 109 -43 144t-145 35v53h483v-58 q-119 0 -158 -34.5t-65 -171.5q-33 -164 -156 -316q39 -45 97.5 -81t111.5 -36q121 0 121 185v28h57v-49q0 -139 -63.5 -194.5t-186.5 -55.5q-125 0 -239 101q-121 -100 -348.5 -100.5t-348 102t-120.5 264.5zM231 377q0 -162 84 -253t236 -91q203 0 285 80 q-193 221 -402 573q-100 -57 -151.5 -130t-51.5 -179zM449 1133q0 -139 104 -332q72 35 106.5 54t92 60t84 92.5t26.5 112.5q0 98 -54 165t-155 67q-94 0 -149 -63.5t-55 -155.5z" />
<glyph unicode="'" horiz-adv-x="454" d="M164 1270q-12 164 63.5 164t63.5 -164l-33 -410q0 -2 -1 -12t-2 -16.5t-4 -15.5t-9 -13t-14.5 -4t-14.5 4t-9 13t-4 15.5t-2 16.5t-1 12z" />
<glyph unicode="(" horiz-adv-x="909" d="M209 530.5q0 163.5 42 320.5t122 288t209 212t286 83v-58q-229 0 -374.5 -237.5t-145.5 -608t145.5 -608t374.5 -237.5v-58q-158 2 -286.5 83t-208.5 212t-122 288t-42 320.5z" />
<glyph unicode=")" horiz-adv-x="909" d="M41 -315q229 0 374.5 237.5t145.5 608t-145.5 608t-374.5 237.5v58q158 -2 287 -83t208.5 -212t121.5 -288t42 -320.5t-42 -320.5t-121.5 -288t-208.5 -212t-287 -83v58z" />
<glyph unicode="*" horiz-adv-x="948" d="M100 840q0 43 31 63.5t75 25.5t110.5 26.5t119.5 58.5q-53 37 -119.5 57.5t-110.5 25.5t-75 25.5t-31 63.5q0 33 21.5 54.5t58.5 21.5q33 0 62.5 -32t83 -89.5t127.5 -98.5q2 131 -27 213t-29 97q0 33 26 57.5t52.5 24.5t51 -25t24.5 -57q0 -14 -28.5 -96t-28.5 -214 q74 41 127 98.5t82.5 89.5t62.5 32q37 0 58.5 -21.5t21.5 -54.5q0 -43 -31 -63.5t-75 -25.5t-110.5 -25.5t-119.5 -57.5q53 -37 119.5 -58.5t110.5 -26.5t75 -25.5t31 -63.5q0 -33 -21.5 -53.5t-58.5 -20.5q-33 0 -62.5 31.5t-83 89t-126.5 98.5q0 -131 28.5 -213t28.5 -98 q0 -33 -24.5 -56.5t-51 -23.5t-52.5 23.5t-26 56.5q0 25 14.5 57.5t28 94t13.5 159.5q-74 -41 -127.5 -98.5t-83 -89t-62.5 -31.5q-37 0 -58.5 20.5t-21.5 53.5z" />
<glyph unicode="+" horiz-adv-x="1228" d="M133 430v102h430v431h103v-431h430v-102h-430v-430h-103v430h-430z" />
<glyph unicode="," horiz-adv-x="530" d="M162 86q0 41 30.5 71.5t71.5 30.5q68 0 97.5 -58t29.5 -142q0 -211 -178 -373l-47 41q170 166 151 330q-14 -2 -53 -2q-45 0 -73.5 28.5t-28.5 73.5z" />
<glyph unicode="-" horiz-adv-x="681" d="M84 426v111h512v-111h-512z" />
<glyph unicode="." horiz-adv-x="530" d="M162 86q0 41 30.5 71.5t71.5 30.5q39 0 71 -30.5t32 -71.5t-30 -71.5t-73 -30.5q-45 0 -73.5 28.5t-28.5 73.5z" />
<glyph unicode="/" horiz-adv-x="569" d="M-29 -25l525 1459h102l-524 -1459h-103z" />
<glyph unicode="0" d="M88 704.5q0 333.5 125 531.5t317.5 198t317.5 -198t125 -531.5t-125 -531.5t-317.5 -198t-317.5 198t-125 531.5zM252 704.5q0 -362.5 60.5 -517t218 -154.5t218 154.5t60.5 517t-60.5 517t-218 154.5t-218 -154.5t-60.5 -517z" />
<glyph unicode="1" d="M199 0v57q156 0 213 32t57 104v970q0 41 -51 59.5t-180 18.5v57q139 0 214.5 25t110.5 86h53v-1216q0 -70 52.5 -103t185.5 -33v-57h-655z" />
<glyph unicode="2" d="M57 0v106q68 141 166.5 258t186.5 189t168.5 143.5t128 161.5t47.5 207q0 141 -76 226t-211 85q-117 0 -208 -75.5t-91 -176.5q0 -12 4 -32q12 6 35 6q55 0 83.5 -29t28.5 -78q0 -35 -29.5 -62.5t-74.5 -27.5q-53 0 -91 45t-38 123q0 158 111.5 261.5t281.5 103.5 q190 0 314.5 -111t124.5 -268q0 -115 -66 -211t-166 -172t-204.5 -151t-201 -177t-137.5 -217h389q344 0 345 326h65l-33 -453h-852z" />
<glyph unicode="3" d="M66 311q0 70 36.5 117t94.5 47q39 0 71.5 -27.5t32.5 -76.5q0 -41 -25.5 -69t-74.5 -28q-33 0 -66 27q-4 -16 -4 -49q0 -98 93 -158.5t192 -60.5q180 0 277.5 96t97.5 287q0 125 -82 211t-170 86q-16 0 -58.5 -4t-54.5 -4q-37 0 -37 32.5t33 32.5q18 0 60 -4t57 -4 q23 0 57.5 15.5t73.5 45t65.5 87t26.5 130.5q0 152 -69.5 244t-217.5 92q-86 0 -179 -54t-116 -161q14 2 47 2q47 0 74 -27.5t27 -72.5q0 -39 -29 -67.5t-76 -28.5q-49 0 -80.5 38.5t-31.5 94.5q0 127 100 230.5t301 103.5q176 0 295 -103.5t119 -257.5q0 -121 -82 -203 t-207 -122v-5q137 -31 227 -115.5t90 -217.5q0 -193 -145 -314t-356 -121q-172 0 -279.5 92t-107.5 244z" />
<glyph unicode="4" d="M53 383v76l658 950h75v-940h209v-86h-209v-184q0 -96 29 -119t133 -23v-57h-530v57q121 0 171 33t50 103v190h-586zM135 469h504v723h-4z" />
<glyph unicode="5" d="M88 301q0 63 39 114.5t100 51.5q45 0 76 -29.5t31 -79.5q0 -43 -29 -67.5t-67 -24.5q-49 0 -76 19q-8 -20 -8 -31q0 -82 76.5 -151.5t205.5 -69.5q188 0 289.5 114.5t101.5 294.5q0 184 -105.5 295t-227.5 111q-106 0 -195.5 -51.5t-89.5 -132.5q0 -53 -43 -54 q-31 0 -31 31q0 6 3 17.5t7.5 39t6.5 66.5q31 461 57 645q102 -33 194 -45q74 -10 164 -10q76 0 205 28q106 27 111 27q16 0 16 -14q0 -20 -34 -51t-87 -62t-135 -53.5t-166 -22.5q-61 0 -217 41l-41 -446q131 104 275 104q197 0 339 -124t142 -330q0 -203 -151.5 -339.5 t-381.5 -136.5q-156 0 -255 88t-99 238z" />
<glyph unicode="6" d="M90 627q0 207 56.5 385t183.5 300t305 122q111 0 180.5 -65.5t69.5 -151.5q0 -66 -33 -105t-94 -39q-45 0 -72 30t-27 73q0 45 28 71.5t71 26.5q23 0 49 -10q-4 51 -56.5 81.5t-121.5 30.5q-135 0 -223.5 -98t-120 -226t-31.5 -276v-71h4q100 188 299 188q170 0 292 -122 t122 -327q0 -188 -125 -328.5t-303 -140.5q-119 0 -211 62.5t-142.5 163t-75 209t-24.5 217.5zM254 446q0 -76 15.5 -145.5t46 -130.5t88 -99t133.5 -38q270 0 270 442q0 84 -22.5 161t-86 138.5t-159.5 61.5q-131 0 -208 -117t-77 -273z" />
<glyph unicode="7" d="M135 940q12 307 17 469h852v-106q-227 -260 -331 -516.5t-104 -454.5q0 -68 4.5 -155t4.5 -101q0 -100 -84 -101q-43 0 -74 44t-31 149q0 117 31 236.5t95.5 244.5t116.5 213t141 222.5t124 189.5h-408q-78 0 -133 -27.5t-89 -80t-51 -104.5t-32 -122h-49z" />
<glyph unicode="8" d="M72 336q0 143 95 229t253 146v4q-115 27 -203 110.5t-88 216.5q0 170 123 281t283 111q170 0 283.5 -95.5t113.5 -238.5q0 -102 -68.5 -176t-183.5 -142q309 -113 309 -397q0 -195 -138 -302.5t-366 -107.5q-168 0 -290.5 98.5t-122.5 262.5zM199 334q0 -133 83 -217 t216 -84q154 0 253 70.5t99 220.5q0 49 -8 90t-31 72.5t-41 52t-59 44t-62.5 34t-76 33t-76.5 32.5q-150 -57 -223.5 -131t-73.5 -217zM268 1102q0 -31 6.5 -57.5t22.5 -50t28.5 -41t42 -36t43 -27.5t51.5 -24.5t49 -20.5t53 -19.5t46 -16.5q195 100 195 264 q0 150 -81 226.5t-198 76.5q-106 0 -182 -71.5t-76 -202.5z" />
<glyph unicode="9" d="M90 950q0 201 120 342.5t314 141.5q197 0 323 -189.5t126 -462.5q0 -362 -140.5 -584.5t-404.5 -222.5q-117 0 -205 55.5t-88 168.5q0 57 32 102t87 45q47 0 79 -29.5t32 -76.5t-31 -73t-78 -26q-18 0 -43 9q25 -117 215 -117q195 0 288 169t93 460q0 31 -4 47 q-106 -188 -316 -189q-172 0 -285.5 132t-113.5 298zM254 971q0 -393 254 -393q141 0 219 112.5t78 263.5q0 186 -69.5 304t-213.5 118q-129 0 -198.5 -101t-69.5 -304z" />
<glyph unicode=":" horiz-adv-x="530" d="M162 86q0 41 30.5 71.5t71.5 30.5q39 0 71 -30.5t32 -71.5t-30 -71.5t-73 -30.5q-45 0 -73.5 28.5t-28.5 73.5zM162 807q0 41 30.5 71.5t71.5 30.5q39 0 71 -30.5t32 -71.5t-30 -71.5t-73 -30.5q-45 0 -73.5 28.5t-28.5 73.5z" />
<glyph unicode=";" horiz-adv-x="530" d="M162 86q0 41 30.5 71.5t71.5 30.5q68 0 97.5 -58t29.5 -142q0 -211 -178 -373l-47 41q170 166 151 330q-14 -2 -53 -2q-45 0 -73.5 28.5t-28.5 73.5zM162 807q0 41 30.5 71.5t71.5 30.5q39 0 71 -30.5t32 -71.5t-30 -71.5t-73 -30.5q-45 0 -73.5 28.5t-28.5 73.5z" />
<glyph unicode="&#x3c;" horiz-adv-x="1228" d="M133 432v98l963 433v-101l-893 -381l893 -381v-100z" />
<glyph unicode="=" horiz-adv-x="1228" d="M133 233v103h963v-103h-963zM133 631v102h963v-102h-963z" />
<glyph unicode="&#x3e;" horiz-adv-x="1228" d="M133 0v100l893 381l-893 381v101l963 -433v-98z" />
<glyph unicode="?" horiz-adv-x="909" d="M94 1110q0 129 101.5 214t236.5 85q152 0 259.5 -87t107.5 -237q0 -76 -28 -134t-68.5 -93t-90 -72.5t-90.5 -72.5t-68.5 -93.5t-27.5 -132.5v-86h-57v172q0 47 29.5 94.5t72.5 90.5t86 87t72.5 102.5t29.5 119.5q0 119 -71.5 202t-184.5 83q-100 0 -171.5 -59.5 t-75.5 -157.5q29 8 49 8q41 0 67.5 -29t26.5 -67q0 -37 -27.5 -63t-60.5 -26q-51 0 -84 42t-33 110zM303 86q0 41 31 71.5t71.5 30.5t71.5 -30.5t31 -71.5t-29.5 -71.5t-72.5 -30.5q-45 0 -74 28.5t-29 73.5z" />
<glyph unicode="@" horiz-adv-x="1638" d="M72 672q0 334 229 548t555 214q299 0 505 -178.5t206 -444.5q0 -180 -113 -340t-291 -160q-80 0 -132 47.5t-58 98.5h-6q-33 -47 -100.5 -96.5t-151.5 -49.5q-90 0 -147.5 62.5t-57.5 195.5q0 186 131 348t279 162q119 0 172 -114l24 86h141l-122 -469q-23 -86 -23 -115 q0 -86 84 -86q139 0 222 135t83 293q0 94 -44 193.5t-123 185.5t-204.5 141t-273.5 55q-279 0 -454 -194.5t-175 -538.5q0 -262 191.5 -440t458.5 -178q197 0 423 108l29 -49q-279 -117 -450 -117q-201 0 -362 69t-254 175.5t-142 224t-49 228.5zM649 555q0 -74 30 -116 t81 -42q113 0 208 162t95 301q0 133 -121 133q-88 0 -190.5 -122.5t-102.5 -315.5z" />
<glyph unicode="A" horiz-adv-x="1366" d="M-2 0v57q100 0 142 18.5t63 71.5l471 1262h49l469 -1274q18 -47 56 -62.5t122 -15.5v-57h-522v57q109 0 145.5 12.5t36.5 45t-59.5 190.5t-63.5 174h-510q-2 -6 -32.5 -91t-57 -167t-26.5 -108q0 -35 37.5 -45.5t146.5 -10.5v-57h-467zM422 549h461l-230 631z" />
<glyph unicode="B" horiz-adv-x="1327" d="M47 0v57q131 0 164 22.5t33 119.5v1011q0 96 -31 119t-152 23v57h676q223 0 320.5 -98.5t97.5 -229.5q0 -252 -295 -325v-4q168 -25 272.5 -119t104.5 -236q0 -166 -115.5 -281.5t-355.5 -115.5h-719zM399 172q0 -74 49.5 -94.5t194.5 -20.5q240 0 329 72t89 256 q0 164 -96.5 246t-251.5 82h-314v-541zM399 770h189q203 0 297 72.5t94 222.5q0 160 -87 223.5t-290 63.5q-133 0 -168 -23.5t-35 -118.5v-440z" />
<glyph unicode="C" horiz-adv-x="1327" d="M102 705q0 309 183.5 519t443.5 210q86 0 161 -33t120 -65.5t59 -32.5q12 0 24.5 11t17.5 22.5t13.5 29.5t10.5 23h57v-476h-57q-35 190 -137.5 326.5t-276.5 136.5q-82 0 -153.5 -32.5t-136 -104.5t-102.5 -209t-38 -325q0 -672 438 -672q195 0 305.5 139t120.5 371h70 q0 -262 -132 -415t-364 -153q-199 0 -345 110t-214 273t-68 347z" />
<glyph unicode="D" horiz-adv-x="1441" d="M47 0v57q125 0 158 22.5t33 119.5v1011q0 96 -31 119t-150 23v57h631q313 0 490.5 -207t177.5 -497.5t-177.5 -497.5t-490.5 -207h-641zM393 162q0 -57 25.5 -81t105.5 -24h105q295 0 416.5 145.5t121.5 502.5q0 346 -118.5 496.5t-407.5 150.5h-90q-94 0 -126 -28 t-32 -116v-1046z" />
<glyph unicode="E" horiz-adv-x="1366" d="M47 0v57q129 0 162 22.5t33 119.5v1011q0 96 -32 119t-153 23v57h1102l12 -506h-55q-29 264 -135.5 356.5t-318.5 92.5q-143 0 -204 -27t-61 -92v-467h123q117 0 165 62.5t52 183.5h58v-549h-58q-4 121 -52 183.5t-165 62.5h-123v-566q0 -49 49.5 -67.5t174.5 -18.5 q260 0 374.5 105.5t149.5 369.5h55l-12 -532h-1141z" />
<glyph unicode="F" horiz-adv-x="1251" d="M51 0v57q129 0 162 22.5t33 119.5v1011q0 96 -32 119t-153 23v57h1117l12 -506h-55q-31 270 -153 359.5t-419 89.5q-84 0 -123 -26t-39 -120v-440h136q117 0 165 62.5t52 183.5h57v-549h-57q-4 121 -52.5 183.5t-164.5 62.5h-136v-529q0 -82 44 -102.5t231 -20.5v-57 h-625z" />
<glyph unicode="G" horiz-adv-x="1402" d="M94 704.5q0 184.5 67.5 347t214 272.5t345.5 110q76 0 154.5 -33t127 -67t50.5 -34q14 0 20 11l45 73h58v-491h-62q-72 483 -393 483q-438 0 -438 -671.5t438 -671.5q299 0 299 350q0 129 -43 178t-135 49h-56v58h555v-58h-49q-66 0 -91 -24.5t-25 -83.5v-502h-52 q-51 90 -73 90q-10 0 -54.5 -28.5t-125 -57.5t-183.5 -29q-182 0 -321.5 110t-206 272.5t-66.5 347z" />
<glyph unicode="H" horiz-adv-x="1441" d="M47 0v57q129 0 162 22.5t33 119.5v1011q0 96 -32 119t-153 23v57h529v-57q-125 0 -157 -22.5t-32 -119.5v-440h652v440q0 96 -32 119t-153 23v57h529v-57q-125 0 -157 -22.5t-32 -119.5v-1011q0 -96 31 -119t147 -23v-57h-528v57q129 0 162 22.5t33 119.5v501h-652v-501 q0 -96 31 -119t147 -23v-57h-528z" />
<glyph unicode="I" horiz-adv-x="645" d="M53 0v57q129 0 162 22.5t33 119.5v1011q0 96 -32 119t-153 23v57h529v-57q-125 0 -157 -22.5t-32 -119.5v-1011q0 -96 31 -119t148 -23v-57h-529z" />
<glyph unicode="J" horiz-adv-x="909" d="M12 240q0 63 34 114.5t101 51.5q45 0 74 -29t29 -78q0 -45 -26.5 -73.5t-69.5 -28.5q-33 0 -68 22q-2 -82 64.5 -134t136.5 -52q133 0 193.5 54t60.5 216v907q0 96 -32 119t-153 23v57h521v-57q-125 0 -157 -22.5t-32 -119.5v-891q0 -344 -379 -344q-119 0 -208 73 t-89 192z" />
<glyph unicode="K" horiz-adv-x="1402" d="M61 0v57q129 0 162 22.5t33 119.5v1011q0 96 -31.5 119t-152.5 23v57h534v-57q-125 0 -156.5 -22.5t-31.5 -119.5v-600l608 609q29 29 29 71q0 20 -13.5 32.5t-57.5 21t-126 8.5v57h512v-57q-121 -4 -227 -111l-436 -438l462 -649q70 -96 232 -97v-57h-600v59 q111 2 150.5 9.5t39.5 33.5q0 8 -1 17.5t-3 15.5t-7 15.5t-7 14.5t-9.5 16.5t-10.5 15.5t-13 18t-14 18l-334 461l-135 -135q-6 -6 -16.5 -15t-15.5 -14.5t-9 -13.5t-4 -16v-301q0 -96 32.5 -119t161.5 -23v-57h-545z" />
<glyph unicode="L" horiz-adv-x="1175" d="M47 0v57q125 0 158 22.5t33 119.5v1011q0 96 -31 119t-150 23v57h512v-57q-115 0 -145.5 -22.5t-30.5 -119.5v-999q0 -102 28 -128t109 -26q260 0 375 105.5t150 369.5h55l-12 -532h-1051z" />
<glyph unicode="M" horiz-adv-x="1630" d="M41 0v57q106 2 148 37t42 111v1005q0 96 -32.5 119t-157.5 23v57h397l369 -1135h8l389 1135h381v-57q-123 0 -154.5 -22.5t-31.5 -119.5v-1011q0 -96 32.5 -119t157.5 -23v-57h-538v57q129 0 160.5 22.5t31.5 119.5v1104h-4l-453 -1303h-49l-432 1303h-4v-1098 q0 -76 43 -111t152 -37v-57h-455z" />
<glyph unicode="N" horiz-adv-x="1441" d="M43 0v57q127 0 160 22.5t33 119.5v1050q0 43 -57.5 73t-135.5 30v57h297l799 -1130h4v931q0 96 -34 119t-171 23v57h475v-57q-125 0 -156.5 -22.5t-31.5 -119.5v-1210h-76l-827 1171h-5v-972q0 -96 34 -119t171 -23v-57h-479z" />
<glyph unicode="O" horiz-adv-x="1441" d="M94 704.5q0 184.5 67.5 347t214 272.5t345.5 110t345 -110t214 -272.5t68 -347t-68 -347t-214 -272.5t-345 -110t-345.5 110t-214 272.5t-67.5 347zM283 704.5q0 -671.5 438 -671.5t438 671.5t-438 671.5t-438 -671.5z" />
<glyph unicode="P" horiz-adv-x="1251" d="M47 0v57q135 0 169 16.5t34 86.5v1050q0 96 -32 119t-157 23v57h582q244 0 392.5 -99.5t148.5 -299.5q0 -174 -134.5 -272.5t-385.5 -98.5h-258v-479q0 -70 29.5 -86.5t139.5 -16.5h78v-57h-606zM406 696h294q154 0 231 88t77 240q0 162 -89.5 245t-287.5 83 q-143 0 -184 -20.5t-41 -82.5v-553z" />
<glyph unicode="Q" horiz-adv-x="1441" d="M94 705q0 184 67.5 346.5t214 272.5t345.5 110t345 -110t214 -272.5t68 -346.5q0 -217 -98.5 -403.5t-274.5 -270.5q4 -80 35.5 -145.5t99.5 -65.5q172 0 172 237v25h57v-33q0 -336 -276 -336q-121 0 -177.5 76t-58.5 197q-10 0 -19 -2t-16.5 -4.5t-11.5 -2.5 q-12 -2 -59 -2q-197 0 -344.5 112t-215 275t-67.5 343zM283 705q0 -492 235 -613l4 6q-39 86 -39 138q0 90 60.5 150t158.5 60q117 0 183.5 -91t77.5 -236q197 143 196 586q0 672 -438 672t-438 -672zM553 215q0 -76 42 -129t101 -53q90 0 138 16q10 82 10 113 q0 106 -39 166.5t-113 60.5q-66 0 -102.5 -46t-36.5 -128z" />
<glyph unicode="R" horiz-adv-x="1327" d="M45 0v57q125 0 158 22.5t33 119.5v1011q0 96 -31 119t-152 23v57h621q211 0 357.5 -92t146.5 -268q0 -164 -122 -254t-290 -93v-4q162 -41 227 -262q16 -51 29.5 -115.5t22 -105.5t18.5 -79t26.5 -56.5t40.5 -18.5q37 0 56.5 34t27 77t11.5 127h57q0 -195 -48 -259.5 t-161 -64.5q-127 0 -180 100.5t-72 350.5q-12 152 -73.5 207t-182.5 55h-174v-532q0 -98 92 -99h97v-57h-535zM391 745h275q193 0 264 82t71 228q0 297 -380 297q-150 0 -190 -32t-40 -116v-459z" />
<glyph unicode="S" horiz-adv-x="1138" d="M90 0v528h57q12 -96 41 -179t77 -156.5t126 -116.5t178 -43q160 0 246 85t86 247q0 84 -43 141t-111.5 86t-152.5 51.5t-167 50t-151.5 67.5t-111.5 117.5t-43 188.5q0 137 113.5 252t300.5 115q90 0 160.5 -33t108.5 -64.5t46 -31.5t15 6t13.5 17t11.5 22.5t13 30 t15 28.5h61v-477h-57q-37 203 -137.5 323.5t-266.5 120.5q-104 0 -187 -78.5t-83 -187.5q0 -100 59.5 -164.5t148.5 -91.5t192.5 -59.5t192.5 -67.5t148.5 -118t59.5 -208q0 -182 -141.5 -304t-325.5 -122q-88 0 -164 29t-126 56.5t-79 27.5q-14 0 -26.5 -10t-17.5 -20.5 t-12 -31t-10 -26.5h-57z" />
<glyph unicode="T" horiz-adv-x="1290" d="M57 928l13 481h1151l12 -481h-55q-29 246 -135.5 335t-319.5 89v-1153q0 -96 37 -119t190 -23v-57h-610v57q154 0 190.5 22.5t36.5 119.5v1153q-213 0 -319.5 -89t-134.5 -335h-56z" />
<glyph unicode="U" horiz-adv-x="1402" d="M45 1352v57h516v-57q-119 0 -149.5 -22.5t-30.5 -119.5v-874q0 -68 10 -115t43 -94t104.5 -70.5t182.5 -23.5q180 0 284.5 100t104.5 301v758q0 90 -36 125t-152 35v57h450v-57q-119 0 -155.5 -35t-36.5 -125v-766q0 -227 -135.5 -339t-366.5 -112q-244 0 -348.5 114 t-104.5 296v825q0 96 -30.5 119t-149.5 23z" />
<glyph unicode="V" horiz-adv-x="1290" d="M-4 1352v57h526v-57q-115 0 -152.5 -15.5t-37.5 -48.5q0 -39 37 -135l325 -889l303 830q47 125 47 172q0 41 -34.5 63.5t-137.5 22.5v57h447v-57q-94 0 -138 -29t-71 -102l-444 -1221h-35l-475 1292q-21 60 -160 60z" />
<glyph unicode="W" horiz-adv-x="1781" d="M0 1352v57h471v-57q-90 0 -127 -13.5t-37 -44.5q0 -25 31 -127l280 -882h5l233 714l-68 213q-27 86 -65.5 113t-112.5 27v57h506v-57q-117 0 -153.5 -15.5t-36.5 -54.5q0 -25 70.5 -247t151.5 -466.5t91 -279.5h4l279 872q23 76 22 123q0 68 -151 68v57h389v-57 q-78 0 -116 -35t-64 -115l-392 -1202h-32l-287 897h-4l-293 -897h-41l-403 1255q-31 97 -150 97z" />
<glyph unicode="X" horiz-adv-x="1366" d="M29 0v57q76 0 127 28t96 93l366 535l-339 549q-33 53 -75 71.5t-126 18.5v57h543v-57q-109 0 -142 -11.5t-33 -42.5q0 -18 39 -83.5t112 -180t116 -190.5q63 102 141 210.5t109.5 158t31.5 79.5q0 35 -32.5 47.5t-143.5 12.5v57h479v-57q-158 0 -221 -95l-323 -475 l389 -628q59 -96 192 -97v-57h-557v57q115 0 154 13.5t39 48.5q0 27 -65.5 136.5t-147.5 235t-101 162.5l-301 -440q-41 -61 -41 -86q0 -43 41 -56.5t174 -13.5v-57h-501z" />
<glyph unicode="Y" horiz-adv-x="1138" d="M0 1352v57h514v-57q-119 0 -152.5 -12.5t-33.5 -55.5q0 -29 30 -90l271 -537l272 525q31 55 31 104q0 66 -146 66v57h398v-57q-125 0 -156 -62l-362 -696v-395q0 -96 34.5 -119t171.5 -23v-57h-585v57q150 0 186.5 22.5t36.5 119.5v395l-367 709q-14 27 -44.5 38 t-98.5 11z" />
<glyph unicode="Z" horiz-adv-x="1175" d="M70 0v61l811 1291h-250q-223 0 -318.5 -91.5t-124.5 -332.5h-55l12 481h889v-66l-807 -1286h256q264 0 377 99.5t148 351.5h55l-12 -508h-981z" />
<glyph unicode="[" horiz-adv-x="606" d="M184 -348v1757h324v-57h-80q-68 0 -92.5 -38t-24.5 -120v-1327q0 -82 24.5 -120t92.5 -38h80v-57h-324z" />
<glyph unicode="\" horiz-adv-x="569" d="M-29 1434h103l524 -1459h-102z" />
<glyph unicode="]" horiz-adv-x="606" d="M98 -291h80q68 0 92.5 38t24.5 120v1327q0 82 -24.5 120t-92.5 38h-80v57h324v-1757h-324v57z" />
<glyph unicode="^" horiz-adv-x="1228" d="M188 686l377 748h99l376 -748h-114l-312 617l-311 -617h-115z" />
<glyph unicode="_" horiz-adv-x="1024" d="M0 -154h1024v-102h-1024v102z" />
<glyph unicode="`" horiz-adv-x="530" d="M-29 1354q0 23 16.5 39t39.5 16q31 0 77 -43l308 -289h-60l-350 221q-31 21 -31 56z" />
<glyph unicode="a" horiz-adv-x="985" d="M57 215q0 47 19.5 89t45 73t74 59.5t85 47t99 38t94.5 28.5t95.5 24.5t77.5 19.5v145q0 190 -209 191q-135 0 -229 -74l4 -4q33 -2 59.5 -25.5t26.5 -62.5t-26.5 -69.5t-69.5 -30.5t-67.5 30.5t-24.5 83.5q0 86 93 147.5t230 61.5q176 0 264 -68.5t88 -230.5v-545 q0 -74 56 -73q63 0 63 159h58q0 -229 -168 -229q-137 0 -144 176h-4q-47 -90 -127 -145.5t-186 -55.5q-109 0 -193 63.5t-84 176.5zM213 201q0 -68 51 -112t117 -44q109 0 187.5 103.5t78.5 244.5v148q-76 -16 -120 -27.5t-111.5 -40.5t-105.5 -60.5t-67.5 -86.5t-29.5 -125 z" />
<glyph unicode="b" horiz-adv-x="1099" d="M6 1343v58l301 8v-608h4q41 80 114 133t173 53q178 0 295 -152.5t117 -353.5q0 -203 -122 -354.5t-323 -151.5q-70 0 -130 26t-99 51.5t-57 25.5q-43 0 -66 -78h-45v1262q0 47 -33 64t-129 17zM307 440q0 -223 65.5 -315t200.5 -92q127 0 208 110.5t81 338t-80 338 t-202 110.5q-119 0 -196 -118t-77 -372z" />
<glyph unicode="c" horiz-adv-x="985" d="M90 481.5q0 202.5 122 354t323 151.5q139 0 242.5 -74.5t103.5 -175.5q0 -111 -105 -110q-35 0 -59.5 26.5t-24.5 63.5q0 86 101 90q-51 70 -107.5 96.5t-140.5 26.5q-131 0 -215 -117t-84 -334q0 -213 82 -329.5t225 -116.5q211 0 317 215l45 -43q-57 -119 -149 -174.5 t-231 -55.5q-201 0 -323 152t-122 354.5z" />
<glyph unicode="d" horiz-adv-x="1138" d="M82 481.5q0 200.5 116.5 353t295.5 152.5q111 0 196.5 -54t108.5 -122h8v451q0 47 -33 64t-129 17v58l301 8v-1270q0 -47 32 -64.5t122 -17.5v-57l-295 -12v172l-4 6q-113 -190 -295 -191q-186 0 -305 153t-119 353.5zM229 481.5q0 -227.5 80 -338t203 -110.5 q295 0 295 448.5t-295 448.5q-123 0 -203 -110.5t-80 -338z" />
<glyph unicode="e" horiz-adv-x="1024" d="M90 481q0 227 119 366.5t326 139.5q182 0 290.5 -145.5t108.5 -337.5h-688v-60q0 -178 83 -294.5t230 -116.5q123 0 189.5 47t136.5 149l49 -32q-90 -131 -174 -176.5t-217 -45.5q-203 0 -328 151.5t-125 354.5zM246 561h532q0 96 -19.5 172t-81 136.5t-159.5 60.5 q-131 0 -201.5 -111t-70.5 -258z" />
<glyph unicode="f" horiz-adv-x="645" d="M29 0v57q119 0 157.5 17.5t38.5 64.5v766h-164v58h164v131q0 315 334 315q78 0 125 -46t47 -103q0 -37 -26.5 -63t-65.5 -26q-43 0 -69.5 25t-26.5 66q0 29 16 50t41 23v4q-31 12 -76 13q-82 0 -120.5 -49.5t-38.5 -126.5v-213h241v-58h-241v-766q0 -47 38.5 -64.5 t157.5 -17.5v-57h-532z" />
<glyph unicode="g" horiz-adv-x="1024" d="M20 -104q0 92 84 150t185 73v4q-41 12 -66.5 23.5t-50.5 38t-25 65.5q0 88 144 139q-160 117 -160 285q0 135 99.5 224t244.5 89q115 0 189 -33q16 72 53 112t112 40q45 0 81 -26.5t36 -71.5q0 -37 -23.5 -59.5t-56.5 -22.5q-31 0 -53 24.5t-22 50.5q0 29 10 48 q-37 0 -56.5 -35t-19.5 -74q0 -12 4 -20.5t17.5 -18.5t17.5 -14q51 -51 73.5 -99.5t22.5 -125.5q0 -152 -113.5 -238t-267.5 -86q-66 0 -129 27q-88 -37 -88 -82q0 -72 217 -72q61 0 118.5 -4t129.5 -20.5t124 -43t88 -77t36 -117.5q0 -86 -50.5 -151.5t-130 -101.5 t-160.5 -52.5t-161 -16.5q-76 0 -146.5 11.5t-144 37t-118 83t-44.5 137.5zM147 -106q0 -96 88.5 -152.5t227.5 -56.5q182 0 283.5 59t101.5 162q0 186 -332 186q-369 1 -369 -198zM279 678q0 -283 213 -283q221 0 221 271q0 264 -224 264q-106 0 -158 -73t-52 -179z" />
<glyph unicode="h" horiz-adv-x="1138" d="M23 0v57q104 0 139 17.5t35 64.5v1123q0 47 -33 64t-129 17v58l301 8v-614h4q55 100 129 146t190 46q295 0 295 -303v-545q0 -47 31 -64.5t129 -17.5v-57h-299v664q0 45 -1 70.5t-11 67.5t-28.5 65.5t-56.5 43t-91 19.5q-125 0 -208 -115t-83 -311v-365q0 -47 33.5 -64.5 t130.5 -17.5v-57h-477z" />
<glyph unicode="i" horiz-adv-x="530" d="M23 0v57q104 0 140 17.5t36 64.5v684q0 47 -34 64.5t-128 17.5v58l301 12v-836q0 -47 34 -64.5t134 -17.5v-57h-483zM154 1296q0 41 28.5 71t69.5 30t69.5 -29t28.5 -72q0 -41 -28.5 -68.5t-69.5 -27.5t-69.5 27.5t-28.5 68.5z" />
<glyph unicode="j" horiz-adv-x="530" d="M-135 -231q0 39 29.5 66.5t70.5 27.5q43 0 65.5 -30t22.5 -73q0 -33 -26 -67q4 -8 55 -8q27 0 48.5 5t35.5 17t25.5 22.5t17.5 32t10 35t5 42t1 41.5v46v43v854q0 47 -32.5 64.5t-129.5 17.5v58l302 12v-1069q0 -137 -96.5 -208t-211.5 -71q-74 0 -133 36t-59 106z M180 1296q0 41 29 71t69.5 30t69.5 -29t29 -72q0 -41 -29 -68.5t-69.5 -27.5t-69.5 27.5t-29 68.5z" />
<glyph unicode="k" d="M35 0v57q104 0 140 17.5t36 64.5v1123q0 47 -34 64t-128 17v58l301 8v-926l316 287q63 59 63 94q0 25 -32.5 33t-123.5 8v58h439v-58q-111 -8 -191 -63.5t-276 -251.5l264 -406q57 -88 92 -107.5t125 -19.5v-57h-252l-330 502l-94 -86v-277q0 -47 34 -64.5t134 -17.5v-57 h-483z" />
<glyph unicode="l" horiz-adv-x="530" d="M23 0v57q104 0 140 17.5t36 64.5v1123q0 47 -34 64t-128 17v58l301 8v-1270q0 -47 34 -64.5t134 -17.5v-57h-483z" />
<glyph unicode="m" horiz-adv-x="1669" d="M16 0v57q104 0 139 17.5t35 64.5v684q0 47 -33.5 64.5t-127.5 17.5v58l299 12v-141h4q59 80 119.5 116.5t150.5 36.5q223 0 295 -186q94 186 285 186q143 0 223 -81t80 -218v-549q0 -47 33.5 -64.5t134.5 -17.5v-57h-307v676q0 119 -46.5 186.5t-136.5 67.5 q-104 0 -180 -86t-76 -197v-508q0 -47 34 -64.5t134 -17.5v-57h-307v676q0 119 -46 186.5t-136 67.5q-104 0 -180 -86t-76 -197v-508q0 -47 33.5 -64.5t130.5 -17.5v-57h-478z" />
<glyph unicode="n" horiz-adv-x="1138" d="M23 0v57q104 0 139 17.5t35 64.5v684q0 47 -33 64.5t-129 17.5v58l301 12v-180h4q63 100 134 146t181 46q135 0 217 -74.5t82 -207.5v-566q0 -47 31 -64.5t129 -17.5v-57h-299v705q0 225 -207 225q-121 0 -196.5 -118t-75.5 -245v-428q0 -47 33.5 -64.5t130.5 -17.5v-57 h-477z" />
<glyph unicode="o" d="M86 481.5q0 202.5 122 354t322.5 151.5t322.5 -151.5t122 -354t-122 -354.5t-322.5 -152t-322.5 152t-122 354.5zM242 481.5q0 -448.5 288.5 -448.5t288.5 448.5t-288.5 448.5t-288.5 -448.5z" />
<glyph unicode="p" horiz-adv-x="1138" d="M20 -291q104 0 140.5 17.5t36.5 64.5v1032q0 47 -33 64.5t-129 17.5v58l299 12v-182h4q2 4 23.5 34.5t26.5 36.5l26 31q20 25 31.5 32t34 23.5t44 21.5t51 10t62.5 5q178 0 295 -152.5t117 -353.5q0 -203 -122 -354.5t-323 -151.5q-172 0 -264 129h-4v-313 q0 -47 33.5 -64.5t134.5 -17.5v-57h-484v57zM336 481q0 -260 60.5 -354t221.5 -94q123 0 203 110.5t80 338t-80 338t-202.5 110.5t-202.5 -111t-80 -338z" />
<glyph unicode="q" horiz-adv-x="1099" d="M90 487q0 197 121 348.5t311 151.5q74 0 141.5 -28.5t109.5 -57.5t52 -29q16 0 27.5 15.5t22 42t12.5 33.5h59q-12 -59 -12 -154v-1018q0 -47 33.5 -64.5t134.5 -17.5v-57h-484v57q104 0 140.5 17.5t36.5 64.5v352v2h-7q-55 -92 -127.5 -131t-187.5 -39 q-160 0 -271.5 152.5t-111.5 359.5zM238 471q0 -227 82.5 -332.5t183.5 -105.5q94 0 167.5 57t102.5 152q27 90 27 274q0 68 -5 119t-22.5 109.5t-46.5 96.5t-81 63.5t-124 25.5q-137 0 -210.5 -133t-73.5 -326z" />
<glyph unicode="r" horiz-adv-x="796" d="M41 0v57q96 0 130 17.5t34 64.5v684q0 47 -33 64.5t-129 17.5v58l301 12v-246h4q45 115 107.5 186.5t160.5 71.5q66 0 112 -38t46 -103q0 -45 -26.5 -73t-67.5 -28q-43 0 -68.5 24t-25.5 69q0 57 49 82q-8 10 -31 10q-55 0 -125.5 -71t-105.5 -226q-29 -129 -29 -453 q0 -76 35 -99.5t149 -23.5v-57h-487z" />
<glyph unicode="s" horiz-adv-x="872" d="M92 0v340h58q12 -125 89.5 -216t182.5 -91q231 0 231 221q0 70 -57 113t-138 66.5t-162 50t-138.5 86t-57.5 151.5q0 106 89.5 186t207.5 80q86 0 158 -30.5t74 -30.5q29 0 37 37h57v-304h-51q-49 270 -254 271q-84 0 -137.5 -47t-53.5 -133q0 -72 57.5 -115t138.5 -65.5 t162 -49t138 -92.5t57 -170q0 -123 -98 -203t-264 -80q-78 0 -151.5 41t-78.5 41q-23 0 -47 -57h-49z" />
<glyph unicode="t" horiz-adv-x="720" d="M29 930v57q207 0 233 307h57v-307h308v-57h-308v-727q0 -170 134 -170q57 0 103 49t46 158v88h57v-74q0 -129 -61 -204t-182 -75q-113 0 -174.5 60.5t-61.5 177.5v717h-151z" />
<glyph unicode="u" horiz-adv-x="1138" d="M33 905v58l301 12v-744q0 -96 50 -147t142 -51q131 0 209 99t78 269v422q0 47 -34 64.5t-128 17.5v58l301 12v-836q0 -47 32 -64.5t122 -17.5v-57l-293 -12v151h-4q-59 -84 -127 -124t-180 -40q-307 0 -307 271v577q0 47 -34 64.5t-128 17.5z" />
<glyph unicode="v" horiz-adv-x="985" d="M-12 905v58h446v-58q-98 0 -126.5 -11t-28.5 -48q0 -23 31.5 -100.5t95 -237.5t118.5 -315h4q39 102 82 212.5t67.5 173t47.5 122t32 91t9 48.5q0 39 -29.5 52t-122.5 13v58h385v-58q-84 0 -112.5 -21.5t-61.5 -105.5l-303 -778h-59l-311 788q-31 78 -58.5 97.5 t-105.5 19.5z" />
<glyph unicode="w" horiz-adv-x="1478" d="M0 905v58h426v-58q-78 0 -106.5 -9t-28.5 -36q0 -12 35.5 -124.5t92 -283.5t77.5 -237h4l221 584q-25 70 -55.5 88t-124.5 18v58h450v-58q-92 0 -121.5 -8t-29.5 -37q0 -25 43 -152.5t96 -281.5t68 -209h4q12 39 70.5 189.5t108.5 284.5t50 161q0 31 -33 42t-121 11v58 h385v-58q-90 0 -119.5 -14t-50.5 -68l-311 -823h-51l-227 709h-4l-267 -709h-53l-285 842q-14 37 -43.5 50t-99.5 13z" />
<glyph unicode="x" horiz-adv-x="1099" d="M25 0v57q131 0 180 64l284 360l-276 361q-49 63 -147 63v58h446v-58q-72 0 -103.5 -7t-31.5 -34q0 -23 43 -81t97 -122.5t63 -78.5q10 16 62 78.5t94 120t42 79.5q0 29 -30.5 37t-108.5 8v58h414v-58q-86 0 -123 -11t-72 -54l-240 -308l289 -391q39 -51 71 -67.5 t97 -16.5v-57h-459v57q90 0 120 9.5t30 29.5q0 14 -38 68.5t-108.5 148t-91.5 121.5q-10 -16 -74.5 -95t-116.5 -150.5t-52 -92.5q0 -14 11 -22t48 -12.5t107 -4.5v-57h-426z" />
<glyph unicode="y" horiz-adv-x="1024" d="M-4 905v58h461v-58q-72 0 -110 -6t-47 -15.5t-9 -27.5q0 -14 12 -52t40 -107.5t53.5 -133t71.5 -176.5t77 -188h4q35 88 77 190.5t67.5 167t50 125.5t36 99t11.5 59q0 37 -32 51t-120 14v58h389v-58q-78 0 -112.5 -22.5t-63.5 -94.5l-307 -768q-86 -217 -153.5 -292.5 t-180.5 -75.5q-80 0 -137.5 48t-57.5 116q0 49 31 79.5t74 30.5q37 0 63.5 -23.5t26.5 -56.5q0 -94 -96 -100q23 -37 106 -37q168 0 252 316l-319 802q-18 45 -55 61.5t-103 16.5z" />
<glyph unicode="z" horiz-adv-x="909" d="M45 0v70l623 835h-262q-129 0 -196 -58.5t-75 -187.5h-57v304h737v-70l-622 -836h208q178 0 273.5 78t99.5 219h57v-354h-786z" />
<glyph unicode="{" horiz-adv-x="606" d="M88 530q84 27 113.5 80.5t29.5 157.5v375q0 109 69 200t171 91h45v-58h-37q-121 0 -121 -246v-329q0 -121 -34.5 -181.5t-143.5 -87.5v-4q109 -27 143.5 -87t34.5 -181v-330q0 -246 121 -245h37v-58h-45q-102 0 -171 91.5t-69 199.5v375q0 104 -29.5 157t-113.5 80z" />
<glyph unicode="|" horiz-adv-x="454" d="M176 0v1409h103v-1409h-103z" />
<glyph unicode="}" horiz-adv-x="606" d="M90 -315h37q121 0 121 245v330q0 121 34.5 181.5t143.5 86.5v4q-109 27 -143.5 87.5t-34.5 181.5v329q0 246 -121 246h-37v58h45q102 0 171 -91.5t69 -199.5v-375q0 -104 29.5 -157.5t113.5 -80.5q-84 -27 -113.5 -80t-29.5 -157v-375q0 -109 -68.5 -200t-171.5 -91h-45 v58z" />
<glyph unicode="~" horiz-adv-x="1228" d="M141 430q102 176 256 176q72 0 228 -74q160 -74 209 -73q39 0 74.5 24.5t55 50t50.5 72.5l73 -74q-41 -55 -67.5 -85.5t-77.5 -60.5t-111 -30q-84 0 -219 74q-139 74 -225 74q-96 0 -172 -148z" />
<glyph unicode="&#xa1;" horiz-adv-x="493" d="M145 950q0 41 30 72t73 31q45 0 73.5 -29t28.5 -74q0 -41 -30.5 -71.5t-71.5 -30.5q-39 0 -71 30.5t-32 71.5zM166 -266q0 127 8 276.5t26.5 377.5t20.5 259h53q2 -31 20.5 -259t27 -377.5t8.5 -276.5q0 -61 -18.5 -84t-63.5 -23t-63.5 23t-18.5 84z" />
<glyph unicode="&#xa2;" d="M152 715q0 176 107.5 312t268.5 149v258h62v-254q102 0 198.5 -65.5t96.5 -164.5q0 -49 -23.5 -79.5t-66.5 -30.5q-37 0 -55.5 24.5t-18.5 59.5q0 86 96 80q-27 57 -92.5 87.5t-134.5 30.5v-807q84 -2 154.5 45.5t107.5 124.5l57 -26q-104 -201 -319 -201v-283h-62v285 q-160 8 -268 146.5t-108 308.5zM299 700q0 -135 55.5 -245.5t173.5 -132.5v792q-229 -54 -229 -414z" />
<glyph unicode="&#xa3;" d="M35 168q0 76 50 118t126 42q92 0 168 -42t178 -139q113 109 113 218q0 135 -123 241h-426v70h346v4q-264 195 -264 389q0 141 97 240.5t257 99.5q109 0 185.5 -63.5t76.5 -149.5q0 -100 -88 -100q-35 0 -59.5 23.5t-24.5 58.5q0 33 21.5 58.5t52.5 27.5q-31 88 -170 88 q-109 0 -169 -69t-60 -165q0 -113 57 -182.5t295 -259.5h313v-70h-272q82 -109 82 -205q0 -80 -50.5 -159.5t-117.5 -132.5q49 -39 129 -39q49 0 94 25.5t68.5 53t60.5 76.5l47 -30q-113 -195 -285 -195q-90 0 -180 57q-143 -82 -289 -82q-115 0 -177 52.5t-62 140.5z M145 145q0 -35 42 -67.5t114 -32.5q117 0 199 57q-139 127 -250 127q-43 0 -74 -21.5t-31 -62.5z" />
<glyph unicode="&#xa4;" d="M49 295l105 111q-104 131 -105 294q0 184 109 299l-109 111l74 74l108 -107q127 106 306 107q166 0 292 -107l109 107l74 -74l-105 -104q104 -121 105 -301q0 -172 -103 -302l103 -108l-74 -70l-102 109q-129 -109 -301 -109q-184 0 -310 109l-102 -109zM156 700 q0 -158 110.5 -267t268.5 -109q156 0 263 112.5t107 268t-108.5 268t-259.5 112.5q-160 0 -270.5 -112.5t-110.5 -272.5z" />
<glyph unicode="&#xa5;" d="M0 1352v57h514v-57q-119 0 -152.5 -12.5t-33.5 -55.5q0 -29 30 -90l271 -537l272 525q31 55 31 104q0 66 -146 66v57h398v-57q-125 0 -156 -62l-264 -508h260v-69h-297l-61 -119v-66h358v-69h-358v-260q0 -96 34.5 -119t171.5 -23v-57h-585v57q150 0 186.5 22.5 t36.5 119.5v260h-363v69h363v66l-61 119h-302v69h265l-269 521q-14 27 -44.5 38t-98.5 11z" />
<glyph unicode="&#xa6;" horiz-adv-x="454" d="M176 0v524h103v-524h-103zM176 856v524h103v-524h-103z" />
<glyph unicode="&#xa7;" horiz-adv-x="1024" d="M141 608q0 131 82 204t207 60l4 5q-86 49 -147.5 139t-61.5 162q0 115 86 185.5t207 70.5q109 0 184.5 -61.5t75.5 -143.5q0 -43 -27.5 -73t-70.5 -30q-39 0 -64.5 26t-25.5 60q0 43 33.5 72t33.5 43q0 25 -38.5 47.5t-100.5 22.5q-92 0 -143 -44t-51 -126 q0 -53 57 -116.5t139 -125t165 -130.5t140.5 -157t57.5 -178q0 -104 -65.5 -166.5t-164.5 -62.5q-37 0 -51 2l-4 -4q6 -6 30.5 -27.5t32 -29t29 -28t29.5 -31.5t24.5 -31.5t23.5 -37t16.5 -37t12.5 -42t3 -43.5q0 -113 -78 -182.5t-207 -69.5q-125 0 -206 55t-81 149 q0 41 29 71t68 30q37 0 64.5 -23.5t27.5 -62.5q0 -47 -34 -77t-32 -38q6 -29 52.5 -48t97.5 -19q76 0 138 39.5t62 113.5q0 66 -57 136.5t-139 132t-165 126t-140.5 141t-57.5 152.5zM240 676q0 -96 141 -222t231 -126q82 0 127 45t45 116q0 102 -149.5 224.5t-243.5 122.5 q-66 0 -108.5 -43t-42.5 -117z" />
<glyph unicode="&#xa8;" horiz-adv-x="530" d="M-12 1202q0 35 24.5 59.5t57 24.5t57.5 -24.5t25 -59.5q0 -33 -24 -56.5t-58.5 -23.5t-58 23.5t-23.5 56.5zM381 1202q0 35 24.5 59.5t57.5 24.5t57.5 -24.5t24.5 -59.5q0 -33 -23.5 -56.5t-58.5 -23.5t-58.5 23.5t-23.5 56.5z" />
<glyph unicode="&#xa9;" horiz-adv-x="1638" d="M94 702q0 301 213 516.5t512 215.5q301 0 513 -214t212 -518q0 -301 -212 -514t-513 -213q-299 0 -512 214t-213 513zM193 702q0 -256 187 -452.5t439 -196.5q254 0 440.5 195.5t186.5 453.5q0 260 -186.5 457t-440.5 197t-440 -198t-186 -456zM406 723q0 147 128 277 t343 130q94 0 184 -24.5t90 -50.5v-156h-41q-8 182 -244 182q-158 0 -239.5 -95t-81.5 -255q0 -176 85 -279.5t255 -103.5q195 0 264 174h31l-39 -162q-2 -8 -40 -22t-104.5 -26.5t-132.5 -12.5q-197 0 -327.5 104.5t-130.5 319.5z" />
<glyph unicode="&#xaa;" horiz-adv-x="591" d="M37 971q0 147 360 229q16 4 23 6v80q0 98 -135 98q-92 0 -142 -26v-4q18 -2 35 -16.5t17 -37.5q0 -25 -17.5 -43t-46.5 -18q-59 0 -59 70q0 53 60.5 89t150.5 36q231 0 231 -166v-340q0 -43 35 -43t35 94h45q0 -78 -27 -117q-27 -35 -74 -35q-45 0 -72.5 28t-31.5 75h-4 q-63 -102 -201 -103q-72 0 -127 38t-55 106zM143 963q0 -41 32 -63.5t77 -22.5q70 0 119 62t49 151v71q-61 -12 -97 -22.5t-84.5 -32t-72 -58t-23.5 -85.5z" />
<glyph unicode="&#xab;" horiz-adv-x="1024" d="M119 475v12q80 66 227 197q49 43 92 87t60.5 60.5t25.5 16.5q16 0 17 -21q0 -31 -104.5 -164t-153.5 -182q61 -66 155 -191.5t94 -152.5q0 -23 -16 -22q-8 0 -35.5 24.5t-75 73.5t-73.5 74q-16 16 -213 188zM483 475v12q80 66 228 197q49 43 92 87t60.5 60.5t25.5 16.5 q16 0 16 -21q0 -31 -104.5 -164t-153.5 -182q61 -66 155.5 -191.5t94.5 -152.5q0 -23 -16 -22q-8 0 -36 24.5t-75 73.5t-74 74q-16 16 -213 188z" />
<glyph unicode="&#xac;" horiz-adv-x="1228" d="M133 635v102h963v-499h-103v397h-860z" />
<glyph unicode="&#xad;" horiz-adv-x="681" d="M84 426v111h512v-111h-512z" />
<glyph unicode="&#xae;" horiz-adv-x="1638" d="M94 702q0 301 213 516.5t512 215.5q301 0 513 -214t212 -518q0 -301 -212 -514t-513 -213q-299 0 -512 214t-213 513zM193 702q0 -256 187 -452.5t439 -196.5q254 0 440.5 195.5t186.5 453.5q0 260 -186.5 457t-440.5 197t-440 -198t-186 -456zM475 348v37 q66 10 84.5 22.5t18.5 51.5v559q0 39 -18.5 51t-84.5 23v36h365q104 0 179 -51t75 -151q0 -154 -176 -213q2 -2 30.5 -41t47 -63.5t53 -68.5t61.5 -73t56.5 -56.5t52.5 -37.5v-25h-117q-20 0 -41 13.5t-45.5 46t-47 66.5t-64.5 98.5t-81 119.5h-118v-233q0 -39 19 -51.5 t89 -22.5v-37h-338zM705 741h104q158 0 158 187q0 152 -166 151h-96v-338z" />
<glyph unicode="&#xaf;" horiz-adv-x="530" d="M-35 1167v86h600v-86h-600z" />
<glyph unicode="&#xb0;" horiz-adv-x="819" d="M111 1141q0 123 88 208t210.5 85t211 -85t88.5 -208t-88.5 -208t-211 -85t-210.5 85t-88 208zM197 1141q0 -90 60 -152.5t152.5 -62.5t153 62.5t60.5 152.5t-60.5 152.5t-153 62.5t-152.5 -62.5t-60 -152.5z" />
<glyph unicode="&#xb1;" horiz-adv-x="1228" d="M133 0v102h963v-102h-963zM133 559v103h430v301h103v-301h430v-103h-430v-301h-103v301h-430z" />
<glyph unicode="&#xb2;" horiz-adv-x="636" d="M57 573v64q41 88 104.5 158.5t122 113.5t110.5 86t84 96.5t32 120.5q0 86 -48 133.5t-138 47.5q-78 0 -136.5 -43t-58.5 -103q0 -6 4 -18q8 4 23 4q72 0 71 -66q0 -20 -19.5 -36.5t-47.5 -16.5q-37 0 -61.5 26.5t-24.5 73.5q0 94 73.5 157t184.5 63q125 0 204.5 -65.5 t79.5 -162.5q0 -70 -42 -129t-105 -105t-130 -90t-127 -103.5t-85 -127.5h231q223 0 224 195h51l-21 -273h-555z" />
<glyph unicode="&#xb3;" horiz-adv-x="636" d="M31 760q0 41 24.5 68.5t61.5 27.5q27 0 48 -15.5t21 -43.5q0 -25 -16 -42.5t-49 -17.5q-23 0 -43 17q-2 -10 -2 -29q0 -57 59.5 -91t124.5 -34q244 0 244 223q0 76 -53.5 126t-110.5 50q-10 0 -38 -2t-36 -2q-23 0 -22 19q0 27 20 26q12 0 39 -4t37 -4q41 0 93 42t52 124 q0 195 -186 195q-57 0 -117.5 -31t-75.5 -92q10 2 31 2q66 0 66 -62q0 -27 -20.5 -42t-47.5 -15q-31 0 -52.5 23.5t-21.5 56.5q0 76 66 138.5t197 62.5q115 0 191.5 -62.5t76.5 -154.5q0 -137 -189 -197v-2q90 -16 148.5 -67.5t58.5 -131.5q0 -115 -94 -187.5t-231 -72.5 q-111 0 -182.5 55.5t-71.5 145.5z" />
<glyph unicode="&#xb4;" horiz-adv-x="530" d="M119 1077l307 289q47 43 78 43q23 0 39 -16.5t16 -38.5q0 -35 -31 -56l-350 -221h-59z" />
<glyph unicode="&#xb5;" horiz-adv-x="1138" d="M33 -291q94 0 128 17.5t34 64.5v1032q0 47 -34 64.5t-128 17.5v58l301 12v-744q0 -96 50 -147t142 -51q131 0 209 99t78 269v422q0 47 -34 64.5t-128 17.5v58l301 12v-836q0 -47 32 -64.5t122 -17.5v-57l-293 -12v151h-4q-59 -84 -127 -124t-180 -40q-98 0 -168 29v-352 h-301v57z" />
<glyph unicode="&#xb6;" horiz-adv-x="1228" d="M102 1004q0 186 104.5 295.5t323.5 109.5h523v-57h-52q-72 0 -100.5 -37t-28.5 -152v-1437h-127v1626h-118v-1626h-127v841q-209 -2 -303.5 114t-94.5 323z" />
<glyph unicode="&#xb7;" horiz-adv-x="530" d="M162 481q0 41 30.5 72t71.5 31q39 0 71 -32t32 -71q0 -41 -30 -71.5t-73 -30.5q-45 0 -73.5 28.5t-28.5 73.5z" />
<glyph unicode="&#xb8;" horiz-adv-x="530" d="M63 -389l21 61q61 -25 131 -24q49 0 86 22.5t37 67.5q0 43 -33 62.5t-78 19.5q-31 0 -61 -13l-21 11l86 198h70l-59 -133q6 0 19 2t23.5 3t18.5 1q68 0 115 -37.5t47 -103.5q0 -84 -71.5 -126t-170.5 -44q-84 0 -160 33z" />
<glyph unicode="&#xb9;" horiz-adv-x="636" d="M141 573v50q94 0 131 19.5t37 59.5v558q0 47 -145 47v49q170 0 211 65h41v-719q0 -41 33.5 -60t117.5 -19v-50h-426z" />
<glyph unicode="&#xba;" horiz-adv-x="636" d="M31 1130.5q0 120.5 79.5 212t208.5 91.5q131 0 210 -90.5t79 -213t-78.5 -213t-210.5 -90.5q-129 0 -208.5 91.5t-79.5 212zM137 1130.5q0 -129.5 43 -191.5t139.5 -62t139.5 62t43 191.5t-43 191.5t-139.5 62t-139.5 -62t-43 -191.5z" />
<glyph unicode="&#xbb;" horiz-adv-x="1024" d="M119 135q0 31 104.5 164t153.5 182q-61 66 -155.5 192t-94.5 152q0 23 16 23q8 0 36 -24.5t75 -74t74 -73.5q16 -16 213 -189v-12q-80 -66 -228 -196q-49 -43 -92 -87.5t-60.5 -60.5t-25.5 -16q-16 0 -16 20zM483 135q0 31 104.5 164t153.5 182q-61 66 -155 192t-94 152 q0 23 16 23q8 0 35.5 -24.5t75 -74t73.5 -73.5q16 -16 213 -189v-12q-80 -66 -227 -196q-49 -43 -92 -87.5t-60.5 -60.5t-25.5 -16q-17 0 -17 20z" />
<glyph unicode="&#xbc;" horiz-adv-x="1593" d="M166 573v50q94 0 131 19.5t37 59.5v558q0 47 -146 47v49q170 0 211 65h41v-719q0 -41 34 -60t118 -19v-50h-426zM352 -25l930 1459h96l-923 -1459h-103zM815 213v61l428 572h70v-555h114v-78h-114v-84q0 -39 23.5 -59.5t60.5 -20.5v-49h-344v49q84 0 118.5 19.5 t34.5 60.5v84h-391zM883 291h323v424h-4z" />
<glyph unicode="&#xbd;" horiz-adv-x="1593" d="M94 573v50q94 0 131 19.5t37 59.5v558q0 47 -145 47v49q170 0 211 65h41v-719q0 -41 33.5 -60t117.5 -19v-50h-426zM262 -25l930 1459h96l-923 -1459h-103zM922 0v63q41 88 104.5 159t121.5 114t110.5 86t84 96t31.5 121q0 86 -48 133t-138 47q-78 0 -136.5 -43 t-58.5 -102q0 -6 4 -19q8 4 23 4q72 0 72 -65q0 -20 -19.5 -36.5t-48.5 -16.5q-37 0 -62.5 26.5t-25.5 73.5q0 94 74.5 156.5t185.5 62.5q125 0 205 -65.5t80 -161.5q0 -70 -42 -129.5t-105.5 -105.5t-130 -90t-127 -103.5t-85.5 -126.5h232q223 0 223 194h51l-20 -272h-555 z" />
<glyph unicode="&#xbe;" horiz-adv-x="1593" d="M84 760q0 41 24.5 68.5t61.5 27.5q27 0 48.5 -15.5t21.5 -43.5q0 -25 -16.5 -42.5t-49.5 -17.5q-23 0 -43 17q-2 -10 -2 -29q0 -57 59.5 -91t124.5 -34q244 0 244 223q0 76 -53 126t-111 50q-10 0 -37.5 -2t-36.5 -2q-23 0 -22 19q0 27 20 26q12 0 39 -4t37 -4 q41 0 93.5 42t52.5 124q0 195 -187 195q-57 0 -117.5 -31t-74.5 -92q10 2 30 2q66 0 66 -62q0 -27 -20.5 -42t-47.5 -15q-31 0 -52 23.5t-21 56.5q0 76 65.5 138.5t196.5 62.5q115 0 191.5 -62.5t76.5 -154.5q0 -137 -188 -197v-2q90 -16 148.5 -67.5t58.5 -131.5 q0 -115 -94.5 -187.5t-231.5 -72.5q-111 0 -182.5 55.5t-71.5 145.5zM354 -25l930 1459h96l-923 -1459h-103zM817 213v61l428 572h70v-555h115v-78h-115v-84q0 -39 23.5 -59.5t60.5 -20.5v-49h-344v49q84 0 118.5 19.5t34.5 60.5v84h-391zM883 291h325v424h-4z" />
<glyph unicode="&#xbf;" horiz-adv-x="909" d="M111 -49q0 76 27.5 134t68.5 93t90 73t90 72.5t68.5 93t27.5 132.5v86h58v-172q0 -47 -30 -94t-73 -90t-86 -87.5t-72.5 -102.5t-29.5 -120q0 -119 71.5 -201.5t184.5 -82.5q100 0 172 59t76 158q-29 -8 -49 -8q-41 0 -68 28.5t-27 67.5q0 37 28 62.5t60 25.5 q51 0 84 -42t33 -110q0 -129 -101.5 -214t-236.5 -85q-152 0 -259 87t-107 237zM401 950q0 41 30 72t73 31q45 0 73.5 -29t28.5 -74q0 -41 -30.5 -71.5t-71.5 -30.5t-72 30.5t-31 71.5z" />
<glyph unicode="&#xc0;" horiz-adv-x="1366" d="M-2 0v57q100 0 142 18.5t63 71.5l471 1262h49l469 -1274q18 -47 56 -62.5t122 -15.5v-57h-522v57q109 0 145.5 12.5t36.5 45t-59.5 190.5t-63.5 174h-510q-2 -6 -32.5 -91t-57 -167t-26.5 -108q0 -35 37.5 -45.5t146.5 -10.5v-57h-467zM401 1757q0 23 16.5 39t39.5 16 q31 0 78 -43l307 -288h-60l-350 221q-31 20 -31 55zM422 549h461l-230 631z" />
<glyph unicode="&#xc1;" horiz-adv-x="1366" d="M-2 0v57q100 0 142 18.5t63 71.5l471 1262h49l469 -1274q18 -47 56 -62.5t122 -15.5v-57h-522v57q109 0 145.5 12.5t36.5 45t-59.5 190.5t-63.5 174h-510q-2 -6 -32.5 -91t-57 -167t-26.5 -108q0 -35 37.5 -45.5t146.5 -10.5v-57h-467zM422 549h461l-230 631zM549 1481 l307 288q47 43 78 43q23 0 39 -16t16 -39q0 -35 -31 -55l-350 -221h-59z" />
<glyph unicode="&#xc2;" horiz-adv-x="1366" d="M-2 0v57q100 0 142 18.5t63 71.5l471 1262h49l469 -1274q18 -47 56 -62.5t122 -15.5v-57h-522v57q109 0 145.5 12.5t36.5 45t-59.5 190.5t-63.5 174h-510q-2 -6 -32.5 -91t-57 -167t-26.5 -108q0 -35 37.5 -45.5t146.5 -10.5v-57h-467zM399 1481l254 336h84l256 -336h-47 l-250 217l-254 -217h-43zM422 549h461l-230 631z" />
<glyph unicode="&#xc3;" horiz-adv-x="1366" d="M-2 0v57q100 0 142 18.5t63 71.5l471 1262h49l469 -1274q18 -47 56 -62.5t122 -15.5v-57h-522v57q109 0 145.5 12.5t36.5 45t-59.5 190.5t-63.5 174h-510q-2 -6 -32.5 -91t-57 -167t-26.5 -108q0 -35 37.5 -45.5t146.5 -10.5v-57h-467zM375 1538q59 180 209 180 q55 0 141 -45t119 -45q29 0 55.5 17.5t35.5 30t30 42.5h49q-29 -82 -87.5 -131t-131.5 -49q-39 0 -121 47q-78 47 -127 47q-98 0 -125 -94h-47zM422 549h461l-230 631z" />
<glyph unicode="&#xc4;" horiz-adv-x="1366" d="M-2 0v57q100 0 142 18.5t63 71.5l471 1262h49l469 -1274q18 -47 56 -62.5t122 -15.5v-57h-522v57q109 0 145.5 12.5t36.5 45t-59.5 190.5t-63.5 174h-510q-2 -6 -32.5 -91t-57 -167t-26.5 -108q0 -35 37.5 -45.5t146.5 -10.5v-57h-467zM418 1606q0 35 24.5 59.5t57 24.5 t57.5 -25t25 -59q0 -33 -23.5 -56.5t-58.5 -23.5t-58.5 23.5t-23.5 56.5zM422 549h461l-230 631zM811 1606q0 35 24.5 59.5t57.5 24.5t57.5 -25t24.5 -59q0 -33 -23.5 -56.5t-58.5 -23.5t-58.5 23.5t-23.5 56.5z" />
<glyph unicode="&#xc5;" horiz-adv-x="1366" d="M-2 0v57q100 0 142 18.5t63 71.5l471 1262h49l469 -1274q18 -47 56 -62.5t122 -15.5v-57h-522v57q109 0 145.5 12.5t36.5 45t-59.5 190.5t-63.5 174h-510q-2 -6 -32.5 -91t-57 -167t-26.5 -108q0 -35 37.5 -45.5t146.5 -10.5v-57h-467zM422 549h461l-230 631zM496 1679 q0 82 58 140.5t140 58.5t140.5 -58.5t58.5 -140.5t-58.5 -140t-140.5 -58q-84 0 -141 58t-57 140zM565 1679.5q0 -57.5 35 -93.5t94 -36q57 0 93 36t36 93.5t-35.5 93t-93 35.5t-93.5 -35.5t-36 -93z" />
<glyph unicode="&#xc6;" horiz-adv-x="1820" d="M-106 0v57q121 0 180 107l614 1075q25 43 25 61q0 25 -31 37.5t-119 14.5v57h1067l12 -506h-55q-29 262 -133 355.5t-311 93.5q-102 0 -139 -15.5t-37 -68.5v-502h86q117 0 165 62.5t52 183.5h57v-549h-57q-4 121 -52.5 183.5t-164.5 62.5h-86v-566q0 -86 145 -86 q246 0 357.5 106.5t146.5 368.5h55l-12 -532h-1028v57q119 0 149.5 22.5t30.5 119.5v497h-352l-232 -440q-8 -14 -22.5 -40t-21.5 -39t-13 -30.5t-6 -29.5q0 -59 184 -60v-57h-454zM498 766h313v549h-4z" />
<glyph unicode="&#xc7;" horiz-adv-x="1327" d="M102 705q0 309 183.5 519t443.5 210q86 0 161 -33t120 -65.5t59 -32.5q12 0 24.5 11t17.5 22.5t13.5 29.5t10.5 23h57v-476h-57q-35 190 -137.5 326.5t-276.5 136.5q-82 0 -153.5 -32.5t-136 -104.5t-102.5 -209t-38 -325q0 -672 438 -672q195 0 305.5 139t120.5 371h70 q0 -258 -128 -410.5t-356 -157.5l-41 -92q6 0 19.5 2t24 3t18.5 1q68 0 115 -37.5t47 -103.5q0 -84 -72 -126t-170 -44q-84 0 -160 33l21 61q61 -25 131 -24q49 0 86 22.5t37 67.5q0 43 -33 62.5t-78 19.5q-31 0 -61 -13l-21 11l70 162q-268 23 -420 236t-152 489z" />
<glyph unicode="&#xc8;" horiz-adv-x="1366" d="M47 0v57q129 0 162 22.5t33 119.5v1011q0 96 -32 119t-153 23v57h1102l12 -506h-55q-29 264 -135.5 356.5t-318.5 92.5q-143 0 -204 -27t-61 -92v-467h123q117 0 165 62.5t52 183.5h58v-549h-58q-4 121 -52 183.5t-165 62.5h-123v-566q0 -49 49.5 -67.5t174.5 -18.5 q260 0 374.5 105.5t149.5 369.5h55l-12 -532h-1141zM389 1757q0 23 16.5 39t38.5 16q31 0 78 -43l307 -288h-59l-350 221q-31 20 -31 55z" />
<glyph unicode="&#xc9;" horiz-adv-x="1366" d="M47 0v57q129 0 162 22.5t33 119.5v1011q0 96 -32 119t-153 23v57h1102l12 -506h-55q-29 264 -135.5 356.5t-318.5 92.5q-143 0 -204 -27t-61 -92v-467h123q117 0 165 62.5t52 183.5h58v-549h-58q-4 121 -52 183.5t-165 62.5h-123v-566q0 -49 49.5 -67.5t174.5 -18.5 q260 0 374.5 105.5t149.5 369.5h55l-12 -532h-1141zM537 1481l307 288q47 43 78 43q23 0 39 -16t16 -39q0 -35 -31 -55l-350 -221h-59z" />
<glyph unicode="&#xca;" horiz-adv-x="1366" d="M47 0v57q129 0 162 22.5t33 119.5v1011q0 96 -32 119t-153 23v57h1102l12 -506h-55q-29 264 -135.5 356.5t-318.5 92.5q-143 0 -204 -27t-61 -92v-467h123q117 0 165 62.5t52 183.5h58v-549h-58q-4 121 -52 183.5t-165 62.5h-123v-566q0 -49 49.5 -67.5t174.5 -18.5 q260 0 374.5 105.5t149.5 369.5h55l-12 -532h-1141zM387 1481l254 336h84l256 -336h-47l-250 217l-254 -217h-43z" />
<glyph unicode="&#xcb;" horiz-adv-x="1366" d="M47 0v57q129 0 162 22.5t33 119.5v1011q0 96 -32 119t-153 23v57h1102l12 -506h-55q-29 264 -135.5 356.5t-318.5 92.5q-143 0 -204 -27t-61 -92v-467h123q117 0 165 62.5t52 183.5h58v-549h-58q-4 121 -52 183.5t-165 62.5h-123v-566q0 -49 49.5 -67.5t174.5 -18.5 q260 0 374.5 105.5t149.5 369.5h55l-12 -532h-1141zM406 1606q0 35 24.5 59.5t57 24.5t57 -25t24.5 -59q0 -33 -23.5 -56.5t-58 -23.5t-58 23.5t-23.5 56.5zM799 1606q0 35 24.5 59.5t57 24.5t57.5 -25t25 -59q0 -33 -24 -56.5t-58.5 -23.5t-58 23.5t-23.5 56.5z" />
<glyph unicode="&#xcc;" horiz-adv-x="645" d="M29 1757q0 23 16 39t39 16q31 0 78 -43l307 -288h-59l-351 221q-30 20 -30 55zM53 0v57q129 0 162 22.5t33 119.5v1011q0 96 -32 119t-153 23v57h529v-57q-125 0 -157 -22.5t-32 -119.5v-1011q0 -96 31 -119t148 -23v-57h-529z" />
<glyph unicode="&#xcd;" horiz-adv-x="645" d="M53 0v57q129 0 162 22.5t33 119.5v1011q0 96 -32 119t-153 23v57h529v-57q-125 0 -157 -22.5t-32 -119.5v-1011q0 -96 31 -119t148 -23v-57h-529zM176 1481l307 288q47 43 78 43q23 0 39 -16t16 -39q0 -35 -30 -55l-350 -221h-60z" />
<glyph unicode="&#xce;" horiz-adv-x="645" d="M27 1481l254 336h84l256 -336h-48l-249 217l-254 -217h-43zM53 0v57q129 0 162 22.5t33 119.5v1011q0 96 -32 119t-153 23v57h529v-57q-125 0 -157 -22.5t-32 -119.5v-1011q0 -96 31 -119t148 -23v-57h-529z" />
<glyph unicode="&#xcf;" horiz-adv-x="645" d="M45 1606q0 35 24.5 59.5t57.5 24.5t57.5 -25t24.5 -59q0 -33 -23.5 -56.5t-58.5 -23.5t-58.5 23.5t-23.5 56.5zM53 0v57q129 0 162 22.5t33 119.5v1011q0 96 -32 119t-153 23v57h529v-57q-125 0 -157 -22.5t-32 -119.5v-1011q0 -96 31 -119t148 -23v-57h-529zM438 1606 q0 35 24.5 59.5t57.5 24.5t57.5 -25t24.5 -59q0 -33 -23.5 -56.5t-58.5 -23.5t-58.5 23.5t-23.5 56.5z" />
<glyph unicode="&#xd0;" horiz-adv-x="1441" d="M47 0v57q125 0 158 22.5t33 119.5v542h-164v70h164v399q0 96 -31 119t-150 23v57h631q313 0 490.5 -207t177.5 -497.5t-177.5 -497.5t-490.5 -207h-641zM393 162q0 -57 25.5 -81t105.5 -24h105q295 0 416.5 145.5t121.5 502.5q0 346 -118.5 496.5t-407.5 150.5h-90 q-94 0 -126 -28t-32 -116v-397h451v-70h-451v-579z" />
<glyph unicode="&#xd1;" horiz-adv-x="1441" d="M43 0v57q127 0 160 22.5t33 119.5v1050q0 43 -57.5 73t-135.5 30v57h297l799 -1130h4v931q0 96 -34 119t-171 23v57h475v-57q-125 0 -156.5 -22.5t-31.5 -119.5v-1210h-76l-827 1171h-5v-972q0 -96 34 -119t171 -23v-57h-479zM401 1538q59 180 209 180q55 0 141.5 -45 t118.5 -45q29 0 55.5 17.5t36 30t29.5 42.5h49q-29 -82 -87 -131t-132 -49q-39 0 -121 47q-78 47 -127 47q-98 0 -124 -94h-48z" />
<glyph unicode="&#xd2;" horiz-adv-x="1441" d="M94 704.5q0 184.5 67.5 347t214 272.5t345.5 110t345 -110t214 -272.5t68 -347t-68 -347t-214 -272.5t-345 -110t-345.5 110t-214 272.5t-67.5 347zM283 704.5q0 -671.5 438 -671.5t438 671.5t-438 671.5t-438 -671.5zM428 1757q0 23 16.5 39t38.5 16q31 0 78 -43 l307 -288h-59l-350 221q-31 20 -31 55z" />
<glyph unicode="&#xd3;" horiz-adv-x="1441" d="M94 704.5q0 184.5 67.5 347t214 272.5t345.5 110t345 -110t214 -272.5t68 -347t-68 -347t-214 -272.5t-345 -110t-345.5 110t-214 272.5t-67.5 347zM283 704.5q0 -671.5 438 -671.5t438 671.5t-438 671.5t-438 -671.5zM575 1481l308 288q47 43 78 43q23 0 39 -16t16 -39 q0 -35 -31 -55l-350 -221h-60z" />
<glyph unicode="&#xd4;" horiz-adv-x="1441" d="M94 704.5q0 184.5 67.5 347t214 272.5t345.5 110t345 -110t214 -272.5t68 -347t-68 -347t-214 -272.5t-345 -110t-345.5 110t-214 272.5t-67.5 347zM283 704.5q0 -671.5 438 -671.5t438 671.5t-438 671.5t-438 -671.5zM426 1481l254 336h84l256 -336h-47l-250 217 l-254 -217h-43z" />
<glyph unicode="&#xd5;" horiz-adv-x="1441" d="M94 704.5q0 184.5 67.5 347t214 272.5t345.5 110t345 -110t214 -272.5t68 -347t-68 -347t-214 -272.5t-345 -110t-345.5 110t-214 272.5t-67.5 347zM283 704.5q0 -671.5 438 -671.5t438 671.5t-438 671.5t-438 -671.5zM401 1538q59 180 209 180q55 0 141.5 -45t118.5 -45 q29 0 55.5 17.5t36 30t29.5 42.5h49q-29 -82 -87 -131t-132 -49q-39 0 -121 47q-78 47 -127 47q-98 0 -124 -94h-48z" />
<glyph unicode="&#xd6;" horiz-adv-x="1441" d="M94 704.5q0 184.5 67.5 347t214 272.5t345.5 110t345 -110t214 -272.5t68 -347t-68 -347t-214 -272.5t-345 -110t-345.5 110t-214 272.5t-67.5 347zM283 704.5q0 -671.5 438 -671.5t438 671.5t-438 671.5t-438 -671.5zM444 1606q0 35 25 59.5t57.5 24.5t57 -25t24.5 -59 q0 -33 -23.5 -56.5t-58 -23.5t-58.5 23.5t-24 56.5zM838 1606q0 35 24.5 59.5t57 24.5t57 -25t24.5 -59q0 -33 -23.5 -56.5t-58 -23.5t-58 23.5t-23.5 56.5z" />
<glyph unicode="&#xd7;" horiz-adv-x="1228" d="M133 74l410 407l-410 410l72 72l409 -408l408 408l74 -72l-410 -410l410 -407l-74 -74l-408 410l-409 -410z" />
<glyph unicode="&#xd8;" horiz-adv-x="1441" d="M94 705q0 184 67.5 346.5t214 272.5t345.5 110q215 0 369 -127l120 176h86l-153 -226q100 -104 152.5 -250.5t52.5 -301.5q0 -184 -68 -347t-214 -273t-345 -110q-221 0 -375 131l-151 -221h-91l189 273q-199 217 -199 547zM283 705q0 -287 77 -449l676 975 q-111 145 -315 145q-438 1 -438 -671zM401 186q106 -154 320 -153q438 0 438 672q0 291 -82 458z" />
<glyph unicode="&#xd9;" horiz-adv-x="1402" d="M45 1352v57h516v-57q-119 0 -149.5 -22.5t-30.5 -119.5v-874q0 -68 10 -115t43 -94t104.5 -70.5t182.5 -23.5q180 0 284.5 100t104.5 301v758q0 90 -36 125t-152 35v57h450v-57q-119 0 -155.5 -35t-36.5 -125v-766q0 -227 -135.5 -339t-366.5 -112q-244 0 -348.5 114 t-104.5 296v825q0 96 -30.5 119t-149.5 23zM408 1757q0 23 16 39t39 16q31 0 78 -43l307 -288h-60l-350 221q-30 20 -30 55z" />
<glyph unicode="&#xda;" horiz-adv-x="1402" d="M45 1352v57h516v-57q-119 0 -149.5 -22.5t-30.5 -119.5v-874q0 -68 10 -115t43 -94t104.5 -70.5t182.5 -23.5q180 0 284.5 100t104.5 301v758q0 90 -36 125t-152 35v57h450v-57q-119 0 -155.5 -35t-36.5 -125v-766q0 -227 -135.5 -339t-366.5 -112q-244 0 -348.5 114 t-104.5 296v825q0 96 -30.5 119t-149.5 23zM567 1481l307 288q47 43 78 43q23 0 39.5 -16t16.5 -39q0 -35 -31 -55l-350 -221h-60z" />
<glyph unicode="&#xdb;" horiz-adv-x="1402" d="M45 1352v57h516v-57q-119 0 -149.5 -22.5t-30.5 -119.5v-874q0 -68 10 -115t43 -94t104.5 -70.5t182.5 -23.5q180 0 284.5 100t104.5 301v758q0 90 -36 125t-152 35v57h450v-57q-119 0 -155.5 -35t-36.5 -125v-766q0 -227 -135.5 -339t-366.5 -112q-244 0 -348.5 114 t-104.5 296v825q0 96 -30.5 119t-149.5 23zM406 1481l253 336h84l256 -336h-47l-250 217l-253 -217h-43z" />
<glyph unicode="&#xdc;" horiz-adv-x="1402" d="M45 1352v57h516v-57q-119 0 -149.5 -22.5t-30.5 -119.5v-874q0 -68 10 -115t43 -94t104.5 -70.5t182.5 -23.5q180 0 284.5 100t104.5 301v758q0 90 -36 125t-152 35v57h450v-57q-119 0 -155.5 -35t-36.5 -125v-766q0 -227 -135.5 -339t-366.5 -112q-244 0 -348.5 114 t-104.5 296v825q0 96 -30.5 119t-149.5 23zM424 1606q0 35 24.5 59.5t57.5 24.5t57.5 -25t24.5 -59q0 -33 -23.5 -56.5t-58.5 -23.5t-58.5 23.5t-23.5 56.5zM817 1606q0 35 24.5 59.5t57.5 24.5t57.5 -25t24.5 -59q0 -33 -23.5 -56.5t-58.5 -23.5t-58.5 23.5t-23.5 56.5z " />
<glyph unicode="&#xdd;" horiz-adv-x="1138" d="M0 1352v57h514v-57q-119 0 -152.5 -12.5t-33.5 -55.5q0 -29 30 -90l271 -537l272 525q31 55 31 104q0 66 -146 66v57h398v-57q-125 0 -156 -62l-362 -696v-395q0 -96 34.5 -119t171.5 -23v-57h-585v57q150 0 186.5 22.5t36.5 119.5v395l-367 709q-14 27 -44.5 38 t-98.5 11zM459 1481l307 288q47 43 78 43q23 0 39 -16t16 -39q0 -35 -31 -55l-350 -221h-59z" />
<glyph unicode="&#xde;" horiz-adv-x="1251" d="M61 0v57q129 0 162 22.5t33 119.5v1011q0 96 -31.5 119t-152.5 23v57h528v-57q-125 0 -156.5 -22.5t-31.5 -119.5v-63q119 4 198 4q264 0 411.5 -98.5t147.5 -300.5q0 -176 -136 -273.5t-406 -97.5q-35 0 -109 2t-106 2v-186q0 -96 30.5 -119t147.5 -23v-57h-529z M412 442q33 0 105.5 -2t113.5 -2q188 0 275 78t87 250q0 164 -90 246t-293 82q-158 0 -198 -35v-617z" />
<glyph unicode="&#xdf;" horiz-adv-x="1214" d="M43 0v57q100 0 135 17.5t35 64.5v750h-170v57h170v68q0 195 107.5 295t306.5 100q150 0 277.5 -92t127.5 -238q0 -80 -41 -135t-100.5 -80.5t-118.5 -44t-100 -41t-41 -55.5t53 -58.5t128 -50t149.5 -59.5t128 -105.5t53.5 -168.5q0 -109 -96.5 -207.5t-239.5 -98.5 q-68 0 -125 16.5t-90 34t-39 17.5q-23 0 -41 -43h-53v379h57q63 -346 293 -346q104 0 159.5 66.5t55.5 162.5q0 78 -53 131t-128 81t-150 52.5t-128 64.5t-53 97q0 51 39 84t95 53.5t112.5 45t95.5 74.5t39 126q0 127 -83 204t-192 77q-127 0 -196.5 -60.5t-69.5 -181.5 v-1110h-309z" />
<glyph unicode="&#xe0;" horiz-adv-x="985" d="M57 215q0 47 19.5 89t45 73t74 59.5t85 47t99 38t94.5 28.5t95.5 24.5t77.5 19.5v145q0 190 -209 191q-135 0 -229 -74l4 -4q33 -2 59.5 -25.5t26.5 -62.5t-26.5 -69.5t-69.5 -30.5t-67.5 30.5t-24.5 83.5q0 86 93 147.5t230 61.5q176 0 264 -68.5t88 -230.5v-545 q0 -74 56 -73q63 0 63 159h58q0 -229 -168 -229q-137 0 -144 176h-4q-47 -90 -127 -145.5t-186 -55.5q-109 0 -193 63.5t-84 176.5zM164 1354q0 23 16.5 39t38.5 16q31 0 78 -43l307 -289h-59l-350 221q-31 21 -31 56zM213 201q0 -68 51 -112t117 -44q109 0 187.5 103.5 t78.5 244.5v148q-76 -16 -120 -27.5t-111.5 -40.5t-105.5 -60.5t-67.5 -86.5t-29.5 -125z" />
<glyph unicode="&#xe1;" horiz-adv-x="985" d="M57 215q0 47 19.5 89t45 73t74 59.5t85 47t99 38t94.5 28.5t95.5 24.5t77.5 19.5v145q0 190 -209 191q-135 0 -229 -74l4 -4q33 -2 59.5 -25.5t26.5 -62.5t-26.5 -69.5t-69.5 -30.5t-67.5 30.5t-24.5 83.5q0 86 93 147.5t230 61.5q176 0 264 -68.5t88 -230.5v-545 q0 -74 56 -73q63 0 63 159h58q0 -229 -168 -229q-137 0 -144 176h-4q-47 -90 -127 -145.5t-186 -55.5q-109 0 -193 63.5t-84 176.5zM213 201q0 -68 51 -112t117 -44q109 0 187.5 103.5t78.5 244.5v148q-76 -16 -120 -27.5t-111.5 -40.5t-105.5 -60.5t-67.5 -86.5t-29.5 -125 zM311 1077l307 289q47 43 78 43q23 0 39.5 -16.5t16.5 -38.5q0 -35 -31 -56l-350 -221h-60z" />
<glyph unicode="&#xe2;" horiz-adv-x="985" d="M57 215q0 47 19.5 89t45 73t74 59.5t85 47t99 38t94.5 28.5t95.5 24.5t77.5 19.5v145q0 190 -209 191q-135 0 -229 -74l4 -4q33 -2 59.5 -25.5t26.5 -62.5t-26.5 -69.5t-69.5 -30.5t-67.5 30.5t-24.5 83.5q0 86 93 147.5t230 61.5q176 0 264 -68.5t88 -230.5v-545 q0 -74 56 -73q63 0 63 159h58q0 -229 -168 -229q-137 0 -144 176h-4q-47 -90 -127 -145.5t-186 -55.5q-109 0 -193 63.5t-84 176.5zM162 1077l254 336h84l256 -336h-47l-250 217l-254 -217h-43zM213 201q0 -68 51 -112t117 -44q109 0 187.5 103.5t78.5 244.5v148 q-76 -16 -120 -27.5t-111.5 -40.5t-105.5 -60.5t-67.5 -86.5t-29.5 -125z" />
<glyph unicode="&#xe3;" horiz-adv-x="985" d="M57 215q0 47 19.5 89t45 73t74 59.5t85 47t99 38t94.5 28.5t95.5 24.5t77.5 19.5v145q0 190 -209 191q-135 0 -229 -74l4 -4q33 -2 59.5 -25.5t26.5 -62.5t-26.5 -69.5t-69.5 -30.5t-67.5 30.5t-24.5 83.5q0 86 93 147.5t230 61.5q176 0 264 -68.5t88 -230.5v-545 q0 -74 56 -73q63 0 63 159h58q0 -229 -168 -229q-137 0 -144 176h-4q-47 -90 -127 -145.5t-186 -55.5q-109 0 -193 63.5t-84 176.5zM137 1135q59 180 209 180q55 0 141 -45t119 -45q29 0 55.5 17.5t36 29.5t29.5 43h49q-29 -82 -87 -131t-132 -49q-39 0 -121 47 q-78 47 -127 47q-98 0 -125 -94h-47zM213 201q0 -68 51 -112t117 -44q109 0 187.5 103.5t78.5 244.5v148q-76 -16 -120 -27.5t-111.5 -40.5t-105.5 -60.5t-67.5 -86.5t-29.5 -125z" />
<glyph unicode="&#xe4;" horiz-adv-x="985" d="M57 215q0 47 19.5 89t45 73t74 59.5t85 47t99 38t94.5 28.5t95.5 24.5t77.5 19.5v145q0 190 -209 191q-135 0 -229 -74l4 -4q33 -2 59.5 -25.5t26.5 -62.5t-26.5 -69.5t-69.5 -30.5t-67.5 30.5t-24.5 83.5q0 86 93 147.5t230 61.5q176 0 264 -68.5t88 -230.5v-545 q0 -74 56 -73q63 0 63 159h58q0 -229 -168 -229q-137 0 -144 176h-4q-47 -90 -127 -145.5t-186 -55.5q-109 0 -193 63.5t-84 176.5zM180 1202q0 35 24.5 59.5t57.5 24.5t57.5 -24.5t24.5 -59.5q0 -33 -23.5 -56.5t-58.5 -23.5t-58.5 23.5t-23.5 56.5zM213 201q0 -68 51 -112 t117 -44q109 0 187.5 103.5t78.5 244.5v148q-76 -16 -120 -27.5t-111.5 -40.5t-105.5 -60.5t-67.5 -86.5t-29.5 -125zM573 1202q0 35 25 59.5t57.5 24.5t57 -24.5t24.5 -59.5q0 -33 -23.5 -56.5t-58 -23.5t-58.5 23.5t-24 56.5z" />
<glyph unicode="&#xe5;" horiz-adv-x="985" d="M57 215q0 47 19.5 89t45 73t74 59.5t85 47t99 38t94.5 28.5t95.5 24.5t77.5 19.5v145q0 190 -209 191q-135 0 -229 -74l4 -4q33 -2 59.5 -25.5t26.5 -62.5t-26.5 -69.5t-69.5 -30.5t-67.5 30.5t-24.5 83.5q0 86 93 147.5t230 61.5q176 0 264 -68.5t88 -230.5v-545 q0 -74 56 -73q63 0 63 159h58q0 -229 -168 -229q-137 0 -144 176h-4q-47 -90 -127 -145.5t-186 -55.5q-109 0 -193 63.5t-84 176.5zM213 201q0 -68 51 -112t117 -44q109 0 187.5 103.5t78.5 244.5v148q-76 -16 -120 -27.5t-111.5 -40.5t-105.5 -60.5t-67.5 -86.5t-29.5 -125 zM258 1276q0 82 58.5 140.5t140.5 58.5t140 -58.5t58 -140.5t-58 -140.5t-140 -58.5q-84 0 -141.5 57.5t-57.5 141.5zM328 1276q0 -59 34.5 -94t94.5 -35q57 0 93 36t36 93t-36 93t-93.5 36t-93 -36t-35.5 -93z" />
<glyph unicode="&#xe6;" horiz-adv-x="1517" d="M53 215q0 92 63.5 163t160 107.5t184.5 55t162 20.5v115q0 111 -58.5 182.5t-165.5 71.5q-125 0 -194 -74l4 -4q33 -2 59.5 -25.5t26.5 -62.5t-26.5 -69.5t-69.5 -30.5t-68 30.5t-25 83.5q0 86 89.5 147.5t207.5 61.5q170 0 322 -160q160 160 317 160q180 0 290 -145.5 t110 -337.5h-664v-115q0 -145 87 -250.5t212 -105.5q182 0 305 196l45 -28q-125 -225 -354 -226q-133 0 -212 45.5t-156 147.5q-133 -193 -373 -193q-111 0 -195 63.5t-84 176.5zM209 201q0 -68 49 -112t115 -44q106 0 178 89t72 190v180q-72 0 -138.5 -14.5t-131 -46 t-104.5 -94t-40 -148.5zM778 561h516q0 70 -11 130.5t-37.5 116.5t-79 89t-124.5 33q-129 0 -196.5 -109.5t-67.5 -259.5z" />
<glyph unicode="&#xe7;" horiz-adv-x="985" d="M90 481q0 203 122 354.5t323 151.5q139 0 242.5 -74.5t103.5 -175.5q0 -111 -105 -110q-35 0 -59.5 26.5t-24.5 63.5q0 86 101 90q-51 70 -107.5 96.5t-140.5 26.5q-131 0 -215 -117t-84 -334q0 -213 82 -329.5t225 -116.5q211 0 317 215l45 -43q-106 -221 -358 -230 l-41 -92q6 0 19.5 2t23.5 3t19 1q68 0 114.5 -37.5t46.5 -103.5q0 -84 -71.5 -126t-169.5 -44q-84 0 -160 33l20 61q61 -25 131 -24q49 0 86 22.5t37 67.5q0 43 -32.5 62.5t-77.5 19.5q-31 0 -62 -13l-20 11l69 162q-182 18 -290.5 164.5t-108.5 336.5z" />
<glyph unicode="&#xe8;" horiz-adv-x="1024" d="M90 481q0 227 119 366.5t326 139.5q182 0 290.5 -145.5t108.5 -337.5h-688v-60q0 -178 83 -294.5t230 -116.5q123 0 189.5 47t136.5 149l49 -32q-90 -131 -174 -176.5t-217 -45.5q-203 0 -328 151.5t-125 354.5zM246 561h532q0 96 -19.5 172t-81 136.5t-159.5 60.5 q-131 0 -201.5 -111t-70.5 -258zM254 1354q0 23 16.5 39t38.5 16q31 0 78 -43l307 -289h-59l-350 221q-31 21 -31 56z" />
<glyph unicode="&#xe9;" horiz-adv-x="1024" d="M90 481q0 227 119 366.5t326 139.5q182 0 290.5 -145.5t108.5 -337.5h-688v-60q0 -178 83 -294.5t230 -116.5q123 0 189.5 47t136.5 149l49 -32q-90 -131 -174 -176.5t-217 -45.5q-203 0 -328 151.5t-125 354.5zM246 561h532q0 96 -19.5 172t-81 136.5t-159.5 60.5 q-131 0 -201.5 -111t-70.5 -258zM391 1077l307 289q47 43 78 43q23 0 39 -16.5t16 -38.5q0 -35 -30 -56l-350 -221h-60z" />
<glyph unicode="&#xea;" horiz-adv-x="1024" d="M90 481q0 227 119 366.5t326 139.5q182 0 290.5 -145.5t108.5 -337.5h-688v-60q0 -178 83 -294.5t230 -116.5q123 0 189.5 47t136.5 149l49 -32q-90 -131 -174 -176.5t-217 -45.5q-203 0 -328 151.5t-125 354.5zM242 1077l254 336h84l256 -336h-48l-249 217l-254 -217 h-43zM246 561h532q0 96 -19.5 172t-81 136.5t-159.5 60.5q-131 0 -201.5 -111t-70.5 -258z" />
<glyph unicode="&#xeb;" horiz-adv-x="1024" d="M90 481q0 227 119 366.5t326 139.5q182 0 290.5 -145.5t108.5 -337.5h-688v-60q0 -178 83 -294.5t230 -116.5q123 0 189.5 47t136.5 149l49 -32q-90 -131 -174 -176.5t-217 -45.5q-203 0 -328 151.5t-125 354.5zM246 561h532q0 96 -19.5 172t-81 136.5t-159.5 60.5 q-131 0 -201.5 -111t-70.5 -258zM260 1202q0 35 24.5 59.5t57.5 24.5t57.5 -24.5t24.5 -59.5q0 -33 -23.5 -56.5t-58.5 -23.5t-58.5 23.5t-23.5 56.5zM653 1202q0 35 24.5 59.5t57.5 24.5t57.5 -24.5t24.5 -59.5q0 -33 -23.5 -56.5t-58.5 -23.5t-58.5 23.5t-23.5 56.5z" />
<glyph unicode="&#xec;" horiz-adv-x="530" d="M-63 1354q0 23 16 39t39 16q31 0 78 -43l307 -289h-60l-350 221q-30 21 -30 56zM23 0v57q104 0 140 17.5t36 64.5v684q0 47 -34 64.5t-128 17.5v58l301 12v-836q0 -47 34 -64.5t134 -17.5v-57h-483z" />
<glyph unicode="&#xed;" horiz-adv-x="530" d="M23 0v57q104 0 140 17.5t36 64.5v684q0 47 -34 64.5t-128 17.5v58l301 12v-836q0 -47 34 -64.5t134 -17.5v-57h-483zM84 1077l307 289q47 43 78 43q23 0 39 -16.5t16 -38.5q0 -35 -30 -56l-351 -221h-59z" />
<glyph unicode="&#xee;" horiz-adv-x="530" d="M-66 1077l254 336h84l256 -336h-47l-250 217l-254 -217h-43zM23 0v57q104 0 140 17.5t36 64.5v684q0 47 -34 64.5t-128 17.5v58l301 12v-836q0 -47 34 -64.5t134 -17.5v-57h-483z" />
<glyph unicode="&#xef;" horiz-adv-x="530" d="M-47 1202q0 35 24.5 59.5t57.5 24.5t57.5 -24.5t24.5 -59.5q0 -33 -23.5 -56.5t-58.5 -23.5t-58.5 23.5t-23.5 56.5zM23 0v57q104 0 140 17.5t36 64.5v684q0 47 -34 64.5t-128 17.5v58l301 12v-836q0 -47 34 -64.5t134 -17.5v-57h-483zM346 1202q0 35 24.5 59.5 t57.5 24.5t57.5 -24.5t24.5 -59.5q0 -33 -23.5 -56.5t-58.5 -23.5t-58.5 23.5t-23.5 56.5z" />
<glyph unicode="&#xf0;" d="M86 473q0 190 123 335.5t321 145.5q147 0 248 -82l4 5q-57 270 -213 391l-211 -119l-49 47l197 113q-104 59 -258 67l12 58q193 -6 332 -76l201 112l51 -47l-185 -104q315 -215 316 -799q0 -246 -119 -395.5t-326 -149.5q-199 0 -321.5 150.5t-122.5 347.5zM242 473 q0 -440 288.5 -440t288.5 440q0 424 -287 424q-290 0 -290 -424z" />
<glyph unicode="&#xf1;" horiz-adv-x="1138" d="M23 0v57q104 0 139 17.5t35 64.5v684q0 47 -33 64.5t-129 17.5v58l301 12v-180h4q63 100 134 146t181 46q135 0 217 -74.5t82 -207.5v-566q0 -47 31 -64.5t129 -17.5v-57h-299v705q0 225 -207 225q-121 0 -196.5 -118t-75.5 -245v-428q0 -47 33.5 -64.5t130.5 -17.5v-57 h-477zM250 1135q59 180 209 180q55 0 141 -45t119 -45q29 0 55.5 17.5t35.5 29.5t30 43h49q-29 -82 -87.5 -131t-131.5 -49q-39 0 -121 47q-78 47 -127 47q-98 0 -125 -94h-47z" />
<glyph unicode="&#xf2;" d="M86 481.5q0 202.5 122 354t322.5 151.5t322.5 -151.5t122 -354t-122 -354.5t-322.5 -152t-322.5 152t-122 354.5zM238 1354q0 23 16 39t39 16q31 0 78 -43l307 -289h-60l-350 221q-30 21 -30 56zM242 481.5q0 -448.5 288.5 -448.5t288.5 448.5t-288.5 448.5 t-288.5 -448.5z" />
<glyph unicode="&#xf3;" d="M86 481.5q0 202.5 122 354t322.5 151.5t322.5 -151.5t122 -354t-122 -354.5t-322.5 -152t-322.5 152t-122 354.5zM242 481.5q0 -448.5 288.5 -448.5t288.5 448.5t-288.5 448.5t-288.5 -448.5zM385 1077l307 289q47 43 78 43q23 0 39 -16.5t16 -38.5q0 -35 -30 -56 l-351 -221h-59z" />
<glyph unicode="&#xf4;" d="M86 481.5q0 202.5 122 354t322.5 151.5t322.5 -151.5t122 -354t-122 -354.5t-322.5 -152t-322.5 152t-122 354.5zM236 1077l253 336h84l256 -336h-47l-250 217l-253 -217h-43zM242 481.5q0 -448.5 288.5 -448.5t288.5 448.5t-288.5 448.5t-288.5 -448.5z" />
<glyph unicode="&#xf5;" d="M86 481.5q0 202.5 122 354t322.5 151.5t322.5 -151.5t122 -354t-122 -354.5t-322.5 -152t-322.5 152t-122 354.5zM211 1135q59 180 209 180q55 0 141 -45t119 -45q29 0 55.5 17.5t35.5 29.5t30 43h49q-29 -82 -87 -131t-132 -49q-39 0 -121 47q-78 47 -127 47 q-98 0 -125 -94h-47zM242 481.5q0 -448.5 288.5 -448.5t288.5 448.5t-288.5 448.5t-288.5 -448.5z" />
<glyph unicode="&#xf6;" d="M86 481.5q0 202.5 122 354t322.5 151.5t322.5 -151.5t122 -354t-122 -354.5t-322.5 -152t-322.5 152t-122 354.5zM242 481.5q0 -448.5 288.5 -448.5t288.5 448.5t-288.5 448.5t-288.5 -448.5zM254 1202q0 35 24.5 59.5t57.5 24.5t57.5 -24.5t24.5 -59.5 q0 -33 -23.5 -56.5t-58.5 -23.5t-58.5 23.5t-23.5 56.5zM647 1202q0 35 24.5 59.5t57.5 24.5t57.5 -24.5t24.5 -59.5q0 -33 -23.5 -56.5t-58.5 -23.5t-58.5 23.5t-23.5 56.5z" />
<glyph unicode="&#xf7;" horiz-adv-x="1228" d="M133 430v102h963v-102h-963zM502 864q0 47 33.5 81t81 34t81 -35t33.5 -80q0 -43 -33.5 -78.5t-79.5 -35.5q-47 0 -81.5 33.5t-34.5 80.5zM504 98q0 47 33.5 81t80.5 34q45 0 80 -35t35 -80q0 -43 -34.5 -78.5t-77.5 -35.5q-47 0 -82 33.5t-35 80.5z" />
<glyph unicode="&#xf8;" d="M86 481q0 203 122 354.5t322 151.5q119 0 222 -63l125 211h71l-145 -248q82 -70 127 -178.5t45 -227.5q0 -203 -122 -354.5t-323 -151.5q-123 0 -225 66l-133 -221h-76l156 262q-166 153 -166 399zM242 481q0 -209 61 -313l410 692q-70 70 -183 70q-288 0 -288 -449z M344 109q66 -76 186 -76q289 0 289 448q0 217 -65 324z" />
<glyph unicode="&#xf9;" horiz-adv-x="1138" d="M33 905v58l301 12v-744q0 -96 50 -147t142 -51q131 0 209 99t78 269v422q0 47 -34 64.5t-128 17.5v58l301 12v-836q0 -47 32 -64.5t122 -17.5v-57l-293 -12v151h-4q-59 -84 -127 -124t-180 -40q-307 0 -307 271v577q0 47 -34 64.5t-128 17.5zM276 1354q0 23 16.5 39 t39.5 16q31 0 78 -43l307 -289h-60l-350 221q-31 21 -31 56z" />
<glyph unicode="&#xfa;" horiz-adv-x="1138" d="M33 905v58l301 12v-744q0 -96 50 -147t142 -51q131 0 209 99t78 269v422q0 47 -34 64.5t-128 17.5v58l301 12v-836q0 -47 32 -64.5t122 -17.5v-57l-293 -12v151h-4q-59 -84 -127 -124t-180 -40q-307 0 -307 271v577q0 47 -34 64.5t-128 17.5zM424 1077l307 289 q47 43 78 43q23 0 39 -16.5t16 -38.5q0 -35 -30 -56l-351 -221h-59z" />
<glyph unicode="&#xfb;" horiz-adv-x="1138" d="M33 905v58l301 12v-744q0 -96 50 -147t142 -51q131 0 209 99t78 269v422q0 47 -34 64.5t-128 17.5v58l301 12v-836q0 -47 32 -64.5t122 -17.5v-57l-293 -12v151h-4q-59 -84 -127 -124t-180 -40q-307 0 -307 271v577q0 47 -34 64.5t-128 17.5zM274 1077l254 336h84 l256 -336h-47l-250 217l-254 -217h-43z" />
<glyph unicode="&#xfc;" horiz-adv-x="1138" d="M33 905v58l301 12v-744q0 -96 50 -147t142 -51q131 0 209 99t78 269v422q0 47 -34 64.5t-128 17.5v58l301 12v-836q0 -47 32 -64.5t122 -17.5v-57l-293 -12v151h-4q-59 -84 -127 -124t-180 -40q-307 0 -307 271v577q0 47 -34 64.5t-128 17.5zM293 1202q0 35 24.5 59.5 t57.5 24.5t57.5 -24.5t24.5 -59.5q0 -33 -23.5 -56.5t-58.5 -23.5t-58.5 23.5t-23.5 56.5zM686 1202q0 35 24.5 59.5t57.5 24.5t57.5 -24.5t24.5 -59.5q0 -33 -23.5 -56.5t-58.5 -23.5t-58.5 23.5t-23.5 56.5z" />
<glyph unicode="&#xfd;" horiz-adv-x="1024" d="M-4 905v58h461v-58q-72 0 -110 -6t-47 -15.5t-9 -27.5q0 -14 12 -52t40 -107.5t53.5 -133t71.5 -176.5t77 -188h4q35 88 77 190.5t67.5 167t50 125.5t36 99t11.5 59q0 37 -32 51t-120 14v58h389v-58q-78 0 -112.5 -22.5t-63.5 -94.5l-307 -768q-86 -217 -153.5 -292.5 t-180.5 -75.5q-80 0 -137.5 48t-57.5 116q0 49 31 79.5t74 30.5q37 0 63.5 -23.5t26.5 -56.5q0 -94 -96 -100q23 -37 106 -37q168 0 252 316l-319 802q-18 45 -55 61.5t-103 16.5zM379 1077l307 289q47 43 78 43q23 0 39 -16.5t16 -38.5q0 -35 -31 -56l-350 -221h-59z" />
<glyph unicode="&#xfe;" horiz-adv-x="1138" d="M20 -291q104 0 140.5 17.5t36.5 64.5v1471q0 47 -33 64t-129 17v58l301 8v-614h4l20 30q16 25 22.5 32t23 28.5t25.5 29t27.5 22.5t35 21.5t39 14.5t48 11t56.5 3q178 0 295 -152.5t117 -353.5q0 -203 -122 -354.5t-323 -151.5q-172 0 -264 129h-4v-313q0 -47 33.5 -64.5 t134.5 -17.5v-57h-484v57zM336 481q0 -260 60.5 -354t221.5 -94q123 0 203 110.5t80 338t-80 338t-202.5 110.5t-202.5 -111t-80 -338z" />
<glyph unicode="&#xff;" horiz-adv-x="1024" d="M-4 905v58h461v-58q-72 0 -110 -6t-47 -15.5t-9 -27.5q0 -14 12 -52t40 -107.5t53.5 -133t71.5 -176.5t77 -188h4q35 88 77 190.5t67.5 167t50 125.5t36 99t11.5 59q0 37 -32 51t-120 14v58h389v-58q-78 0 -112.5 -22.5t-63.5 -94.5l-307 -768q-86 -217 -153.5 -292.5 t-180.5 -75.5q-80 0 -137.5 48t-57.5 116q0 49 31 79.5t74 30.5q37 0 63.5 -23.5t26.5 -56.5q0 -94 -96 -100q23 -37 106 -37q168 0 252 316l-319 802q-18 45 -55 61.5t-103 16.5zM248 1202q0 35 24.5 59.5t57 24.5t57.5 -24.5t25 -59.5q0 -33 -23.5 -56.5t-58.5 -23.5 t-58.5 23.5t-23.5 56.5zM641 1202q0 35 24.5 59.5t57.5 24.5t57.5 -24.5t24.5 -59.5q0 -33 -23.5 -56.5t-58.5 -23.5t-58.5 23.5t-23.5 56.5z" />
<glyph unicode="&#x152;" horiz-adv-x="2009" d="M70 676q0 188 70.5 352t221 272.5t355.5 108.5h1093l13 -506h-56q-29 266 -141.5 357.5t-355.5 91.5q-92 0 -128 -20.5t-36 -94.5v-471h106q117 0 165 62.5t53 183.5h57v-549h-57q-4 121 -52.5 183.5t-165.5 62.5h-106v-566q0 -47 43 -66.5t143 -19.5q246 0 357.5 106.5 t146.5 368.5h55l-12 -532h-1245q-215 0 -369.5 213t-154.5 463zM258 672q0 -336 111.5 -475.5t314.5 -139.5q111 0 188.5 50.5t77.5 117.5v959q0 80 -75.5 124t-194.5 44q-422 0 -422 -680z" />
<glyph unicode="&#x153;" horiz-adv-x="1744" d="M74 481.5q0 200.5 127 353t327 152.5q225 0 361 -209q131 209 362 209q182 0 291 -145.5t109 -337.5h-688v-60q0 -174 90 -292.5t227 -118.5q119 0 185.5 47t136.5 149l49 -32q-90 -131 -174 -176.5t-217 -45.5q-219 0 -367 218q-133 -217 -365 -218q-201 0 -327.5 153 t-126.5 353.5zM229 481.5q0 -448.5 289 -448.5t289 448.5t-289 448.5t-289 -448.5zM963 561h532q2 94 -18.5 172t-82 137.5t-159.5 59.5q-131 0 -201.5 -111t-70.5 -258z" />
<glyph unicode="&#x178;" horiz-adv-x="1138" d="M0 1352v57h514v-57q-119 0 -152.5 -12.5t-33.5 -55.5q0 -29 30 -90l271 -537l272 525q31 55 31 104q0 66 -146 66v57h398v-57q-125 0 -156 -62l-362 -696v-395q0 -96 34.5 -119t171.5 -23v-57h-585v57q150 0 186.5 22.5t36.5 119.5v395l-367 709q-14 27 -44.5 38 t-98.5 11zM328 1606q0 35 24.5 59.5t57 24.5t57.5 -25t25 -59q0 -33 -24 -56.5t-58.5 -23.5t-58 23.5t-23.5 56.5zM721 1606q0 35 24.5 59.5t57.5 24.5t57.5 -25t24.5 -59q0 -33 -23.5 -56.5t-58.5 -23.5t-58.5 23.5t-23.5 56.5z" />
<glyph unicode="&#x2c6;" horiz-adv-x="530" d="M-31 1077l254 336h84l256 -336h-47l-250 217l-254 -217h-43z" />
<glyph unicode="&#x2dc;" horiz-adv-x="530" d="M-55 1135q59 180 209 180q55 0 141 -45t119 -45q29 0 55.5 17.5t35.5 29.5t30 43h49q-29 -82 -87.5 -131t-131.5 -49q-39 0 -121 47q-78 47 -127 47q-98 0 -125 -94h-47z" />
<glyph unicode="&#x2000;" horiz-adv-x="937" />
<glyph unicode="&#x2001;" horiz-adv-x="1878" />
<glyph unicode="&#x2002;" horiz-adv-x="937" />
<glyph unicode="&#x2003;" horiz-adv-x="1878" />
<glyph unicode="&#x2004;" horiz-adv-x="624" />
<glyph unicode="&#x2005;" horiz-adv-x="468" />
<glyph unicode="&#x2006;" horiz-adv-x="311" />
<glyph unicode="&#x2007;" horiz-adv-x="311" />
<glyph unicode="&#x2008;" horiz-adv-x="233" />
<glyph unicode="&#x2009;" horiz-adv-x="374" />
<glyph unicode="&#x200a;" horiz-adv-x="102" />
<glyph unicode="&#x2010;" horiz-adv-x="681" d="M84 426v111h512v-111h-512z" />
<glyph unicode="&#x2011;" horiz-adv-x="681" d="M84 426v111h512v-111h-512z" />
<glyph unicode="&#x2012;" horiz-adv-x="681" d="M84 426v111h512v-111h-512z" />
<glyph unicode="&#x2013;" horiz-adv-x="1024" d="M0 438v86h1024v-86h-1024z" />
<glyph unicode="&#x2014;" horiz-adv-x="2048" d="M0 438v86h2048v-86h-2048z" />
<glyph unicode="&#x2018;" horiz-adv-x="417" d="M80 1106q0 164 147 315l45 -37q-55 -63 -84.5 -122.5t-29.5 -147.5q160 0 159 -102q0 -43 -29.5 -71t-72.5 -28q-70 0 -102.5 58.5t-32.5 134.5z" />
<glyph unicode="&#x2019;" horiz-adv-x="417" d="M100 1323q0 43 30 70.5t73 27.5q70 0 102.5 -58t32.5 -134q0 -164 -148 -316l-45 37q55 63 85 123t30 148q-160 0 -160 102z" />
<glyph unicode="&#x201a;" horiz-adv-x="417" d="M100 90q0 43 30 70.5t73 27.5q70 0 102.5 -58t32.5 -134q0 -164 -148 -315l-45 36q55 63 85 123t30 148q-160 0 -160 102z" />
<glyph unicode="&#x201c;" horiz-adv-x="796" d="M80 1106q0 164 147 315l45 -37q-55 -63 -84.5 -122.5t-29.5 -147.5q160 0 159 -102q0 -43 -29.5 -71t-72.5 -28q-70 0 -102.5 58.5t-32.5 134.5zM461 1106q0 164 147 315l45 -37q-55 -63 -84.5 -122.5t-29.5 -147.5q160 0 159 -102q0 -43 -29.5 -71t-72.5 -28 q-70 0 -102.5 58.5t-32.5 134.5z" />
<glyph unicode="&#x201d;" horiz-adv-x="796" d="M100 1323q0 43 30 70.5t73 27.5q70 0 102.5 -58t32.5 -134q0 -164 -148 -316l-45 37q55 63 85 123t30 148q-160 0 -160 102zM481 1323q0 43 30 70.5t73 27.5q70 0 102.5 -58t32.5 -134q0 -164 -148 -316l-45 37q55 63 85 123t30 148q-160 0 -160 102z" />
<glyph unicode="&#x201e;" horiz-adv-x="796" d="M100 90q0 43 30 70.5t73 27.5q70 0 102.5 -58t32.5 -134q0 -164 -148 -315l-45 36q55 63 85 123t30 148q-160 0 -160 102zM481 90q0 43 30 70.5t73 27.5q70 0 102.5 -58t32.5 -134q0 -164 -148 -315l-45 36q55 63 85 123t30 148q-160 0 -160 102z" />
<glyph unicode="&#x2022;" horiz-adv-x="1024" d="M160 705q0 147 101 249.5t251 102.5q147 0 249.5 -102.5t102.5 -250t-102.5 -250t-249.5 -102.5t-248.5 103t-103.5 250z" />
<glyph unicode="&#x2026;" horiz-adv-x="2048" d="M238 86q0 41 30.5 71.5t71.5 30.5t71.5 -30.5t30.5 -71.5t-29.5 -71.5t-72.5 -30.5q-45 0 -73.5 28.5t-28.5 73.5zM922 86q0 41 30.5 71.5t71.5 30.5t71.5 -30.5t30.5 -71.5t-29.5 -71.5t-72.5 -30.5q-45 0 -73.5 28.5t-28.5 73.5zM1606 86q0 41 30.5 71.5t71.5 30.5 t71.5 -30.5t30.5 -71.5t-29.5 -71.5t-72.5 -30.5q-45 0 -73.5 28.5t-28.5 73.5z" />
<glyph unicode="&#x202f;" horiz-adv-x="374" />
<glyph unicode="&#x2039;" horiz-adv-x="681" d="M139 475v12q80 66 228 197q49 43 92 87t60.5 60.5t25.5 16.5q16 0 16 -21q0 -31 -104.5 -164t-153.5 -182q61 -66 155.5 -191.5t94.5 -152.5q0 -23 -16 -22q-8 0 -36 24.5t-75 73.5t-74 74q-16 16 -213 188z" />
<glyph unicode="&#x203a;" horiz-adv-x="681" d="M121 135q0 31 104.5 164t153.5 182q-61 66 -155.5 192t-94.5 152q0 23 16 23q8 0 36 -24.5t75 -74t74 -73.5q16 -16 213 -189v-12q-80 -66 -228 -196q-49 -43 -92 -87.5t-60.5 -60.5t-25.5 -16q-16 0 -16 20z" />
<glyph unicode="&#x205f;" horiz-adv-x="468" />
<glyph unicode="&#x20ac;" d="M10 561l25 70h117q-2 25 -2 74q0 39 8 120h-148l25 70h133q41 223 156.5 381t300.5 158q72 0 130 -31t91 -60.5t43 -29.5q12 0 20.5 11t15.5 35.5t9 29.5h47l2 -375h-49q-53 182 -126 272t-185 90q-250 0 -299 -481h483l-25 -70h-465q-4 -90 -4 -120q0 -47 2 -74h426 l-24 -70h-398q12 -133 42 -242.5t99.5 -197.5t168.5 -88q141 0 210.5 97t102.5 290h66q-35 -236 -129.5 -340.5t-249.5 -104.5q-90 0 -165 35t-126 92.5t-89 135t-59.5 157.5t-31.5 166h-148z" />
<glyph unicode="&#x2122;" horiz-adv-x="2027" d="M82 1233v176h684v-176h-41q-35 131 -141 131h-105v-649q0 -39 18.5 -51.5t86.5 -22.5v-45h-320v45q63 10 82 22.5t19 51.5v649h-101q-106 0 -141 -131h-41zM860 1364v45h223l330 -647l342 647h191v-45q-119 -6 -119 -119v-530q0 -39 18.5 -51.5t83.5 -22.5v-45h-317v45 q63 10 81.5 22.5t18.5 51.5v516h-4l-319 -641h-19l-317 635h-4v-457q0 -66 22.5 -92.5t85.5 -34.5v-45h-266v45q63 8 85.5 34.5t22.5 92.5v498q0 41 -46 69.5t-93 28.5z" />
<glyph unicode="&#xe000;" horiz-adv-x="965" d="M0 965h965v-965h-965v965z" />
<glyph unicode="&#xfb01;" horiz-adv-x="1099" d="M16 0v57q119 0 158 17.5t39 64.5v766h-164v58h164v131q0 150 96.5 232.5t263.5 82.5q137 0 207 -42t70 -107q0 -37 -26.5 -63t-65.5 -26q-43 0 -69.5 25t-26.5 66q0 47 53 69q-55 20 -162 21q-201 0 -201 -258v-131h273q45 0 96 2t114.5 5t98.5 5v-836q0 -47 33.5 -64.5 t134.5 -17.5v-57h-471v57q96 0 130 17.5t34 64.5v707q0 37 -48.5 48t-171.5 11h-223v-766q0 -47 39 -64.5t158 -17.5v-57h-533z" />
<glyph unicode="&#xfb02;" horiz-adv-x="1099" d="M16 0v57q119 0 158 17.5t39 64.5v766h-164v58h164v120q0 152 95 239t274 87q31 0 58.5 -4t54 -11.5t36.5 -9.5l203 9v-1254q0 -47 33.5 -64.5t134.5 -17.5v-57h-467v57q94 0 127 17.5t33 64.5v766h-443v-766q0 -47 39 -64.5t158 -17.5v-57h-533zM352 963h443v200 q-31 -10 -52 -10q-39 0 -62.5 24.5t-23.5 63.5q0 59 56 90q-57 20 -146 21q-102 0 -158.5 -51.5t-56.5 -147.5v-190z" />
<glyph unicode="&#xfb03;" horiz-adv-x="1820" d="M1313 0v57q104 0 140 17.5t36 64.5v684q0 47 -34 64.5t-128 17.5v58l301 12v-836q0 -47 34 -64.5t134 -17.5v-57h-483zM1444 1296q0 41 28.5 71t69.5 30t69.5 -29t28.5 -72q0 -41 -28.5 -68.5t-69.5 -27.5t-69.5 27.5t-28.5 68.5zM674 0v57q119 0 157.5 17.5t38.5 64.5 v766h-164v58h164v131q0 315 334 315q78 0 125 -46t47 -103q0 -37 -26.5 -63t-65.5 -26q-43 0 -69.5 25t-26.5 66q0 29 16 50t41 23v4q-31 12 -76 13q-82 0 -120.5 -49.5t-38.5 -126.5v-213h241v-58h-241v-766q0 -47 38.5 -64.5t157.5 -17.5v-57h-532zM29 0v57 q119 0 157.5 17.5t38.5 64.5v766h-164v58h164v131q0 315 334 315q78 0 125 -46t47 -103q0 -37 -26.5 -63t-65.5 -26q-43 0 -69.5 25t-26.5 66q0 29 16 50t41 23v4q-31 12 -76 13q-82 0 -120.5 -49.5t-38.5 -126.5v-213h241v-58h-241v-766q0 -47 38.5 -64.5t157.5 -17.5v-57 h-532z" />
<glyph unicode="&#xfb04;" horiz-adv-x="1820" d="M1313 0v57q104 0 140 17.5t36 64.5v1123q0 47 -34 64t-128 17v58l301 8v-1270q0 -47 34 -64.5t134 -17.5v-57h-483zM674 0v57q119 0 157.5 17.5t38.5 64.5v766h-164v58h164v131q0 315 334 315q78 0 125 -46t47 -103q0 -37 -26.5 -63t-65.5 -26q-43 0 -69.5 25t-26.5 66 q0 29 16 50t41 23v4q-31 12 -76 13q-82 0 -120.5 -49.5t-38.5 -126.5v-213h241v-58h-241v-766q0 -47 38.5 -64.5t157.5 -17.5v-57h-532zM29 0v57q119 0 157.5 17.5t38.5 64.5v766h-164v58h164v131q0 315 334 315q78 0 125 -46t47 -103q0 -37 -26.5 -63t-65.5 -26 q-43 0 -69.5 25t-26.5 66q0 29 16 50t41 23v4q-31 12 -76 13q-82 0 -120.5 -49.5t-38.5 -126.5v-213h241v-58h-241v-766q0 -47 38.5 -64.5t157.5 -17.5v-57h-532z" />
</font>
</defs>
</svg>
