<?xml version="1.0" standalone="no"?>
<!DOCTYPE svg PUBLIC "-//W3C//DTD SVG 1.1//EN" "http://www.w3.org/Graphics/SVG/1.1/DTD/svg11.dtd" >
<svg xmlns="http://www.w3.org/2000/svg">
<metadata>
This is a custom SVG webfont generated by Font Squirrel.
Copyright   : Copyright  1990 2001 Adobe Systems Incorporated  All Rights Reserved
Designer    : Tony Stan
Foundry URL : httpwwwadobecomtype
</metadata>
<defs>
<font id="ITCCenturyStdLightItalic" horiz-adv-x="681" >
<font-face units-per-em="2048" ascent="1409" descent="-639" />
<missing-glyph horiz-adv-x="569" />
<glyph unicode=" "  horiz-adv-x="569" />
<glyph unicode="&#x09;" horiz-adv-x="569" />
<glyph unicode="&#xa0;" horiz-adv-x="569" />
<glyph unicode="!" d="M78 67.5q0 36.5 26.5 64.5t63.5 28t63.5 -28t26.5 -64.5t-26.5 -64.5t-63.5 -28t-63.5 28t-26.5 64.5zM225 356q135 633 168 858q16 117 48 156t81 39q78 0 74 -86q-2 -25 -10 -60.5t-24.5 -86t-30 -86t-38 -100t-34.5 -91.5q-68 -178 -185 -543h-49z" />
<glyph unicode="&#x22;" d="M301 1268q-12 166 63.5 166t63.5 -166l-33 -418q0 -2 -1 -12.5t-2 -17.5t-4 -16t-9 -13.5t-14.5 -4.5t-14.5 4.5t-9 13.5t-4 16t-2 17.5t-1 12.5zM582 1268q-12 166 63.5 166t63.5 -166l-33 -418q0 -2 -1 -12.5t-2 -17.5t-4 -16t-9.5 -13.5t-14.5 -4.5t-14 4.5t-9.5 13.5 t-4.5 16t-2 17.5t-1 12.5z" />
<glyph unicode="#" horiz-adv-x="1138" d="M74 455v94h243l43 311h-233v94h246l63 455h99l-64 -455h281l63 455h96l-63 -455h217v-94h-231l-43 -311h221v-94h-234l-63 -455h-97l64 455h-283l-63 -455h-96l63 455h-229zM414 549h280l43 311h-280z" />
<glyph unicode="$" horiz-adv-x="1138" d="M27 297q0 57 29.5 101t78.5 44q41 0 67.5 -20.5t26.5 -59.5q0 -35 -24.5 -55t-57.5 -20q-10 0 -23 1t-18 1q-18 0 -18 -17q0 -90 89 -141t185 -53l164 612q-113 84 -162 162t-49 178q0 156 121 257.5t283 101.5l35 116h55l-35 -121q119 -29 186.5 -85t67.5 -125 q0 -41 -22.5 -69t-61.5 -28q-37 0 -60.5 20.5t-23.5 51.5q0 37 35 61.5t35 26.5q0 31 -49.5 59.5t-116.5 38.5l-141 -518q31 -25 99.5 -77t96 -78.5t55 -83t27.5 -127.5q0 -186 -149.5 -303t-339.5 -119l-50 -160h-61l49 162q-115 0 -219 76.5t-104 189.5zM424 78 q145 0 256 87t111 228q0 37 -11.5 70t-40 63.5t-45 47t-60.5 48t-54 40.5zM426 1071q0 -119 141 -219l138 483q-113 0 -196 -75.5t-83 -188.5z" />
<glyph unicode="%" horiz-adv-x="1705" d="M121 858q0 113 55 233.5t157.5 206.5t219.5 86q111 0 168 -86t57 -202q0 -186 -131 -351t-311 -165q-111 0 -163 80.5t-52 197.5zM223 774q0 -66 30 -109.5t91 -43.5q96 0 176 108.5t118 235.5t38 217q0 162 -133 161q-90 0 -168 -111.5t-115 -240.5t-37 -217zM317 -25 l912 1434h82l-914 -1434h-80zM848 274q0 180 128 352.5t304 172.5q113 0 169 -84t56 -203q0 -188 -130 -350t-312 -162q-111 0 -163 78.5t-52 195.5zM950 193q0 -66 30 -109t91 -43q76 0 141.5 64.5t105.5 155.5t62.5 183.5t22.5 155.5q0 78 -28.5 118t-104.5 40 q-90 0 -168 -111.5t-115 -238.5t-37 -215z" />
<glyph unicode="&#x26;" horiz-adv-x="1478" d="M45 360q0 92 42 164t121 119t142.5 72.5t157.5 52.5q-41 111 -41 268q0 176 119 287t274 111q150 0 228.5 -76t78.5 -178q0 -78 -29.5 -138.5t-93 -103.5t-114.5 -68.5t-142.5 -60.5t-130.5 -51q20 -88 99.5 -258t136.5 -256q66 88 242 428q57 111 141 110 q35 0 58.5 -20.5t23.5 -50.5q0 -72 -74 -72q-23 0 -45 13.5t-27 13.5q-18 0 -41 -43q-166 -307 -239 -428q86 -133 203 -134q145 0 221 209l47 -16q-35 -125 -115 -202t-201 -77q-57 0 -106 20.5t-74.5 41t-64.5 59.5q-168 -121 -355 -121q-190 0 -316 100.5t-126 284.5z M180 352q0 -131 92.5 -221t245.5 -90q160 0 285 104q-182 258 -285 570q-6 -2 -43 -15.5t-50 -19.5t-49 -21.5t-51.5 -29t-43 -34t-42 -44t-30.5 -53t-22.5 -66.5t-6.5 -80zM594 1044q0 -125 41 -233q205 78 278 133q127 96 127 236q0 201 -200 200q-123 0 -184.5 -101.5 t-61.5 -234.5z" />
<glyph unicode="'" horiz-adv-x="454" d="M338 1268q-12 166 63.5 166t63.5 -166l-33 -418q0 -2 -1 -12.5t-2 -17.5t-4 -16t-9 -13.5t-14.5 -4.5t-14.5 4.5t-9 13.5t-4 16t-2 17.5t-1 12.5z" />
<glyph unicode="(" horiz-adv-x="909" d="M57 221q0 168 35 336t108.5 324.5t177 277.5t253 193.5t323.5 72.5l-2 -53q-137 -2 -262 -74.5t-217 -191.5t-161.5 -267.5t-104.5 -308t-35 -307.5q0 -94 11.5 -179t41 -174t91 -141.5t149.5 -52.5l-8 -53q-106 0 -188.5 56.5t-125.5 149.5t-64.5 191.5t-21.5 200.5z " />
<glyph unicode=")" horiz-adv-x="909" d="M-150 -377l3 53q137 2 262 75t217 191.5t161.5 267t104.5 308.5t35 307q0 94 -11.5 179.5t-41 174.5t-91 141t-149.5 52l8 53q106 0 188 -56t125.5 -149.5t65 -191.5t21.5 -201q0 -168 -35 -335.5t-109 -324.5t-177 -277.5t-253 -193.5t-324 -73z" />
<glyph unicode="*" horiz-adv-x="948" d="M131 938q0 37 29.5 59.5t64.5 22.5q12 0 55.5 -4t77.5 -4q61 0 152 22q-55 57 -132 100.5t-118 71t-41 68.5q0 29 21.5 50.5t50.5 21.5q35 0 58.5 -27t38.5 -63.5t52 -93t88 -101.5q27 84 27 178q0 14 -3 45t-3 49q0 41 22.5 71t61.5 30q33 0 50 -20.5t17 -49.5 q0 -43 -22.5 -77t-57 -93t-57.5 -147q98 33 186.5 90t114.5 57q35 0 58.5 -19.5t23.5 -58.5q0 -37 -28.5 -59.5t-63.5 -22.5q-14 0 -58 3t-77 3q-72 0 -154 -20q55 -57 133 -100t118 -72t40 -70q0 -27 -21.5 -49t-48.5 -22q-43 0 -67.5 39.5t-65.5 115.5t-106 131 q-27 -94 -27 -178q0 -14 4 -45t4 -49q0 -39 -23.5 -71t-60.5 -32q-33 0 -50 22t-17 50q0 47 54 127t81 191q-98 -33 -185 -90.5t-114 -57.5q-33 0 -57.5 19.5t-24.5 58.5z" />
<glyph unicode="+" horiz-adv-x="1228" d="M133 434v94h434v435h95v-435h434v-94h-434v-434h-95v434h-434z" />
<glyph unicode="," horiz-adv-x="569" d="M-106 -340q203 172 202 297q0 35 -14 35q-49 0 -78 29.5t-29 78.5q0 33 28 58.5t69 25.5q59 0 88.5 -42t29.5 -101q0 -72 -19 -132.5t-63.5 -114.5t-77 -87t-91.5 -84z" />
<glyph unicode="-" d="M4 432l29 94h545l-27 -94h-547z" />
<glyph unicode="." horiz-adv-x="569" d="M16 67.5q0 36.5 27 64.5t63.5 28t63.5 -28t27 -64.5t-27 -64.5t-63.5 -28t-63.5 28t-27 64.5z" />
<glyph unicode="/" horiz-adv-x="569" d="M-182 -25l827 1459h109l-828 -1459h-108z" />
<glyph unicode="0" horiz-adv-x="1138" d="M70 487q0 229 92 449.5t247.5 359t325.5 138.5q158 0 247 -128t89 -384q0 -229 -92 -449.5t-248 -359t-325 -138.5q-158 0 -247 128t-89 384zM197 340q0 -311 211 -311q111 0 215 112.5t171.5 276.5t108.5 340t41 311q0 311 -211 311q-111 0 -215 -112.5t-171.5 -276.5 t-108.5 -340t-41 -311z" />
<glyph unicode="1" horiz-adv-x="1138" d="M106 0l15 53q143 12 190 35t70 100l293 1033h-240l15 53q86 0 187 38t173 97h51l-256 -940q-16 -57 -33.5 -121.5t-25.5 -92.5t-16.5 -58.5t-10.5 -47t-2 -30.5q0 -66 225 -66l-14 -53h-621z" />
<glyph unicode="2" horiz-adv-x="1138" d="M-45 82q0 115 116.5 215t377.5 260l92 55q205 127 292 250t87 264q0 135 -60.5 194.5t-181.5 59.5q-143 0 -275.5 -123.5t-132.5 -275.5q0 -121 109 -121q98 0 171 89t89 194l49 -13q-18 -133 -105 -228t-216 -95q-82 0 -122 51t-40 137q0 66 37 141.5t99 142.5 t161.5 111t210.5 44q158 0 258 -92.5t100 -251.5q0 -57 -13.5 -109.5t-30.5 -90.5t-56 -77t-65.5 -62.5t-85 -57.5t-88.5 -50t-99 -51q-242 -123 -524 -330l4 -4q82 16 125 16q74 0 135 -43t114.5 -86t106.5 -43q188 0 307 340l51 -18q-23 -76 -56.5 -148.5t-83.5 -143.5 t-122 -114t-153 -43q-66 0 -130.5 37t-106.5 80t-90 80t-87 37q-25 0 -41 -17.5t-16 -48.5q0 -80 -13.5 -111.5t-48.5 -31.5q-49 0 -49 82z" />
<glyph unicode="3" horiz-adv-x="1138" d="M-23 252q0 76 42 134t114 58q39 0 65.5 -24.5t26.5 -65.5q0 -37 -25.5 -59.5t-56.5 -22.5q-23 0 -48 10.5t-32 10.5q-20 -2 -20 -53q0 -104 87 -157.5t194 -53.5q178 0 298.5 128t120.5 306q0 84 -48 148.5t-120 64.5q-18 0 -54 -11.5t-56 -11.5q-61 0 -61.5 43t73.5 43 q14 0 60.5 -5t85.5 -5q100 0 187 139.5t87 274.5q0 104 -50 170.5t-159 66.5q-168 0 -276.5 -111.5t-108.5 -236.5q0 -59 29.5 -93t83.5 -34q63 0 126.5 58.5t102.5 177.5l53 -13q-35 -147 -117.5 -211.5t-166.5 -64.5q-74 0 -125 49t-51 131q0 160 136 281t314 121 t269.5 -94.5t91.5 -225.5q0 -94 -42 -173t-103.5 -126t-119 -73.5t-102.5 -32.5v-4q113 -55 167 -119t54 -162q0 -139 -85 -243.5t-210 -155t-264 -50.5q-147 0 -257 69t-110 208z" />
<glyph unicode="4" horiz-adv-x="1138" d="M-16 420q0 29 44 46t185 44q291 424 369 899h135q-8 -166 -138 -429t-311 -488q70 -6 169.5 -58.5t152.5 -68.5l192 700h113l-182 -700q39 2 72.5 14t71.5 45t50.5 46t55.5 58l28 -26q-35 -82 -126 -158t-189 -94l-101 -332h-110l88 332q-59 2 -128 53t-121 101.5 t-75 50.5q-16 0 -108 -37t-111 -37q-26 0 -26 39z" />
<glyph unicode="5" horiz-adv-x="1138" d="M18 250q0 82 42 135t98 53q98 0 98 -80q0 -37 -21.5 -56t-52.5 -19q-18 0 -40.5 4t-28.5 4q-33 0 -33 -41q0 -109 78 -165t202.5 -56t224 88t145.5 201.5t46 218.5q0 328 -260 327q-63 0 -116.5 -28.5t-82 -59.5t-77.5 -94l-58 14l271 713q86 -23 161 -35q96 -14 166 -14 q197 0 326 61l20 -49q-184 -152 -434 -151q-109 0 -229 26l-152 -397l4 -4q106 84 238 84q164 0 273.5 -110.5t109.5 -278.5q0 -248 -167 -407t-409 -159q-147 0 -244.5 79t-97.5 196z" />
<glyph unicode="6" horiz-adv-x="1138" d="M115 459q0 254 99 482t256 360.5t323 132.5q115 0 190.5 -47.5t75.5 -151.5q0 -43 -26.5 -75t-71.5 -32q-82 0 -82 82q0 74 73 74q29 0 29 21q0 25 -47 50t-119 25q-174 0 -298 -151.5t-185 -405.5l4 -4q47 43 71.5 63.5t87 46t132.5 25.5q141 0 242.5 -111.5 t101.5 -289.5q0 -199 -149.5 -388.5t-350.5 -189.5q-178 0 -267 135.5t-89 348.5zM242 326q0 -129 50 -213t152 -84q96 0 173 55t121 145t66.5 191.5t22.5 204.5q0 129 -56 202.5t-169 73.5q-154 0 -257 -166.5t-103 -408.5z" />
<glyph unicode="7" horiz-adv-x="1138" d="M162 915l151 465h58l-58 -174l4 -4q53 68 85 101.5t93.5 69.5t127.5 36q92 0 217 -88q45 -33 65.5 -45t57 -27.5t71.5 -15.5q57 0 58 31q0 16 -4.5 36.5t-4.5 28.5q0 55 43 55q61 0 62 -61q0 -29 -11.5 -53.5t-47 -65.5t-78.5 -84t-129 -137t-177 -197 q-254 -291 -301 -710q-6 -57 -22 -79t-57 -22q-72 0 -72 125q0 102 38 211t90 195t139 189.5t153.5 171t166 164.5t144.5 145l-4 4q-23 -12 -82 -13q-80 0 -203 61.5t-190 61.5q-90 0 -168 -93t-164 -282h-51z" />
<glyph unicode="8" horiz-adv-x="1138" d="M0 317q0 61 14.5 111.5t33 87.5t59 69.5t68.5 51t88.5 42t91 34t102.5 32.5q-63 53 -98 88t-68 95.5t-33 124.5q0 166 128 273.5t290 107.5t269.5 -84t107.5 -211q0 -133 -108.5 -226.5t-252.5 -138.5q238 -131 238 -377q0 -121 -80 -221t-194.5 -150.5t-231.5 -50.5 q-174 0 -299 94t-125 248zM111 311q0 -133 85 -207.5t210 -74.5q178 0 279 94t101 258q0 57 -19 105.5t-65.5 90t-76 63.5t-95.5 62q-419 -80 -419 -391zM377 1100q0 -88 84 -169t178 -122q61 27 102 51.5t91.5 66.5t76 102.5t25.5 135.5q0 102 -71.5 158.5t-178.5 56.5 q-127 0 -217 -77.5t-90 -202.5z" />
<glyph unicode="9" horiz-adv-x="1138" d="M4 184q0 55 31 99.5t84 44.5q37 0 63.5 -22.5t26.5 -55.5q0 -41 -28.5 -61.5t-65.5 -20.5q-29 0 -33 -16q0 -51 58.5 -87t135.5 -36q115 0 206 53t151.5 148.5t97.5 184.5t68 203l-4 5q-121 -152 -295 -152q-158 0 -249 114.5t-91 278.5q0 221 150.5 395.5t353.5 174.5 q182 0 269 -133.5t87 -325.5q0 -170 -52.5 -345t-144.5 -321.5t-237.5 -240t-315.5 -93.5q-104 0 -185 55.5t-81 153.5zM303 799q0 -274 197 -275q115 0 208 88t139 210t46 239q0 135 -59.5 227t-170 92t-195.5 -95t-125 -225t-40 -261z" />
<glyph unicode=":" horiz-adv-x="569" d="M49 67.5q0 36.5 26.5 64.5t63.5 28t63.5 -28t26.5 -64.5t-26.5 -64.5t-63.5 -28t-63.5 28t-26.5 64.5zM217 813q0 37 26.5 64.5t63.5 27.5t63.5 -27.5t26.5 -64.5t-26.5 -64.5t-63.5 -27.5t-63.5 27.5t-26.5 64.5z" />
<glyph unicode=";" horiz-adv-x="569" d="M-41 -340q203 172 203 297q0 35 -15 35q-49 0 -77.5 29.5t-28.5 78.5q0 33 27.5 58.5t68.5 25.5q59 0 89 -42t30 -101q0 -72 -19.5 -132.5t-63.5 -114.5t-77 -87t-92 -84zM217 813q0 37 26.5 64.5t63.5 27.5t63.5 -27.5t26.5 -64.5t-26.5 -64.5t-63.5 -27.5t-63.5 27.5 t-26.5 64.5z" />
<glyph unicode="&#x3c;" horiz-adv-x="1228" d="M133 430v102l963 445v-105l-848 -391l848 -391v-104z" />
<glyph unicode="=" horiz-adv-x="1228" d="M133 250v94h963v-94h-963zM133 618v95h963v-95h-963z" />
<glyph unicode="&#x3e;" horiz-adv-x="1228" d="M133 -14v104l848 391l-848 391v105l963 -445v-102z" />
<glyph unicode="?" horiz-adv-x="948" d="M115 67.5q0 36.5 26.5 64.5t63.5 28t63.5 -28t26.5 -64.5t-26.5 -64.5t-63.5 -28t-63.5 28t-26.5 64.5zM215 1100q0 139 100.5 224t229.5 85q152 0 252 -78t100 -225q0 -129 -76 -199.5t-213 -124.5q-317 -123 -317 -266q0 -98 74 -98q49 0 88 43t59 92l45 -16 q-25 -76 -77 -124t-115 -48q-57 0 -94.5 39.5t-37.5 101.5q0 51 20.5 95t63.5 80t76 57.5t92.5 53t77.5 42.5q207 123 207 317q0 92 -64.5 148.5t-158.5 56.5q-119 0 -199 -68.5t-80 -197.5q0 -45 35 -103l-41 -22q-47 74 -47 135z" />
<glyph unicode="@" horiz-adv-x="1638" d="M76 672q0 336 227 549t553 213q299 0 503 -178.5t204 -444.5q0 -180 -111 -340t-289 -160q-80 0 -132 47.5t-58 98.5h-6q-33 -47 -100.5 -96.5t-151.5 -49.5q-88 0 -144.5 62.5t-56.5 195.5q0 186 129 348t277 162q119 0 172 -114l24 86h137l-123 -469q-23 -86 -22 -117 q0 -88 88 -88q139 0 222 136t83 296q0 94 -44 193.5t-123 184.5t-204.5 139t-273.5 54q-279 0 -454 -193.5t-175 -535.5q0 -242 179.5 -426t470.5 -184q90 0 170.5 15.5t129 34t123.5 50.5l29 -49q-279 -117 -450 -117q-162 0 -298.5 45.5t-227.5 118t-155.5 165.5 t-93 186.5t-28.5 181.5zM649 555q0 -74 30 -116t81 -42q113 0 208 162t95 301q0 133 -121 133q-88 0 -190.5 -122.5t-102.5 -315.5z" />
<glyph unicode="A" horiz-adv-x="1327" d="M-209 0l16 53q86 0 140.5 22.5t93.5 84.5l799 1274h49l147 -1266q8 -68 44 -91.5t124 -23.5l-14 -53h-522l14 53q84 4 119 8.5t59.5 23.5t24.5 56t-8 111l-25 240h-524l-166 -275q-45 -82 -45 -102q0 -41 38 -51.5t173 -10.5l-13 -53h-524zM360 553h484l-72 653h-4z" />
<glyph unicode="B" horiz-adv-x="1327" d="M-119 0l15 53q59 0 88.5 2t65.5 21.5t48 60.5l267 950q45 156 45 191q0 39 -39 55.5t-127 22.5l14 53h557q215 0 326.5 -77t111.5 -218q0 -303 -397 -364v-5q141 -35 218 -110.5t77 -212.5q0 -422 -664 -422h-606zM262 143q0 -90 184 -90q233 0 330 41q223 94 223 375 q0 248 -325 248h-266l-76 -273q-70 -252 -70 -301zM418 770h270q109 0 198 33t152.5 115.5t63.5 205.5q0 231 -295 232q-55 0 -87 -3t-74 -14.5t-67.5 -41t-37.5 -76.5z" />
<glyph unicode="C" horiz-adv-x="1366" d="M74 575q0 211 121.5 413t310 324t377.5 122q104 0 195 -43t143 -109l75 111h66l-117 -482h-61q4 55 4 164q0 115 -76 204t-235 89q-190 0 -340 -137t-224.5 -339t-74.5 -421q0 -225 90 -327.5t264 -102.5q360 0 520 475l64 -20q-78 -252 -222.5 -386.5t-375.5 -134.5 q-227 0 -365.5 167t-138.5 433z" />
<glyph unicode="D" horiz-adv-x="1441" d="M-121 0l15 53q92 0 144 20.5t68 86.5l242 889q6 27 22.5 79t24.5 86.5t8 63.5q0 70 -157 78l14 53h526q164 0 284 -50t182.5 -139.5t91 -188.5t28.5 -216q0 -141 -54 -283.5t-153.5 -262t-256 -194.5t-343.5 -75h-686zM258 127q0 -74 125 -74h119q221 0 329 64 q104 61 184.5 163.5t122.5 216t62.5 218t20.5 196.5q0 444 -447 445q-113 0 -161 -31t-70 -111l-260 -964q-25 -98 -25 -123z" />
<glyph unicode="E" horiz-adv-x="1366" d="M-121 0l15 53q98 2 145 20.5t61 71.5l287 1080q10 37 10 65q0 31 -31.5 44.5t-127.5 21.5l14 53h1110l-105 -487h-55q14 84 15 182q0 143 -81 197.5t-278 54.5q-188 0 -243.5 -28t-82.5 -130l-110 -420h182q86 0 150.5 72t93.5 174h53l-149 -569h-41q0 168 -33 213 t-152 45h-125l-86 -326q-6 -27 -24.5 -88t-27.5 -98t-9 -58q0 -39 52 -64.5t147 -25.5q152 0 249 16.5t181 66.5t138 142.5t99 241.5l58 -12l-136 -508h-1163z" />
<glyph unicode="F" horiz-adv-x="1290" d="M-113 0l15 53q98 2 145 20.5t62 71.5l286 1080q10 37 11 65q0 31 -32 44.5t-128 21.5l14 53h1090l-117 -487h-49q8 63 8 127q0 174 -74 240.5t-252 66.5q-139 0 -218 -20.5t-97 -86.5l-131 -483h182q86 0 150.5 71.5t93.5 174.5h53l-149 -570h-41q0 168 -33 213t-152 45 h-125l-135 -516q-10 -37 -10 -65q0 -31 38 -44.5t161 -21.5l-13 -53h-553z" />
<glyph unicode="G" horiz-adv-x="1441" d="M82 573q0 215 117.5 416t307 323t386.5 122q39 0 72.5 -4.5t64.5 -16.5t50.5 -19.5t46 -27.5t35.5 -26.5t34 -28.5l27 -23l73 105h66l-113 -482h-67q6 61 6 123q0 156 -81 245t-210 89q-178 0 -329.5 -127t-236.5 -331.5t-85 -430.5q0 -438 348 -438q160 0 275.5 129 t115.5 338q0 63 -37 79.5t-174 22.5l14 66h596l-14 -66q-13 1 -25 1q-77 0 -124 -22q-55 -26 -76 -102l-131 -467h-45l-39 95q-68 -49 -96.5 -67.5t-100 -45.5t-143.5 -27q-231 0 -369.5 159.5t-138.5 438.5z" />
<glyph unicode="H" horiz-adv-x="1478" d="M-106 0l14 53q98 2 145 20.5t62 71.5l286 1080q10 37 11 65q0 31 -32 44.5t-128 21.5l14 53h512l-14 -53q-98 -2 -145.5 -20.5t-61.5 -71.5l-131 -496h645l121 457q10 37 10 65q0 31 -31.5 44.5t-128.5 21.5l15 53h512l-15 -53q-98 -2 -145 -20.5t-61 -71.5l-287 -1080 q-10 -37 -10 -65q0 -31 33.5 -44.5t136.5 -21.5l-13 -53h-524l14 53q98 2 145.5 20.5t61.5 71.5l150 562h-645l-140 -523q-10 -37 -10 -65q0 -31 34 -44.5t136 -21.5l-12 -53h-524z" />
<glyph unicode="I" d="M-106 0l14 53q98 2 145 20.5t62 71.5l286 1080q10 37 11 65q0 31 -32 44.5t-128 21.5l14 53h512l-14 -53q-98 -2 -145.5 -20.5t-61.5 -71.5l-287 -1080q-10 -37 -10 -65q0 -31 34 -44.5t136 -21.5l-12 -53h-524z" />
<glyph unicode="J" horiz-adv-x="1062" d="M-49 266q0 84 46 138.5t109 54.5q45 0 72 -23.5t27 -68.5q0 -41 -27.5 -64.5t-68.5 -23.5q-16 0 -39 10t-31 10q-27 0 -27 -47q0 -102 62.5 -156.5t173.5 -54.5q240 0 309 260l254 924q10 37 10 65q0 31 -31.5 44.5t-127.5 21.5l14 53h512l-14 -53q-98 -2 -145.5 -20.5 t-61.5 -71.5l-267 -988q-82 -301 -426 -301q-162 0 -242.5 81t-80.5 210z" />
<glyph unicode="K" horiz-adv-x="1366" d="M-96 0l14 53q98 2 145.5 20.5t61.5 71.5l287 1080q10 37 10 65q0 31 -32 44.5t-128 21.5l14 53h512l-14 -53q-98 -2 -145 -20.5t-62 -71.5l-164 -617l5 -4l727 596q45 35 45 66q0 29 -41 37t-144 14l15 53h538l-16 -53q-170 -6 -277 -94l-512 -424l277 -682 q41 -102 213 -103l-14 -53h-588l14 53q131 6 175 22.5t44 59.5q0 31 -24 92l-217 518l-248 -210l-94 -351q-10 -37 -11 -65q0 -31 34 -44.5t136 -21.5l-12 -53h-524z" />
<glyph unicode="L" horiz-adv-x="1251" d="M-94 0l14 53q98 2 145.5 20.5t61.5 71.5l287 1080q10 37 10 65q0 31 -32 44.5t-128 21.5l15 53h512l-15 -53q-98 -2 -145 -20.5t-62 -71.5l-286 -1080q-10 -37 -11 -65q0 -33 35 -48.5t135 -17.5h34q265 0 394 91q137 97 240 372l49 -8l-155 -508h-1098z" />
<glyph unicode="M" horiz-adv-x="1669" d="M-119 0l15 53q158 0 186 97l264 935q51 176 51 211q0 59 -151 60l14 53h346l86 -1171h4l707 1171h356l-14 -53q-94 0 -138 -18.5t-65 -92.5l-201 -770q-12 -45 -27.5 -100.5t-24.5 -91t-18 -70.5t-13.5 -56.5t-4.5 -33.5q0 -70 148 -70l-15 -53h-499l14 53q182 0 209 103 l291 1130h-4l-768 -1286h-58l-94 1315h-6l-164 -617q-12 -49 -59 -216t-67.5 -251t-20.5 -108q0 -63 182 -70l-14 -53h-447z" />
<glyph unicode="N" horiz-adv-x="1478" d="M-135 0l14 53q88 0 136 15.5t63 66.5l256 901q63 221 63 248q0 29 -31.5 41t-125.5 29q-6 2 -11 2l15 53h270l516 -1159h4l248 926q12 43 12 94q0 10 -3 18t-9 15.5t-12 12.5t-18.5 10t-21.5 8t-24.5 6t-25 5.5t-26.5 5.5t-28 5l11 53h460l-14 -53q-102 -16 -153.5 -49 t-69.5 -105l-318 -1202h-61l-528 1188h-4l-152 -563q-23 -86 -61.5 -221.5t-54 -196t-15.5 -82.5q0 -72 203 -72l-15 -53h-489z" />
<glyph unicode="O" horiz-adv-x="1478" d="M90 623q0 197 111.5 385t298 307t387.5 119q156 0 273.5 -96.5t171.5 -234.5t54 -288q0 -160 -65.5 -314.5t-169.5 -269t-244.5 -185.5t-283.5 -71q-186 0 -309.5 92.5t-173.5 233t-50 322.5zM242 430q0 -176 96 -282.5t264 -106.5q141 0 255 68.5t182.5 169t114.5 225.5 t63.5 229.5t17.5 188.5q0 127 -33 219t-89 139t-118.5 67.5t-136.5 20.5q-182 0 -327.5 -145.5t-217 -357.5t-71.5 -435z" />
<glyph unicode="P" horiz-adv-x="1290" d="M-104 0l14 53q98 2 145 20.5t62 71.5l286 1080q10 37 11 65q0 31 -32 44.5t-128 21.5l14 53h584q221 0 327.5 -88t106.5 -246q0 -199 -174 -321.5t-453 -122.5h-256l-118 -447q-10 -37 -11 -65q0 -31 36 -44.5t151 -21.5l-12 -53h-553zM420 696h280q188 0 311.5 114 t123.5 298q0 88 -51.5 156.5t-163.5 85.5q-41 6 -125 6q-125 0 -170 -22.5t-64 -94.5z" />
<glyph unicode="Q" horiz-adv-x="1478" d="M92 582q0 197 78 363.5t198.5 270t257 161t263.5 57.5q158 0 274.5 -95.5t169.5 -232.5t53 -291q0 -287 -182 -518t-393 -289q18 -121 49 -155q29 -33 80 -33q39 0 71.5 21.5t59.5 66.5t39 68.5t33 74.5l55 -12q-39 -141 -125 -243.5t-217 -102.5q-180 0 -184 287 q-14 -4 -47 -5q-242 0 -387.5 155t-145.5 452zM244 467q0 -41 2 -77t8 -64.5t10 -51t15.5 -44t15.5 -33t17.5 -27.5t17.5 -21.5t17 -18.5l15 -15l5 4q-27 45 -27 129t55.5 135t139.5 51q55 0 100 -22.5t71.5 -54t48 -82t32 -91.5t20.5 -98q139 53 240.5 210t144.5 331 t43 340q0 184 -102.5 292.5t-272.5 108.5q-145 0 -260 -78t-179.5 -187.5t-106.5 -243.5t-56 -230t-14 -162zM410 231q0 -84 59 -139t137 -55q20 0 66 4q4 29 4 109q0 219 -150 219q-57 0 -86.5 -38.5t-29.5 -99.5z" />
<glyph unicode="R" horiz-adv-x="1327" d="M-117 0l15 53q98 2 145 20.5t61 71.5l287 1080q10 37 10 65q0 31 -31.5 44.5t-127.5 21.5l14 53h514q475 0 475 -344q0 -127 -87 -214t-202.5 -121t-248.5 -38v-4q127 -70 163.5 -150.5t36.5 -246.5q0 -127 11.5 -172t50.5 -45q14 0 28.5 5t25.5 12t23.5 20.5t20.5 23.5 t18.5 28.5t15.5 29t14 32t12 29.5t11.5 28.5t8.5 22.5l55 -14q-37 -119 -108.5 -217.5t-173.5 -98.5q-164 0 -164 222v235q0 143 -57.5 197.5t-200.5 54.5h-101l-125 -500q-10 -37 -10 -65q0 -31 34 -44.5t136 -21.5l-12 -53h-537zM416 745h268q178 0 294 88.5t116 280.5 q0 242 -306 242q-109 0 -167 -28t-76 -97z" />
<glyph unicode="S" horiz-adv-x="1175" d="M-43 8l123 498h49q-8 -115 -8 -172q0 -143 81 -224t226 -81q176 0 278.5 89t102.5 255q0 94 -58.5 164.5t-142.5 114.5t-169 90t-143 119t-58 171q0 100 47 181t118.5 127t149.5 70t149 24q182 0 310 -158l69 117h52l-97 -484h-41v135q0 78 -21.5 148t-92 129t-183.5 59 q-129 0 -219 -79.5t-90 -206.5q0 -76 42 -134.5t105.5 -93.5t138.5 -79t138.5 -87t105.5 -119.5t42 -177.5q0 -184 -152 -306t-360 -122q-121 0 -200 34t-161 116l-84 -117h-47z" />
<glyph unicode="T" horiz-adv-x="1290" d="M115 911l145 498h1124l-118 -506h-60q23 203 23 223q0 119 -53.5 168t-182.5 49h-116l-302 -1159q-10 -37 -10 -65q0 -31 34 -44.5t136 -21.5l-12 -53h-576l15 53q51 0 81.5 3t69.5 14.5t63.5 40t37.5 75.5l315 1157h-131q-147 0 -236.5 -99t-193.5 -333h-53z" />
<glyph unicode="U" horiz-adv-x="1441" d="M139 315q0 37 9.5 84t17.5 78t27.5 94.5t25.5 81.5l92 320q74 250 74 301q0 41 -29.5 61.5t-124.5 20.5l15 53h502l-15 -53q-66 0 -99.5 -5t-63 -32t-44.5 -78l-151 -555q-92 -334 -92 -412q0 -106 91 -175.5t224 -69.5q176 0 284.5 92t166.5 299l165 598q55 203 56 254 q0 37 -48 60.5t-112 23.5l14 53h418l-12 -53q-84 0 -135.5 -33t-75.5 -125l-213 -805q-113 -418 -524 -418q-209 0 -326 87t-117 253z" />
<glyph unicode="V" horiz-adv-x="1290" d="M139 1356l15 53h512l-15 -53q-205 0 -205 -78q0 -72 17 -328l49 -723h4l516 770l25 37q16 25 25.5 39t23.5 35.5t22.5 36t19.5 33t17 31t11.5 26.5t8.5 25.5t3 21.5q0 23 -17.5 38t-54.5 22.5t-57.5 9.5t-65.5 4l11 53h479l-15 -53q-86 -12 -129 -47t-98 -117l-805 -1208 h-49l-92 1269q-4 63 -43 83t-113 20z" />
<glyph unicode="W" horiz-adv-x="1781" d="M139 1356l15 53h485l-14 -53q-121 -6 -157 -26.5t-36 -100.5v-940h4l502 874v119q0 33 -35 48.5t-119 25.5l15 53h481l-14 -53q-98 0 -137 -17.5t-39 -76.5q0 -70 14 -973h4l422 731q14 25 41.5 72t39 67.5t27 50t21.5 47t6 29.5q0 31 -34 42t-140 28l14 53h453l-14 -53 q-96 -12 -143.5 -43t-96.5 -113l-694 -1216h-45l-21 1069h-4l-600 -1069h-51v1233q0 88 -36 113.5t-114 25.5z" />
<glyph unicode="X" horiz-adv-x="1366" d="M-170 0l12 53q72 0 123 34t162 146l477 494l-217 535q-20 53 -55 71.5t-119 22.5l14 53h525l-15 -53q-78 -2 -114.5 -7.5t-59 -20.5t-22.5 -46q0 -27 26 -100l142 -342l354 350q55 55 55 98q0 39 -43 53.5t-141 14.5l14 53h533l-15 -53q-162 0 -311 -154l-420 -434 l228 -592q25 -68 68.5 -95.5t133.5 -27.5l-12 -53h-537l15 53q104 4 146 24.5t42 67.5q0 29 -24 93l-168 413l-430 -444q-57 -57 -58 -94q0 -35 42 -46.5t194 -13.5l-15 -53h-530z" />
<glyph unicode="Y" horiz-adv-x="1251" d="M164 1356l14 53h547l-14 -53q-25 0 -74 -4t-74 -4q-63 -2 -63 -58q0 -20 20 -102l142 -508l460 520q57 70 57.5 100.5t-37.5 40t-157 15.5l14 53h459l-14 -53q-111 0 -262 -180l-516 -607l-101 -385q-10 -37 -10 -65q0 -31 39 -44.5t164 -21.5l-13 -53h-577l14 53 q115 2 164 19.5t64 72.5l125 467l-185 645q-16 55 -54 74t-132 25z" />
<glyph unicode="Z" horiz-adv-x="1214" d="M-45 0l8 61l1084 1295h-197q-240 0 -367 -97.5t-207 -347.5l-53 11l137 487h877l-16 -66l-1076 -1290h310q215 0 335.5 104.5t219.5 342.5l49 -11l-144 -489h-960z" />
<glyph unicode="[" horiz-adv-x="833" d="M0 -352l502 1761h317l-14 -53h-125q-49 0 -68.5 -23.5t-38.5 -85.5l-413 -1448q-16 -41 -5 -69.5t66 -28.5h107l-15 -53h-313z" />
<glyph unicode="\" horiz-adv-x="569" d="M-145 1434h106l754 -1459h-107z" />
<glyph unicode="]" horiz-adv-x="833" d="M-78 -352l15 53h124q49 0 69 23.5t38 85.5l414 1447q16 41 4.5 70t-66.5 29h-106l14 53h313l-501 -1761h-318z" />
<glyph unicode="^" horiz-adv-x="1228" d="M190 662l377 747h95l376 -747h-112l-312 616l-311 -616h-113z" />
<glyph unicode="_" horiz-adv-x="1024" d="M0 -154h1024v-102h-1024v102z" />
<glyph unicode="`" d="M217 1380q0 18 17.5 36t35.5 18q16 0 30.5 -9.5t24 -19.5t29.5 -37l224 -278h-43l-271 219q-47 36 -47 71z" />
<glyph unicode="a" horiz-adv-x="1175" d="M25 348q0 139 57 264t142 204t176.5 125t164.5 46q172 0 226 -235h4l55 211h125l-152 -609q-55 -221 -55 -243q0 -35 18.5 -58.5t53.5 -23.5q51 0 116.5 93t122.5 249l45 -21q-82 -213 -147 -291q-72 -84 -158 -84q-154 0 -153 230l-7 4q-76 -109 -156.5 -171.5 t-191.5 -62.5q-147 0 -216.5 105.5t-69.5 267.5zM152 246q0 -92 44 -154.5t126 -62.5q94 0 177 68.5t134 168t79.5 201.5t28.5 180q0 287 -176 287q-102 0 -199.5 -110.5t-155.5 -270.5t-58 -307z" />
<glyph unicode="b" horiz-adv-x="1062" d="M78 250q0 80 57 291l121 456q63 236 63 277q0 57 -151 57l18 53h303l-163 -618l-2 -8l4 -4q53 88 139 160.5t172 72.5q145 0 224 -108.5t79 -288.5q0 -250 -165 -432.5t-398 -182.5q-145 0 -223 72t-78 203zM205 211q0 -88 52 -135t142 -47q186 0 301 201.5t115 453.5 q0 121 -50 185.5t-132 64.5q-92 0 -194.5 -121t-168 -291t-65.5 -311z" />
<glyph unicode="c" horiz-adv-x="948" d="M37 377q0 229 173 419.5t394 190.5q119 0 185.5 -49t66.5 -137q0 -49 -26.5 -79t-75.5 -30q-33 0 -57.5 22.5t-24.5 53.5t11 49.5t23.5 24.5t23.5 13t11 17q0 23 -32.5 42.5t-85.5 19.5q-188 0 -323.5 -203t-135.5 -424q0 -279 209 -278q240 0 385 344l49 -27 q-63 -166 -183 -268.5t-270 -102.5q-145 0 -231 108t-86 294z" />
<glyph unicode="d" horiz-adv-x="1214" d="M37 342q0 256 170 450.5t383 194.5q182 0 221 -196h4l64 227q59 221 59 250q0 35 -29.5 49t-111.5 14l14 53h299l-254 -958q-70 -266 -70 -324q0 -70 62 -69q55 0 125.5 95t134.5 243l45 -21q-145 -375 -322 -375q-68 0 -111.5 51.5t-43.5 139.5q0 16 4 53l-4 4 q-37 -82 -140.5 -165t-213.5 -83q-137 0 -211 111t-74 256zM164 291q0 -262 172 -262q115 0 218 117.5t157.5 268t54.5 271.5q0 248 -180 248q-94 0 -177 -75t-134.5 -181.5t-81 -210.5t-29.5 -176z" />
<glyph unicode="e" horiz-adv-x="985" d="M29 348q0 10 -1 20q0 240 195 424q203 191 443 195h8q97 0 161 -46q67 -48 66 -146q0 -102 -72.5 -179t-189.5 -117t-229.5 -58.5t-229.5 -22.5q-25 -90 -24 -170q0 -102 55 -160.5t151 -58.5q135 0 241 98t175 248l41 -23q-55 -154 -182 -265.5t-270 -111.5 q-158 0 -245 101.5t-93 271.5zM188 471q264 4 424 86q162 83 162 234q0 143 -137 143q-158 0 -281 -135t-168 -328z" />
<glyph unicode="f" horiz-adv-x="606" d="M-422 -242q0 90 82 90q70 0 70 -69q0 -29 -23.5 -51.5t-23.5 -28.5q0 -23 100 -23t176 80t115 191q29 86 62.5 256t74.5 429t45 277h-199l15 54h194q49 170 179 308t280 138q57 0 98 -29.5t41 -85.5q0 -90 -80 -90q-63 0 -63 64q0 27 18 45l19 18q0 25 -58 25 q-66 0 -124 -47t-94 -116t-58.5 -130.5t-26.5 -99.5h230l-15 -54h-227l-125 -729q-49 -281 -188.5 -419t-300.5 -138q-86 0 -139.5 39t-53.5 96z" />
<glyph unicode="g" horiz-adv-x="1062" d="M-86 -219q0 39 24.5 64.5t67.5 25.5q80 0 80 -70q0 -14 -18.5 -31.5t-18.5 -35.5q0 -25 39 -41.5t105 -16.5q330 0 409 295l57 213l-4 4q-8 -10 -46 -51t-59.5 -60.5t-60 -48t-81.5 -41t-95 -12.5q-125 0 -204.5 97.5t-79.5 279.5q0 129 53 250t134 204t175 132t176 49 q100 0 158.5 -63.5t75.5 -171.5h4l57 211h129l-276 -1016q-88 -324 -537 -324q-113 0 -188.5 46t-75.5 112zM156 250q0 -221 170 -221q92 0 176 67.5t138 168t85 208t31 193.5q0 113 -44 190.5t-147 77.5q-90 0 -186 -100.5t-159.5 -262t-63.5 -321.5z" />
<glyph unicode="h" horiz-adv-x="1214" d="M8 0l264 924q92 319 93 358q0 49 -154 49l14 53h314l-220 -763l5 -5q115 197 217 284t211 87q100 0 158.5 -65.5t58.5 -165.5q0 -98 -115 -355.5t-115 -289.5q0 -37 27 -59.5t61 -22.5q66 0 146 87t147 261l41 -19q-137 -383 -360 -383q-66 0 -115 57.5t-49 151.5 q0 98 114.5 335t114.5 298.5t-30.5 89t-98.5 27.5q-111 0 -230.5 -137.5t-203.5 -313.5t-131 -350l-37 -133h-127z" />
<glyph unicode="i" horiz-adv-x="757" d="M14 621q135 367 344 366q76 0 117 -50t41 -136q0 -94 -121 -368.5t-121 -317.5q0 -39 26 -62.5t62 -23.5q66 0 146 87t147 261l41 -19q-137 -383 -360 -383q-66 0 -115 57.5t-49 151.5q0 80 60.5 217.5t121 264.5t60.5 182q0 47 -17.5 66.5t-60.5 19.5q-135 0 -275 -328z M453 1317q0 39 25.5 65.5t66.5 26.5q39 0 65.5 -26.5t26.5 -65.5t-27.5 -65.5t-64.5 -26.5q-39 0 -65.5 26.5t-26.5 65.5z" />
<glyph unicode="j" d="M-293 -229q0 47 26.5 78.5t67.5 31.5q35 0 56.5 -20.5t21.5 -53.5q0 -45 -63 -65q-25 -6 -25 -18q0 -16 35 -32t88 -16q195 0 276 289l191 682q41 147 41 197q0 90 -70 90q-68 0 -140.5 -111.5t-111.5 -218.5l-49 14q135 369 334 369q78 0 117 -44t39 -112 q0 -47 -60 -270l-151 -565q-51 -188 -159 -280.5t-253 -92.5q-88 0 -149.5 44.5t-61.5 103.5zM477 1319q0 41 25.5 66.5t66.5 25.5q39 0 66 -26.5t27 -65.5t-28 -65.5t-65 -26.5q-39 0 -65.5 26.5t-26.5 65.5z" />
<glyph unicode="k" horiz-adv-x="1099" d="M16 0l289 1065q47 174 47 201q0 35 -30.5 50t-122.5 15l14 53h299l-213 -819h66q86 0 141 35t104 117q113 186 146 219q49 51 125 51q55 0 92 -34.5t37 -75.5q0 -37 -19.5 -64t-52.5 -27q-72 0 -72 62q0 14 5.5 29.5t10.5 24.5t5 11q0 20 -27 21q-18 0 -33.5 -8t-36 -36 t-35 -51.5t-50 -83t-64.5 -102.5q-57 -90 -180 -116v-5q211 -37 211 -282q0 -20 -2 -55t-2 -48q0 -86 59 -86q33 0 71 38t70.5 94.5t55 102.5t34.5 81l41 -19q-25 -72 -66.5 -151.5t-114.5 -155.5t-142 -76q-66 0 -100.5 47.5t-34.5 114.5q0 29 2 103.5t2 111.5 q0 78 -58.5 115t-130.5 37q-55 0 -75 -4l-140 -500h-125z" />
<glyph unicode="l" horiz-adv-x="606" d="M78 156q0 84 35 227l168 661q47 195 47 222q0 35 -29 50t-109 15l15 53h291l-215 -864q-16 -63 -35 -136t-29 -112t-19.5 -77.5t-13.5 -61t-4 -37.5q0 -31 18.5 -49t45.5 -18q57 0 131 90t119 237l43 -12q-109 -369 -324 -369q-57 0 -96 48.5t-39 132.5z" />
<glyph unicode="m" horiz-adv-x="1820" d="M-10 639q55 154 138 251t185 97q143 0 144 -221q0 -59 -17 -158l4 -4q6 8 61.5 98.5t91.5 137.5t102.5 97t131.5 50q92 0 137.5 -62.5t45.5 -164.5q0 -80 -17 -158l4 -4q113 199 189 276q113 113 237 113q100 0 144.5 -64.5t44.5 -156.5q0 -82 -61.5 -223.5t-123 -267 t-61.5 -175.5q0 -31 26.5 -51t61.5 -20q66 0 145.5 87t147.5 261l41 -19q-137 -383 -360 -383q-63 0 -113.5 52.5t-50.5 126.5q0 92 122.5 347t122.5 333q0 100 -100 100q-82 0 -168 -82t-155.5 -207t-120.5 -249t-82 -232l-47 -164h-129l176 635q33 115 33 178 q0 59 -19.5 90t-75.5 31q-78 0 -169 -105.5t-157.5 -236.5t-111.5 -260l-113 -332h-124l178 645q35 123 34 195q0 49 -13 71.5t-52 22.5q-129 0 -260 -311z" />
<glyph unicode="n" horiz-adv-x="1327" d="M-31 635q47 141 133 246.5t197 105.5q160 0 160 -207q0 -80 -25 -219l4 -4q41 70 65.5 112t76 110.5t94.5 107.5t103.5 69.5t121.5 30.5q195 0 195 -186q0 -94 -121 -368.5t-121 -317.5q0 -39 25.5 -62.5t62.5 -23.5q66 0 145.5 87t147.5 261l41 -19q-137 -383 -361 -383 q-66 0 -114.5 57.5t-48.5 151.5q0 80 60 217.5t120.5 264.5t60.5 182q0 49 -21.5 67.5t-84.5 18.5q-111 0 -230.5 -137.5t-203.5 -313.5t-132 -350l-36 -133h-127l200 743q16 61 17 101q0 90 -82 90q-88 0 -158 -93t-113 -218z" />
<glyph unicode="o" horiz-adv-x="1062" d="M37 377q0 248 164 429t381 181q162 0 261 -119.5t99 -287.5q0 -223 -166 -414t-391 -191q-162 0 -255 121t-93 281zM164 352q0 -160 50 -241.5t175 -81.5q133 0 235.5 107.5t146.5 244.5t44 266q0 287 -223 287q-104 0 -189.5 -61.5t-135.5 -154.5t-76.5 -189.5 t-26.5 -176.5z" />
<glyph unicode="p" horiz-adv-x="1214" d="M-150 -352l15 53q111 6 156 25.5t63 85.5l227 817q49 172 49 215q0 90 -67 90q-115 0 -236 -307l-43 16q27 68 50.5 116t60.5 106.5t85 90t101 31.5q72 0 110 -53t38 -141q0 -57 -10 -97h4q4 6 12 21q33 57 56.5 90t67.5 82t98 73.5t118 24.5q131 0 216 -109.5t85 -277.5 q0 -238 -174 -431.5t-354 -193.5q-193 0 -244 228h-4l-29 -109q-80 -297 -80 -331.5t43 -48t144 -13.5l-15 -53h-543zM379 295q0 -111 46 -188.5t140 -77.5q170 0 292 194.5t122 464.5q0 246 -178 246q-102 0 -203.5 -113.5t-160 -262t-58.5 -263.5z" />
<glyph unicode="q" horiz-adv-x="1062" d="M16 348q0 143 83 293t218.5 248t272.5 98q98 0 145 -33.5t99 -128.5l122 138h41l-229 -816q-14 -51 -35.5 -122.5t-33 -108.5t-19.5 -75t-8 -58q0 -82 168 -82l-15 -53h-551l15 53q211 0 248 129l100 334l-4 4q-147 -193 -328 -193q-119 0 -204 96.5t-85 276.5zM143 254 q0 -119 39 -172t129 -53q109 0 201 79.5t145.5 194.5t83 225.5t29.5 188.5q0 109 -44 163t-148 54q-111 0 -215.5 -130t-162 -287t-57.5 -263z" />
<glyph unicode="r" horiz-adv-x="948" d="M25 649q6 12 26.5 60.5t31.5 69t32.5 60.5t40 60.5t45 44t56.5 33.5t65 10q66 0 97.5 -53t31.5 -131q0 -59 -25 -262l4 -4q8 12 33.5 59t37 67.5t38 65.5t44 67.5t43 58.5t48 54.5t48.5 39t52.5 29.5t52.5 9q68 0 104 -36t36 -95q0 -47 -26 -77.5t-69 -30.5q-35 0 -56 20 t-21 55q0 45 31.5 61.5t31.5 26.5q0 23 -45 23q-68 0 -178.5 -149.5t-205.5 -345t-140 -347.5l-27 -92h-125l119 416q18 66 45 151.5t39 128.5t22.5 85t10.5 63q0 90 -70 90q-16 0 -33.5 -7t-32 -17.5t-29.5 -28t-27.5 -32.5t-27 -40t-22.5 -40t-21.5 -42t-18.5 -38 t-15 -35.5t-13 -26.5z" />
<glyph unicode="s" horiz-adv-x="872" d="M-12 193q0 49 25.5 79.5t74.5 30.5q35 0 58.5 -18.5t23.5 -51.5q0 -39 -25.5 -54t-50 -20t-24.5 -22q0 -35 58 -71.5t163 -36.5q117 0 199.5 58t82.5 161q0 57 -45 101t-108.5 75t-128 63.5t-109.5 88t-45 129.5q0 133 101.5 207.5t269.5 74.5q137 0 201.5 -56.5 t64.5 -113.5q0 -43 -24.5 -72.5t-67.5 -29.5q-33 0 -56.5 16.5t-23.5 49t19.5 48t39 19.5t19.5 10q0 37 -62.5 56.5t-109.5 19.5q-96 0 -170 -47t-74 -142q0 -61 46 -104t110.5 -71.5t130 -60.5t112 -87t46.5 -133q0 -106 -75 -182t-166 -104t-179 -28q-121 0 -211 53.5 t-90 164.5z" />
<glyph unicode="t" horiz-adv-x="645" d="M72 909l14 54h182l74 278h125l-70 -278h201l-14 -54h-199l-125 -475q-10 -43 -27.5 -102.5t-25.5 -91t-15.5 -67.5t-7.5 -58q0 -86 62 -86q141 0 272 340l45 -15q-72 -186 -150.5 -282.5t-183.5 -96.5q-78 0 -116.5 46.5t-38.5 123.5q0 84 51 279l127 485h-180z" />
<glyph unicode="u" horiz-adv-x="1327" d="M4 649q8 14 27.5 56.5t29 60.5t30 55t34.5 54.5t37.5 43t45 38t50.5 21.5t59 9q82 0 128.5 -58.5t46.5 -154.5q0 -86 -53.5 -216t-105.5 -245.5t-52 -165.5q0 -119 114 -118q78 0 159 59t140.5 145t100.5 163t57 128l139 439h129l-184 -693q-35 -139 -35 -159 q0 -82 66 -82q61 0 137 102t121 244l45 -15q-53 -176 -145.5 -280.5t-178.5 -104.5q-74 0 -110.5 56.5t-36.5 136.5q0 2 12 143l-4 4q-119 -178 -207 -259t-213 -81q-100 0 -154.5 61.5t-54.5 164.5q0 111 105.5 344t105.5 289q0 100 -86 100q-70 0 -120 -67.5t-134 -237.5z " />
<glyph unicode="v" horiz-adv-x="1099" d="M-18 659q53 141 137 234.5t190 93.5q68 0 107 -56.5t39 -137.5q0 -100 -92.5 -333t-92.5 -304q0 -127 144 -127q111 0 205 69.5t150 176t88 221t32 213.5q0 121 -45 129q-53 10 -73.5 26.5t-20.5 46.5q0 76 88 76q51 0 85.5 -54t34.5 -167q0 -193 -74.5 -375t-205.5 -299 t-281 -117q-104 0 -166.5 73t-62.5 183q0 88 100.5 330t100.5 287q0 47 -17.5 66.5t-60.5 19.5q-135 0 -262 -299z" />
<glyph unicode="w" horiz-adv-x="1593" d="M-4 645q8 14 34.5 70.5t40 81t43 69.5t53 65.5t60.5 38t76 17.5q76 0 119 -50t43 -130q0 -106 -101.5 -354t-101.5 -318q0 -57 30 -81.5t73 -24.5q94 0 220 147.5t177 306.5l156 480h118l-143 -529q-49 -186 -49 -260q0 -145 112 -145q121 0 229.5 119.5t166 273 t57.5 276.5q0 129 -43 129q-33 0 -55.5 21.5t-22.5 50.5q0 33 20.5 54.5t53.5 21.5q113 0 113 -215q0 -174 -73 -356.5t-195 -305.5t-246 -123q-102 0 -161 71t-59 173q0 61 13 105l-2 2q-2 -2 -34 -52.5t-64.5 -93.5t-82 -94t-110 -81t-123.5 -30q-80 0 -129 61.5 t-49 151.5q0 96 55 237.5t109.5 262.5t54.5 170q0 76 -84 76q-119 0 -248 -291q-8 -14 -10 -20z" />
<glyph unicode="x" horiz-adv-x="1175" d="M-61 135q0 55 30.5 91t75.5 36q35 0 54.5 -21.5t19.5 -54.5q0 -27 -16.5 -47t-32.5 -20q-37 0 -49.5 -8.5t-12.5 -30.5q0 -10 10.5 -21.5t38 -20.5t66.5 -9q98 0 184 88t136.5 212t78 239.5t27.5 189.5q0 176 -131 176q-43 0 -84 -24.5t-67.5 -51.5t-58.5 -81t-43 -77.5 t-36 -78.5l-45 16q29 72 54.5 121t67.5 108.5t98 90t124 30.5q84 0 134 -57.5t65.5 -127t15.5 -157.5h6q37 66 66.5 113t78 106.5t103.5 91t115 31.5q63 0 101 -32.5t38 -92.5q0 -43 -21.5 -67.5t-60.5 -24.5q-70 0 -70 59q0 29 19.5 44.5t19.5 19.5q0 12 -17 20.5t-38 8.5 q-82 0 -161 -92.5t-131 -220.5t-84 -254t-32 -199q0 -55 29 -89t82 -34q168 0 305 342l43 -17q-55 -162 -150.5 -272.5t-211.5 -110.5q-96 0 -143.5 73t-47.5 177q0 8 1 24.5t1 24.5l-4 2q-156 -301 -368 -301q-66 0 -119 42t-53 118z" />
<glyph unicode="y" horiz-adv-x="1138" d="M12 -188q0 45 29 71.5t74 26.5q80 0 80 -68q0 -29 -13.5 -45t-31 -19t-31 -11.5t-13.5 -22.5q0 -68 148 -68q80 0 143.5 15.5t109.5 52.5t77.5 74t59.5 102.5t44.5 116.5t38.5 137l45 168l-4 4q-43 -78 -72.5 -124t-83 -112.5t-116 -100.5t-131.5 -34q-80 0 -136.5 63.5 t-56.5 182.5q0 90 109.5 325.5t109.5 307.5q0 37 -20.5 58.5t-57.5 21.5q-135 0 -254 -309l-43 14q37 117 121 232.5t180 115.5q68 0 114 -47t46 -149q0 -100 -101.5 -335t-101.5 -313q0 -51 29 -82.5t80 -31.5q186 0 389 436q61 133 162 498h115l-250 -949 q-31 -117 -96.5 -200.5t-145.5 -121.5t-145.5 -53.5t-128.5 -15.5q-121 0 -196 55.5t-75 133.5z" />
<glyph unicode="z" horiz-adv-x="1024" d="M-49 84q0 121 131 207q98 66 274 165t306.5 178t183.5 130l-4 4q-100 -35 -162 -35q-70 0 -174.5 72t-140.5 72q-35 0 -67 -18.5t-52.5 -39t-43 -62.5t-31.5 -63.5t-26 -64.5l-43 16q41 137 127 239.5t197 102.5q55 0 102 -29.5t76 -64.5t72 -64.5t90 -29.5q98 0 98 71 q0 8 -4 25.5t-4 28.5q0 51 47 51q55 0 55 -74q0 -100 -104 -192.5t-328 -219.5q-80 -45 -186.5 -106t-171 -98t-107.5 -60l5 -4q88 37 143 37q76 0 141.5 -43t119.5 -86t105 -43q168 0 259 293l43 -8q-31 -156 -134.5 -276t-248.5 -120q-66 0 -122.5 33t-89 72t-73.5 71.5 t-80 32.5q-84 0 -84 -57q0 -10 8 -32.5t8 -35.5q0 -59 -55 -59t-55 84z" />
<glyph unicode="{" horiz-adv-x="909" d="M57 -225q0 53 25 141l108 371q20 68 21 121q0 80 -107 116q100 29 147.5 81t78.5 157l110 371q51 174 137.5 233t221.5 59l-17 -53q-92 0 -144 -59.5t-83 -167.5l-102 -352q-35 -117 -90.5 -178.5t-163.5 -88.5l-2 -4q121 -35 120 -121q0 -66 -22 -145l-105 -352 q-27 -90 -26 -140q0 -88 119 -88l-15 -53q-104 0 -157.5 32t-53.5 120z" />
<glyph unicode="|" horiz-adv-x="454" d="M180 0v1409h94v-1409h-94z" />
<glyph unicode="}" horiz-adv-x="909" d="M66 -377l16 53q92 0 144.5 59.5t82.5 168.5l103 352q35 117 90 178.5t164 87.5l2 4q-121 35 -121 121q0 66 22 146l105 352q27 90 26 139q0 88 -118 88l14 53q104 0 157.5 -31.5t53.5 -119.5q0 -53 -25 -141l-108 -371q-20 -68 -21 -121q0 -80 107 -117 q-100 -29 -147.5 -81t-77.5 -156l-111 -371q-51 -174 -137 -233.5t-221 -59.5z" />
<glyph unicode="~" horiz-adv-x="1228" d="M131 430q53 164 240 164q82 0 221 -65.5t184 -65.5q94 0 168 139l68 -70q-76 -164 -238 -163q-74 0 -196.5 65.5t-217.5 65.5q-121 0 -159 -135z" />
<glyph unicode="&#xa1;" d="M-23 -291q2 25 10.5 60.5t25 86t29.5 86t37.5 100t35.5 91.5q68 178 184 543h49q-135 -633 -168 -858q-16 -117 -48 -156t-81 -39q-78 0 -74 86zM315 964.5q0 36.5 27 64.5t63.5 28t63.5 -28t27 -64.5t-27 -64.5t-63.5 -28t-63.5 28t-27 64.5z" />
<glyph unicode="&#xa2;" horiz-adv-x="1138" d="M180 578q0 133 53.5 242.5t134.5 174t161.5 102.5t150.5 46l82 287h53l-80 -283q98 -2 160.5 -51t62.5 -113q0 -96 -86 -96q-74 0 -73 67q0 35 32.5 57.5t32.5 28.5q0 23 -31.5 42.5t-103.5 19.5h-6l-231 -811q127 2 209.5 77.5t154.5 217.5l39 -19 q-78 -168 -177.5 -247.5t-242.5 -81.5l-72 -254h-53l74 260q-102 20 -173 109.5t-71 224.5zM291 512q0 -88 42 -143.5t107 -71.5l228 799q-162 -33 -269.5 -214.5t-107.5 -369.5z" />
<glyph unicode="&#xa3;" horiz-adv-x="1138" d="M-160 188q0 90 65.5 139.5t162.5 49.5q33 0 62.5 -4t62 -16.5t50 -18.5t53.5 -29.5t46 -30t53 -39t49 -36.5q70 86 70 217q0 39 -5 70.5t-24.5 72.5t-27.5 55.5t-41 69.5h-324l14 62h271q-2 4 -26.5 45t-32 53t-26 49t-25.5 58.5t-14 51t-7 56.5q0 156 115.5 263.5 t271.5 107.5q104 0 190 -56.5t86 -163.5q0 -47 -22.5 -78.5t-67.5 -31.5q-33 0 -52 20.5t-19 53t19 48t39.5 21.5t20.5 19q0 39 -57 76.5t-131 37.5q-125 0 -204 -84t-79 -198q0 -84 60 -178l110 -170h355l-15 -62h-303q61 -117 62 -225q0 -147 -123 -305q90 -84 190 -84 q197 0 324 254l41 -23q-59 -143 -165 -236.5t-243 -93.5t-233 93q-147 -92 -314 -93q-96 0 -179 58.5t-83 154.5zM-98 184q0 -55 40 -92t84 -50t85 -13q66 0 135 22.5t112 63.5q-25 20 -86 82.5t-104 89t-96 28.5q-82 2 -126 -33t-44 -98z" />
<glyph unicode="&#xa4;" horiz-adv-x="1138" d="M53 172l111 117q-111 137 -111 313q0 193 115 313l-115 117l78 78l115 -113q133 113 315 113t316 -113l114 113l78 -78l-111 -110q111 -129 111 -320q0 -180 -108 -315l108 -115l-78 -78l-108 119q-133 -119 -322 -119q-186 0 -321 119l-109 -119zM164 602 q0 -168 116.5 -286.5t280.5 -118.5q166 0 281.5 119.5t115.5 285.5q0 164 -115.5 285t-281.5 121q-164 0 -280.5 -119t-116.5 -287z" />
<glyph unicode="&#xa5;" horiz-adv-x="1138" d="M41 463l16 61h334l23 88l-33 115h-270l16 61h235l-133 469q-16 55 -54 74t-132 25l14 53h547l-14 -53q-25 0 -74 -4t-74 -4q-63 -2 -63 -58q0 -20 20 -102l142 -508l460 520q57 70 57.5 100.5t-37.5 40t-157 15.5l15 53h458l-14 -53q-111 0 -262 -180l-328 -388h254 l-16 -61h-291l-135 -158l-13 -45h414l-16 -61h-414l-72 -279q-10 -37 -10 -65q0 -31 39 -44.5t164 -21.5l-12 -53h-578l14 53q115 2 164 19.5t64 72.5l86 318h-334z" />
<glyph unicode="&#xa6;" horiz-adv-x="454" d="M180 0v528h94v-528h-94zM180 881v528h94v-528h-94z" />
<glyph unicode="&#xa7;" horiz-adv-x="1024" d="M20 -53q0 45 32 79.5t73 34.5q35 0 59.5 -20.5t24.5 -46.5q0 -37 -23.5 -68.5t-47 -50t-23.5 -25.5q0 -29 44 -54t117 -25q94 0 157 58t63 153q0 74 -64 161l-219 301q-80 113 -80 201q0 123 68.5 193.5t163.5 70.5q49 0 98 -12l4 4q-115 135 -115 258t94.5 199t212.5 76 q100 0 171 -52.5t71 -132.5q0 -63 -26.5 -98t-71.5 -35q-35 0 -56.5 23.5t-21.5 58.5q0 45 33 82t33 55q0 31 -42 46.5t-79 15.5q-98 0 -161 -53.5t-63 -143.5q0 -20 4.5 -38.5t12.5 -39t16 -35t23.5 -35t22.5 -31.5t25.5 -32.5t24.5 -30.5l125 -153q111 -137 111 -270 q0 -102 -72.5 -181.5t-169.5 -79.5q-33 0 -84 11q49 -74 65.5 -101.5t32 -69.5t15.5 -87q0 -135 -92 -214t-230 -79q-111 0 -183.5 54.5t-72.5 158.5zM227 725q0 -102 131 -266q109 -139 199 -140q61 0 110.5 51.5t49.5 113t-24.5 110.5t-78.5 121q-55 76 -105 112.5 t-126 36.5q-68 0 -112 -36.5t-44 -102.5z" />
<glyph unicode="&#xa8;" d="M205 1206q0 35 23.5 59.5t58.5 24.5q33 0 57.5 -24.5t24.5 -59.5q0 -33 -25 -56.5t-57 -23.5q-35 0 -58.5 23.5t-23.5 56.5zM606 1206q0 35 23.5 59.5t58.5 24.5q33 0 57.5 -24.5t24.5 -59.5q0 -31 -25.5 -55.5t-56.5 -24.5q-35 0 -58.5 23.5t-23.5 56.5z" />
<glyph unicode="&#xa9;" horiz-adv-x="1638" d="M106 702q0 301 209 516.5t504 215.5q297 0 505 -214t208 -518q0 -301 -209 -514t-504 -213t-504 214t-209 513zM205 702q0 -256 183 -452.5t431 -196.5t431.5 195.5t183.5 453.5q0 260 -182.5 457t-432.5 197q-248 0 -431 -198t-183 -456zM406 702q0 160 128 293t345 133 q94 0 184 -24.5t90 -50.5v-156h-41q-8 182 -244 182q-158 0 -238.5 -97t-80.5 -267q0 -168 84 -268.5t254 -100.5q195 0 264 174h31l-39 -162q-2 -8 -40 -22t-104.5 -26.5t-132.5 -12.5q-195 0 -327.5 101t-132.5 304z" />
<glyph unicode="&#xaa;" horiz-adv-x="704" d="M102 1051q0 158 114 270.5t243 112.5q109 0 145 -142h4l35 129h76l-98 -366q-35 -131 -35 -148q0 -35 43 -35q55 0 91 51.5t68 141.5l29 -12q-18 -47 -30.5 -72t-38 -68t-58.5 -64.5t-69 -21.5q-100 0 -101 138l-4 2q-106 -139 -227 -140q-96 0 -141.5 63t-45.5 161z M184 997q0 -125 111 -125q80 0 144.5 67t94 148.5t29.5 149.5q0 152 -112 152q-102 0 -184.5 -133.5t-82.5 -258.5z" />
<glyph unicode="&#xab;" horiz-adv-x="1024" d="M119 498l383 329q59 53 71 54q20 0 21 -19q0 -16 -53 -74l-277 -290l150 -285q27 -49 26 -61q0 -16 -20 -17q-18 0 -51 43zM434 498l383 329q59 53 72 54q20 0 20 -19q0 -16 -53 -74l-276 -290l149 -285q27 -49 27 -61q0 -16 -21 -17q-18 0 -51 43z" />
<glyph unicode="&#xac;" horiz-adv-x="1228" d="M133 618v95h963v-463h-95v368h-868z" />
<glyph unicode="&#xad;" d="M4 432l29 94h545l-27 -94h-547z" />
<glyph unicode="&#xae;" horiz-adv-x="1638" d="M106 702q0 301 209 516.5t504 215.5q297 0 505 -214t208 -518q0 -301 -209 -514t-504 -213t-504 214t-209 513zM205 702q0 -256 183 -452.5t431 -196.5t431.5 195.5t183.5 453.5q0 260 -182.5 457t-432.5 197q-248 0 -431 -198t-183 -456zM475 330v37q111 0 111 104v510 q0 113 -111 113v28h365q104 0 179 -49t75 -143q0 -84 -49.5 -143.5t-126.5 -86.5l124 -170q111 -150 177 -176v-24h-119q-29 0 -53.5 25.5t-61.5 78.5l-162 246h-118v-209q0 -104 108 -104v-37h-338zM705 717h104q92 0 129 46t37 157q0 90 -43 127.5t-131 37.5h-96v-368z " />
<glyph unicode="&#xaf;" d="M182 1174l17 86h587l-16 -86h-588z" />
<glyph unicode="&#xb0;" horiz-adv-x="819" d="M119 1141q0 123 84 208t206.5 85t206.5 -85t84 -208t-84 -208t-206.5 -85t-206.5 85t-84 208zM188 1141q0 -92 64.5 -162t157 -70t157 70t64.5 162t-64.5 161.5t-157 69.5t-157 -69.5t-64.5 -161.5z" />
<glyph unicode="&#xb1;" horiz-adv-x="1228" d="M133 0v94h963v-94h-963zM133 520v94h434v349h95v-349h434v-94h-434v-348h-95v348h-434z" />
<glyph unicode="&#xb2;" d="M-2 623q0 68 64.5 129t156.5 111t185.5 103.5t158 128t64.5 160.5q0 63 -40 98.5t-110 35.5q-106 0 -180 -66t-74 -154q0 -68 56 -67q41 0 91 49t62 115l41 -6q-14 -84 -75.5 -143.5t-131.5 -59.5q-45 0 -74.5 34.5t-29.5 84.5q0 90 96 174t234 84q111 0 172 -51.5 t61 -143.5q0 -82 -33 -137t-97.5 -93t-136 -70t-174 -86t-186.5 -122l4 -2q45 10 78 10q68 0 131.5 -51t102.5 -51q115 0 192 203l49 -13q-33 -104 -101.5 -186t-168.5 -82q-76 0 -160 68q-6 4 -23.5 19.5t-24.5 20.5t-19.5 13t-21.5 11t-19 3q-45 0 -45 -32q0 -88 -41 -89 q-33 1 -33 50z" />
<glyph unicode="&#xb3;" d="M47 725q0 51 31 87t78 36q61 0 61 -55q0 -23 -16.5 -37.5t-38.5 -14.5q-8 0 -24.5 4.5t-20.5 4.5q-12 0 -13 -33q0 -113 177 -113q117 0 193.5 70.5t76.5 177.5q0 51 -26.5 88t-80.5 37q-10 0 -37.5 -6t-33.5 -6q-41 0 -41 28q0 35 47 35q12 0 35.5 -3t36.5 -3 q86 0 144 77t58 161q0 70 -34.5 99.5t-114.5 29.5q-98 0 -160.5 -62.5t-62.5 -128.5q0 -68 55 -68q100 0 147 136l47 -9q-16 -72 -67 -122t-129 -50q-51 0 -81 34t-30 83q0 88 88 160t207 72q111 0 172.5 -49.5t61.5 -143.5q0 -80 -77 -149.5t-163 -92.5v-4q63 -16 104 -61 t41 -107q0 -123 -113.5 -195.5t-250.5 -72.5q-102 0 -174 40t-72 126z" />
<glyph unicode="&#xb4;" d="M346 1090l281 268q61 59 94 59q57 0 57 -57q0 -33 -41 -57l-342 -213h-49z" />
<glyph unicode="&#xb5;" horiz-adv-x="1327" d="M-70 -295q0 78 105 287q354 723 354 842q0 100 -86 100q-70 0 -120 -67.5t-134 -237.5l-45 20q8 14 27.5 56.5t29 60.5t30 55t34.5 54.5t37.5 43t45 38t50.5 21.5t59 9q82 0 128.5 -58.5t46.5 -154.5q0 -86 -53.5 -216t-105.5 -245.5t-52 -165.5q0 -119 114 -118 q78 0 159 59t140.5 145t100.5 163t57 128l139 439h129l-184 -693q-35 -139 -35 -159q0 -82 66 -82q61 0 137 102t121 244l45 -15q-53 -176 -145.5 -280.5t-178.5 -104.5q-74 0 -110.5 56.5t-36.5 136.5q0 2 12 143l-4 4q-119 -178 -207 -259t-213 -81q-115 0 -166 78 l-37 -162q-39 -176 -71 -223q-39 -57 -107 -57q-76 0 -76 94z" />
<glyph unicode="&#xb6;" horiz-adv-x="1269" d="M242 860q0 250 150.5 399.5t416.5 149.5h489l-16 -57q-172 0 -199 -99l-444 -1577h-102l471 1676h-121l-471 -1676h-103l254 906q-170 0 -247.5 74.5t-77.5 203.5z" />
<glyph unicode="&#xb7;" horiz-adv-x="569" d="M170 481q0 47 34 81t81 34t80.5 -34t33.5 -81q0 -43 -33.5 -78.5t-78.5 -35.5q-47 0 -82 33.5t-35 80.5z" />
<glyph unicode="&#xb8;" d="M-94 -395l33 55q78 -35 129 -35q49 0 82.5 26.5t33.5 76.5q0 37 -27.5 58t-64.5 21q-33 0 -80 -14l-8 10l125 199h64l-82 -135q12 2 77 2q47 0 87 -38t40 -103q0 -80 -71.5 -122t-167.5 -42q-92 0 -170 41z" />
<glyph unicode="&#xb9;" d="M72 573l8 45q147 10 162 54l196 626h-155l8 45q137 0 235 76h33l-205 -696q-18 -63 -18 -72q0 -33 145 -33l-8 -45h-401z" />
<glyph unicode="&#xba;" horiz-adv-x="636" d="M106 1090q0 129 109 236.5t246 107.5q104 0 168.5 -72t64.5 -172q0 -133 -106.5 -248t-245.5 -115q-117 0 -176.5 75t-59.5 188zM188 1038q0 -166 148 -166q129 0 202.5 116t73.5 243q0 70 -37.5 114t-107.5 44q-131 0 -205 -113t-74 -238z" />
<glyph unicode="&#xbb;" horiz-adv-x="1024" d="M49 154q0 16 53 73l277 291l-150 285q-27 49 -26 61q0 16 20 17q18 0 51 -43l250 -320l-383 -330q-59 -53 -71 -53q-21 1 -21 19zM365 154q0 16 53 73l276 291l-149 285q-27 49 -27 61q0 16 21 17q18 0 51 -43l250 -320l-383 -330q-59 -53 -72 -53q-20 1 -20 19z" />
<glyph unicode="&#xbc;" horiz-adv-x="1708" d="M74 573l8 45q147 10 162 54l196 626h-155l8 45q137 0 235 76h33l-205 -696q-18 -63 -18 -72q0 -33 145 -33l-8 -45h-401zM334 25l940 1458h86l-938 -1458h-88zM901 256q0 29 46 44t106 15q184 238 237 531h88q0 -96 -84 -253t-200 -284q45 -4 103 -41t99 -47l121 418h74 l-117 -418q35 0 69 18.5t46 30t49 47.5l18 -16q-23 -51 -82 -97t-122 -57l-66 -196h-72l58 196q-57 0 -127 61.5t-86 61.5q-10 0 -58.5 -20.5t-72.5 -20.5q-27 0 -27 27z" />
<glyph unicode="&#xbd;" horiz-adv-x="1708" d="M72 573l8 45q147 10 162 54l196 626h-155l8 45q137 0 235 76h33l-205 -696q-18 -63 -18 -72q0 -33 145 -33l-8 -45h-401zM274 -25l940 1459h86l-938 -1459h-88zM842 39q0 68 64.5 129t156.5 111.5t185 103.5t157.5 128t64.5 161q0 63 -39.5 98t-109.5 35 q-106 0 -180 -65.5t-74 -153.5q0 -68 55 -68q41 0 91.5 49t62.5 115l41 -6q-14 -84 -75.5 -143.5t-131.5 -59.5q-45 0 -74.5 35t-29.5 84q0 90 96 174t233 84q111 0 172.5 -51t61.5 -144q0 -82 -33 -137t-97.5 -93t-136 -69.5t-174 -86t-186.5 -122.5l4 -2q45 10 78 11 q68 0 131.5 -51.5t101.5 -51.5q115 0 193 203l49 -12q-33 -104 -101.5 -186.5t-168.5 -82.5q-76 0 -160 68q-6 4 -23.5 19.5t-24.5 20.5t-19.5 13t-21.5 11.5t-19 3.5q-45 0 -46 -33q0 -88 -41 -88q-32 0 -32 49z" />
<glyph unicode="&#xbe;" horiz-adv-x="1708" d="M80 725q0 51 30.5 87t77.5 36q61 0 62 -55q0 -23 -16.5 -37.5t-38.5 -14.5q-8 0 -24.5 4.5t-20.5 4.5q-12 0 -13 -33q0 -113 176 -113q117 0 194 70.5t77 177.5q0 51 -27 88t-80 37q-10 0 -37.5 -6t-33.5 -6q-41 0 -41 28q0 35 47 35q12 0 35.5 -3t35.5 -3q86 0 144.5 77 t58.5 161q0 70 -35 99.5t-114 29.5q-98 0 -161 -62.5t-63 -128.5q0 -68 56 -68q100 0 147 136l47 -9q-16 -72 -67.5 -122t-128.5 -50q-51 0 -81 34t-30 83q0 88 88 160t207 72q111 0 172 -49.5t61 -143.5q0 -80 -76.5 -149.5t-162.5 -92.5v-4q63 -16 104 -61t41 -107 q0 -123 -113.5 -195.5t-250.5 -72.5q-102 0 -174 40t-72 126zM395 -25l940 1459h86l-938 -1459h-88zM950 256q0 29 46 44t106 15q184 238 237 531h88q0 -96 -83.5 -253t-200.5 -284q45 -4 103.5 -41t99.5 -47l120 418h74l-117 -418q35 0 69 18.5t46 30t49 47.5l19 -16 q-23 -51 -82.5 -97t-122.5 -57l-66 -196h-71l57 196q-57 0 -127 61.5t-86 61.5q-10 0 -58.5 -20.5t-72.5 -20.5q-27 0 -27 27z" />
<glyph unicode="&#xbf;" horiz-adv-x="948" d="M-37 -74q0 129 76 200t213 124q317 123 317 266q0 98 -73 98q-49 0 -88 -43t-60 -92l-45 17q25 76 77 124t116 48q57 0 94 -40t37 -102q0 -51 -20.5 -95t-63.5 -80t-76 -57.5t-92.5 -53t-77.5 -41.5q-207 -123 -207 -318q0 -92 64.5 -148.5t158.5 -56.5q119 0 199 69 t80 198q0 45 -35 102l41 23q47 -74 47 -136q0 -139 -100.5 -224t-229.5 -85q-152 0 -252 78t-100 225zM565 964.5q0 36.5 26.5 64.5t63.5 28t63.5 -28t26.5 -64.5t-26.5 -64.5t-63.5 -28t-63.5 28t-26.5 64.5z" />
<glyph unicode="&#xc0;" horiz-adv-x="1327" d="M-209 0l16 53q86 0 140.5 22.5t93.5 84.5l799 1274h49l147 -1266q8 -68 44 -91.5t124 -23.5l-14 -53h-522l14 53q84 4 119 8.5t59.5 23.5t24.5 56t-8 111l-25 240h-524l-166 -275q-45 -82 -45 -102q0 -41 38 -51.5t173 -10.5l-13 -53h-524zM360 553h484l-72 653h-4z M635 1757q0 18 17.5 35.5t35.5 17.5q16 0 30.5 -9t24 -19t29.5 -37l223 -279h-43l-270 220q-47 36 -47 71z" />
<glyph unicode="&#xc1;" horiz-adv-x="1327" d="M-209 0l16 53q86 0 140.5 22.5t93.5 84.5l799 1274h49l147 -1266q8 -68 44 -91.5t124 -23.5l-14 -53h-522l14 53q84 4 119 8.5t59.5 23.5t24.5 56t-8 111l-25 240h-524l-166 -275q-45 -82 -45 -102q0 -41 38 -51.5t173 -10.5l-13 -53h-524zM360 553h484l-72 653h-4z M764 1466l280 269q61 59 95 59q57 0 57 -57q0 -33 -41 -58l-342 -213h-49z" />
<glyph unicode="&#xc2;" horiz-adv-x="1327" d="M-209 0l16 53q86 0 140.5 22.5t93.5 84.5l799 1274h49l147 -1266q8 -68 44 -91.5t124 -23.5l-14 -53h-522l14 53q84 4 119 8.5t59.5 23.5t24.5 56t-8 111l-25 240h-524l-166 -275q-45 -82 -45 -102q0 -41 38 -51.5t173 -10.5l-13 -53h-524zM360 553h484l-72 653h-4z M584 1466l325 336h52l180 -336h-51l-164 226l-283 -226h-59z" />
<glyph unicode="&#xc3;" horiz-adv-x="1327" d="M-209 0l16 53q86 0 140.5 22.5t93.5 84.5l799 1274h49l147 -1266q8 -68 44 -91.5t124 -23.5l-14 -53h-522l14 53q84 4 119 8.5t59.5 23.5t24.5 56t-8 111l-25 240h-524l-166 -275q-45 -82 -45 -102q0 -41 38 -51.5t173 -10.5l-13 -53h-524zM360 553h484l-72 653h-4z M598 1516q4 74 53 137t119 63q61 0 164 -47q106 -47 145 -47q74 0 101 98h45q-23 -90 -62 -143t-119 -53q-33 0 -147 47q-106 47 -152 47q-39 0 -68.5 -32t-33.5 -70h-45z" />
<glyph unicode="&#xc4;" horiz-adv-x="1327" d="M-209 0l16 53q86 0 140.5 22.5t93.5 84.5l799 1274h49l147 -1266q8 -68 44 -91.5t124 -23.5l-14 -53h-522l14 53q84 4 119 8.5t59.5 23.5t24.5 56t-8 111l-25 240h-524l-166 -275q-45 -82 -45 -102q0 -41 38 -51.5t173 -10.5l-13 -53h-524zM360 553h484l-72 653h-4z M623 1583q0 35 23.5 59.5t58.5 24.5q33 0 57 -24.5t24 -59.5q0 -33 -24.5 -56.5t-56.5 -23.5q-35 0 -58.5 23.5t-23.5 56.5zM1024 1583q0 35 23.5 59.5t58.5 24.5q33 0 57.5 -24.5t24.5 -59.5q0 -31 -25.5 -55.5t-56.5 -24.5q-35 0 -58.5 23.5t-23.5 56.5z" />
<glyph unicode="&#xc5;" horiz-adv-x="1327" d="M-209 0l16 53q86 0 140.5 22.5t93.5 84.5l799 1274h49l147 -1266q8 -68 44 -91.5t124 -23.5l-14 -53h-522l14 53q84 4 119 8.5t59.5 23.5t24.5 56t-8 111l-25 240h-524l-166 -275q-45 -82 -45 -102q0 -41 38 -51.5t173 -10.5l-13 -53h-524zM360 553h484l-72 653h-4z M696 1659q0 82 58.5 140.5t140.5 58.5t140.5 -58.5t58.5 -140.5t-58.5 -140.5t-140.5 -58.5q-84 0 -141.5 58.5t-57.5 140.5zM758 1659q0 -57 39 -97t98 -40q57 0 97 40t40 97t-40 97t-97 40t-97 -40t-40 -97z" />
<glyph unicode="&#xc6;" horiz-adv-x="1820" d="M-229 0l14 53q82 0 130 25.5t105 101.5l746 967q74 94 74 143q0 33 -42 49.5t-96 16.5l15 53h1079l-88 -487h-49q8 63 8 127q0 174 -73.5 240.5t-252.5 66.5q-59 0 -94 -7.5t-67.5 -37t-49.5 -86.5l-120 -459h61q127 0 185.5 58.5t99.5 199.5h45l-137 -575h-41v90 q0 86 -29 123.5t-107 37.5h-92l-106 -438q-25 -104 -25 -135q0 -43 34 -58.5t134 -15.5q170 0 270.5 49.5t152.5 140.5t101 267h54l-123 -510h-975l4 53q176 0 199 90l137 521h-383l-371 -492q-29 -37 -28 -63q0 -55 168 -56l-15 -53h-452zM516 729h348l119 477q14 61 14 86 q0 31 -18 31q-20 0 -37 -25z" />
<glyph unicode="&#xc7;" horiz-adv-x="1366" d="M74 575q0 211 121.5 413t310 324t377.5 122q104 0 195 -43t143 -109l75 111h66l-117 -482h-61q4 55 4 164q0 115 -76 204t-235 89q-190 0 -340 -137t-224.5 -339t-74.5 -421q0 -225 90 -327.5t264 -102.5q360 0 520 475l64 -20q-147 -485 -537 -519l-68 -110q14 2 78 2 q47 0 87 -38t40 -103q0 -80 -71.5 -122t-167.5 -42q-92 0 -170 41l32 55q78 -35 129 -35q49 0 83 26.5t34 76.5q0 37 -27.5 58t-64.5 21q-33 0 -80 -14l-8 10l108 172q-227 2 -363 169t-136 431z" />
<glyph unicode="&#xc8;" horiz-adv-x="1366" d="M-121 0l15 53q98 2 145 20.5t61 71.5l287 1080q10 37 10 65q0 31 -31.5 44.5t-127.5 21.5l14 53h1110l-105 -487h-55q14 84 15 182q0 143 -81 197.5t-278 54.5q-188 0 -243.5 -28t-82.5 -130l-110 -420h182q86 0 150.5 72t93.5 174h53l-149 -569h-41q0 168 -33 213 t-152 45h-125l-86 -326q-6 -27 -24.5 -88t-27.5 -98t-9 -58q0 -39 52 -64.5t147 -25.5q152 0 249 16.5t181 66.5t138 142.5t99 241.5l58 -12l-136 -508h-1163zM653 1757q0 18 17.5 35.5t36.5 17.5q16 0 30.5 -9t23.5 -19t30 -37l223 -279h-43l-271 220q-47 36 -47 71z" />
<glyph unicode="&#xc9;" horiz-adv-x="1366" d="M-121 0l15 53q98 2 145 20.5t61 71.5l287 1080q10 37 10 65q0 31 -31.5 44.5t-127.5 21.5l14 53h1110l-105 -487h-55q14 84 15 182q0 143 -81 197.5t-278 54.5q-188 0 -243.5 -28t-82.5 -130l-110 -420h182q86 0 150.5 72t93.5 174h53l-149 -569h-41q0 168 -33 213 t-152 45h-125l-86 -326q-6 -27 -24.5 -88t-27.5 -98t-9 -58q0 -39 52 -64.5t147 -25.5q152 0 249 16.5t181 66.5t138 142.5t99 241.5l58 -12l-136 -508h-1163zM782 1466l281 269q61 59 94 59q57 0 57 -57q0 -33 -40 -58l-343 -213h-49z" />
<glyph unicode="&#xca;" horiz-adv-x="1366" d="M-121 0l15 53q98 2 145 20.5t61 71.5l287 1080q10 37 10 65q0 31 -31.5 44.5t-127.5 21.5l14 53h1110l-105 -487h-55q14 84 15 182q0 143 -81 197.5t-278 54.5q-188 0 -243.5 -28t-82.5 -130l-110 -420h182q86 0 150.5 72t93.5 174h53l-149 -569h-41q0 168 -33 213 t-152 45h-125l-86 -326q-6 -27 -24.5 -88t-27.5 -98t-9 -58q0 -39 52 -64.5t147 -25.5q152 0 249 16.5t181 66.5t138 142.5t99 241.5l58 -12l-136 -508h-1163zM602 1466l326 336h51l180 -336h-51l-164 226l-282 -226h-60z" />
<glyph unicode="&#xcb;" horiz-adv-x="1366" d="M-121 0l15 53q98 2 145 20.5t61 71.5l287 1080q10 37 10 65q0 31 -31.5 44.5t-127.5 21.5l14 53h1110l-105 -487h-55q14 84 15 182q0 143 -81 197.5t-278 54.5q-188 0 -243.5 -28t-82.5 -130l-110 -420h182q86 0 150.5 72t93.5 174h53l-149 -569h-41q0 168 -33 213 t-152 45h-125l-86 -326q-6 -27 -24.5 -88t-27.5 -98t-9 -58q0 -39 52 -64.5t147 -25.5q152 0 249 16.5t181 66.5t138 142.5t99 241.5l58 -12l-136 -508h-1163zM641 1583q0 35 23.5 59.5t58.5 24.5q33 0 57.5 -24.5t24.5 -59.5q0 -33 -24.5 -56.5t-57.5 -23.5 q-35 0 -58.5 23.5t-23.5 56.5zM1042 1583q0 35 24 59.5t58 24.5q33 0 57.5 -24.5t24.5 -59.5q0 -31 -25.5 -55.5t-56.5 -24.5q-35 0 -58.5 23.5t-23.5 56.5z" />
<glyph unicode="&#xcc;" d="M-106 0l14 53q98 2 145 20.5t62 71.5l286 1080q10 37 11 65q0 31 -32 44.5t-128 21.5l14 53h512l-14 -53q-98 -2 -145.5 -20.5t-61.5 -71.5l-287 -1080q-10 -37 -10 -65q0 -31 34 -44.5t136 -21.5l-12 -53h-524zM311 1757q0 18 17.5 35.5t36.5 17.5q16 0 30.5 -9 t23.5 -19t30 -37l223 -279h-43l-271 220q-47 36 -47 71z" />
<glyph unicode="&#xcd;" d="M-106 0l14 53q98 2 145 20.5t62 71.5l286 1080q10 37 11 65q0 31 -32 44.5t-128 21.5l14 53h512l-14 -53q-98 -2 -145.5 -20.5t-61.5 -71.5l-287 -1080q-10 -37 -10 -65q0 -31 34 -44.5t136 -21.5l-12 -53h-524zM440 1466l281 269q61 59 94 59q57 0 57 -57q0 -33 -41 -58 l-342 -213h-49z" />
<glyph unicode="&#xce;" d="M-106 0l14 53q98 2 145 20.5t62 71.5l286 1080q10 37 11 65q0 31 -32 44.5t-128 21.5l14 53h512l-14 -53q-98 -2 -145.5 -20.5t-61.5 -71.5l-287 -1080q-10 -37 -10 -65q0 -31 34 -44.5t136 -21.5l-12 -53h-524zM260 1466l326 336h51l180 -336h-51l-164 226l-283 -226 h-59z" />
<glyph unicode="&#xcf;" d="M-106 0l14 53q98 2 145 20.5t62 71.5l286 1080q10 37 11 65q0 31 -32 44.5t-128 21.5l14 53h512l-14 -53q-98 -2 -145.5 -20.5t-61.5 -71.5l-287 -1080q-10 -37 -10 -65q0 -31 34 -44.5t136 -21.5l-12 -53h-524zM299 1583q0 35 23.5 59.5t58.5 24.5q33 0 57.5 -24.5 t24.5 -59.5q0 -33 -24.5 -56.5t-57.5 -23.5q-35 0 -58.5 23.5t-23.5 56.5zM700 1583q0 35 24 59.5t58 24.5q33 0 57.5 -24.5t24.5 -59.5q0 -31 -25.5 -55.5t-56.5 -24.5q-35 0 -58.5 23.5t-23.5 56.5z" />
<glyph unicode="&#xd0;" horiz-adv-x="1441" d="M-121 0l15 53q92 0 144 20.5t68 86.5l158 581h-162l29 70h152l65 238l19 61q12 41 18 62.5t12 52t6 53.5q0 70 -157 78l14 53h526q164 0 284 -50t182.5 -139.5t91 -188.5t28.5 -216q0 -141 -54 -283.5t-153.5 -262t-256 -194.5t-343.5 -75h-686zM258 127q0 -74 125 -74 h119q221 0 329 64q104 61 184.5 163.5t122.5 216t62.5 218t20.5 196.5q0 444 -447 445q-113 0 -161 -31t-70 -111l-109 -403h438l-28 -70h-428l-133 -491q-25 -98 -25 -123z" />
<glyph unicode="&#xd1;" horiz-adv-x="1478" d="M-135 0l14 53q88 0 136 15.5t63 66.5l256 901q63 221 63 248q0 29 -31.5 41t-125.5 29q-6 2 -11 2l15 53h270l516 -1159h4l248 926q12 43 12 94q0 10 -3 18t-9 15.5t-12 12.5t-18.5 10t-21.5 8t-24.5 6t-25 5.5t-26.5 5.5t-28 5l11 53h460l-14 -53q-102 -16 -153.5 -49 t-69.5 -105l-318 -1202h-61l-528 1188h-4l-152 -563q-23 -86 -61.5 -221.5t-54 -196t-15.5 -82.5q0 -72 203 -72l-15 -53h-489zM674 1516q4 74 53 137t119 63q61 0 164 -47q106 -47 145 -47q74 0 100 98h45q-23 -90 -61.5 -143t-118.5 -53q-33 0 -147 47q-106 47 -152 47 q-39 0 -68.5 -32t-33.5 -70h-45z" />
<glyph unicode="&#xd2;" horiz-adv-x="1478" d="M90 623q0 197 111.5 385t298 307t387.5 119q156 0 273.5 -96.5t171.5 -234.5t54 -288q0 -160 -65.5 -314.5t-169.5 -269t-244.5 -185.5t-283.5 -71q-186 0 -309.5 92.5t-173.5 233t-50 322.5zM242 430q0 -176 96 -282.5t264 -106.5q141 0 255 68.5t182.5 169t114.5 225.5 t63.5 229.5t17.5 188.5q0 127 -33 219t-89 139t-118.5 67.5t-136.5 20.5q-182 0 -327.5 -145.5t-217 -357.5t-71.5 -435zM711 1757q0 18 17 35.5t36 17.5q16 0 30.5 -9t23.5 -19t30 -37l223 -279h-43l-270 220q-47 36 -47 71z" />
<glyph unicode="&#xd3;" horiz-adv-x="1478" d="M90 623q0 197 111.5 385t298 307t387.5 119q156 0 273.5 -96.5t171.5 -234.5t54 -288q0 -160 -65.5 -314.5t-169.5 -269t-244.5 -185.5t-283.5 -71q-186 0 -309.5 92.5t-173.5 233t-50 322.5zM242 430q0 -176 96 -282.5t264 -106.5q141 0 255 68.5t182.5 169t114.5 225.5 t63.5 229.5t17.5 188.5q0 127 -33 219t-89 139t-118.5 67.5t-136.5 20.5q-182 0 -327.5 -145.5t-217 -357.5t-71.5 -435zM840 1466l280 269q61 59 94 59q57 0 58 -57q0 -33 -41 -58l-342 -213h-49z" />
<glyph unicode="&#xd4;" horiz-adv-x="1478" d="M90 623q0 197 111.5 385t298 307t387.5 119q156 0 273.5 -96.5t171.5 -234.5t54 -288q0 -160 -65.5 -314.5t-169.5 -269t-244.5 -185.5t-283.5 -71q-186 0 -309.5 92.5t-173.5 233t-50 322.5zM242 430q0 -176 96 -282.5t264 -106.5q141 0 255 68.5t182.5 169t114.5 225.5 t63.5 229.5t17.5 188.5q0 127 -33 219t-89 139t-118.5 67.5t-136.5 20.5q-182 0 -327.5 -145.5t-217 -357.5t-71.5 -435zM659 1466l326 336h51l181 -336h-52l-164 226l-282 -226h-60z" />
<glyph unicode="&#xd5;" horiz-adv-x="1478" d="M90 623q0 197 111.5 385t298 307t387.5 119q156 0 273.5 -96.5t171.5 -234.5t54 -288q0 -160 -65.5 -314.5t-169.5 -269t-244.5 -185.5t-283.5 -71q-186 0 -309.5 92.5t-173.5 233t-50 322.5zM242 430q0 -176 96 -282.5t264 -106.5q141 0 255 68.5t182.5 169t114.5 225.5 t63.5 229.5t17.5 188.5q0 127 -33 219t-89 139t-118.5 67.5t-136.5 20.5q-182 0 -327.5 -145.5t-217 -357.5t-71.5 -435zM674 1516q4 74 53 137t119 63q61 0 164 -47q106 -47 145 -47q74 0 100 98h45q-23 -90 -61.5 -143t-118.5 -53q-33 0 -147 47q-106 47 -152 47 q-39 0 -68.5 -32t-33.5 -70h-45z" />
<glyph unicode="&#xd6;" horiz-adv-x="1478" d="M90 623q0 197 111.5 385t298 307t387.5 119q156 0 273.5 -96.5t171.5 -234.5t54 -288q0 -160 -65.5 -314.5t-169.5 -269t-244.5 -185.5t-283.5 -71q-186 0 -309.5 92.5t-173.5 233t-50 322.5zM242 430q0 -176 96 -282.5t264 -106.5q141 0 255 68.5t182.5 169t114.5 225.5 t63.5 229.5t17.5 188.5q0 127 -33 219t-89 139t-118.5 67.5t-136.5 20.5q-182 0 -327.5 -145.5t-217 -357.5t-71.5 -435zM698 1583q0 35 23.5 59.5t58.5 24.5q33 0 57.5 -24.5t24.5 -59.5q0 -33 -24.5 -56.5t-57.5 -23.5q-35 0 -58.5 23.5t-23.5 56.5zM1100 1583 q0 35 23.5 59.5t58.5 24.5q33 0 57.5 -24.5t24.5 -59.5q0 -31 -26 -55.5t-56 -24.5q-35 0 -58.5 23.5t-23.5 56.5z" />
<glyph unicode="&#xd7;" horiz-adv-x="1228" d="M133 66l414 415l-414 416l66 66l415 -414l416 414l66 -66l-416 -416l416 -415l-66 -66l-416 416l-415 -416z" />
<glyph unicode="&#xd8;" horiz-adv-x="1478" d="M90 573q0 176 66.5 336t177 274.5t256 182.5t297.5 68q117 0 209 -52l104 183h86l-129 -224q109 -84 169 -229t60 -297q0 -160 -65.5 -314.5t-169.5 -269t-244.5 -185.5t-283.5 -71q-125 0 -226 45l-135 -233h-86l156 270q-41 33 -66.5 58.5t-75 90t-75 158.5t-25.5 209z M242 442q0 -229 125 -325l692 1202q-82 49 -201 49q-184 0 -328.5 -143.5t-216 -352.5t-71.5 -430zM430 76q68 -35 172 -35q141 0 255 68.5t182.5 169t114.5 225.5t63.5 229.5t17.5 188.5q0 240 -117 352z" />
<glyph unicode="&#xd9;" horiz-adv-x="1441" d="M139 315q0 37 9.5 84t17.5 78t27.5 94.5t25.5 81.5l92 320q74 250 74 301q0 41 -29.5 61.5t-124.5 20.5l15 53h502l-15 -53q-66 0 -99.5 -5t-63 -32t-44.5 -78l-151 -555q-92 -334 -92 -412q0 -106 91 -175.5t224 -69.5q176 0 284.5 92t166.5 299l165 598q55 203 56 254 q0 37 -48 60.5t-112 23.5l14 53h418l-12 -53q-84 0 -135.5 -33t-75.5 -125l-213 -805q-113 -418 -524 -418q-209 0 -326 87t-117 253zM705 1757q0 18 17 35.5t36 17.5q16 0 30.5 -9t23.5 -19t30 -37l223 -279h-43l-270 220q-47 36 -47 71z" />
<glyph unicode="&#xda;" horiz-adv-x="1441" d="M139 315q0 37 9.5 84t17.5 78t27.5 94.5t25.5 81.5l92 320q74 250 74 301q0 41 -29.5 61.5t-124.5 20.5l15 53h502l-15 -53q-66 0 -99.5 -5t-63 -32t-44.5 -78l-151 -555q-92 -334 -92 -412q0 -106 91 -175.5t224 -69.5q176 0 284.5 92t166.5 299l165 598q55 203 56 254 q0 37 -48 60.5t-112 23.5l14 53h418l-12 -53q-84 0 -135.5 -33t-75.5 -125l-213 -805q-113 -418 -524 -418q-209 0 -326 87t-117 253zM834 1466l280 269q61 59 94 59q57 0 58 -57q0 -33 -41 -58l-342 -213h-49z" />
<glyph unicode="&#xdb;" horiz-adv-x="1441" d="M139 315q0 37 9.5 84t17.5 78t27.5 94.5t25.5 81.5l92 320q74 250 74 301q0 41 -29.5 61.5t-124.5 20.5l15 53h502l-15 -53q-66 0 -99.5 -5t-63 -32t-44.5 -78l-151 -555q-92 -334 -92 -412q0 -106 91 -175.5t224 -69.5q176 0 284.5 92t166.5 299l165 598q55 203 56 254 q0 37 -48 60.5t-112 23.5l14 53h418l-12 -53q-84 0 -135.5 -33t-75.5 -125l-213 -805q-113 -418 -524 -418q-209 0 -326 87t-117 253zM653 1466l326 336h51l180 -336h-51l-164 226l-282 -226h-60z" />
<glyph unicode="&#xdc;" horiz-adv-x="1441" d="M139 315q0 37 9.5 84t17.5 78t27.5 94.5t25.5 81.5l92 320q74 250 74 301q0 41 -29.5 61.5t-124.5 20.5l15 53h502l-15 -53q-66 0 -99.5 -5t-63 -32t-44.5 -78l-151 -555q-92 -334 -92 -412q0 -106 91 -175.5t224 -69.5q176 0 284.5 92t166.5 299l165 598q55 203 56 254 q0 37 -48 60.5t-112 23.5l14 53h418l-12 -53q-84 0 -135.5 -33t-75.5 -125l-213 -805q-113 -418 -524 -418q-209 0 -326 87t-117 253zM692 1583q0 35 23.5 59.5t58.5 24.5q33 0 57.5 -24.5t24.5 -59.5q0 -33 -24.5 -56.5t-57.5 -23.5q-35 0 -58.5 23.5t-23.5 56.5z M1094 1583q0 35 23.5 59.5t58.5 24.5q33 0 57 -24.5t24 -59.5q0 -31 -25.5 -55.5t-55.5 -24.5q-35 0 -58.5 23.5t-23.5 56.5z" />
<glyph unicode="&#xdd;" horiz-adv-x="1251" d="M164 1356l14 53h547l-14 -53q-25 0 -74 -4t-74 -4q-63 -2 -63 -58q0 -20 20 -102l142 -508l460 520q57 70 57.5 100.5t-37.5 40t-157 15.5l14 53h459l-14 -53q-111 0 -262 -180l-516 -607l-101 -385q-10 -37 -10 -65q0 -31 39 -44.5t164 -21.5l-13 -53h-577l14 53 q115 2 164 19.5t64 72.5l125 467l-185 645q-16 55 -54 74t-132 25zM702 1466l281 269q61 59 94 59q57 0 58 -57q0 -33 -41 -58l-342 -213h-50z" />
<glyph unicode="&#xde;" horiz-adv-x="1290" d="M-106 0l14 53q98 2 145 20.5t62 71.5l286 1080q10 37 11 65q0 31 -32 44.5t-128 21.5l14 53h512l-14 -53q-100 -2 -147.5 -20.5t-59.5 -71.5l-29 -113q90 4 230 4q438 0 438 -334q0 -207 -170 -325.5t-457 -118.5q-41 0 -124 2t-123 2l-52 -197q-10 -37 -10 -65 q0 -31 34 -44.5t136 -21.5l-12 -53h-524zM340 446q41 0 123 -2t123 -2q211 0 334.5 106.5t123.5 293.5q0 131 -75.5 195.5t-206.5 64.5q-150 0 -256 -35z" />
<glyph unicode="&#xdf;" horiz-adv-x="1214" d="M-455 -242q0 45 27 78t76 33q78 0 78 -80q0 -33 -37 -56.5t-37 -33.5q0 -31 90 -31q139 0 239.5 134.5t129.5 349.5l106 757h-151l14 54h151q47 190 211 318t357 128q119 0 237.5 -73.5t118.5 -213.5q0 -78 -38 -132t-94 -78.5t-121.5 -45t-122 -33t-94.5 -36t-38 -58.5 q0 -39 42 -74.5t102.5 -67.5t121 -68.5t102.5 -95t42 -132.5q0 -158 -122 -242t-282 -84q-119 0 -201.5 57.5t-82.5 155.5q0 47 27.5 78t72.5 31q41 0 62.5 -21.5t21.5 -54.5q0 -31 -14.5 -48t-33 -21.5t-32.5 -12.5t-14 -22q0 -43 58 -65.5t126 -22.5q127 0 207 59t80 180 q0 63 -41 112.5t-99 81.5l-117 63q-58 32 -99.5 79t-41.5 107q0 63 50.5 99t122 54.5t143.5 41t122 77.5t50 147q0 111 -76 168.5t-178 57.5q-166 0 -280.5 -129t-141.5 -332l-80 -594q-14 -109 -52 -220.5t-100.5 -218t-159.5 -173t-214 -66.5q-76 0 -134.5 33.5 t-58.5 101.5z" />
<glyph unicode="&#xe0;" horiz-adv-x="1175" d="M25 348q0 139 57 264t142 204t176.5 125t164.5 46q172 0 226 -235h4l55 211h125l-152 -609q-55 -221 -55 -243q0 -35 18.5 -58.5t53.5 -23.5q51 0 116.5 93t122.5 249l45 -21q-82 -213 -147 -291q-72 -84 -158 -84q-154 0 -153 230l-7 4q-76 -109 -156.5 -171.5 t-191.5 -62.5q-147 0 -216.5 105.5t-69.5 267.5zM152 246q0 -92 44 -154.5t126 -62.5q94 0 177 68.5t134 168t79.5 201.5t28.5 180q0 287 -176 287q-102 0 -199.5 -110.5t-155.5 -270.5t-58 -307zM440 1380q0 18 17.5 36t36.5 18q16 0 30.5 -9.5t23.5 -19.5t30 -37l223 -278 h-43l-271 219q-47 36 -47 71z" />
<glyph unicode="&#xe1;" horiz-adv-x="1175" d="M25 348q0 139 57 264t142 204t176.5 125t164.5 46q172 0 226 -235h4l55 211h125l-152 -609q-55 -221 -55 -243q0 -35 18.5 -58.5t53.5 -23.5q51 0 116.5 93t122.5 249l45 -21q-82 -213 -147 -291q-72 -84 -158 -84q-154 0 -153 230l-7 4q-76 -109 -156.5 -171.5 t-191.5 -62.5q-147 0 -216.5 105.5t-69.5 267.5zM152 246q0 -92 44 -154.5t126 -62.5q94 0 177 68.5t134 168t79.5 201.5t28.5 180q0 287 -176 287q-102 0 -199.5 -110.5t-155.5 -270.5t-58 -307zM569 1090l281 268q61 59 94 59q57 0 57 -57q0 -33 -40 -57l-343 -213h-49z " />
<glyph unicode="&#xe2;" horiz-adv-x="1175" d="M25 348q0 139 57 264t142 204t176.5 125t164.5 46q172 0 226 -235h4l55 211h125l-152 -609q-55 -221 -55 -243q0 -35 18.5 -58.5t53.5 -23.5q51 0 116.5 93t122.5 249l45 -21q-82 -213 -147 -291q-72 -84 -158 -84q-154 0 -153 230l-7 4q-76 -109 -156.5 -171.5 t-191.5 -62.5q-147 0 -216.5 105.5t-69.5 267.5zM152 246q0 -92 44 -154.5t126 -62.5q94 0 177 68.5t134 168t79.5 201.5t28.5 180q0 287 -176 287q-102 0 -199.5 -110.5t-155.5 -270.5t-58 -307zM389 1090l326 335h51l180 -335h-51l-164 225l-282 -225h-60z" />
<glyph unicode="&#xe3;" horiz-adv-x="1175" d="M25 348q0 139 57 264t142 204t176.5 125t164.5 46q172 0 226 -235h4l55 211h125l-152 -609q-55 -221 -55 -243q0 -35 18.5 -58.5t53.5 -23.5q51 0 116.5 93t122.5 249l45 -21q-82 -213 -147 -291q-72 -84 -158 -84q-154 0 -153 230l-7 4q-76 -109 -156.5 -171.5 t-191.5 -62.5q-147 0 -216.5 105.5t-69.5 267.5zM152 246q0 -92 44 -154.5t126 -62.5q94 0 177 68.5t134 168t79.5 201.5t28.5 180q0 287 -176 287q-102 0 -199.5 -110.5t-155.5 -270.5t-58 -307zM403 1139q4 74 53.5 137t118.5 63q61 0 164 -47q106 -47 146 -47 q74 0 100 98h45q-23 -90 -61.5 -143t-118.5 -53q-33 0 -148 47q-106 47 -151 47q-39 0 -68.5 -31.5t-33.5 -70.5h-46z" />
<glyph unicode="&#xe4;" horiz-adv-x="1175" d="M25 348q0 139 57 264t142 204t176.5 125t164.5 46q172 0 226 -235h4l55 211h125l-152 -609q-55 -221 -55 -243q0 -35 18.5 -58.5t53.5 -23.5q51 0 116.5 93t122.5 249l45 -21q-82 -213 -147 -291q-72 -84 -158 -84q-154 0 -153 230l-7 4q-76 -109 -156.5 -171.5 t-191.5 -62.5q-147 0 -216.5 105.5t-69.5 267.5zM152 246q0 -92 44 -154.5t126 -62.5q94 0 177 68.5t134 168t79.5 201.5t28.5 180q0 287 -176 287q-102 0 -199.5 -110.5t-155.5 -270.5t-58 -307zM428 1206q0 35 23.5 59.5t58.5 24.5q33 0 57.5 -24.5t24.5 -59.5 q0 -33 -24.5 -56.5t-57.5 -23.5q-35 0 -58.5 23.5t-23.5 56.5zM829 1206q0 35 24 59.5t58 24.5q33 0 57.5 -24.5t24.5 -59.5q0 -31 -25.5 -55.5t-56.5 -24.5q-35 0 -58.5 23.5t-23.5 56.5z" />
<glyph unicode="&#xe5;" horiz-adv-x="1175" d="M25 348q0 139 57 264t142 204t176.5 125t164.5 46q172 0 226 -235h4l55 211h125l-152 -609q-55 -221 -55 -243q0 -35 18.5 -58.5t53.5 -23.5q51 0 116.5 93t122.5 249l45 -21q-82 -213 -147 -291q-72 -84 -158 -84q-154 0 -153 230l-7 4q-76 -109 -156.5 -171.5 t-191.5 -62.5q-147 0 -216.5 105.5t-69.5 267.5zM152 246q0 -92 44 -154.5t126 -62.5q94 0 177 68.5t134 168t79.5 201.5t28.5 180q0 287 -176 287q-102 0 -199.5 -110.5t-155.5 -270.5t-58 -307zM502 1282q0 82 58 140.5t140 58.5t140.5 -58.5t58.5 -140.5t-58.5 -140.5 t-140.5 -58.5t-140 58.5t-58 140.5zM563 1282q0 -57 40 -97t97.5 -40t97.5 40t40 97t-40 97t-97.5 40t-97.5 -40t-40 -97z" />
<glyph unicode="&#xe6;" horiz-adv-x="1593" d="M25 354q0 246 177 439.5t371 193.5q84 0 135.5 -52t67.5 -126h4l45 154h103l-41 -138l4 -4q207 166 399 166q104 0 171 -50t67 -151q0 -104 -80 -181t-203 -115.5t-233.5 -57t-206.5 -18.5q-16 -115 -17 -166q0 -88 52.5 -153.5t146.5 -65.5q252 0 424 350l43 -25 q-74 -178 -192.5 -278.5t-274.5 -100.5q-35 0 -67.5 6.5t-58 18.5t-48 26.5t-40 33t-31 34t-25.5 36t-18.5 31.5t-13.5 26.5t-7 17.5q-2 -2 -31 -34t-59.5 -60.5t-75.5 -61.5t-100.5 -53.5t-112.5 -20.5q-123 0 -198.5 104.5t-75.5 274.5zM152 274q0 -246 155 -245 q94 0 179 69.5t138.5 171t85 207t31.5 185.5q0 111 -41 191.5t-131 80.5q-106 0 -205.5 -114.5t-155.5 -267.5t-56 -278zM813 467q63 0 120.5 5t150 25.5t157 54.5t112.5 99.5t48 155.5q0 127 -148 127q-84 0 -157.5 -44t-127 -117t-91 -148.5t-64.5 -157.5z" />
<glyph unicode="&#xe7;" horiz-adv-x="948" d="M37 377q0 229 173 419.5t394 190.5q119 0 185.5 -49t66.5 -137q0 -49 -26.5 -79t-75.5 -30q-33 0 -57.5 22.5t-24.5 53.5t11 49.5t23.5 24.5t23.5 13t11 17q0 23 -32.5 42.5t-85.5 19.5q-188 0 -323.5 -203t-135.5 -424q0 -279 209 -278q240 0 385 344l51 -25 q-63 -166 -183 -268.5t-270 -104.5l-65 -108q12 2 78 2q47 0 87 -38t40 -103q0 -80 -72 -122t-168 -42q-92 0 -170 41l33 55q78 -35 129 -35q49 0 83 26.5t34 76.5q0 37 -28 58t-65 21q-33 0 -79 -14l-9 10l111 177q-119 23 -188.5 126t-69.5 271z" />
<glyph unicode="&#xe8;" horiz-adv-x="985" d="M29 348q-8 252 194.5 443.5t442.5 195.5q102 2 168.5 -46t66.5 -146q0 -102 -72.5 -179t-189.5 -117t-229.5 -58.5t-229.5 -22.5q-25 -90 -24 -170q0 -102 55 -160.5t151 -58.5q135 0 241 98t175 248l41 -23q-55 -154 -182 -265.5t-270 -111.5q-158 0 -245 101.5 t-93 271.5zM188 471q264 4 424 86t162 225q4 152 -137 152q-158 0 -281 -135t-168 -328zM440 1380q0 18 17.5 36t36.5 18q16 0 30.5 -9.5t23.5 -19.5t30 -37l223 -278h-43l-271 219q-47 36 -47 71z" />
<glyph unicode="&#xe9;" horiz-adv-x="985" d="M29 348q-8 252 194.5 443.5t442.5 195.5q102 2 168.5 -46t66.5 -146q0 -102 -72.5 -179t-189.5 -117t-229.5 -58.5t-229.5 -22.5q-25 -90 -24 -170q0 -102 55 -160.5t151 -58.5q135 0 241 98t175 248l41 -23q-55 -154 -182 -265.5t-270 -111.5q-158 0 -245 101.5 t-93 271.5zM188 471q264 4 424 86t162 225q4 152 -137 152q-158 0 -281 -135t-168 -328zM569 1090l281 268q61 59 94 59q57 0 57 -57q0 -33 -40 -57l-343 -213h-49z" />
<glyph unicode="&#xea;" horiz-adv-x="985" d="M29 348q-8 252 194.5 443.5t442.5 195.5q102 2 168.5 -46t66.5 -146q0 -102 -72.5 -179t-189.5 -117t-229.5 -58.5t-229.5 -22.5q-25 -90 -24 -170q0 -102 55 -160.5t151 -58.5q135 0 241 98t175 248l41 -23q-55 -154 -182 -265.5t-270 -111.5q-158 0 -245 101.5 t-93 271.5zM188 471q264 4 424 86t162 225q4 152 -137 152q-158 0 -281 -135t-168 -328zM389 1090l326 335h51l180 -335h-51l-164 225l-282 -225h-60z" />
<glyph unicode="&#xeb;" horiz-adv-x="985" d="M29 348q-8 252 194.5 443.5t442.5 195.5q102 2 168.5 -46t66.5 -146q0 -102 -72.5 -179t-189.5 -117t-229.5 -58.5t-229.5 -22.5q-25 -90 -24 -170q0 -102 55 -160.5t151 -58.5q135 0 241 98t175 248l41 -23q-55 -154 -182 -265.5t-270 -111.5q-158 0 -245 101.5 t-93 271.5zM188 471q264 4 424 86t162 225q4 152 -137 152q-158 0 -281 -135t-168 -328zM428 1206q0 35 23.5 59.5t58.5 24.5q33 0 57.5 -24.5t24.5 -59.5q0 -33 -24.5 -56.5t-57.5 -23.5q-35 0 -58.5 23.5t-23.5 56.5zM829 1206q0 35 24 59.5t58 24.5q33 0 57.5 -24.5 t24.5 -59.5q0 -31 -25.5 -55.5t-56.5 -24.5q-35 0 -58.5 23.5t-23.5 56.5z" />
<glyph unicode="&#xec;" horiz-adv-x="757" d="M14 621q135 367 330 366q172 0 172 -186q0 -94 -121 -368.5t-121 -317.5q0 -86 91 -86q152 0 290 348l41 -19q-72 -197 -153.5 -290t-206.5 -93q-68 0 -116 57.5t-48 151.5q0 80 60.5 222.5t121 270.5t60.5 171q0 86 -78 86q-147 0 -275 -328zM207 1380q0 18 17.5 36 t35.5 18q16 0 30.5 -9.5t24 -19.5t29.5 -37l223 -278h-43l-270 219q-47 36 -47 71z" />
<glyph unicode="&#xed;" horiz-adv-x="757" d="M14 621q135 367 330 366q172 0 172 -186q0 -94 -121 -368.5t-121 -317.5q0 -86 91 -86q152 0 290 348l41 -19q-72 -197 -153.5 -290t-206.5 -93q-68 0 -116 57.5t-48 151.5q0 80 60.5 222.5t121 270.5t60.5 171q0 86 -78 86q-147 0 -275 -328zM336 1090l280 268 q61 59 95 59q57 0 57 -57q0 -33 -41 -57l-342 -213h-49z" />
<glyph unicode="&#xee;" horiz-adv-x="757" d="M14 621q135 367 330 366q172 0 172 -186q0 -94 -121 -368.5t-121 -317.5q0 -86 91 -86q152 0 290 348l41 -19q-72 -197 -153.5 -290t-206.5 -93q-68 0 -116 57.5t-48 151.5q0 80 60.5 222.5t121 270.5t60.5 171q0 86 -78 86q-147 0 -275 -328zM156 1090l325 335h51 l181 -335h-51l-164 225l-283 -225h-59z" />
<glyph unicode="&#xef;" horiz-adv-x="757" d="M14 621q135 367 330 366q172 0 172 -186q0 -94 -121 -368.5t-121 -317.5q0 -86 91 -86q152 0 290 348l41 -19q-72 -197 -153.5 -290t-206.5 -93q-68 0 -116 57.5t-48 151.5q0 80 60.5 222.5t121 270.5t60.5 171q0 86 -78 86q-147 0 -275 -328zM195 1206q0 35 23.5 59.5 t57.5 24.5q33 0 57.5 -24.5t24.5 -59.5q0 -33 -24.5 -56.5t-57.5 -23.5q-35 0 -58 23.5t-23 56.5zM596 1206q0 35 23.5 59.5t58.5 24.5q33 0 57.5 -24.5t24.5 -59.5q0 -31 -25.5 -55.5t-56.5 -24.5q-35 0 -58.5 23.5t-23.5 56.5z" />
<glyph unicode="&#xf0;" horiz-adv-x="1062" d="M37 412q0 215 167 395t378 180q137 0 209 -65l4 4q-18 193 -148 303l-217 -131l-39 41l209 127q-88 57 -211 73l25 54q143 -14 254 -86l213 127l39 -39l-205 -125q227 -190 227 -631q0 -164 -64.5 -314.5t-191.5 -250t-287 -99.5q-180 0 -271 124.5t-91 312.5zM164 311 q0 -283 225 -282q133 0 235.5 107.5t146.5 244.5t44 266q0 287 -223 287q-104 0 -189.5 -61.5t-135.5 -158t-76.5 -202t-26.5 -201.5z" />
<glyph unicode="&#xf1;" horiz-adv-x="1327" d="M-31 635q47 141 133 246.5t197 105.5q160 0 160 -207q0 -80 -25 -219l4 -4q41 70 65.5 112t76 110.5t94.5 107.5t103.5 69.5t121.5 30.5q195 0 195 -186q0 -94 -121 -368.5t-121 -317.5q0 -39 25.5 -62.5t62.5 -23.5q66 0 145.5 87t147.5 261l41 -19q-137 -383 -361 -383 q-66 0 -114.5 57.5t-48.5 151.5q0 80 60 217.5t120.5 264.5t60.5 182q0 49 -21.5 67.5t-84.5 18.5q-111 0 -230.5 -137.5t-203.5 -313.5t-132 -350l-36 -133h-127l200 743q16 61 17 101q0 90 -82 90q-88 0 -158 -93t-113 -218zM479 1139q4 74 53.5 137t118.5 63 q61 0 164 -47q106 -47 146 -47q74 0 100 98h45q-23 -90 -61.5 -143t-118.5 -53q-33 0 -148 47q-106 47 -151 47q-39 0 -69 -31.5t-34 -70.5h-45z" />
<glyph unicode="&#xf2;" horiz-adv-x="1062" d="M37 377q0 248 164 429t381 181q162 0 261 -119.5t99 -287.5q0 -223 -166 -414t-391 -191q-162 0 -255 121t-93 281zM164 352q0 -160 50 -241.5t175 -81.5q133 0 235.5 107.5t146.5 244.5t44 266q0 287 -223 287q-104 0 -189.5 -61.5t-135.5 -154.5t-76.5 -189.5 t-26.5 -176.5zM408 1380q0 18 17 36t36 18q16 0 30.5 -9.5t23.5 -19.5t30 -37l223 -278h-43l-270 219q-47 36 -47 71z" />
<glyph unicode="&#xf3;" horiz-adv-x="1062" d="M37 377q0 248 164 429t381 181q162 0 261 -119.5t99 -287.5q0 -223 -166 -414t-391 -191q-162 0 -255 121t-93 281zM164 352q0 -160 50 -241.5t175 -81.5q133 0 235.5 107.5t146.5 244.5t44 266q0 287 -223 287q-104 0 -189.5 -61.5t-135.5 -154.5t-76.5 -189.5 t-26.5 -176.5zM537 1090l280 268q61 59 94 59q57 0 58 -57q0 -33 -41 -57l-342 -213h-49z" />
<glyph unicode="&#xf4;" horiz-adv-x="1062" d="M37 377q0 248 164 429t381 181q162 0 261 -119.5t99 -287.5q0 -223 -166 -414t-391 -191q-162 0 -255 121t-93 281zM164 352q0 -160 50 -241.5t175 -81.5q133 0 235.5 107.5t146.5 244.5t44 266q0 287 -223 287q-104 0 -189.5 -61.5t-135.5 -154.5t-76.5 -189.5 t-26.5 -176.5zM356 1090l326 335h51l180 -335h-51l-164 225l-282 -225h-60z" />
<glyph unicode="&#xf5;" horiz-adv-x="1062" d="M37 377q0 248 164 429t381 181q162 0 261 -119.5t99 -287.5q0 -223 -166 -414t-391 -191q-162 0 -255 121t-93 281zM164 352q0 -160 50 -241.5t175 -81.5q133 0 235.5 107.5t146.5 244.5t44 266q0 287 -223 287q-104 0 -189.5 -61.5t-135.5 -154.5t-76.5 -189.5 t-26.5 -176.5zM371 1139q4 74 53 137t119 63q61 0 164 -47q106 -47 145 -47q74 0 100 98h45q-23 -90 -61.5 -143t-118.5 -53q-33 0 -147 47q-106 47 -152 47q-39 0 -68.5 -31.5t-33.5 -70.5h-45z" />
<glyph unicode="&#xf6;" horiz-adv-x="1062" d="M37 377q0 248 164 429t381 181q162 0 261 -119.5t99 -287.5q0 -223 -166 -414t-391 -191q-162 0 -255 121t-93 281zM164 352q0 -160 50 -241.5t175 -81.5q133 0 235.5 107.5t146.5 244.5t44 266q0 287 -223 287q-104 0 -189.5 -61.5t-135.5 -154.5t-76.5 -189.5 t-26.5 -176.5zM395 1206q0 35 23.5 59.5t58.5 24.5q33 0 57.5 -24.5t24.5 -59.5q0 -33 -24.5 -56.5t-57.5 -23.5q-35 0 -58.5 23.5t-23.5 56.5zM797 1206q0 35 23.5 59.5t58.5 24.5q33 0 57.5 -24.5t24.5 -59.5q0 -31 -26 -55.5t-56 -24.5q-35 0 -58.5 23.5t-23.5 56.5z" />
<glyph unicode="&#xf7;" horiz-adv-x="1228" d="M133 434v94h963v-94h-963zM510 86q0 45 31.5 76t74.5 31t75 -32t32 -75q0 -41 -32 -73.5t-73 -32.5q-45 0 -76.5 31.5t-31.5 74.5zM510 872q0 43 31.5 75t74.5 32t75 -33t32 -74t-32 -73.5t-73 -32.5q-45 0 -76.5 31.5t-31.5 74.5z" />
<glyph unicode="&#xf8;" horiz-adv-x="1062" d="M37 -205l156 252q-143 111 -144 365q0 215 167 395t378 180q84 0 162 -39l118 191h74l-139 -226q145 -119 145 -333q0 -221 -163.5 -413t-378.5 -192q-94 0 -166 39l-137 -219h-72zM176 328q0 -158 51 -226l498 799q-45 33 -121 33q-137 0 -238.5 -104.5t-145.5 -238.5 t-44 -263zM274 59q45 -31 127 -30q133 0 235.5 107.5t146.5 244.5t44 266q0 139 -55 209z" />
<glyph unicode="&#xf9;" horiz-adv-x="1327" d="M4 649q8 14 27.5 56.5t29 60.5t30 55t34.5 54.5t37.5 43t45 38t50.5 21.5t59 9q82 0 128.5 -58.5t46.5 -154.5q0 -86 -53.5 -216t-105.5 -245.5t-52 -165.5q0 -119 114 -118q78 0 159 59t140.5 145t100.5 163t57 128l139 439h129l-184 -693q-35 -139 -35 -159 q0 -82 66 -82q61 0 137 102t121 244l45 -15q-53 -176 -145.5 -280.5t-178.5 -104.5q-74 0 -110.5 56.5t-36.5 136.5q0 2 12 143l-4 4q-119 -178 -207 -259t-213 -81q-100 0 -154.5 61.5t-54.5 164.5q0 111 105.5 344t105.5 289q0 100 -86 100q-70 0 -120 -67.5t-134 -237.5z M541 1380q0 18 17 36t36 18q16 0 30.5 -9.5t23.5 -19.5t30 -37l223 -278h-43l-270 219q-47 36 -47 71z" />
<glyph unicode="&#xfa;" horiz-adv-x="1327" d="M4 649q8 14 27.5 56.5t29 60.5t30 55t34.5 54.5t37.5 43t45 38t50.5 21.5t59 9q82 0 128.5 -58.5t46.5 -154.5q0 -86 -53.5 -216t-105.5 -245.5t-52 -165.5q0 -119 114 -118q78 0 159 59t140.5 145t100.5 163t57 128l139 439h129l-184 -693q-35 -139 -35 -159 q0 -82 66 -82q61 0 137 102t121 244l45 -15q-53 -176 -145.5 -280.5t-178.5 -104.5q-74 0 -110.5 56.5t-36.5 136.5q0 2 12 143l-4 4q-119 -178 -207 -259t-213 -81q-100 0 -154.5 61.5t-54.5 164.5q0 111 105.5 344t105.5 289q0 100 -86 100q-70 0 -120 -67.5t-134 -237.5z M670 1090l280 268q61 59 94 59q57 0 58 -57q0 -33 -41 -57l-342 -213h-49z" />
<glyph unicode="&#xfb;" horiz-adv-x="1327" d="M4 649q8 14 27.5 56.5t29 60.5t30 55t34.5 54.5t37.5 43t45 38t50.5 21.5t59 9q82 0 128.5 -58.5t46.5 -154.5q0 -86 -53.5 -216t-105.5 -245.5t-52 -165.5q0 -119 114 -118q78 0 159 59t140.5 145t100.5 163t57 128l139 439h129l-184 -693q-35 -139 -35 -159 q0 -82 66 -82q61 0 137 102t121 244l45 -15q-53 -176 -145.5 -280.5t-178.5 -104.5q-74 0 -110.5 56.5t-36.5 136.5q0 2 12 143l-4 4q-119 -178 -207 -259t-213 -81q-100 0 -154.5 61.5t-54.5 164.5q0 111 105.5 344t105.5 289q0 100 -86 100q-70 0 -120 -67.5t-134 -237.5z M489 1090l326 335h51l181 -335h-52l-164 225l-282 -225h-60z" />
<glyph unicode="&#xfc;" horiz-adv-x="1327" d="M4 649q8 14 27.5 56.5t29 60.5t30 55t34.5 54.5t37.5 43t45 38t50.5 21.5t59 9q82 0 128.5 -58.5t46.5 -154.5q0 -86 -53.5 -216t-105.5 -245.5t-52 -165.5q0 -119 114 -118q78 0 159 59t140.5 145t100.5 163t57 128l139 439h129l-184 -693q-35 -139 -35 -159 q0 -82 66 -82q61 0 137 102t121 244l45 -15q-53 -176 -145.5 -280.5t-178.5 -104.5q-74 0 -110.5 56.5t-36.5 136.5q0 2 12 143l-4 4q-119 -178 -207 -259t-213 -81q-100 0 -154.5 61.5t-54.5 164.5q0 111 105.5 344t105.5 289q0 100 -86 100q-70 0 -120 -67.5t-134 -237.5z M528 1206q0 35 23.5 59.5t58.5 24.5q33 0 57.5 -24.5t24.5 -59.5q0 -33 -24.5 -56.5t-57.5 -23.5q-35 0 -58.5 23.5t-23.5 56.5zM930 1206q0 35 23.5 59.5t58.5 24.5q33 0 57.5 -24.5t24.5 -59.5q0 -31 -26 -55.5t-56 -24.5q-35 0 -58.5 23.5t-23.5 56.5z" />
<glyph unicode="&#xfd;" horiz-adv-x="1138" d="M12 -188q0 45 29 71.5t74 26.5q80 0 80 -68q0 -29 -13.5 -45t-31 -19t-31 -11.5t-13.5 -22.5q0 -68 148 -68q80 0 143.5 15.5t109.5 52.5t77.5 74t59.5 102.5t44.5 116.5t38.5 137l45 168l-4 4q-43 -78 -72.5 -124t-83 -112.5t-116 -100.5t-131.5 -34q-80 0 -136.5 63.5 t-56.5 182.5q0 90 109.5 325.5t109.5 307.5q0 37 -20.5 58.5t-57.5 21.5q-135 0 -254 -309l-43 14q37 117 121 232.5t180 115.5q68 0 114 -47t46 -149q0 -100 -101.5 -335t-101.5 -313q0 -51 29 -82.5t80 -31.5q186 0 389 436q61 133 162 498h115l-250 -949 q-31 -117 -96.5 -200.5t-145.5 -121.5t-145.5 -53.5t-128.5 -15.5q-121 0 -196 55.5t-75 133.5zM575 1090l281 268q61 59 94 59q57 0 58 -57q0 -33 -41 -57l-342 -213h-50z" />
<glyph unicode="&#xfe;" horiz-adv-x="1214" d="M-115 -352l15 53q195 -4 223 119l289 1208q6 25 21.5 85.5t24.5 101t9 59.5q0 57 -135 57l16 53h291l-152 -610h5q49 76 134 144.5t179 68.5q131 0 216 -109.5t85 -277.5q0 -238 -174 -431.5t-354 -193.5q-193 0 -244 228h-4l-84 -361q-12 -49 -13 -78q0 -35 37 -47 t138 -16l-15 -53h-508zM379 295q0 -111 46 -188.5t140 -77.5q170 0 292 194.5t122 464.5q0 246 -178 246q-102 0 -203.5 -113.5t-160 -262t-58.5 -263.5z" />
<glyph unicode="&#xff;" horiz-adv-x="1138" d="M12 -188q0 45 29 71.5t74 26.5q80 0 80 -68q0 -29 -13.5 -45t-31 -19t-31 -11.5t-13.5 -22.5q0 -68 148 -68q80 0 143.5 15.5t109.5 52.5t77.5 74t59.5 102.5t44.5 116.5t38.5 137l45 168l-4 4q-43 -78 -72.5 -124t-83 -112.5t-116 -100.5t-131.5 -34q-80 0 -136.5 63.5 t-56.5 182.5q0 90 109.5 325.5t109.5 307.5q0 37 -20.5 58.5t-57.5 21.5q-135 0 -254 -309l-43 14q37 117 121 232.5t180 115.5q68 0 114 -47t46 -149q0 -100 -101.5 -335t-101.5 -313q0 -51 29 -82.5t80 -31.5q186 0 389 436q61 133 162 498h115l-250 -949 q-31 -117 -96.5 -200.5t-145.5 -121.5t-145.5 -53.5t-128.5 -15.5q-121 0 -196 55.5t-75 133.5zM434 1206q0 35 23.5 59.5t58.5 24.5q33 0 57.5 -24.5t24.5 -59.5q0 -33 -24.5 -56.5t-57.5 -23.5q-35 0 -58.5 23.5t-23.5 56.5zM836 1206q0 35 23.5 59.5t58.5 24.5 q33 0 57 -24.5t24 -59.5q0 -31 -25.5 -55.5t-55.5 -24.5q-35 0 -58.5 23.5t-23.5 56.5z" />
<glyph unicode="&#x152;" horiz-adv-x="1933" d="M94 598q0 178 65.5 338t169 266.5t228.5 169t244 62.5q68 0 182.5 -12.5t167.5 -12.5h780l-88 -487h-49q8 63 8 127q0 174 -73.5 240.5t-251.5 66.5q-133 0 -186.5 -32t-84.5 -157l-96 -401h76q127 0 185.5 58.5t98.5 199.5h46l-138 -575h-41v90q0 86 -28.5 123.5 t-106.5 37.5h-110l-109 -424q-20 -78 -20 -141q0 -53 37.5 -67.5t156.5 -14.5q135 0 224 23.5t149.5 84t96.5 138.5t73 211h53l-123 -510h-696q-2 0 -193 -12q-23 0 -71.5 -6.5t-79.5 -6.5q-227 0 -361.5 150.5t-134.5 472.5zM221 459q0 -197 83 -307.5t233 -110.5 q143 0 214.5 68.5t108.5 220.5l195 792q33 135 -47 196.5t-201 61.5q-141 0 -257 -89t-184.5 -228t-106.5 -296.5t-38 -307.5z" />
<glyph unicode="&#x153;" horiz-adv-x="1630" d="M25 385q0 252 162.5 427t381.5 175q113 0 201 -58.5t123 -162.5q0 -2 2 -6q227 227 463 227q102 0 168.5 -49t66.5 -152q0 -100 -79.5 -177t-200.5 -116.5t-233.5 -59t-207.5 -19.5q-16 -115 -16 -166q0 -88 52.5 -153.5t146.5 -65.5q252 0 424 350l41 -23 q-53 -154 -180.5 -267.5t-280.5 -113.5q-96 0 -179 52.5t-112 140.5q-80 -86 -183.5 -139.5t-197.5 -53.5q-176 0 -269 114t-93 296zM152 328q0 -152 50 -225.5t175 -73.5q133 0 235.5 107.5t146.5 244.5t44 266q0 287 -223 287q-137 0 -238.5 -104.5t-145.5 -238.5 t-44 -263zM887 467q70 0 155.5 15.5t185 48t168 99t70.5 154.5q2 76 -39 115t-100 39q-288 0 -440 -471z" />
<glyph unicode="&#x178;" horiz-adv-x="1251" d="M164 1356l14 53h547l-14 -53q-25 0 -74 -4t-74 -4q-63 -2 -63 -58q0 -20 20 -102l142 -508l460 520q57 70 57.5 100.5t-37.5 40t-157 15.5l14 53h459l-14 -53q-111 0 -262 -180l-516 -607l-101 -385q-10 -37 -10 -65q0 -31 39 -44.5t164 -21.5l-13 -53h-577l14 53 q115 2 164 19.5t64 72.5l125 467l-185 645q-16 55 -54 74t-132 25zM561 1583q0 35 23.5 59.5t58.5 24.5q33 0 57.5 -24.5t24.5 -59.5q0 -33 -24.5 -56.5t-57.5 -23.5q-35 0 -58.5 23.5t-23.5 56.5zM963 1583q0 35 23.5 59.5t57.5 24.5q33 0 57.5 -24.5t24.5 -59.5 q0 -31 -25.5 -55.5t-56.5 -24.5q-35 0 -58 23.5t-23 56.5z" />
<glyph unicode="&#x2c6;" d="M166 1090l326 335h51l180 -335h-51l-164 225l-283 -225h-59z" />
<glyph unicode="&#x2dc;" d="M180 1139q4 74 53.5 137t118.5 63q61 0 164 -47q106 -47 146 -47q74 0 100 98h45q-23 -90 -61.5 -143t-118.5 -53q-33 0 -148 47q-106 47 -151 47q-39 0 -69 -31.5t-34 -70.5h-45z" />
<glyph unicode="&#x2000;" horiz-adv-x="927" />
<glyph unicode="&#x2001;" horiz-adv-x="1857" />
<glyph unicode="&#x2002;" horiz-adv-x="927" />
<glyph unicode="&#x2003;" horiz-adv-x="1857" />
<glyph unicode="&#x2004;" horiz-adv-x="618" />
<glyph unicode="&#x2005;" horiz-adv-x="462" />
<glyph unicode="&#x2006;" horiz-adv-x="309" />
<glyph unicode="&#x2007;" horiz-adv-x="309" />
<glyph unicode="&#x2008;" horiz-adv-x="231" />
<glyph unicode="&#x2009;" horiz-adv-x="370" />
<glyph unicode="&#x200a;" horiz-adv-x="102" />
<glyph unicode="&#x2010;" d="M4 432l29 94h545l-27 -94h-547z" />
<glyph unicode="&#x2011;" d="M4 432l29 94h545l-27 -94h-547z" />
<glyph unicode="&#x2012;" d="M4 432l29 94h545l-27 -94h-547z" />
<glyph unicode="&#x2013;" horiz-adv-x="1024" d="M-14 432l28 94h1024l-28 -94h-1024z" />
<glyph unicode="&#x2014;" horiz-adv-x="2048" d="M-14 432l43 94h2033l-43 -94h-2033z" />
<glyph unicode="&#x2018;" horiz-adv-x="493" d="M238 1044q0 72 19 132.5t63.5 115t77 87t91.5 83.5l46 -37q-203 -172 -203 -297q0 -35 14 -34q49 0 78 -30t29 -79q0 -33 -28 -58.5t-69 -25.5q-59 0 -88.5 42t-29.5 101z" />
<glyph unicode="&#x2019;" horiz-adv-x="493" d="M152 885q203 172 202 297q0 35 -14 35q-49 0 -78 29.5t-29 78.5q0 33 28 58.5t69 25.5q59 0 89 -42t30 -101q0 -72 -19.5 -132.5t-63.5 -114.5t-77 -87t-92 -84z" />
<glyph unicode="&#x201a;" horiz-adv-x="493" d="M-135 -336q203 172 203 297q0 35 -15 35q-49 0 -77.5 29.5t-28.5 78.5q0 33 27.5 58.5t68.5 25.5q59 0 89 -42t30 -101q0 -72 -19.5 -132t-63.5 -114.5t-77 -87.5t-92 -84z" />
<glyph unicode="&#x201c;" horiz-adv-x="872" d="M199 1040q0 72 19.5 132.5t63.5 114.5t76.5 87t92.5 84l45 -37q-203 -172 -203 -297q0 -35 14 -34q49 0 78 -30t29 -79q0 -33 -28 -58.5t-69 -25.5q-59 0 -88.5 42t-29.5 101zM616 1040q0 72 19.5 132.5t63.5 114.5t77 87t92 84l45 -37q-203 -172 -202 -297q0 -35 14 -34 q49 0 77.5 -30t28.5 -79q0 -33 -27.5 -58.5t-68.5 -25.5q-59 0 -89 42t-30 101z" />
<glyph unicode="&#x201d;" horiz-adv-x="872" d="M152 885q203 172 202 297q0 35 -14 35q-49 0 -78 29.5t-29 78.5q0 33 28 58.5t69 25.5q59 0 89 -42t30 -101q0 -72 -19.5 -132.5t-63.5 -114.5t-77 -87t-92 -84zM569 885q203 172 203 297q0 35 -14 35q-49 0 -78 29.5t-29 78.5q0 33 28 58.5t69 25.5q59 0 88.5 -42 t29.5 -101q0 -72 -19.5 -132.5t-63.5 -114.5t-76.5 -87t-92.5 -84z" />
<glyph unicode="&#x201e;" horiz-adv-x="872" d="M-135 -336q203 172 203 297q0 35 -15 35q-49 0 -77.5 29.5t-28.5 78.5q0 33 27.5 58.5t68.5 25.5q59 0 89 -42t30 -101q0 -72 -19.5 -132t-63.5 -114.5t-77 -87.5t-92 -84zM283 -336q203 172 202 297q0 35 -14 35q-49 0 -77.5 29.5t-28.5 78.5q0 33 27.5 58.5t68.5 25.5 q59 0 89 -42t30 -101q0 -72 -19.5 -132t-63.5 -114.5t-77 -87.5t-92 -84z" />
<glyph unicode="&#x2022;" horiz-adv-x="1024" d="M154 717q0 150 104 254t254 104t254 -104.5t104 -254t-104 -254t-254 -104.5t-253 103.5t-105 255.5z" />
<glyph unicode="&#x2026;" horiz-adv-x="2048" d="M98 72q0 37 27 64.5t63.5 27.5t63.5 -27.5t27 -64.5t-27 -64.5t-63.5 -27.5t-63.5 27.5t-27 64.5zM780 72q0 37 27 64.5t63.5 27.5t63.5 -27.5t27 -64.5t-27 -64.5t-63.5 -27.5t-63.5 27.5t-27 64.5zM1462 72q0 37 27 64.5t63.5 27.5t63 -27.5t26.5 -64.5t-26.5 -64.5 t-63 -27.5t-63.5 27.5t-27 64.5z" />
<glyph unicode="&#x202f;" horiz-adv-x="370" />
<glyph unicode="&#x2039;" d="M98 498l383 329q59 53 72 54q20 0 20 -19q0 -16 -53 -74l-276 -290l149 -285q27 -49 27 -61q0 -16 -21 -17q-18 0 -51 43z" />
<glyph unicode="&#x203a;" d="M49 154q0 16 53 73l277 291l-150 285q-27 49 -26 61q0 16 20 17q18 0 51 -43l250 -320l-383 -330q-59 -53 -71 -53q-21 1 -21 19z" />
<glyph unicode="&#x205f;" horiz-adv-x="462" />
<glyph unicode="&#x20ac;" horiz-adv-x="1138" d="M-8 569l16 62h135q8 88 41 194h-145l16 62h150q84 227 245.5 387t360.5 160q82 0 157.5 -41t123.5 -111l61 111h55l-82 -406h-57q0 6 1 19.5t1 19.5q0 145 -66.5 248.5t-203.5 103.5q-168 0 -283 -138t-176 -353h500l-17 -62h-499q-18 -76 -35 -194h483l-16 -62h-473 q-4 -70 -4 -98q0 -88 10 -154.5t36.5 -135t86 -106.5t147.5 -38q266 0 406 397l63 -24q-74 -201 -182.5 -318t-288.5 -117q-115 0 -200 53.5t-130 143.5t-66.5 188.5t-21.5 206.5v2h-149z" />
<glyph unicode="&#x2122;" horiz-adv-x="2048" d="M172 1229v180h684v-180h-41q0 78 -33.5 108.5t-103.5 30.5h-107v-625q0 -66 23.5 -93t79.5 -27v-41h-320v41q55 0 79 27.5t24 92.5v625h-107q-70 0 -103.5 -30.5t-33.5 -108.5h-41zM950 1368v41h224l329 -659l342 659h189v-41q-117 0 -117 -86v-545q0 -61 20.5 -87.5 t81.5 -26.5v-41h-317v41q55 0 77.5 24.5t22.5 89.5v490h-4l-319 -652h-19l-317 646h-4v-473q0 -68 22.5 -96.5t85.5 -28.5v-41h-266v41q63 0 86 28.5t23 96.5v524q-1 96 -140 96z" />
<glyph unicode="&#xe000;" horiz-adv-x="985" d="M0 985h985v-985h-985v985z" />
<glyph unicode="&#xfb01;" horiz-adv-x="1214" d="M-438 -242q0 90 82 90q70 0 69 -69q0 -29 -23.5 -51.5t-23.5 -28.5q0 -23 101 -23q258 0 350 502l133 731h-207l14 54h203q37 168 177.5 307t314.5 139q90 0 166.5 -31.5t76.5 -107.5q0 -37 -20.5 -59.5t-56.5 -22.5q-74 0 -74 69q0 31 16.5 48.5t16.5 21.5q0 29 -115 29 q-143 0 -240.5 -123t-128.5 -270h604l-163 -639q-45 -186 -46 -224q0 -72 72 -71q119 0 242 331l47 -16q-20 -57 -45 -111.5t-64 -118t-92 -101.5t-110 -38q-74 0 -117 46.5t-43 121.5q0 68 80 381l96 385h-469l-139 -729q-47 -246 -169 -401.5t-323 -155.5q-86 0 -139 39 t-53 96z" />
<glyph unicode="&#xfb02;" horiz-adv-x="1214" d="M-438 -242q0 90 82 90q70 0 69 -69q0 -29 -23.5 -51.5t-23.5 -28.5q0 -23 101 -23q258 0 350 502l133 731h-207l14 54h203q37 168 177.5 307t314.5 139q98 0 166 -33h161l-245 -1052q-45 -186 -46 -224q0 -72 72 -71q119 0 242 331l47 -16q-20 -57 -45 -111.5t-64 -118 t-92 -101.5t-110 -38q-74 0 -117 46.5t-43 121.5q0 35 9 80t33.5 138.5t41.5 162.5l90 385h-467l-139 -729q-47 -246 -169 -401.5t-323 -155.5q-86 0 -139 39t-53 96zM393 963l467 -2l53 227q-70 4 -69 69q0 29 16.5 47.5t16.5 22.5q0 12 -38 20.5t-77 8.5 q-143 0 -240.5 -123t-128.5 -270z" />
<glyph unicode="&#xfb03;" horiz-adv-x="1970" d="M1226 621q135 367 344 366q76 0 117 -50t41 -136q0 -94 -121 -368.5t-121 -317.5q0 -39 26 -62.5t62 -23.5q66 0 146 87t147 261l41 -19q-137 -383 -360 -383q-66 0 -115 57.5t-49 151.5q0 80 60.5 217.5t121 264.5t60.5 182q0 47 -17.5 66.5t-60.5 19.5 q-135 0 -275 -328zM1665 1317q0 39 25.5 65.5t66.5 26.5q39 0 65.5 -26.5t26.5 -65.5t-27.5 -65.5t-64.5 -26.5q-39 0 -65.5 26.5t-26.5 65.5zM184 -242q0 90 82 90q70 0 70 -69q0 -29 -23.5 -51.5t-23.5 -28.5q0 -23 100 -23t176 80t115 191q29 86 62.5 256t74.5 429 t45 277h-199l15 54h194q49 170 179 308t280 138q57 0 98 -29.5t41 -85.5q0 -90 -80 -90q-63 0 -63 64q0 27 18 45l19 18q0 25 -58 25q-66 0 -124 -47t-94 -116t-58.5 -130.5t-26.5 -99.5h230l-15 -54h-227l-125 -729q-49 -281 -188.5 -419t-300.5 -138q-86 0 -139.5 39 t-53.5 96zM-422 -242q0 90 82 90q70 0 70 -69q0 -29 -23.5 -51.5t-23.5 -28.5q0 -23 100 -23t176 80t115 191q29 86 62.5 256t74.5 429t45 277h-199l15 54h194q49 170 179 308t280 138q57 0 98 -29.5t41 -85.5q0 -90 -80 -90q-63 0 -63 64q0 27 18 45l19 18q0 25 -58 25 q-66 0 -124 -47t-94 -116t-58.5 -130.5t-26.5 -99.5h230l-15 -54h-227l-125 -729q-49 -281 -188.5 -419t-300.5 -138q-86 0 -139.5 39t-53.5 96z" />
<glyph unicode="&#xfb04;" horiz-adv-x="1818" d="M1290 156q0 84 35 227l168 661q47 195 47 222q0 35 -29 50t-109 15l15 53h291l-215 -864q-16 -63 -35 -136t-29 -112t-19.5 -77.5t-13.5 -61t-4 -37.5q0 -31 18.5 -49t45.5 -18q57 0 131 90t119 237l43 -12q-109 -369 -324 -369q-57 0 -96 48.5t-39 132.5zM184 -242 q0 90 82 90q70 0 70 -69q0 -29 -23.5 -51.5t-23.5 -28.5q0 -23 100 -23t176 80t115 191q29 86 62.5 256t74.5 429t45 277h-199l15 54h194q49 170 179 308t280 138q57 0 98 -29.5t41 -85.5q0 -90 -80 -90q-63 0 -63 64q0 27 18 45l19 18q0 25 -58 25q-66 0 -124 -47t-94 -116 t-58.5 -130.5t-26.5 -99.5h230l-15 -54h-227l-125 -729q-49 -281 -188.5 -419t-300.5 -138q-86 0 -139.5 39t-53.5 96zM-422 -242q0 90 82 90q70 0 70 -69q0 -29 -23.5 -51.5t-23.5 -28.5q0 -23 100 -23t176 80t115 191q29 86 62.5 256t74.5 429t45 277h-199l15 54h194 q49 170 179 308t280 138q57 0 98 -29.5t41 -85.5q0 -90 -80 -90q-63 0 -63 64q0 27 18 45l19 18q0 25 -58 25q-66 0 -124 -47t-94 -116t-58.5 -130.5t-26.5 -99.5h230l-15 -54h-227l-125 -729q-49 -281 -188.5 -419t-300.5 -138q-86 0 -139.5 39t-53.5 96z" />
</font>
</defs>
</svg>
