<?xml version="1.0" standalone="no"?>
<!DOCTYPE svg PUBLIC "-//W3C//DTD SVG 1.1//EN" "http://www.w3.org/Graphics/SVG/1.1/DTD/svg11.dtd" >
<svg xmlns="http://www.w3.org/2000/svg">
<metadata>
This is a custom SVG webfont generated by Font Squirrel.
Copyright   : Copyright  1990 2001 Adobe Systems Incorporated  All Rights Reserved
Designer    : Tony Stan
Foundry URL : httpwwwadobecomtype
</metadata>
<defs>
<font id="ITCCenturyStdBdCnIt" horiz-adv-x="1024" >
<font-face units-per-em="2048" ascent="1409" descent="-639" />
<missing-glyph horiz-adv-x="512" />
<glyph unicode=" "  horiz-adv-x="512" />
<glyph unicode="&#x09;" horiz-adv-x="512" />
<glyph unicode="&#xa0;" horiz-adv-x="512" />
<glyph unicode="!" horiz-adv-x="569" d="M-37 139q0 72 42 124t112 52q61 0 97 -43t36 -112q0 -72 -42 -124t-112 -52q-61 0 -97 42.5t-36 112.5zM123 438q53 252 74 512q43 524 245 525q57 0 89 -40t32 -100q0 -76 -63.5 -212t-155.5 -328.5t-139 -356.5h-82z" />
<glyph unicode="&#x22;" horiz-adv-x="681" d="M133 1276q-12 166 86 166t86 -166l-37 -418q-8 -63 -49 -63t-49 63zM475 1276q-12 166 86 166t86 -166l-37 -418q-8 -63 -49 -63t-49 63z" />
<glyph unicode="#" d="M-16 412v163h209l34 259h-184v163h209l55 412h178l-55 -412h203l55 412h176l-53 -412h168v-163h-193l-34 -259h168v-163h-193l-57 -412h-176l53 412h-201l-57 -412h-176l55 412h-184zM373 575h200l35 259h-202z" />
<glyph unicode="$" d="M41 338q0 115 46 167t110 52q55 0 87.5 -38t32.5 -93q0 -160 -178 -160q0 -61 52.5 -107t127.5 -57l132 516q-66 53 -102 90t-70.5 109t-34.5 156q0 170 114.5 296t290.5 140l35 139h82l-35 -139q106 -12 179 -85t73 -171q0 -68 -36 -119t-99 -51q-51 0 -85 36t-34 87 q0 49 34 90t81 57q-20 76 -131 86l-105 -419q61 -49 86 -73t70 -77t63.5 -114.5t18.5 -139.5q0 -174 -126 -321.5t-335 -165.5l-41 -160h-82l41 164q-119 12 -190.5 103t-71.5 202zM403 102q98 16 161 88t65 175q2 100 -111 198zM444 1151q0 -98 97 -176l90 360 q-86 -14 -136.5 -65t-50.5 -119z" />
<glyph unicode="%" horiz-adv-x="1366" d="M45 -33l1161 1475h113l-1157 -1475h-117zM139 1014q0 170 114 299t259 129q98 0 159.5 -81t61.5 -194q0 -170 -113.5 -299t-259.5 -129q-98 0 -159.5 81t-61.5 194zM303 883q0 -78 57 -78q78 0 152 233q57 178 57 260q0 78 -57 78q-78 0 -152 -233q-57 -178 -57 -260z M584 242q0 170 113.5 299t258.5 129q98 0 160 -81t62 -194q0 -170 -114 -299t-259 -129q-98 0 -159.5 81t-61.5 194zM748 111q0 -78 57 -78q78 0 151 233q57 178 58 260q0 78 -58 78q-78 0 -151 -233q-57 -178 -57 -260z" />
<glyph unicode="&#x26;" horiz-adv-x="1251" d="M-82 348q0 74 23.5 135.5t56.5 100.5t91 74.5t101 55t111 44.5q-12 111 -12 164q0 201 119.5 360.5t316.5 159.5q119 0 196.5 -66.5t77.5 -181.5q0 -45 -12 -87t-24.5 -70.5t-48 -61.5t-52 -49.5t-69.5 -44.5l-67 -36q-13 -7 -76.5 -36t-71.5 -33q92 -311 172 -448 q121 178 120 282q0 47 -29.5 62.5t-84.5 15.5l18 86h428l-16 -86q-59 0 -102.5 -18.5t-76 -62.5t-57 -89t-67.5 -125t-86 -145q53 -88 114 -88q49 0 88 57t88 174l68 -29q-20 -61 -48 -119.5t-73 -123t-107.5 -104.5t-133.5 -40q-113 0 -185 99q-137 -106 -293 -107 q-178 0 -287.5 107.5t-109.5 273.5zM184 356q0 -106 60.5 -192t161.5 -86q74 0 153 57q-61 84 -129 233.5t-106 301.5q-140 -85 -140 -314zM535 1034q0 -96 26 -176q119 45 199 149.5t80 225.5q0 123 -101 123q-82 0 -143 -89.5t-61 -232.5z" />
<glyph unicode="'" horiz-adv-x="454" d="M190 1276q-12 166 86.5 166t85.5 -166l-36 -418q-8 -63 -49 -63t-50 63z" />
<glyph unicode="(" horiz-adv-x="909" d="M119 242q0 154 35.5 317.5t110.5 321t179.5 283.5t252 209t315.5 93l-8 -65q-162 -31 -299.5 -185.5t-218 -355.5t-126 -390t-45.5 -318q0 -436 215 -476l-6 -65q-106 10 -188 71.5t-127 155.5t-67.5 196t-22.5 208z" />
<glyph unicode=")" horiz-adv-x="909" d="M-279 -389l9 65q162 31 299 185.5t218 355.5t126 390.5t45 318.5q0 436 -215 475l6 65q106 -10 188 -71.5t127 -155.5t67.5 -195.5t22.5 -207.5q0 -154 -35.5 -318t-110.5 -321.5t-179.5 -283.5t-252 -209t-315.5 -93z" />
<glyph unicode="*" horiz-adv-x="909" d="M66 918q0 39 30.5 68.5t69.5 29.5q33 0 92 -10.5t102 -10.5q45 0 91 21l4 14q-39 39 -97.5 65.5t-99.5 37t-71.5 39t-30.5 79.5q0 37 29.5 68t64.5 31q49 0 82 -37t45 -83t36.5 -96.5t57.5 -68.5l12 -10l17 4q12 57 12 96q0 31 -14.5 90.5t-14.5 85.5q0 49 28 80t77 31 q47 0 75.5 -30t28.5 -69q0 -43 -20.5 -73.5t-46 -50t-53 -63.5t-37.5 -107l16 -13q66 14 114 55.5t87 75t90 33.5q43 0 69.5 -30.5t26.5 -69.5q0 -49 -33 -78t-96 -29q-20 0 -75.5 11.5t-98.5 11.5q-47 0 -78 -21l-4 -14q43 -49 121 -76.5t126 -54.5t48 -86 q0 -41 -28.5 -71.5t-67.5 -30.5q-45 0 -76 33.5t-44.5 78.5t-41 98.5t-66.5 81.5l-18 -4q-12 -61 -12 -96q0 -43 12 -98.5t12 -73.5q0 -47 -28.5 -80t-69.5 -33q-49 0 -77 27t-28 66q0 45 33 85.5t72 94t49 123.5l-12 14q-76 -25 -166 -93.5t-133 -68.5t-67.5 28t-24.5 73z " />
<glyph unicode="+" horiz-adv-x="1228" d="M70 383v213h383v383h213v-383h383v-213h-383v-383h-213v383h-383z" />
<glyph unicode="," horiz-adv-x="512" d="M-184 -358q102 57 189 158.5t97 199.5q-57 0 -95 34t-38 91q0 74 38 132t106 58q61 0 97 -49t36 -133q0 -150 -121 -321.5t-256 -237.5z" />
<glyph unicode="-" horiz-adv-x="530" d="M-82 389l53 201h447l-53 -201h-447z" />
<glyph unicode="." horiz-adv-x="512" d="M-33 139q0 72 42 124t112 52q61 0 97 -43t36 -112q0 -72 -42 -124t-112 -52q-61 0 -97 42.5t-36 112.5z" />
<glyph unicode="/" horiz-adv-x="569" d="M-324 -33l897 1475h238l-897 -1475h-238z" />
<glyph unicode="0" d="M12 446q0 231 95.5 465t246 382.5t297.5 148.5q150 0 231 -128t81 -351q0 -231 -95.5 -465t-246 -382.5t-297.5 -148.5q-125 0 -218.5 133t-93.5 346zM229 184q0 -131 90 -131q61 0 115.5 85t124.5 290q76 227 131 469t55 328q0 131 -90 131q-61 0 -115.5 -85 t-123.5 -290q-76 -227 -131.5 -469t-55.5 -328z" />
<glyph unicode="1" d="M-49 0l18 86q244 0 287 164l268 983h-209l21 86q213 12 448 135h74l-326 -1184q-16 -66 -16 -98q0 -49 32 -67.5t134 -18.5l-20 -86h-711z" />
<glyph unicode="2" d="M-90 57q0 90 45 173t116.5 149.5t157.5 133.5t172 137.5t158 146t117 176t45 213.5q0 154 -150 153q-102 0 -202.5 -101t-100.5 -220q0 -72 60 -72q27 0 53.5 14.5t43.5 33t35.5 48t29 49t23.5 49t15 36.5l72 -31q-35 -113 -111.5 -207t-181.5 -94q-68 0 -104.5 48 t-36.5 130q0 141 144.5 280.5t334.5 139.5q162 0 264.5 -86t102.5 -238q0 -129 -57.5 -223t-158 -156.5t-208 -115t-237.5 -130t-218 -167.5l4 -4q72 14 99 14q51 0 159.5 -24.5t136.5 -24.5q55 0 97.5 21.5t74 67.5t48 78.5t41.5 94.5l75 -25q-6 -14 -32.5 -95t-56 -148.5 t-76 -145.5t-113 -123t-144.5 -45q-70 0 -131 38t-96 83t-74 83t-67 38q-27 0 -27 -27q0 -10 3 -34.5t3 -47.5q0 -49 -22.5 -84.5t-65.5 -35.5q-59 -1 -59 77z" />
<glyph unicode="3" d="M-51 254q0 94 60.5 179t152.5 85q63 0 101 -39t38 -100.5t-44 -116.5t-105 -55q-39 0 -64 17.5t-29 17.5q-8 0 -8 -17q0 -66 49.5 -119t139.5 -53q106 0 192 84t124 183.5t38 177.5q0 80 -28.5 129t-57.5 49q-16 0 -65.5 -14.5t-75.5 -14.5q-84 0 -84 58q0 66 112 65 q12 0 37 -4t39 -4q92 0 187.5 122t95.5 275q0 180 -158 180q-109 0 -213 -99t-104 -216q0 -84 55 -84q43 0 88 45t67.5 83t51.5 95l6 13l69 -33q-25 -90 -114.5 -189.5t-175.5 -99.5q-76 0 -113 46t-37 122q0 150 147.5 285t352.5 135q154 0 261 -82t107 -223 q0 -150 -118.5 -259.5t-276.5 -142.5v-4q123 -37 179.5 -94t56.5 -174q0 -213 -182.5 -354.5t-405.5 -141.5q-156 0 -252 70t-96 217z" />
<glyph unicode="4" d="M-37 469q0 68 96 68q35 0 64 -9q219 344 287 926h286q-43 -244 -190.5 -530.5t-294.5 -421.5q72 -20 250 -105l186 672h221l-192 -711q82 18 186 123l43 -39q-45 -70 -119.5 -128t-142.5 -76l-119 -426h-223l121 442q-78 35 -155 106.5t-117 85.5q-92 -37 -115 -36 q-72 0 -72 59z" />
<glyph unicode="5" d="M-25 233q0 111 55.5 191t143.5 80q57 0 93 -39t36 -98q0 -68 -42 -121t-97 -53q-45 0 -82 32q-4 -8 -4 -22q0 -72 45 -111t121 -39q78 0 145.5 60.5t108.5 147.5t64.5 178t23.5 161q0 217 -144 217q-111 0 -215 -149l-67 37l243 737q166 -70 283 -70q127 0 210 20.5 t115.5 41t37.5 20.5q20 0 20 -31q0 -76 -94 -161q-176 -160 -379 -160q-104 0 -201 28l-98 -286l4 -4q109 80 227 80q162 0 255.5 -107.5t93.5 -271.5q0 -238 -179.5 -406t-431.5 -168q-127 0 -209 69.5t-82 196.5z" />
<glyph unicode="6" d="M45 397q0 254 108.5 498t281.5 395.5t351 151.5q100 0 167 -64.5t67 -163.5q0 -70 -49 -139t-119 -69q-57 0 -90 36.5t-33 90.5q0 96 78 139q18 10 34.5 16t24.5 7t13.5 5.5t5.5 12.5q0 16 -28 29.5t-64 13.5q-225 0 -371 -551h4q27 35 79 63.5t103 28.5 q129 0 204 -111.5t75 -244.5q0 -211 -143.5 -392.5t-366.5 -181.5q-160 0 -246 121t-86 309zM283 152q0 -98 69 -99q55 0 109.5 79t90.5 186.5t58.5 210t22.5 159.5q0 106 -70 107q-76 0 -142.5 -103.5t-102 -251t-35.5 -288.5z" />
<glyph unicode="7" d="M166 846l180 555h82l-37 -135l4 -4q6 6 37 40.5t40 44t38 35t49.5 33.5t53 17.5t67.5 9.5q76 0 144.5 -36t118.5 -72t83 -36q-6 29 -6 62q0 82 67 82q31 0 49.5 -21.5t18.5 -56.5q0 -43 -60.5 -126t-149.5 -187.5t-180 -222t-163 -259t-86 -268.5q-25 -213 -54.5 -273.5 t-121.5 -60.5q-131 0 -131 187q0 111 49 222t137 217.5t176 195t200 197t173 177.5l-4 4q-104 -41 -197 -41q-55 0 -124.5 18.5t-94.5 18.5q-39 0 -75.5 -19.5t-60 -40t-51.5 -67.5t-38 -66.5t-32.5 -73.5t-22.5 -56z" />
<glyph unicode="8" d="M-12 287q0 59 13 109t43 88t58.5 67t76.5 55.5t82 42t89 37.5q-145 129 -145 311.5t137 313.5t324 131q150 0 250 -83t100 -226q0 -139 -85 -222.5t-237 -138.5q190 -168 191 -336q0 -197 -158 -333t-358 -136q-170 0 -275.5 85t-105.5 235zM180 287q0 -233 195 -234 q104 0 173.5 82t69.5 184q0 68 -35.5 129.5t-65.5 88t-105 88.5q-232 -102 -232 -338zM442 1100q0 -129 191 -266q219 92 219 305q0 90 -51 153.5t-142 63.5q-100 0 -158.5 -77t-58.5 -179z" />
<glyph unicode="9" d="M-51 217q0 88 42 154.5t126 66.5q55 0 89 -40t34 -95q0 -74 -51.5 -126t-122.5 -36q12 -88 120 -88q66 0 120 31t90 77t67 116.5t51.5 135t42.5 148.5q6 27 10 39h-4q-88 -80 -184 -80q-123 0 -200 97.5t-77 232.5q0 137 62.5 271t185.5 227.5t271 93.5q152 0 236.5 -115 t84.5 -326q0 -150 -49 -323.5t-136 -334.5t-229.5 -268.5t-308.5 -107.5q-125 0 -197.5 65.5t-72.5 184.5zM369 721q0 -98 73 -98q84 0 152 136t95.5 275.5t27.5 216.5q0 104 -72 105q-78 0 -144.5 -126t-99 -270.5t-32.5 -238.5z" />
<glyph unicode=":" horiz-adv-x="512" d="M-33 139q0 72 42 124t112 52q61 0 97 -43t36 -112q0 -72 -42 -124t-112 -52q-61 0 -97 42.5t-36 112.5zM123 756q0 72 42 124t111 52q61 0 97.5 -44t36.5 -112q0 -72 -42 -124t-112 -52q-61 0 -97 44t-36 112z" />
<glyph unicode=";" horiz-adv-x="512" d="M-184 -358q102 57 189 158.5t97 199.5q-57 0 -95 34t-38 91q0 74 38 132t106 58q61 0 97 -49t36 -133q0 -150 -121 -321.5t-256 -237.5zM123 756q0 72 42 124t111 52q61 0 97.5 -44t36.5 -112q0 -72 -42 -124t-112 -52q-61 0 -97 44t-36 112z" />
<glyph unicode="&#x3c;" horiz-adv-x="1228" d="M57 420v139l983 436v-237l-624 -269l624 -268v-237z" />
<glyph unicode="=" horiz-adv-x="1228" d="M70 168v213h979v-213h-979zM70 598v213h979v-213h-979z" />
<glyph unicode="&#x3e;" horiz-adv-x="1228" d="M82 -16v237l625 268l-625 269v237l983 -436v-139z" />
<glyph unicode="?" horiz-adv-x="833" d="M33 139q0 72 42 124t111 52q61 0 97 -43t36 -112q0 -72 -41.5 -124t-111.5 -52q-61 0 -97 42.5t-36 112.5zM131 549q0 92 56.5 167t187.5 140q203 102 203 318q0 186 -152 186q-90 0 -147.5 -79t-57.5 -171q0 -57 21 -115l-72 -24q-35 66 -35 143q0 141 108.5 251 t252.5 110q137 0 242.5 -96.5t105.5 -233.5q0 -150 -91 -238t-239 -121q-297 -66 -297 -231q0 -76 53 -76q70 0 127 119l64 -39q-23 -66 -74 -116t-119 -50q-59 0 -98 42t-39 114z" />
<glyph unicode="@" horiz-adv-x="1638" d="M45 672q0 338 225.5 554t546.5 216q295 0 494.5 -180.5t199.5 -450.5q0 -182 -108.5 -343t-282.5 -161q-92 0 -143 56.5t-49 95.5h-4q-14 -39 -86 -95.5t-156 -56.5q-92 0 -148.5 69.5t-56.5 203.5q0 182 112.5 348t280.5 166q119 0 166 -99l21 66h162l-117 -494 q-8 -33 -8 -61q0 -100 63 -100q61 0 126 122.5t65 280.5q0 184 -148.5 324.5t-382 140.5t-374 -156.5t-140.5 -433.5q0 -242 164 -395.5t371 -153.5q236 0 417 98l21 -131q-229 -135 -436 -135q-197 0 -355.5 68.5t-251 177.5t-140.5 227.5t-48 231.5zM678 567 q0 -55 18.5 -92t51.5 -37q90 0 164.5 131t74.5 293q0 41 -24.5 71t-63.5 30q-80 0 -150.5 -120t-70.5 -276z" />
<glyph unicode="A" horiz-adv-x="1138" d="M-270 0l20 86q49 4 84 17.5t65.5 47t43 51t45.5 70.5l731 1186h108l37 -1253q2 -74 28 -96.5t103 -22.5l-20 -86h-582l21 86q92 4 132 30.5t40 110.5q0 35 -1 75t-3 88t-2 77h-365q-23 -37 -50.5 -81t-41.5 -67.5t-30.5 -50t-25 -41t-15.5 -31t-9 -27.5t-2 -22 q0 -35 28.5 -48t108.5 -13l-20 -86h-428zM276 569h297l-10 453h-4z" />
<glyph unicode="B" horiz-adv-x="1251" d="M-205 0l21 86q106 0 146 28.5t65 114.5l241 883q31 109 31 135q0 45 -28.5 58.5t-110.5 17.5l20 86h629q172 0 272.5 -79t100.5 -210q0 -158 -118 -252t-308 -112v-4q315 -59 315 -312q0 -199 -145.5 -319.5t-358.5 -120.5h-772zM315 176q0 -90 113 -90q147 0 233.5 127 t86.5 276q0 119 -56.5 167.5t-161.5 48.5h-77l-119 -426q-19 -66 -19 -103zM479 791h53q174 0 258 104t84 268q0 160 -133 160q-115 0 -141 -98z" />
<glyph unicode="C" horiz-adv-x="1175" d="M12 487q0 199 72 380.5t185.5 305t256 196.5t281.5 73q160 0 274 -121l62 76h78l-142 -531h-86q25 123 25 221q0 111 -46 190t-149 79q-117 0 -220 -110.5t-169.5 -273.5t-104.5 -336t-38 -310q0 -127 54 -196t147 -69q156 0 273.5 154t172.5 363l86 -23 q-29 -109 -74 -206t-113.5 -186t-168 -142.5t-217.5 -53.5q-203 0 -321 151.5t-118 368.5z" />
<glyph unicode="D" horiz-adv-x="1290" d="M-186 0l20 86q92 0 132 29.5t63 113.5l241 883q31 109 31 135q0 45 -28.5 58.5t-110.5 17.5l20 86h490q244 0 384 -141.5t140 -399.5q0 -217 -92 -413.5t-275.5 -325.5t-414.5 -129h-600zM313 174q0 -47 21.5 -67.5t81.5 -20.5q119 0 219 111.5t155.5 270.5t85 307.5 t29.5 246.5q0 145 -50 223t-132 78q-63 0 -93 -29.5t-59 -136.5l-223 -823q-35 -133 -35 -160z" />
<glyph unicode="E" horiz-adv-x="1214" d="M-184 0l20 86q98 0 136 28.5t63 114.5l241 883q31 109 31 135q0 45 -28.5 58.5t-110.5 17.5l20 86h1059l-145 -547h-80q20 106 20 191q0 270 -256 270q-158 0 -190 -123l-111 -405q135 0 191.5 48t103.5 183h84l-162 -575h-73q8 57 8 86q0 72 -36 113.5t-105 41.5h-39 l-107 -383q-27 -92 -26 -135q0 -49 21.5 -68.5t80.5 -19.5q221 0 339 121t189 346h84l-143 -553h-1079z" />
<glyph unicode="F" horiz-adv-x="1175" d="M-184 0l20 86q106 0 146.5 28.5t64.5 114.5l242 883q31 109 30 135q0 45 -28.5 58.5t-110.5 17.5l21 86h1056l-145 -547h-80q20 106 21 191q0 270 -256 270q-158 0 -191 -123l-110 -405q135 0 191 48t104 183h83l-161 -575h-74q8 57 8 86q0 72 -36 113.5t-105 41.5h-39 l-111 -395q-31 -109 -30 -135q0 -45 32.5 -58.5t130.5 -17.5l-20 -86h-653z" />
<glyph unicode="G" horiz-adv-x="1251" d="M12 520q0 205 105.5 417t294 358.5t401.5 146.5q72 0 137.5 -24.5t105.5 -49.5t46 -25q18 0 37.5 26t21.5 28h72l-143 -533h-82q20 106 20 197q0 154 -48 224.5t-153 70.5q-125 0 -231.5 -115t-170 -280.5t-99 -332.5t-35.5 -290q0 -129 49 -207t117 -78q135 0 182 191 l37 153q25 109 24 119q0 90 -145 90l18 86h617l-19 -86q-82 0 -121.5 -25.5t-62.5 -103.5l-131 -465h-59l-39 68q-168 -113 -312 -113q-111 0 -197.5 49.5t-136 130t-75 176t-25.5 197.5z" />
<glyph unicode="H" horiz-adv-x="1366" d="M-184 0l20 86q106 0 146.5 28.5t64.5 114.5l242 883q31 109 30 135q0 45 -28.5 58.5t-110.5 17.5l21 86h608l-21 -86q-88 0 -125.5 -29.5t-60.5 -113.5l-113 -394h355l88 326q31 109 31 135q0 43 -26 57.5t-89 18.5l20 86h609l-21 -86q-106 0 -147 -28.5t-66 -114.5 l-252 -883q-31 -109 -30 -135q0 -45 28.5 -58.5t110.5 -17.5l-21 -86h-596l21 86q88 0 126 29.5t60 113.5l125 455h-356l-111 -387q-31 -109 -31 -135q0 -43 26 -57.5t89 -18.5l-20 -86h-596z" />
<glyph unicode="I" horiz-adv-x="757" d="M-156 0l21 86q106 0 146 28.5t65 114.5l241 883q31 109 31 135q0 45 -28.5 58.5t-110.5 17.5l20 86h633l-20 -86q-106 0 -146.5 -28.5t-64.5 -114.5l-242 -883q-31 -109 -31 -135q0 -45 29 -58.5t111 -17.5l-21 -86h-633z" />
<glyph unicode="J" horiz-adv-x="948" d="M-150 258q0 115 59.5 212t149.5 97q59 0 96.5 -45t37.5 -104q0 -74 -44.5 -134.5t-97.5 -60.5q-31 0 -57.5 21.5t-30.5 21.5q-27 0 -26 -51q0 -47 40.5 -96t126.5 -49q104 0 164 66.5t105 234.5l194 741q31 117 31 145q0 37 -28.5 51.5t-98.5 14.5l21 86h600l-21 -86 q-92 0 -133 -33t-61 -110l-234 -869q-45 -170 -183 -257t-284 -87q-147 0 -236.5 76t-89.5 215z" />
<glyph unicode="K" horiz-adv-x="1290" d="M-172 0l20 86q106 0 146.5 28.5t64.5 114.5l242 883q31 109 31 135q0 45 -29 58.5t-110 17.5l20 86h616l-20 -86q-90 0 -133 -36t-62 -105l-110 -404l4 -4l422 377q86 76 96 102q6 10 6 23q0 27 -25.5 37t-97.5 10l21 86h487l-20 -86q-23 0 -42.5 -2t-40 -8t-34.5 -10.5 t-34.5 -17.5t-29 -17t-30 -21.5t-26.5 -21.5t-29.5 -24.5t-26.5 -22.5l-295 -258l215 -730q18 -66 42 -85t87 -19l-20 -86h-576l21 86q143 0 143 80q0 23 -5 45t-14.5 52t-11.5 38l-117 410l-110 -88l-90 -326q-31 -109 -31 -135q0 -43 25.5 -57.5t89.5 -18.5l-21 -86h-608z " />
<glyph unicode="L" horiz-adv-x="1062" d="M-205 0l21 86q106 0 146 28.5t65 114.5l241 883q31 109 31 135q0 45 -28.5 58.5t-110.5 17.5l20 86h625l-21 -86q-106 0 -147 -29.5t-64 -113.5l-227 -852q-31 -113 -31 -156q0 -86 97 -86q182 0 296.5 116.5t190.5 366.5l82 -8l-154 -561h-1032z" />
<glyph unicode="M" horiz-adv-x="1593" d="M-184 0l20 86q111 16 150 52t69 151l232 839q25 98 24 117q0 78 -137 78l21 86h493l-8 -932l6 -4l518 936h496l-21 -86q-92 0 -132 -38t-60 -114l-250 -919q-16 -57 -16 -96t26.5 -54.5t95.5 -15.5l-20 -86h-586l21 86q98 0 134 29.5t62 130.5l271 1018l-4 4l-697 -1268 h-123l9 1253h-4l-246 -929q-27 -104 -27 -158q0 -43 27.5 -61.5t105.5 -18.5l-20 -86h-430z" />
<glyph unicode="N" horiz-adv-x="1214" d="M-203 0l21 86q96 0 140 36t62 107l236 863q37 131 37 151q0 45 -30 62.5t-101 17.5l20 86h361l313 -1014h4l197 715q27 100 26 125q0 43 -29.5 62.5t-105.5 25.5l15 86h423l-20 -86q-84 -6 -130 -40t-67 -112l-327 -1191h-146l-348 1122h-4l-221 -826q-18 -74 -19 -102 q0 -47 33 -67.5t109 -20.5l-21 -86h-428z" />
<glyph unicode="O" horiz-adv-x="1251" d="M-4 541q0 219 109.5 430t280.5 341t345 130q199 0 317.5 -162t118.5 -412q0 -219 -109.5 -430t-280.5 -341t-345 -130q-199 0 -317.5 162t-118.5 412zM262 295q0 -242 158 -242q94 0 187 123t154.5 296t100.5 349t39 293q0 242 -158 242q-94 0 -187 -123t-154.5 -296 t-100.5 -349t-39 -293z" />
<glyph unicode="P" horiz-adv-x="1175" d="M-178 0l20 86q106 0 146.5 28.5t64.5 114.5l242 883q31 109 31 135q0 45 -29 58.5t-111 17.5l21 86h571q180 0 284.5 -85t104.5 -228q0 -186 -141 -303t-459 -117h-102l-105 -379q-23 -78 -22 -150q0 -61 164 -61l-21 -86h-659zM492 762h55q94 0 162.5 43t102.5 110.5 t49.5 132t15.5 123.5q0 152 -125 152q-59 0 -90 -28.5t-52 -100.5z" />
<glyph unicode="Q" horiz-adv-x="1251" d="M-4 541q0 219 109.5 430t280.5 341t345 130q199 0 317.5 -162t118.5 -412q0 -260 -145 -495.5t-356 -343.5q20 -145 94 -146q53 0 94 46t57.5 91.5t34.5 110.5q2 10 4 16l68 -22q-18 -100 -59 -194.5t-122 -169t-180 -74.5q-209 0 -208 282q-10 -2 -31 -2 q-168 0 -295 152t-127 422zM262 295q0 -121 35 -180l4 4q-12 41 -12 71q0 121 52 199t136 78q76 0 116 -51t54 -178h4q104 174 177 442t73 434q0 242 -158 242q-94 0 -187 -123t-154.5 -296t-100.5 -349t-39 -293zM367 188q0 -57 23.5 -96t68.5 -39h6q4 33 29.5 114 t25.5 124q0 90 -53 90q-41 0 -70.5 -50.5t-29.5 -142.5z" />
<glyph unicode="R" horiz-adv-x="1251" d="M-184 0l20 86q100 0 139 28.5t64 114.5l242 883q31 109 30 135q0 45 -28.5 58.5t-110.5 17.5l21 86h559q227 0 340.5 -88t113.5 -231q0 -135 -84 -228.5t-200.5 -131.5t-249.5 -40v-4q254 -76 254 -297q0 -27 -8.5 -81t-8.5 -79q0 -53 29 -53q25 0 50.5 39t49 96.5 t27.5 65.5l72 -25q-45 -133 -128 -252.5t-188 -119.5q-203 0 -203 258q0 47 15.5 135t15.5 133q0 59 -25.5 106t-78.5 47h-92l-101 -362q-31 -109 -30 -135q0 -45 28.5 -58.5t110.5 -17.5l-21 -86h-624zM477 745h49q190 0 289.5 111t99.5 305q0 162 -151 162 q-127 0 -164 -135z" />
<glyph unicode="S" d="M-160 0l146 553h71q-14 -158 -14 -254q0 -113 65.5 -179.5t178.5 -66.5q131 0 220 84t89 199q0 61 -36 110.5t-89 81t-115.5 72.5t-116 81t-89 109.5t-35.5 157.5q0 186 151.5 340t335.5 154q90 0 161 -30t107.5 -59.5t47 -29.5t22.5 11.5t27.5 31.5t27.5 31h72 l-147 -520h-78q29 111 28 196q0 121 -60 202t-179 81q-111 0 -180.5 -83t-69.5 -198q0 -72 51 -130t123 -100t144.5 -86t123.5 -111.5t51 -151.5q0 -248 -171 -388.5t-402 -140.5q-96 0 -163.5 25.5t-101.5 50.5t-48 25q-16 0 -76 -68h-72z" />
<glyph unicode="T" horiz-adv-x="1138" d="M37 0l20 86q98 0 140.5 33t62.5 110l295 1094q-170 0 -277.5 -127t-158.5 -322h-78l145 535h1076l-134 -530h-77q16 131 16 190q0 254 -174 254h-47l-273 -1026q-31 -119 -30 -135q0 -45 28.5 -58.5t110.5 -17.5l-20 -86h-625z" />
<glyph unicode="U" horiz-adv-x="1251" d="M41 276q0 72 29 173l180 663q31 104 31 141q0 70 -129 70l20 86h606l-20 -86q-94 0 -132 -29.5t-63 -113.5l-217 -781q-27 -88 -27 -157q0 -80 48.5 -130.5t134.5 -50.5q270 0 346 267l221 794q29 102 29 142q0 37 -32 48t-108 11l21 86h416l-21 -86q-86 0 -132 -35 t-68 -121l-226 -829q-53 -201 -177 -286t-314 -85q-158 0 -287 83t-129 226z" />
<glyph unicode="V" d="M37 1323l20 86h584l-20 -86q-100 0 -135 -23.5t-35 -78.5v-844h4l463 778q43 74 43 108.5t-33 47t-109 12.5l21 86h409l-20 -86q-41 0 -71 -9t-54.5 -35t-35.5 -39t-34.5 -57t-32.5 -57l-686 -1159h-143v1227q0 78 -32.5 103.5t-102.5 25.5z" />
<glyph unicode="W" horiz-adv-x="1593" d="M61 1323l21 86h545l-21 -86q-131 0 -137 -90l-37 -811l4 -4l359 631q12 117 12 188q0 86 -102 86l20 86h549l-21 -86q-164 -6 -168 -115l-41 -802l5 -5l378 654q82 141 91 178q2 12 2 24q0 39 -29 52.5t-98 13.5l20 86h393l-20 -86q-53 0 -88 -18.5t-47.5 -37 t-42.5 -71.5l-707 -1229h-153l32 867l-4 4l-502 -871h-149l53 1084q6 100 6 178q0 49 -26.5 71.5t-96.5 22.5z" />
<glyph unicode="X" horiz-adv-x="1214" d="M-225 0l20 86q104 23 155.5 56.5t145.5 138.5l357 391l-160 581q-10 39 -36 54.5t-81 15.5l21 86h569l-21 -86q-160 0 -159 -78q0 -16 2 -31.5t9 -46t14 -56.5t24.5 -91.5t32.5 -122.5q47 53 112.5 123t97 104.5t56 73.5t24.5 66q0 35 -24.5 47t-81.5 12l20 86h471 l-20 -86q-88 0 -149.5 -38t-126.5 -107l-351 -371l166 -606q20 -72 47 -93.5t101 -21.5l-21 -86h-596l21 86q86 0 125 20.5t39 69.5q0 31 -7.5 61.5t-35 129t-54.5 202.5q-74 -82 -146.5 -159.5t-104 -109.5t-58.5 -64.5t-34 -49t-7 -39.5q0 -61 141 -61l-20 -86h-477z" />
<glyph unicode="Y" horiz-adv-x="1062" d="M-23 0l21 86q100 0 145 36t66 107l108 385l-106 611q-16 96 -113 98l21 86h561l-21 -86q-66 0 -107.5 -21.5t-41.5 -60.5q0 -29 12 -106l70 -398l291 406q63 90 63 121q0 59 -125 59l21 86h430l-23 -86q-84 -6 -138 -46t-107 -114l-388 -540l-94 -326q-31 -104 -30 -141 q0 -70 143 -70l-21 -86h-637z" />
<glyph unicode="Z" d="M-135 0l31 127l886 1196h-80q-397 0 -520 -444l-73 12l147 518h870l-22 -115l-899 -1208h112q223 0 343 126t182 355l84 -12l-150 -555h-911z" />
<glyph unicode="[" horiz-adv-x="909" d="M-29 -373l510 1811h416l-25 -95q-102 -4 -157.5 -35.5t-79.5 -119.5l-340 -1211q-35 -121 -35 -153q0 -63 39 -83t119 -20l-25 -94h-422z" />
<glyph unicode="\" horiz-adv-x="569" d="M-115 1442h213l488 -1475h-213z" />
<glyph unicode="]" horiz-adv-x="909" d="M-164 -373l25 94q102 4 157.5 36t79.5 120l340 1210q35 121 35 154q0 63 -39 82.5t-119 19.5l25 95h422l-510 -1811h-416z" />
<glyph unicode="^" horiz-adv-x="1228" d="M197 702l331 707h172l332 -707h-221l-197 451l-198 -451h-219z" />
<glyph unicode="_" d="M0 -154h1024v-102h-1024v102z" />
<glyph unicode="`" horiz-adv-x="569" d="M102 1417q0 31 28 54.5t62.5 23.5t59 -20.5t61.5 -75.5l183 -269h-86l-174 136q-10 8 -28 21t-25 19.5t-20 17.5l-19.5 16.5t-14.5 14.5t-12 15t-8.5 14.5t-5.5 16.5t-1 16z" />
<glyph unicode="a" horiz-adv-x="1099" d="M-41 330q0 162 63.5 316.5t181.5 256t259 101.5q76 0 121 -47.5t55 -114.5h4l35 137h268l-203 -748q-23 -80 -22 -108q0 -33 27 -33q72 0 196 289l60 -27q-20 -51 -36 -88t-48.5 -96t-66.5 -97t-82 -67t-101 -29q-78 0 -126 58.5t-48 154.5h-4q-39 -66 -66 -101.5 t-82 -73.5t-119 -38q-98 0 -159.5 54.5t-84 129.5t-22.5 171zM213 213q0 -123 78 -123q66 0 136.5 124t112.5 274.5t42 246.5q0 154 -74 154q-72 0 -143.5 -138.5t-111.5 -295t-40 -242.5z" />
<glyph unicode="b" d="M-16 238q0 72 47 243q29 104 55.5 203.5t43.5 165t33.5 126t27 96.5t18.5 69l12 49q4 16 7 31.5t4 22.5t1 16q0 33 -20 47t-86 16l23 74l407 12l-164 -563l4 -4q123 162 256 162q98 0 167 -91.5t69 -246.5q0 -264 -180.5 -477.5t-434.5 -213.5q-131 0 -210.5 73 t-79.5 190zM229 162q0 -100 66 -101q76 0 158 133.5t132 306.5t50 298q0 90 -66 90q-86 0 -169 -140.5t-127 -308t-44 -278.5z" />
<glyph unicode="c" horiz-adv-x="872" d="M-41 377q0 236 190.5 431.5t421.5 195.5q113 0 174.5 -56.5t61.5 -134.5q0 -70 -42 -125t-114 -55q-55 0 -89 36t-34 93q0 74 64 110q10 6 22.5 11.5t18.5 8.5t6 7q0 18 -45 19q-92 0 -177 -109t-132 -263.5t-47 -299.5q0 -184 135 -185q82 0 151.5 77t145.5 243l65 -27 q-33 -72 -52 -108.5t-60 -97t-81 -92t-102.5 -56.5t-138.5 -25q-152 0 -247 110t-95 292z" />
<glyph unicode="d" horiz-adv-x="1099" d="M-41 352q0 129 64.5 278.5t185.5 261.5t256 112q125 0 172 -146h4l84 301q14 49 14 101q0 33 -20.5 47t-83.5 16l20 74l408 12l-318 -1167q-27 -94 -26 -127q0 -37 31 -37q39 0 96 102.5t86 190.5l61 -27q-20 -57 -29.5 -79.5t-43 -90.5t-63.5 -101.5t-81 -65.5t-106 -32 q-76 0 -122 53.5t-46 153.5l-4 4q-33 -49 -52.5 -74.5t-55.5 -63.5t-76 -55.5t-85 -17.5q-129 0 -199.5 106.5t-70.5 270.5zM213 197q0 -119 73.5 -119t147.5 130t114 280.5t40 236.5q0 164 -80 164q-66 0 -138.5 -139.5t-114.5 -301t-42 -251.5z" />
<glyph unicode="e" horiz-adv-x="872" d="M-53 389q0 166 98 311.5t234.5 224.5t261.5 79q113 0 181.5 -55.5t68.5 -149.5q0 -84 -50.5 -159t-134.5 -124q-121 -70 -379 -82q-27 -92 -26 -180q0 -193 129 -193q104 0 192 100.5t127 215.5l64 -25q-41 -133 -152.5 -255t-263.5 -122q-158 0 -254 118t-96 296z M250 520q147 14 235 104.5t88 213.5q0 80 -59 80q-80 0 -151.5 -121t-112.5 -277z" />
<glyph unicode="f" horiz-adv-x="645" d="M-440 -240q0 63 35.5 109.5t99.5 46.5q55 0 87 -33t32 -86q0 -37 -26 -72.5t-26 -39.5q0 -20 23 -21q41 0 96.5 75t89.5 222l222 932h-138l21 86h139q59 197 178 330t287 133q113 0 166 -56.5t53 -123.5q0 -63 -41 -113.5t-106 -50.5q-45 0 -76 31.5t-31 74.5 q0 47 19.5 78t38 45t18.5 23q0 14 -23 14q-145 0 -233 -385h197l-25 -86h-193l-149 -649q-70 -303 -224.5 -480.5t-322.5 -177.5q-78 0 -133 47t-55 127z" />
<glyph unicode="g" d="M-135 -193q0 61 38 107.5t99 46.5q51 0 84 -30.5t33 -82.5q0 -47 -18.5 -72.5t-37 -37.5t-18.5 -25q0 -41 100 -41q59 0 106.5 22.5t75 48.5t54.5 82t37 86t29.5 102.5t25.5 90.5l-4 5q-90 -133 -227 -134q-119 0 -186.5 104.5t-67.5 258.5q0 236 155.5 451t350.5 215 q137 0 172 -164h4l41 139h258l-277 -1036q-45 -170 -196.5 -263.5t-327.5 -93.5q-133 0 -218 62.5t-85 158.5zM242 176q0 -98 61 -98q74 0 146.5 117.5t115.5 268t43 261.5q0 164 -69 164q-100 0 -198.5 -277.5t-98.5 -435.5z" />
<glyph unicode="h" horiz-adv-x="1099" d="M-94 0l297 1094q37 129 37 166q0 33 -20.5 47t-84.5 16l21 74l407 12l-186 -649l4 -4q61 109 140 178.5t161 69.5q102 0 153.5 -76t51.5 -170q0 -92 -44 -230.5t-87 -248t-43 -136.5q0 -41 32.5 -41t73.5 62.5t99 175.5l18 37l57 -29q-37 -84 -67.5 -139t-74.5 -114.5 t-99.5 -89.5t-120.5 -30q-86 0 -129 55.5t-43 149.5q0 106 95 344t95 301q0 51 -43 52q-76 0 -174 -163t-170 -407l-92 -307h-264z" />
<glyph unicode="i" horiz-adv-x="569" d="M-53 201q0 82 81 350t81 278q0 33 -20.5 47.5t-84.5 16.5l21 74l407 12l-194 -660q-37 -131 -37 -159q0 -45 30 -45q12 0 25.5 10t26 24.5t27 38t25.5 44t24.5 47t20.5 43t16.5 38t11.5 23.5l61 -27q-147 -381 -348 -381q-174 1 -174 226zM227 1245q0 74 43 131.5 t119 57.5q55 0 90 -42t35 -102q0 -74 -43 -131t-119 -57q-55 0 -90 42t-35 101z" />
<glyph unicode="j" horiz-adv-x="569" d="M-492 -227q0 59 37 104t101 45q51 0 83.5 -30.5t32.5 -79.5q0 -39 -16 -63.5t-32.5 -38t-16.5 -23.5q0 -23 43 -23q59 0 114.5 76t82.5 178l208 795q27 100 27 126.5t-17.5 39t-74.5 14.5l20 74l383 12l-280 -1055q-39 -150 -173 -244t-274 -94q-106 0 -177 54.5 t-71 132.5zM268 1245q0 74 43 131.5t119 57.5q55 0 90 -42t35 -102q0 -74 -43 -131t-119 -57q-55 0 -90 42t-35 101z" />
<glyph unicode="k" d="M-109 0l316 1139q23 76 22 121q0 33 -23.5 47t-88.5 16l20 74l408 12l-234 -860q80 8 137.5 58t90 114.5t63.5 129t79 109t114 44.5q63 0 100 -40t37 -104q0 -59 -36 -111.5t-93 -52.5q-96 0 -96 101q0 8 1 16t1 12v9q0 4 -3.5 5t-7.5 1q-14 0 -39.5 -53.5t-78 -132.5 t-123.5 -124v-4q119 -25 162 -90t49 -211q4 -70 34 -69q25 0 51.5 37.5t57.5 107.5t33 72l61 -21q-27 -82 -66.5 -157.5t-115.5 -147.5t-160 -72q-162 0 -162 211q0 25 4.5 74t4.5 74q0 76 -24 105.5t-97 31.5l-135 -471h-263z" />
<glyph unicode="l" horiz-adv-x="569" d="M-20 180q0 90 131 566.5t131 513.5q0 33 -23.5 47t-89.5 16l21 74l407 12l-301 -1100q-41 -150 -41 -174q0 -33 27 -33q74 0 186 273l57 -25q-20 -55 -45.5 -107.5t-68.5 -120t-102.5 -107.5t-125.5 -40q-80 0 -121.5 57.5t-41.5 147.5z" />
<glyph unicode="m" horiz-adv-x="1593" d="M-94 0l207 731q23 86 22 98q0 33 -20.5 47.5t-83.5 16.5l20 74l385 12l-43 -186l4 -5q135 215 293 216q98 0 143.5 -67t43.5 -167h4q102 137 159 182q70 51 140 52q102 0 153 -69t51 -169q0 -119 -87 -344t-87 -266t29 -41q41 0 92 79.5t88 172.5l60 -25 q-43 -131 -135.5 -249t-204.5 -118q-88 0 -135.5 59.5t-47.5 155.5q0 94 95.5 330t95.5 295q0 61 -47 62q-70 0 -158 -143.5t-127 -264.5l-147 -469h-256l192 684q35 123 35 145q0 47 -47 48q-74 0 -166 -159t-143 -331l-117 -387h-260z" />
<glyph unicode="n" horiz-adv-x="1099" d="M-84 0l193 719q23 82 22 110q0 33 -20.5 47.5t-83.5 16.5l20 74l385 12l-43 -188l4 -5q129 217 279 218q106 0 153 -77t47 -192q0 -119 -82.5 -333t-82.5 -250.5t26 -36.5q33 0 74 57t65.5 108.5t40.5 96.5l64 -29q-2 -6 -8 -18q-23 -53 -38.5 -85t-50 -90.5t-67.5 -91 t-81 -60.5t-99 -28q-78 0 -129 58.5t-51 150.5q0 86 91 326t91 303q0 31 -14.5 47.5t-30.5 16.5q-68 0 -164 -167t-156 -368l-102 -342h-252z" />
<glyph unicode="o" d="M-41 391q0 238 169 425.5t400 187.5q147 0 243.5 -113t96.5 -303q0 -238 -169 -425.5t-400 -187.5q-147 0 -243.5 113t-96.5 303zM213 197q0 -135 86 -136q80 0 158 150.5t117.5 316.5t39.5 254q0 135 -86 136q-80 0 -157.5 -151t-117.5 -316.5t-40 -253.5z" />
<glyph unicode="p" d="M-315 -381l14 78q86 4 118.5 32.5t55.5 110.5l225 846q29 111 29 143.5t-20.5 47t-86.5 16.5l23 74l408 12l-35 -133l4 -4q45 53 66.5 77.5t70.5 54.5t98 30q115 0 183.5 -102.5t68.5 -242.5q0 -152 -69.5 -308t-199.5 -266t-282 -110q-106 0 -149 99h-4 q-66 -262 -66 -283q0 -61 29 -77.5t133 -16.5l-16 -78h-598zM252 188q0 -111 78 -110q72 0 149.5 126t125.5 292t48 286q0 106 -65 107q-68 0 -149 -124t-134 -290t-53 -287z" />
<glyph unicode="q" d="M-12 344q0 254 163.5 457t354.5 203q82 0 132 -43t101 -125l158 143h70l-271 -1034q-37 -139 -37 -168q0 -35 26 -53.5t101 -18.5l-18 -86h-596l18 86q104 14 135 28.5t52 61.5q18 43 36.5 103.5t38 130t19.5 73.5l-4 4q-82 -131 -229 -131q-119 0 -184.5 103.5 t-65.5 265.5zM242 176q0 -98 59 -98q63 0 127 92t107 217t69.5 245t26.5 183q0 102 -80 103q-78 0 -152.5 -154t-115.5 -325t-41 -263z" />
<glyph unicode="r" horiz-adv-x="796" d="M-94 0l157 582q45 176 46 247q0 33 -20.5 47.5t-84.5 16.5l21 74l385 12l-45 -231l4 -5q145 260 288 261q63 0 102.5 -42t39.5 -100q0 -76 -47 -137t-119 -61q-100 0 -101 102q0 55 35 90l-4 4q-68 -25 -148.5 -167t-125.5 -287l-123 -406h-260z" />
<glyph unicode="s" horiz-adv-x="872" d="M-90 209q0 66 40 113t109 47q59 0 94 -32t35 -87q0 -37 -18 -62.5t-39.5 -37t-40 -23.5t-18.5 -25q0 -49 129 -49q96 0 178 39t82 123q0 49 -42 83t-101.5 59.5t-118 56t-100.5 91t-42 146.5q0 160 131 256.5t293 96.5q133 0 210 -58q79 -59 79 -149q0 -54 -38 -102 q-40 -50 -101 -50q-55 0 -91 34t-36 89q0 35 21.5 61.5t43 43t21.5 22.5q0 39 -105 39q-86 0 -144 -48t-58 -118q0 -43 43 -77t104.5 -58.5t121.5 -56t103 -90t43 -138.5q0 -166 -137 -269.5t-340 -103.5q-147 0 -229 67t-82 167z" />
<glyph unicode="t" horiz-adv-x="645" d="M4 193q0 100 39 241l123 459h-148l19 86h153l80 307h267l-82 -307h186l-23 -86h-186l-182 -672q-18 -74 -19 -98q0 -45 37 -45q100 0 211 297l64 -21q-18 -63 -44 -121.5t-66 -120t-99.5 -99.5t-128.5 -38q-104 0 -152.5 62t-48.5 156z" />
<glyph unicode="u" horiz-adv-x="1099" d="M-16 209q0 135 74.5 366.5t74.5 258.5q0 33 -20.5 45t-83.5 14l20 74l400 12l-201 -686q-27 -92 -27 -148q0 -23 12.5 -39t30.5 -16q61 0 158.5 149.5t144.5 317.5l121 422h270l-215 -768q-18 -63 -18 -86q0 -35 27 -35q76 0 188 281l53 -21q-29 -76 -54.5 -129 t-67.5 -115.5t-96 -96.5t-120 -34q-80 0 -119.5 54.5t-39.5 144.5q0 37 12 74l-4 4q-51 -104 -137 -190.5t-189 -86.5q-90 0 -142 67t-52 167z" />
<glyph unicode="v" horiz-adv-x="872" d="M-33 238q0 68 69.5 307t69.5 284q0 33 -20 47.5t-84 16.5l18 74l408 12l-201 -731q-23 -86 -22 -115q0 -72 65 -72q84 0 163 81t130 191.5t82 215t31 162.5q0 35 -2 45q-6 0 -23.5 -3t-34.5 -3q-43 0 -71.5 30.5t-28.5 73.5q0 61 33 105.5t94 44.5q51 0 85 -46.5 t34 -142.5q0 -104 -36 -242.5t-100.5 -274.5t-170 -229.5t-228.5 -93.5q-119 0 -189.5 70t-70.5 193z" />
<glyph unicode="w" horiz-adv-x="1366" d="M-25 240q0 104 81 336.5t81 261t-20.5 41t-83.5 14.5l20 74l408 12l-215 -686q-33 -106 -33 -148q0 -55 43 -55q76 0 164 149.5t147 352.5l115 387h281l-220 -737q-18 -63 -18 -103q0 -61 59 -61q88 0 182.5 117.5t154 275.5t63.5 279q-33 -25 -76 -25q-39 0 -63.5 36 t-24.5 89q0 68 36 111t97 43q53 0 85 -51.5t32 -139.5q0 -98 -39 -236.5t-106.5 -274.5t-177 -231.5t-230.5 -95.5q-213 0 -217 263h-4q-53 -100 -134 -181.5t-176 -81.5q-106 0 -158.5 77t-52.5 188z" />
<glyph unicode="x" horiz-adv-x="909" d="M-164 104q0 70 38 124.5t101 54.5q41 0 63.5 -23.5t22.5 -62.5q0 -31 -10 -76l4 -2h6q23 0 80.5 81t128.5 216l-55 323q-14 88 -41 121t-100 33l20 74l330 12l53 -313q27 37 75 112.5t75.5 115.5t74 75t93.5 35q53 0 79.5 -34t26.5 -87q0 -57 -32.5 -107.5t-90.5 -50.5 q-39 0 -55 21.5t-22.5 43t-16.5 21.5q-25 0 -59 -53l-131 -195l61 -344q4 -20 6 -29.5t10.5 -17.5t20.5 -8q29 4 69.5 76.5t57.5 121.5l61 -20q-25 -72 -62.5 -144.5t-105 -141t-135.5 -68.5q-45 0 -77.5 20.5t-51 60.5t-28 74.5t-17.5 88t-14 73.5q-6 -8 -32 -51t-39 -63.5 t-40.5 -59.5t-49.5 -61.5t-51.5 -47t-60 -36t-61.5 -11.5q-51 0 -85 38t-34 91z" />
<glyph unicode="y" d="M-119 -211q0 66 39 110t105 44q51 0 86.5 -34t35.5 -85q0 -31 -13 -53.5t-29.5 -33.5t-30 -21.5t-13.5 -20.5q0 -23 72 -23q121 0 177.5 58.5t90.5 181.5l66 229l-4 4q-35 -53 -60.5 -83.5t-78 -58.5t-115.5 -28q-102 0 -159.5 63.5t-57.5 166.5q0 92 81 341t81 283 q0 33 -24 47.5t-89 16.5l20 74l408 12l-223 -758q-16 -57 -17 -92q0 -51 41 -51q63 0 155.5 128t123.5 243l149 530h260l-266 -997q-29 -109 -88 -190t-134 -124t-149.5 -62.5t-152.5 -19.5q-111 0 -199 51.5t-88 151.5z" />
<glyph unicode="z" horiz-adv-x="909" d="M-160 6q78 156 184.5 278t209 191.5t196.5 121.5t168 100t100 96l-4 4q-115 -84 -235 -84q-66 0 -125.5 26.5t-95.5 26.5q-16 0 -30.5 -6t-28 -20.5t-21.5 -24.5t-19.5 -34t-14.5 -32t-13 -35l-11 -26l-67 8q23 141 131 274.5t239 133.5q45 0 138.5 -39t150.5 -39 q117 0 152 78l53 -33q-76 -143 -160 -243.5t-168 -161t-162.5 -105.5t-174 -108.5t-173.5 -137.5l4 -4q137 76 209 76q61 0 137 -37t101 -37q18 0 35.5 3t31 11.5t24.5 13.5t21.5 20t16.5 22.5t15.5 28t12.5 27.5t12 31.5t11 30.5l64 -20q-131 -406 -373 -406 q-72 0 -169 49.5t-167 49.5q-33 0 -62.5 -16.5t-46 -33t-42.5 -49.5z" />
<glyph unicode="{" horiz-adv-x="909" d="M70 -223q0 35 26 133q29 106 57.5 207.5t41 141.5t19.5 76t7 62q0 100 -84 140q41 14 67.5 29.5t50.5 45t37 52t32.5 81t31 100.5t38 143.5t48.5 178.5q51 180 154.5 239.5t294.5 59.5l-31 -94q-78 -6 -124 -49t-74 -149q-16 -61 -39 -144.5t-33 -120.5l-26 -92 q-15 -55 -24.5 -76.5t-22.5 -55.5t-26.5 -46t-29 -30.5t-38 -28t-45 -19.5t-56.5 -22l-3 -4q119 -33 119 -127q0 -47 -14 -106.5t-51 -183.5t-61.5 -218.5t-24.5 -120.5q0 -41 25.5 -57.5t90.5 -16.5l-22 -94q-160 0 -236.5 34t-74.5 132z" />
<glyph unicode="|" horiz-adv-x="454" d="M98 0v1409h213v-1409h-213z" />
<glyph unicode="}" horiz-adv-x="909" d="M-150 -389l31 94q78 6 124 49t75 150q16 61 38.5 144t33.5 120l25 92q15 55 24.5 76.5t23 55.5t26.5 46.5t28.5 30.5t38 27.5t45 19.5t57.5 23l2 4q-119 33 -119 127q0 47 14.5 106.5t51.5 183t61.5 218t24.5 120.5q0 41 -26 57.5t-91 16.5l22 94q160 0 237 -33.5 t75 -132.5q0 -35 -27 -133q-29 -106 -57.5 -207.5t-40.5 -141.5t-19.5 -75.5t-7.5 -62.5q0 -100 84 -139q-41 -14 -67.5 -29.5t-50 -45.5t-37 -52.5t-33 -81t-30.5 -100.5t-37.5 -143t-49.5 -179q-51 -180 -155 -239.5t-294 -59.5z" />
<glyph unicode="~" horiz-adv-x="1228" d="M70 500q39 51 66.5 80.5t79.5 57.5t112 28q78 0 215 -62q12 -6 51 -23.5t56.5 -24.5t44 -14t44.5 -7q37 0 71 23.5t53.5 47t47.5 68.5l88 -195q-8 -8 -36.5 -38.5t-40 -41t-37 -32t-44 -29.5t-46 -16.5t-56.5 -8.5q-82 0 -198 64q-119 68 -222 67q-100 0 -163 -139z" />
<glyph unicode="&#xa1;" horiz-adv-x="569" d="M-154 -274q0 76 63.5 212t156 328.5t139.5 356.5h82q-53 -252 -74 -512q-43 -524 -246 -525q-57 0 -89 40.5t-32 99.5zM160 901q0 72 42 124t111 52q61 0 97 -43t36 -112q0 -72 -42 -124.5t-111 -52.5q-61 0 -97 43t-36 113z" />
<glyph unicode="&#xa2;" d="M137 645q0 207 143.5 381t348.5 211l55 213h86l-59 -213q80 -12 127 -60.5t47 -123.5q0 -61 -34 -109.5t-93 -48.5q-57 0 -92 31.5t-35 83.5q0 43 23.5 72.5t47 44t23.5 22.5q0 18 -31 18q-74 0 -145.5 -93t-114.5 -239.5t-43 -295.5q0 -166 96 -166q162 2 263 286 l63 -24q-35 -131 -123 -235.5t-209 -112.5l-59 -273h-88l61 273q-258 65 -258 358z" />
<glyph unicode="&#xa3;" d="M-197 170q0 88 65.5 149.5t162.5 61.5q43 0 90 -17.5t75.5 -36t79 -55t70.5 -49.5q96 102 96 250q0 80 -28 129h-377l18 103h303q-145 178 -145 333q0 160 128 282t304 122q119 0 199 -58.5t80 -162.5q0 -61 -40 -109.5t-102 -48.5q-59 0 -92 31.5t-33 85.5q0 29 9.5 51 t32 40.5t29.5 22.5t32 19q-25 51 -94 51q-86 0 -150.5 -67.5t-64.5 -161.5q0 -74 39.5 -147t99 -152.5t82.5 -130.5h286l-20 -103h-238q8 -45 9 -74q0 -104 -75 -215.5t-173 -181.5q41 -41 112 -41q57 0 104.5 21.5t87.5 68.5t59.5 75t54.5 87l67 -39q-160 -328 -411 -328 q-55 0 -110.5 25t-82.5 51q-145 -84 -274 -84q-100 0 -182.5 51.5t-82.5 151.5zM-37 147q0 -78 113 -77q47 0 99 15t75 38q-111 90 -205 90q-37 0 -59.5 -18.5t-22.5 -47.5z" />
<glyph unicode="&#xa4;" d="M16 324l109 108q-90 119 -90 272.5t90 272.5l-109 108l107 107l110 -111q121 78 256.5 78t255.5 -78l111 111l107 -107l-109 -108q90 -119 90 -272.5t-90 -272.5l109 -108l-107 -107l-111 111q-121 -78 -256 -78t-256 78l-110 -111zM252 704.5q0 -106.5 67.5 -180 t170 -73.5t170 73.5t67.5 180t-67.5 180t-170 73.5t-170 -73.5t-67.5 -180z" />
<glyph unicode="&#xa5;" d="M-12 0l20 86q100 0 145.5 36t65.5 107l76 267h-305l26 102h308l4 16l-25 140h-250l29 102h203l-64 369q-16 96 -112 98l20 86h524l-20 -86q-66 0 -108 -21.5t-42 -60.5q0 -29 13 -106l67 -398l293 406q63 90 64 121q0 59 -113 59l20 86h418l-22 -86q-84 -6 -138.5 -46 t-107.5 -114l-219 -307h227l-27 -102h-274l-94 -131l-8 -25h331l-26 -102h-334l-57 -199q-31 -104 -31 -141q0 -70 143 -70l-20 -86h-600z" />
<glyph unicode="&#xa6;" horiz-adv-x="454" d="M98 0v578h213v-578h-213zM98 831v578h213v-578h-213z" />
<glyph unicode="&#xa7;" horiz-adv-x="1214" d="M66 -47q0 51 34.5 87t85.5 36q55 0 84 -29t29 -72q0 -47 -37 -74.5t-37 -39.5q0 -16 41 -32.5t90 -16.5q74 0 130.5 35.5t56.5 105.5q0 51 -39 115.5t-94.5 129t-110.5 134t-94 150.5t-39 157q0 119 70.5 199t173.5 80q51 0 98 -19l4 4q-113 123 -113 248q0 133 95.5 212 t224.5 79q115 0 198.5 -51.5t83.5 -145.5q0 -53 -37.5 -90t-86.5 -37q-45 0 -77 26.5t-32 72.5q0 35 18.5 57t37 33.5t18.5 15.5q0 16 -33 34.5t-86 18.5q-76 0 -126 -41t-50 -112q0 -49 39 -112.5t94 -126t110.5 -127t94.5 -139.5t39 -143q0 -125 -77 -208.5t-185 -83.5 q-45 0 -64 4l-4 -4q47 -45 77.5 -112t30.5 -120q0 -147 -108.5 -226t-241.5 -79q-111 0 -198.5 56.5t-87.5 150.5zM313 731q0 -74 90 -196q82 -111 132.5 -153t95.5 -42q70 0 101.5 42t31.5 89q0 51 -20.5 91t-92.5 132q-66 86 -111.5 126t-97.5 40q-53 0 -91 -35t-38 -94z " />
<glyph unicode="&#xa8;" horiz-adv-x="569" d="M74 1274q0 49 34.5 84t84 35t84 -35t34.5 -84t-34.5 -84t-84 -35t-84 35t-34.5 84zM459 1274q0 49 34.5 84t84 35t84 -35t34.5 -84t-34.5 -84t-84 -35t-84 35t-34.5 84z" />
<glyph unicode="&#xa9;" horiz-adv-x="1638" d="M49 705q0 313 205 525t516 212q313 0 517 -212t204 -525q0 -317 -204 -527.5t-517 -210.5q-311 0 -516 211.5t-205 526.5zM229 705q0 -256 153 -431.5t388.5 -175.5t388 175.5t152.5 431.5q0 258 -152.5 432t-388 174t-388.5 -174t-153 -432zM356 729q0 72 23.5 139.5 t75 131t147.5 101.5t227 38q78 0 167 -21.5t89 -48.5v-174h-53q-61 178 -198 178q-104 0 -157.5 -88t-53.5 -246q0 -369 206 -370q150 0 238 192h53l-33 -182q-4 -20 -101 -48t-175 -28q-215 0 -335 109.5t-120 316.5z" />
<glyph unicode="&#xaa;" horiz-adv-x="659" d="M66 1038q0 152 95 278t232 126q49 0 79 -28t36 -68h4l20 84h175l-132 -453q-14 -47 -14 -64q0 -18 14 -18q31 0 67 60.5t54 111.5l52 -16q-94 -227 -222 -228q-51 0 -81.5 36t-30.5 93h-4q-23 -37 -41.5 -59.5t-53 -46t-73.5 -23.5q-94 0 -135 62.5t-41 152.5zM229 969 q0 -72 52 -72q63 0 124.5 144.5t61.5 238.5q0 88 -45 88q-68 0 -130.5 -155.5t-62.5 -243.5z" />
<glyph unicode="&#xab;" horiz-adv-x="948" d="M66 479l272 377h162l-232 -381l37 -352h-137zM375 479l272 377h162l-231 -381l36 -352h-137z" />
<glyph unicode="&#xac;" horiz-adv-x="1228" d="M70 598v213h979v-643h-213v430h-766z" />
<glyph unicode="&#xad;" horiz-adv-x="530" d="M-82 389l53 201h447l-53 -201h-447z" />
<glyph unicode="&#xae;" horiz-adv-x="1638" d="M49 705q0 313 205 525t516 212q313 0 517 -212t204 -525q0 -317 -204 -527.5t-517 -210.5q-311 0 -516 211.5t-205 526.5zM229 705q0 -256 153 -431.5t388.5 -175.5t388 175.5t152.5 431.5q0 258 -152.5 432t-388 174t-388.5 -174t-153 -432zM426 332v53q63 2 76.5 17.5 t13.5 62.5v512q0 49 -14.5 64.5t-75.5 15.5v57h420q100 0 163.5 -53t63.5 -156q0 -68 -42 -126t-116 -81l240 -338v-28h-194q-27 0 -59 52t-77 147.5t-71 140.5h-45v-207q0 -49 12 -63.5t74 -16.5v-53h-369zM709 737h49q106 0 106 160q0 86 -23.5 119t-74.5 33h-57v-312z " />
<glyph unicode="&#xaf;" horiz-adv-x="569" d="M53 1210l31 119h592l-31 -119h-592z" />
<glyph unicode="&#xb0;" horiz-adv-x="819" d="M168 1149q0 123 85 208t208 85t208 -85t85 -208t-85 -208t-208 -85t-208 85t-85 208zM303 1149q0 -68 46 -119t110 -51q66 0 112.5 51t46.5 119t-47 119t-112 51q-63 0 -109.5 -51t-46.5 -119z" />
<glyph unicode="&#xb1;" horiz-adv-x="1228" d="M70 0v213h979v-213h-979zM70 528v213h383v238h213v-238h383v-213h-383v-237h-213v237h-383z" />
<glyph unicode="&#xb2;" horiz-adv-x="614" d="M-35 616q0 80 53.5 151t130 125t152.5 108.5t129 127t53 156.5q0 45 -17 68.5t-69 23.5q-63 0 -125.5 -58t-62.5 -130q0 -41 35 -41q20 0 40.5 18.5t32 36t25.5 47t16 33.5l58 -18q-20 -68 -71.5 -125.5t-117.5 -57.5q-43 0 -67.5 30t-24.5 79q0 84 94.5 168t216.5 84 q106 0 174 -51.5t68 -141.5q0 -94 -59.5 -161.5t-137 -101.5t-185 -91t-173.5 -123l4 -2q29 8 51 8q29 0 96.5 -14t88.5 -14q35 0 60.5 12t46 42t28.5 45t27 58l61 -14q0 -2 -19.5 -57.5t-38 -91t-50 -85t-75.5 -76t-96 -26.5q-57 0 -104 36t-80 71.5t-55 35.5 q-18 0 -19 -16q0 -4 2 -18.5t2 -30.5q0 -29 -14 -49.5t-43 -20.5q-41 0 -41 51z" />
<glyph unicode="&#xb3;" horiz-adv-x="614" d="M-23 729q0 57 40 111.5t104 54.5q41 0 66.5 -26.5t25.5 -63.5t-29.5 -70t-68.5 -33q-25 0 -39.5 10.5t-18.5 10.5q-6 0 -6 -10q0 -37 35 -63.5t80 -26.5q90 0 156.5 85t66.5 169q0 98 -43 98q-18 0 -47 -8.5t-45 -8.5q-53 0 -53 41q0 20 17.5 34t45.5 14q12 0 33.5 -3.5 t30.5 -3.5q55 0 109.5 70t54.5 164q0 102 -89 102q-70 0 -135 -59.5t-65 -120.5q0 -45 33 -45q61 0 129 135l53 -22q-16 -57 -73.5 -118t-121.5 -61q-45 0 -69.5 30t-24.5 75q0 86 94 169t238 83q96 0 165.5 -49.5t69.5 -132.5q0 -88 -74.5 -155t-166.5 -87v-4 q70 -20 104.5 -55t34.5 -103q0 -129 -121 -214t-264 -85q-102 0 -167 42t-65 130z" />
<glyph unicode="&#xb4;" horiz-adv-x="569" d="M242 1130l229 263q4 6 15.5 18t15.5 17.5t13 15.5t13 13t12.5 10.5t13.5 10.5t12 7t13.5 6t13.5 3t15 1q33 0 60.5 -23.5t27.5 -62.5q0 -47 -51 -80l-313 -199h-90z" />
<glyph unicode="&#xb5;" horiz-adv-x="1099" d="M-168 -293q0 76 55 266l189 654q8 27 23.5 76t24.5 80.5t9 50.5q0 33 -20.5 45t-83.5 14l20 74l400 12l-201 -686q-27 -92 -27 -148q0 -23 12.5 -39t30.5 -16q61 0 158.5 149.5t144.5 317.5l121 422h270l-215 -768q-18 -63 -18 -86q0 -35 27 -35q76 0 188 281l53 -21 q-29 -76 -54.5 -129t-67.5 -115.5t-96 -96.5t-120 -34q-80 0 -119.5 54.5t-39.5 144.5q0 37 12 74l-4 4q-51 -104 -138 -190.5t-188 -86.5h-20l-58 -227q-41 -162 -153 -162q-49 0 -82 32t-33 89z" />
<glyph unicode="&#xb6;" horiz-adv-x="1228" d="M131 844q0 266 150.5 415.5t412.5 149.5h559l-14 -49q-92 0 -134 -31t-61 -96l-413 -1487h-168l444 1597h-121l-444 -1597h-168l229 823q-272 1 -272 275z" />
<glyph unicode="&#xb7;" horiz-adv-x="512" d="M25 489.5q0 67.5 48 115.5t115.5 48t115.5 -48t48 -115.5t-48 -115.5t-115.5 -48t-115.5 48t-48 115.5z" />
<glyph unicode="&#xb8;" horiz-adv-x="569" d="M-242 -410l35 68q78 -39 144 -39q49 0 79.5 22.5t30.5 67.5q0 80 -86 80q-39 0 -74 -14l-22 26l131 197h82l-90 -133q14 2 41 2q78 0 132 -37t54 -114.5t-72.5 -126t-187.5 -48.5q-103 0 -197 49z" />
<glyph unicode="&#xb9;" horiz-adv-x="614" d="M0 578l14 65q78 0 120 22.5t59 75.5l169 570h-126l16 65q158 10 291 74h55l-211 -707q-10 -31 -10 -49q0 -29 19.5 -40t78.5 -11l-12 -65h-463z" />
<glyph unicode="&#xba;" horiz-adv-x="614" d="M66 1075q0 143 108.5 255t259.5 112q96 0 158.5 -67.5t62.5 -182.5q0 -143 -110.5 -256t-259.5 -113q-96 0 -157.5 67.5t-61.5 184.5zM238 956q0 -68 51 -67q68 2 131 166t63 254q0 68 -53 67q-68 0 -130 -164t-62 -256z" />
<glyph unicode="&#xbb;" horiz-adv-x="948" d="M-41 123l231 381l-36 352h137l102 -356l-272 -377h-162zM268 123l232 381l-37 352h137l102 -356l-272 -377h-162z" />
<glyph unicode="&#xbc;" horiz-adv-x="1536" d="M-16 578l14 65q78 0 120 22.5t58 75.5l170 570h-127l17 65q158 10 290 74h56l-211 -707q-10 -31 -11 -49q0 -29 19.5 -40t79.5 -11l-13 -65h-462zM264 -33l823 1475h203l-823 -1475h-203zM852 272q0 29 22.5 44.5t40.5 15.5q10 0 41 -6q141 197 187 546h198 q-27 -143 -114.5 -315t-167.5 -248q6 -2 50 -23.5t71 -31.5l120 387h154l-121 -410q49 10 121 74l41 -39q-94 -109 -188 -131l-78 -248h-152l78 256q-45 20 -98 67.5t-72 47.5q-12 0 -37.5 -10t-36.5 -10q-59 -1 -59 34z" />
<glyph unicode="&#xbd;" horiz-adv-x="1536" d="M-33 578l15 65q78 0 119.5 22.5t58.5 75.5l170 570h-127l16 65q158 10 291 74h55l-211 -707q-10 -31 -10 -49q0 -29 19.5 -40t78.5 -11l-12 -65h-463zM231 -33l824 1475h202l-823 -1475h-203zM770 39q0 80 53.5 150.5t129 125t152.5 108.5t130 127t53 157 q0 45 -17.5 68.5t-68.5 23.5q-63 0 -125.5 -58.5t-62.5 -130.5q0 -41 35 -41q20 0 40.5 18.5t32 36t25.5 47t16 34.5l58 -19q-20 -68 -71.5 -125t-117.5 -57q-43 0 -67.5 29.5t-24.5 78.5q0 84 94 168t217 84q106 0 174 -51t68 -141q0 -94 -59.5 -162t-137 -101.5t-185 -91 t-173.5 -122.5l4 -2q29 8 51 8q29 0 96.5 -14.5t88.5 -14.5q35 0 60.5 12.5t46 42t28.5 45t26 58.5l62 -15q0 -2 -19.5 -57t-38 -91t-50 -85t-75.5 -75.5t-96 -26.5q-57 0 -104 35.5t-80 71.5t-55 36q-18 0 -19 -17q0 -4 2 -18t2 -31q0 -29 -14 -49t-43 -20q-41 0 -41 51z " />
<glyph unicode="&#xbe;" horiz-adv-x="1536" d="M-23 729q0 57 40 111.5t104 54.5q41 0 66.5 -26.5t25.5 -63.5t-29.5 -70t-68.5 -33q-25 0 -39.5 10.5t-18.5 10.5q-6 0 -6 -10q0 -37 35 -63.5t80 -26.5q90 0 156.5 85t66.5 169q0 98 -43 98q-18 0 -47 -8.5t-45 -8.5q-53 0 -53 41q0 20 17.5 34t45.5 14q12 0 33.5 -3.5 t30.5 -3.5q55 0 109.5 70t54.5 164q0 102 -89 102q-70 0 -135 -59.5t-65 -120.5q0 -45 33 -45q61 0 129 135l53 -22q-16 -57 -73.5 -118t-121.5 -61q-45 0 -69.5 30t-24.5 75q0 86 94 169t238 83q96 0 165.5 -49.5t69.5 -132.5q0 -88 -74.5 -155t-166.5 -87v-4 q70 -20 104.5 -55t34.5 -103q0 -129 -121 -214t-264 -85q-102 0 -167 42t-65 130zM281 -33l823 1475h203l-824 -1475h-202zM868 272q0 29 22.5 44.5t41.5 15.5q10 0 41 -6q141 197 186 546h199q-27 -143 -115 -315t-168 -248q6 -2 50 -23.5t71 -31.5l121 387h153l-120 -410 q49 10 120 74l41 -39q-94 -109 -188 -131l-78 -248h-151l77 256q-45 20 -98 67.5t-72 47.5q-12 0 -37.5 -10t-35.5 -10q-60 -1 -60 34z" />
<glyph unicode="&#xbf;" horiz-adv-x="833" d="M-184 -84q0 150 91 238t238 120q297 66 297 232q0 76 -53 76q-70 0 -127 -119l-63 39q23 66 74 116t118 50q59 0 98 -42t39 -114q0 -92 -56 -167t-187 -140q-203 -102 -203 -318q0 -186 151 -186q90 0 147.5 79t57.5 171q0 57 -20 115l71 24q35 -66 35 -143 q0 -141 -108.5 -251t-251.5 -110q-137 0 -242.5 96.5t-105.5 233.5zM340 901q0 72 42 124t112 52q61 0 97 -43t36 -112q0 -72 -42 -124.5t-112 -52.5q-61 0 -97 43t-36 113z" />
<glyph unicode="&#xc0;" horiz-adv-x="1138" d="M-270 0l20 86q49 4 84 17.5t65.5 47t43 51t45.5 70.5l731 1186h108l37 -1253q2 -74 28 -96.5t103 -22.5l-20 -86h-582l21 86q92 4 132 30.5t40 110.5q0 35 -1 75t-3 88t-2 77h-365q-23 -37 -50.5 -81t-41.5 -67.5t-30.5 -50t-25 -41t-15.5 -31t-9 -27.5t-2 -22 q0 -35 28.5 -48t108.5 -13l-20 -86h-428zM276 569h297l-10 453h-4zM541 1761q0 31 27.5 54.5t62.5 23.5t59.5 -20.5t61.5 -75.5l182 -268h-86l-174 135q-10 8 -27.5 21.5t-25 19.5t-20.5 17l-19.5 16.5t-14.5 14.5t-12 15t-8 14.5t-5 16.5t-1 16z" />
<glyph unicode="&#xc1;" horiz-adv-x="1138" d="M-270 0l20 86q49 4 84 17.5t65.5 47t43 51t45.5 70.5l731 1186h108l37 -1253q2 -74 28 -96.5t103 -22.5l-20 -86h-582l21 86q92 4 132 30.5t40 110.5q0 35 -1 75t-3 88t-2 77h-365q-23 -37 -50.5 -81t-41.5 -67.5t-30.5 -50t-25 -41t-15.5 -31t-9 -27.5t-2 -22 q0 -35 28.5 -48t108.5 -13l-20 -86h-428zM276 569h297l-10 453h-4zM680 1475l229 262q4 6 15.5 18t15.5 17.5t13.5 15.5t13.5 13t12 10.5t13 10.5t12.5 7t13.5 6t13 3t16 1q33 0 60.5 -23.5t27.5 -62.5q0 -47 -52 -80l-313 -198h-90z" />
<glyph unicode="&#xc2;" horiz-adv-x="1138" d="M-270 0l20 86q49 4 84 17.5t65.5 47t43 51t45.5 70.5l731 1186h108l37 -1253q2 -74 28 -96.5t103 -22.5l-20 -86h-582l21 86q92 4 132 30.5t40 110.5q0 35 -1 75t-3 88t-2 77h-365q-23 -37 -50.5 -81t-41.5 -67.5t-30.5 -50t-25 -41t-15.5 -31t-9 -27.5t-2 -22 q0 -35 28.5 -48t108.5 -13l-20 -86h-428zM276 569h297l-10 453h-4zM479 1475l301 352h138l155 -352h-92l-152 204l-249 -204h-101z" />
<glyph unicode="&#xc3;" horiz-adv-x="1138" d="M-270 0l20 86q49 4 84 17.5t65.5 47t43 51t45.5 70.5l731 1186h108l37 -1253q2 -74 28 -96.5t103 -22.5l-20 -86h-582l21 86q92 4 132 30.5t40 110.5q0 35 -1 75t-3 88t-2 77h-365q-23 -37 -50.5 -81t-41.5 -67.5t-30.5 -50t-25 -41t-15.5 -31t-9 -27.5t-2 -22 q0 -35 28.5 -48t108.5 -13l-20 -86h-428zM276 569h297l-10 453h-4zM528 1520q18 86 68.5 161.5t138.5 75.5q47 0 148.5 -47t132.5 -47q35 0 62.5 27.5t39.5 66.5h62q-39 -233 -219 -233q-35 0 -136.5 45t-132.5 45q-70 0 -98 -94h-66z" />
<glyph unicode="&#xc4;" horiz-adv-x="1138" d="M-270 0l20 86q49 4 84 17.5t65.5 47t43 51t45.5 70.5l731 1186h108l37 -1253q2 -74 28 -96.5t103 -22.5l-20 -86h-582l21 86q92 4 132 30.5t40 110.5q0 35 -1 75t-3 88t-2 77h-365q-23 -37 -50.5 -81t-41.5 -67.5t-30.5 -50t-25 -41t-15.5 -31t-9 -27.5t-2 -22 q0 -35 28.5 -48t108.5 -13l-20 -86h-428zM276 569h297l-10 453h-4zM512 1618q0 49 35 84t84 35t84 -35t35 -84t-35 -84t-84 -35t-84 35t-35 84zM897 1618q0 49 35 84t84 35t84 -35t35 -84t-35 -84t-84 -35t-84 35t-35 84z" />
<glyph unicode="&#xc5;" horiz-adv-x="1138" d="M-270 0l20 86q49 4 84 17.5t65.5 47t43 51t45.5 70.5l731 1186h108l37 -1253q2 -74 28 -96.5t103 -22.5l-20 -86h-582l21 86q92 4 132 30.5t40 110.5q0 35 -1 75t-3 88t-2 77h-365q-23 -37 -50.5 -81t-41.5 -67.5t-30.5 -50t-25 -41t-15.5 -31t-9 -27.5t-2 -22 q0 -35 28.5 -48t108.5 -13l-20 -86h-428zM276 569h297l-10 453h-4zM633 1683q0 88 61.5 149.5t149.5 61.5t149.5 -61t61.5 -149.5t-61.5 -149.5t-149.5 -61q-90 0 -150.5 60t-60.5 150zM719 1683q0 -55 36 -89.5t89 -34.5t89 34.5t36 89.5q0 53 -36 89t-89 36t-89 -36 t-36 -89z" />
<glyph unicode="&#xc6;" horiz-adv-x="1781" d="M-287 0l21 86q68 4 110.5 30.5t81.5 82.5l647 919q70 98 70 139q0 33 -26.5 45.5t-108.5 20.5l20 86h1287l-146 -547h-80q20 106 21 191q0 270 -256 270q-158 0 -191 -123l-110 -405q135 0 191 48t104 183h84l-162 -575h-74q8 57 8 86q0 72 -35.5 113.5t-105.5 41.5h-39 l-106 -383q-27 -92 -27 -135q0 -49 21.5 -68.5t80.5 -19.5q221 0 339 121t190 346h84l-144 -553h-1077l21 86q102 0 134.5 30.5t59.5 129.5l84 307h-395l-139 -203q-6 -8 -21.5 -29.5t-21 -30.5t-17.5 -26.5t-16 -27t-12.5 -23.5t-11.5 -25.5t-5 -23.5t-2 -25q0 -53 129 -53 l-20 -86h-439zM367 655h352l133 469q41 147 41 170q0 29 -33 29q-23 0 -40 -18.5t-60 -79.5q-12 -20 -21 -31z" />
<glyph unicode="&#xc7;" horiz-adv-x="1175" d="M12 487q0 199 72 380.5t185.5 305t256 196.5t281.5 73q160 0 274 -121l62 76h78l-142 -531h-86q25 123 25 221q0 111 -46 190t-149 79q-117 0 -220 -110.5t-169.5 -273.5t-104.5 -336t-38 -310q0 -127 54 -196t147 -69q156 0 273.5 154t172.5 363l86 -23 q-29 -109 -74 -206t-113.5 -186t-168 -142.5t-217.5 -53.5q-31 0 -45 2l-72 -104q14 2 41 2q78 0 132 -37t54 -114.5t-72.5 -126t-187.5 -48.5q-102 0 -197 49l35 68q78 -39 144 -39q49 0 79.5 22.5t30.5 67.5q0 80 -86 80q-39 0 -74 -14l-22 26l121 181q-150 43 -235 183 t-85 322z" />
<glyph unicode="&#xc8;" horiz-adv-x="1214" d="M-184 0l20 86q98 0 136 28.5t63 114.5l241 883q31 109 31 135q0 45 -28.5 58.5t-110.5 17.5l20 86h1059l-145 -547h-80q20 106 20 191q0 270 -256 270q-158 0 -190 -123l-111 -405q135 0 191.5 48t103.5 183h84l-162 -575h-73q8 57 8 86q0 72 -36 113.5t-105 41.5h-39 l-107 -383q-27 -92 -26 -135q0 -49 21.5 -68.5t80.5 -19.5q221 0 339 121t189 346h84l-143 -553h-1079zM580 1761q0 31 27.5 54.5t62.5 23.5t59.5 -20.5t61.5 -75.5l182 -268h-86l-174 135q-10 8 -27.5 21.5t-25 19.5t-20.5 17l-19.5 16.5t-14.5 14.5t-12 15t-8 14.5 t-5 16.5t-1 16z" />
<glyph unicode="&#xc9;" horiz-adv-x="1214" d="M-184 0l20 86q98 0 136 28.5t63 114.5l241 883q31 109 31 135q0 45 -28.5 58.5t-110.5 17.5l20 86h1059l-145 -547h-80q20 106 20 191q0 270 -256 270q-158 0 -190 -123l-111 -405q135 0 191.5 48t103.5 183h84l-162 -575h-73q8 57 8 86q0 72 -36 113.5t-105 41.5h-39 l-107 -383q-27 -92 -26 -135q0 -49 21.5 -68.5t80.5 -19.5q221 0 339 121t189 346h84l-143 -553h-1079zM719 1475l229 262q4 6 15.5 18t15.5 17.5t13 15.5t13.5 13t12.5 10.5t13 10.5t12.5 7t13.5 6t13 3t15 1q33 0 61 -23.5t28 -62.5q0 -47 -52 -80l-313 -198h-90z" />
<glyph unicode="&#xca;" horiz-adv-x="1214" d="M-184 0l20 86q98 0 136 28.5t63 114.5l241 883q31 109 31 135q0 45 -28.5 58.5t-110.5 17.5l20 86h1059l-145 -547h-80q20 106 20 191q0 270 -256 270q-158 0 -190 -123l-111 -405q135 0 191.5 48t103.5 183h84l-162 -575h-73q8 57 8 86q0 72 -36 113.5t-105 41.5h-39 l-107 -383q-27 -92 -26 -135q0 -49 21.5 -68.5t80.5 -19.5q221 0 339 121t189 346h84l-143 -553h-1079zM518 1475l301 352h137l156 -352h-92l-152 204l-250 -204h-100z" />
<glyph unicode="&#xcb;" horiz-adv-x="1214" d="M-184 0l20 86q98 0 136 28.5t63 114.5l241 883q31 109 31 135q0 45 -28.5 58.5t-110.5 17.5l20 86h1059l-145 -547h-80q20 106 20 191q0 270 -256 270q-158 0 -190 -123l-111 -405q135 0 191.5 48t103.5 183h84l-162 -575h-73q8 57 8 86q0 72 -36 113.5t-105 41.5h-39 l-107 -383q-27 -92 -26 -135q0 -49 21.5 -68.5t80.5 -19.5q221 0 339 121t189 346h84l-143 -553h-1079zM551 1618q0 49 35 84t84 35t83.5 -35t34.5 -84t-34.5 -84t-83.5 -35t-84 35t-35 84zM936 1618q0 49 35 84t84 35t84 -35t35 -84t-35 -84t-84 -35t-84 35t-35 84z" />
<glyph unicode="&#xcc;" horiz-adv-x="757" d="M-156 0l21 86q106 0 146 28.5t65 114.5l241 883q31 109 31 135q0 45 -28.5 58.5t-110.5 17.5l20 86h633l-20 -86q-106 0 -146.5 -28.5t-64.5 -114.5l-242 -883q-31 -109 -31 -135q0 -45 29 -58.5t111 -17.5l-21 -86h-633zM350 1761q0 31 28 54.5t62.5 23.5t59 -20.5 t61.5 -75.5l182 -268h-86l-174 135q-10 8 -27.5 21.5t-24.5 19.5t-20.5 17t-19.5 16.5t-14 14.5t-12.5 15t-8.5 14.5t-5 16.5t-1 16z" />
<glyph unicode="&#xcd;" horiz-adv-x="757" d="M-156 0l21 86q106 0 146 28.5t65 114.5l241 883q31 109 31 135q0 45 -28.5 58.5t-110.5 17.5l20 86h633l-20 -86q-106 0 -146.5 -28.5t-64.5 -114.5l-242 -883q-31 -109 -31 -135q0 -45 29 -58.5t111 -17.5l-21 -86h-633zM489 1475l230 262q4 6 15 18t15.5 17.5 t13.5 15.5t13 13t12.5 10.5t13.5 10.5t12 7t13.5 6t13.5 3t15 1q33 0 60.5 -23.5t27.5 -62.5q0 -47 -51 -80l-313 -198h-91z" />
<glyph unicode="&#xce;" horiz-adv-x="757" d="M-156 0l21 86q106 0 146 28.5t65 114.5l241 883q31 109 31 135q0 45 -28.5 58.5t-110.5 17.5l20 86h633l-20 -86q-106 0 -146.5 -28.5t-64.5 -114.5l-242 -883q-31 -109 -31 -135q0 -45 29 -58.5t111 -17.5l-21 -86h-633zM289 1475l301 352h137l156 -352h-92l-152 204 l-250 -204h-100z" />
<glyph unicode="&#xcf;" horiz-adv-x="757" d="M-156 0l21 86q106 0 146 28.5t65 114.5l241 883q31 109 31 135q0 45 -28.5 58.5t-110.5 17.5l20 86h633l-20 -86q-106 0 -146.5 -28.5t-64.5 -114.5l-242 -883q-31 -109 -31 -135q0 -45 29 -58.5t111 -17.5l-21 -86h-633zM322 1618q0 49 34.5 84t83.5 35t84 -35t35 -84 t-35 -84t-84 -35t-83.5 35t-34.5 84zM707 1618q0 49 34.5 84t83.5 35t84 -35t35 -84t-35 -84t-84 -35t-83.5 35t-34.5 84z" />
<glyph unicode="&#xd0;" horiz-adv-x="1290" d="M-186 0l20 86q92 0 132 29.5t63 113.5l131 480h-201l37 118h197l77 285q31 109 31 135q0 45 -28.5 58.5t-110.5 17.5l20 86h490q244 0 384 -141.5t140 -399.5q0 -217 -92 -413.5t-275.5 -325.5t-414.5 -129h-600zM313 174q0 -47 21.5 -67.5t81.5 -20.5q119 0 219 111.5 t155.5 270.5t85 307.5t29.5 246.5q0 145 -50 223t-132 78q-63 0 -93 -29.5t-59 -136.5l-88 -330h265l-39 -118h-258l-103 -375q-35 -133 -35 -160z" />
<glyph unicode="&#xd1;" horiz-adv-x="1214" d="M-203 0l21 86q96 0 140 36t62 107l236 863q37 131 37 151q0 45 -30 62.5t-101 17.5l20 86h361l313 -1014h4l197 715q27 100 26 125q0 43 -29.5 62.5t-105.5 25.5l15 86h423l-20 -86q-84 -6 -130 -40t-67 -112l-327 -1191h-146l-348 1122h-4l-221 -826q-18 -74 -19 -102 q0 -47 33 -67.5t109 -20.5l-21 -86h-428zM532 1520q18 86 68.5 161.5t138.5 75.5q47 0 148.5 -47t132.5 -47q35 0 62.5 27.5t39.5 66.5h62q-39 -233 -219 -233q-35 0 -136.5 45t-132.5 45q-70 0 -98 -94h-66z" />
<glyph unicode="&#xd2;" horiz-adv-x="1251" d="M-4 541q0 219 109.5 430t280.5 341t345 130q199 0 317.5 -162t118.5 -412q0 -219 -109.5 -430t-280.5 -341t-345 -130q-199 0 -317.5 162t-118.5 412zM262 295q0 -242 158 -242q94 0 187 123t154.5 296t100.5 349t39 293q0 242 -158 242q-94 0 -187 -123t-154.5 -296 t-100.5 -349t-39 -293zM539 1761q0 31 27.5 54.5t62.5 23.5t59.5 -20.5t61.5 -75.5l182 -268h-86l-174 135q-10 8 -27.5 21.5t-25 19.5t-20.5 17l-19.5 16.5t-14.5 14.5t-12 15t-8 14.5t-5 16.5t-1 16z" />
<glyph unicode="&#xd3;" horiz-adv-x="1251" d="M-4 541q0 219 109.5 430t280.5 341t345 130q199 0 317.5 -162t118.5 -412q0 -219 -109.5 -430t-280.5 -341t-345 -130q-199 0 -317.5 162t-118.5 412zM262 295q0 -242 158 -242q94 0 187 123t154.5 296t100.5 349t39 293q0 242 -158 242q-94 0 -187 -123t-154.5 -296 t-100.5 -349t-39 -293zM678 1475l229 262q4 6 15.5 18t15.5 17.5t13.5 15.5t13.5 13t12 10.5t13 10.5t12.5 7t13.5 6t13 3t15 1q33 0 61 -23.5t28 -62.5q0 -47 -52 -80l-313 -198h-90z" />
<glyph unicode="&#xd4;" horiz-adv-x="1251" d="M-4 541q0 219 109.5 430t280.5 341t345 130q199 0 317.5 -162t118.5 -412q0 -219 -109.5 -430t-280.5 -341t-345 -130q-199 0 -317.5 162t-118.5 412zM262 295q0 -242 158 -242q94 0 187 123t154.5 296t100.5 349t39 293q0 242 -158 242q-94 0 -187 -123t-154.5 -296 t-100.5 -349t-39 -293zM477 1475l301 352h137l156 -352h-92l-152 204l-249 -204h-101z" />
<glyph unicode="&#xd5;" horiz-adv-x="1251" d="M-4 541q0 219 109.5 430t280.5 341t345 130q199 0 317.5 -162t118.5 -412q0 -219 -109.5 -430t-280.5 -341t-345 -130q-199 0 -317.5 162t-118.5 412zM262 295q0 -242 158 -242q94 0 187 123t154.5 296t100.5 349t39 293q0 242 -158 242q-94 0 -187 -123t-154.5 -296 t-100.5 -349t-39 -293zM526 1520q18 86 68.5 161.5t138.5 75.5q47 0 148.5 -47t132.5 -47q35 0 62.5 27.5t39.5 66.5h62q-39 -233 -220 -233q-35 0 -136 45t-132 45q-70 0 -98 -94h-66z" />
<glyph unicode="&#xd6;" horiz-adv-x="1251" d="M-4 541q0 219 109.5 430t280.5 341t345 130q199 0 317.5 -162t118.5 -412q0 -219 -109.5 -430t-280.5 -341t-345 -130q-199 0 -317.5 162t-118.5 412zM262 295q0 -242 158 -242q94 0 187 123t154.5 296t100.5 349t39 293q0 242 -158 242q-94 0 -187 -123t-154.5 -296 t-100.5 -349t-39 -293zM510 1618q0 49 35 84t84 35t84 -35t35 -84t-35 -84t-84 -35t-84 35t-35 84zM895 1618q0 49 35 84t84 35t84 -35t35 -84t-35 -84t-84 -35t-84 35t-35 84z" />
<glyph unicode="&#xd7;" horiz-adv-x="1228" d="M70 152l340 337l-340 338l151 152l338 -338l338 338l152 -152l-338 -338l338 -337l-152 -152l-338 340l-338 -340z" />
<glyph unicode="&#xd8;" horiz-adv-x="1251" d="M-115 -74l201 250q-90 145 -90 364.5t109.5 430.5t280.5 341t345 130q164 0 279 -119l143 180h111l-199 -250q102 -154 102 -385q0 -219 -109.5 -430t-280.5 -341t-345 -130q-176 0 -293 133l-139 -174h-115zM264 256q10 -203 156 -203q88 0 175 107.5t148.5 265.5 t102.5 322.5t49 289.5l-4 4zM270 410l4 -4l623 778q-20 172 -154 172q-84 0 -167.5 -99.5t-145 -249t-104 -308t-56.5 -289.5z" />
<glyph unicode="&#xd9;" horiz-adv-x="1251" d="M41 276q0 72 29 173l180 663q31 104 31 141q0 70 -129 70l20 86h606l-20 -86q-94 0 -132 -29.5t-63 -113.5l-217 -781q-27 -88 -27 -157q0 -80 48.5 -130.5t134.5 -50.5q270 0 346 267l221 794q29 102 29 142q0 37 -32 48t-108 11l21 86h416l-21 -86q-86 0 -132 -35 t-68 -121l-226 -829q-53 -201 -177 -286t-314 -85q-158 0 -287 83t-129 226zM575 1761q0 31 28 54.5t62.5 23.5t59.5 -20.5t61 -75.5l183 -268h-86l-174 135q-10 8 -27.5 21.5t-25 19.5t-20.5 17l-19.5 16.5t-14.5 14.5t-12 15t-8 14.5t-5.5 16.5t-1.5 16z" />
<glyph unicode="&#xda;" horiz-adv-x="1251" d="M41 276q0 72 29 173l180 663q31 104 31 141q0 70 -129 70l20 86h606l-20 -86q-94 0 -132 -29.5t-63 -113.5l-217 -781q-27 -88 -27 -157q0 -80 48.5 -130.5t134.5 -50.5q270 0 346 267l221 794q29 102 29 142q0 37 -32 48t-108 11l21 86h416l-21 -86q-86 0 -132 -35 t-68 -121l-226 -829q-53 -201 -177 -286t-314 -85q-158 0 -287 83t-129 226zM715 1475l229 262q4 6 15.5 18t15.5 17.5t13 15.5t13.5 13t12.5 10.5t13 10.5t12.5 7t13.5 6t13 3t15 1q33 0 60.5 -23.5t27.5 -62.5q0 -47 -51 -80l-313 -198h-90z" />
<glyph unicode="&#xdb;" horiz-adv-x="1251" d="M41 276q0 72 29 173l180 663q31 104 31 141q0 70 -129 70l20 86h606l-20 -86q-94 0 -132 -29.5t-63 -113.5l-217 -781q-27 -88 -27 -157q0 -80 48.5 -130.5t134.5 -50.5q270 0 346 267l221 794q29 102 29 142q0 37 -32 48t-108 11l21 86h416l-21 -86q-86 0 -132 -35 t-68 -121l-226 -829q-53 -201 -177 -286t-314 -85q-158 0 -287 83t-129 226zM514 1475l301 352h137l156 -352h-92l-152 204l-250 -204h-100z" />
<glyph unicode="&#xdc;" horiz-adv-x="1251" d="M41 276q0 72 29 173l180 663q31 104 31 141q0 70 -129 70l20 86h606l-20 -86q-94 0 -132 -29.5t-63 -113.5l-217 -781q-27 -88 -27 -157q0 -80 48.5 -130.5t134.5 -50.5q270 0 346 267l221 794q29 102 29 142q0 37 -32 48t-108 11l21 86h416l-21 -86q-86 0 -132 -35 t-68 -121l-226 -829q-53 -201 -177 -286t-314 -85q-158 0 -287 83t-129 226zM547 1618q0 49 34.5 84t84 35t84 -35t34.5 -84t-34.5 -84t-84 -35t-84 35t-34.5 84zM932 1618q0 49 34.5 84t84 35t84 -35t34.5 -84t-34.5 -84t-84 -35t-84 35t-34.5 84z" />
<glyph unicode="&#xdd;" horiz-adv-x="1062" d="M-23 0l21 86q100 0 145 36t66 107l108 385l-106 611q-16 96 -113 98l21 86h561l-21 -86q-66 0 -107.5 -21.5t-41.5 -60.5q0 -29 12 -106l70 -398l291 406q63 90 63 121q0 59 -125 59l21 86h430l-23 -86q-84 -6 -138 -46t-107 -114l-388 -540l-94 -326q-31 -104 -30 -141 q0 -70 143 -70l-21 -86h-637zM631 1475l229 262q4 6 15.5 18t15.5 17.5t13 15.5t13.5 13t12.5 10.5t13 10.5t12.5 7t13.5 6t13 3t15 1q33 0 60.5 -23.5t27.5 -62.5q0 -47 -51 -80l-313 -198h-90z" />
<glyph unicode="&#xde;" horiz-adv-x="1175" d="M-178 0l20 86q106 0 146.5 28.5t64.5 114.5l242 883q31 109 31 135q0 45 -29 58.5t-111 17.5l21 86h633l-21 -86q-106 0 -147 -29.5t-64 -113.5l-18 -74h106q180 0 284.5 -85t104.5 -228q0 -186 -141 -303t-459 -117h-102l-23 -76q-31 -109 -30 -135q0 -45 32.5 -58.5 t131.5 -17.5l-21 -86h-651zM410 459h55q94 0 162.5 43t102.5 110.5t49.5 132t15.5 123.5q0 152 -125 152q-59 0 -90 -28.5t-52 -100.5z" />
<glyph unicode="&#xdf;" horiz-adv-x="1138" d="M-530 -205q0 57 37.5 101.5t103.5 44.5q47 0 86 -32t39 -79q0 -43 -24.5 -71.5t-24.5 -39.5q0 -14 22 -14q127 0 221 361l211 827h-141l25 86h143q68 201 196 332t306 131q141 0 249.5 -86t108.5 -234q0 -94 -49 -169.5t-113 -106.5q-41 -20 -106.5 -32.5t-97 -27 t-31.5 -49.5q0 -25 35.5 -47t87 -47t102.5 -59.5t87 -98t36 -149.5q0 -154 -125 -261.5t-295 -107.5q-127 0 -207 54.5t-80 166.5q0 63 33 113.5t101 50.5q53 0 86.5 -34.5t33.5 -88.5q0 -45 -25.5 -75.5t-52 -46t-26.5 -23.5q0 -39 108 -39q78 0 144.5 46t66.5 120 q0 49 -33.5 94t-81.5 79t-96.5 68.5t-82 80t-33.5 96.5q0 76 35.5 120t110.5 79.5t81 39.5q53 39 93 135.5t40 190.5q0 162 -110 162q-66 0 -123.5 -63.5t-85.5 -178.5l-240 -938q-53 -211 -211 -384t-321 -173q-104 0 -158.5 49t-54.5 127z" />
<glyph unicode="&#xe0;" horiz-adv-x="1099" d="M-41 330q0 162 63.5 316.5t181.5 256t259 101.5q76 0 121 -47.5t55 -114.5h4l35 137h268l-203 -748q-23 -80 -22 -108q0 -33 27 -33q72 0 196 289l60 -27q-20 -51 -36 -88t-48.5 -96t-66.5 -97t-82 -67t-101 -29q-78 0 -126 58.5t-48 154.5h-4q-39 -66 -66 -101.5 t-82 -73.5t-119 -38q-98 0 -159.5 54.5t-84 129.5t-22.5 171zM213 213q0 -123 78 -123q66 0 136.5 124t112.5 274.5t42 246.5q0 154 -74 154q-72 0 -143.5 -138.5t-111.5 -295t-40 -242.5zM393 1417q0 31 28 54.5t62.5 23.5t59 -20.5t61.5 -75.5l182 -269h-86l-174 136 q-10 8 -27.5 21t-24.5 19.5t-20.5 17.5t-19.5 16.5t-14 14.5t-12.5 15t-8.5 14.5t-5 16.5t-1 16z" />
<glyph unicode="&#xe1;" horiz-adv-x="1099" d="M-41 330q0 162 63.5 316.5t181.5 256t259 101.5q76 0 121 -47.5t55 -114.5h4l35 137h268l-203 -748q-23 -80 -22 -108q0 -33 27 -33q72 0 196 289l60 -27q-20 -51 -36 -88t-48.5 -96t-66.5 -97t-82 -67t-101 -29q-78 0 -126 58.5t-48 154.5h-4q-39 -66 -66 -101.5 t-82 -73.5t-119 -38q-98 0 -159.5 54.5t-84 129.5t-22.5 171zM213 213q0 -123 78 -123q66 0 136.5 124t112.5 274.5t42 246.5q0 154 -74 154q-72 0 -143.5 -138.5t-111.5 -295t-40 -242.5zM532 1130l230 263q4 6 15 18t15.5 17.5t13.5 15.5t13 13t12.5 10.5t13.5 10.5t12 7 t13.5 6t13.5 3t15 1q33 0 60.5 -23.5t27.5 -62.5q0 -47 -51 -80l-313 -199h-91z" />
<glyph unicode="&#xe2;" horiz-adv-x="1099" d="M-41 330q0 162 63.5 316.5t181.5 256t259 101.5q76 0 121 -47.5t55 -114.5h4l35 137h268l-203 -748q-23 -80 -22 -108q0 -33 27 -33q72 0 196 289l60 -27q-20 -51 -36 -88t-48.5 -96t-66.5 -97t-82 -67t-101 -29q-78 0 -126 58.5t-48 154.5h-4q-39 -66 -66 -101.5 t-82 -73.5t-119 -38q-98 0 -159.5 54.5t-84 129.5t-22.5 171zM213 213q0 -123 78 -123q66 0 136.5 124t112.5 274.5t42 246.5q0 154 -74 154q-72 0 -143.5 -138.5t-111.5 -295t-40 -242.5zM332 1130l301 353h137l156 -353h-92l-152 205l-250 -205h-100z" />
<glyph unicode="&#xe3;" horiz-adv-x="1099" d="M-41 330q0 162 63.5 316.5t181.5 256t259 101.5q76 0 121 -47.5t55 -114.5h4l35 137h268l-203 -748q-23 -80 -22 -108q0 -33 27 -33q72 0 196 289l60 -27q-20 -51 -36 -88t-48.5 -96t-66.5 -97t-82 -67t-101 -29q-78 0 -126 58.5t-48 154.5h-4q-39 -66 -66 -101.5 t-82 -73.5t-119 -38q-98 0 -159.5 54.5t-84 129.5t-22.5 171zM213 213q0 -123 78 -123q66 0 136.5 124t112.5 274.5t42 246.5q0 154 -74 154q-72 0 -143.5 -138.5t-111.5 -295t-40 -242.5zM381 1176q18 86 68.5 161.5t138.5 75.5q47 0 148.5 -47t131.5 -47q35 0 62.5 27.5 t40.5 66.5h61q-39 -233 -219 -233q-35 0 -136.5 45t-131.5 45q-70 0 -99 -94h-65z" />
<glyph unicode="&#xe4;" horiz-adv-x="1099" d="M-41 330q0 162 63.5 316.5t181.5 256t259 101.5q76 0 121 -47.5t55 -114.5h4l35 137h268l-203 -748q-23 -80 -22 -108q0 -33 27 -33q72 0 196 289l60 -27q-20 -51 -36 -88t-48.5 -96t-66.5 -97t-82 -67t-101 -29q-78 0 -126 58.5t-48 154.5h-4q-39 -66 -66 -101.5 t-82 -73.5t-119 -38q-98 0 -159.5 54.5t-84 129.5t-22.5 171zM213 213q0 -123 78 -123q66 0 136.5 124t112.5 274.5t42 246.5q0 154 -74 154q-72 0 -143.5 -138.5t-111.5 -295t-40 -242.5zM365 1274q0 49 34.5 84t83.5 35t84 -35t35 -84t-35 -84t-84 -35t-83.5 35t-34.5 84z M750 1274q0 49 34.5 84t84 35t84 -35t34.5 -84t-34.5 -84t-84 -35t-84 35t-34.5 84z" />
<glyph unicode="&#xe5;" horiz-adv-x="1099" d="M-41 330q0 162 63.5 316.5t181.5 256t259 101.5q76 0 121 -47.5t55 -114.5h4l35 137h268l-203 -748q-23 -80 -22 -108q0 -33 27 -33q72 0 196 289l60 -27q-20 -51 -36 -88t-48.5 -96t-66.5 -97t-82 -67t-101 -29q-78 0 -126 58.5t-48 154.5h-4q-39 -66 -66 -101.5 t-82 -73.5t-119 -38q-98 0 -159.5 54.5t-84 129.5t-22.5 171zM213 213q0 -123 78 -123q66 0 136.5 124t112.5 274.5t42 246.5q0 154 -74 154q-72 0 -143.5 -138.5t-111.5 -295t-40 -242.5zM496 1339q0 88 61 149.5t149.5 61.5t150 -61.5t61.5 -149.5t-61.5 -149.5 t-150 -61.5t-149.5 60.5t-61 150.5zM582 1339q0 -55 35.5 -90t89 -35t89 35t35.5 90q0 53 -35.5 89t-89 36t-89 -36t-35.5 -89z" />
<glyph unicode="&#xe6;" horiz-adv-x="1441" d="M-41 330q0 264 152.5 469t343.5 205q80 0 127 -47.5t57 -114.5h4l35 137h145l-30 -123l4 -4q152 152 313 152q113 0 181.5 -55.5t68.5 -149.5q0 -84 -50 -159t-134 -124q-121 -70 -379 -82q-27 -92 -27 -180q0 -193 129 -193q104 0 192.5 100.5t127.5 215.5l63 -25 q-41 -133 -152.5 -255t-263.5 -122q-117 0 -198.5 69t-116.5 183q-137 -252 -326 -252q-135 0 -200.5 104t-65.5 251zM213 213q0 -123 78 -123q66 0 136.5 124t112.5 279.5t42 258.5q0 137 -74 137q-72 0 -143.5 -138.5t-111.5 -295t-40 -242.5zM819 520q147 14 235.5 104.5 t88.5 213.5q0 80 -60 80q-80 0 -151.5 -121t-112.5 -277z" />
<glyph unicode="&#xe7;" horiz-adv-x="872" d="M-41 377q0 236 190.5 431.5t421.5 195.5q113 0 174.5 -56.5t61.5 -134.5q0 -70 -42 -125t-114 -55q-55 0 -89 36t-34 93q0 74 64 110q10 6 22.5 11.5t18.5 8.5t6 7q0 18 -45 19q-92 0 -177 -109t-132 -263.5t-47 -299.5q0 -184 135 -185q82 0 151.5 77t145.5 243l65 -27 q-33 -72 -52 -108.5t-60 -97t-81 -92t-103.5 -56.5t-139.5 -25h-12l-76 -110q14 2 41 2q78 0 132 -37t54 -114.5t-72.5 -126t-187.5 -48.5q-102 0 -196 49l34 68q78 -39 144 -39q49 0 79.5 22.5t30.5 67.5q0 80 -86 80q-39 0 -73 -14l-23 26l125 187q-115 29 -184.5 132 t-69.5 257z" />
<glyph unicode="&#xe8;" horiz-adv-x="872" d="M-53 389q0 166 98 311.5t234.5 224.5t261.5 79q113 0 181.5 -55.5t68.5 -149.5q0 -84 -50.5 -159t-134.5 -124q-121 -70 -379 -82q-27 -92 -26 -180q0 -193 129 -193q104 0 192 100.5t127 215.5l64 -25q-41 -133 -152.5 -255t-263.5 -122q-158 0 -254 118t-96 296z M250 520q147 14 235 104.5t88 213.5q0 80 -59 80q-80 0 -151.5 -121t-112.5 -277zM301 1417q0 31 27.5 54.5t62.5 23.5t59.5 -20.5t61.5 -75.5l182 -269h-86l-174 136q-10 8 -27.5 21t-24.5 19.5t-20.5 17.5t-19.5 16.5t-14.5 14.5t-12.5 15t-8 14.5t-5 16.5t-1 16z" />
<glyph unicode="&#xe9;" horiz-adv-x="872" d="M-53 389q0 166 98 311.5t234.5 224.5t261.5 79q113 0 181.5 -55.5t68.5 -149.5q0 -84 -50.5 -159t-134.5 -124q-121 -70 -379 -82q-27 -92 -26 -180q0 -193 129 -193q104 0 192 100.5t127 215.5l64 -25q-41 -133 -152.5 -255t-263.5 -122q-158 0 -254 118t-96 296z M250 520q147 14 235 104.5t88 213.5q0 80 -59 80q-80 0 -151.5 -121t-112.5 -277zM440 1130l230 263q4 6 15 18t15.5 17.5t13.5 15.5t13 13t12.5 10.5t13.5 10.5t12 7t13 6t13.5 3t15.5 1q33 0 60.5 -23.5t27.5 -62.5q0 -47 -51 -80l-314 -199h-90z" />
<glyph unicode="&#xea;" horiz-adv-x="872" d="M-53 389q0 166 98 311.5t234.5 224.5t261.5 79q113 0 181.5 -55.5t68.5 -149.5q0 -84 -50.5 -159t-134.5 -124q-121 -70 -379 -82q-27 -92 -26 -180q0 -193 129 -193q104 0 192 100.5t127 215.5l64 -25q-41 -133 -152.5 -255t-263.5 -122q-158 0 -254 118t-96 296z M240 1130l301 353h137l156 -353h-93l-151 205l-250 -205h-100zM250 520q147 14 235 104.5t88 213.5q0 80 -59 80q-80 0 -151.5 -121t-112.5 -277z" />
<glyph unicode="&#xeb;" horiz-adv-x="872" d="M-53 389q0 166 98 311.5t234.5 224.5t261.5 79q113 0 181.5 -55.5t68.5 -149.5q0 -84 -50.5 -159t-134.5 -124q-121 -70 -379 -82q-27 -92 -26 -180q0 -193 129 -193q104 0 192 100.5t127 215.5l64 -25q-41 -133 -152.5 -255t-263.5 -122q-158 0 -254 118t-96 296z M250 520q147 14 235 104.5t88 213.5q0 80 -59 80q-80 0 -151.5 -121t-112.5 -277zM272 1274q0 49 35 84t84 35t84 -35t35 -84t-35 -84t-84 -35t-84 35t-35 84zM657 1274q0 49 35 84t84 35t84 -35t35 -84t-35 -84t-84 -35t-84 35t-35 84z" />
<glyph unicode="&#xec;" horiz-adv-x="569" d="M-53 201q0 82 81 350t81 278q0 33 -20.5 47.5t-84.5 16.5l21 74l407 12l-194 -660q-37 -131 -37 -159q0 -45 30 -45q12 0 25.5 10t26 24.5t27 38t25.5 44t24.5 47t20.5 43t16.5 38t11.5 23.5l61 -27q-147 -381 -348 -381q-174 1 -174 226zM68 1417q0 31 27.5 54.5 t62.5 23.5t59.5 -20.5t61.5 -75.5l182 -269h-86l-174 136q-10 8 -27.5 21t-25 19.5t-20.5 17.5l-19.5 16.5t-14.5 14.5t-12 15t-8 14.5t-5 16.5t-1 16z" />
<glyph unicode="&#xed;" horiz-adv-x="569" d="M-53 201q0 82 81 350t81 278q0 33 -20.5 47.5t-84.5 16.5l21 74l407 12l-194 -660q-37 -131 -37 -159q0 -45 30 -45q12 0 25.5 10t26 24.5t27 38t25.5 44t24.5 47t20.5 43t16.5 38t11.5 23.5l61 -27q-147 -381 -348 -381q-174 1 -174 226zM207 1130l229 263q4 6 15.5 18 t15.5 17.5t13 15.5t13.5 13t12.5 10.5t13 10.5t12.5 7t13.5 6t13 3t15 1q33 0 61 -23.5t28 -62.5q0 -47 -52 -80l-313 -199h-90z" />
<glyph unicode="&#xee;" horiz-adv-x="569" d="M-53 201q0 82 81 350t81 278q0 33 -20.5 47.5t-84.5 16.5l21 74l407 12l-194 -660q-37 -131 -37 -159q0 -45 30 -45q12 0 25.5 10t26 24.5t27 38t25.5 44t24.5 47t20.5 43t16.5 38t11.5 23.5l61 -27q-147 -381 -348 -381q-174 1 -174 226zM6 1130l301 353h137l156 -353 h-92l-152 205l-250 -205h-100z" />
<glyph unicode="&#xef;" horiz-adv-x="569" d="M-53 201q0 82 81 350t81 278q0 33 -20.5 47.5t-84.5 16.5l21 74l407 12l-194 -660q-37 -131 -37 -159q0 -45 30 -45q12 0 25.5 10t26 24.5t27 38t25.5 44t24.5 47t20.5 43t16.5 38t11.5 23.5l61 -27q-147 -381 -348 -381q-174 1 -174 226zM39 1274q0 49 35 84t84 35 t83.5 -35t34.5 -84t-34.5 -84t-83.5 -35t-84 35t-35 84zM424 1274q0 49 35 84t84 35t84 -35t35 -84t-35 -84t-84 -35t-84 35t-35 84z" />
<glyph unicode="&#xf0;" d="M-41 391q0 238 169 425.5t400 187.5q51 0 101 -15q-2 141 -68 240l-172 -131l-49 57l172 133q-61 63 -164 105l43 61q121 -29 221 -90l166 127l49 -57l-151 -117q217 -188 217 -596q0 -336 -177 -541t-417 -205q-147 0 -243.5 113t-96.5 303zM213 197q0 -135 86 -136 q80 0 158 150.5t117.5 316.5t39.5 254q0 135 -86 136q-80 0 -157.5 -151t-117.5 -316.5t-40 -253.5z" />
<glyph unicode="&#xf1;" horiz-adv-x="1099" d="M-84 0l193 719q23 82 22 110q0 33 -20.5 47.5t-83.5 16.5l20 74l385 12l-43 -188l4 -5q129 217 279 218q106 0 153 -77t47 -192q0 -119 -82.5 -333t-82.5 -250.5t26 -36.5q33 0 74 57t65.5 108.5t40.5 96.5l64 -29q-2 -6 -8 -18q-23 -53 -38.5 -85t-50 -90.5t-67.5 -91 t-81 -60.5t-99 -28q-78 0 -129 58.5t-51 150.5q0 86 91 326t91 303q0 31 -14.5 47.5t-30.5 16.5q-68 0 -164 -167t-156 -368l-102 -342h-252zM322 1176q18 86 68 161.5t138 75.5q47 0 148.5 -47t132.5 -47q35 0 62.5 27.5t39.5 66.5h62q-39 -233 -219 -233q-35 0 -136.5 45 t-132.5 45q-70 0 -98 -94h-65z" />
<glyph unicode="&#xf2;" d="M-41 391q0 238 169 425.5t400 187.5q147 0 243.5 -113t96.5 -303q0 -238 -169 -425.5t-400 -187.5q-147 0 -243.5 113t-96.5 303zM213 197q0 -135 86 -136q80 0 158 150.5t117.5 316.5t39.5 254q0 135 -86 136q-80 0 -157.5 -151t-117.5 -316.5t-40 -253.5zM305 1417 q0 31 27.5 54.5t62.5 23.5t59.5 -20.5t61.5 -75.5l182 -269h-86l-174 136q-10 8 -27.5 21t-24.5 19.5t-20.5 17.5t-19.5 16.5t-14 14.5t-12.5 15t-8.5 14.5t-5 16.5t-1 16z" />
<glyph unicode="&#xf3;" d="M-41 391q0 238 169 425.5t400 187.5q147 0 243.5 -113t96.5 -303q0 -238 -169 -425.5t-400 -187.5q-147 0 -243.5 113t-96.5 303zM213 197q0 -135 86 -136q80 0 158 150.5t117.5 316.5t39.5 254q0 135 -86 136q-80 0 -157.5 -151t-117.5 -316.5t-40 -253.5zM444 1130 l230 263q4 6 15 18t15.5 17.5t13.5 15.5t13 13t12.5 10.5t13.5 10.5t12 7t13 6t13.5 3t15.5 1q33 0 60.5 -23.5t27.5 -62.5q0 -47 -51 -80l-313 -199h-91z" />
<glyph unicode="&#xf4;" d="M-41 391q0 238 169 425.5t400 187.5q147 0 243.5 -113t96.5 -303q0 -238 -169 -425.5t-400 -187.5q-147 0 -243.5 113t-96.5 303zM213 197q0 -135 86 -136q80 0 158 150.5t117.5 316.5t39.5 254q0 135 -86 136q-80 0 -157.5 -151t-117.5 -316.5t-40 -253.5zM244 1130 l301 353h137l156 -353h-93l-151 205l-250 -205h-100z" />
<glyph unicode="&#xf5;" d="M-41 391q0 238 169 425.5t400 187.5q147 0 243.5 -113t96.5 -303q0 -238 -169 -425.5t-400 -187.5q-147 0 -243.5 113t-96.5 303zM213 197q0 -135 86 -136q80 0 158 150.5t117.5 316.5t39.5 254q0 135 -86 136q-80 0 -157.5 -151t-117.5 -316.5t-40 -253.5zM293 1176 q18 86 68.5 161.5t138.5 75.5q47 0 148.5 -47t131.5 -47q35 0 62.5 27.5t40.5 66.5h61q-39 -233 -219 -233q-35 0 -136.5 45t-131.5 45q-70 0 -99 -94h-65z" />
<glyph unicode="&#xf6;" d="M-41 391q0 238 169 425.5t400 187.5q147 0 243.5 -113t96.5 -303q0 -238 -169 -425.5t-400 -187.5q-147 0 -243.5 113t-96.5 303zM213 197q0 -135 86 -136q80 0 158 150.5t117.5 316.5t39.5 254q0 135 -86 136q-80 0 -157.5 -151t-117.5 -316.5t-40 -253.5zM276 1274 q0 49 35 84t84 35t84 -35t35 -84t-35 -84t-84 -35t-84 35t-35 84zM662 1274q0 49 34.5 84t83.5 35t84 -35t35 -84t-35 -84t-84 -35t-83.5 35t-34.5 84z" />
<glyph unicode="&#xf7;" horiz-adv-x="1228" d="M70 383v213h979v-213h-979zM414 36.5q0 59.5 43 102.5t102 43t102.5 -43t43.5 -102.5t-43.5 -102.5t-102.5 -43t-102 43t-43 102.5zM414 942q0 59 43 102t102 43t102.5 -43t43.5 -102t-43.5 -102t-102.5 -43t-102 43t-43 102z" />
<glyph unicode="&#xf8;" d="M-92 -135l158 215q-106 113 -107 311q0 238 169 425.5t400 187.5q102 0 181 -56l100 137h90l-137 -184q106 -117 106 -313q0 -238 -169 -425.5t-400 -187.5q-104 0 -178 56l-123 -166h-90zM215 160q10 -98 84 -99q70 0 137.5 115t108.5 251t59 257l-4 4zM223 297l4 -4 l385 526q-10 98 -84 99q-70 0 -137 -114t-108.5 -250t-59.5 -257z" />
<glyph unicode="&#xf9;" horiz-adv-x="1099" d="M-16 209q0 135 74.5 366.5t74.5 258.5q0 33 -20.5 45t-83.5 14l20 74l400 12l-201 -686q-27 -92 -27 -148q0 -23 12.5 -39t30.5 -16q61 0 158.5 149.5t144.5 317.5l121 422h270l-215 -768q-18 -63 -18 -86q0 -35 27 -35q76 0 188 281l53 -21q-29 -76 -54.5 -129 t-67.5 -115.5t-96 -96.5t-120 -34q-80 0 -119.5 54.5t-39.5 144.5q0 37 12 74l-4 4q-51 -104 -137 -190.5t-189 -86.5q-90 0 -142 67t-52 167zM356 1417q0 31 28 54.5t62.5 23.5t59 -20.5t61.5 -75.5l183 -269h-86l-175 136q-10 8 -27.5 21t-24.5 19.5t-20.5 17.5 t-19.5 16.5t-14 14.5t-12 15t-8.5 14.5t-5.5 16.5t-1 16z" />
<glyph unicode="&#xfa;" horiz-adv-x="1099" d="M-16 209q0 135 74.5 366.5t74.5 258.5q0 33 -20.5 45t-83.5 14l20 74l400 12l-201 -686q-27 -92 -27 -148q0 -23 12.5 -39t30.5 -16q61 0 158.5 149.5t144.5 317.5l121 422h270l-215 -768q-18 -63 -18 -86q0 -35 27 -35q76 0 188 281l53 -21q-29 -76 -54.5 -129 t-67.5 -115.5t-96 -96.5t-120 -34q-80 0 -119.5 54.5t-39.5 144.5q0 37 12 74l-4 4q-51 -104 -137 -190.5t-189 -86.5q-90 0 -142 67t-52 167zM496 1130l229 263q4 6 15.5 18t15.5 17.5t13 15.5t13 13t12.5 10.5t13.5 10.5t12 7t13.5 6t13.5 3t15 1q33 0 60.5 -23.5 t27.5 -62.5q0 -47 -51 -80l-313 -199h-90z" />
<glyph unicode="&#xfb;" horiz-adv-x="1099" d="M-16 209q0 135 74.5 366.5t74.5 258.5q0 33 -20.5 45t-83.5 14l20 74l400 12l-201 -686q-27 -92 -27 -148q0 -23 12.5 -39t30.5 -16q61 0 158.5 149.5t144.5 317.5l121 422h270l-215 -768q-18 -63 -18 -86q0 -35 27 -35q76 0 188 281l53 -21q-29 -76 -54.5 -129 t-67.5 -115.5t-96 -96.5t-120 -34q-80 0 -119.5 54.5t-39.5 144.5q0 37 12 74l-4 4q-51 -104 -137 -190.5t-189 -86.5q-90 0 -142 67t-52 167zM295 1130l301 353h137l156 -353h-92l-152 205l-250 -205h-100z" />
<glyph unicode="&#xfc;" horiz-adv-x="1099" d="M-16 209q0 135 74.5 366.5t74.5 258.5q0 33 -20.5 45t-83.5 14l20 74l400 12l-201 -686q-27 -92 -27 -148q0 -23 12.5 -39t30.5 -16q61 0 158.5 149.5t144.5 317.5l121 422h270l-215 -768q-18 -63 -18 -86q0 -35 27 -35q76 0 188 281l53 -21q-29 -76 -54.5 -129 t-67.5 -115.5t-96 -96.5t-120 -34q-80 0 -119.5 54.5t-39.5 144.5q0 37 12 74l-4 4q-51 -104 -137 -190.5t-189 -86.5q-90 0 -142 67t-52 167zM328 1274q0 49 34.5 84t84 35t84 -35t34.5 -84t-34.5 -84t-84 -35t-84 35t-34.5 84zM713 1274q0 49 34.5 84t84 35t84 -35 t34.5 -84t-34.5 -84t-84 -35t-84 35t-34.5 84z" />
<glyph unicode="&#xfd;" d="M-119 -211q0 66 39 110t105 44q51 0 86.5 -34t35.5 -85q0 -31 -13 -53.5t-29.5 -33.5t-30 -21.5t-13.5 -20.5q0 -23 72 -23q121 0 177.5 58.5t90.5 181.5l66 229l-4 4q-35 -53 -60.5 -83.5t-78 -58.5t-115.5 -28q-102 0 -159.5 63.5t-57.5 166.5q0 92 81 341t81 283 q0 33 -24 47.5t-89 16.5l20 74l408 12l-223 -758q-16 -57 -17 -92q0 -51 41 -51q63 0 155.5 128t123.5 243l149 530h260l-266 -997q-29 -109 -88 -190t-134 -124t-149.5 -62.5t-152.5 -19.5q-111 0 -199 51.5t-88 151.5zM469 1130l229 263q4 6 15.5 18t15.5 17.5t13.5 15.5 t13.5 13t12 10.5t13 10.5t12.5 7t13.5 6t13 3t16 1q33 0 60.5 -23.5t27.5 -62.5q0 -47 -52 -80l-313 -199h-90z" />
<glyph unicode="&#xfe;" d="M-315 -381l14 78q86 4 118.5 32.5t55.5 110.5l334 1254q37 147 37 166q0 33 -19.5 46t-81.5 15l23 76l407 12l-157 -563l4 -4q45 53 66.5 77.5t70.5 54.5t98 30q115 0 183.5 -102.5t68.5 -242.5q0 -152 -69.5 -308t-199.5 -266t-282 -110q-106 0 -149 99h-4 q-66 -262 -66 -283q0 -61 29 -77.5t133 -16.5l-16 -78h-598zM252 188q0 -111 78 -110q72 0 149.5 126t125.5 292t48 286q0 106 -65 107q-68 0 -149 -124t-134 -290t-53 -287z" />
<glyph unicode="&#xff;" d="M-119 -211q0 66 39 110t105 44q51 0 86.5 -34t35.5 -85q0 -31 -13 -53.5t-29.5 -33.5t-30 -21.5t-13.5 -20.5q0 -23 72 -23q121 0 177.5 58.5t90.5 181.5l66 229l-4 4q-35 -53 -60.5 -83.5t-78 -58.5t-115.5 -28q-102 0 -159.5 63.5t-57.5 166.5q0 92 81 341t81 283 q0 33 -24 47.5t-89 16.5l20 74l408 12l-223 -758q-16 -57 -17 -92q0 -51 41 -51q63 0 155.5 128t123.5 243l149 530h260l-266 -997q-29 -109 -88 -190t-134 -124t-149.5 -62.5t-152.5 -19.5q-111 0 -199 51.5t-88 151.5zM301 1274q0 49 35 84t84 35t84 -35t35 -84t-35 -84 t-84 -35t-84 35t-35 84zM686 1274q0 49 35 84t84 35t84 -35t35 -84t-35 -84t-84 -35t-84 35t-35 84z" />
<glyph unicode="&#x152;" horiz-adv-x="1857" d="M-4 547q2 174 71.5 340t178 282.5t243 188.5t263.5 72q59 0 104 -11q10 -2 23.5 -4t22.5 -4t16 -2h972l-145 -547h-80q20 106 21 191q0 270 -256 270q-158 0 -191 -123l-111 -405q135 0 191.5 48t103.5 183h84l-161 -575h-74q8 57 8 86q0 72 -36 113.5t-105 41.5h-39 l-107 -383q-27 -92 -26 -135q0 -49 21.5 -68.5t80.5 -19.5q221 0 339 121t189 346h84l-143 -553h-944q-45 0 -92 -10q-68 -10 -86 -10q-139 0 -237.5 88t-141.5 213t-41 266zM262 260q0 -80 42 -137t116 -57q117 0 187.5 86t115.5 249q25 90 50.5 182.5t43 151t33.5 117.5 t25.5 94t19.5 71t14 55.5t9.5 37.5t6.5 30.5t2 23t1 20.5q0 160 -160 159q-104 0 -185 -103t-186 -372q-135 -346 -135 -608z" />
<glyph unicode="&#x153;" horiz-adv-x="1478" d="M-41 391q0 231 170 422t375 191q164 0 231 -187q162 186 350 187q104 0 171 -55.5t67 -149.5q0 -184 -172 -283q-119 -68 -367 -82q-27 -92 -26 -180q0 -193 129 -193q96 0 182 100.5t125 215.5l63 -25q-25 -80 -74.5 -160.5t-140 -148.5t-190.5 -68q-186 0 -258 170 q-129 -170 -315 -170q-133 0 -226.5 114t-93.5 302zM213 197q0 -135 86 -136q76 0 143.5 150.5t101.5 315.5t34 255q0 135 -86 136q-76 0 -143.5 -151t-101.5 -315.5t-34 -254.5zM807 520q143 12 221 102.5t78 215.5q0 80 -59 80q-72 0 -134.5 -119t-105.5 -279z" />
<glyph unicode="&#x178;" horiz-adv-x="1062" d="M-23 0l21 86q100 0 145 36t66 107l108 385l-106 611q-16 96 -113 98l21 86h561l-21 -86q-66 0 -107.5 -21.5t-41.5 -60.5q0 -29 12 -106l70 -398l291 406q63 90 63 121q0 59 -125 59l21 86h430l-23 -86q-84 -6 -138 -46t-107 -114l-388 -540l-94 -326q-31 -104 -30 -141 q0 -70 143 -70l-21 -86h-637zM422 1618q0 49 35 84t84 35t83.5 -35t34.5 -84t-34.5 -84t-83.5 -35t-84 35t-35 84zM807 1618q0 49 35 84t84 35t83.5 -35t34.5 -84t-34.5 -84t-83.5 -35t-84 35t-35 84z" />
<glyph unicode="&#x2c6;" horiz-adv-x="569" d="M41 1130l301 353h137l156 -353h-92l-152 205l-250 -205h-100z" />
<glyph unicode="&#x2dc;" horiz-adv-x="569" d="M90 1176q18 86 68.5 161.5t138.5 75.5q47 0 148.5 -47t132.5 -47q35 0 62.5 27.5t39.5 66.5h61q-39 -233 -219 -233q-35 0 -136 45t-132 45q-70 0 -98 -94h-66z" />
<glyph unicode="&#x2000;" horiz-adv-x="946" />
<glyph unicode="&#x2001;" horiz-adv-x="1894" />
<glyph unicode="&#x2002;" horiz-adv-x="946" />
<glyph unicode="&#x2003;" horiz-adv-x="1894" />
<glyph unicode="&#x2004;" horiz-adv-x="630" />
<glyph unicode="&#x2005;" horiz-adv-x="473" />
<glyph unicode="&#x2006;" horiz-adv-x="315" />
<glyph unicode="&#x2007;" horiz-adv-x="315" />
<glyph unicode="&#x2008;" horiz-adv-x="235" />
<glyph unicode="&#x2009;" horiz-adv-x="378" />
<glyph unicode="&#x200a;" horiz-adv-x="104" />
<glyph unicode="&#x2010;" horiz-adv-x="530" d="M-82 389l53 201h447l-53 -201h-447z" />
<glyph unicode="&#x2011;" horiz-adv-x="530" d="M-82 389l53 201h447l-53 -201h-447z" />
<glyph unicode="&#x2012;" horiz-adv-x="530" d="M-82 389l53 201h447l-53 -201h-447z" />
<glyph unicode="&#x2013;" d="M-127 410l49 159h1024l-49 -159h-1024z" />
<glyph unicode="&#x2014;" horiz-adv-x="2048" d="M-127 410l49 159h2048l-49 -159h-2048z" />
<glyph unicode="&#x2018;" horiz-adv-x="417" d="M111 954q0 145 97 283.5t234 220.5l41 -63q-238 -174 -237 -320q139 -18 139 -157q0 -59 -38 -103.5t-97 -44.5q-74 0 -106.5 52t-32.5 132z" />
<glyph unicode="&#x2019;" horiz-adv-x="417" d="M82 817q238 174 237 320q-139 18 -139 157q0 59 38 103.5t97 44.5q74 0 107 -52.5t33 -132.5q0 -145 -97.5 -283t-234.5 -220z" />
<glyph unicode="&#x201a;" horiz-adv-x="417" d="M-197 -322q238 174 238 320q-139 18 -139 158q0 59 37.5 103t97.5 44q74 0 106.5 -52t32.5 -132q0 -145 -97 -283.5t-235 -220.5z" />
<glyph unicode="&#x201c;" horiz-adv-x="796" d="M109 954q0 145 97 283.5t234 220.5l41 -63q-238 -174 -237 -320q139 -18 139 -157q0 -59 -38 -103.5t-97 -44.5q-74 0 -106.5 52t-32.5 132zM489 954q0 145 97.5 283.5t234.5 220.5l41 -63q-238 -174 -237 -320q139 -18 139 -157q0 -59 -38 -103.5t-97 -44.5 q-74 0 -107 52t-33 132z" />
<glyph unicode="&#x201d;" horiz-adv-x="796" d="M82 817q238 174 237 320q-139 18 -139 157q0 59 38 103.5t97 44.5q74 0 107 -52.5t33 -132.5q0 -145 -97.5 -283t-234.5 -220zM463 817q238 174 237 320q-139 18 -139 157q0 59 38 103.5t97 44.5q74 0 107 -52.5t33 -132.5q0 -145 -97.5 -283t-234.5 -220z" />
<glyph unicode="&#x201e;" horiz-adv-x="833" d="M-197 -322q238 174 238 320q-139 18 -139 158q0 59 37.5 103t97.5 44q74 0 106.5 -52t32.5 -132q0 -145 -97 -283.5t-235 -220.5zM184 -322q238 174 238 320q-139 18 -139 158q0 59 37.5 103t97.5 44q74 0 106.5 -52t32.5 -132q0 -145 -97.5 -283.5t-234.5 -220.5z" />
<glyph unicode="&#x2022;" d="M102 704.5q0 145.5 103.5 249t249 103.5t249 -103.5t103.5 -249t-103.5 -249t-249 -103.5t-249 103.5t-103.5 249z" />
<glyph unicode="&#x2026;" horiz-adv-x="2048" d="M37 127q0 74 41 131t108 57q57 0 97.5 -42t40.5 -101q0 -74 -41 -131t-109 -57q-57 0 -97 42t-40 101zM711 127q0 74 41 131t108 57q57 0 97 -42t40 -101q0 -74 -41 -131t-108 -57q-57 0 -97 42t-40 101zM1384 127q0 74 41 131t109 57q57 0 97 -42t40 -101 q0 -74 -41 -131t-108 -57q-57 0 -97.5 42t-40.5 101z" />
<glyph unicode="&#x202f;" horiz-adv-x="378" />
<glyph unicode="&#x2039;" horiz-adv-x="645" d="M66 479l272 377h162l-232 -381l37 -352h-137z" />
<glyph unicode="&#x203a;" horiz-adv-x="645" d="M-35 111l232 381l-37 352h137l102 -357l-272 -376h-162z" />
<glyph unicode="&#x205f;" horiz-adv-x="473" />
<glyph unicode="&#x20ac;" d="M-8 586l35 86h112q14 78 33 135h-147l34 86h144q96 242 266 395.5t340 153.5q131 0 217 -121l43 76h74l-121 -449h-82q16 115 16 187q0 94 -34.5 157.5t-104.5 63.5q-88 0 -176 -130t-158 -333h316l-35 -86h-309q-20 -68 -37 -135h289l-35 -86h-273q-35 -164 -34 -291 q0 -123 26.5 -182.5t87.5 -59.5q88 0 186.5 119t161.5 299l78 -27q-70 -209 -183.5 -343t-277.5 -134q-152 0 -239.5 131t-87.5 340q0 82 8 148h-133z" />
<glyph unicode="&#x2122;" horiz-adv-x="2027" d="M-12 1229v180h774v-180h-66q-20 115 -125 114h-77v-610q0 -53 15 -67.5t91 -18.5v-65h-450v65q76 4 91 18.5t15 67.5v610h-76q-102 0 -127 -114h-65zM840 1343v66h323l269 -553l276 553h287v-66q-72 -2 -89.5 -18t-17.5 -68v-524q0 -53 15.5 -67.5t89.5 -18.5v-65h-445 v65q74 4 88.5 18.5t14.5 67.5v418h-4l-287 -567h-33l-270 567h-4v-354q0 -90 17 -119t91 -31v-65h-276v65q72 2 87 30t15 120v438q-49 108 -147 108z" />
<glyph unicode="&#xe000;" horiz-adv-x="1004" d="M0 1005h1005v-1005h-1005v1005z" />
<glyph unicode="&#xfb01;" horiz-adv-x="1251" d="M-471 -238q0 68 38 112t105 44q53 0 88 -29.5t35 -81.5q0 -49 -25.5 -83.5t-25.5 -42.5q0 -16 20 -17q53 0 114 95.5t99 256.5l218 877h-177l21 86h174q37 190 201 326.5t364 136.5q119 0 207 -47t88 -152q0 -63 -40 -115.5t-103 -52.5q-57 0 -90 29t-33 82 q0 47 20.5 75.5t40 43t19.5 26.5q0 33 -90 33q-70 0 -129.5 -36t-97.5 -96.5t-62.5 -121.5t-40.5 -131h217q80 0 215 4t221 4l-190 -678q-35 -117 -35 -149q0 -45 30.5 -45t78 69.5t92.5 177.5l63 -22q-147 -365 -342 -365q-94 0 -135 57.5t-41 131.5q0 92 80 352t80 295 q0 41 -23.5 61.5t-93.5 20.5h-238l-149 -649q-70 -303 -224.5 -480.5t-322.5 -177.5q-100 0 -160.5 46t-60.5 130z" />
<glyph unicode="&#xfb02;" horiz-adv-x="1251" d="M-471 -240q0 63 37 110.5t108 47.5q51 0 86 -30.5t35 -86.5q0 -41 -23.5 -76.5t-23.5 -37.5q0 -14 16 -15q61 0 120 94.5t91 233.5l213 893h-178l19 86h176q41 190 204.5 326.5t364.5 136.5q123 0 211 -49l227 16l-303 -1126q-35 -123 -35 -146q0 -35 27 -35 q70 0 197 289l59 -26q-143 -389 -344 -390q-84 0 -130 52.5t-46 134.5q0 78 20 153l152 578h-365l-149 -649q-70 -303 -224.5 -480.5t-322.5 -177.5q-92 0 -155.5 44t-63.5 130zM465 979h366l31 104q-61 39 -61 107q0 43 19.5 70.5t40 43t20.5 27.5q0 25 -90 25 q-104 0 -194.5 -97.5t-131.5 -279.5z" />
<glyph unicode="&#xfb03;" horiz-adv-x="1859" d="M1237 201q0 82 81 350t81 278q0 33 -20.5 47.5t-84.5 16.5l21 74l407 12l-194 -660q-37 -131 -37 -159q0 -45 30 -45q12 0 25.5 10t26 24.5t27 38t25.5 44t24.5 47t20.5 43t16.5 38t11.5 23.5l61 -27q-147 -381 -348 -381q-174 1 -174 226zM1517 1245q0 74 43 131.5 t119 57.5q55 0 90 -42t35 -102q0 -74 -43 -131t-119 -57q-55 0 -90 42t-35 101zM205 -240q0 63 35.5 109.5t99.5 46.5q55 0 87 -33t32 -86q0 -37 -26 -72.5t-26 -39.5q0 -20 23 -21q41 0 96.5 75t89.5 222l222 932h-138l21 86h139q59 197 178 330t287 133q113 0 166 -56.5 t53 -123.5q0 -63 -41 -113.5t-106 -50.5q-45 0 -76 31.5t-31 74.5q0 47 19.5 78t38 45t18.5 23q0 14 -23 14q-145 0 -233 -385h197l-25 -86h-193l-149 -649q-70 -303 -224.5 -480.5t-322.5 -177.5q-78 0 -133 47t-55 127zM-440 -240q0 63 35.5 109.5t99.5 46.5q55 0 87 -33 t32 -86q0 -37 -26 -72.5t-26 -39.5q0 -20 23 -21q41 0 96.5 75t89.5 222l222 932h-138l21 86h139q59 197 178 330t287 133q113 0 166 -56.5t53 -123.5q0 -63 -41 -113.5t-106 -50.5q-45 0 -76 31.5t-31 74.5q0 47 19.5 78t38 45t18.5 23q0 14 -23 14q-145 0 -233 -385h197 l-25 -86h-193l-149 -649q-70 -303 -224.5 -480.5t-322.5 -177.5q-78 0 -133 47t-55 127z" />
<glyph unicode="&#xfb04;" horiz-adv-x="1859" d="M1270 180q0 90 131 566.5t131 513.5q0 33 -23.5 47t-89.5 16l21 74l407 12l-301 -1100q-41 -150 -41 -174q0 -33 27 -33q74 0 186 273l57 -25q-20 -55 -45.5 -107.5t-68.5 -120t-102.5 -107.5t-125.5 -40q-80 0 -121.5 57.5t-41.5 147.5zM205 -240q0 63 35.5 109.5 t99.5 46.5q55 0 87 -33t32 -86q0 -37 -26 -72.5t-26 -39.5q0 -20 23 -21q41 0 96.5 75t89.5 222l222 932h-138l21 86h139q59 197 178 330t287 133q113 0 166 -56.5t53 -123.5q0 -63 -41 -113.5t-106 -50.5q-45 0 -76 31.5t-31 74.5q0 47 19.5 78t38 45t18.5 23q0 14 -23 14 q-145 0 -233 -385h197l-25 -86h-193l-149 -649q-70 -303 -224.5 -480.5t-322.5 -177.5q-78 0 -133 47t-55 127zM-440 -240q0 63 35.5 109.5t99.5 46.5q55 0 87 -33t32 -86q0 -37 -26 -72.5t-26 -39.5q0 -20 23 -21q41 0 96.5 75t89.5 222l222 932h-138l21 86h139 q59 197 178 330t287 133q113 0 166 -56.5t53 -123.5q0 -63 -41 -113.5t-106 -50.5q-45 0 -76 31.5t-31 74.5q0 47 19.5 78t38 45t18.5 23q0 14 -23 14q-145 0 -233 -385h197l-25 -86h-193l-149 -649q-70 -303 -224.5 -480.5t-322.5 -177.5q-78 0 -133 47t-55 127z" />
</font>
</defs>
</svg>
