<?xml version="1.0" standalone="no"?>
<!DOCTYPE svg PUBLIC "-//W3C//DTD SVG 1.1//EN" "http://www.w3.org/Graphics/SVG/1.1/DTD/svg11.dtd" >
<svg xmlns="http://www.w3.org/2000/svg">
<metadata>
This is a custom SVG webfont generated by Font Squirrel.
Copyright   : Copyright  1990 2001 Adobe Systems Incorporated  All Rights Reserved
Designer    : Tony Stan
Foundry URL : httpwwwadobecomtype
</metadata>
<defs>
<font id="ITCCenturyStdUltraCnIt" horiz-adv-x="1251" >
<font-face units-per-em="2048" ascent="1409" descent="-639" />
<missing-glyph horiz-adv-x="569" />
<glyph unicode=" "  horiz-adv-x="569" />
<glyph unicode="&#x09;" horiz-adv-x="569" />
<glyph unicode="&#xa0;" horiz-adv-x="569" />
<glyph unicode="!" horiz-adv-x="796" d="M111 180q0 123 62.5 194.5t143.5 71.5q86 0 134.5 -60t48.5 -153q0 -123 -62.5 -194.5t-144.5 -71.5q-86 0 -134 60.5t-48 152.5zM336 532q0 12 6 83t6 116q0 59 -6 182t-6 183q0 174 84 272t213 98q86 0 134 -56t48 -136q0 -92 -70.5 -215t-168 -270.5t-138.5 -256.5 h-102z" />
<glyph unicode="&#x22;" horiz-adv-x="681" d="M152 1307q0 135 106.5 135t106.5 -135q0 -14 -3.5 -40t-3.5 -34l-32 -402q-8 -106 -67.5 -106t-68.5 106l-32 402q0 8 -3 34t-3 40zM514 1307q0 135 106.5 135t106.5 -135q0 -14 -3 -40t-3 -34l-33 -402q-8 -106 -67.5 -106t-67.5 106l-33 402q0 8 -3 34t-3 40z" />
<glyph unicode="#" horiz-adv-x="1138" d="M102 393v197h197l33 229h-168v197h194l56 393h204l-55 -393h180l56 393h200l-53 -393h156v-197h-182l-33 -229h153v-197h-180l-53 -393h-205l55 393h-180l-55 -393h-205l55 393h-170zM504 590h180l33 229h-180z" />
<glyph unicode="$" horiz-adv-x="1138" d="M139 281q0 88 52.5 147t138.5 59q74 0 118 -46t44 -128q0 -123 -123 -170q33 -53 114 -53q70 0 121 63.5t51 137.5q0 78 -38.5 140.5t-94 110.5t-111 98t-94 127t-38.5 175q0 201 142 331t341 136l37 152h123l-37 -156q102 -16 163.5 -79.5t61.5 -164.5q0 -84 -47 -135 t-129 -51q-72 0 -118 44t-46 116q0 49 27.5 93t74.5 58q-23 33 -75 33q-66 0 -110 -52.5t-44 -142.5q0 -59 38 -111t91 -97.5t106.5 -96.5t91.5 -131t38 -178q0 -223 -134.5 -356.5t-353.5 -153.5l-45 -188h-123l45 188q-111 23 -184.5 97.5t-73.5 183.5z" />
<glyph unicode="%" horiz-adv-x="1593" d="M45 -33l1401 1475h156l-1401 -1475h-156zM184 975q0 205 134.5 336t308.5 131q129 0 212 -74t83 -192q0 -205 -134.5 -336t-308.5 -131q-129 0 -212 73.5t-83 192.5zM451 844q0 -45 41 -45q29 0 47 34.5t49 147.5q68 250 67 326q0 45 -41 45q-29 0 -47 -35t-49 -148 q-67 -249 -67 -325zM758 233q0 205 134 336t308 131q129 0 212 -73.5t83 -192.5q0 -205 -134 -336t-308 -131q-129 0 -212 73.5t-83 192.5zM1024 102q0 -45 41 -45q29 0 47 35t49 148q68 250 68 325q0 45 -41 45q-29 0 -47.5 -34.5t-48.5 -147.5q-68 -250 -68 -326z" />
<glyph unicode="&#x26;" horiz-adv-x="1517" d="M0 344q0 371 498 463q-2 14 -6.5 44t-6.5 58.5t-2 61.5q0 217 131 344t322 127q147 0 226 -72t79 -180q0 -72 -27.5 -127t-81 -93t-105.5 -61.5t-124 -44.5q33 -119 125 -389q37 39 68.5 122t52 151.5t73 123t130.5 54.5t123 -52.5t45 -136.5q0 -98 -46.5 -155.5 t-117.5 -57.5q-61 0 -95 44t-36 108h-4q-39 -170 -148 -303q2 -4 20.5 -34t26.5 -40t25.5 -29.5t34 -28t34.5 -8.5q70 0 162 209l78 -45q-74 -201 -197.5 -315.5t-273.5 -114.5q-164 0 -242 148q-193 -147 -368 -148q-164 0 -268.5 101.5t-104.5 275.5zM426 467 q0 -96 53 -183t144 -87q37 0 65 12q-123 225 -172 496q-90 -76 -90 -238zM872 1098q0 -49 9 -131q94 16 141 87.5t47 176.5q0 96 -76 96q-53 0 -87 -61.5t-34 -167.5z" />
<glyph unicode="'" horiz-adv-x="454" d="M213 1307q0 135 106.5 135t106.5 -135q0 -14 -3 -40t-3 -34l-33 -402q-8 -106 -67.5 -106t-67.5 106l-33 402q0 8 -3 34t-3 40z" />
<glyph unicode="(" horiz-adv-x="909" d="M119 385q0 432 234.5 718t609.5 400l32 -69q-125 -51 -206.5 -157t-129.5 -290l-159 -610q-66 -254 -66 -365q0 -219 107 -299l-66 -57q-82 76 -135 135t-109.5 148.5t-84 200t-27.5 245.5z" />
<glyph unicode=")" horiz-adv-x="909" d="M-94 -274q125 51 207 156.5t129 289.5l159 610q66 254 66 365q0 219 -107 299l66 57q82 -76 135 -135t109.5 -148.5t84 -200t27.5 -245.5q0 -432 -234.5 -717.5t-608.5 -400.5z" />
<glyph unicode="*" horiz-adv-x="1024" d="M168 911q0 49 29.5 81t76.5 32q35 0 100.5 -16.5t100.5 -16.5q25 0 70 8l8 29q-51 37 -135 63.5t-128 54.5t-44 87q0 45 35.5 86t89.5 41q51 0 81.5 -38t42 -86t33 -103.5t54.5 -79.5l24 8q8 53 8 78q0 16 -16 80.5t-16 101.5q0 121 120 121q47 0 84 -30t37 -71 q0 -68 -82 -150.5t-86 -137.5l21 -25q63 33 118.5 81t90.5 73.5t76 25.5q37 0 68.5 -34.5t31.5 -83.5q0 -55 -28.5 -89t-78.5 -34q-33 0 -100.5 16t-99.5 16q-25 0 -70 -8l-8 -28q39 -39 121 -62.5t134 -51.5t52 -91q0 -47 -40 -87t-93 -40q-49 0 -78 34.5t-38 80 t-30.5 102.5t-56.5 90l-24 -8q-8 -53 -9 -74q0 -49 16.5 -104.5t16.5 -73.5q0 -129 -121 -129q-43 0 -81.5 31.5t-38.5 74.5q0 41 25.5 80t55 64.5t57 62.5t29.5 76l-20 25q-74 -39 -125 -86.5t-81 -71t-79 -23.5q-41 0 -70.5 39t-29.5 90z" />
<glyph unicode="+" horiz-adv-x="1228" d="M139 350v279h350v350h279v-350h350v-279h-350v-350h-279v350h-350z" />
<glyph unicode="," horiz-adv-x="569" d="M-102 -373q256 188 331 340q-76 10 -122 66.5t-46 146.5q0 117 55.5 191.5t139.5 74.5q88 0 141.5 -66.5t53.5 -178.5q0 -324 -480 -664z" />
<glyph unicode="-" horiz-adv-x="454" d="M12 360l66 258h336l-66 -258h-336z" />
<glyph unicode="." horiz-adv-x="569" d="M66 180q0 123 62 194.5t144 71.5q86 0 134.5 -60t48.5 -153q0 -123 -62.5 -194.5t-144.5 -71.5q-86 0 -134 60.5t-48 152.5z" />
<glyph unicode="/" horiz-adv-x="569" d="M-213 -33l780 1475h281l-780 -1475h-281z" />
<glyph unicode="0" horiz-adv-x="1138" d="M86 512q0 391 205 660.5t471 269.5q174 0 273.5 -146.5t99.5 -398.5q0 -391 -205 -660.5t-471 -269.5q-174 0 -273.5 146.5t-99.5 398.5zM414 111q0 -53 39 -54q43 0 77.5 85t110.5 372q68 258 117 491.5t49 292.5q0 53 -39 54q-43 0 -78 -85t-110 -372 q-68 -258 -117 -491.5t-49 -292.5z" />
<glyph unicode="1" horiz-adv-x="1138" d="M61 0l33 115q113 2 155 35.5t68 134.5l162 626q33 121 33 138q0 39 -34 52t-134 17l33 115q233 10 356 45t201 131h106q-61 -233 -151 -571q-160 -600 -160 -645q0 -49 31 -63.5t121 -14.5l-33 -115h-787z" />
<glyph unicode="2" horiz-adv-x="1138" d="M-12 0l37 184q70 70 195.5 191t194 191.5t147.5 167.5t115 189.5t36 186.5q0 92 -42 144.5t-122 52.5q-53 0 -103 -29q143 -47 144 -191q0 -125 -63.5 -202.5t-164.5 -77.5q-76 0 -125 57.5t-49 141.5q0 180 149.5 308t379.5 128q199 0 318.5 -95.5t119.5 -248.5 q0 -92 -38 -166t-123 -142.5t-170 -122t-234.5 -143.5t-261.5 -168l4 -4h291q156 0 227.5 42t116.5 167l90 -20l-152 -541h-917z" />
<glyph unicode="3" horiz-adv-x="1138" d="M16 313q0 119 58.5 189.5t156.5 70.5q78 0 126.5 -49t48.5 -125q0 -231 -205 -239q33 -70 141 -70q86 0 137 68.5t86 193.5q49 172 49 238q0 74 -69 74q-4 0 -23.5 -2.5t-32.5 -2.5q-39 0 -61 15.5t-22 38.5q0 61 77 61q18 0 43 -4t39 -4q74 0 115 138t41 249 q0 174 -129 174q-61 0 -105 -37q68 -8 102 -55t34 -105q0 -115 -61.5 -190.5t-166.5 -75.5q-59 0 -110.5 48.5t-51.5 127.5q0 172 138.5 287t328.5 115q197 0 322 -91t125 -241q0 -145 -108.5 -244.5t-305.5 -124.5v-4q307 -31 307 -272q0 -213 -161.5 -351.5t-432.5 -138.5 q-193 0 -311.5 87t-118.5 251z" />
<glyph unicode="4" horiz-adv-x="1138" d="M12 381l45 168l742 893h352l-242 -938h193l-33 -123h-190q-39 -172 -39 -193q0 -68 135 -73l-33 -115h-766l33 115q72 2 105.5 8t64.5 34.5t46 78t34 145.5h-447zM160 504h319l131 549h-4z" />
<glyph unicode="5" horiz-adv-x="1138" d="M57 297q0 100 61.5 167.5t155.5 67.5q80 0 126 -49t46 -131q0 -90 -49 -147.5t-129 -57.5h-39q43 -57 113 -57q72 0 124 51.5t79.5 130t40 154.5t12.5 143q0 184 -119 185q-57 0 -113.5 -57.5t-82.5 -57.5q-53 0 -54 51q0 16 21.5 60.5t28.5 68.5l172 606 q145 -74 319 -73q266 0 447 90q-53 -236 -184.5 -351.5t-373.5 -115.5q-117 0 -213 41l-53 -197l4 -4q92 74 226 74q182 0 299.5 -108.5t117.5 -270.5q0 -217 -178 -380t-411 -163q-180 0 -287 95.5t-107 234.5z" />
<glyph unicode="6" horiz-adv-x="1138" d="M102 537q0 225 101.5 434t276.5 340t374 131q131 0 212 -75t81 -187q0 -90 -51.5 -153.5t-147.5 -63.5q-80 0 -123 46t-43 121q0 61 38 113.5t110 83.5q-25 25 -68 25q-51 0 -85 -27t-80 -142.5t-95 -342.5q63 41 174 41q125 0 219.5 -97.5t94.5 -265.5q0 -213 -164 -382 t-371 -169q-199 0 -326 158t-127 412zM455 131q0 -74 45 -74q35 0 62.5 55.5t64.5 198.5q61 246 61 365q0 70 -45 69q-39 0 -61.5 -47t-63.5 -204q-63 -240 -63 -363z" />
<glyph unicode="7" horiz-adv-x="1138" d="M160 844l168 565h934l-37 -152q-213 -223 -333 -438t-179 -516q-66 -336 -277 -336q-88 0 -143 55.5t-55 153.5q0 96 56 197.5t145 190.5t182.5 171t186.5 172t138 162h-307q-166 0 -251 -52t-130 -186z" />
<glyph unicode="8" horiz-adv-x="1138" d="M45 324q0 135 91 229t218 131q-137 127 -137 272q0 205 150.5 345.5t384.5 140.5q195 0 309.5 -90t114.5 -232q0 -111 -68 -179.5t-188 -125.5q92 -84 131 -154.5t39 -185.5q0 -209 -175.5 -358.5t-414.5 -149.5q-205 0 -330 105t-125 252zM274 287q0 -100 51.5 -158.5 t133.5 -58.5q94 0 149.5 62.5t55.5 166.5q0 31 -12.5 62.5t-26 54t-43 55.5t-45 47t-53.5 48t-46 42q-164 -124 -164 -321zM643 1143q0 -29 10.5 -56.5t21.5 -46t37.5 -45t39 -37t47.5 -37t41 -32.5q143 109 143 256q0 92 -45 143t-119 51q-80 0 -128 -51t-48 -145z" />
<glyph unicode="9" horiz-adv-x="1138" d="M-12 227q0 98 53 156.5t143 58.5q84 0 132.5 -49t48.5 -125q0 -74 -42 -120t-114 -58q45 -33 115 -33q137 0 231 283l80 242l-4 4q-80 -74 -187 -74q-147 0 -232 99.5t-85 248.5q0 217 169 399.5t404 182.5q190 0 320.5 -138.5t130.5 -381.5q0 -389 -251 -672t-572 -283 q-156 0 -248 72.5t-92 187.5zM528 702q0 -55 47 -55q49 0 80 74t82 276q61 244 62 306q0 49 -43 49q-35 0 -64.5 -56.5t-77.5 -226.5q-86 -318 -86 -367z" />
<glyph unicode=":" horiz-adv-x="569" d="M66 180q0 123 62 194.5t144 71.5q86 0 134.5 -60t48.5 -153q0 -123 -62.5 -194.5t-144.5 -71.5q-86 0 -134 60.5t-48 152.5zM221 737q0 123 62.5 195t144.5 72q86 0 134 -60.5t48 -152.5q0 -123 -62.5 -195t-144.5 -72q-86 0 -134 60.5t-48 152.5z" />
<glyph unicode=";" horiz-adv-x="569" d="M-78 -373q256 188 332 340q-76 10 -124 67.5t-48 145.5q0 117 56.5 191.5t142.5 74.5q88 0 139 -66.5t51 -178.5q0 -326 -475 -664zM221 737q0 123 62.5 195t144.5 72q86 0 134 -60.5t48 -152.5q0 -123 -62.5 -195t-144.5 -72q-86 0 -134 60.5t-48 152.5z" />
<glyph unicode="&#x3c;" horiz-adv-x="1228" d="M123 395v189l983 424v-287l-567 -232l567 -231v-287z" />
<glyph unicode="=" horiz-adv-x="1228" d="M139 135v279h979v-279h-979zM139 565v279h979v-279h-979z" />
<glyph unicode="&#x3e;" horiz-adv-x="1228" d="M168 -29v287l567 231l-567 232v287l983 -424v-189z" />
<glyph unicode="?" horiz-adv-x="1024" d="M160 180q0 123 62.5 194.5t144.5 71.5q86 0 134 -60t48 -153q0 -123 -62.5 -194.5t-144.5 -71.5q-86 0 -134 60.5t-48 152.5zM168 1071q0 162 138 278.5t360 116.5q199 0 315.5 -95t116.5 -249q0 -47 -11.5 -89t-23.5 -70.5t-44 -60.5t-49.5 -48t-66.5 -42t-67.5 -34 t-79 -34.5t-76.5 -32.5q-88 -37 -131 -70t-78 -104h-94q4 76 48 156.5t95 142t93 145.5t42 166q0 90 -41 143t-112.5 53t-112.5 -57q143 -18 143 -168q0 -96 -57 -160.5t-139 -64.5q-76 0 -122 46t-46 132z" />
<glyph unicode="@" horiz-adv-x="1638" d="M78 672q0 338 228.5 554t551.5 216q297 0 500 -180.5t203 -448.5q0 -115 -45.5 -229.5t-138.5 -197.5t-214 -83q-94 0 -145 57.5t-51 98.5h-4q-12 -39 -84 -97.5t-158 -58.5q-94 0 -151.5 76t-57.5 190q0 201 121 365t291 164q59 0 101 -30t54 -73h4l19 70h164l-105 -434 q-23 -102 -22 -142q0 -84 57 -83q68 0 130.5 124.5t62.5 280.5q0 178 -145.5 318.5t-385.5 140.5q-215 0 -370.5 -164t-155.5 -442q0 -229 162.5 -377t384.5 -148q248 0 424 94l20 -131q-223 -135 -442 -135q-162 0 -298.5 46t-227.5 120t-155.5 167t-93 187.5t-28.5 184.5z M717 586q0 -70 26.5 -109t71.5 -39q84 0 146.5 123t62.5 279q0 123 -80 123q-82 0 -154.5 -119t-72.5 -258z" />
<glyph unicode="A" d="M-197 0l25 102q170 51 229 166l611 1174h348l69 -1233q6 -96 123 -107l-24 -102h-762l24 102q168 6 168 113q0 39 -8 203h-352q-78 -182 -78 -228q0 -47 34 -65.5t118 -22.5l-25 -102h-500zM319 541h279l-20 479h-5z" />
<glyph unicode="B" horiz-adv-x="1478" d="M-131 0l25 102q121 2 160.5 28t60.5 103q2 10 46 173t87 323t80 313.5t37 182.5q0 76 -152 82l25 102h907q180 0 267 -82t87 -186q0 -344 -475 -383v-4q344 -35 344 -308q0 -190 -162 -318t-403 -128h-934zM582 166q0 -63 84 -64q78 0 116.5 52.5t75.5 187.5 q43 158 43 246q0 59 -27.5 83.5t-87.5 24.5h-69q-27 -109 -64 -244t-54 -202.5t-17 -83.5zM741 811h58q123 0 170 88q76 141 75 303q0 57 -20 81t-68 24q-45 0 -67.5 -18.5t-36.5 -71.5z" />
<glyph unicode="C" horiz-adv-x="1327" d="M102 532q0 225 100.5 433.5t288 342.5t410.5 134q88 0 155.5 -23.5t106.5 -47t54 -23.5q45 0 73 61h123l-127 -516h-102v76q0 160 -49.5 255t-137.5 95q-86 0 -149.5 -95.5t-145.5 -351.5q-43 -131 -75.5 -301t-32.5 -254q0 -115 38 -165t122 -50q88 0 165.5 84 t121.5 183.5t69 199.5h119q-152 -602 -613 -602q-240 0 -377 156.5t-137 408.5z" />
<glyph unicode="D" horiz-adv-x="1478" d="M-127 0l25 102q109 2 152.5 28t60.5 83q20 72 104 368t127 453.5t43 177.5q0 47 -30.5 70t-125.5 25l29 102h653q262 0 408.5 -150.5t146.5 -424.5q0 -221 -94 -408.5t-284.5 -306.5t-440.5 -119h-774zM575 162q0 -47 60 -47q82 0 141.5 101t138.5 384q109 385 109 565 q0 129 -86 129q-63 0 -82 -73l-235 -869q-46 -159 -46 -190z" />
<glyph unicode="E" horiz-adv-x="1327" d="M-139 0l24 102q113 2 161 30t65 95q68 266 125 476t82.5 290t40 136.5t14.5 95.5q0 41 -35 60.5t-121 21.5l25 102h1183l-122 -508h-103q0 207 -43 306.5t-143 99.5q-66 0 -95.5 -28t-48.5 -93l-104 -379h43q57 0 102 43t90 170h103l-154 -565h-102v106q0 123 -74 123 h-45q-29 -111 -54.5 -205t-37.5 -138t-22.5 -79t-13.5 -51t-3 -35q0 -61 86 -61q152 0 276.5 146.5t182.5 316.5h102l-155 -578h-1229z" />
<glyph unicode="F" horiz-adv-x="1290" d="M-135 0l24 102q109 2 161 34t69 97q59 227 111.5 417t78 281t45 159.5t25.5 95t6 47.5q0 43 -28.5 57.5t-135.5 16.5l25 102h1179l-127 -516h-90q-2 414 -194 414q-96 0 -127 -103l-113 -397h33q139 0 201 209h102l-156 -570h-90v84q0 154 -67 154h-56 q-123 -469 -123 -493.5t6.5 -40t15.5 -24.5t37 -14.5t53.5 -6.5t80.5 -3l-25 -102h-921z" />
<glyph unicode="G" horiz-adv-x="1402" d="M86 496q0 176 60.5 346t168 303t268 215t345.5 82q88 0 159.5 -25.5t114.5 -51.5t57.5 -26t24.5 3.5t19.5 13.5t12.5 13t15 22l10 18h99l-142 -532h-90v88q0 203 -65.5 288.5t-147.5 85.5q-92 0 -162.5 -103t-150.5 -325q-78 -217 -136.5 -452.5t-58.5 -298.5 q0 -90 88 -90q82 0 138.5 189.5t56.5 277.5q0 76 -98 81l28 103h730l-25 -103q-80 -2 -121 -38.5t-63 -118.5l-119 -461h-82q-53 94 -86 94q-12 0 -74.5 -31.5t-157 -63.5t-182.5 -32q-201 0 -317.5 148t-116.5 381z" />
<glyph unicode="H" horiz-adv-x="1593" d="M-127 0l25 102q106 4 149 32t66 112q59 219 112.5 404.5t78 269.5t44 150.5t24.5 95t5 59.5q0 76 -135 82l24 102h713l-25 -102q-49 -4 -74.5 -25.5t-43.5 -85.5l-113 -389h274q129 442 129 461q0 39 -82 39l25 102h725l-25 -102q-72 -2 -103.5 -7.5t-56 -21.5t-34.5 -53 q-63 -225 -120.5 -425t-84.5 -289t-48.5 -164t-26.5 -103.5t-5 -55.5q0 -80 135 -86l-24 -102h-709l25 102q51 4 70.5 20.5t29.5 53.5l148 508h-271q-145 -471 -145 -522q0 -53 69 -60l-24 -102h-721z" />
<glyph unicode="I" horiz-adv-x="909" d="M-127 0l25 102q109 2 152.5 28t60.5 83q20 72 104 368t127 453.5t43 177.5q0 45 -30.5 69t-125.5 26l25 102h856l-25 -102q-102 -4 -148 -29t-65 -98q-23 -78 -100.5 -345.5t-123.5 -435.5t-46 -206q0 -47 32 -68t124 -23l-25 -102h-860z" />
<glyph unicode="J" horiz-adv-x="1327" d="M-16 334q0 139 73.5 224t186.5 85q104 0 161.5 -61.5t57.5 -153.5q0 -123 -61.5 -199.5t-176.5 -85.5q39 -53 115 -53q74 0 120 39t75 137q70 246 159 559q109 377 109 420q0 37 -34 47.5t-134 14.5l24 102h844l-24 -102q-94 -2 -128 -23.5t-51 -79.5l-233 -809 q-57 -199 -205.5 -313.5t-392.5 -114.5q-240 0 -362.5 96.5t-122.5 270.5z" />
<glyph unicode="K" horiz-adv-x="1554" d="M-98 0l24 102q98 4 139 31t64 111q55 205 106.5 389t76 271t45 160t26.5 104.5t6 56.5q0 76 -135 82l25 102h749l-24 -102q-127 -6 -152 -97l-115 -419l4 -5l414 340q78 63 78 111q0 33 -25.5 50.5t-97.5 19.5l25 102h643l-25 -102q-154 -4 -336 -133l-270 -195l184 -741 q20 -80 51 -106t109 -30l-25 -102h-729l25 102q45 4 77.5 26t32.5 60q0 18 -10 61.5t-46 193t-79 339.5h-4q-18 -76 -60 -233.5t-68.5 -261t-26.5 -117.5q0 -61 53 -68l-25 -102h-704z" />
<glyph unicode="L" d="M-135 0l24 102q117 2 158 29t62 107q59 219 112 407.5t78 275.5t44 155.5t24.5 93t5.5 44.5q0 45 -31 67t-117 26l29 102h872l-24 -102q-113 -2 -162 -33t-68 -100q-61 -221 -115.5 -416t-81 -284t-47 -161.5t-25.5 -100.5t-5 -48q0 -49 78 -49q285 0 459 503l102 -16 l-168 -602h-1204z" />
<glyph unicode="M" horiz-adv-x="1820" d="M-106 0l24 102q88 4 136 36t71 112q31 109 106.5 373t120.5 429t45 189q0 37 -27.5 50.5t-115.5 15.5l25 102h671l-32 -766h4l397 766h696l-24 -102q-111 -2 -153 -29t-62 -100l-232 -844q-37 -129 -37 -158q0 -43 32 -56.5t116 -17.5l-25 -102h-766l25 102 q84 2 117.5 26t50.5 81l258 921l-4 5l-586 -1135h-287l58 1106l-4 4q-246 -852 -246 -922q0 -45 25.5 -63.5t93.5 -22.5l-25 -102h-446z" />
<glyph unicode="N" horiz-adv-x="1366" d="M-139 0l24 102q113 2 159 39t77 150q248 907 248 934q0 43 -34 61.5t-122 20.5l25 102h561l258 -860h4q172 629 172 661q0 47 -36 71t-120 26l25 102h475l-25 -102q-94 -14 -140 -55.5t-69 -121.5l-307 -1130h-311l-291 991h-4q-27 -102 -54.5 -202.5t-45 -165 t-33.5 -127t-26.5 -98.5t-19.5 -71.5t-13.5 -54t-7.5 -36t-4 -27.5t-1 -21q0 -51 32 -67.5t120 -18.5l-25 -102h-491z" />
<glyph unicode="O" horiz-adv-x="1478" d="M86 553q0 229 103.5 432t295 330t424.5 127q174 0 301 -92.5t185.5 -233.5t58.5 -311q0 -211 -108.5 -404.5t-294 -313.5t-394.5 -120q-244 0 -407.5 169t-163.5 417zM528 176q0 -94 80 -94q59 0 115.5 96t144.5 391q143 473 144 664q0 94 -80 94q-59 0 -115.5 -96 t-144.5 -391q-144 -474 -144 -664z" />
<glyph unicode="P" horiz-adv-x="1366" d="M-168 0l25 102q168 4 196 97q61 203 170 597t109 441q0 35 -31 50.5t-113 19.5l25 102h823q201 0 299.5 -100.5t98.5 -237.5q0 -193 -154 -306.5t-395 -113.5h-217l-84 -301q-33 -113 -33 -155q0 -53 31.5 -72t146.5 -21l-24 -102h-873zM692 754h45q76 0 134.5 92 t83 193.5t24.5 172.5q0 94 -76 95q-35 0 -52 -20.5t-32 -69.5z" />
<glyph unicode="Q" horiz-adv-x="1478" d="M86 553q0 229 103.5 432t295 330t424.5 127q174 0 301 -92.5t185.5 -233.5t58.5 -311q0 -240 -140 -455t-360 -315q35 -92 95 -92q86 0 141 70.5t80 166.5l98 -12q-129 -528 -446 -528q-113 0 -181.5 66.5t-68.5 180.5q0 49 8 82q-6 -2 -23 -2q-244 0 -407.5 169 t-163.5 417zM528 176q0 -94 80 -94q57 0 107 84q18 63 18 162q0 29 -15.5 51t-43.5 22q-86 0 -139 -143q-7 -57 -7 -82zM565 442l4 -4q59 78 142 78q78 0 114 -80q14 35 43 133q143 473 144 664q0 94 -80 94q-59 0 -115.5 -96t-144.5 -391q-76 -251 -107 -398z" />
<glyph unicode="R" horiz-adv-x="1517" d="M-123 0l25 102q94 4 141 26t61 73q86 311 189 671q92 328 92 363t-35 52.5t-117 19.5l25 102h905q154 0 247 -87t93 -210q0 -369 -553 -387v-4q164 -2 231.5 -85t67.5 -276q0 -49 11.5 -69.5t38 -20.5t54 53.5t44.5 139.5l98 -17q-25 -123 -72 -224t-140 -178t-216 -77 q-133 0 -209 89t-76 225q0 70 24.5 181t24.5 130q0 84 -77 84h-29q-31 -123 -59.5 -228.5t-40 -144.5t-17.5 -68.5t-6 -54.5q0 -72 119 -78l-25 -102h-819zM754 791q139 0 192 106q78 162 78 328q0 82 -66 82q-35 0 -50 -18.5t-27 -59.5z" />
<glyph unicode="S" horiz-adv-x="1175" d="M-41 0l127 557h102v-31q0 -174 43 -272q39 -86 108 -135t150 -49q80 0 133.5 49t53.5 137q0 57 -36 107.5t-90 85t-117.5 83t-118 97.5t-90.5 133t-36 188q0 195 171 343.5t391 148.5q215 0 348 -127l73 94h91l-119 -496h-99v84q0 158 -61 250t-178 92q-76 0 -125 -48 t-49 -126q0 -70 50 -127t121.5 -104t143.5 -100.5t122 -142.5t50 -204q0 -221 -187.5 -370.5t-426.5 -149.5q-225 0 -369 148l-86 -115h-90z" />
<glyph unicode="T" d="M12 0l25 102q104 4 154.5 31t68.5 98l287 1063q-78 -8 -153 -88t-115.5 -162.5t-69.5 -171.5h-115l160 537h1171l-135 -537h-90q0 25 4 83.5t4 84.5q0 252 -151 254l-250 -921q-37 -139 -37 -178q0 -47 32 -69t132 -24l-25 -102h-897z" />
<glyph unicode="U" horiz-adv-x="1402" d="M139 268q0 113 113 509.5t113 443.5q0 49 -31 65.5t-117 20.5l25 102h823l-25 -102q-80 -2 -117.5 -35t-58.5 -109q-168 -596 -207 -745.5t-39 -198.5q0 -68 36 -96.5t116 -28.5q190 0 248 223q53 199 101 374t71.5 257t42 148.5t24 93.5t5.5 47q0 35 -25 51.5t-90 18.5 l24 102h406l-25 -102q-88 -6 -118.5 -29t-49.5 -84l-241 -879q-51 -188 -172 -268t-363 -80q-233 0 -351 82t-118 219z" />
<glyph unicode="V" horiz-adv-x="1175" d="M94 1307l25 102h766l-25 -102q-88 -10 -119.5 -43t-31.5 -101q0 -25 3 -76t12 -198.5t17 -360.5h4q68 145 130.5 276.5t95.5 198t58.5 121t34.5 78t9 39.5q0 33 -27.5 48.5t-91.5 17.5l25 102h422l-25 -102q-76 -10 -123 -44t-90 -122l-557 -1157h-315l-68 1226 q-6 91 -129 97z" />
<glyph unicode="W" horiz-adv-x="1744" d="M115 1307l24 102h1344l-25 -102q-82 -2 -114.5 -32t-32.5 -99q0 -63 7 -309t9 -367h4q68 164 155 349t130 279.5t43 120.5q0 31 -22.5 42.5t-84.5 15.5l25 102h373l-25 -102q-57 0 -93 -33t-69 -103l-551 -1187h-290l-21 675h-4l-328 -675h-303l-41 1212q-2 57 -26.5 81 t-83.5 30zM688 500h4l193 413v289q0 92 -97 92q-100 0 -100 -96v-698z" />
<glyph unicode="X" horiz-adv-x="1366" d="M-127 0l25 102q156 6 286 158l332 383l-133 547q-16 70 -46 91.5t-108 25.5l25 102h758l-25 -102q-66 -4 -94.5 -24.5t-28.5 -82.5q0 -20 54 -250h4l172 219q37 49 36 88q0 49 -73 50l24 102h443l-25 -102q-78 -4 -134 -31t-114 -96l-297 -361l140 -598q14 -61 48 -89 t103 -30l-24 -102h-787l25 102q147 6 147 107q0 23 -3 44t-9 43.5t-18.5 82t-26.5 129.5q-170 -201 -210 -256t-40 -86q0 -63 86 -64l-25 -102h-487z" />
<glyph unicode="Y" horiz-adv-x="1214" d="M0 0l25 102q14 -1 27 0q75 0 120 20q53 24 70 89l106 424l-96 557q-10 61 -40 87t-97 28l24 102h783l-25 -102q-86 -4 -123 -25.5t-37 -79.5q0 -45 66 -432l250 379q41 63 41 98q0 59 -119 60l24 102h443l-25 -102q-63 -12 -99 -35t-71 -72l-411 -590 q-102 -403 -103 -422q0 -57 32 -71.5t136 -14.5l-24 -102h-877z" />
<glyph unicode="Z" d="M-74 0l25 135l848 1159h-66q-170 0 -263 -97t-175 -304l-102 16l139 500h1081l-24 -102l-857 -1192h84q328 0 474 454h114l-164 -569h-1114z" />
<glyph unicode="[" horiz-adv-x="909" d="M-86 -324l504 1807h618l-41 -123h-164q-74 0 -98 -90l-334 -1182q-51 -184 -51 -209q0 -80 94 -80h127l-41 -123h-614z" />
<glyph unicode="\" horiz-adv-x="569" d="M-98 1442h280l535 -1475h-281z" />
<glyph unicode="]" horiz-adv-x="909" d="M-127 -324l41 123h164q74 0 98 90l334 1182q51 184 51 209q0 80 -94 80h-127l41 123h614l-503 -1807h-619z" />
<glyph unicode="^" horiz-adv-x="1228" d="M205 672l352 737h213l352 -737h-245l-213 475l-213 -475h-246z" />
<glyph unicode="_" horiz-adv-x="1024" d="M0 -154h1024v-102h-1024v102z" />
<glyph unicode="`" horiz-adv-x="681" d="M205 1395q0 47 31.5 79.5t85.5 32.5q78 0 143 -90l207 -295h-127l-254 158q-86 52 -86 115z" />
<glyph unicode="a" horiz-adv-x="1290" d="M49 352q0 250 144.5 451t353.5 201q172 0 239 -164h5l36 139h398q-35 -121 -67 -235.5t-51.5 -182t-36.5 -130t-26.5 -94.5t-16.5 -58.5t-9 -39t-2 -20.5q0 -39 31 -39q18 0 36.5 16.5t41 57.5t29.5 55.5t32 65.5l71 -25q-76 -180 -174 -277.5t-254 -97.5 q-90 0 -147 48.5t-68 123.5h-4q-59 -72 -108 -108q-84 -63 -176 -64q-277 0 -277 377zM467 268q0 -63 55 -63q43 0 74 51t80 207q70 223 69 295q0 31 -16 50t-39 19q-25 0 -39 -8t-37.5 -51t-52.5 -131q-94 -283 -94 -369z" />
<glyph unicode="b" d="M53 274q0 98 127 517t127 446q0 43 -24.5 56.5t-102.5 13.5l33 90l582 12l-156 -496l4 -4q127 94 266 95q123 0 197 -97.5t74 -277.5q0 -285 -204 -469.5t-478 -184.5q-207 0 -326 78t-119 221zM430 137q0 -27 17.5 -43t48.5 -16q51 0 89 63.5t97 255.5q84 270 84 353 q0 90 -72 90q-74 0 -104 -109l-133 -465q-27 -94 -27 -129z" />
<glyph unicode="c" horiz-adv-x="1062" d="M29 401q0 258 197.5 430.5t453.5 172.5q164 0 258 -75t94 -188q0 -88 -48 -148.5t-134 -60.5q-72 0 -121 45.5t-49 118.5q0 125 135 185q-16 33 -69.5 32.5t-92.5 -59.5t-84 -199q-86 -264 -86 -401q0 -143 111 -143q94 0 155.5 67.5t118.5 194.5l90 -25 q-76 -188 -191.5 -280.5t-311.5 -92.5q-193 0 -309.5 112.5t-116.5 313.5z" />
<glyph unicode="d" d="M20 358q0 143 60.5 290t179.5 251.5t262 104.5q145 0 232 -144l63 230q31 106 31 147q0 43 -26.5 56.5t-108.5 13.5l32 90l566 12q-328 -1165 -328 -1192q0 -37 33 -37q41 0 127 182q6 12 8 19l70 -25q-29 -78 -61 -137t-80 -118.5t-114.5 -92.5t-146.5 -33 q-178 0 -217 177q-45 -70 -125 -123.5t-170 -53.5q-137 0 -212 98.5t-75 284.5zM434 268q0 -63 62 -63q47 0 83.5 69.5t86.5 266.5q43 172 43 227q0 72 -64 72q-45 0 -71.5 -45t-67.5 -191q-72 -260 -72 -336z" />
<glyph unicode="e" horiz-adv-x="1138" d="M20 401q0 244 216.5 423.5t515.5 179.5q184 0 277 -74t93 -182q0 -160 -159.5 -246t-440.5 -96q-23 -68 -22 -154q0 -154 139 -154q102 0 197.5 82t142.5 193l78 -25q-66 -176 -214.5 -274.5t-353.5 -98.5q-201 0 -335 120t-134 306zM545 496q92 0 183 133t91 225 q0 59 -49 59q-33 0 -61.5 -29.5t-67.5 -117.5q-69 -161 -96 -270z" />
<glyph unicode="f" horiz-adv-x="872" d="M4 0l238 877h-172l24 102h174q49 217 210 340t386 123q127 0 213 -66.5t86 -185.5q0 -82 -42 -134t-120 -52q-68 0 -104.5 40.5t-36.5 104.5q0 133 117 154l2 4q-33 20 -64 20q-70 0 -110.5 -74.5t-83.5 -273.5h188l-24 -102h-189l-225 -877h-467z" />
<glyph unicode="g" horiz-adv-x="1214" d="M-82 -213q0 82 53.5 139.5t143.5 57.5q70 0 112.5 -43t42.5 -113q0 -111 -118 -168q43 -16 88 -16q55 0 101 23.5t73.5 51t54.5 88t37 92t30.5 106.5t24.5 93l-4 4q-109 -102 -235 -102q-152 0 -224.5 102.5t-72.5 274.5q0 231 164.5 429t373.5 198q160 0 219 -152h4 l33 127h418l-283 -985q-66 -227 -244 -333.5t-421 -106.5q-174 0 -272.5 65.5t-98.5 167.5zM434 213q0 -66 66 -66q47 0 78.5 58.5t80.5 224.5q78 262 78 324q0 37 -18.5 57t-44.5 20q-41 0 -70 -39.5t-76 -187.5q-94 -297 -94 -391z" />
<glyph unicode="h" horiz-adv-x="1327" d="M-16 0l290 1059q45 160 45 182q0 41 -28.5 53.5t-106.5 12.5l33 90l602 12l-166 -563l4 -4q63 51 97 75.5t106 55.5t139 31q98 0 153.5 -53.5t55.5 -141.5q0 -104 -67.5 -338.5t-67.5 -261.5q0 -29 27 -29q61 0 143 189l76 -25q-156 -369 -455 -369q-106 0 -161.5 55.5 t-55.5 159.5q0 57 67.5 286t67.5 251q0 47 -43 47q-109 0 -170 -213l-159 -561h-426z" />
<glyph unicode="i" horiz-adv-x="757" d="M53 209q0 80 76 319.5t76 278.5q0 43 -24.5 56.5t-102.5 13.5l33 90l606 12l-215 -688q-23 -72 -23 -86q0 -33 31 -33q29 0 68.5 51t76.5 137l82 -24q-80 -178 -181 -269.5t-269 -91.5q-109 0 -171.5 64t-62.5 170zM315 1225q0 100 75 158.5t177 58.5q88 0 145.5 -48 t57.5 -134q0 -100 -76 -162t-176 -62q-92 0 -147.5 49.5t-55.5 139.5z" />
<glyph unicode="j" horiz-adv-x="681" d="M-414 -244q0 88 52.5 143.5t134.5 55.5q68 0 117 -47t49 -113q0 -121 -117 -157l-2 -5q16 -6 43 -6q68 0 108.5 59.5t40.5 147.5q0 14 -6 80t-6 123q0 68 94 388t94 390q0 33 -27.5 45t-99.5 17l25 90l619 12l-267 -946q-55 -201 -215 -348.5t-379 -147.5 q-115 0 -186.5 54t-71.5 165zM295 1225q0 98 75.5 157.5t176.5 59.5q88 0 145.5 -48t57.5 -134q0 -100 -76 -160t-178 -60q-90 0 -145.5 48.5t-55.5 136.5z" />
<glyph unicode="k" d="M-53 0q328 1182 327 1237q0 43 -24.5 56.5t-102.5 13.5l33 90l606 12l-233 -836q23 0 42 5.5t34.5 10.5t31 21.5t25.5 26.5t26.5 40t27 47t33 61t36.5 71q78 147 215 148q70 0 117 -54.5t47 -144.5q0 -86 -46 -134t-114 -48q-57 0 -94 33.5t-37 99.5q0 18 4 55l-4 4 q-20 -29 -49 -87t-57.5 -100t-69.5 -67v-4q156 -4 215 -57.5t59 -198.5q0 -88 33 -88q25 0 63.5 53t67.5 140l78 -29q-45 -162 -156.5 -282t-263.5 -120q-104 0 -163.5 54.5t-59.5 156.5q0 31 4 92.5t4 92.5q0 57 -18.5 78.5t-59.5 21.5l-131 -471h-446z" />
<glyph unicode="l" horiz-adv-x="757" d="M41 238q0 111 125 528.5t125 470.5q0 43 -24.5 56.5t-102.5 13.5l33 90l610 12q-145 -510 -283 -973q-70 -236 -69 -258q0 -31 32 -31q35 0 78 58.5t78 163.5l82 -25q-127 -369 -410 -369q-127 0 -200.5 70t-73.5 193z" />
<glyph unicode="m" horiz-adv-x="1933" d="M-20 0q201 717 208 764q4 23 5 43q0 43 -25 56.5t-102 13.5l32 90l598 12l-37 -139l5 -4q63 55 102 85.5t102.5 56.5t130.5 26q180 0 218 -201q201 201 395 201q94 0 152.5 -62.5t58.5 -167.5q0 -72 -67.5 -310.5t-67.5 -252.5q0 -31 22 -31q57 0 143 197l76 -29 q-63 -170 -179 -271.5t-280 -101.5q-102 0 -169.5 55.5t-67.5 149.5q0 80 67.5 315.5t67.5 252.5q0 27 -27 26q-37 0 -78.5 -51t-62.5 -121l-166 -602h-461q201 696 201 743q0 31 -26 31q-35 0 -77 -45t-65 -121l-172 -608h-454z" />
<glyph unicode="n" horiz-adv-x="1327" d="M-29 0q215 748 219 788q2 10 3 19q0 43 -25 56.5t-102 13.5l32 90l570 12l-45 -164l4 -4q68 63 111.5 98t112.5 65t142 30q100 0 155.5 -61.5t55.5 -156.5q0 -92 -69.5 -327.5t-69.5 -249.5q0 -29 22 -29q29 0 67 52.5t73 136.5l69 -29q-51 -152 -169.5 -258.5 t-274.5 -106.5q-102 0 -157.5 52.5t-55.5 138.5q0 74 69.5 309.5t69.5 253.5q0 45 -41 45q-43 0 -97 -44t-75 -122l-168 -608h-426z" />
<glyph unicode="o" d="M20 408q0 258 198 427t458 169q213 0 358.5 -115t145.5 -318q0 -258 -198 -427t-458 -169q-213 0 -358.5 115t-145.5 318zM446 125q0 -59 54 -59q37 0 64.5 58t84.5 247q104 344 105 483q0 59 -54 59q-37 0 -64.5 -58t-84.5 -247q-105 -344 -105 -483z" />
<glyph unicode="p" d="M-274 -430l24 90q94 2 139 30.5t62 96.5q180 674 219 826.5t39 193.5q0 43 -28.5 56.5t-106.5 13.5l32 90l549 12l-18 -94l4 -4q59 45 92 66.5t84 39t111 17.5q139 0 207.5 -97.5t68.5 -257.5q0 -256 -158.5 -465t-379.5 -209q-129 0 -232 84q-86 -313 -86 -338 q0 -39 34 -50t150 -11l-24 -90h-782zM467 170q0 -25 18.5 -42t49.5 -17q66 0 103.5 69.5t98.5 304.5q53 201 54 263q0 76 -72 75q-88 0 -121 -127q-31 -123 -56.5 -223t-39 -146t-22.5 -81t-11 -48.5t-2 -27.5z" />
<glyph unicode="q" horiz-adv-x="1214" d="M20 322q0 274 174.5 478t442.5 204q182 0 358 -152l127 127h107q-94 -348 -211 -780q-121 -444 -121 -469q0 -41 28.5 -53.5t106.5 -16.5l-24 -90h-721l24 90q100 4 137 28.5t60 116.5l61 248q-113 -78 -250 -78q-127 0 -213 100t-86 247zM434 188q0 -66 57.5 -65.5 t88 37.5t61.5 153q23 84 43.5 164t32.5 126t24.5 88t17.5 62.5t9 39t5 27.5t1 18q0 63 -61 63q-45 0 -79 -44t-75 -171q-125 -389 -125 -498z" />
<glyph unicode="r" horiz-adv-x="1024" d="M-12 0q45 172 89 333t59.5 216t25.5 108.5t10 100.5q0 68 -26.5 93.5t-100.5 25.5l33 90l524 12l-29 -258l5 -4q82 152 147.5 219.5t151.5 67.5q74 0 120.5 -49.5t46.5 -135.5q0 -100 -50 -177t-140 -77q-76 0 -112.5 43t-36.5 113v24l-5 5q-25 -33 -45 -69t-34.5 -63.5 t-33 -76.5t-28.5 -76t-29.5 -95.5t-28.5 -100t-36 -128t-39 -141.5h-438z" />
<glyph unicode="s" horiz-adv-x="985" d="M-29 227q0 66 43 110t121 44q68 0 110 -38t42 -97q0 -45 -32 -84t-79 -56q45 -41 121 -40q84 0 135 43t51 114q0 41 -41 78t-98 67.5t-114.5 65.5t-98.5 90.5t-41 124.5q0 145 141.5 250t360.5 105q193 0 290 -63.5t97 -149.5q0 -66 -44 -103t-118 -37q-63 0 -102 34 t-39 87q0 76 78 117q-47 25 -109 24q-129 0 -129 -108q0 -41 41 -77t100.5 -67.5t119 -70.5t100.5 -100.5t41 -141.5q0 -162 -146.5 -267.5t-398.5 -105.5q-201 0 -301.5 73t-100.5 179z" />
<glyph unicode="t" horiz-adv-x="796" d="M37 877l24 102h189l115 364h434l-103 -364h193l-25 -102h-200l-144 -515q-37 -139 -37 -155q0 -35 33 -35q66 0 152 209l86 -29q-55 -156 -166 -266.5t-256 -110.5q-135 0 -205 70t-70 191q0 51 19.5 142t41 164.5t55.5 186.5t44 148h-180z" />
<glyph unicode="u" horiz-adv-x="1327" d="M49 193q0 106 74 348.5t74 265.5q0 43 -25 56.5t-102 13.5l32 90l578 12l-164 -557q-25 -88 -24 -117q0 -59 61 -59q47 0 75.5 32.5t53.5 122.5l166 578h426q-49 -182 -107.5 -376.5t-84 -284t-25.5 -111.5q0 -27 28 -27q25 0 60 44t55.5 84t36.5 77l74 -29 q-147 -381 -420 -381q-238 0 -248 242q-53 -68 -98 -113t-123 -87t-156 -42q-217 1 -217 218z" />
<glyph unicode="v" horiz-adv-x="1062" d="M49 242q0 102 65.5 317t65.5 248q0 43 -24.5 56.5t-102.5 13.5l33 90l602 12q-27 -92 -57.5 -196.5t-47 -162t-35 -121t-26.5 -96t-16 -67.5t-11 -53.5t-3 -34.5q0 -47 18 -67.5t63 -20.5q100 0 204 148.5t132 326.5q-53 -16 -71 -17q-61 0 -97 38t-36 102q0 104 53 175 t131 71q156 0 155 -185q0 -102 -30.5 -217t-91 -225.5t-141.5 -200.5t-192.5 -145.5t-232.5 -55.5q-141 0 -224 69t-83 198z" />
<glyph unicode="w" horiz-adv-x="1593" d="M25 176q0 90 71.5 317.5t71.5 313.5q0 43 -24.5 56.5t-102.5 13.5l33 90l606 12q-188 -659 -188 -709q0 -37 34.5 -37t64.5 32t48 95l176 619h451q-197 -705 -197 -748q0 -31 13.5 -45t47.5 -14q80 0 177.5 153.5t134.5 284.5q-25 -8 -60 -8q-51 0 -81.5 41t-30.5 107 q0 117 54 185.5t130 68.5q131 0 131 -164q0 -82 -28.5 -190.5t-87 -226.5t-135.5 -218.5t-185.5 -165t-224.5 -64.5q-135 0 -201 57.5t-68 188.5h-4q-82 -119 -176 -182.5t-231 -63.5q-100 0 -159.5 60.5t-59.5 140.5z" />
<glyph unicode="x" horiz-adv-x="1138" d="M-82 156q0 106 61.5 175.5t141.5 69.5q59 0 92 -36.5t33 -96.5q0 -47 -17 -96l4 -4q90 90 173 233l-134 383q-18 57 -46.5 72.5t-98.5 20.5l25 90l512 12l81 -258q78 147 145.5 215t147.5 68q66 0 106 -49.5t40 -133.5t-54.5 -151.5t-123.5 -67.5q-55 0 -90 43t-35 107 v18l-4 4l-99 -156l84 -282q14 -51 27.5 -74.5t38.5 -23.5q47 0 112 163l74 -32q-80 -225 -174 -309.5t-215 -84.5q-102 0 -164.5 65.5t-118.5 258.5q-92 -158 -178 -241t-186 -83q-68 0 -114 48.5t-46 132.5z" />
<glyph unicode="y" d="M-49 -215q0 80 50 129t134 49q78 0 123 -41t45 -117q0 -92 -98 -133q37 -12 92 -12q193 0 235 168l91 336l-5 4q-168 -168 -346 -168q-98 0 -156.5 55.5t-58.5 153.5q0 109 77 342t77 256q0 43 -24.5 56.5t-102.5 13.5l33 90l547 12q-193 -711 -193 -725q0 -49 49 -49 q109 0 152 155l168 619h413l-252 -932q-63 -231 -264.5 -354t-453.5 -123q-156 0 -244 62.5t-88 152.5z" />
<glyph unicode="z" horiz-adv-x="1024" d="M-127 49q53 84 120.5 153.5t143.5 124t143.5 96.5t158.5 95t151 94l-4 4q-45 -6 -109 -6q-55 0 -131 20.5t-113 20.5q-100 0 -118 -110l-82 24q88 268 167 353.5t210 85.5q57 0 202.5 -45.5t218.5 -45.5q115 0 209 91l62 -54q-119 -152 -242 -251t-315.5 -219 t-306.5 -201l4 -5q166 115 307 115q18 0 55 -2t60 -2q86 0 133 26.5t88 125.5l73 -25q-68 -242 -116.5 -351.5t-102 -147.5t-151.5 -38q-106 0 -238.5 57.5t-212.5 57.5q-20 0 -38.5 -2t-36 -9t-27.5 -11.5t-27.5 -16.5t-22.5 -15t-24.5 -18.5t-21.5 -17.5z" />
<glyph unicode="{" horiz-adv-x="909" d="M6 -199q0 72 21 146l110 395q23 84 23 129q0 74 -103 109q94 29 138.5 81t72.5 156l109 393q51 184 165.5 238.5t430.5 54.5l-41 -123q-80 -23 -127 -83t-78 -173l-76 -276q-33 -119 -81 -179.5t-148 -86.5l-2 -4q104 -31 104 -127q0 -59 -20 -140l-76 -276 q-20 -76 -20 -117q0 -111 94 -139l-41 -123q-248 0 -351.5 29.5t-103.5 115.5z" />
<glyph unicode="|" horiz-adv-x="454" d="M123 0v1409h278v-1409h-278z" />
<glyph unicode="}" horiz-adv-x="909" d="M-63 -344l40 123q80 23 127.5 83t77.5 173l76 276q33 119 81 179.5t148 87.5l2 4q-104 31 -104 127q0 59 21 139l75 276q20 76 21 117q0 111 -94 139l41 123q248 0 351 -29.5t103 -115.5q0 -72 -20 -146l-111 -395q-23 -84 -22 -129q0 -74 102 -108q-94 -29 -138 -81.5 t-73 -156.5l-109 -393q-51 -184 -165.5 -238.5t-429.5 -54.5z" />
<glyph unicode="~" horiz-adv-x="1228" d="M131 514q39 53 68.5 85t84 59.5t117.5 27.5q82 0 233.5 -69.5t194.5 -69.5q37 0 73 25.5t54.5 49t51.5 72.5l90 -225q-8 -8 -33 -35.5t-35 -37t-32.5 -32t-38 -30.5t-38 -20.5t-45 -16.5t-49.5 -4q-72 0 -206 69q-131 70 -230 70q-104 0 -170 -147z" />
<glyph unicode="&#xa1;" horiz-adv-x="796" d="M-57 -270q0 92 70.5 215t168 270t137.5 256h103q0 -12 -6 -83t-6 -116q0 -59 6 -182t6 -182q0 -174 -84 -272.5t-213 -98.5q-86 0 -134 56.5t-48 136.5zM258 770q0 123 62.5 194.5t144.5 71.5q86 0 134 -60.5t48 -152.5q0 -123 -62.5 -194.5t-144.5 -71.5 q-86 0 -134 60.5t-48 152.5z" />
<glyph unicode="&#xa2;" horiz-adv-x="1138" d="M137 598q0 213 138.5 368.5t353.5 200.5l65 242h90l-65 -242q123 -14 202.5 -76.5t79.5 -179.5q0 -100 -51 -155.5t-125 -55.5q-57 0 -98 42t-41 110q0 121 107 184q-20 29 -52 29q-59 0 -116.5 -104.5t-90 -235.5t-32.5 -223q0 -74 24.5 -103.5t81.5 -29.5 q115 0 252 206l64 -61q-174 -268 -420 -268h-43l-66 -246h-92l72 260q-109 37 -173.5 131t-64.5 207z" />
<glyph unicode="&#xa3;" horiz-adv-x="1138" d="M-94 227q0 127 67.5 200t182.5 73q125 0 286 -70q25 59 25 111q0 61 -33 131h-315l24 123h230q-90 125 -90 229q0 172 139 295t356 123q188 0 284.5 -69.5t96.5 -196.5q0 -86 -47 -141.5t-131 -55.5q-76 0 -125 42t-49 118q0 53 26.5 98t71.5 61q-25 29 -78 29 q-131 0 -131 -160q0 -49 21.5 -111.5t67.5 -156.5t51 -104h274l-25 -123h-213q8 -53 9 -80q0 -84 -27 -142.5t-92 -142.5q84 -37 121 -37q35 0 60.5 10.5t46 38t31.5 46t31.5 65.5t28.5 66l78 -37q-135 -492 -401 -492q-100 0 -242 127q-147 -127 -334 -127 q-127 0 -201.5 69.5t-74.5 190.5zM20 201q0 -51 34 -81t93 -30q43 0 96.5 34t80.5 85q-113 94 -191 94q-47 0 -80 -29.5t-33 -72.5z" />
<glyph unicode="&#xa4;" horiz-adv-x="1138" d="M78 303l115 115q-86 92 -86.5 286.5t86.5 286.5l-115 115l139 139l119 -119q94 86 278.5 86t278.5 -86l119 119l139 -139l-115 -115q86 -92 86 -286.5t-86 -286.5l115 -115l-139 -139l-119 119q-94 -86 -278.5 -86t-278.5 86l-119 -119zM340 704.5q0 -116.5 81 -199.5 t193.5 -83t193.5 83t81 199.5t-81 199.5t-193.5 83t-193.5 -83t-81 -199.5z" />
<glyph unicode="&#xa5;" horiz-adv-x="1138" d="M4 0l25 102q94 -4 147 19.5t70 89.5l80 313h-281l29 123h276l-24 148h-224l29 123h172l-47 274q-10 61 -40 87t-97 28l24 102h721l-24 -102q-86 -4 -123 -25.5t-37 -79.5q0 -45 65 -432l250 379q41 63 41 98q0 59 -118 60l24 102h442l-24 -102q-63 -12 -99 -35t-71 -72 l-197 -282h174l-28 -123h-232l-102 -148h305l-29 -123h-325q-80 -303 -80 -336q0 -57 31.5 -71.5t136.5 -14.5l-25 -102h-815z" />
<glyph unicode="&#xa6;" horiz-adv-x="454" d="M123 0v537h278v-537h-278zM123 872v537h278v-537h-278z" />
<glyph unicode="&#xa7;" horiz-adv-x="1024" d="M-102 -244q0 68 45 111t114 43q68 0 106 -45t38 -109q0 -53 -31 -91t-31 -40q0 -23 29 -41t94 -18q98 0 149.5 45t51.5 123t-70.5 177t-154.5 184t-155 203t-71 226q0 133 80 215t215 105q-76 129 -76 248q0 143 107.5 246.5t304.5 103.5q188 0 288.5 -67.5t100.5 -180.5 q0 -74 -40 -114t-109 -40q-68 0 -111 43t-43 105q0 37 15.5 62.5t31 39t15.5 21.5q0 53 -117 53q-94 0 -137 -46t-43 -120q0 -61 46 -138t111.5 -155t132 -157.5t112.5 -173t46 -177.5q0 -287 -307 -299q82 -147 82 -264q0 -166 -123 -256t-328 -90q-184 0 -276 81t-92 187z M229 643q0 -80 101 -215q109 -143 172 -197.5t116 -54.5q49 0 78 28.5t29 71.5q0 92 -141 263q-23 27 -52.5 62.5t-44 52t-34 38t-29.5 29.5t-24.5 17.5t-28 12.5t-29.5 3q-53 0 -83 -32t-30 -79z" />
<glyph unicode="&#xa8;" horiz-adv-x="681" d="M119 1284.5q0 65.5 45 111.5t112.5 46t112.5 -46t45 -111.5t-45 -112t-112.5 -46.5t-112.5 46.5t-45 112zM557 1284.5q0 65.5 45 111.5t112.5 46t112.5 -46t45 -111.5t-45 -112t-112.5 -46.5t-112.5 46.5t-45 112z" />
<glyph unicode="&#xa9;" horiz-adv-x="1638" d="M131 704.5q0 315.5 204 526.5t517 211t517 -211t204 -526.5t-204 -526.5t-517 -211t-517 211t-204 526.5zM340 704.5q0 -243.5 144.5 -410.5t367.5 -167t367.5 167t144.5 410.5t-144.5 410.5t-367.5 167t-367.5 -167t-144.5 -410.5zM438 729q0 188 123 303t348 115 q94 0 176 -28.5t82 -53.5v-172h-65q-70 176 -187 176q-84 0 -135 -91t-51 -237q0 -365 180 -364q76 0 137.5 52t92.5 140h65l-33 -176q-6 -27 -91 -60.5t-189 -33.5q-217 0 -335 110.5t-118 319.5z" />
<glyph unicode="&#xaa;" horiz-adv-x="774" d="M106 1051q0 152 93.5 271.5t230.5 119.5q109 0 158 -99h2l22 87h258q-137 -451 -137 -455q0 -29 21 -29q23 0 82 119l63 -14q-49 -109 -114.5 -168.5t-172.5 -59.5q-59 0 -95 31t-44 84h-4q-20 -43 -71.5 -79t-112.5 -36q-179 1 -179 228zM377 1004q0 -45 32.5 -45.5 t51 29.5t53.5 130q41 125 41 172q0 49 -45 49q-20 0 -36.5 -27.5t-47.5 -113.5q-49 -141 -49 -194z" />
<glyph unicode="&#xab;" horiz-adv-x="1099" d="M57 471v25q135 88 262 190t187.5 150.5t81.5 48.5q35 0 35 -37q0 -57 -312 -377q160 -217 160 -336q0 -41 -31 -41q-14 0 -71.5 61.5t-147.5 159t-164 156.5zM471 471v25q135 88 262 190t187.5 150.5t80.5 48.5q35 0 35 -37q0 -57 -311 -377q160 -217 160 -336 q0 -41 -31 -41q-14 0 -71.5 61.5t-147.5 159t-164 156.5z" />
<glyph unicode="&#xac;" horiz-adv-x="1228" d="M139 565v279h979v-709h-278v430h-701z" />
<glyph unicode="&#xad;" horiz-adv-x="454" d="M12 360l66 258h336l-66 -258h-336z" />
<glyph unicode="&#xae;" horiz-adv-x="1638" d="M131 704.5q0 315.5 204 526.5t517 211t517 -211t204 -526.5t-204 -526.5t-517 -211t-517 211t-204 526.5zM340 704.5q0 -243.5 144.5 -410.5t367.5 -167t367.5 167t144.5 410.5t-144.5 410.5t-367.5 167t-367.5 -167t-144.5 -410.5zM504 328v57q47 4 60.5 20.5t13.5 69.5 v533q0 18 -15.5 27t-58.5 14v65h434q102 0 163.5 -52t61.5 -157q0 -63 -41 -122.5t-108 -82.5l112 -174q51 -80 117 -166v-32h-207q-27 0 -59.5 55t-73.5 148.5t-63 132.5h-45v-213q0 -37 15 -49.5t71 -16.5v-57h-377zM795 741h47q92 0 92 160q0 135 -82 135h-57v-295z" />
<glyph unicode="&#xaf;" horiz-adv-x="681" d="M127 1200l49 172h668l-49 -172h-668z" />
<glyph unicode="&#xb0;" horiz-adv-x="819" d="M205 1137q0 127 88 216t213 89t213 -89t88 -216t-88 -216.5t-213 -89.5t-213 89.5t-88 216.5zM352 1136.5q0 -69.5 45 -119.5t107 -50q63 0 109 50t46 119.5t-46 120t-109 50.5q-61 0 -106.5 -50.5t-45.5 -120z" />
<glyph unicode="&#xb1;" horiz-adv-x="1228" d="M139 0v279h979v-279h-979zM139 514v279h350v186h279v-186h350v-279h-350v-186h-279v186h-350z" />
<glyph unicode="&#xb2;" horiz-adv-x="681" d="M37 578l24 110q45 43 126 114.5t126 115t96.5 101.5t75 112.5t23.5 111.5t-25.5 91t-74.5 34q-43 0 -72 -25q94 -27 94 -112q0 -68 -44 -119t-97 -51t-87 36t-34 91q0 104 97 179t247 75q129 0 208 -56.5t79 -148.5q0 -55 -24.5 -100t-81 -86t-112 -73t-153.5 -85 t-170 -98l4 -4h189q100 0 146 24.5t75 97.5l57 -12l-98 -323h-594z" />
<glyph unicode="&#xb3;" horiz-adv-x="681" d="M57 766q0 72 40 115t110 43q45 0 74.5 -31t29.5 -76q0 -137 -133 -143q23 -43 96 -43q57 0 99.5 72.5t56.5 137t14 91.5q0 43 -45 43l-14 -2q-12 -2 -20 -2q-53 0 -54 35q0 39 49 38q12 0 29 -4t25 -4q49 0 74.5 83t25.5 151q0 98 -82 98q-35 0 -67 -14v-4 q43 -4 65.5 -32t22.5 -63q0 -70 -41 -114.5t-109 -44.5q-39 0 -71.5 28.5t-32.5 77.5q0 102 90 171t213 69q129 0 210 -54.5t81 -144.5q0 -88 -71 -147.5t-198 -73.5v-4q199 -16 199 -162q0 -129 -104.5 -214t-280.5 -85q-121 0 -201 54.5t-80 154.5z" />
<glyph unicode="&#xb4;" horiz-adv-x="681" d="M303 1122l248 293q78 92 158 92q51 0 82.5 -35.5t31.5 -78.5q0 -66 -100 -119l-285 -152h-135z" />
<glyph unicode="&#xb5;" horiz-adv-x="1327" d="M-78 -285q-6 96 53 303l152 525q70 248 70 264q0 43 -25 56.5t-102 13.5l32 90l578 12l-164 -557q-25 -88 -24 -117q0 -59 61 -59q47 0 75.5 32.5t53.5 122.5l166 578h426q-49 -182 -107.5 -376.5t-84 -284t-25.5 -111.5q0 -27 28 -27q25 0 60 44t55.5 84t36.5 77l74 -29 q-147 -381 -420 -381q-238 0 -248 242q-133 -166 -235 -207q-10 -39 -25.5 -103.5t-24 -95t-22.5 -78.5t-26.5 -70.5t-34 -51.5t-45 -42t-57.5 -22.5t-75 -9.5q-70 0 -121 51t-55 127z" />
<glyph unicode="&#xb6;" horiz-adv-x="1269" d="M135 -504l289 1049q-127 0 -189.5 58.5t-62.5 191.5q0 270 166 442t432 172h635l-27 -90q-84 -2 -116.5 -20.5t-44.5 -57.5l-480 -1745h-241l499 1823h-118l-500 -1823h-242z" />
<glyph unicode="&#xb7;" horiz-adv-x="569" d="M90 489q0 86 60.5 146.5t146.5 60.5t146.5 -60.5t60.5 -146.5t-60.5 -146t-146.5 -60t-146.5 60t-60.5 146z" />
<glyph unicode="&#xb8;" horiz-adv-x="681" d="M-147 -414l41 70q90 -41 149 -41q53 0 85 24.5t32 63.5q0 27 -24.5 49.5t-61.5 22.5q-31 0 -70 -17l-37 37l156 205h98l-115 -143l5 -4q37 12 75 12q84 0 137.5 -44t53.5 -110q0 -82 -78 -134t-200.5 -52t-245.5 61z" />
<glyph unicode="&#xb9;" horiz-adv-x="681" d="M74 578l20 73q72 2 98.5 20.5t43.5 71.5q131 451 131 459q0 23 -22.5 31t-86.5 12l21 74q152 6 228.5 27.5t127.5 78.5h74q-6 -25 -59.5 -210t-98.5 -344.5t-45 -174.5q0 -25 22.5 -34t77.5 -11l-20 -73h-512z" />
<glyph unicode="&#xba;" horiz-adv-x="751" d="M98 1083q0 156 128 257.5t298 101.5q137 0 231.5 -68.5t94.5 -191.5q0 -156 -128 -257.5t-298 -101.5q-137 0 -231.5 68.5t-94.5 191.5zM375 926q0 -49 33 -49q25 0 39 26.5t47 124.5q8 23 12 35q68 207 67 276q0 49 -32 50q-29 0 -43.5 -31t-55.5 -154 q-67 -198 -67 -278z" />
<glyph unicode="&#xbb;" horiz-adv-x="1099" d="M61 131q0 57 312 377q-160 217 -160 336q0 41 31 41q14 0 71.5 -61.5t147.5 -159t164 -156.5v-25q-135 -88 -262 -190.5t-187.5 -150.5t-81.5 -48q-35 0 -35 37zM475 131q0 57 311 377q-160 217 -159 336q0 41 30 41q14 0 71.5 -61.5t148 -159t163.5 -156.5v-25 q-135 -88 -262 -190.5t-187.5 -150.5t-80.5 -48q-35 0 -35 37z" />
<glyph unicode="&#xbc;" horiz-adv-x="1708" d="M74 578l20 73q72 2 98.5 20.5t43.5 71.5q131 451 131 459q0 23 -22.5 31t-86.5 12l21 74q152 6 228.5 27.5t127.5 78.5h74q-6 -25 -59.5 -210t-98.5 -344.5t-45 -174.5q0 -25 22.5 -34t77.5 -11l-20 -73h-512zM399 -33l801 1475h225l-800 -1475h-226zM950 225l29 107 l471 532h238l-148 -549h123l-25 -90h-122q-29 -82 -29 -112q0 -37 90 -39l-21 -74h-499l20 74q86 0 110.5 23.5t45.5 127.5h-283zM1081 315h176l78 295h-4z" />
<glyph unicode="&#xbd;" horiz-adv-x="1708" d="M41 578l20 73q72 2 98.5 20.5t43.5 71.5q131 451 131 459q0 23 -22.5 31t-86.5 12l21 74q152 6 228.5 27.5t127.5 78.5h74q-6 -25 -59.5 -210t-98.5 -344.5t-45 -174.5q0 -25 22.5 -34t77.5 -11l-20 -73h-512zM346 -33l801 1475h225l-801 -1475h-225zM942 0l25 111 q45 43 126 114.5t126 114.5t96 101.5t74.5 112.5t23.5 111.5t-25.5 91.5t-74.5 34q-43 0 -72 -25q94 -27 94 -113q0 -68 -44 -119t-97 -51t-87 36t-34 91q0 104 97.5 179t246.5 75q129 0 208 -56t79 -149q0 -55 -24.5 -100t-81 -86t-111.5 -72.5t-153.5 -85t-170.5 -98.5 l4 -4h189q100 0 146 24.5t75 98.5l57 -12l-98 -324h-594z" />
<glyph unicode="&#xbe;" horiz-adv-x="1708" d="M57 766q0 72 40 115t110 43q45 0 74.5 -31t29.5 -76q0 -137 -133 -143q23 -43 96 -43q57 0 99.5 72.5t56.5 137t14 91.5q0 43 -45 43l-14 -2q-12 -2 -20 -2q-53 0 -54 35q0 39 49 38q12 0 29 -4t25 -4q49 0 74.5 83t25.5 151q0 98 -82 98q-35 0 -67 -14v-4 q43 -4 65.5 -32t22.5 -63q0 -70 -41 -114.5t-109 -44.5q-39 0 -71.5 28.5t-32.5 77.5q0 102 90 171t213 69q129 0 210 -54.5t81 -144.5q0 -88 -71 -147.5t-198 -73.5v-4q199 -16 199 -162q0 -129 -104.5 -214t-280.5 -85q-121 0 -201 54.5t-80 154.5zM424 -33l801 1475h225 l-801 -1475h-225zM950 225l29 107l471 532h238l-148 -549h123l-25 -90h-122q-29 -82 -29 -112q0 -37 90 -39l-21 -74h-499l20 74q86 0 110.5 23.5t45.5 127.5h-283zM1081 315h176l78 295h-4z" />
<glyph unicode="&#xbf;" horiz-adv-x="1024" d="M-106 -119q0 47 11 89t23.5 71t44 60.5t49 48t66.5 42t67.5 33.5t79 35t76.5 33q88 37 131 69.5t78 104.5h94q-4 -76 -48 -157t-95 -142.5t-93 -145t-42 -165.5q0 -90 41 -143.5t112.5 -53.5t112.5 57q-143 18 -143 168q0 96 57 161t139 65q76 0 122 -46.5t46 -132.5 q0 -162 -138 -278.5t-359 -116.5q-199 0 -315.5 95t-116.5 249zM442 770q0 123 62.5 194.5t144.5 71.5q86 0 134 -60.5t48 -152.5q0 -123 -62 -194.5t-144 -71.5q-86 0 -134.5 60.5t-48.5 152.5z" />
<glyph unicode="&#xc0;" d="M-197 0l25 102q170 51 229 166l611 1174h348l69 -1233q6 -96 123 -107l-24 -102h-762l24 102q168 6 168 113q0 39 -8 203h-352q-78 -182 -78 -228q0 -47 34 -65.5t118 -22.5l-25 -102h-500zM319 541h279l-20 479h-5zM596 1755q0 47 31.5 80t85.5 33q78 0 143 -90 l207 -295h-127l-254 157q-86 52 -86 115z" />
<glyph unicode="&#xc1;" d="M-197 0l25 102q170 51 229 166l611 1174h348l69 -1233q6 -96 123 -107l-24 -102h-762l24 102q168 6 168 113q0 39 -8 203h-352q-78 -182 -78 -228q0 -47 34 -65.5t118 -22.5l-25 -102h-500zM319 541h279l-20 479h-5zM694 1483l248 293q78 92 158 92q51 0 82.5 -36 t31.5 -79q0 -66 -100 -119l-285 -151h-135z" />
<glyph unicode="&#xc2;" d="M-197 0l25 102q170 51 229 166l611 1174h348l69 -1233q6 -96 123 -107l-24 -102h-762l24 102q168 6 168 113q0 39 -8 203h-352q-78 -182 -78 -228q0 -47 34 -65.5t118 -22.5l-25 -102h-500zM319 541h279l-20 479h-5zM498 1483l311 360h242l163 -360h-135l-188 184 l-246 -184h-147z" />
<glyph unicode="&#xc3;" d="M-197 0l25 102q170 51 229 166l611 1174h348l69 -1233q6 -96 123 -107l-24 -102h-762l24 102q168 6 168 113q0 39 -8 203h-352q-78 -182 -78 -228q0 -47 34 -65.5t118 -22.5l-25 -102h-500zM319 541h279l-20 479h-5zM506 1520q10 109 81.5 189.5t176.5 80.5 q59 0 158.5 -41t132.5 -41q29 0 57.5 25.5t40.5 60.5h98q-18 -106 -83.5 -188t-161.5 -82q-70 0 -174.5 41t-135.5 41q-35 0 -61.5 -26t-30.5 -60h-98z" />
<glyph unicode="&#xc4;" d="M-197 0l25 102q170 51 229 166l611 1174h348l69 -1233q6 -96 123 -107l-24 -102h-762l24 102q168 6 168 113q0 39 -8 203h-352q-78 -182 -78 -228q0 -47 34 -65.5t118 -22.5l-25 -102h-500zM319 541h279l-20 479h-5zM510 1644.5q0 65.5 45 111.5t112.5 46t112.5 -46 t45 -111.5t-45 -111.5t-112.5 -46t-112.5 46t-45 111.5zM948 1644.5q0 65.5 45 111.5t113 46t113 -46t45 -111.5t-45 -111.5t-113 -46t-113 46t-45 111.5z" />
<glyph unicode="&#xc5;" d="M-197 0l25 102q170 51 229 166l611 1174h348l69 -1233q6 -96 123 -107l-24 -102h-762l24 102q168 6 168 113q0 39 -8 203h-352q-78 -182 -78 -228q0 -47 34 -65.5t118 -22.5l-25 -102h-500zM319 541h279l-20 479h-5zM686 1679.5q0 94.5 66.5 162t163 67.5t163 -67.5 t66.5 -162t-66.5 -162t-163 -67.5t-163 67.5t-66.5 162zM809 1679q0 -43 31.5 -74.5t74.5 -31.5t75 31.5t32 74.5t-32 75t-75 32t-74.5 -32t-31.5 -75z" />
<glyph unicode="&#xc6;" horiz-adv-x="2009" d="M-180 0l33 102q76 12 124 43t101 107l602 856q14 20 35.5 49t32 43t18.5 29.5t8 25.5q0 39 -63 39h-88l32 115h1393l-123 -508h-102q0 207 -43 306.5t-144 99.5q-66 0 -95.5 -28t-47.5 -93l-104 -379h43q57 0 102 43t90 170h102l-153 -565h-103v106q0 123 -73 123h-45 q-29 -111 -54.5 -205t-38 -138t-22.5 -79t-13 -51t-3 -35q0 -61 86 -61q152 0 276.5 146.5t181.5 316.5h103l-156 -578h-1237l33 102q121 10 162 36t63 114l78 297h-389q-31 -45 -82 -117q-100 -141 -121.5 -179t-21.5 -75q0 -41 33.5 -56.5t121.5 -19.5l-33 -102h-499z M508 672h340l172 622h-74z" />
<glyph unicode="&#xc7;" horiz-adv-x="1327" d="M102 532q0 225 100.5 433.5t288 342.5t410.5 134q88 0 155.5 -23.5t106.5 -47t54 -23.5q45 0 73 61h123l-127 -516h-102v76q0 160 -49.5 255t-137.5 95q-86 0 -149.5 -95.5t-145.5 -351.5q-43 -131 -75.5 -301t-32.5 -254q0 -115 38 -165t122 -50q88 0 165.5 84 t121.5 183.5t69 199.5h119q-152 -602 -613 -602q-29 0 -41 2l-90 -112l4 -4q37 12 76 12q84 0 137.5 -44t53.5 -110q0 -82 -78 -134t-201 -52t-246 61l41 70q90 -41 150 -41q53 0 85 24.5t32 63.5q0 27 -25 49.5t-61 22.5q-31 0 -70 -17l-37 37l141 187q-182 41 -283.5 189 t-101.5 361z" />
<glyph unicode="&#xc8;" horiz-adv-x="1327" d="M-139 0l24 102q113 2 161 30t65 95q68 266 125 476t82.5 290t40 136.5t14.5 95.5q0 41 -35 60.5t-121 21.5l25 102h1183l-122 -508h-103q0 207 -43 306.5t-143 99.5q-66 0 -95.5 -28t-48.5 -93l-104 -379h43q57 0 102 43t90 170h103l-154 -565h-102v106q0 123 -74 123 h-45q-29 -111 -54.5 -205t-37.5 -138t-22.5 -79t-13.5 -51t-3 -35q0 -61 86 -61q152 0 276.5 146.5t182.5 316.5h102l-155 -578h-1229zM659 1755q0 47 32 80t85 33q78 0 144 -90l206 -295h-127l-254 157q-86 52 -86 115z" />
<glyph unicode="&#xc9;" horiz-adv-x="1327" d="M-139 0l24 102q113 2 161 30t65 95q68 266 125 476t82.5 290t40 136.5t14.5 95.5q0 41 -35 60.5t-121 21.5l25 102h1183l-122 -508h-103q0 207 -43 306.5t-143 99.5q-66 0 -95.5 -28t-48.5 -93l-104 -379h43q57 0 102 43t90 170h103l-154 -565h-102v106q0 123 -74 123 h-45q-29 -111 -54.5 -205t-37.5 -138t-22.5 -79t-13.5 -51t-3 -35q0 -61 86 -61q152 0 276.5 146.5t182.5 316.5h102l-155 -578h-1229zM758 1483l248 293q78 92 157 92q51 0 83 -36t32 -79q0 -66 -100 -119l-285 -151h-135z" />
<glyph unicode="&#xca;" horiz-adv-x="1327" d="M-139 0l24 102q113 2 161 30t65 95q68 266 125 476t82.5 290t40 136.5t14.5 95.5q0 41 -35 60.5t-121 21.5l25 102h1183l-122 -508h-103q0 207 -43 306.5t-143 99.5q-66 0 -95.5 -28t-48.5 -93l-104 -379h43q57 0 102 43t90 170h103l-154 -565h-102v106q0 123 -74 123 h-45q-29 -111 -54.5 -205t-37.5 -138t-22.5 -79t-13.5 -51t-3 -35q0 -61 86 -61q152 0 276.5 146.5t182.5 316.5h102l-155 -578h-1229zM561 1483l311 360h242l164 -360h-135l-189 184l-245 -184h-148z" />
<glyph unicode="&#xcb;" horiz-adv-x="1327" d="M-139 0l24 102q113 2 161 30t65 95q68 266 125 476t82.5 290t40 136.5t14.5 95.5q0 41 -35 60.5t-121 21.5l25 102h1183l-122 -508h-103q0 207 -43 306.5t-143 99.5q-66 0 -95.5 -28t-48.5 -93l-104 -379h43q57 0 102 43t90 170h103l-154 -565h-102v106q0 123 -74 123 h-45q-29 -111 -54.5 -205t-37.5 -138t-22.5 -79t-13.5 -51t-3 -35q0 -61 86 -61q152 0 276.5 146.5t182.5 316.5h102l-155 -578h-1229zM573 1644.5q0 65.5 45.5 111.5t113 46t112.5 -46t45 -111.5t-45 -111.5t-112.5 -46t-113 46t-45.5 111.5zM1012 1644.5q0 65.5 45 111.5 t112.5 46t112.5 -46t45 -111.5t-45 -111.5t-112.5 -46t-112.5 46t-45 111.5z" />
<glyph unicode="&#xcc;" horiz-adv-x="909" d="M-127 0l25 102q109 2 152.5 28t60.5 83q20 72 104 368t127 453.5t43 177.5q0 45 -30.5 69t-125.5 26l25 102h856l-25 -102q-102 -4 -148 -29t-65 -98q-23 -78 -100.5 -345.5t-123.5 -435.5t-46 -206q0 -47 32 -68t124 -23l-25 -102h-860zM461 1755q0 47 31.5 80t85.5 33 q78 0 143 -90l207 -295h-127l-254 157q-86 52 -86 115z" />
<glyph unicode="&#xcd;" horiz-adv-x="909" d="M-127 0l25 102q109 2 152.5 28t60.5 83q20 72 104 368t127 453.5t43 177.5q0 45 -30.5 69t-125.5 26l25 102h856l-25 -102q-102 -4 -148 -29t-65 -98q-23 -78 -100.5 -345.5t-123.5 -435.5t-46 -206q0 -47 32 -68t124 -23l-25 -102h-860zM559 1483l248 293q78 92 158 92 q51 0 82.5 -36t31.5 -79q0 -66 -100 -119l-285 -151h-135z" />
<glyph unicode="&#xce;" horiz-adv-x="909" d="M-127 0l25 102q109 2 152.5 28t60.5 83q20 72 104 368t127 453.5t43 177.5q0 45 -30.5 69t-125.5 26l25 102h856l-25 -102q-102 -4 -148 -29t-65 -98q-23 -78 -100.5 -345.5t-123.5 -435.5t-46 -206q0 -47 32 -68t124 -23l-25 -102h-860zM362 1483l312 360h241l164 -360 h-135l-188 184l-246 -184h-148z" />
<glyph unicode="&#xcf;" horiz-adv-x="909" d="M-127 0l25 102q109 2 152.5 28t60.5 83q20 72 104 368t127 453.5t43 177.5q0 45 -30.5 69t-125.5 26l25 102h856l-25 -102q-102 -4 -148 -29t-65 -98q-23 -78 -100.5 -345.5t-123.5 -435.5t-46 -206q0 -47 32 -68t124 -23l-25 -102h-860zM375 1644.5q0 65.5 45 111.5 t112.5 46t112.5 -46t45 -111.5t-45 -111.5t-112.5 -46t-112.5 46t-45 111.5zM813 1644.5q0 65.5 45 111.5t112.5 46t112.5 -46t45 -111.5t-45 -111.5t-112.5 -46t-112.5 46t-45 111.5z" />
<glyph unicode="&#xd0;" horiz-adv-x="1478" d="M-127 0l25 102q109 2 152.5 28t60.5 83l139 487h-180l36 136h181q98 350 98 376q0 47 -30.5 70t-125.5 25l29 102h653q262 0 408.5 -150.5t146.5 -424.5q0 -221 -94 -408.5t-284.5 -306.5t-440.5 -119h-774zM575 162q0 -47 60 -47q82 0 141.5 101t138.5 384 q109 385 109 565q0 129 -86 129q-63 0 -82 -73l-104 -385h120l-41 -136h-116l-94 -348q-46 -159 -46 -190z" />
<glyph unicode="&#xd1;" horiz-adv-x="1366" d="M-139 0l24 102q113 2 159 39t77 150q248 907 248 934q0 43 -34 61.5t-122 20.5l25 102h561l258 -860h4q172 629 172 661q0 47 -36 71t-120 26l25 102h475l-25 -102q-94 -14 -140 -55.5t-69 -121.5l-307 -1130h-311l-291 991h-4q-27 -102 -54.5 -202.5t-45 -165 t-33.5 -127t-26.5 -98.5t-19.5 -71.5t-13.5 -54t-7.5 -36t-4 -27.5t-1 -21q0 -51 32 -67.5t120 -18.5l-25 -102h-491zM598 1520q10 109 82 189.5t176 80.5q59 0 158.5 -41t132.5 -41q29 0 57.5 25.5t40.5 60.5h98q-18 -106 -83.5 -188t-161.5 -82q-70 0 -174.5 41t-135.5 41 q-35 0 -61.5 -26t-30.5 -60h-98z" />
<glyph unicode="&#xd2;" horiz-adv-x="1478" d="M86 553q0 229 103.5 432t295 330t424.5 127q174 0 301 -92.5t185.5 -233.5t58.5 -311q0 -211 -108.5 -404.5t-294 -313.5t-394.5 -120q-244 0 -407.5 169t-163.5 417zM528 176q0 -94 80 -94q59 0 115.5 96t144.5 391q143 473 144 664q0 94 -80 94q-59 0 -115.5 -96 t-144.5 -391q-144 -474 -144 -664zM735 1755q0 47 32 80t85 33q78 0 143 -90l207 -295h-127l-254 157q-86 52 -86 115z" />
<glyph unicode="&#xd3;" horiz-adv-x="1478" d="M86 553q0 229 103.5 432t295 330t424.5 127q174 0 301 -92.5t185.5 -233.5t58.5 -311q0 -211 -108.5 -404.5t-294 -313.5t-394.5 -120q-244 0 -407.5 169t-163.5 417zM528 176q0 -94 80 -94q59 0 115.5 96t144.5 391q143 473 144 664q0 94 -80 94q-59 0 -115.5 -96 t-144.5 -391q-144 -474 -144 -664zM834 1483l247 293q78 92 158 92q51 0 83 -36t32 -79q0 -66 -101 -119l-284 -151h-135z" />
<glyph unicode="&#xd4;" horiz-adv-x="1478" d="M86 553q0 229 103.5 432t295 330t424.5 127q174 0 301 -92.5t185.5 -233.5t58.5 -311q0 -211 -108.5 -404.5t-294 -313.5t-394.5 -120q-244 0 -407.5 169t-163.5 417zM528 176q0 -94 80 -94q59 0 115.5 96t144.5 391q143 473 144 664q0 94 -80 94q-59 0 -115.5 -96 t-144.5 -391q-144 -474 -144 -664zM637 1483l311 360h242l164 -360h-135l-189 184l-246 -184h-147z" />
<glyph unicode="&#xd5;" horiz-adv-x="1478" d="M86 553q0 229 103.5 432t295 330t424.5 127q174 0 301 -92.5t185.5 -233.5t58.5 -311q0 -211 -108.5 -404.5t-294 -313.5t-394.5 -120q-244 0 -407.5 169t-163.5 417zM528 176q0 -94 80 -94q59 0 115.5 96t144.5 391q143 473 144 664q0 94 -80 94q-59 0 -115.5 -96 t-144.5 -391q-144 -474 -144 -664zM645 1520q10 109 82 189.5t176 80.5q59 0 158.5 -41t132.5 -41q29 0 57.5 25.5t40.5 60.5h99q-18 -106 -84 -188t-162 -82q-70 0 -174.5 41t-134.5 41q-35 0 -61.5 -26t-31.5 -60h-98z" />
<glyph unicode="&#xd6;" horiz-adv-x="1478" d="M86 553q0 229 103.5 432t295 330t424.5 127q174 0 301 -92.5t185.5 -233.5t58.5 -311q0 -211 -108.5 -404.5t-294 -313.5t-394.5 -120q-244 0 -407.5 169t-163.5 417zM528 176q0 -94 80 -94q59 0 115.5 96t144.5 391q143 473 144 664q0 94 -80 94q-59 0 -115.5 -96 t-144.5 -391q-144 -474 -144 -664zM649 1644.5q0 65.5 45 111.5t112.5 46t113 -46t45.5 -111.5t-45.5 -111.5t-113 -46t-112.5 46t-45 111.5zM1087 1644.5q0 65.5 45.5 111.5t113 46t112.5 -46t45 -111.5t-45 -111.5t-112.5 -46t-113 46t-45.5 111.5z" />
<glyph unicode="&#xd7;" horiz-adv-x="1228" d="M139 197l293 292l-293 293l197 197l293 -293l293 293l196 -197l-293 -293l293 -292l-196 -197l-293 293l-293 -293z" />
<glyph unicode="&#xd8;" horiz-adv-x="1478" d="M-25 -74l234 258q-123 156 -123 369q0 229 103.5 432t295 330t424.5 127q193 0 334 -115l133 148h148l-205 -228q135 -176 135 -442q0 -211 -108.5 -404.5t-294 -313.5t-394.5 -120q-219 0 -372 137l-162 -178h-148zM528 176q0 -94 80 -94q59 0 115.5 96t144.5 391 q37 123 74 258l-4 4l-379 -421q-31 -148 -31 -234zM612 635l4 -4l375 418q20 119 21 184q0 94 -80 94q-59 0 -115.5 -96t-144.5 -391q-31 -103 -60 -205z" />
<glyph unicode="&#xd9;" horiz-adv-x="1402" d="M139 268q0 113 113 509.5t113 443.5q0 49 -31 65.5t-117 20.5l25 102h823l-25 -102q-80 -2 -117.5 -35t-58.5 -109q-168 -596 -207 -745.5t-39 -198.5q0 -68 36 -96.5t116 -28.5q190 0 248 223q53 199 101 374t71.5 257t42 148.5t24 93.5t5.5 47q0 35 -25 51.5t-90 18.5 l24 102h406l-25 -102q-88 -6 -118.5 -29t-49.5 -84l-241 -879q-51 -188 -172 -268t-363 -80q-233 0 -351 82t-118 219zM719 1755q0 47 31.5 80t85.5 33q78 0 143 -90l207 -295h-127l-254 157q-86 52 -86 115z" />
<glyph unicode="&#xda;" horiz-adv-x="1402" d="M139 268q0 113 113 509.5t113 443.5q0 49 -31 65.5t-117 20.5l25 102h823l-25 -102q-80 -2 -117.5 -35t-58.5 -109q-168 -596 -207 -745.5t-39 -198.5q0 -68 36 -96.5t116 -28.5q190 0 248 223q53 199 101 374t71.5 257t42 148.5t24 93.5t5.5 47q0 35 -25 51.5t-90 18.5 l24 102h406l-25 -102q-88 -6 -118.5 -29t-49.5 -84l-241 -879q-51 -188 -172 -268t-363 -80q-233 0 -351 82t-118 219zM817 1483l248 293q78 92 158 92q51 0 82.5 -36t31.5 -79q0 -66 -100 -119l-285 -151h-135z" />
<glyph unicode="&#xdb;" horiz-adv-x="1402" d="M139 268q0 113 113 509.5t113 443.5q0 49 -31 65.5t-117 20.5l25 102h823l-25 -102q-80 -2 -117.5 -35t-58.5 -109q-168 -596 -207 -745.5t-39 -198.5q0 -68 36 -96.5t116 -28.5q190 0 248 223q53 199 101 374t71.5 257t42 148.5t24 93.5t5.5 47q0 35 -25 51.5t-90 18.5 l24 102h406l-25 -102q-88 -6 -118.5 -29t-49.5 -84l-241 -879q-51 -188 -172 -268t-363 -80q-233 0 -351 82t-118 219zM621 1483l311 360h242l163 -360h-135l-188 184l-246 -184h-147z" />
<glyph unicode="&#xdc;" horiz-adv-x="1402" d="M139 268q0 113 113 509.5t113 443.5q0 49 -31 65.5t-117 20.5l25 102h823l-25 -102q-80 -2 -117.5 -35t-58.5 -109q-168 -596 -207 -745.5t-39 -198.5q0 -68 36 -96.5t116 -28.5q190 0 248 223q53 199 101 374t71.5 257t42 148.5t24 93.5t5.5 47q0 35 -25 51.5t-90 18.5 l24 102h406l-25 -102q-88 -6 -118.5 -29t-49.5 -84l-241 -879q-51 -188 -172 -268t-363 -80q-233 0 -351 82t-118 219zM633 1644.5q0 65.5 45 111.5t112.5 46t112.5 -46t45 -111.5t-45 -111.5t-112.5 -46t-112.5 46t-45 111.5zM1071 1644.5q0 65.5 45 111.5t112.5 46 t112.5 -46t45 -111.5t-45 -111.5t-112.5 -46t-112.5 46t-45 111.5z" />
<glyph unicode="&#xdd;" horiz-adv-x="1214" d="M0 0l25 102q94 -4 147 19.5t70 89.5l106 424l-96 557q-10 61 -40 87t-97 28l24 102h783l-25 -102q-86 -4 -123 -25.5t-37 -79.5q0 -45 66 -432l250 379q41 63 41 98q0 59 -119 60l24 102h443l-25 -102q-63 -12 -99 -35t-71 -72l-411 -590q-102 -403 -103 -422 q0 -57 32 -71.5t136 -14.5l-24 -102h-877zM700 1483l248 293q78 92 158 92q51 0 83 -36t32 -79q0 -66 -101 -119l-284 -151h-136z" />
<glyph unicode="&#xde;" horiz-adv-x="1366" d="M-168 0l25 102q168 4 196 97q61 203 170 597t109 441q0 35 -31 50.5t-113 19.5l25 102h831l-24 -102q-115 -4 -160 -42t-78 -163h168q201 0 299.5 -100.5t98.5 -237.5q0 -193 -154 -306.5t-395 -113.5h-217l-7 -22q-25 -111 -24 -127q0 -53 31.5 -72t146.5 -21l-24 -102 h-873zM606 446h45q76 0 134.5 92.5t83 194t24.5 172.5q0 94 -76 94q-35 0 -52 -20.5t-32 -69.5z" />
<glyph unicode="&#xdf;" horiz-adv-x="1366" d="M-20 0l264 983q57 213 222 336t417 123q186 0 298.5 -92.5t112.5 -229.5q0 -86 -34.5 -145.5t-84 -86t-98.5 -40.5t-84 -24.5t-35 -25t52.5 -45t114 -66.5t113.5 -114.5t52 -179.5q0 -166 -132 -292t-331 -126q-137 0 -220 64.5t-83 171.5q0 78 47 134t127 56 q70 0 112 -41t42 -110q0 -49 -35 -101.5t-84 -62.5q14 -20 53 -20q68 0 110 57t42 160q0 72 -28.5 125t-70.5 83.5t-84 56t-71 60.5t-29 80t21.5 74t63.5 63.5t69 73.5q33 49 64.5 171t31.5 185q0 84 -59 84q-43 0 -69.5 -33.5t-55.5 -136.5l-315 -1169h-426z" />
<glyph unicode="&#xe0;" horiz-adv-x="1290" d="M49 352q0 250 144.5 451t353.5 201q172 0 239 -164h5l36 139h398q-35 -121 -67 -235.5t-51.5 -182t-36.5 -130t-26.5 -94.5t-16.5 -58.5t-9 -39t-2 -20.5q0 -39 31 -39q18 0 36.5 16.5t41 57.5t29.5 55.5t32 65.5l71 -25q-76 -180 -174 -277.5t-254 -97.5 q-90 0 -147 48.5t-68 123.5h-4q-59 -72 -108 -108q-84 -63 -176 -64q-277 0 -277 377zM467 268q0 -63 55 -63q43 0 74 51t80 207q70 223 69 295q0 31 -16 50t-39 19q-25 0 -39 -8t-37.5 -51t-52.5 -131q-94 -283 -94 -369zM535 1395q0 47 31.5 79.5t84.5 32.5q78 0 144 -90 l206 -295h-127l-253 158q-86 52 -86 115z" />
<glyph unicode="&#xe1;" horiz-adv-x="1290" d="M49 352q0 250 144.5 451t353.5 201q172 0 239 -164h5l36 139h398q-35 -121 -67 -235.5t-51.5 -182t-36.5 -130t-26.5 -94.5t-16.5 -58.5t-9 -39t-2 -20.5q0 -39 31 -39q18 0 36.5 16.5t41 57.5t29.5 55.5t32 65.5l71 -25q-76 -180 -174 -277.5t-254 -97.5 q-90 0 -147 48.5t-68 123.5h-4q-59 -72 -108 -108q-84 -63 -176 -64q-277 0 -277 377zM467 268q0 -63 55 -63q43 0 74 51t80 207q70 223 69 295q0 31 -16 50t-39 19q-25 0 -39 -8t-37.5 -51t-52.5 -131q-94 -283 -94 -369zM633 1122l248 293q78 92 157 92q51 0 83 -35.5 t32 -78.5q0 -66 -100 -119l-285 -152h-135z" />
<glyph unicode="&#xe2;" horiz-adv-x="1290" d="M49 352q0 250 144.5 451t353.5 201q172 0 239 -164h5l36 139h398q-35 -121 -67 -235.5t-51.5 -182t-36.5 -130t-26.5 -94.5t-16.5 -58.5t-9 -39t-2 -20.5q0 -39 31 -39q18 0 36.5 16.5t41 57.5t29.5 55.5t32 65.5l71 -25q-76 -180 -174 -277.5t-254 -97.5 q-90 0 -147 48.5t-68 123.5h-4q-59 -72 -108 -108q-84 -63 -176 -64q-277 0 -277 377zM436 1122l312 361h241l164 -361h-135l-189 185l-245 -185h-148zM467 268q0 -63 55 -63q43 0 74 51t80 207q70 223 69 295q0 31 -16 50t-39 19q-25 0 -39 -8t-37.5 -51t-52.5 -131 q-94 -283 -94 -369z" />
<glyph unicode="&#xe3;" horiz-adv-x="1290" d="M49 352q0 250 144.5 451t353.5 201q172 0 239 -164h5l36 139h398q-35 -121 -67 -235.5t-51.5 -182t-36.5 -130t-26.5 -94.5t-16.5 -58.5t-9 -39t-2 -20.5q0 -39 31 -39q18 0 36.5 16.5t41 57.5t29.5 55.5t32 65.5l71 -25q-76 -180 -174 -277.5t-254 -97.5 q-90 0 -147 48.5t-68 123.5h-4q-59 -72 -108 -108q-84 -63 -176 -64q-277 0 -277 377zM444 1159q10 109 82 190t176 81q59 0 159 -41t132 -41q29 0 57.5 25.5t41.5 60.5h98q-18 -106 -84 -188.5t-162 -82.5q-70 0 -174 41t-135 41q-35 0 -61.5 -25.5t-30.5 -60.5h-99z M467 268q0 -63 55 -63q43 0 74 51t80 207q70 223 69 295q0 31 -16 50t-39 19q-25 0 -39 -8t-37.5 -51t-52.5 -131q-94 -283 -94 -369z" />
<glyph unicode="&#xe4;" horiz-adv-x="1290" d="M49 352q0 250 144.5 451t353.5 201q172 0 239 -164h5l36 139h398q-35 -121 -67 -235.5t-51.5 -182t-36.5 -130t-26.5 -94.5t-16.5 -58.5t-9 -39t-2 -20.5q0 -39 31 -39q18 0 36.5 16.5t41 57.5t29.5 55.5t32 65.5l71 -25q-76 -180 -174 -277.5t-254 -97.5 q-90 0 -147 48.5t-68 123.5h-4q-59 -72 -108 -108q-84 -63 -176 -64q-277 0 -277 377zM449 1284.5q0 65.5 45 111.5t112.5 46t112.5 -46t45 -111.5t-45 -112t-112.5 -46.5t-112.5 46.5t-45 112zM467 268q0 -63 55 -63q43 0 74 51t80 207q70 223 69 295q0 31 -16 50t-39 19 q-25 0 -39 -8t-37.5 -51t-52.5 -131q-94 -283 -94 -369zM887 1284.5q0 65.5 45 111.5t112.5 46t112.5 -46t45 -111.5t-45 -112t-112.5 -46.5t-112.5 46.5t-45 112z" />
<glyph unicode="&#xe5;" horiz-adv-x="1290" d="M49 352q0 250 144.5 451t353.5 201q172 0 239 -164h5l36 139h398q-35 -121 -67 -235.5t-51.5 -182t-36.5 -130t-26.5 -94.5t-16.5 -58.5t-9 -39t-2 -20.5q0 -39 31 -39q18 0 36.5 16.5t41 57.5t29.5 55.5t32 65.5l71 -25q-76 -180 -174 -277.5t-254 -97.5 q-90 0 -147 48.5t-68 123.5h-4q-59 -72 -108 -108q-84 -63 -176 -64q-277 0 -277 377zM467 268q0 -63 55 -63q43 0 74 51t80 207q70 223 69 295q0 31 -16 50t-39 19q-25 0 -39 -8t-37.5 -51t-52.5 -131q-94 -283 -94 -369zM625 1319q0 94 66.5 161.5t162.5 67.5t162.5 -67.5 t66.5 -161.5t-66.5 -161.5t-162.5 -67.5t-162.5 67.5t-66.5 161.5zM748 1319q0 -43 31.5 -75t74.5 -32t75 32t32 75t-32 74.5t-75 31.5t-74.5 -31.5t-31.5 -74.5z" />
<glyph unicode="&#xe6;" horiz-adv-x="1669" d="M20 352q0 250 144.5 451t353.5 201q180 0 248 -164h4l37 139h229l-37 -123l5 -4q141 152 323 152q135 0 230.5 -77t95.5 -179q0 -160 -160 -246t-440 -96q-23 -68 -23 -154q0 -154 139 -154q102 0 197.5 82t142.5 193l78 -25q-66 -176 -212 -274.5t-343 -98.5 q-274 0 -383 179q-104 -98 -176 -138.5t-158 -40.5q-139 0 -217 93.5t-78 283.5zM434 219q0 -29 16.5 -46t43.5 -17q45 0 73.5 52t79.5 226q70 240 70 320q0 74 -55 73q-45 0 -70 -45t-74 -204q-84 -265 -84 -359zM1075 496q92 0 183.5 133t91.5 225q0 59 -50 59 q-33 0 -61.5 -29.5t-67.5 -117.5q-69 -161 -96 -270z" />
<glyph unicode="&#xe7;" horiz-adv-x="1062" d="M29 401q0 258 197.5 430.5t453.5 172.5q164 0 258 -75t94 -188q0 -88 -48 -148.5t-134 -60.5q-72 0 -121 45.5t-49 118.5q0 125 135 185q-16 33 -69.5 32.5t-92.5 -59.5t-84 -199q-86 -264 -86 -401q0 -143 111 -143q94 0 155.5 67.5t118.5 194.5l90 -25 q-76 -190 -192.5 -282.5t-310.5 -90.5h-17l-94 -118l4 -4q37 12 76 12q84 0 137 -44t53 -110q0 -82 -77.5 -134t-200.5 -52t-246 61l41 70q90 -41 150 -41q53 0 84.5 24.5t31.5 63.5q0 27 -24.5 49.5t-61.5 22.5q-31 0 -69 -17l-37 37l143 191q-147 29 -233 136t-86 279z " />
<glyph unicode="&#xe8;" horiz-adv-x="1138" d="M20 401q0 244 216.5 423.5t515.5 179.5q184 0 277 -74t93 -182q0 -160 -159.5 -246t-440.5 -96q-23 -68 -22 -154q0 -154 139 -154q102 0 197.5 82t142.5 193l78 -25q-66 -176 -214.5 -274.5t-353.5 -98.5q-201 0 -335 120t-134 306zM518 1395q0 47 32 79.5t85 32.5 q78 0 143 -90l207 -295h-127l-254 158q-86 52 -86 115zM545 496q92 0 183 133t91 225q0 59 -49 59q-33 0 -61.5 -29.5t-67.5 -117.5q-69 -161 -96 -270z" />
<glyph unicode="&#xe9;" horiz-adv-x="1138" d="M20 401q0 244 216.5 423.5t515.5 179.5q184 0 277 -74t93 -182q0 -160 -159.5 -246t-440.5 -96q-23 -68 -22 -154q0 -154 139 -154q102 0 197.5 82t142.5 193l78 -25q-66 -176 -214.5 -274.5t-353.5 -98.5q-201 0 -335 120t-134 306zM545 496q92 0 183 133t91 225 q0 59 -49 59q-33 0 -61.5 -29.5t-67.5 -117.5q-69 -161 -96 -270zM616 1122l248 293q78 92 158 92q51 0 83 -35.5t32 -78.5q0 -66 -101 -119l-284 -152h-136z" />
<glyph unicode="&#xea;" horiz-adv-x="1138" d="M20 401q0 244 216.5 423.5t515.5 179.5q184 0 277 -74t93 -182q0 -160 -159.5 -246t-440.5 -96q-23 -68 -22 -154q0 -154 139 -154q102 0 197.5 82t142.5 193l78 -25q-66 -176 -214.5 -274.5t-353.5 -98.5q-201 0 -335 120t-134 306zM420 1122l311 361h242l164 -361h-136 l-188 185l-246 -185h-147zM545 496q92 0 183 133t91 225q0 59 -49 59q-33 0 -61.5 -29.5t-67.5 -117.5q-69 -161 -96 -270z" />
<glyph unicode="&#xeb;" horiz-adv-x="1138" d="M20 401q0 244 216.5 423.5t515.5 179.5q184 0 277 -74t93 -182q0 -160 -159.5 -246t-440.5 -96q-23 -68 -22 -154q0 -154 139 -154q102 0 197.5 82t142.5 193l78 -25q-66 -176 -214.5 -274.5t-353.5 -98.5q-201 0 -335 120t-134 306zM432 1284.5q0 65.5 45 111.5 t112.5 46t113 -46t45.5 -111.5t-45.5 -112t-113 -46.5t-112.5 46.5t-45 112zM545 496q92 0 183 133t91 225q0 59 -49 59q-33 0 -61.5 -29.5t-67.5 -117.5q-69 -161 -96 -270zM870 1284.5q0 65.5 45.5 111.5t113 46t112.5 -46t45 -111.5t-45 -112t-112.5 -46.5t-113 46.5 t-45.5 112z" />
<glyph unicode="&#xec;" horiz-adv-x="757" d="M53 209q0 80 76 319.5t76 278.5q0 43 -24.5 56.5t-102.5 13.5l33 90l606 12l-215 -688q-23 -72 -23 -86q0 -33 31 -33q29 0 68.5 51t76.5 137l82 -24q-80 -178 -181 -269.5t-269 -91.5q-109 0 -171.5 64t-62.5 170zM268 1395q0 47 32 79.5t85 32.5q78 0 143 -90l207 -295 h-127l-254 158q-86 52 -86 115z" />
<glyph unicode="&#xed;" horiz-adv-x="757" d="M53 209q0 80 76 319.5t76 278.5q0 43 -24.5 56.5t-102.5 13.5l33 90l606 12l-215 -688q-23 -72 -23 -86q0 -33 31 -33q29 0 68.5 51t76.5 137l82 -24q-80 -178 -181 -269.5t-269 -91.5q-109 0 -171.5 64t-62.5 170zM367 1122l247 293q78 92 158 92q51 0 83 -35.5 t32 -78.5q0 -66 -101 -119l-284 -152h-135z" />
<glyph unicode="&#xee;" horiz-adv-x="757" d="M53 209q0 80 76 319.5t76 278.5q0 43 -24.5 56.5t-102.5 13.5l33 90l606 12l-215 -688q-23 -72 -23 -86q0 -33 31 -33q29 0 68.5 51t76.5 137l82 -24q-80 -178 -181 -269.5t-269 -91.5q-109 0 -171.5 64t-62.5 170zM170 1122l311 361h242l164 -361h-135l-189 185 l-246 -185h-147z" />
<glyph unicode="&#xef;" horiz-adv-x="757" d="M53 209q0 80 76 319.5t76 278.5q0 43 -24.5 56.5t-102.5 13.5l33 90l606 12l-215 -688q-23 -72 -23 -86q0 -33 31 -33q29 0 68.5 51t76.5 137l82 -24q-80 -178 -181 -269.5t-269 -91.5q-109 0 -171.5 64t-62.5 170zM182 1284.5q0 65.5 45 111.5t113 46t113 -46t45 -111.5 t-45 -112t-113 -46.5t-113 46.5t-45 112zM621 1284.5q0 65.5 45 111.5t112.5 46t112.5 -46t45 -111.5t-45 -112t-112.5 -46.5t-112.5 46.5t-45 112z" />
<glyph unicode="&#xf0;" d="M20 365q0 229 195 382.5t440 153.5q74 0 119 -16q6 164 -57 289l-164 -125l-57 65l174 133q-66 90 -174 154l94 94q139 -55 241 -123l177 135l57 -65l-160 -123q287 -225 287 -655q0 -168 -56.5 -303.5t-151.5 -217.5t-213 -125t-247 -43q-213 0 -358.5 104t-145.5 286z M446 117q0 -51 54 -51q37 0 64.5 51t84.5 217q104 301 105 426q0 51 -54 51q-37 0 -64.5 -51t-84.5 -217q-105 -301 -105 -426z" />
<glyph unicode="&#xf1;" horiz-adv-x="1327" d="M-29 0q215 748 219 788q2 10 3 19q0 43 -25 56.5t-102 13.5l32 90l570 12l-45 -164l4 -4q68 63 111.5 98t112.5 65t142 30q100 0 155.5 -61.5t55.5 -156.5q0 -92 -69.5 -327.5t-69.5 -249.5q0 -29 22 -29q29 0 67 52.5t73 136.5l69 -29q-51 -152 -169.5 -258.5 t-274.5 -106.5q-102 0 -157.5 52.5t-55.5 138.5q0 74 69.5 309.5t69.5 253.5q0 45 -41 45q-43 0 -97 -44t-75 -122l-168 -608h-426zM438 1159q10 109 82 190t176 81q59 0 158.5 -41t132.5 -41q29 0 57.5 25.5t40.5 60.5h99q-18 -106 -84 -188.5t-162 -82.5q-70 0 -174.5 41 t-134.5 41q-35 0 -61.5 -25.5t-30.5 -60.5h-99z" />
<glyph unicode="&#xf2;" d="M20 408q0 258 198 427t458 169q213 0 358.5 -115t145.5 -318q0 -258 -198 -427t-458 -169q-213 0 -358.5 115t-145.5 318zM446 125q0 -59 54 -59q37 0 64.5 58t84.5 247q104 344 105 483q0 59 -54 59q-37 0 -64.5 -58t-84.5 -247q-105 -344 -105 -483zM489 1395 q0 47 32 79.5t85 32.5q78 0 144 -90l206 -295h-127l-254 158q-86 52 -86 115z" />
<glyph unicode="&#xf3;" d="M20 408q0 258 198 427t458 169q213 0 358.5 -115t145.5 -318q0 -258 -198 -427t-458 -169q-213 0 -358.5 115t-145.5 318zM446 125q0 -59 54 -59q37 0 64.5 58t84.5 247q104 344 105 483q0 59 -54 59q-37 0 -64.5 -58t-84.5 -247q-105 -344 -105 -483zM588 1122l248 293 q78 92 157 92q51 0 83 -35.5t32 -78.5q0 -66 -100 -119l-285 -152h-135z" />
<glyph unicode="&#xf4;" d="M20 408q0 258 198 427t458 169q213 0 358.5 -115t145.5 -318q0 -258 -198 -427t-458 -169q-213 0 -358.5 115t-145.5 318zM391 1122l311 361h242l164 -361h-135l-189 185l-245 -185h-148zM446 125q0 -59 54 -59q37 0 64.5 58t84.5 247q104 344 105 483q0 59 -54 59 q-37 0 -64.5 -58t-84.5 -247q-105 -344 -105 -483z" />
<glyph unicode="&#xf5;" d="M20 408q0 258 198 427t458 169q213 0 358.5 -115t145.5 -318q0 -258 -198 -427t-458 -169q-213 0 -358.5 115t-145.5 318zM399 1159q10 109 82 190t176 81q59 0 158.5 -41t132.5 -41q29 0 57.5 25.5t41.5 60.5h98q-18 -106 -84 -188.5t-162 -82.5q-70 0 -174 41t-135 41 q-35 0 -61.5 -25.5t-30.5 -60.5h-99zM446 125q0 -59 54 -59q37 0 64.5 58t84.5 247q104 344 105 483q0 59 -54 59q-37 0 -64.5 -58t-84.5 -247q-105 -344 -105 -483z" />
<glyph unicode="&#xf6;" d="M20 408q0 258 198 427t458 169q213 0 358.5 -115t145.5 -318q0 -258 -198 -427t-458 -169q-213 0 -358.5 115t-145.5 318zM403 1284.5q0 65.5 45.5 111.5t113 46t112.5 -46t45 -111.5t-45 -112t-112.5 -46.5t-113 46.5t-45.5 112zM446 125q0 -59 54 -59q37 0 64.5 58 t84.5 247q104 344 105 483q0 59 -54 59q-37 0 -64.5 -58t-84.5 -247q-105 -344 -105 -483zM842 1284.5q0 65.5 45 111.5t112.5 46t112.5 -46t45 -111.5t-45 -112t-112.5 -46.5t-112.5 46.5t-45 112z" />
<glyph unicode="&#xf7;" horiz-adv-x="1228" d="M139 350v279h979v-279h-979zM440 67.5q0 77.5 55.5 133t133.5 55.5t133 -55.5t55 -133t-55 -133t-133 -55.5t-133.5 55.5t-55.5 133zM440 911.5q0 77.5 55.5 133t133.5 55.5t133 -55.5t55 -133t-55 -133t-133 -55.5t-133.5 55.5t-55.5 133z" />
<glyph unicode="&#xf8;" d="M-37 -115l197 213q-139 117 -140 310q0 258 198 427t458 169q152 0 264 -58l137 148h148l-191 -205q145 -119 146 -318q0 -258 -198 -427t-458 -169q-158 0 -272 64l-141 -154h-148zM446 125q0 -59 54 -59q37 0 64.5 58t84.5 247q14 45 37 135l-4 4l-215 -238 q-21 -106 -21 -147zM520 494l4 -5l213 236q16 92 17 129q0 59 -54 59q-37 0 -64.5 -58t-84.5 -247q-19 -55 -31 -114z" />
<glyph unicode="&#xf9;" horiz-adv-x="1327" d="M49 193q0 106 74 348.5t74 265.5q0 43 -25 56.5t-102 13.5l32 90l578 12l-164 -557q-25 -88 -24 -117q0 -59 61 -59q47 0 75.5 32.5t53.5 122.5l166 578h426q-49 -182 -107.5 -376.5t-84 -284t-25.5 -111.5q0 -27 28 -27q25 0 60 44t55.5 84t36.5 77l74 -29 q-147 -381 -420 -381q-238 0 -248 242q-53 -68 -98 -113t-123 -87t-156 -42q-217 1 -217 218zM553 1395q0 47 31.5 79.5t85.5 32.5q78 0 143 -90l207 -295h-127l-254 158q-86 52 -86 115z" />
<glyph unicode="&#xfa;" horiz-adv-x="1327" d="M49 193q0 106 74 348.5t74 265.5q0 43 -25 56.5t-102 13.5l32 90l578 12l-164 -557q-25 -88 -24 -117q0 -59 61 -59q47 0 75.5 32.5t53.5 122.5l166 578h426q-49 -182 -107.5 -376.5t-84 -284t-25.5 -111.5q0 -27 28 -27q25 0 60 44t55.5 84t36.5 77l74 -29 q-147 -381 -420 -381q-238 0 -248 242q-53 -68 -98 -113t-123 -87t-156 -42q-217 1 -217 218zM651 1122l248 293q78 92 158 92q51 0 82.5 -35.5t31.5 -78.5q0 -66 -100 -119l-285 -152h-135z" />
<glyph unicode="&#xfb;" horiz-adv-x="1327" d="M49 193q0 106 74 348.5t74 265.5q0 43 -25 56.5t-102 13.5l32 90l578 12l-164 -557q-25 -88 -24 -117q0 -59 61 -59q47 0 75.5 32.5t53.5 122.5l166 578h426q-49 -182 -107.5 -376.5t-84 -284t-25.5 -111.5q0 -27 28 -27q25 0 60 44t55.5 84t36.5 77l74 -29 q-147 -381 -420 -381q-238 0 -248 242q-53 -68 -98 -113t-123 -87t-156 -42q-217 1 -217 218zM455 1122l311 361h242l163 -361h-135l-188 185l-246 -185h-147z" />
<glyph unicode="&#xfc;" horiz-adv-x="1327" d="M49 193q0 106 74 348.5t74 265.5q0 43 -25 56.5t-102 13.5l32 90l578 12l-164 -557q-25 -88 -24 -117q0 -59 61 -59q47 0 75.5 32.5t53.5 122.5l166 578h426q-49 -182 -107.5 -376.5t-84 -284t-25.5 -111.5q0 -27 28 -27q25 0 60 44t55.5 84t36.5 77l74 -29 q-147 -381 -420 -381q-238 0 -248 242q-53 -68 -98 -113t-123 -87t-156 -42q-217 1 -217 218zM467 1284.5q0 65.5 45 111.5t112.5 46t112.5 -46t45 -111.5t-45 -112t-112.5 -46.5t-112.5 46.5t-45 112zM905 1284.5q0 65.5 45 111.5t112.5 46t113 -46t45.5 -111.5t-45.5 -112 t-113 -46.5t-112.5 46.5t-45 112z" />
<glyph unicode="&#xfd;" d="M-49 -215q0 80 50 129t134 49q78 0 123 -41t45 -117q0 -92 -98 -133q37 -12 92 -12q193 0 235 168l91 336l-5 4q-168 -168 -346 -168q-98 0 -156.5 55.5t-58.5 153.5q0 109 77 342t77 256q0 43 -24.5 56.5t-102.5 13.5l33 90l547 12q-193 -711 -193 -725q0 -49 49 -49 q109 0 152 155l168 619h413l-252 -932q-63 -231 -264.5 -354t-453.5 -123q-156 0 -244 62.5t-88 152.5zM588 1122l248 293q78 92 157 92q51 0 83 -35.5t32 -78.5q0 -66 -100 -119l-285 -152h-135z" />
<glyph unicode="&#xfe;" d="M-274 -430l24 90q94 2 138 30.5t63 96.5l344 1262q41 152 41 188q0 41 -28.5 55.5t-106.5 14.5l32 90l562 12l-142 -512l4 -4q51 39 80 57.5t80 36t111 17.5q139 0 207.5 -97.5t68.5 -257.5q0 -256 -158.5 -465t-379.5 -209q-129 0 -232 84q-86 -313 -86 -338 q0 -39 34 -50t150 -11l-24 -90h-782zM467 170q0 -25 18.5 -42t49.5 -17q66 0 103.5 69.5t98.5 304.5q53 201 54 263q0 76 -72 75q-88 0 -121 -127q-31 -123 -56.5 -223t-39 -146t-22.5 -81t-11 -48.5t-2 -27.5z" />
<glyph unicode="&#xff;" d="M-49 -215q0 80 50 129t134 49q78 0 123 -41t45 -117q0 -92 -98 -133q37 -12 92 -12q193 0 235 168l91 336l-5 4q-168 -168 -346 -168q-98 0 -156.5 55.5t-58.5 153.5q0 109 77 342t77 256q0 43 -24.5 56.5t-102.5 13.5l33 90l547 12q-193 -711 -193 -725q0 -49 49 -49 q109 0 152 155l168 619h413l-252 -932q-63 -231 -264.5 -354t-453.5 -123q-156 0 -244 62.5t-88 152.5zM403 1284.5q0 65.5 45.5 111.5t113 46t112.5 -46t45 -111.5t-45 -112t-112.5 -46.5t-113 46.5t-45.5 112zM842 1284.5q0 65.5 45 111.5t112.5 46t112.5 -46t45 -111.5 t-45 -112t-112.5 -46.5t-112.5 46.5t-45 112z" />
<glyph unicode="&#x152;" horiz-adv-x="2009" d="M86 565q0 182 71.5 347t187.5 278t261.5 178.5t290.5 65.5q31 0 129 -12.5t191 -12.5h872l-123 -508h-102q0 207 -43 306.5t-144 99.5q-66 0 -95.5 -28t-47.5 -93l-104 -379h43q57 0 102 43t90 170h102l-153 -565h-103v106q0 123 -73 123h-45q-29 -111 -54.5 -205 t-38 -138t-22.5 -79t-13 -51t-3 -35q0 -61 86 -61q152 0 276.5 146.5t181.5 316.5h103l-156 -578h-819q-74 0 -172 -16q-49 -8 -135 -9q-221 0 -381 161t-160 429zM528 184q0 -94 76 -94q63 0 117.5 103.5t124.5 347.5q154 549 153 659q0 119 -73 119q-61 0 -109.5 -94.5 t-138.5 -390.5q-150 -496 -150 -650z" />
<glyph unicode="&#x153;" horiz-adv-x="1781" d="M41 408q0 258 197.5 427t457.5 169q186 0 316 -86q176 86 370 86q184 0 277.5 -74t93.5 -182q0 -160 -159.5 -246t-440.5 -96q-23 -68 -23 -154q0 -154 140 -154q102 0 197.5 82t142.5 193l78 -25q-66 -176 -214.5 -274.5t-353.5 -98.5q-152 0 -268 74q-139 -74 -307 -74 q-213 0 -358.5 115t-145.5 318zM467 125q0 -59 53 -59q37 0 64.5 58t85.5 247q104 344 104 483q0 59 -53 59q-37 0 -64.5 -58t-85.5 -247q-104 -344 -104 -483zM1176 496q92 0 183 133t91 225q0 59 -49 59q-33 0 -61.5 -29.5t-67.5 -117.5q-69 -161 -96 -270z" />
<glyph unicode="&#x178;" horiz-adv-x="1214" d="M0 0l25 102q94 -4 147 19.5t70 89.5l106 424l-96 557q-10 61 -40 87t-97 28l24 102h783l-25 -102q-86 -4 -123 -25.5t-37 -79.5q0 -45 66 -432l250 379q41 63 41 98q0 59 -119 60l24 102h443l-25 -102q-63 -12 -99 -35t-71 -72l-411 -590q-102 -403 -103 -422 q0 -57 32 -71.5t136 -14.5l-24 -102h-877zM455 1644.5q0 65.5 45 111.5t112.5 46t112.5 -46t45 -111.5t-45 -111.5t-112.5 -46t-112.5 46t-45 111.5zM893 1644.5q0 65.5 45 111.5t112.5 46t112.5 -46t45 -111.5t-45 -111.5t-112.5 -46t-112.5 46t-45 111.5z" />
<glyph unicode="&#x2c6;" horiz-adv-x="681" d="M106 1122l312 361h241l164 -361h-135l-188 185l-246 -185h-148z" />
<glyph unicode="&#x2dc;" horiz-adv-x="681" d="M115 1159q10 109 81.5 190t176.5 81q59 0 158.5 -41t132.5 -41q29 0 57.5 25.5t40.5 60.5h98q-18 -106 -83.5 -188.5t-162.5 -82.5q-70 0 -174 41t-135 41q-35 0 -61.5 -25.5t-30.5 -60.5h-98z" />
<glyph unicode="&#x2000;" horiz-adv-x="954" />
<glyph unicode="&#x2001;" horiz-adv-x="1908" />
<glyph unicode="&#x2002;" horiz-adv-x="954" />
<glyph unicode="&#x2003;" horiz-adv-x="1908" />
<glyph unicode="&#x2004;" horiz-adv-x="634" />
<glyph unicode="&#x2005;" horiz-adv-x="477" />
<glyph unicode="&#x2006;" horiz-adv-x="317" />
<glyph unicode="&#x2007;" horiz-adv-x="317" />
<glyph unicode="&#x2008;" horiz-adv-x="237" />
<glyph unicode="&#x2009;" horiz-adv-x="380" />
<glyph unicode="&#x200a;" horiz-adv-x="104" />
<glyph unicode="&#x2010;" horiz-adv-x="454" d="M12 360l66 258h336l-66 -258h-336z" />
<glyph unicode="&#x2011;" horiz-adv-x="454" d="M12 360l66 258h336l-66 -258h-336z" />
<glyph unicode="&#x2012;" horiz-adv-x="454" d="M12 360l66 258h336l-66 -258h-336z" />
<glyph unicode="&#x2013;" horiz-adv-x="1024" d="M-41 391l66 197h1024l-66 -197h-1024z" />
<glyph unicode="&#x2014;" horiz-adv-x="2048" d="M-41 391l66 197h2048l-66 -197h-2048z" />
<glyph unicode="&#x2018;" horiz-adv-x="530" d="M127 899q0 141 122 289.5t320 273.5l66 -90q-168 -106 -258 -229q152 -39 151 -205q0 -106 -66.5 -184t-152.5 -78q-82 0 -132 59.5t-50 163.5z" />
<glyph unicode="&#x2019;" horiz-adv-x="530" d="M147 745q168 106 259 230q-152 39 -152 205q0 119 66.5 190.5t158.5 71.5q72 0 124 -60.5t52 -162.5q0 -141 -121.5 -290t-320.5 -274z" />
<glyph unicode="&#x201a;" horiz-adv-x="530" d="M-184 -319q168 106 258 229q-152 39 -152 205q0 119 66.5 190.5t158.5 71.5q72 0 124.5 -60.5t52.5 -162.5q0 -141 -122 -290t-321 -274z" />
<glyph unicode="&#x201c;" horiz-adv-x="1062" d="M127 899q0 141 122 289.5t320 273.5l66 -90q-168 -106 -258 -229q152 -39 151 -205q0 -119 -66.5 -190.5t-158.5 -71.5q-72 0 -124 60.5t-52 162.5zM657 899q0 141 122 289.5t321 273.5l65 -90q-168 -106 -258 -229q152 -39 152 -205q0 -119 -66.5 -190.5t-158.5 -71.5 q-72 0 -124.5 60.5t-52.5 162.5z" />
<glyph unicode="&#x201d;" horiz-adv-x="1062" d="M150 745q168 106 258 230q-152 39 -152 205q0 119 66.5 190.5t158.5 71.5q72 0 124 -60.5t52 -162.5q0 -141 -121.5 -290t-320.5 -274zM680 745q168 106 258 230q-152 39 -152 205q0 119 67 190.5t159 71.5q72 0 124 -60.5t52 -162.5q0 -141 -122 -290t-321 -274z" />
<glyph unicode="&#x201e;" horiz-adv-x="1062" d="M-182 -319q168 106 258 229q-152 39 -152 205q0 119 66.5 190.5t159.5 71.5q72 0 124 -60.5t52 -162.5q0 -141 -122 -290t-321 -274zM348 -319q168 106 258 229q-152 39 -151 205q0 119 66.5 190.5t158.5 71.5q72 0 124 -60.5t52 -162.5q0 -141 -122 -290t-320 -274z" />
<glyph unicode="&#x2022;" horiz-adv-x="1024" d="M176 704.5q0 145.5 103.5 249t249 103.5t249 -103.5t103.5 -249t-103.5 -249t-249 -103.5t-249 103.5t-103.5 249z" />
<glyph unicode="&#x2026;" horiz-adv-x="2048" d="M66 180q0 123 62 194.5t144 71.5q182 0 183 -213q0 -123 -62.5 -194.5t-144.5 -71.5q-182 0 -182 213zM748 180q0 123 62 194.5t144 71.5q182 0 183 -213q0 -123 -62.5 -194.5t-144.5 -71.5q-182 0 -182 213zM1430 180q0 123 62 194.5t144 71.5q182 0 183 -213 q0 -123 -62.5 -194.5t-144.5 -71.5q-182 0 -182 213z" />
<glyph unicode="&#x202f;" horiz-adv-x="380" />
<glyph unicode="&#x2039;" horiz-adv-x="681" d="M53 471v25q135 88 262 190t187.5 150.5t81.5 48.5q35 0 34 -37q0 -57 -311 -377q160 -217 160 -336q0 -41 -31 -41q-14 0 -71.5 61.5t-147.5 159t-164 156.5z" />
<glyph unicode="&#x203a;" horiz-adv-x="681" d="M61 131q0 57 312 377q-160 217 -160 336q0 41 31 41q14 0 71.5 -61.5t147.5 -159t164 -156.5v-25q-135 -88 -262 -190.5t-187.5 -150.5t-81.5 -48q-35 0 -35 37z" />
<glyph unicode="&#x205f;" horiz-adv-x="477" />
<glyph unicode="&#x20ac;" horiz-adv-x="1138" d="M66 561l49 115h114q12 66 31 131h-160l50 115h149q90 229 245.5 374.5t336.5 145.5q63 0 114.5 -23.5t81 -47t39.5 -23.5q35 0 60 61h94l-113 -455h-94q6 90 6 150q0 88 -35 151.5t-88 63.5q-63 0 -114.5 -85t-122.5 -312h282l-49 -115h-268q-4 -16 -16.5 -61.5 t-18.5 -69.5h250l-49 -115h-226q-41 -199 -41 -291q0 -168 109 -168q74 0 145.5 111t118.5 254h115q-76 -274 -188.5 -387t-301.5 -113q-172 0 -266 135.5t-94 368.5q0 29 4 90h-149z" />
<glyph unicode="&#x2122;" horiz-adv-x="2048" d="M53 1229v180h770v-180h-69q-25 123 -125 123h-68v-619q0 -49 17.5 -64.5t85.5 -17.5v-57h-451v57q68 2 85 17.5t17 64.5v619h-67q-100 0 -125 -123h-70zM885 1352v57h348l246 -504l258 504h323v-57q-68 -2 -85 -17.5t-17 -64.5v-537q0 -49 17.5 -64.5t84.5 -17.5v-57 h-467v57q68 2 85.5 17.5t17.5 64.5v418h-4l-283 -553h-31l-260 553h-4v-348q0 -92 15.5 -120t87.5 -32v-57h-287v57q72 4 87 32t15 120v438q0 8 -15.5 31.5t-51 50.5t-80.5 29z" />
<glyph unicode="&#xe000;" horiz-adv-x="1004" d="M0 1005h1005v-1005h-1005v1005z" />
<glyph unicode="&#xfb01;" horiz-adv-x="1593" d="M4 0l238 877h-148l25 102h149q131 463 551 463q129 0 203 -56.5t74 -158.5q0 -78 -43 -126t-121 -48q-59 0 -95 35.5t-36 95.5q0 37 17.5 66.5t34.5 45t17 17.5q0 14 -39 14q-49 0 -85.5 -48t-36.5 -112q0 -14 8 -65t8 -61.5t-10 -61.5h841q-238 -772 -237 -778 q0 -29 35 -29q27 0 65.5 52t75.5 136l82 -24q-78 -176 -182.5 -268.5t-272.5 -92.5q-96 0 -162.5 62.5t-66.5 171.5q0 84 75.5 341t75.5 277q0 49 -53 50h-295l-225 -877h-467zM1151 1225q0 100 74.5 158.5t177.5 58.5q88 0 145.5 -48t57.5 -134q0 -100 -76 -162t-176 -62 q-92 0 -147.5 49.5t-55.5 139.5z" />
<glyph unicode="&#xfb02;" horiz-adv-x="1593" d="M4 0l238 877h-148l25 102h149q57 223 203.5 343t376.5 120q129 0 242.5 -22.5t146.5 -22.5q90 0 228.5 6t176.5 6q-145 -510 -282 -973q-70 -236 -70 -258q0 -31 33 -31q35 0 78 58.5t78 163.5l82 -25q-127 -369 -410 -369q-127 0 -200.5 70t-73.5 193q0 111 157 639 h-338l-225 -877h-467zM721 979h344q61 209 61 258q0 90 -176 90q-94 0 -161.5 -48t-67.5 -140q0 -16 2 -48t2 -47q0 -47 -4 -65z" />
<glyph unicode="&#xfb03;" horiz-adv-x="2502" d="M1798 209q0 80 76 319.5t76 278.5q0 43 -24.5 56.5t-102.5 13.5l33 90l606 12l-215 -688q-23 -72 -23 -86q0 -33 31 -33q29 0 68.5 51t76.5 137l82 -24q-80 -178 -181 -269.5t-269 -91.5q-109 0 -171.5 64t-62.5 170zM2060 1225q0 100 75 158.5t177 58.5q88 0 145.5 -48 t57.5 -134q0 -100 -76 -162t-176 -62q-92 0 -147.5 49.5t-55.5 139.5zM876 0l238 877h-172l24 102h174q49 217 210 340t386 123q127 0 213 -66.5t86 -185.5q0 -82 -42 -134t-120 -52q-68 0 -104.5 40.5t-36.5 104.5q0 133 117 154l2 4q-33 20 -64 20q-70 0 -110.5 -74.5 t-83.5 -273.5h188l-24 -102h-189l-225 -877h-467zM4 0l238 877h-172l24 102h174q49 217 210 340t386 123q127 0 213 -66.5t86 -185.5q0 -82 -42 -134t-120 -52q-68 0 -104.5 40.5t-36.5 104.5q0 133 117 154l2 4q-33 20 -64 20q-70 0 -110.5 -74.5t-83.5 -273.5h188 l-24 -102h-189l-225 -877h-467z" />
<glyph unicode="&#xfb04;" horiz-adv-x="2502" d="M1786 238q0 111 125 528.5t125 470.5q0 43 -24.5 56.5t-102.5 13.5l33 90l610 12q-145 -510 -283 -973q-70 -236 -69 -258q0 -31 32 -31q35 0 78 58.5t78 163.5l82 -25q-127 -369 -410 -369q-127 0 -200.5 70t-73.5 193zM876 0l238 877h-172l24 102h174q49 217 210 340 t386 123q127 0 213 -66.5t86 -185.5q0 -82 -42 -134t-120 -52q-68 0 -104.5 40.5t-36.5 104.5q0 133 117 154l2 4q-33 20 -64 20q-70 0 -110.5 -74.5t-83.5 -273.5h188l-24 -102h-189l-225 -877h-467zM4 0l238 877h-172l24 102h174q49 217 210 340t386 123q127 0 213 -66.5 t86 -185.5q0 -82 -42 -134t-120 -52q-68 0 -104.5 40.5t-36.5 104.5q0 133 117 154l2 4q-33 20 -64 20q-70 0 -110.5 -74.5t-83.5 -273.5h188l-24 -102h-189l-225 -877h-467z" />
</font>
</defs>
</svg>
