<?xml version="1.0" standalone="no"?>
<!DOCTYPE svg PUBLIC "-//W3C//DTD SVG 1.1//EN" "http://www.w3.org/Graphics/SVG/1.1/DTD/svg11.dtd" >
<svg xmlns="http://www.w3.org/2000/svg">
<metadata>
This is a custom SVG webfont generated by Font Squirrel.
Copyright   : Copyright  1992 2002 Adobe Systems Incorporated  All Rights Reserved  Copyright 1992 2002 The Monotype Corporation plc All Rights Reserved
Designer    : Unknown
Foundry URL : httpwwwadobecomtype
</metadata>
<defs>
<font id="GrotesqueMTStdBold" horiz-adv-x="1323" >
<font-face units-per-em="2048" ascent="1477" descent="-571" />
<missing-glyph horiz-adv-x="491" />
<glyph unicode=" "  horiz-adv-x="491" />
<glyph unicode="&#x09;" horiz-adv-x="491" />
<glyph unicode="&#xa0;" horiz-adv-x="491" />
<glyph unicode="!" horiz-adv-x="661" d="M182 0v307h297v-307h-297zM182 1477h291l-35 -1008h-213z" />
<glyph unicode="&#x22;" horiz-adv-x="1087" d="M145 1182v295h297v-295l-61 -324h-174zM645 1182v295h297v-295l-61 -324h-174z" />
<glyph unicode="#" horiz-adv-x="1368" d="M78 336v188h209l63 303h-272v191h309l84 383h188l-84 -383h355l82 383h190l-82 -383h168v-191h-205l-63 -303h268v-188h-303l-84 -379h-188l82 379h-359l-78 -379h-190l80 379h-170zM477 526h354l64 301h-356z" />
<glyph unicode="$" horiz-adv-x="1216" d="M88 393h248q20 -190 186 -223v438q-82 31 -136 57.5t-114.5 74.5t-91 119t-30.5 163q0 43 15 93t52 110.5t116 107.5t189 62v100h201v-96q104 -20 180 -57t116 -74t64.5 -90.5t31.5 -89t13 -89.5h-245q-16 102 -48 146.5t-112 71.5v-390l53 -22q70 -29 116 -54.5 t107.5 -75.5t94 -124t32.5 -170q0 -164 -110.5 -275.5t-292.5 -132.5v-211h-201v209q-215 29 -319 133q-109 105 -115 289zM375 1059q0 -55 32.5 -91t114.5 -69v320q-147 -29 -147 -160zM723 162q82 14 128 63t46 125q0 63 -40 106.5t-134 80.5v-375z" />
<glyph unicode="%" horiz-adv-x="1748" d="M121 1122q0 174 86 281.5t225 107.5q143 0 229.5 -106.5t86.5 -282.5t-87.5 -283.5t-228.5 -107.5q-139 0 -225 107.5t-86 283.5zM369 1057q0 -94 26 -131q20 -20 43 -20.5t36 12t18.5 35t6.5 56t-1 76.5v119q0 66 -11.5 97.5t-52.5 31.5q-47 0 -56 -50t-9 -226zM434 -80 l699 1593h184l-696 -1593h-187zM1006 305q0 180 86 288.5t227 108.5t226 -105t85 -282q0 -178 -85 -285.5t-226 -107.5q-139 0 -226 106.5t-87 276.5zM1253 254q-2 -72 10.5 -108.5t24.5 -42t31 -5.5q39 0 51 39t12 129v68q0 45 -1 69.5t-6 58.5t-18.5 50t-35.5 16 q-47 0 -56.5 -42t-11.5 -195v-37z" />
<glyph unicode="&#x26;" horiz-adv-x="1642" d="M162 426q0 297 358 440q-74 160 -74 281q0 164 102.5 262t274.5 98q168 0 271.5 -94t103.5 -248q0 -229 -309 -364q92 -199 196 -340q84 104 164 262l228 -98q-84 -188 -213 -361q72 -57 168 -57q37 0 100 10l31 -240q-127 -29 -232 -28q-180 0 -295 102 q-158 -102 -346 -102q-231 0 -379.5 134t-148.5 343zM473 428q0 -98 69.5 -168t168.5 -70q72 0 159 50q-59 74 -135 197.5t-114 211.5q-84 -66 -116 -113t-32 -108zM729 1212q0 -82 59 -211q141 63 142 175q0 63 -31 105t-80 42q-37 0 -63.5 -33t-26.5 -78z" />
<glyph unicode="'" horiz-adv-x="661" d="M182 1182v295h297v-295l-61 -324h-174z" />
<glyph unicode="(" horiz-adv-x="768" d="M96 598q0 170 35 314.5t93.5 239.5t121 166t133 114t113.5 62t80 30v-262q-164 -100 -218.5 -271.5t-54.5 -431.5q0 -168 22.5 -291t69 -198.5t83 -113.5t96.5 -79v-262q-51 18 -77 28.5t-95.5 50.5t-112.5 82t-104.5 120.5t-96 171t-61.5 230.5t-27 300z" />
<glyph unicode=")" horiz-adv-x="768" d="M96 -123q164 100 218.5 271t54.5 432q0 168 -22.5 290.5t-69 198.5t-83 114t-96.5 79v262q51 -18 77 -28.5t95.5 -50.5t112.5 -82t104.5 -121t96 -171t61.5 -230.5t27 -299.5q0 -170 -35 -314.5t-93.5 -240t-121 -166t-133 -113.5t-113.5 -62.5t-80 -29.5v262z" />
<glyph unicode="*" horiz-adv-x="980" d="M66 975v231l376 -88l-260 279l201 114l111 -370l114 370l197 -116l-262 -281l372 94v-231l-378 84l266 -281l-203 -114l-106 366l-111 -364l-205 118l268 277z" />
<glyph unicode="+" horiz-adv-x="1366" d="M125 569v215h450v451h216v-451h450v-215h-450v-450h-216v450h-450z" />
<glyph unicode="," horiz-adv-x="661" d="M180 0v307h301v-299q0 -246 -186 -395l-109 82q100 133 109 305h-115z" />
<glyph unicode="-" horiz-adv-x="768" d="M98 350v293h572v-293h-572z" />
<glyph unicode="." horiz-adv-x="661" d="M180 0v307h301v-307h-301z" />
<glyph unicode="/" horiz-adv-x="768" d="M43 -389l465 1919h219l-465 -1919h-219z" />
<glyph unicode="0" horiz-adv-x="980" d="M43 774q0 504 223 651q104 72 223 66q160 -6 269 -115q98 -100 139 -251.5t41 -419.5q0 -350 -115.5 -544t-322.5 -194q-166 0 -271 105q-100 102 -143 262.5t-43 439.5zM358 408q0 -96 36 -158t93 -62q63 0 98.5 51.5t35.5 145.5v696q0 88 -36 139.5t-100 51.5 q-127 0 -127 -219v-645z" />
<glyph unicode="1" horiz-adv-x="980" d="M156 877v301q92 53 159.5 116.5t165.5 196.5h262v-1491h-323v1059q-131 -116 -264 -182z" />
<glyph unicode="2" horiz-adv-x="980" d="M41 0q-4 197 55.5 320.5t214.5 267.5q190 178 242.5 250.5t52.5 185.5q0 217 -137 217q-53 0 -88 -38t-35 -95q0 -39 14 -94l-276 -111q-25 113 -25 172q0 186 113 301t295 115q217 0 348 -131q113 -113 113 -336q0 -145 -72 -241.5t-258 -231.5q-147 -109 -200.5 -160 t-92.5 -127h635v-264h-899z" />
<glyph unicode="3" horiz-adv-x="980" d="M53 358q0 43 13 125l276 -73q-4 -66 -4 -80q0 -174 129 -174q133 0 133 206q0 201 -50 258.5t-208 63.5v199q137 2 180 41t43 166q0 121 -24.5 165.5t-89.5 44.5q-104 0 -99 -202l-276 -56q-6 51 -6 82q0 166 111.5 266.5t297.5 100.5q188 0 304 -99.5t116 -263.5 q0 -82 -26.5 -145t-75.5 -103t-81 -58.5t-81 -39.5q39 -8 63.5 -14t73.5 -32.5t79 -64.5t54.5 -110t24.5 -166q0 -199 -115 -313.5t-313 -114.5q-207 0 -328 105.5t-121 285.5z" />
<glyph unicode="4" horiz-adv-x="980" d="M31 303v291l504 897h268v-965h147v-223h-147v-303h-305v303h-467zM209 526h289v514z" />
<glyph unicode="5" horiz-adv-x="980" d="M49 352l254 60q10 -113 44 -156t110 -43q82 0 116.5 60.5t34.5 203.5q0 176 -32.5 241.5t-120.5 65.5q-51 0 -88 -28.5t-76 -98.5l-211 56l55 764h705v-250h-500l-23 -320q88 84 224 84q172 -2 281.5 -135t109.5 -346q0 -256 -121 -399.5t-336 -143.5q-104 0 -184 30 t-124 71t-71.5 97t-36 100t-10.5 87z" />
<glyph unicode="6" horiz-adv-x="980" d="M39 719q0 285 54 449.5t175 246.5q117 76 273 76q248 0 342 -191q27 -51 43 -151l-279 -33q-6 104 -36.5 149.5t-92.5 45.5q-37 0 -64.5 -16.5t-45 -53.5t-27.5 -71.5t-14.5 -99t-6.5 -107.5t-2 -123q102 139 242 139q158 0 250 -134t92 -364q0 -233 -112.5 -373.5 t-299.5 -140.5q-195 0 -321 133q-90 94 -130 238.5t-40 380.5zM358 451q0 -158 30 -225.5t97 -67.5q76 0 110 77.5t34 256.5q0 135 -28 193t-93 58q-80 0 -115 -68t-35 -224z" />
<glyph unicode="7" horiz-adv-x="980" d="M45 1225v260h891v-223q-63 -96 -102 -189q-184 -430 -205 -1073h-326q16 123 31.5 214t57.5 264t122 363.5t193 383.5h-662z" />
<glyph unicode="8" horiz-adv-x="980" d="M41 399q0 98 26.5 172t74.5 118t80 63.5t77 38.5q-94 49 -137 96q-92 96 -92 229q0 166 117.5 270.5t306.5 104.5q199 0 319.5 -99.5t120.5 -258.5q0 -80 -22.5 -141.5t-65.5 -102.5t-73 -60.5t-75 -42.5q33 -14 55.5 -26t61.5 -44t63.5 -69t44 -101.5t19.5 -142.5 q0 -190 -123 -313t-313 -123q-209 0 -337 118.5t-128 313.5zM360 424q0 -270 129 -270q133 0 134 249q0 156 -27 216.5t-96 60.5q-76 0 -108 -58.5t-32 -197.5zM379 1075q0 -106 26.5 -153.5t90.5 -47.5q127 0 127 220q0 211 -123 211q-121 -1 -121 -230z" />
<glyph unicode="9" horiz-adv-x="980" d="M41 946q0 152 43 264.5t110.5 170t134 84t132.5 26.5q174 0 289 -119q100 -100 145 -252.5t45 -390.5q-2 -397 -122 -579.5t-380 -182.5q-254 0 -352 195q-27 53 -39 153l270 21q12 -98 46 -144.5t96 -46.5q92 0 128 96.5t31 301.5l-2 75q-115 -141 -256 -141 q-143 0 -231 129t-88 340zM360 961q0 -143 28 -201t97 -58q133 0 133 291q0 160 -33.5 225.5t-101.5 65.5q-66 -2 -94.5 -75.5t-28.5 -247.5z" />
<glyph unicode=":" horiz-adv-x="661" d="M180 707v307h303v-307h-303zM182 0v307h301v-307h-301z" />
<glyph unicode=";" horiz-adv-x="661" d="M180 0v307h301v-299q0 -246 -186 -395l-109 82q100 133 109 305h-115zM180 707v307h301v-307h-301z" />
<glyph unicode="&#x3c;" horiz-adv-x="1366" d="M127 580v192l1112 465v-231l-819 -330l819 -328v-233z" />
<glyph unicode="=" horiz-adv-x="1366" d="M127 332v215h1112v-215h-1112zM127 807v215h1112v-215h-1112z" />
<glyph unicode="&#x3e;" horiz-adv-x="1366" d="M127 115v233l819 328l-819 330v231l1112 -463v-194z" />
<glyph unicode="?" horiz-adv-x="1216" d="M139 1106q12 180 123 290.5t342 110.5q209 0 341 -98t132 -254q0 -115 -51 -205t-170 -178t-154.5 -154.5t-31.5 -146.5h-213q2 143 33.5 213t121.5 156q84 80 116 137t32 147q0 205 -170 205q-176 0 -176 -229q0 -39 10 -107zM418 0v307h291v-307h-291z" />
<glyph unicode="@" horiz-adv-x="1996" d="M35 504q0 145 35.5 284.5t115.5 272.5t197 232.5t291 159.5t385 60q381 0 616.5 -213t235.5 -557q0 -295 -194.5 -507.5t-465.5 -212.5q-156 0 -184 114q-119 -115 -270 -114q-174 0 -279.5 117.5t-105.5 310.5q0 102 34.5 213.5t99 212t171 165t235.5 64.5 q176 0 265 -135l24 110h262l-149 -716q-14 -68 -15 -91q0 -47 39 -47q92 0 222.5 157t130.5 370q0 260 -185.5 418.5t-490.5 158.5q-199 0 -353.5 -61.5t-242.5 -151.5t-145.5 -210t-77 -220t-19.5 -196q0 -332 226.5 -524.5t619.5 -192.5q477 0 688 266h213 q-109 -217 -335 -333t-544 -116q-506 0 -778 247t-272 665zM670 453q-2 -117 47 -182.5t131 -65.5q86 0 151.5 58.5t98 142t48 158.5t15.5 128q0 106 -51 170t-135 64q-127 0 -212 -133t-93 -340z" />
<glyph unicode="A" horiz-adv-x="1748" d="M115 0l526 1477h461l532 -1477h-358l-98 285h-607l-98 -285h-358zM668 569h411l-207 596z" />
<glyph unicode="B" horiz-adv-x="1642" d="M205 0v1477h753q283 0 406 -121q100 -94 100 -234q0 -68 -25.5 -123t-58 -86.5t-90 -61.5t-91.5 -41t-89 -28q137 -27 219 -73q190 -111 191 -312q0 -176 -140.5 -286.5t-363.5 -110.5h-811zM567 270h365q209 0 209 174q0 188 -269 189h-305v-363zM567 903h330 q227 0 227 162q0 68 -58 106.5t-163 38.5h-336v-307z" />
<glyph unicode="C" horiz-adv-x="1642" d="M139 733q0 346 198 562t515 216q102 0 191.5 -18t148.5 -39.5t115.5 -66t84 -72t61.5 -80.5t42 -68.5t29 -60.5l-295 -172q-59 137 -143.5 205.5t-208.5 68.5q-168 0 -262.5 -126t-94.5 -349t98.5 -346t278.5 -123q217 0 360 252l287 -201q-29 -49 -50 -80.5t-79.5 -91 t-121 -95.5t-167 -65.5t-227.5 -29.5q-350 0 -555 210t-205 570z" />
<glyph unicode="D" horiz-adv-x="1748" d="M223 0v1477h746q293 0 467 -205t174 -547q0 -334 -171 -529.5t-464 -195.5h-752zM588 309h274q369 0 369 424q0 211 -86 324.5t-246 113.5h-311v-862z" />
<glyph unicode="E" d="M182 0v1477h1024l-55 -271h-608v-307h561v-270h-561v-359h624l56 -270h-1041z" />
<glyph unicode="F" d="M182 0v1477h1041l-54 -267h-628v-350h559v-266h-557v-594h-361z" />
<glyph unicode="G" horiz-adv-x="1642" d="M145 713q0 106 19.5 209.5t71 213t132.5 191.5t215 134t306 52q211 0 340 -76.5t241 -215.5l-227 -226q-158 209 -354 209q-193 0 -279 -124t-86 -361q0 -459 342 -459q156 0 264 82v190h-313v263h678v-562q-82 -113 -248 -195.5t-356 -82.5q-330 0 -538 212t-208 546z " />
<glyph unicode="H" horiz-adv-x="1748" d="M193 0v1477h364v-576h641v576h358v-1477h-360v623h-643v-623h-360z" />
<glyph unicode="I" horiz-adv-x="768" d="M205 0v1477h360v-1477h-360z" />
<glyph unicode="J" d="M90 498l295 151q-6 -104 -6 -147q0 -150 46 -217.5t148 -67.5q172 0 172 227v1033h365v-1035q0 -477 -518 -477q-358 0 -463 268q-39 95 -39 265z" />
<glyph unicode="K" horiz-adv-x="1748" d="M203 0v1477h364v-621l619 621h446l-512 -500l551 -977h-397l-406 729l-305 -299v-430h-360z" />
<glyph unicode="L" d="M207 0v1477h360v-1182h674v-295h-1034z" />
<glyph unicode="M" horiz-adv-x="1878" d="M188 0v1477h521l229 -899l236 899h518v-1477h-299v1208l-316 -1208h-280l-312 1221v-1221h-297z" />
<glyph unicode="N" horiz-adv-x="1748" d="M227 0v1477h426l518 -867v867h349v-1477h-398l-547 920v-920h-348z" />
<glyph unicode="O" horiz-adv-x="1748" d="M111 735.5q0 364.5 218 572.5t545.5 208t545.5 -208t218 -573q-2 -358 -220 -570t-544 -212q-328 0 -545.5 209t-217.5 573.5zM494 735q0 -215 100 -340t280.5 -125t280.5 125t100 340t-100 337t-280.5 122t-280.5 -122t-100 -337z" />
<glyph unicode="P" horiz-adv-x="1642" d="M213 0v1477h705q274 0 433.5 -124t159.5 -337q0 -193 -142 -328t-345 -135h-449v-553h-362zM573 823h332q98 0 161.5 55.5t63.5 139.5q0 88 -58 138t-159 50h-340v-383z" />
<glyph unicode="Q" horiz-adv-x="1748" d="M113 733q0 348 209.5 564t547.5 216q350 0 559 -218t209 -560q0 -123 -25.5 -227.5t-57 -169t-89 -126.5t-87 -87t-85.5 -66q70 -119 193 -198l-242 -125q-106 86 -201 227q-45 -8 -73 -10q-57 -4 -107 -4q-137 0 -268 48t-240.5 140t-176 246.5t-66.5 349.5zM496 729 q0 -213 97 -335t273 -126q-66 121 -157 211l204 105q102 -80 189 -242q55 33 104 131t49 268q0 215 -103 335t-286 120q-170 0 -270 -127t-100 -340z" />
<glyph unicode="R" horiz-adv-x="1642" d="M190 0v1477h756q254 0 405.5 -114t151.5 -306q0 -80 -25.5 -154t-105.5 -146.5t-207 -99.5l389 -657h-395l-366 610h-240v-610h-363zM557 879h356q96 0 153.5 46t57.5 126q0 70 -57 114.5t-145 44.5h-365v-331z" />
<glyph unicode="S" horiz-adv-x="1642" d="M127 291l238 213q27 -59 49 -94t73.5 -86.5t138.5 -78t208 -26.5q332 0 331 168q0 78 -82 123t-270 68q-125 16 -230.5 47.5t-194.5 85t-140 136.5t-51 189q0 143 73.5 253t204.5 165q139 57 365 57q121 0 224 -22.5t169.5 -55t120 -75.5t80 -78t43.5 -68l-226 -190 q-68 119 -164 173t-241 54q-143 0 -222 -42t-79 -115q0 -68 69.5 -105t251.5 -63q319 -49 483 -155.5t164 -324.5q0 -195 -120 -319q-88 -90 -219.5 -131t-335.5 -41q-162 0 -281 23.5t-198.5 71.5t-131 103.5t-100.5 139.5z" />
<glyph unicode="T" horiz-adv-x="1642" d="M98 1171v306h1448v-306h-545v-1171h-362v1171h-541z" />
<glyph unicode="U" horiz-adv-x="1642" d="M188 455v1022h361v-924q0 -289 264 -289q281 0 281 295v918h362v-1022q0 -500 -633 -500h-10q-317 2 -471 126t-154 374z" />
<glyph unicode="V" horiz-adv-x="1748" d="M109 1477h368l404 -1012l397 1012h364l-577 -1477h-365z" />
<glyph unicode="W" horiz-adv-x="2197" d="M117 1477h338l225 -902l233 902h371l236 -914l225 914h338l-381 -1477h-359l-241 954l-244 -954h-362z" />
<glyph unicode="X" horiz-adv-x="1642" d="M96 1477h381l334 -459l319 459h373l-502 -723l545 -754h-381l-350 483l-336 -483h-377l523 748z" />
<glyph unicode="Y" horiz-adv-x="1642" d="M92 1477h383l346 -607l353 607h378l-553 -916v-561h-360v563z" />
<glyph unicode="Z" d="M88 0v178l698 1030h-610v269h1059v-185l-688 -1022h686v-270h-1145z" />
<glyph unicode="[" horiz-adv-x="768" d="M98 -338v1817h572v-152h-283v-1513h277v-152h-566z" />
<glyph unicode="\" horiz-adv-x="768" d="M41 1530h219l465 -1919h-219z" />
<glyph unicode="]" horiz-adv-x="768" d="M98 -182h281v1509h-277v152h566v-1813h-570v152z" />
<glyph unicode="^" horiz-adv-x="1196" d="M115 692l377 799h223l366 -799h-284l-199 490l-197 -490h-286z" />
<glyph unicode="_" horiz-adv-x="1024" d="M0 -154h1024v-102h-1024v102z" />
<glyph unicode="`" horiz-adv-x="681" d="M33 1415h315l137 -299h-178z" />
<glyph unicode="a" horiz-adv-x="1216" d="M100 289q0 86 34 149.5t76 96t111.5 55t104.5 28t92 11.5q94 8 130 15t95 32v39q0 150 -168 149q-137 0 -194 -131l-223 103q14 31 24.5 48t44 51t74.5 53.5t114.5 35.5t168.5 16q113 0 185.5 -10t139 -42t98 -98.5t31.5 -168.5v-430q0 -41 21.5 -66.5t58.5 -25.5 q12 0 41 4v-187q-88 -41 -190 -41q-98 0 -147.5 42t-71.5 145q-57 -98 -133 -143.5t-189 -45.5q-147 0 -237.5 86.5t-90.5 229.5zM403 307q0 -66 37 -103.5t101 -37.5q86 0 144 58.5t58 144.5v184q-51 -31 -139 -51q-113 -25 -157 -68t-44 -127z" />
<glyph unicode="b" d="M184 0v1477h291v-613q41 49 69.5 78t100.5 64.5t154 35.5q195 0 308.5 -139t113.5 -381q0 -244 -116 -396.5t-300 -152.5q-92 0 -165 37t-99.5 66.5t-65.5 85.5v-162h-291zM475 319q33 -72 99.5 -117.5t136.5 -45.5q76 0 125 51q72 74 71.5 301t-71.5 301q-53 53 -125 53 q-80 0 -142.5 -50t-93.5 -142v-351z" />
<glyph unicode="c" horiz-adv-x="1216" d="M119 528q0 168 76.5 296t207.5 182q88 37 232 36q170 0 273.5 -63.5t164.5 -204.5l-233 -125q-35 98 -81 138t-128 40q-100 0 -153.5 -79.5t-53.5 -227.5q0 -332 217 -332q82 0 134 46.5t91 148.5l232 -127q-18 -39 -30.5 -64.5t-51.5 -72.5t-83 -75t-122 -50.5 t-174 -22.5q-250 0 -384 144.5t-134 412.5z" />
<glyph unicode="d" d="M125 539q0 221 120 361t308 140q102 0 172 -37.5t139 -130.5v605h293v-1477h-289v143q-31 -47 -57.5 -75.5t-97 -61.5t-162.5 -33q-176 0 -277 103q-149 150 -149 463zM438 518q0 -188 48.5 -275t154.5 -87q137 0 227 149v406q-35 70 -95 111.5t-128 41.5q-76 0 -133 -53 q-74 -76 -74 -293z" />
<glyph unicode="e" horiz-adv-x="1216" d="M115 514q0 240 135 384t358 144q217 0 355.5 -144t138.5 -372v-104h-674q6 -131 57.5 -193.5t153.5 -62.5q135 0 233 160l201 -115q-20 -33 -35.5 -53.5t-56.5 -60.5t-86 -63.5t-119 -43t-160 -19.5q-119 0 -210 37t-145 93.5t-88 132t-46 143t-12 137.5zM428 606h377v20 q0 228 -184 228q-193 0 -193 -229v-19z" />
<glyph unicode="f" horiz-adv-x="768" d="M23 811v203h192v215q0 152 79 221.5t249 69.5q61 0 164 -13v-221h-78q-63 0 -91 -26.5t-28 -85.5v-160h195v-205h-195v-809h-295v811h-192z" />
<glyph unicode="g" d="M127 510q0 244 117.5 388t316.5 144q188 0 301 -149v121h293v-1045q0 -358 -485 -358q-291 0 -404 106q-66 59 -86 201l293 -47q16 -51 57 -71.5t127 -20.5q211 0 211 151v240q-59 -90 -134 -131t-187 -41q-188 0 -304 141.5t-116 370.5zM442 510q0 -332 205 -332 q160 0 217 178v365q-98 141 -217 141q-76 0 -131 -51q-74 -74 -74 -301z" />
<glyph unicode="h" d="M186 0v1477h293v-621q41 51 70 81t99.5 67.5t148.5 37.5q160 0 251 -88t91 -239v-715h-289v639q0 209 -164 209q-90 0 -148.5 -75t-58.5 -193v-580h-293z" />
<glyph unicode="i" horiz-adv-x="661" d="M184 0v1014h293v-1014h-293zM186 1204v273h293v-273h-293z" />
<glyph unicode="j" horiz-adv-x="661" d="M66 -168q20 -2 49 -2q106 0 106 121v1063h291v-1086q0 -162 -78 -240.5t-239 -78.5q-57 0 -129 14v209zM219 1204v273h293v-273h-293z" />
<glyph unicode="k" d="M180 0v1477h293v-824l363 361h389l-342 -312l383 -702h-314l-268 524l-207 -186v-338h-297z" />
<glyph unicode="l" horiz-adv-x="661" d="M186 0v1477h291v-1477h-291z" />
<glyph unicode="m" horiz-adv-x="1984" d="M184 0v1014h293v-164q135 188 359 188q80 0 137 -19.5t88 -56t44 -62.5t28 -69q123 207 335 207q158 0 246 -91t88 -253v-694h-295v688q0 78 -40 119t-115 41q-92 0 -151.5 -73t-59.5 -185v-590h-295v680q0 164 -152 164q-98 0 -156.5 -67.5t-58.5 -184.5v-592h-295z" />
<glyph unicode="n" d="M180 0v1014h295v-158q125 186 326 186q162 0 252 -90q55 -55 72.5 -116.5t17.5 -202.5v-633h-295v575q0 154 -36 215.5t-126 61.5q-92 0 -151.5 -69.5t-59.5 -178.5v-604h-295z" />
<glyph unicode="o" d="M125 508q0 233 150.5 386t386.5 153q229 0 382.5 -154t153.5 -385q0 -233 -154.5 -387t-381.5 -154q-236 0 -386.5 152.5t-150.5 388.5zM440 508q0 -332 221.5 -332t221.5 332q0 145 -58.5 236.5t-163 91.5t-163 -91.5t-58.5 -236.5z" />
<glyph unicode="p" d="M186 -391v1405h293v-129q70 88 141.5 122.5t180.5 34.5q195 0 307.5 -136t112.5 -374q0 -260 -112 -409.5t-306 -149.5q-102 0 -174 34t-150 122v-520h-293zM477 295q111 -139 225 -139q76 0 136 55q72 74 71 293q0 356 -213 356q-125 0 -219 -135v-430z" />
<glyph unicode="q" d="M123 524q0 242 112.5 380t309.5 138q100 0 173 -34.5t150 -122.5v129h289v-1405h-293v522q-125 -158 -307 -158q-201 0 -317.5 147.5t-116.5 403.5zM436 506q0 -170 52.5 -260t152.5 -90q117 0 227 147v414q-102 145 -223 145q-72 0 -131 -55q-78 -80 -78 -301z" />
<glyph unicode="r" horiz-adv-x="768" d="M137 0v1014h266v-316q33 106 54.5 160.5t56.5 103t82 63.5q42 14 102 14q8 0 17 -1v-307q-49 4 -62 4q-94 0 -158.5 -64.5t-64.5 -160.5v-510h-293z" />
<glyph unicode="s" horiz-adv-x="1087" d="M78 248l233 90q57 -201 273 -201q76 0 123 32t47 81q0 47 -51.5 77.5t-170.5 57.5q-223 49 -320 132t-97 226q0 139 106.5 219t288.5 80q82 0 141.5 -8t128 -33.5t116.5 -83t73 -145.5l-258 -45q-12 152 -209 152q-59 0 -101.5 -25t-42.5 -61q0 -45 46.5 -72t173.5 -55 q219 -49 325.5 -126t106.5 -216q0 -143 -99 -238q-115 -115 -372 -115q-242 0 -373 133q-47 52 -88 144z" />
<glyph unicode="t" horiz-adv-x="768" d="M29 811v203h176v315l295 152v-467h198v-203h-198v-483q0 -133 102 -133q31 0 92 18v-197q-123 -43 -223 -43q-137 0 -201.5 60.5t-64.5 187.5v590h-176z" />
<glyph unicode="u" d="M180 266v748h295v-688q0 -76 46 -121t122 -45q82 0 145.5 63.5t63.5 145.5v645h291v-1014h-293v147q-49 -57 -83 -86.5t-105.5 -59.5t-159.5 -30q-143 0 -232.5 82t-89.5 213z" />
<glyph unicode="v" d="M104 1014h299l267 -705l248 705h299l-381 -1014h-326z" />
<glyph unicode="w" horiz-adv-x="1748" d="M47 1014h287l172 -715l213 715h319l217 -713l162 713h285l-285 -1014h-317l-221 715l-215 -715h-318z" />
<glyph unicode="x" d="M96 0l404 520l-379 494h328l215 -281l215 281h321l-373 -492l402 -522h-326l-239 309l-240 -309h-328z" />
<glyph unicode="y" d="M109 1014h299l278 -738l236 738h295l-332 -969q-31 -92 -47.5 -133t-46 -104.5t-59.5 -90t-76 -57.5t-107.5 -41t-142.5 -10q-139 0 -293 33v260q130 -37 214 -37h9q82 0 124 27.5t60 91.5z" />
<glyph unicode="z" horiz-adv-x="1087" d="M135 0v201l445 581h-416v232h778v-207l-438 -576h446v-231h-815z" />
<glyph unicode="{" horiz-adv-x="796" d="M57 451v239q143 6 181 91t38 302q0 98 5.5 155.5t28 121t65.5 96.5t120.5 54.5t192.5 21.5h53v-240q-129 0 -165.5 -24.5t-38.5 -120.5q0 -211 -21.5 -324.5t-55.5 -159t-110 -94.5q111 -66 149 -176t38 -399q0 -94 38.5 -120t165.5 -26v-239h-53q-86 0 -151.5 12 t-109.5 29.5t-72.5 55.5t-44 68.5t-23.5 92t-9.5 102.5t-1.5 123q0 203 -44 277t-175 82z" />
<glyph unicode="|" horiz-adv-x="1202" d="M494 -512v2048h217v-2048h-217z" />
<glyph unicode="}" horiz-adv-x="796" d="M55 -152q127 0 166 26t39 120q0 199 17.5 308.5t55.5 165.5t113 101q-66 43 -98.5 82t-52.5 99q-35 104 -35 397q-2 96 -39 120.5t-166 24.5v240h54q86 0 150.5 -12.5t108.5 -29.5t73.5 -55t45 -69t23.5 -92.5t9 -103.5t1 -121q0 -205 43 -279t176 -80v-239 q-143 -8 -181 -93.5t-38 -300.5q0 -98 -5 -155.5t-27.5 -122t-65.5 -96t-121 -53t-192 -21.5h-54v239z" />
<glyph unicode="~" horiz-adv-x="1343" d="M117 547v223q160 137 317 137q100 0 271 -84q158 -76 229 -75q127 0 293 147v-223q-168 -139 -303 -140q-63 0 -123 19.5t-183 79.5q-133 63 -198 63q-143 0 -303 -147z" />
<glyph unicode="&#xa1;" horiz-adv-x="661" d="M182 825v308h297v-308h-297zM186 -342l37 1008h211l45 -1008h-293z" />
<glyph unicode="&#xa2;" horiz-adv-x="1216" d="M115 510q0 260 138 396t365 136q68 0 138 -12l141 322h174l-160 -377q154 -86 185 -324h-262q-20 55 -31 74l-225 -528q37 -6 61 -7q84 0 135 54.5t78 169.5h250q-4 -211 -126 -326t-339 -115q-72 0 -152 13l-161 -375h-177l189 434q-221 143 -221 465zM420 526 q0 -121 33 -204l217 503q-119 14 -184.5 -61.5t-65.5 -237.5z" />
<glyph unicode="&#xa3;" d="M49 160q0 102 81 171.5t202 69.5q43 0 88 -8q0 8 1 19.5t2 17.5t1 12q0 90 -35 191h-287v184h248q-35 129 -35 223q0 209 119 334t318 125q272 0 374 -225q29 -70 37 -182l-276 30q2 74 -36 116t-103 42q-59 0 -98.5 -50t-39.5 -128q0 -131 45 -283h267v-186h-248 q2 -47 2 -92q0 -111 -45 -222q139 -63 192.5 -82.5t106.5 -19.5q141 0 141 162h205q8 -401 -348 -402q-80 0 -149.5 21.5t-110.5 43t-138 81.5q-61 -80 -124.5 -114t-151.5 -34q-90 0 -147.5 51.5t-57.5 133.5zM164 178q0 -35 23.5 -56.5t60.5 -21.5q35 0 69.5 32t57.5 85 q-61 45 -113 45q-39 0 -68.5 -24.5t-29.5 -59.5z" />
<glyph unicode="&#xa4;" horiz-adv-x="1366" d="M158 295l133 129q-74 115 -74 252q0 135 72 250l-131 133l139 143l133 -133q113 74 252 74t252 -74l133 133l141 -143l-135 -133q74 -113 74 -250t-74 -250l135 -131l-141 -141l-133 129q-113 -74 -252 -74q-143 0 -250 76l-131 -131zM416 675.5q0 -110.5 77.5 -188 t188.5 -77.5t188.5 77.5t77.5 188t-77.5 188.5t-188.5 78t-188.5 -78t-77.5 -188.5z" />
<glyph unicode="&#xa5;" horiz-adv-x="1642" d="M92 1477h383l344 -529l344 529h383l-426 -656h430v-184h-551v-152h551v-184h-551v-301h-360v301h-545l2 184h543v152h-545l2 184h422z" />
<glyph unicode="&#xa6;" horiz-adv-x="1202" d="M494 -358v716h217v-716h-217zM494 666v716h217v-716h-217z" />
<glyph unicode="&#xa7;" horiz-adv-x="980" d="M59 530q0 96 36 177t68 113t79 71q-141 113 -142 266q0 156 107.5 245t292.5 89q350 0 387 -330l-232 -59q-14 109 -55 156t-121 47q-61 0 -101 -30t-40 -75q0 -47 41 -85t162 -107q213 -119 298 -211t85 -236q0 -203 -185 -358q80 -70 111 -129.5t31 -143.5 q0 -18 -2 -40.5t-23.5 -77t-58.5 -95.5t-117 -73.5t-191 -32.5q-98 0 -170.5 26.5t-110.5 58.5t-63.5 86t-32 83t-12.5 74l236 51q16 -197 172 -197q55 0 92 27.5t37 70.5q0 51 -43 91.5t-184 123.5q-88 51 -133.5 82t-104.5 85.5t-86 116.5t-27 140zM276 614 q0 -76 60.5 -133t226.5 -157l45 -27q100 92 101 178q0 78 -68 143q-72 72 -248 168l-20 11q-97 -91 -97 -183z" />
<glyph unicode="&#xa8;" horiz-adv-x="681" d="M6 1174v241h240v-241h-240zM436 1169v246h240v-246h-240z" />
<glyph unicode="&#xa9;" horiz-adv-x="1511" d="M-10 729q0 317 224 541.5t541.5 224.5t543 -224t223.5 -542q0 -317 -224.5 -541.5t-542 -224.5t-541.5 225.5t-224 540.5zM141 729q0 -254 180.5 -434t434.5 -180t435 180t181 434t-180 435.5t-436 181.5q-254 0 -434.5 -180.5t-180.5 -436.5zM381 731q0 195 105.5 309.5 t283.5 114.5q244 0 334 -244l-162 -39q-53 139 -178 140q-96 0 -151.5 -72t-55.5 -197q0 -299 199 -299q135 0 186 172l162 -55q-80 -258 -354 -258q-166 0 -267.5 117.5t-101.5 310.5z" />
<glyph unicode="&#xaa;" horiz-adv-x="768" d="M51 1040q0 53 20.5 93.5t46 62t68.5 35.5t69 18t64 8q76 6 138 27v35q0 39 -29 62.5t-76 23.5q-82 0 -125 -80l-141 61q35 72 97.5 101t183.5 29q143 0 208.5 -42t65.5 -133v-284q0 -47 19.5 -61.5t58.5 -8.5v-117q-53 -27 -119 -26q-61 0 -93 25.5t-48 88.5 q-70 -117 -203 -116q-90 0 -147.5 55t-57.5 143zM242 1053q0 -88 90 -88q55 0 90 37.5t35 101.5v104q-37 -23 -88 -30q-61 -12 -94 -39t-33 -86z" />
<glyph unicode="&#xab;" horiz-adv-x="1087" d="M39 569l270 488h238l-271 -488l269 -489h-238zM543 569l270 488h238l-271 -488l269 -489h-238z" />
<glyph unicode="&#xac;" horiz-adv-x="1366" d="M125 807v215h1116v-703h-215v488h-901z" />
<glyph unicode="&#xad;" horiz-adv-x="768" d="M98 350v293h572v-293h-572z" />
<glyph unicode="&#xae;" horiz-adv-x="1511" d="M-10 729q0 317 224 541.5t541.5 224.5t542 -224t224.5 -541.5t-224.5 -542t-542 -224.5t-541.5 225.5t-224 540.5zM143 729q0 -256 180.5 -436t434.5 -180t434 180t180 436t-179 436.5t-435 180.5t-435.5 -180.5t-179.5 -436.5zM412 319v814h385q131 0 201.5 -59.5 t70.5 -170.5q0 -90 -59.5 -151.5t-159.5 -75.5q51 -20 79.5 -52t92.5 -141l96 -164h-203l-69 134q-61 119 -108.5 159.5t-119.5 40.5h-43v-334h-163zM575 782h134q104 2 145 28t41 89q0 104 -170 105h-150v-222z" />
<glyph unicode="&#xaf;" horiz-adv-x="681" d="M18 1161v185h646v-185h-646z" />
<glyph unicode="&#xb0;" horiz-adv-x="819" d="M90 1171.5q0 131.5 94.5 225.5t225.5 94t225 -94t94 -225.5t-94 -225.5t-225 -94q-133 2 -226.5 95t-93.5 224.5zM256 1171.5q0 -63.5 45 -107.5t108.5 -44t108.5 44t45 107.5t-45 108.5t-108.5 45t-108.5 -45t-45 -108.5z" />
<glyph unicode="&#xb1;" horiz-adv-x="1368" d="M125 -59v215h1116v-215h-1116zM125 748v215h450v450h216v-450h450v-215h-450v-451h-216v451h-450z" />
<glyph unicode="&#xb2;" horiz-adv-x="661" d="M82 772q2 74 48 142.5t146 168.5q66 63 88.5 103.5t22.5 91.5q0 43 -22.5 70.5t-57.5 27.5t-55.5 -22.5t-20.5 -59.5q0 -16 5 -32l-125 -50q-18 55 -19 88q0 86 62.5 139.5t162.5 53.5q109 0 174.5 -55.5t65.5 -149.5q0 -63 -41 -121.5t-139 -138.5q-88 -70 -125 -121 h328v-135h-498z" />
<glyph unicode="&#xb3;" horiz-adv-x="661" d="M96 942q0 25 6 62l134 -31q-6 -115 81 -115q80 0 80 125q0 66 -26.5 94.5t-89.5 30.5v88q111 2 110 104q0 92 -76 93q-74 0 -86 -78l-131 -35q-8 70 14.5 117t66.5 66.5t77 25.5t68 6q100 0 161.5 -46t61.5 -122q0 -111 -135 -162q156 -61 155 -207q0 -90 -67.5 -146 t-173.5 -56q-94 0 -162 54t-68 132z" />
<glyph unicode="&#xb4;" horiz-adv-x="681" d="M197 1116l139 299h315l-276 -299h-178z" />
<glyph unicode="&#xb5;" horiz-adv-x="1251" d="M133 -408v1455h291v-539q0 -164 57.5 -235.5t145.5 -71.5t145 71.5t57 235.5v539h291v-1047h-291v78q-74 -102 -202.5 -102.5t-202.5 102.5v-486h-291z" />
<glyph unicode="&#xb6;" horiz-adv-x="1138" d="M4 1063q0 109 44 199t120 139q76 51 137.5 63.5t233.5 12.5h596v-263h-113v-1607h-238v1607h-143v-1607h-244v1046q-186 14 -289.5 121t-103.5 289z" />
<glyph unicode="&#xb7;" horiz-adv-x="555" d="M127 414v307h303v-307h-303z" />
<glyph unicode="&#xb8;" horiz-adv-x="681" d="M68 -319q94 -12 188 -13q76 0 121 25.5t45 68.5q0 84 -129 84q-59 0 -129 -18l24 98q84 27 170 27q115 0 184.5 -52.5t69.5 -136.5q0 -100 -95 -159.5t-255 -59.5q-121 0 -194 17v119z" />
<glyph unicode="&#xb9;" horiz-adv-x="661" d="M180 1167v146q80 51 119 89t66 93h118v-723h-153v490q-78 -70 -150 -95z" />
<glyph unicode="&#xba;" horiz-adv-x="831" d="M78 1177.5q0 145.5 95 242t239 96.5q150 0 247 -96.5t97 -241.5q0 -152 -95.5 -247t-248.5 -95q-141 0 -237.5 98t-96.5 243.5zM279 1176q0 -211 137 -211q141 0 141 209q0 211 -141 210q-137 1 -137 -208z" />
<glyph unicode="&#xbb;" horiz-adv-x="1087" d="M39 1057h237l271 -488l-268 -489h-238l266 489zM541 1057h237l271 -488l-269 -489h-237l266 489z" />
<glyph unicode="&#xbc;" horiz-adv-x="1748" d="M84 -346l1372 1827h209l-1167 -1569l-201 -258h-213zM150 1116v174q168 66 264 193h145v-854h-227v571q-96 -68 -182 -84zM958 -23l332 545h205v-575h92v-142h-92v-133h-207v133h-330v172zM1071 -53h217v356z" />
<glyph unicode="&#xbd;" horiz-adv-x="1748" d="M86 -346l1366 1827h207l-1360 -1827h-213zM150 1116v172q178 80 266 193h141v-852h-225v569q-98 -68 -182 -82zM1034 -326q2 111 49 179.5t191 175.5q158 119 158 215q0 53 -25 89t-64 36q-41 0 -65.5 -28t-24.5 -75q0 -20 4 -37l-194 -73q-23 78 -23 112 q0 109 88.5 182.5t217.5 73.5q141 0 226 -76.5t85 -203.5q0 -72 -41 -132.5t-76 -86t-98 -62.5q-86 -53 -131 -94h352v-195h-629z" />
<glyph unicode="&#xbe;" horiz-adv-x="1748" d="M84 -346l1370 1827h211l-1366 -1827h-215zM94 840q0 12 4 61l183 -47q-10 -61 20.5 -89t65.5 -28q43 0 69.5 36t26.5 93q0 49 -13.5 81t-39 43t-46 14.5t-49.5 1.5v135q27 0 42.5 2t41 11t38 32.5t12.5 62.5q0 47 -23 77t-57 30q-31 0 -57.5 -23.5t-20.5 -70.5l-174 -37 q-6 41 -6 57q0 92 67.5 145.5t181.5 53.5q145 0 229.5 -57.5t84.5 -157.5q0 -139 -187 -187q203 -29 203 -219q0 -117 -82 -183.5t-227 -66.5q-127 0 -207 65t-80 165zM958 -20l332 544h205v-575h92v-142h-92v-135h-207v135h-330v173zM1071 -53h217v360z" />
<glyph unicode="&#xbf;" horiz-adv-x="1216" d="M137 -10q0 209 234 379q115 86 144.5 146t31.5 151h213v-66q0 -86 -32 -151.5t-112 -139.5q-90 -84 -125.5 -148.5t-35.5 -146.5q0 -209 176 -209q172 0 172 232q0 39 -8 106l286 -114q-16 -199 -135 -301.5t-325 -102.5q-221 0 -352.5 99.5t-131.5 265.5zM510 827v308 h291v-308h-291z" />
<glyph unicode="&#xc0;" horiz-adv-x="1748" d="M115 0l526 1477h461l532 -1477h-358l-98 285h-607l-98 -285h-358zM553 1878h315l138 -299h-179zM668 569h411l-207 596z" />
<glyph unicode="&#xc1;" horiz-adv-x="1748" d="M115 0l526 1477h461l532 -1477h-358l-98 285h-607l-98 -285h-358zM668 569h411l-207 596zM743 1579l140 299h315l-276 -299h-179z" />
<glyph unicode="&#xc2;" horiz-adv-x="1748" d="M115 0l526 1477h461l532 -1477h-358l-98 285h-607l-98 -285h-358zM537 1583l211 295h260l206 -295h-225l-117 150l-108 -150h-227zM668 569h411l-207 596z" />
<glyph unicode="&#xc3;" horiz-adv-x="1748" d="M115 0l526 1477h461l532 -1477h-358l-98 285h-607l-98 -285h-358zM530 1591q-8 125 44.5 189.5t138.5 64.5q61 0 164 -45q88 -41 133 -41q70 0 82 88h129q0 -252 -179 -252q-53 0 -170 45q-102 39 -145 39q-70 0 -70 -88h-127zM668 569h411l-207 596z" />
<glyph unicode="&#xc4;" horiz-adv-x="1748" d="M115 0l526 1477h461l532 -1477h-358l-98 285h-607l-98 -285h-358zM541 1636v242h239v-242h-239zM668 569h411l-207 596zM971 1632v246h239v-246h-239z" />
<glyph unicode="&#xc5;" horiz-adv-x="1748" d="M115 0l526 1477h461l532 -1477h-358l-98 285h-607l-98 -285h-358zM668 569h411l-207 596zM680 1729q0 82 57.5 139t139 57t138 -57.5t56.5 -139t-56.5 -138t-138 -56.5t-139 57.5t-57.5 137.5zM786 1728.5q0 -36.5 27 -62.5t63.5 -26t62.5 26t26 62.5t-26 63.5t-62.5 27 t-63.5 -27t-27 -63.5z" />
<glyph unicode="&#xc6;" horiz-adv-x="2197" d="M6 0l725 1477h1313l-49 -271h-588v-307h549v-270h-549v-359h608l56 -270h-1027v289h-526l-137 -289h-375zM651 569h396v637h-93z" />
<glyph unicode="&#xc7;" horiz-adv-x="1642" d="M119 733q0 346 197.5 562t514.5 216q342 0 527 -182q76 -76 145 -223l-295 -172q-59 137 -143 205.5t-209 68.5q-168 0 -262 -126t-94 -349t98 -346t279 -123q217 0 360 252l287 -201q-29 -49 -50.5 -80.5t-80 -91t-121 -95.5t-167 -65.5t-226.5 -29.5q-350 0 -555 210 t-205 570zM561 -360q94 -12 189 -13q76 0 120.5 25.5t44.5 68.5q0 84 -129 84q-59 0 -129 -18l25 98q84 27 170 27q115 0 184.5 -52.5t69.5 -135.5q0 -100 -95.5 -160t-254.5 -60q-121 0 -195 17v119z" />
<glyph unicode="&#xc8;" d="M182 0v1477h1024l-55 -271h-608v-307h561v-270h-561v-359h624l56 -270h-1041zM354 1878h316l137 -299h-178z" />
<glyph unicode="&#xc9;" d="M182 0v1477h1024l-55 -271h-608v-307h561v-270h-561v-359h624l56 -270h-1041zM518 1579l139 299h316l-277 -299h-178z" />
<glyph unicode="&#xca;" d="M182 0v1477h1024l-55 -271h-608v-307h561v-270h-561v-359h624l56 -270h-1041zM344 1583l211 295h260l207 -295h-225l-117 150l-109 -150h-227z" />
<glyph unicode="&#xcb;" d="M182 0v1477h1024l-55 -271h-608v-307h561v-270h-561v-359h624l56 -270h-1041zM348 1636v242h240v-242h-240zM778 1632v246h240v-246h-240z" />
<glyph unicode="&#xcc;" horiz-adv-x="768" d="M61 1878h316l137 -299h-178zM205 0v1477h360v-1477h-360z" />
<glyph unicode="&#xcd;" horiz-adv-x="768" d="M205 0v1477h360v-1477h-360zM238 1579l139 299h315l-276 -299h-178z" />
<glyph unicode="&#xce;" horiz-adv-x="768" d="M45 1583l211 295h260l207 -295h-225l-117 150l-109 -150h-227zM205 0v1477h360v-1477h-360z" />
<glyph unicode="&#xcf;" horiz-adv-x="768" d="M49 1636v242h240v-242h-240zM205 0v1477h360v-1477h-360zM479 1632v246h240v-246h-240z" />
<glyph unicode="&#xd0;" horiz-adv-x="1748" d="M43 647v184h195v646h745q293 0 467 -205t174 -547q0 -334 -171 -529.5t-464 -195.5h-751v647h-195zM602 309h275q369 0 368 424q0 211 -86 324.5t-246 113.5h-311v-340h346v-184h-346v-338z" />
<glyph unicode="&#xd1;" horiz-adv-x="1748" d="M227 0v1477h426l518 -867v867h349v-1477h-398l-547 920v-920h-348zM551 1591q-8 125 44 189.5t138 64.5q61 0 164 -45q88 -41 133 -41q70 0 82 88h129q0 -252 -178 -252q-53 0 -170 45q-102 39 -145 39q-70 0 -70 -88h-127z" />
<glyph unicode="&#xd2;" horiz-adv-x="1748" d="M111 735.5q0 364.5 218 572.5t545.5 208t545.5 -208t218 -573q-2 -358 -220 -570t-544 -212q-328 0 -545.5 209t-217.5 573.5zM494 735q0 -215 100 -340t280.5 -125t280.5 125t100 340t-100 337t-280.5 122t-280.5 -122t-100 -337zM567 1878h316l137 -299h-178z" />
<glyph unicode="&#xd3;" horiz-adv-x="1748" d="M111 735.5q0 364.5 218 572.5t545.5 208t545.5 -208t218 -573q-2 -358 -220 -570t-544 -212q-328 0 -545.5 209t-217.5 573.5zM494 735q0 -215 100 -340t280.5 -125t280.5 125t100 340t-100 337t-280.5 122t-280.5 -122t-100 -337zM731 1579l139 299h316l-277 -299h-178z " />
<glyph unicode="&#xd4;" horiz-adv-x="1748" d="M111 735.5q0 364.5 218 572.5t545.5 208t545.5 -208t218 -573q-2 -358 -220 -570t-544 -212q-328 0 -545.5 209t-217.5 573.5zM494 735q0 -215 100 -340t280.5 -125t280.5 125t100 340t-100 337t-280.5 122t-280.5 -122t-100 -337zM537 1583l211 295h260l206 -295h-225 l-117 150l-108 -150h-227z" />
<glyph unicode="&#xd5;" horiz-adv-x="1748" d="M111 735.5q0 364.5 218 572.5t545.5 208t545.5 -208t218 -573q-2 -358 -220 -570t-544 -212q-328 0 -545.5 209t-217.5 573.5zM494 735q0 -215 100 -340t280.5 -125t280.5 125t100 340t-100 337t-280.5 122t-280.5 -122t-100 -337zM530 1591q-8 125 44.5 189.5 t138.5 64.5q61 0 164 -45q88 -41 133 -41q70 0 82 88h129q0 -252 -179 -252q-53 0 -170 45q-102 39 -145 39q-70 0 -70 -88h-127z" />
<glyph unicode="&#xd6;" horiz-adv-x="1748" d="M111 735.5q0 364.5 218 572.5t545.5 208t545.5 -208t218 -573q-2 -358 -220 -570t-544 -212q-328 0 -545.5 209t-217.5 573.5zM494 735q0 -215 100 -340t280.5 -125t280.5 125t100 340t-100 337t-280.5 122t-280.5 -122t-100 -337zM541 1636v242h239v-242h-239zM971 1632 v246h239v-246h-239z" />
<glyph unicode="&#xd7;" horiz-adv-x="1366" d="M158 1049l151 151l375 -375l375 375l151 -151l-372 -375l370 -371l-151 -151l-371 370l-373 -370l-151 151l370 371z" />
<glyph unicode="&#xd8;" horiz-adv-x="1748" d="M111 727v8q0 365 218 573t545 208q229 0 414 -107l101 117l198 -160l-108 -127q160 -199 159 -504q-2 -358 -220 -570t-544 -212q-231 0 -405 104l-107 -125l-198 162l110 129q-163 201 -163 504zM494 735q0 -123 34 -215l537 627q-78 47 -191 47q-180 0 -280 -122 t-100 -337zM690 317q76 -47 184 -47q180 0 280.5 125t100.5 340q0 115 -30 207z" />
<glyph unicode="&#xd9;" horiz-adv-x="1642" d="M188 455v1022h361v-924q0 -289 264 -289q281 0 281 295v918h362v-1022q0 -504 -643 -500q-317 2 -471 126t-154 374zM514 1878h315l138 -299h-179z" />
<glyph unicode="&#xda;" horiz-adv-x="1642" d="M188 455v1022h361v-924q0 -289 264 -289q281 0 281 295v918h362v-1022q0 -504 -643 -500q-317 2 -471 126t-154 374zM678 1579l139 299h316l-277 -299h-178z" />
<glyph unicode="&#xdb;" horiz-adv-x="1642" d="M188 455v1022h361v-924q0 -289 264 -289q281 0 281 295v918h362v-1022q0 -504 -643 -500q-317 2 -471 126t-154 374zM483 1583l211 295h260l207 -295h-225l-117 150l-108 -150h-228z" />
<glyph unicode="&#xdc;" horiz-adv-x="1642" d="M188 455v1022h361v-924q0 -289 264 -289q281 0 281 295v918h362v-1022q0 -504 -643 -500q-317 2 -471 126t-154 374zM487 1636v242h240v-242h-240zM918 1632v246h239v-246h-239z" />
<glyph unicode="&#xdd;" horiz-adv-x="1642" d="M92 1477h383l346 -607l353 607h378l-553 -916v-561h-360v563zM678 1579l139 299h316l-277 -299h-178z" />
<glyph unicode="&#xde;" horiz-adv-x="1642" d="M215 0v1477h363v-277h323q293 0 451.5 -121t158.5 -344q0 -193 -145 -324.5t-354 -131.5h-434v-279h-363zM578 547h317q109 0 174.5 53t65.5 141q0 90 -58.5 139.5t-165.5 49.5h-333v-383z" />
<glyph unicode="&#xdf;" d="M150 0v1014q0 102 22.5 183t53 132t81.5 88t91 54.5t97.5 26.5t85 10t68.5 1q223 0 351 -100t128 -274q0 -209 -215 -293q61 -27 101.5 -51.5t81.5 -69.5t60.5 -119t19.5 -176q0 -223 -95.5 -338t-277.5 -115q-84 0 -191 29v217q63 -49 125 -49q68 0 98.5 66.5 t30.5 212.5q0 182 -40 238t-171 58v183q94 2 130 41t36 137q0 209 -190.5 209t-190.5 -217v-1098h-290z" />
<glyph unicode="&#xe0;" horiz-adv-x="1216" d="M100 289q0 86 34 149.5t76 96t111.5 55t104.5 28t92 11.5q94 8 130 15t95 32v39q0 150 -168 149q-137 0 -194 -131l-223 103q14 31 24.5 48t44 51t74.5 53.5t114.5 35.5t168.5 16q113 0 185.5 -10t139 -42t98 -98.5t31.5 -168.5v-430q0 -41 21.5 -66.5t58.5 -25.5 q12 0 41 4v-187q-88 -41 -190 -41q-98 0 -147.5 42t-71.5 145q-57 -98 -133 -143.5t-189 -45.5q-147 0 -237.5 86.5t-90.5 229.5zM301 1415h315l138 -299h-179zM403 307q0 -66 37 -103.5t101 -37.5q86 0 144 58.5t58 144.5v184q-51 -31 -139 -51q-113 -25 -157 -68t-44 -127 z" />
<glyph unicode="&#xe1;" horiz-adv-x="1216" d="M100 289q0 86 34 149.5t76 96t111.5 55t104.5 28t92 11.5q94 8 130 15t95 32v39q0 150 -168 149q-137 0 -194 -131l-223 103q14 31 24.5 48t44 51t74.5 53.5t114.5 35.5t168.5 16q113 0 185.5 -10t139 -42t98 -98.5t31.5 -168.5v-430q0 -41 21.5 -66.5t58.5 -25.5 q12 0 41 4v-187q-88 -41 -190 -41q-98 0 -147.5 42t-71.5 145q-57 -98 -133 -143.5t-189 -45.5q-147 0 -237.5 86.5t-90.5 229.5zM403 307q0 -66 37 -103.5t101 -37.5q86 0 144 58.5t58 144.5v184q-51 -31 -139 -51q-113 -25 -157 -68t-44 -127zM465 1116l139 299h316 l-277 -299h-178z" />
<glyph unicode="&#xe2;" horiz-adv-x="1216" d="M100 289q0 86 34 149.5t76 96t111.5 55t104.5 28t92 11.5q94 8 130 15t95 32v39q0 150 -168 149q-137 0 -194 -131l-223 103q14 31 24.5 48t44 51t74.5 53.5t114.5 35.5t168.5 16q113 0 185.5 -10t139 -42t98 -98.5t31.5 -168.5v-430q0 -41 21.5 -66.5t58.5 -25.5 q12 0 41 4v-187q-88 -41 -190 -41q-98 0 -147.5 42t-71.5 145q-57 -98 -133 -143.5t-189 -45.5q-147 0 -237.5 86.5t-90.5 229.5zM270 1120l211 295h260l207 -295h-225l-117 150l-108 -150h-228zM403 307q0 -66 37 -103.5t101 -37.5q86 0 144 58.5t58 144.5v184 q-51 -31 -139 -51q-113 -25 -157 -68t-44 -127z" />
<glyph unicode="&#xe3;" horiz-adv-x="1216" d="M100 289q0 86 34 149.5t76 96t111.5 55t104.5 28t92 11.5q94 8 130 15t95 32v39q0 150 -168 149q-137 0 -194 -131l-223 103q14 31 24.5 48t44 51t74.5 53.5t114.5 35.5t168.5 16q113 0 185.5 -10t139 -42t98 -98.5t31.5 -168.5v-430q0 -41 21.5 -66.5t58.5 -25.5 q12 0 41 4v-187q-88 -41 -190 -41q-98 0 -147.5 42t-71.5 145q-57 -98 -133 -143.5t-189 -45.5q-147 0 -237.5 86.5t-90.5 229.5zM264 1128q-8 125 44 189.5t138 64.5q61 0 164 -45q88 -41 133 -41q70 0 82 88h129q0 -252 -178 -251q-53 0 -170 45q-102 39 -145 39 q-70 0 -70 -89h-127zM403 307q0 -66 37 -103.5t101 -37.5q86 0 144 58.5t58 144.5v184q-51 -31 -139 -51q-113 -25 -157 -68t-44 -127z" />
<glyph unicode="&#xe4;" horiz-adv-x="1216" d="M100 289q0 86 34 149.5t76 96t111.5 55t104.5 28t92 11.5q94 8 130 15t95 32v39q0 150 -168 149q-137 0 -194 -131l-223 103q14 31 24.5 48t44 51t74.5 53.5t114.5 35.5t168.5 16q113 0 185.5 -10t139 -42t98 -98.5t31.5 -168.5v-430q0 -41 21.5 -66.5t58.5 -25.5 q12 0 41 4v-187q-88 -41 -190 -41q-98 0 -147.5 42t-71.5 145q-57 -98 -133 -143.5t-189 -45.5q-147 0 -237.5 86.5t-90.5 229.5zM274 1174v241h240v-241h-240zM403 307q0 -66 37 -103.5t101 -37.5q86 0 144 58.5t58 144.5v184q-51 -31 -139 -51q-113 -25 -157 -68t-44 -127 zM705 1169v246h239v-246h-239z" />
<glyph unicode="&#xe5;" horiz-adv-x="1216" d="M100 289q0 86 34 149.5t76 96t111.5 55t104.5 28t92 11.5q94 8 130 15t95 32v39q0 150 -168 149q-137 0 -194 -131l-223 103q14 31 24.5 48t44 51t74.5 53.5t114.5 35.5t168.5 16q113 0 185.5 -10t139 -42t98 -98.5t31.5 -168.5v-430q0 -41 21.5 -66.5t58.5 -25.5 q12 0 41 4v-187q-88 -41 -190 -41q-98 0 -147.5 42t-71.5 145q-57 -98 -133 -143.5t-189 -45.5q-147 0 -237.5 86.5t-90.5 229.5zM403 307q0 -66 37 -103.5t101 -37.5q86 0 144 58.5t58 144.5v184q-51 -31 -139 -51q-113 -25 -157 -68t-44 -127zM414 1266q0 82 57 139 t139 57t138.5 -57t56.5 -139t-56.5 -138.5t-138.5 -56.5t-139 57.5t-57 137.5zM520 1266q0 -37 26.5 -62.5t63.5 -25.5t62.5 25.5t25.5 62.5t-25.5 63.5t-62.5 26.5t-63.5 -26.5t-26.5 -63.5z" />
<glyph unicode="&#xe6;" horiz-adv-x="1748" d="M82 281q0 84 32.5 147.5t72.5 97t105.5 57t102.5 29.5t92 13q137 16 224 49v76q0 53 -44 84.5t-114 31.5q-139 0 -191 -133l-221 98q14 31 25.5 50.5t45.5 53.5t77 54.5t119.5 36.5t175.5 16q203 0 329 -73q129 76 273 75q59 0 120.5 -13t132 -55t122 -107.5t83 -181.5 t23.5 -265h-647q8 -254 194 -254q66 0 116 35t110 123l196 -115q-82 -125 -188.5 -181.5t-261.5 -56.5q-98 0 -175 22.5t-126 65.5t-74 74t-53 80q-18 -35 -30.5 -55.5t-45.5 -60.5t-66.5 -64.5t-89 -44t-118.5 -19.5q-90 0 -157 32t-97.5 71t-49 91t-20.5 76t-2 40z M381 309q0 -70 36 -110.5t97 -40.5q82 0 140.5 62.5t58.5 146.5v188q-47 -27 -127 -49q-115 -35 -160 -78t-45 -119zM1020 604h352q0 47 -5 81t-20.5 78t-54.5 68.5t-100 24.5q-182 0 -172 -252z" />
<glyph unicode="&#xe7;" horiz-adv-x="1216" d="M119 528q0 168 76.5 296t207.5 182q88 37 232 36q170 0 273.5 -63.5t164.5 -204.5l-233 -125q-35 98 -81 138t-128 40q-100 0 -153.5 -79.5t-53.5 -227.5q0 -332 217 -332q82 0 134 46.5t91 148.5l232 -127q-18 -39 -30.5 -64.5t-51.5 -72.5t-83 -75t-122 -50.5 t-174 -22.5q-250 0 -384 144.5t-134 412.5zM348 -340q94 -12 189 -12q76 0 120.5 25.5t44.5 68.5q0 84 -129 84q-59 0 -129 -19l25 99q84 27 170 26q115 0 184.5 -52t69.5 -136q0 -100 -95.5 -159.5t-254.5 -59.5q-121 0 -195 16v119z" />
<glyph unicode="&#xe8;" horiz-adv-x="1216" d="M115 514q0 240 135 384t358 144q217 0 355.5 -144t138.5 -372v-104h-674q6 -131 57.5 -193.5t153.5 -62.5q135 0 233 160l201 -115q-20 -33 -35.5 -53.5t-56.5 -60.5t-86 -63.5t-119 -43t-160 -19.5q-119 0 -210 37t-145 93.5t-88 132t-46 143t-12 137.5zM301 1415h315 l138 -299h-179zM428 606h377q8 248 -184 248q-201 0 -193 -248z" />
<glyph unicode="&#xe9;" horiz-adv-x="1216" d="M115 514q0 240 135 384t358 144q217 0 355.5 -144t138.5 -372v-104h-674q6 -131 57.5 -193.5t153.5 -62.5q135 0 233 160l201 -115q-20 -33 -35.5 -53.5t-56.5 -60.5t-86 -63.5t-119 -43t-160 -19.5q-119 0 -210 37t-145 93.5t-88 132t-46 143t-12 137.5zM428 606h377 q8 248 -184 248q-201 0 -193 -248zM465 1116l139 299h316l-277 -299h-178z" />
<glyph unicode="&#xea;" horiz-adv-x="1216" d="M115 514q0 240 135 384t358 144q217 0 355.5 -144t138.5 -372v-104h-674q6 -131 57.5 -193.5t153.5 -62.5q135 0 233 160l201 -115q-20 -33 -35.5 -53.5t-56.5 -60.5t-86 -63.5t-119 -43t-160 -19.5q-119 0 -210 37t-145 93.5t-88 132t-46 143t-12 137.5zM270 1120 l211 295h260l207 -295h-225l-117 150l-108 -150h-228zM428 606h377q8 248 -184 248q-201 0 -193 -248z" />
<glyph unicode="&#xeb;" horiz-adv-x="1216" d="M115 514q0 240 135 384t358 144q217 0 355.5 -144t138.5 -372v-104h-674q6 -131 57.5 -193.5t153.5 -62.5q135 0 233 160l201 -115q-20 -33 -35.5 -53.5t-56.5 -60.5t-86 -63.5t-119 -43t-160 -19.5q-119 0 -210 37t-145 93.5t-88 132t-46 143t-12 137.5zM274 1174v241 h240v-241h-240zM428 606h377q8 248 -184 248q-201 0 -193 -248zM705 1169v246h239v-246h-239z" />
<glyph unicode="&#xec;" horiz-adv-x="661" d="M4 1415h315l138 -299h-178zM184 0v1014h293v-1014h-293z" />
<glyph unicode="&#xed;" horiz-adv-x="661" d="M184 0v1014h293v-1014h-293zM203 1116l139 299h315l-276 -299h-178z" />
<glyph unicode="&#xee;" horiz-adv-x="661" d="M-8 1120l211 295h260l207 -295h-226l-116 150l-109 -150h-227zM184 0v1014h293v-1014h-293z" />
<glyph unicode="&#xef;" horiz-adv-x="661" d="M-4 1174v241h240v-241h-240zM184 0v1014h293v-1014h-293zM426 1169v246h240v-246h-240z" />
<glyph unicode="&#xf0;" d="M147 508q0 94 32 186t92.5 172t164 128t234.5 48q74 0 131 -26q-55 111 -117 192l-274 -102l-58 151l209 82q-53 43 -102 76l176 113q76 -49 143 -109l234 92l57 -157l-151 -58q123 -139 211 -342.5t81 -412.5q6 -254 -142 -413t-386 -159q-227 0 -381 156t-154 383z M457 508q0 -328 229 -328q104 0 160.5 84t56.5 244q0 154 -58.5 242t-164.5 88q-102 0 -162.5 -89t-60.5 -241z" />
<glyph unicode="&#xf1;" d="M180 0v1014h295v-158q125 186 326 186q162 0 252 -90q55 -55 72.5 -116.5t17.5 -202.5v-633h-295v575q0 154 -36 215.5t-126 61.5q-92 0 -151.5 -69.5t-59.5 -178.5v-604h-295zM317 1128q-8 125 44.5 189.5t138.5 64.5q61 0 164 -45q88 -41 133 -41q70 0 82 88h129 q0 -252 -179 -251q-53 0 -170 45q-102 39 -145 39q-70 0 -70 -89h-127z" />
<glyph unicode="&#xf2;" d="M125 508q0 233 150.5 386t386.5 153q229 0 382.5 -154t153.5 -385q0 -233 -154.5 -387t-381.5 -154q-236 0 -386.5 152.5t-150.5 388.5zM354 1415h316l137 -299h-178zM440 508q0 -332 221.5 -332t221.5 332q0 145 -58.5 236.5t-163 91.5t-163 -91.5t-58.5 -236.5z" />
<glyph unicode="&#xf3;" d="M125 508q0 233 150.5 386t386.5 153q229 0 382.5 -154t153.5 -385q0 -233 -154.5 -387t-381.5 -154q-236 0 -386.5 152.5t-150.5 388.5zM440 508q0 -332 221.5 -332t221.5 332q0 145 -58.5 236.5t-163 91.5t-163 -91.5t-58.5 -236.5zM518 1116l139 299h316l-277 -299 h-178z" />
<glyph unicode="&#xf4;" d="M125 508q0 233 150.5 386t386.5 153q229 0 382.5 -154t153.5 -385q0 -233 -154.5 -387t-381.5 -154q-236 0 -386.5 152.5t-150.5 388.5zM324 1120l211 295h260l206 -295h-225l-117 150l-108 -150h-227zM440 508q0 -332 221.5 -332t221.5 332q0 145 -58.5 236.5t-163 91.5 t-163 -91.5t-58.5 -236.5z" />
<glyph unicode="&#xf5;" d="M125 508q0 233 150.5 386t386.5 153q229 0 382.5 -154t153.5 -385q0 -233 -154.5 -387t-381.5 -154q-236 0 -386.5 152.5t-150.5 388.5zM317 1128q-8 125 44.5 189.5t138.5 64.5q61 0 164 -45q88 -41 133 -41q70 0 82 88h129q0 -252 -179 -251q-53 0 -170 45 q-102 39 -145 39q-70 0 -70 -89h-127zM440 508q0 -332 221.5 -332t221.5 332q0 145 -58.5 236.5t-163 91.5t-163 -91.5t-58.5 -236.5z" />
<glyph unicode="&#xf6;" d="M125 508q0 233 150.5 386t386.5 153q229 0 382.5 -154t153.5 -385q0 -233 -154.5 -387t-381.5 -154q-236 0 -386.5 152.5t-150.5 388.5zM328 1174v241h239v-241h-239zM440 508q0 -332 221.5 -332t221.5 332q0 145 -58.5 236.5t-163 91.5t-163 -91.5t-58.5 -236.5z M758 1169v246h239v-246h-239z" />
<glyph unicode="&#xf7;" horiz-adv-x="1368" d="M127 573v205h1114v-205h-1114zM551 1089.5q0 53.5 38 92.5t91 39t91 -38t38 -91.5t-38 -91t-91 -37.5t-91 36.5t-38 90zM553 258q0 53 38 92t91 39t91 -38t38 -91t-38 -91t-91 -38t-91 37t-38 90z" />
<glyph unicode="&#xf8;" d="M125 508q0 233 150.5 386t386.5 153q158 0 286 -78l103 121l129 -107l-105 -123q123 -150 123 -352q0 -233 -154.5 -387t-381.5 -154q-164 0 -285 76l-103 -121l-124 109l102 119q-127 145 -127 358zM440 508q0 -70 13 -123l338 399q-51 51 -129 52q-104 0 -163 -91.5 t-59 -236.5zM530 221q51 -45 132 -45q221 0 221 332q0 63 -13 113z" />
<glyph unicode="&#xf9;" d="M180 266v748h295v-688q0 -76 46 -121t122 -45q82 0 145.5 63.5t63.5 145.5v645h291v-1014h-293v147q-49 -57 -83 -86.5t-105.5 -59.5t-159.5 -30q-143 0 -232.5 82t-89.5 213zM354 1415h316l137 -299h-178z" />
<glyph unicode="&#xfa;" d="M180 266v748h295v-688q0 -76 46 -121t122 -45q82 0 145.5 63.5t63.5 145.5v645h291v-1014h-293v147q-49 -57 -83 -86.5t-105.5 -59.5t-159.5 -30q-143 0 -232.5 82t-89.5 213zM518 1116l139 299h316l-277 -299h-178z" />
<glyph unicode="&#xfb;" d="M180 266v748h295v-688q0 -76 46 -121t122 -45q82 0 145.5 63.5t63.5 145.5v645h291v-1014h-293v147q-49 -57 -83 -86.5t-105.5 -59.5t-159.5 -30q-143 0 -232.5 82t-89.5 213zM324 1120l211 295h260l206 -295h-225l-117 150l-108 -150h-227z" />
<glyph unicode="&#xfc;" d="M180 266v748h295v-688q0 -76 46 -121t122 -45q82 0 145.5 63.5t63.5 145.5v645h291v-1014h-293v147q-49 -57 -83 -86.5t-105.5 -59.5t-159.5 -30q-143 0 -232.5 82t-89.5 213zM328 1174v241h239v-241h-239zM758 1169v246h239v-246h-239z" />
<glyph unicode="&#xfd;" d="M109 1014h299l278 -738l236 738h295l-332 -969q-31 -92 -47.5 -133t-46 -104.5t-59.5 -90t-76 -57.5t-107.5 -41t-142.5 -10q-139 0 -293 33v260q137 -39 223 -37q82 0 124 27.5t60 91.5zM518 1116l139 299h316l-277 -299h-178z" />
<glyph unicode="&#xfe;" d="M166 -391v1868h293v-592q70 88 141.5 122.5t179.5 34.5q195 0 307.5 -136t112.5 -374q0 -260 -111.5 -409.5t-306.5 -149.5q-102 0 -173.5 34t-149.5 122v-520h-293zM457 295q111 -139 225 -139q76 0 135 55q72 74 72 293q0 356 -213 356q-125 0 -219 -135v-430z" />
<glyph unicode="&#xff;" d="M109 1014h299l278 -738l236 738h295l-332 -969q-31 -92 -47.5 -133t-46 -104.5t-59.5 -90t-76 -57.5t-107.5 -41t-142.5 -10q-139 0 -293 33v260q137 -39 223 -37q82 0 124 27.5t60 91.5zM328 1174v241h239v-241h-239zM758 1169v246h239v-246h-239z" />
<glyph unicode="&#x152;" horiz-adv-x="2197" d="M119 715q0 221 77.5 392t223.5 267q164 111 446 111q14 0 97 -4q86 -4 100 -4h1075l-53 -269h-588v-309h551v-268h-551v-359h614l52 -272h-1170l-75 -6q-356 -16 -577.5 177.5t-221.5 543.5zM502 729q0 -231 117.5 -351t347.5 -120q66 0 172 14v934h-201 q-215 0 -325.5 -120.5t-110.5 -356.5z" />
<glyph unicode="&#x153;" horiz-adv-x="1984" d="M127 518q0 231 150.5 377.5t390.5 146.5q209 0 362 -131q80 72 159 102.5t187 30.5q492 0 484 -622h-670q8 -256 211 -256q135 0 229 162l201 -117q-80 -123 -187.5 -180.5t-263.5 -57.5q-96 0 -173 25t-108.5 48.5t-70.5 59.5q-162 -133 -373 -133q-231 0 -379.5 153.5 t-148.5 391.5zM440 520q0 -340 219 -340q225 0 226 328q0 141 -53.5 234.5t-172.5 93.5q-219 -9 -219 -316zM1192 606h375q0 250 -189 250q-196 0 -186 -250z" />
<glyph unicode="&#x178;" horiz-adv-x="1642" d="M92 1477h383l346 -607l353 607h378l-553 -916v-561h-360v563zM487 1636v242h240v-242h-240zM918 1632v246h239v-246h-239z" />
<glyph unicode="&#x2c6;" horiz-adv-x="681" d="M2 1120l211 295h260l207 -295h-225l-117 150l-109 -150h-227z" />
<glyph unicode="&#x2dc;" horiz-adv-x="681" d="M-4 1128q-8 125 44 189.5t138 64.5q61 0 164 -45q88 -41 133 -41q70 0 82 88h129q0 -252 -178 -251q-53 0 -170 45q-102 39 -145 39q-70 0 -70 -89h-127z" />
<glyph unicode="&#x2000;" horiz-adv-x="962" />
<glyph unicode="&#x2001;" horiz-adv-x="1925" />
<glyph unicode="&#x2002;" horiz-adv-x="962" />
<glyph unicode="&#x2003;" horiz-adv-x="1925" />
<glyph unicode="&#x2004;" horiz-adv-x="641" />
<glyph unicode="&#x2005;" horiz-adv-x="481" />
<glyph unicode="&#x2006;" horiz-adv-x="319" />
<glyph unicode="&#x2007;" horiz-adv-x="319" />
<glyph unicode="&#x2008;" horiz-adv-x="239" />
<glyph unicode="&#x2009;" horiz-adv-x="385" />
<glyph unicode="&#x200a;" horiz-adv-x="106" />
<glyph unicode="&#x2010;" horiz-adv-x="768" d="M98 350v293h572v-293h-572z" />
<glyph unicode="&#x2011;" horiz-adv-x="768" d="M98 350v293h572v-293h-572z" />
<glyph unicode="&#x2012;" horiz-adv-x="768" d="M98 350v293h572v-293h-572z" />
<glyph unicode="&#x2013;" horiz-adv-x="1024" d="M-8 393v250h1042v-250h-1042z" />
<glyph unicode="&#x2014;" horiz-adv-x="2048" d="M-16 393v250h2082v-250h-2082z" />
<glyph unicode="&#x2018;" horiz-adv-x="661" d="M223 858v256q0 160 146 363l129 -74q-74 -147 -78 -248h100v-297h-297z" />
<glyph unicode="&#x2019;" horiz-adv-x="661" d="M141 1180v297h297v-256q0 -160 -145 -363l-129 74q74 147 78 248h-101z" />
<glyph unicode="&#x201a;" horiz-adv-x="661" d="M182 0v297h297v-256q0 -160 -145 -363l-129 74q74 147 78 248h-101z" />
<glyph unicode="&#x201c;" horiz-adv-x="1087" d="M188 858v256q0 160 146 363l129 -74q-74 -147 -78 -248h100v-297h-297zM682 858v256q0 160 145 363l129 -74q-74 -147 -77 -248h100v-297h-297z" />
<glyph unicode="&#x201d;" horiz-adv-x="1087" d="M109 1180v297h297v-256q0 -160 -146 -363l-129 74q74 147 78 248h-100zM602 1180v297h297v-256q0 -160 -145 -363l-129 74q74 147 77 248h-100z" />
<glyph unicode="&#x201e;" horiz-adv-x="1087" d="M143 0v297h297v-256q0 -160 -145 -363l-129 74q74 147 78 248h-101zM649 0v297h297v-256q0 -160 -145 -363l-129 74q74 147 78 248h-101z" />
<glyph unicode="&#x2022;" horiz-adv-x="716" d="M61 723q0 123 87.5 210t207.5 87q123 0 210 -87t87 -210q0 -121 -87 -208t-210 -87q-121 0 -208 87t-87 208z" />
<glyph unicode="&#x2026;" horiz-adv-x="1748" d="M139 0v307h301v-307h-301zM725 0v307h301v-307h-301zM1311 0v307h301v-307h-301z" />
<glyph unicode="&#x202f;" horiz-adv-x="385" />
<glyph unicode="&#x2039;" horiz-adv-x="661" d="M78 569l270 488h238l-271 -488l269 -489h-238z" />
<glyph unicode="&#x203a;" horiz-adv-x="661" d="M78 1057h237l271 -488l-269 -489h-237l266 489z" />
<glyph unicode="&#x205f;" horiz-adv-x="481" />
<glyph unicode="&#x20ac;" horiz-adv-x="1351" d="M47 487l43 185h133q0 8 -1 28.5t-1 30.5t1 30.5t1 31.5h-176l43 184h156q49 240 187 378t335 138q117 0 209 -35t145.5 -90t81 -101t43.5 -93l-223 -101q-53 111 -107.5 154t-138.5 43q-170 0 -223 -293h518l-41 -184h-495q0 -10 -1 -31t-1 -31t1 -29.5t1 -29.5h495 l-41 -185h-436q27 -137 87 -217t155 -80q137 0 276 228l209 -164q-47 -102 -174 -194.5t-303 -92.5q-221 0 -367.5 137.5t-193.5 382.5h-197z" />
<glyph unicode="&#x2122;" horiz-adv-x="2048" d="M233 1333v144h664v-144h-246v-676h-166v676h-252zM995 657v820h260l150 -566l149 566h261v-820h-158v654l-178 -654h-150l-176 654v-654h-158z" />
<glyph unicode="&#xe000;" horiz-adv-x="1014" d="M0 1015h1015v-1015h-1015v1015z" />
<glyph unicode="&#xfb01;" d="M35 807v207h174v104q0 178 132 288t345 110q434 0 477 -322h-295q-12 51 -53 74q-37 25 -102 24q-119 0 -166 -46t-47 -167v-65h229v-207h-229v-807h-291v807h-174zM868 0v1014h289v-1014h-289z" />
<glyph unicode="&#xfb02;" d="M37 809v205h174v55q0 217 125 333t360 116q143 0 248 -35q23 -6 29 -6h188v-1477h-287v1149q0 76 -38.5 109.5t-126.5 33.5q-115 0 -161 -46t-46 -159v-73h227v-205h-227v-809h-291v809h-174z" />
<glyph unicode="&#xfb03;" horiz-adv-x="2197" d="M1720 0v1014h293v-1014h-293zM1722 1204v273h293v-273h-293zM791 811v203h192v215q0 152 79 221.5t249 69.5q61 0 164 -13v-221h-78q-63 0 -91 -26.5t-28 -85.5v-160h195v-205h-195v-809h-295v811h-192zM23 811v203h192v215q0 152 79 221.5t249 69.5q61 0 164 -13v-221 h-78q-63 0 -91 -26.5t-28 -85.5v-160h195v-205h-195v-809h-295v811h-192z" />
<glyph unicode="&#xfb04;" horiz-adv-x="2197" d="M1722 0v1477h291v-1477h-291zM791 811v203h192v215q0 152 79 221.5t249 69.5q61 0 164 -13v-221h-78q-63 0 -91 -26.5t-28 -85.5v-160h195v-205h-195v-809h-295v811h-192zM23 811v203h192v215q0 152 79 221.5t249 69.5q61 0 164 -13v-221h-78q-63 0 -91 -26.5t-28 -85.5 v-160h195v-205h-195v-809h-295v811h-192z" />
</font>
</defs>
</svg>
