<?xml version="1.0" standalone="no"?>
<!DOCTYPE svg PUBLIC "-//W3C//DTD SVG 1.1//EN" "http://www.w3.org/Graphics/SVG/1.1/DTD/svg11.dtd" >
<svg xmlns="http://www.w3.org/2000/svg">
<metadata>
This is a custom SVG webfont generated by Font Squirrel.
Copyright   : Copyright  1992 2002 Adobe Systems Incorporated All Rights Reserved  Copyright 1992 2002 The Monotype Corporation plc All Rights Reserved
Designer    : Unknown
Foundry URL : httpwwwadobecomtype
</metadata>
<defs>
<font id="GrotesqueMTStdLightCondensed" horiz-adv-x="854" >
<font-face units-per-em="2048" ascent="1522" descent="-526" />
<missing-glyph horiz-adv-x="481" />
<glyph unicode=" "  horiz-adv-x="481" />
<glyph unicode="&#x09;" horiz-adv-x="481" />
<glyph unicode="&#xa0;" horiz-adv-x="481" />
<glyph unicode="!" horiz-adv-x="468" d="M174 0v197h119v-197h-119zM174 1520h123l-37 -1217h-53z" />
<glyph unicode="&#x22;" horiz-adv-x="960" d="M285 1282v238h127v-238l-21 -272h-86zM549 1282v238h127v-238l-21 -272h-86z" />
<glyph unicode="#" horiz-adv-x="1368" d="M94 367v88h232l86 405h-318v90h336l88 416h86l-88 -416h457l86 416h88l-88 -416h213v-90h-230l-86 -405h316v-88h-334l-84 -414h-90l88 414h-457l-86 -414h-88l86 414h-213zM414 457h456l84 403h-456z" />
<glyph unicode="$" horiz-adv-x="960" d="M115 428q0 80 8 121h121q-10 -96 -11 -123q0 -211 125 -295q27 -18 80 -35v641q-59 45 -84.5 64.5t-74 64.5t-70 80t-39.5 88t-18 111q0 131 74.5 214t211.5 101v82h107v-84q72 -12 114 -37q88 -49 131.5 -138t43.5 -183q0 -37 -9 -82h-112q4 31 4 63q0 227 -172 277 v-541q172 -131 248.5 -231.5t76.5 -249.5q0 -199 -176 -301q-55 -33 -149 -53v-162h-107v164q-156 25 -239.5 139.5t-83.5 304.5zM268 1165q0 -141 170 -270v463q-74 -8 -122 -63.5t-48 -129.5zM545 96q92 14 148.5 77t56.5 149q0 96 -48.5 176t-156.5 164v-566z" />
<glyph unicode="%" horiz-adv-x="1343" d="M102 1149q0 188 59.5 288.5t172.5 100.5h4q133 -6 194 -131q39 -80 39 -264q0 -215 -57 -303q-66 -98 -176 -99q-236 0 -236 408zM207 1147q0 -72 2 -112t13 -98t40 -87t74 -29q72 0 102.5 74t30.5 248q0 172 -27.5 243.5t-107.5 71.5q-70 -2 -98.5 -73.5t-28.5 -237.5z M348 -49l563 1587h97l-568 -1587h-92zM780 346q0 397 226 397q127 0 184 -98t57 -311q0 -385 -237 -385q-115 0 -172 102q-58 92 -58 295zM883 367q0 -76 3 -123t15 -103.5t41 -84t74 -27.5q47 0 75.5 26.5t40 80.5t13.5 92t2 106q0 184 -32 259t-101 75q-43 -2 -72 -28 t-40 -76t-15 -92t-4 -105z" />
<glyph unicode="&#x26;" horiz-adv-x="1044" d="M66 336q0 94 29.5 178t85 152.5t88 102.5t85.5 79q-92 262 -92 395q0 127 67.5 211t172.5 84q92 0 155.5 -76t63.5 -184q0 -233 -258 -453q94 -256 215 -508q160 264 201 695h73q-4 -115 -22 -217q-23 -129 -62 -247t-66.5 -175.5t-74.5 -147.5q55 -88 94 -120.5 t88 -32.5q37 0 107 26v-94q-70 -29 -121 -29q-68 0 -118 37t-107 131q-141 -164 -295 -163q-133 0 -221 100t-88 256zM166 344q0 -113 61.5 -191.5t147.5 -78.5q61 0 113.5 31.5t129.5 115.5q-137 268 -233 533q-70 -57 -102.5 -97.5t-65.5 -107.5q-51 -107 -51 -205z M356 1260q0 -156 78 -338q193 184 193 352q0 82 -35 128t-96 46q-59 0 -99.5 -53t-40.5 -135z" />
<glyph unicode="'" horiz-adv-x="468" d="M172 1280v240h127v-240l-20 -268h-86z" />
<glyph unicode="(" horiz-adv-x="575" d="M96 614q0 158 31 300.5t68.5 232.5t100 180t96.5 126t87 89h2v-82q-45 -61 -69.5 -99t-64.5 -120t-64 -170q-23 -82 -41.5 -221t-18.5 -236q0 -240 64 -454q63 -213 184 -371v-84q-98 88 -164 184q-211 309 -211 725z" />
<glyph unicode=")" horiz-adv-x="575" d="M96 1460v82h2q53 -53 87 -89t96.5 -126t100.5 -180t68.5 -232.5t30.5 -300.5q0 -416 -211 -725q-66 -96 -164 -184v84q121 158 185 371q63 215 63 454q0 96 -18.5 235.5t-40.5 221.5q-25 88 -65 170t-64.5 120t-69.5 99z" />
<glyph unicode="*" horiz-adv-x="768" d="M61 1159v131l273 -35l-170 215l112 64l109 -248l100 250l117 -63l-166 -220l271 37v-129l-269 33l168 -215l-114 -66l-109 252l-98 -252l-115 64l162 221z" />
<glyph unicode="+" horiz-adv-x="1363" d="M143 610v88h494v494h88v-494h496v-88h-496v-489h-88v489h-494z" />
<glyph unicode="," horiz-adv-x="468" d="M170 -197q82 84 76 197h-64v229h119v-211q0 -98 -29.5 -158.5t-101.5 -105.5v49z" />
<glyph unicode="-" horiz-adv-x="575" d="M92 465v127h393v-127h-393z" />
<glyph unicode="." horiz-adv-x="468" d="M176 0v231h119v-231h-119z" />
<glyph unicode="/" horiz-adv-x="575" d="M39 -305l375 1825h67l-372 -1825h-70z" />
<glyph unicode="0" horiz-adv-x="960" d="M98 770q0 365 100.5 565.5t282.5 200.5q188 0 284.5 -191.5t96.5 -562.5q0 -408 -93 -605t-286 -197q-186 0 -285.5 202.5t-99.5 587.5zM229 778q0 -115 4.5 -202t19.5 -185t42 -161.5t75 -105.5t113 -42q125 0 183 143q66 168 65 566q0 340 -58.5 492.5t-187.5 152.5 q-133 0 -194.5 -158t-61.5 -500z" />
<glyph unicode="1" horiz-adv-x="960" d="M215 1276v102q123 2 179.5 34t107.5 120h61v-1532h-110v1325q-63 -33 -108.5 -41t-129.5 -8z" />
<glyph unicode="2" horiz-adv-x="960" d="M127 1096q0 195 97.5 316.5t254.5 121.5q150 0 246 -108.5t96 -276.5q0 -141 -69.5 -311t-177 -323t-182.5 -246t-140 -160h590v-109h-711v117q203 195 381 494.5t178 539.5q0 119 -60.5 197.5t-152.5 78.5q-109 0 -175 -92t-66 -241q0 -102 45 -230l-105 -22 q-49 129 -49 254z" />
<glyph unicode="3" horiz-adv-x="960" d="M139 389q0 59 11 131h118q-8 -63 -8 -106q0 -150 62.5 -240t164.5 -90q104 0 168 91t64 241q0 66 -18.5 126t-56.5 113.5t-106.5 80t-160.5 18.5v120q160 6 234.5 80t74.5 224q0 106 -58.5 180t-142.5 74q-88 0 -142 -66t-54 -168q0 -47 18 -125h-121q-10 57 -10 94 q0 164 87 265.5t229 101.5q133 0 225 -104.5t92 -255.5q0 -184 -119 -293q-39 -33 -106 -60q125 -49 194.5 -156.5t69.5 -252.5q0 -176 -108.5 -304t-258.5 -128q-143 0 -242.5 119.5t-99.5 289.5z" />
<glyph unicode="4" horiz-adv-x="960" d="M51 502v143l490 891h137v-934h244v-100h-244v-502h-109v502h-518zM133 602h436v793h-4z" />
<glyph unicode="5" horiz-adv-x="960" d="M145 434v64h111q4 -195 60.5 -304.5t162.5 -109.5q109 0 172.5 115.5t63.5 314.5q0 186 -59.5 301t-155.5 115q-82 0 -128 -51.5t-75 -171.5h-90l53 813h475v-107h-389l-31 -428v-33q88 82 195 82q150 0 243 -136t93 -355q0 -254 -100.5 -407.5t-268.5 -153.5 q-143 0 -237.5 127.5t-94.5 324.5z" />
<glyph unicode="6" horiz-adv-x="960" d="M113 731q0 229 45 432q35 170 128 272.5t214 102.5q133 0 209.5 -90t89.5 -264h-113q-18 250 -186 250q-111 0 -183 -164q-68 -150 -67 -436q113 160 258 159q156 0 248 -131t92 -356q0 -139 -36 -246.5t-93 -165t-114.5 -85t-112.5 -27.5q-182 0 -280.5 194.5 t-98.5 554.5zM248 541q0 -201 69.5 -328t178.5 -127q104 0 163.5 111.5t59.5 310.5q0 176 -64.5 281.5t-171.5 105.5q-109 0 -172 -95t-63 -259z" />
<glyph unicode="7" horiz-adv-x="960" d="M141 1413v107h697v-64q-104 -186 -160.5 -309t-109 -293t-76 -370.5t-29.5 -483.5h-129q8 287 25.5 436.5t64.5 329.5q35 131 87 261t89 201.5t98 184.5h-557z" />
<glyph unicode="8" horiz-adv-x="960" d="M119 420q0 84 19.5 152.5t42 108.5t61.5 77t58 49t52 31q-193 94 -192 317q0 176 91 279.5t247 103.5q150 0 241.5 -101.5t91.5 -265.5q0 -242 -196 -337q88 -33 159.5 -136.5t71.5 -242.5q0 -209 -107.5 -342t-273.5 -133q-158 0 -262 126t-104 314zM250 401 q0 -147 63.5 -236t169.5 -89q256 0 252 368q0 162 -65.5 249t-171.5 87q-248 0 -248 -379zM281 1149q0 -125 58 -197.5t159 -72.5q102 0 159.5 76.5t57.5 218.5q0 119 -58.5 193.5t-152.5 74.5q-106 0 -164.5 -77t-58.5 -216z" />
<glyph unicode="9" horiz-adv-x="960" d="M119 991q0 205 55 322q47 102 131 163.5t176 61.5q176 0 273.5 -186.5t97.5 -520.5q0 -229 -39 -440q-33 -174 -123 -291.5t-227 -117.5q-115 0 -206 97t-89 259h108q12 -121 62.5 -187.5t128.5 -66.5q88 0 149 98q94 154 97 506q-113 -162 -258 -162q-143 0 -239.5 132 t-96.5 333zM250 1038q0 -199 60.5 -308t172.5 -109q106 0 173 98t67 254q0 197 -67.5 330t-174.5 133q-231 -7 -231 -398z" />
<glyph unicode=":" horiz-adv-x="468" d="M176 0v231h119v-231h-119zM176 825v234h119v-234h-119z" />
<glyph unicode=";" horiz-adv-x="468" d="M168 -190q41 41 57.5 81.5t18.5 108.5h-62v236h119v-250q0 -150 -133 -230v54zM182 827v232h119v-232h-119z" />
<glyph unicode="&#x3c;" horiz-adv-x="1368" d="M147 618v78l1072 453v-96l-955 -396l955 -397v-98z" />
<glyph unicode="=" horiz-adv-x="1366" d="M147 383v90h1072v-90h-1072zM147 848v88h1072v-88h-1072z" />
<glyph unicode="&#x3e;" horiz-adv-x="1366" d="M147 162v96l955 397l-955 398v96l1072 -455v-80z" />
<glyph unicode="?" d="M123 1155q0 170 85 275.5t222 105.5q127 0 216 -104.5t89 -255.5q0 -102 -29.5 -187.5t-117.5 -240.5l-31 -54q-76 -133 -99.5 -212t-25.5 -177h-65v78q0 184 127 428l18 37q100 172 100 321q0 113 -51 185.5t-129 72.5q-96 0 -153.5 -74.5t-57.5 -201.5q0 -109 41 -283 h-86q-53 160 -53 287zM340 0v199h121v-199h-121z" />
<glyph unicode="@" horiz-adv-x="1638" d="M-4 520q0 119 27.5 236.5t94 234.5t165 205t252 143.5t342.5 55.5q332 0 532.5 -204t200.5 -540q0 -248 -161 -449.5t-359 -201.5q-117 0 -117 111q0 31 8 73q-158 -184 -350 -184q-145 0 -241.5 123t-96.5 307q0 242 152.5 425t353.5 183q205 0 309 -192l35 168h125 l-170 -803l-8 -45q-4 -33 -5 -35q0 -41 50 -41q139 0 265 180.5t126 380.5q0 166 -60.5 306.5t-167.5 224.5q-166 131 -450 131q-334 0 -551 -226.5t-217 -574.5q0 -346 216 -562t564 -216q291 0 488 129q59 37 96 72.5t96 111.5h102q-61 -92 -105 -138t-122 -99 q-229 -156 -569 -156q-377 0 -613.5 241.5t-236.5 624.5zM420 420q0 -141 71.5 -233.5t180.5 -92.5q143 0 266 179.5t123 392.5q0 123 -71.5 203.5t-180.5 80.5q-98 0 -178 -58t-123 -145.5t-65.5 -172t-22.5 -154.5z" />
<glyph unicode="A" d="M90 0l250 1534h168l256 -1534h-129l-68 479h-278l-70 -479h-129zM301 586h252l-127 874h-4z" />
<glyph unicode="B" horiz-adv-x="960" d="M176 0v1520h242q215 0 311 -105q94 -100 94 -272q0 -246 -186 -346q39 -23 53 -31q68 -41 116 -131t48 -219q0 -217 -117 -330q-88 -86 -262 -86h-299zM305 121h193q106 0 161.5 77.5t55.5 225.5q0 152 -65.5 232.5t-188.5 80.5h-156v-616zM305 856h154q225 0 225 258 q0 150 -54.5 218.5t-174.5 68.5h-150v-545z" />
<glyph unicode="C" horiz-adv-x="962" d="M102 762q0 362 106.5 570t293.5 208q70 0 126 -23.5t92 -57.5t62.5 -88t40 -97t21.5 -107.5t9 -96.5t3 -81h-115q-2 178 -45 283q-63 158 -196 158q-258 0 -258 -648q0 -356 64.5 -524t201.5 -168q229 0 252 490h123q1 -20 0 -39q0 -249 -100 -400q-108 -162 -283 -161 q-188 0 -293 204.5t-105 577.5z" />
<glyph unicode="D" horiz-adv-x="960" d="M156 0v1520h286q217 0 315.5 -171t98.5 -552q0 -180 -14.5 -309.5t-53 -248t-117.5 -179t-198 -60.5h-317zM283 119h151q115 0 160 51q123 131 123 582q0 471 -119 591q-55 57 -195 58h-120v-1282z" />
<glyph unicode="E" d="M199 0v1520h516v-125h-389v-551h329v-123h-329v-602h422v-119h-549z" />
<glyph unicode="F" d="M201 0v1520h610v-121h-483v-551h381v-121h-381v-727h-127z" />
<glyph unicode="G" horiz-adv-x="1044" d="M156 745q0 406 100 602.5t307 196.5q127 0 223 -102q111 -119 111 -395v-91h-121v97q0 381 -217 381q-59 0 -103 -24t-72 -74t-46.5 -107.5t-26.5 -144.5t-11 -164.5t-3 -188.5q0 -336 60.5 -487.5t195.5 -151.5q98 0 157.5 74t59.5 194v258h-188v115h309v-733h-68 q-10 88 -24 150q-109 -170 -271 -170q-182 0 -277 195t-95 570z" />
<glyph unicode="H" horiz-adv-x="960" d="M152 0v1520h127v-662h405v662h127v-1520h-127v754h-405v-754h-127z" />
<glyph unicode="I" horiz-adv-x="468" d="M172 0v1520h127v-1520h-127z" />
<glyph unicode="J" horiz-adv-x="768" d="M68 297v293h116v-275q0 -219 170 -219q82 0 116 50.5t34 172.5v1201h125v-1133q0 -160 -18.5 -225.5t-67.5 -110.5q-74 -74 -189 -74q-133 0 -210.5 85t-75.5 235z" />
<glyph unicode="K" d="M131 0v1520h127v-787l416 787h127l-332 -607l350 -913h-125l-301 776l-135 -244v-532h-127z" />
<glyph unicode="L" d="M176 0v1520h129v-1403h469v-117h-598z" />
<glyph unicode="M" horiz-adv-x="1236" d="M156 0v1520h194l264 -1299l275 1299h192v-1520h-106v1440l-14 2l-302 -1442h-88l-295 1446h-14v-1446h-106z" />
<glyph unicode="N" horiz-adv-x="960" d="M145 0v1520h160l414 -1366l-17 1366h111v-1520h-154l-419 1372l18 -1372h-113z" />
<glyph unicode="O" horiz-adv-x="1044" d="M123 776q2 768 401 768q397 0 398 -747q0 -418 -96.5 -617.5t-299.5 -199.5q-403 -1 -403 796zM264 801q0 -383 59.5 -546t198.5 -163q137 0 197.5 146.5t60.5 478.5q0 393 -57 555t-197 162q-137 0 -199.5 -151.5t-62.5 -481.5z" />
<glyph unicode="P" horiz-adv-x="960" d="M184 0v1520h287q213 0 311.5 -111t98.5 -350q0 -193 -96.5 -300.5t-270.5 -107.5h-203v-651h-127zM311 770h203q119 0 173 72.5t54 230.5q0 176 -57 252t-192 76h-181v-631z" />
<glyph unicode="Q" horiz-adv-x="1044" d="M123 778q0 766 401 766q397 0 398 -745q0 -279 -36 -441.5t-118 -265.5q-70 -90 -186 -106q0 -197 104 -197q72 0 131 88l33 -29q-53 -137 -188 -137q-90 0 -134.5 64.5t-48.5 208.5q-66 0 -129 46t-102 109q-125 195 -125 639zM264 801q0 -387 60.5 -548t197.5 -161 t197.5 146.5t60.5 478.5q0 393 -57 555t-197 162q-137 0 -199.5 -151.5t-62.5 -481.5z" />
<glyph unicode="R" horiz-adv-x="960" d="M182 0v1520h283q195 0 297 -98.5t102 -284.5q0 -195 -125 -295q-51 -39 -151 -66q121 -72 170 -171t51 -310v-37q2 -162 47 -238v-20l-141 -2q-43 88 -43 291v35q0 408 -264 407h-97v-731h-129zM311 842h152q129 0 196.5 73.5t67.5 212.5q0 133 -61.5 204t-173.5 71h-181 v-561z" />
<glyph unicode="S" horiz-adv-x="968" d="M117 446q0 53 10 119h117v-30q-2 -33 -2 -65q0 -380 256 -380q104 0 167.5 71.5t63.5 190.5q0 115 -58.5 190.5t-201.5 190.5l-166 135q-147 125 -147 316q0 156 92 255t235 99q145 0 238.5 -107.5t93.5 -275.5q0 -43 -6 -111h-111l2 33q2 28 2 54q0 136 -54 208 q-65 86 -159 86t-152 -60t-58 -157q0 -90 54 -164.5t199 -183.5q104 -80 163 -134t109 -151.5t50 -212.5q0 -166 -106.5 -275.5t-268.5 -109.5q-102 0 -191 62.5t-130 165.5q-41 94 -41 241z" />
<glyph unicode="T" horiz-adv-x="960" d="M70 1409v111h821v-111h-346v-1409h-129v1409h-346z" />
<glyph unicode="U" horiz-adv-x="1044" d="M193 410v1110h124v-1094q0 -180 47.5 -257t159.5 -77q106 0 152.5 77t46.5 257v1094h129v-1149q0 -391 -342 -391q-150 0 -233.5 111.5t-83.5 318.5z" />
<glyph unicode="V" d="M49 1520h129l256 -1362l240 1362h131l-305 -1520h-125z" />
<glyph unicode="W" horiz-adv-x="1343" d="M90 1520h119l190 -1344l193 1344h166l174 -1344l209 1344h114l-262 -1520h-125l-194 1456l-207 -1456h-129z" />
<glyph unicode="X" d="M35 0l332 780l-314 740h121l256 -594l252 594h119l-312 -738l332 -782h-119l-274 637l-274 -637h-119z" />
<glyph unicode="Y" d="M49 1520h123l256 -842l256 842h123l-318 -912v-608h-124v612z" />
<glyph unicode="Z" d="M109 0l460 1413h-407v107h557l-459 -1409h463v-111h-614z" />
<glyph unicode="[" horiz-adv-x="575" d="M147 -272v1792h385v-97h-274v-1601h277v-94h-388z" />
<glyph unicode="\" horiz-adv-x="575" d="M84 1520h68l374 -1821h-69z" />
<glyph unicode="]" horiz-adv-x="575" d="M41 -178h276v1603h-274v95h385v-1792h-387v94z" />
<glyph unicode="^" horiz-adv-x="1351" d="M227 1006l449 536l448 -536l-65 -56l-383 463l-385 -463z" />
<glyph unicode="_" horiz-adv-x="1024" d="M-20 -154h1064v-102h-1064v102z" />
<glyph unicode="`" horiz-adv-x="681" d="M127 1499h201l127 -264h-103z" />
<glyph unicode="a" d="M96 225q0 152 72 223.5t242 139.5q88 35 139 65v138q0 188 -160 188q-76 0 -120 -39t-44 -106q0 -45 21 -86h-115q-8 23 -8 77q0 117 69.5 182.5t194.5 65.5q139 0 205.5 -71.5t66.5 -225.5v-588q0 -115 56 -114q29 0 67 49l31 -33q-59 -111 -145 -110q-66 0 -92.5 41.5 t-28.5 146.5q-143 -188 -271 -188q-78 0 -129 69.5t-51 175.5zM215 248q0 -174 117 -174q55 0 104 38t115 132v348q-18 -10 -96 -49q-66 -33 -96.5 -50.5t-70.5 -53.5t-56.5 -82t-16.5 -109z" />
<glyph unicode="b" d="M137 -8v1528h113v-652q33 96 87 150.5t118 54.5q133 0 211.5 -140t78.5 -376q0 -578 -299 -577q-123 0 -210 141l-56 -129h-43zM248 225q72 -147 182 -147q193 0 193 457q0 432 -179 432q-76 0 -136 -89.5t-60 -201.5v-451z" />
<glyph unicode="c" d="M125 518q0 262 85 408.5t236 146.5q115 0 192 -96t77 -240v-49h-105q0 293 -164 293q-195 0 -194 -444q0 -463 199 -463q168 0 178 315h110q-8 -156 -45 -239q-74 -170 -245 -170q-152 0 -239 145q-85 142 -85 382v11z" />
<glyph unicode="d" d="M96 535q0 248 75 391t204 143q141 0 223 -207v658h111v-1520h-111v186q-72 -209 -231 -209q-125 0 -198 151t-73 407zM221 520q0 -449 189 -448q80 0 135 104.5t55 155.5v305q0 131 -62.5 230.5t-144.5 99.5q-74 0 -123 -99q-49 -96 -49 -348z" />
<glyph unicode="e" d="M117 518q0 254 88 404.5t237 150.5q66 0 127.5 -42t96.5 -113q68 -131 71 -396h-493q2 -61 4 -96t8 -97.5t19.5 -100.5t35 -77.5t56 -59t82.5 -19.5q172 0 184 315h104q-8 -172 -55 -256q-78 -152 -227 -151q-158 0 -248 144t-90 394zM246 614h375q-4 188 -48.5 274.5 t-132.5 86.5q-184 -1 -194 -361z" />
<glyph unicode="f" horiz-adv-x="575" d="M90 967v92h141v229q0 246 183 246q37 0 90 -18v-115q-61 27 -96 26q-29 0 -47.5 -30.5t-18.5 -79.5v-258h162v-92h-162v-967h-111v967h-141z" />
<glyph unicode="g" horiz-adv-x="960" d="M135 -96h115q27 -51 65.5 -68.5t120.5 -17.5q127 0 187.5 49t60.5 151v127q-100 -145 -248 -145q-139 0 -220 147.5t-81 403.5q0 281 92 405q88 117 213 117q166 0 244 -209v195h111v-1012q0 -180 -87 -259t-284 -79q-119 0 -184.5 45.5t-104.5 149.5zM254 547 q0 -442 219 -443q90 0 150.5 78t60.5 195v309q0 100 -71.5 194.5t-149.5 94.5q-209 0 -209 -428z" />
<glyph unicode="h" d="M156 0v1520h110v-564q102 117 211 117q106 0 167 -73.5t61 -200.5v-799h-111v817q0 84 -36 130t-99 46q-100 0 -193 -153v-840h-110z" />
<glyph unicode="i" horiz-adv-x="468" d="M178 0v1059h111v-1059h-111zM178 1315v205h113v-205h-113z" />
<glyph unicode="j" horiz-adv-x="468" d="M16 -184q111 4 141.5 53t30.5 172v1018h111v-967q0 -203 -55.5 -293t-227.5 -90v107zM186 1315v205h109v-205h-109z" />
<glyph unicode="k" horiz-adv-x="768" d="M141 0v1520h111v-1022l352 561h113l-289 -441l301 -618h-115l-249 512l-111 -166v-346h-113z" />
<glyph unicode="l" horiz-adv-x="468" d="M180 0v1520h111v-1520h-111z" />
<glyph unicode="m" horiz-adv-x="1236" d="M125 0v1059h111v-129q96 143 219 143q137 0 202 -153q86 154 224 153q106 0 168.5 -76.5t62.5 -210.5v-786h-111v748q0 246 -129 245q-78 0 -138 -77.5t-60 -112.5v-803h-111v735q0 51 -3 85t-13 80t-37 69.5t-68 23.5q-133 0 -206 -198v-795h-111z" />
<glyph unicode="n" d="M156 0v1059h110v-139q84 152 213 151q100 0 160.5 -74.5t60.5 -199.5v-797h-110v768q0 119 -30 172t-97 53q-53 0 -109.5 -57t-87.5 -141v-795h-110z" />
<glyph unicode="o" d="M117 502q0 164 28.5 282.5t77.5 177t99.5 84t105.5 25.5q145 0 228 -138t83 -392q0 -262 -82 -411.5t-225 -149.5t-229 142t-86 380zM246 541q0 -244 44 -355.5t140 -111.5q51 0 88 36.5t54.5 83t26.5 122t10 117.5t1 106q0 440 -182 440t-182 -438z" />
<glyph unicode="p" d="M141 -291v1350h109v-180q53 111 99 152.5t112 41.5q133 0 210 -148.5t77 -404.5q0 -182 -31 -290.5t-101 -178.5q-61 -61 -137 -61q-147 0 -227 205v-486h-111zM252 338q41 -131 86 -191.5t104 -60.5q88 0 137.5 104.5t49.5 292.5q0 53 -3 103.5t-13.5 124t-29 126 t-54 91.5t-83.5 39q-74 0 -134 -89.5t-60 -197.5v-342z" />
<glyph unicode="q" d="M104 549q0 244 75 383t202 139q141 0 215 -201v189h109v-1350h-111v430q-49 -82 -95 -115.5t-112 -33.5q-86 0 -154 71q-129 138 -129 488zM229 508q0 -207 51.5 -316.5t133.5 -109.5q68 0 125 75.5t57 164.5v352q0 109 -60.5 201t-132.5 92q-174 0 -174 -459z" />
<glyph unicode="r" horiz-adv-x="661" d="M172 0v1059h109v-268q66 147 147 229q56 56 138 56q17 0 36 -3v-135l-31 2q-17 2 -33 2q-93 0 -137 -51q-51 -57 -84.5 -140t-33.5 -108v-643h-111z" />
<glyph unicode="s" horiz-adv-x="768" d="M96 340h101q10 -143 57 -205.5t141 -62.5q63 0 111.5 54t48.5 124q0 41 -13.5 74.5t-44 62.5t-53 44t-69.5 44q-66 37 -102.5 62.5t-79.5 65.5t-62.5 89t-19.5 111q0 115 72.5 193.5t178.5 78.5q63 0 112.5 -20.5t78.5 -60.5t47 -74.5t26.5 -89t10.5 -78t4 -64.5h-100 q-4 137 -50.5 213t-125.5 76q-61 0 -103.5 -46t-42.5 -114q0 -72 50 -119t159 -110q53 -31 84 -51.5t73 -59.5t62.5 -89t20.5 -114q0 -131 -80 -212.5t-207 -81.5q-275 0 -285 360z" />
<glyph unicode="t" horiz-adv-x="468" d="M29 965v71q33 2 52 7.5t48 28t45 62.5t28.5 117.5t14.5 186.5h51v-379h144v-94h-150v-818q0 -76 51 -75q37 0 78 51l31 -43q-72 -100 -152 -100q-117 0 -116 180v805h-125z" />
<glyph unicode="u" d="M154 260v799h110v-783q0 -217 127 -217q74 0 135.5 81t61.5 114v805h110v-1059h-110v133q-78 -152 -211 -151q-102 0 -162.5 74.5t-60.5 203.5z" />
<glyph unicode="v" horiz-adv-x="768" d="M98 1059h105l180 -955l184 955h103l-234 -1059h-108z" />
<glyph unicode="w" horiz-adv-x="1044" d="M37 1059h110l175 -928l147 928h113l149 -932l166 932h111l-224 -1059h-110l-148 928l-147 -928h-111z" />
<glyph unicode="x" horiz-adv-x="661" d="M39 0l233 537l-233 522h108l181 -395l174 395h102l-223 -516l242 -543h-107l-190 416l-185 -416h-102z" />
<glyph unicode="y" horiz-adv-x="661" d="M37 1059h113l186 -871l176 871h113l-324 -1378h-82l76 323z" />
<glyph unicode="z" horiz-adv-x="661" d="M66 0l374 956h-331v103h481l-375 -955h375v-104h-524z" />
<glyph unicode="{" horiz-adv-x="681" d="M119 561v131q33 0 56.5 5t51 24.5t45 55.5t28.5 102.5t11 158.5v193q0 154 69 228.5t224 74.5v-102q-121 0 -150.5 -53.5t-29.5 -256.5q0 -287 -55 -372q-29 -45 -57.5 -71t-86.5 -52q57 -27 86 -52.5t58 -70.5q55 -86 55 -373q0 -203 29.5 -256t150.5 -53v-103 q-156 0 -224.5 75t-68.5 229v192q0 92 -11 158.5t-28.5 102.5t-45 55.5t-51 24.5t-56.5 5z" />
<glyph unicode="|" horiz-adv-x="1015" d="M463 -512v2048h88v-2048h-88z" />
<glyph unicode="}" horiz-adv-x="681" d="M78 -178q121 0 150.5 53t29.5 256q0 287 55 373q29 45 57.5 70.5t86.5 52.5q-57 27 -86 52.5t-58 70.5q-55 86 -55 372q0 203 -29.5 256.5t-150.5 53.5v102q156 0 224.5 -75t68.5 -228v-193q0 -92 11 -158.5t28.5 -102.5t45 -55.5t51 -24.5t56.5 -5v-131q-33 0 -56.5 -5 t-51 -24.5t-45 -55.5t-28.5 -102.5t-11 -158.5v-192q0 -154 -69 -229t-224 -75v103z" />
<glyph unicode="~" horiz-adv-x="1343" d="M137 625v100q156 121 289 121q86 0 287 -96q141 -68 209 -68q55 0 113.5 25.5t89 47t81.5 64.5v-104q-145 -121 -284 -121q-82 0 -228 65q-137 63 -181 80t-87 17q-119 0 -289 -131z" />
<glyph unicode="&#xa1;" horiz-adv-x="468" d="M172 -268l37 1212h53l35 -1212h-125zM176 1049v198h119v-198h-119z" />
<glyph unicode="&#xa2;" d="M143 530q0 160 40 288t110 192q78 68 211 61l104 465h84l-106 -496q88 -59 116.5 -143t28.5 -205h-100q0 86 -21 162q-12 49 -45 80l-178 -830q35 -29 84 -28q27 0 52.5 12t56 42t50 97.5t17.5 163.5h107q-4 -197 -78 -302t-211 -105q-37 0 -100 16l-62 -289h-96l76 346 q-39 45 -61.5 82t-50.5 142.5t-28 248.5zM268 575q0 -274 45 -370l170 774q-14 4 -28 4q-90 0 -144 -115q-43 -94 -43 -293z" />
<glyph unicode="&#xa3;" horiz-adv-x="960" d="M57 27q0 59 63.5 116.5t149.5 73.5q16 41 17 158q0 150 -37 336h-182v92h165q-4 31 -16 115q-29 145 -29 256q0 164 92.5 264t241.5 100q330 0 330 -438h-115q2 104 -21.5 177t-63.5 104.5t-73.5 43t-68.5 11.5q-94 0 -146.5 -73t-52.5 -202q0 -147 49 -360h353v-90h-334 q14 -113 14 -246q0 -102 -41 -250q68 -20 137 -65q90 -53 142 -54q162 0 166 305h108q-2 -139 -21.5 -210.5t-68.5 -124.5q-80 -84 -203 -84q-96 0 -231 88q-37 23 -78 45q-121 -133 -199 -133q-47 0 -47 45z" />
<glyph unicode="&#xa4;" horiz-adv-x="1388" d="M225 250l125 123q-31 43 -46 68.5t-34.5 86t-19.5 127.5q0 150 100 283l-125 123l62 63l125 -123q43 31 69.5 46.5t87 34t125.5 18.5q143 0 283 -101l125 125l61 -63l-125 -123q100 -139 101 -283q0 -68 -16.5 -124t-34 -84.5t-50.5 -71.5l125 -125l-61 -62l-125 125 q-137 -102 -283 -102q-68 0 -126 17.5t-85.5 35t-70.5 47.5l-125 -123zM338 655q0 -145 104.5 -249.5t251.5 -104.5q145 0 250 104.5t105 249.5q0 147 -104.5 252t-250.5 105q-147 0 -251.5 -105t-104.5 -252z" />
<glyph unicode="&#xa5;" d="M47 451v67h315v225h-315v68h297l-297 709h123l256 -701l254 701h127l-299 -709h299v-68h-320v-225h320v-67h-320v-451h-125v451h-315z" />
<glyph unicode="&#xa6;" horiz-adv-x="1015" d="M463 -358v716h88v-716h-88zM463 666v716h88v-716h-88z" />
<glyph unicode="&#xa7;" horiz-adv-x="960" d="M147 686q0 168 160 322q-59 72 -81.5 123t-22.5 114q0 129 81 214t208 85q180 0 247 -166q29 -70 31 -182h-111q-10 252 -170 252q-72 0 -119.5 -52.5t-47.5 -125.5q0 -80 44 -143.5t162 -151.5q176 -135 230.5 -232.5t54.5 -212.5q0 -94 -36 -164.5t-122 -140.5 q33 -39 50.5 -63.5t35 -74.5t17.5 -110q0 -125 -83 -205.5t-210 -80.5q-82 0 -146.5 42t-95.5 113q-27 61 -26 191h106q10 -250 168 -250q72 0 121 52t49 130q0 76 -43 135.5t-170 159.5q-55 43 -88 73t-85 87t-80 123.5t-28 138.5zM258 723q0 -63 23.5 -119.5t82 -117 t92 -90t117.5 -95.5l25 -18q111 100 111 221q0 193 -271 387q-4 2 -69 55q-61 -59 -86 -108t-25 -115z" />
<glyph unicode="&#xa8;" horiz-adv-x="681" d="M125 1245v174h123v-174h-123zM434 1245v174h123v-174h-123z" />
<glyph unicode="&#xa9;" horiz-adv-x="1638" d="M55 780.5q0 317.5 224.5 540.5t540 223t539.5 -223t224 -540.5t-224 -541t-539.5 -223.5t-540 223.5t-224.5 541zM150 780.5q0 -278.5 195.5 -474t474 -195.5t475 195.5t196.5 474t-196.5 475t-475 196.5t-474 -196.5t-195.5 -475zM440 776q0 186 108.5 304t280.5 118 q209 0 322 -221l-96 -29q-72 166 -224 166q-129 0 -205.5 -90t-76.5 -240q0 -156 75.5 -253t196.5 -97q57 0 102.5 19.5t74 56.5t42 62.5t29.5 66.5l90 -33q-39 -123 -125 -192.5t-211 -69.5q-162 0 -272.5 125t-110.5 307z" />
<glyph unicode="&#xaa;" horiz-adv-x="575" d="M82 1087.5q0 65.5 45 110.5t162 96l53 25l2 61q0 104 -92 105q-37 0 -58.5 -19.5t-21.5 -54.5q0 -23 12 -49h-75q-8 33 -9 49q0 59 43 96t111 37q78 0 120 -43t42 -123v-293q0 -82 26 -81q20 0 45 22l23 -29q-53 -61 -96 -61q-57 0 -78 82q-70 -80 -137 -80q-51 0 -84 42 t-33 107.5zM160 1098q2 -41 22.5 -67.5t50.5 -26.5q49 0 109 67v203l-8 -2q-104 -51 -139 -82t-35 -92z" />
<glyph unicode="&#xab;" horiz-adv-x="661" d="M37 606l194 453h103l-195 -451l191 -450h-101zM332 608l196 451h99l-197 -449l195 -452h-101z" />
<glyph unicode="&#xac;" horiz-adv-x="1366" d="M145 856v88h1074v-575h-86v487h-988z" />
<glyph unicode="&#xad;" horiz-adv-x="575" d="M92 465v127h393v-127h-393z" />
<glyph unicode="&#xae;" horiz-adv-x="1638" d="M55 780.5q0 317.5 224.5 540.5t540 223t539.5 -223t224 -540.5t-224 -541t-539.5 -223.5t-540 223.5t-224.5 541zM150 780.5q0 -278.5 195.5 -474t474 -195.5t475 195.5t196.5 474t-196.5 475t-475 196.5t-474 -196.5t-195.5 -475zM510 371v803h334q127 0 199.5 -57.5 t72.5 -158.5q0 -57 -26 -104q-18 -35 -42 -57.5t-57 -34.5t-53 -17.5t-59 -11.5q78 -29 114 -71q55 -68 154 -291h-121q-49 106 -71.5 149t-55.5 94.5t-62.5 66.5t-72.5 26.5t-107 11.5h-47v-348h-100zM610 803h133q139 0 197.5 33.5t58.5 115.5q0 80 -52 110t-187 30h-150 v-289z" />
<glyph unicode="&#xaf;" horiz-adv-x="681" d="M39 1260v110h604v-110h-604z" />
<glyph unicode="&#xb0;" horiz-adv-x="819" d="M123 1251q0 119 84 204t202.5 85t203.5 -84t85 -205q0 -117 -84 -199.5t-202.5 -82.5t-203.5 82.5t-85 199.5zM205 1253q0 -84 60.5 -143t144.5 -59t144 59t60 143t-60 144.5t-144 60.5t-144.5 -60.5t-60.5 -144.5z" />
<glyph unicode="&#xb1;" horiz-adv-x="1366" d="M145 0v88h1076v-88h-1076zM145 807v88h492v496h88v-496h496v-88h-496v-492h-88v492h-492z" />
<glyph unicode="&#xb2;" horiz-adv-x="614" d="M131 690v55q319 350 320 566q0 68 -33 108.5t-88.5 40.5t-90 -52t-34.5 -136q0 -55 12 -96l-63 -21q-23 76 -23 129q0 113 54.5 180.5t144.5 67.5q92 0 146 -62.5t54 -164.5q0 -72 -38.5 -160t-81.5 -150.5t-125 -171.5l-45 -61h290v-72h-399z" />
<glyph unicode="&#xb3;" horiz-adv-x="602" d="M121 895q0 8 4 61h78q-10 -211 119 -211q55 0 92 52.5t37 130.5q0 70 -43 128t-148 48v78q178 14 178 161q0 57 -32.5 92t-86.5 35q-41 0 -69.5 -31.5t-28.5 -80.5q0 -27 4 -51h-80q-12 76 34 153.5t145 77.5q84 0 135 -55.5t51 -147.5q0 -109 -117 -190 q76 -41 109 -93.5t33 -133.5q0 -106 -63.5 -174t-162.5 -68q-76 0 -132 64.5t-56 154.5z" />
<glyph unicode="&#xb4;" horiz-adv-x="681" d="M227 1235l129 264h199l-225 -264h-103z" />
<glyph unicode="&#xb5;" horiz-adv-x="1138" d="M172 -416v1475h111v-504q2 -180 17 -249.5t67 -133.5q80 -94 198 -94q131 0 203 80q53 63 70.5 135t19.5 252v514h111v-1059h-111v121q-117 -143 -283 -144q-78 0 -141 27t-89 50.5t-62 66.5v-537h-111z" />
<glyph unicode="&#xb6;" horiz-adv-x="1331" d="M88 1102q0 190 130 304t349 114h693v-123h-197v-1753h-125v1753h-274v-1753h-125v1034q-223 0 -337 121t-114 303z" />
<glyph unicode="&#xb7;" horiz-adv-x="468" d="M178 496v231h113v-231h-113z" />
<glyph unicode="&#xb8;" horiz-adv-x="681" d="M106 -395l9 84q68 -6 82 -6q86 0 135 24.5t49 67.5q0 18 -9.5 35.5t-47 33t-99.5 11.5l47 168h103l-35 -123q178 -6 178 -136q0 -82 -79 -126t-226 -44q-44 1 -107 11z" />
<glyph unicode="&#xb9;" horiz-adv-x="575" d="M115 1380l2 70q90 0 124.5 15.5t61.5 70.5h55v-846h-82v719q-44 -27 -161 -29z" />
<glyph unicode="&#xba;" horiz-adv-x="468" d="M53 1241q0 135 50.5 219t132.5 84q80 0 130 -82t50 -215q0 -145 -48.5 -227t-131.5 -82q-82 0 -132.5 83t-50.5 220zM137 1241q0 -248 99 -248q51 0 73.5 58.5t22.5 191.5q0 129 -23.5 185.5t-77.5 56.5q-94 0 -94 -244z" />
<glyph unicode="&#xbb;" horiz-adv-x="661" d="M37 156l194 450l-194 453h98l197 -453l-197 -450h-98zM332 156l194 450l-194 453h100l195 -453l-195 -450h-100z" />
<glyph unicode="&#xbc;" horiz-adv-x="1343" d="M147 -297l1014 1845h90l-1009 -1845h-95zM205 1382v82q145 2 186 70l53 2v-846h-82v715q-63 -23 -157 -23zM766 -45v113l250 491h102v-520h99v-82h-97v-248h-80v246h-274zM834 39h204v399z" />
<glyph unicode="&#xbd;" horiz-adv-x="1343" d="M150 -297l1017 1839h88l-1013 -1839h-92zM199 1382v80q78 0 117.5 15.5t68.5 54.5l51 2v-844h-82v711q-53 -21 -155 -19zM854 295q0 117 57.5 189.5t149.5 72.5q86 0 144.5 -64.5t58.5 -158.5q0 -207 -281 -545h287v-80h-406v60q305 354 305 553q0 68 -29.5 111.5 t-74.5 43.5q-53 0 -85 -45t-32 -121q0 -53 15 -112l-91 -27q-18 76 -18 123z" />
<glyph unicode="&#xbe;" horiz-adv-x="1349" d="M143 895q0 2 4 55h95q-10 -100 26.5 -149t81.5 -49q55 0 89 43t34 114q0 57 -15.5 94t-48 54.5t-54 22.5t-60.5 10v92q166 16 166 155q0 49 -31 82t-76 33q-94 0 -94 -152h-92q6 231 184 232q84 0 135.5 -55.5t51.5 -145.5q0 -61 -25 -103t-86 -89q76 -43 106.5 -95.5 t30.5 -134.5q0 -100 -61.5 -167.5t-151.5 -67.5q-94 0 -151.5 61.5t-57.5 159.5zM158 -297l1020 1843h90l-1018 -1843h-92zM772 -43v113l252 487h104v-518h97v-82h-97v-248h-81v248h-275zM840 35h207v397z" />
<glyph unicode="&#xbf;" d="M115 47q0 121 39 226.5t116 242.5l29 51q80 143 100.5 207t22.5 170h63q-2 -135 -26.5 -245.5t-106.5 -272.5l-12 -27q-100 -164 -100 -309q0 -121 50 -194.5t132 -73.5q98 0 152.5 76.5t54.5 218.5q0 74 -23 192l-14 72h88l10 -33q39 -143 39 -244q0 -174 -85 -282.5 t-220 -108.5q-127 0 -218 98.5t-91 235.5zM395 1051v196h121v-196h-121z" />
<glyph unicode="&#xc0;" d="M90 0l250 1534h168l256 -1534h-129l-68 479h-278l-70 -479h-129zM213 1960h201l127 -264h-103zM301 586h252l-127 874h-4z" />
<glyph unicode="&#xc1;" d="M90 0l250 1534h168l256 -1534h-129l-68 479h-278l-70 -479h-129zM301 586h252l-127 874h-4zM313 1696l129 264h199l-225 -264h-103z" />
<glyph unicode="&#xc2;" d="M90 0l250 1534h168l256 -1534h-129l-68 479h-278l-70 -479h-129zM150 1696l196 264h164l197 -264h-138l-139 182l-139 -182h-141zM301 586h252l-127 874h-4z" />
<glyph unicode="&#xc3;" d="M90 0l250 1534h168l256 -1534h-129l-68 479h-278l-70 -479h-129zM106 1726q12 188 134 189q53 0 184 -45q88 -33 123 -33q55 0 67 78h93q-6 -90 -43 -139.5t-97 -49.5q-43 0 -174 48q-80 33 -129 32q-35 0 -49 -17t-20 -63h-89zM301 586h252l-127 874h-4z" />
<glyph unicode="&#xc4;" d="M90 0l250 1534h168l256 -1534h-129l-68 479h-278l-70 -479h-129zM211 1706v174h123v-174h-123zM301 586h252l-127 874h-4zM520 1706v174h123v-174h-123z" />
<glyph unicode="&#xc5;" d="M90 0l250 1534h168l256 -1534h-129l-68 479h-278l-70 -479h-129zM248 1829q0 74 52 127t126 53q76 0 128 -53t52 -127q0 -76 -52 -128t-126 -52q-76 0 -128 52t-52 128zM301 586h252l-127 874h-4zM313 1825q0 -45 33 -78t80 -33q49 0 84 33t35 80t-35 81t-84 34 q-47 0 -80 -34t-33 -83z" />
<glyph unicode="&#xc6;" horiz-adv-x="1236" d="M29 0l553 1520h579v-117h-391v-567h328v-117h-328v-600h420v-119h-547v559h-303l-193 -559h-118zM375 666h268v737h-16z" />
<glyph unicode="&#xc7;" horiz-adv-x="962" d="M102 762q0 362 106.5 570t293.5 208q70 0 126 -23.5t92 -57.5t62.5 -88t40 -97t21.5 -107.5t9 -96.5t3 -81h-115q-2 178 -45 283q-63 158 -196 158q-258 0 -258 -648q0 -356 64.5 -524t201.5 -168q229 0 252 490h123q8 -252 -82 -410t-242 -182l-24 -88q178 -6 178 -136 q0 -82 -79 -126t-226 -44q-43 0 -107 11l8 84q68 -6 82 -6q86 0 135 24.5t49 67.5q0 18 -9 35.5t-47 33t-99 11.5l37 129q-170 25 -262.5 226.5t-92.5 551.5z" />
<glyph unicode="&#xc8;" d="M199 0v1520h516v-125h-389v-551h329v-123h-329v-602h422v-119h-549zM213 1960h201l127 -264h-103z" />
<glyph unicode="&#xc9;" d="M199 0v1520h516v-125h-389v-551h329v-123h-329v-602h422v-119h-549zM354 1696l129 264h199l-225 -264h-103z" />
<glyph unicode="&#xca;" d="M180 1696l197 264h164l196 -264h-137l-139 182l-139 -182h-142zM199 0v1520h516v-125h-389v-551h329v-123h-329v-602h422v-119h-549z" />
<glyph unicode="&#xcb;" d="M199 0v1520h516v-125h-389v-551h329v-123h-329v-602h422v-119h-549zM242 1706v174h123v-174h-123zM551 1706v174h123v-174h-123z" />
<glyph unicode="&#xcc;" horiz-adv-x="468" d="M20 1960h201l127 -264h-102zM172 0v1520h127v-1520h-127z" />
<glyph unicode="&#xcd;" horiz-adv-x="468" d="M121 1696l129 264h199l-226 -264h-102zM172 0v1520h127v-1520h-127z" />
<glyph unicode="&#xce;" horiz-adv-x="468" d="M-43 1696l197 264h163l197 -264h-137l-139 182l-140 -182h-141zM172 0v1520h127v-1520h-127z" />
<glyph unicode="&#xcf;" horiz-adv-x="468" d="M18 1706v174h123v-174h-123zM172 0v1520h127v-1520h-127zM328 1706v174h123v-174h-123z" />
<glyph unicode="&#xd0;" horiz-adv-x="960" d="M33 745v113h121v662h288q219 0 316.5 -178.5t97.5 -581.5q0 -133 -10 -240.5t-36 -207t-67 -166t-106.5 -106.5t-153.5 -40h-329v745h-121zM283 119h176q141 0 199.5 155.5t58.5 493.5q0 352 -63.5 493.5t-223.5 141.5h-147v-545h211v-113h-211v-626z" />
<glyph unicode="&#xd1;" horiz-adv-x="960" d="M145 0v1520h160l414 -1366l-17 1366h111v-1520h-154l-419 1372l18 -1372h-113zM160 1726q12 188 133 189q53 0 184 -45q88 -33 123 -33q55 0 68 78h92q-6 -90 -43 -139.5t-96 -49.5q-43 0 -175 48q-80 33 -129 32q-35 0 -49 -17t-20 -63h-88z" />
<glyph unicode="&#xd2;" horiz-adv-x="1044" d="M123 776q2 768 401 768q397 0 398 -747q0 -418 -96.5 -617.5t-299.5 -199.5q-403 -1 -403 796zM264 801q0 -383 59.5 -546t198.5 -163q137 0 197.5 146.5t60.5 478.5q0 393 -57 555t-197 162q-137 0 -199.5 -151.5t-62.5 -481.5zM299 1960h201l127 -264h-103z" />
<glyph unicode="&#xd3;" horiz-adv-x="1044" d="M123 776q2 768 401 768q397 0 398 -747q0 -418 -96.5 -617.5t-299.5 -199.5q-403 -1 -403 796zM264 801q0 -383 59.5 -546t198.5 -163q137 0 197.5 146.5t60.5 478.5q0 393 -57 555t-197 162q-137 0 -199.5 -151.5t-62.5 -481.5zM410 1696l129 264h198l-225 -264h-102z " />
<glyph unicode="&#xd4;" horiz-adv-x="1044" d="M123 776q2 768 401 768q397 0 398 -747q0 -418 -96.5 -617.5t-299.5 -199.5q-403 -1 -403 796zM246 1696l196 264h164l197 -264h-137l-140 182l-139 -182h-141zM264 801q0 -383 59.5 -546t198.5 -163q137 0 197.5 146.5t60.5 478.5q0 393 -57 555t-197 162 q-137 0 -199.5 -151.5t-62.5 -481.5z" />
<glyph unicode="&#xd5;" horiz-adv-x="1044" d="M123 776q2 768 401 768q397 0 398 -747q0 -418 -96.5 -617.5t-299.5 -199.5q-403 -1 -403 796zM203 1726q12 188 133 189q53 0 184 -45q88 -33 123 -33q55 0 68 78h92q-6 -90 -43 -139.5t-96 -49.5q-43 0 -175 48q-80 33 -129 32q-35 0 -49 -17t-20 -63h-88zM264 801 q0 -383 59.5 -546t198.5 -163q137 0 197.5 146.5t60.5 478.5q0 393 -57 555t-197 162q-137 0 -199.5 -151.5t-62.5 -481.5z" />
<glyph unicode="&#xd6;" horiz-adv-x="1044" d="M123 776q2 768 401 768q397 0 398 -747q0 -418 -96.5 -617.5t-299.5 -199.5q-403 -1 -403 796zM264 801q0 -383 59.5 -546t198.5 -163q137 0 197.5 146.5t60.5 478.5q0 393 -57 555t-197 162q-137 0 -199.5 -151.5t-62.5 -481.5zM307 1706v174h123v-174h-123zM616 1706 v174h123v-174h-123z" />
<glyph unicode="&#xd7;" horiz-adv-x="1368" d="M199 233l424 420l-424 428l59 62l426 -426l426 426l61 -62l-423 -428l419 -420l-61 -63l-422 422l-424 -422z" />
<glyph unicode="&#xd8;" horiz-adv-x="1044" d="M35 47l143 246q-51 209 -51 481q0 377 99.5 572.5t293.5 195.5q193 0 293 -182l107 180l92 -63l-146 -242q55 -162 56 -467q0 -88 -4.5 -159.5t-16.5 -170t-39.5 -172t-69.5 -142.5t-112 -105.5t-160 -36.5q-176 0 -289 180l-104 -174zM264 737q0 -180 15 -278l454 766 q-31 111 -82 159t-127 48q-80 0 -134 -51.5t-80.5 -153t-36 -215t-9.5 -275.5zM307 291q61 -201 213 -201q47 0 86 17.5t65.5 53.5t46 73.5t32 99t19.5 105.5t9 119t3 114t1 110q0 176 -16 281z" />
<glyph unicode="&#xd9;" horiz-adv-x="1044" d="M193 410v1110h124v-1094q0 -180 47.5 -257t159.5 -77q106 0 152.5 77t46.5 257v1094h129v-1149q0 -391 -342 -391q-150 0 -233.5 111.5t-83.5 318.5zM299 1960h201l127 -264h-103z" />
<glyph unicode="&#xda;" horiz-adv-x="1044" d="M193 410v1110h124v-1094q0 -180 47.5 -257t159.5 -77q106 0 152.5 77t46.5 257v1094h129v-1149q0 -391 -342 -391q-150 0 -233.5 111.5t-83.5 318.5zM410 1696l129 264h198l-225 -264h-102z" />
<glyph unicode="&#xdb;" horiz-adv-x="1044" d="M193 410v1110h124v-1094q0 -180 47.5 -257t159.5 -77q106 0 152.5 77t46.5 257v1094h129v-1149q0 -391 -342 -391q-150 0 -233.5 111.5t-83.5 318.5zM246 1696l196 264h164l197 -264h-137l-140 182l-139 -182h-141z" />
<glyph unicode="&#xdc;" horiz-adv-x="1044" d="M193 410v1110h124v-1094q0 -180 47.5 -257t159.5 -77q106 0 152.5 77t46.5 257v1094h129v-1149q0 -391 -342 -391q-150 0 -233.5 111.5t-83.5 318.5zM307 1706v174h123v-174h-123zM616 1706v174h123v-174h-123z" />
<glyph unicode="&#xdd;" d="M49 1520h123l256 -842l256 842h123l-318 -912v-608h-124v612zM313 1696l129 264h199l-225 -264h-103z" />
<glyph unicode="&#xde;" horiz-adv-x="960" d="M180 0v1520h127v-326h139q223 0 314 -92q115 -119 114 -340q0 -215 -95 -325.5t-277 -110.5h-195v-326h-127zM307 446h211q219 0 219 302q0 172 -53 250.5t-172 78.5h-205v-631z" />
<glyph unicode="&#xdf;" d="M145 0v1223q0 139 77 228t200 89q121 0 198.5 -92t77.5 -236q0 -113 -37.5 -177t-121.5 -97q43 -16 63.5 -27.5t51 -50.5t51.5 -100q35 -100 34 -303q0 -229 -55 -352t-158 -123q-57 0 -94 28.5t-52 87t-19.5 105.5t-4.5 123h70q2 -150 19.5 -204t66.5 -54 q55 0 78.5 81.5t23.5 278.5q0 82 -1 128t-6 108.5t-17 96.5t-32.5 67.5t-53.5 49t-78 15.5v88q88 8 121 53t33 158q0 256 -166 256q-74 0 -117 -64.5t-43 -173.5v-1210h-109z" />
<glyph unicode="&#xe0;" d="M96 225q0 152 72 223.5t242 139.5q88 35 139 65v138q0 188 -160 188q-76 0 -120 -39t-44 -106q0 -45 21 -86h-115q-8 23 -8 77q0 117 69.5 182.5t194.5 65.5q139 0 205.5 -71.5t66.5 -225.5v-588q0 -115 56 -114q29 0 67 49l31 -33q-59 -111 -145 -110q-66 0 -92.5 41.5 t-28.5 146.5q-143 -188 -271 -188q-78 0 -129 69.5t-51 175.5zM172 1499h201l127 -264h-103zM215 248q0 -174 117 -174q55 0 104 38t115 132v348q-18 -10 -96 -49q-66 -33 -96.5 -50.5t-70.5 -53.5t-56.5 -82t-16.5 -109z" />
<glyph unicode="&#xe1;" d="M96 225q0 152 72 223.5t242 139.5q88 35 139 65v138q0 188 -160 188q-76 0 -120 -39t-44 -106q0 -45 21 -86h-115q-8 23 -8 77q0 117 69.5 182.5t194.5 65.5q139 0 205.5 -71.5t66.5 -225.5v-588q0 -115 56 -114q29 0 67 49l31 -33q-59 -111 -145 -110q-66 0 -92.5 41.5 t-28.5 146.5q-143 -188 -271 -188q-78 0 -129 69.5t-51 175.5zM215 248q0 -174 117 -174q55 0 104 38t115 132v348q-18 -10 -96 -49q-66 -33 -96.5 -50.5t-70.5 -53.5t-56.5 -82t-16.5 -109zM313 1235l129 264h199l-225 -264h-103z" />
<glyph unicode="&#xe2;" d="M96 225q0 152 72 223.5t242 139.5q88 35 139 65v138q0 188 -160 188q-76 0 -120 -39t-44 -106q0 -45 21 -86h-115q-8 23 -8 77q0 117 69.5 182.5t194.5 65.5q139 0 205.5 -71.5t66.5 -225.5v-588q0 -115 56 -114q29 0 67 49l31 -33q-59 -111 -145 -110q-66 0 -92.5 41.5 t-28.5 146.5q-143 -188 -271 -188q-78 0 -129 69.5t-51 175.5zM109 1235l196 264h164l197 -264h-138l-139 182l-139 -182h-141zM215 248q0 -174 117 -174q55 0 104 38t115 132v348q-18 -10 -96 -49q-66 -33 -96.5 -50.5t-70.5 -53.5t-56.5 -82t-16.5 -109z" />
<glyph unicode="&#xe3;" d="M66 1266q12 188 133 188q53 0 184 -45q88 -33 123 -33q55 0 67 78h93q-6 -90 -43 -139t-97 -49q-43 0 -174 47q-80 33 -129 33q-35 0 -49 -17.5t-20 -62.5h-88zM96 225q0 152 72 223.5t242 139.5q88 35 139 65v138q0 188 -160 188q-76 0 -120 -39t-44 -106q0 -45 21 -86 h-115q-8 23 -8 77q0 117 69.5 182.5t194.5 65.5q139 0 205.5 -71.5t66.5 -225.5v-588q0 -115 56 -114q29 0 67 49l31 -33q-59 -111 -145 -110q-66 0 -92.5 41.5t-28.5 146.5q-143 -188 -271 -188q-78 0 -129 69.5t-51 175.5zM215 248q0 -174 117 -174q55 0 104 38t115 132 v348q-18 -10 -96 -49q-66 -33 -96.5 -50.5t-70.5 -53.5t-56.5 -82t-16.5 -109z" />
<glyph unicode="&#xe4;" d="M96 225q0 152 72 223.5t242 139.5q88 35 139 65v138q0 188 -160 188q-76 0 -120 -39t-44 -106q0 -45 21 -86h-115q-8 23 -8 77q0 117 69.5 182.5t194.5 65.5q139 0 205.5 -71.5t66.5 -225.5v-588q0 -115 56 -114q29 0 67 49l31 -33q-59 -111 -145 -110q-66 0 -92.5 41.5 t-28.5 146.5q-143 -188 -271 -188q-78 0 -129 69.5t-51 175.5zM170 1245v174h123v-174h-123zM215 248q0 -174 117 -174q55 0 104 38t115 132v348q-18 -10 -96 -49q-66 -33 -96.5 -50.5t-70.5 -53.5t-56.5 -82t-16.5 -109zM479 1245v174h123v-174h-123z" />
<glyph unicode="&#xe5;" d="M96 225q0 152 72 223.5t242 139.5q88 35 139 65v138q0 188 -160 188q-76 0 -120 -39t-44 -106q0 -45 21 -86h-115q-8 23 -8 77q0 117 69.5 182.5t194.5 65.5q139 0 205.5 -71.5t66.5 -225.5v-588q0 -115 56 -114q29 0 67 49l31 -33q-59 -111 -145 -110q-66 0 -92.5 41.5 t-28.5 146.5q-143 -188 -271 -188q-78 0 -129 69.5t-51 175.5zM207 1368q0 74 52 127t126 53q76 0 128 -53t52 -127q0 -76 -52 -128t-126 -52q-76 0 -128 52t-52 128zM215 248q0 -174 117 -174q55 0 104 38t115 132v348q-18 -10 -96 -49q-66 -33 -96.5 -50.5t-70.5 -53.5 t-56.5 -82t-16.5 -109zM272 1364q0 -45 33 -78t80 -33q49 0 84 33t35 80t-35 81t-84 34q-47 0 -80 -34t-33 -83z" />
<glyph unicode="&#xe6;" horiz-adv-x="1157" d="M63 229q0 154 83 233t354 189v156q0 78 -42 127t-108 49q-76 0 -121 -48t-45 -130q0 -23 9 -64h-105q-8 92 16.5 162t68.5 105.5t89 52t88 16.5q158 0 225 -133q82 133 216 133q76 0 137 -50t96 -138q51 -125 55 -363h-471v-254q0 -76 55.5 -138t122.5 -62q104 0 156 125 q33 82 37 209h100q-6 -154 -43 -240q-74 -184 -250 -184q-184 0 -260 202q-162 -203 -282 -202q-82 0 -131.5 66t-49.5 181zM180 246q0 -172 115 -172q51 0 95 35.5t108 128.5v350q-41 -14 -101 -45l-86 -49q-131 -76 -131 -248zM608 616h350q-2 45 -3 69t-7 76t-17 82.5 t-29.5 65.5t-49.5 52.5t-72 17.5q-68 0 -120 -72.5t-52 -167.5v-123z" />
<glyph unicode="&#xe7;" d="M125 518q0 262 85 408.5t236 146.5q115 0 192 -96t77 -240v-49h-105q0 293 -164 293q-195 0 -194 -444q0 -463 199 -463q168 0 178 315h110q-8 -156 -45 -239q-63 -147 -202 -166l-25 -84q178 -6 178 -136q0 -82 -79 -126t-226 -44q-43 0 -107 11l9 84q68 -6 82 -6 q86 0 135 24.5t49 67.5q0 18 -9.5 35.5t-47 33t-99.5 11.5l37 133q-125 27 -195.5 167t-68.5 363z" />
<glyph unicode="&#xe8;" d="M117 518q0 254 88 404.5t237 150.5q66 0 127.5 -42t96.5 -113q68 -131 71 -396h-493q2 -61 4 -96t8 -97.5t19.5 -100.5t35 -77.5t56 -59t82.5 -19.5q172 0 184 315h104q-8 -172 -55 -256q-78 -152 -227 -151q-158 0 -248 144t-90 394zM213 1499h201l127 -264h-103z M246 614h375q-4 188 -48.5 274.5t-132.5 86.5q-184 -1 -194 -361z" />
<glyph unicode="&#xe9;" d="M117 518q0 254 88 404.5t237 150.5q66 0 127.5 -42t96.5 -113q68 -131 71 -396h-493q2 -61 4 -96t8 -97.5t19.5 -100.5t35 -77.5t56 -59t82.5 -19.5q172 0 184 315h104q-8 -172 -55 -256q-78 -152 -227 -151q-158 0 -248 144t-90 394zM246 614h375q-4 188 -48.5 274.5 t-132.5 86.5q-184 -1 -194 -361zM313 1235l129 264h199l-225 -264h-103z" />
<glyph unicode="&#xea;" d="M117 518q0 254 88 404.5t237 150.5q66 0 127.5 -42t96.5 -113q68 -131 71 -396h-493q2 -61 4 -96t8 -97.5t19.5 -100.5t35 -77.5t56 -59t82.5 -19.5q172 0 184 315h104q-8 -172 -55 -256q-78 -152 -227 -151q-158 0 -248 144t-90 394zM150 1235l196 264h164l197 -264 h-138l-139 182l-139 -182h-141zM246 614h375q-4 188 -48.5 274.5t-132.5 86.5q-184 -1 -194 -361z" />
<glyph unicode="&#xeb;" d="M117 518q0 254 88 404.5t237 150.5q66 0 127.5 -42t96.5 -113q68 -131 71 -396h-493q2 -61 4 -96t8 -97.5t19.5 -100.5t35 -77.5t56 -59t82.5 -19.5q172 0 184 315h104q-8 -172 -55 -256q-78 -152 -227 -151q-158 0 -248 144t-90 394zM211 1245v174h123v-174h-123z M246 614h375q-4 188 -48.5 274.5t-132.5 86.5q-184 -1 -194 -361zM520 1245v174h123v-174h-123z" />
<glyph unicode="&#xec;" horiz-adv-x="468" d="M20 1499h201l127 -264h-102zM178 0v1059h113v-1059h-113z" />
<glyph unicode="&#xed;" horiz-adv-x="468" d="M121 1235l129 264h199l-226 -264h-102zM178 0v1059h113v-1059h-113z" />
<glyph unicode="&#xee;" horiz-adv-x="468" d="M-43 1235l197 264h163l197 -264h-137l-139 182l-140 -182h-141zM178 0v1059h113v-1059h-113z" />
<glyph unicode="&#xef;" horiz-adv-x="468" d="M18 1245v174h123v-174h-123zM178 0v1059h113v-1059h-113zM328 1245v174h123v-174h-123z" />
<glyph unicode="&#xf0;" d="M96 535q0 246 85 391t231 145q76 0 147 -65q-45 184 -137 311l-164 -109l-47 76l149 98q-35 37 -110 95l45 67q78 -37 145 -104l158 104l49 -76l-143 -92q88 -111 143 -276q78 -240 78 -535q0 -270 -85 -426.5t-232 -156.5q-141 0 -226.5 151.5t-85.5 401.5zM219 530 q0 -459 191 -458q188 0 188 473q0 229 -44 334.5t-146 105.5q-189 0 -189 -455z" />
<glyph unicode="&#xf1;" d="M106 1266q12 188 134 188q53 0 184 -45q88 -33 123 -33q55 0 67 78h93q-6 -90 -43 -139t-97 -49q-43 0 -174 47q-80 33 -129 33q-35 0 -49 -17.5t-20 -62.5h-89zM156 0v1059h110v-139q84 152 213 151q100 0 160.5 -74.5t60.5 -199.5v-797h-110v768q0 119 -30 172t-97 53 q-53 0 -109.5 -57t-87.5 -141v-795h-110z" />
<glyph unicode="&#xf2;" d="M117 502q0 164 28.5 282.5t77.5 177t99.5 84t105.5 25.5q145 0 228 -138t83 -392q0 -262 -82 -411.5t-225 -149.5t-229 142t-86 380zM213 1499h201l127 -264h-103zM246 541q0 -244 44 -355.5t140 -111.5q51 0 88 36.5t54.5 83t26.5 122t10 117.5t1 106q0 440 -182 440 t-182 -438z" />
<glyph unicode="&#xf3;" d="M117 502q0 164 28.5 282.5t77.5 177t99.5 84t105.5 25.5q145 0 228 -138t83 -392q0 -262 -82 -411.5t-225 -149.5t-229 142t-86 380zM246 541q0 -244 44 -355.5t140 -111.5q51 0 88 36.5t54.5 83t26.5 122t10 117.5t1 106q0 440 -182 440t-182 -438zM313 1235l129 264 h199l-225 -264h-103z" />
<glyph unicode="&#xf4;" d="M117 502q0 164 28.5 282.5t77.5 177t99.5 84t105.5 25.5q145 0 228 -138t83 -392q0 -262 -82 -411.5t-225 -149.5t-229 142t-86 380zM150 1235l196 264h164l197 -264h-138l-139 182l-139 -182h-141zM246 541q0 -244 44 -355.5t140 -111.5q51 0 88 36.5t54.5 83t26.5 122 t10 117.5t1 106q0 440 -182 440t-182 -438z" />
<glyph unicode="&#xf5;" d="M106 1266q12 188 134 188q53 0 184 -45q88 -33 123 -33q55 0 67 78h93q-6 -90 -43 -139t-97 -49q-43 0 -174 47q-80 33 -129 33q-35 0 -49 -17.5t-20 -62.5h-89zM117 502q0 164 28.5 282.5t77.5 177t99.5 84t105.5 25.5q145 0 228 -138t83 -392q0 -262 -82 -411.5 t-225 -149.5t-229 142t-86 380zM246 541q0 -244 44 -355.5t140 -111.5q51 0 88 36.5t54.5 83t26.5 122t10 117.5t1 106q0 440 -182 440t-182 -438z" />
<glyph unicode="&#xf6;" d="M117 502q0 164 28.5 282.5t77.5 177t99.5 84t105.5 25.5q145 0 228 -138t83 -392q0 -262 -82 -411.5t-225 -149.5t-229 142t-86 380zM211 1245v174h123v-174h-123zM246 541q0 -244 44 -355.5t140 -111.5q51 0 88 36.5t54.5 83t26.5 122t10 117.5t1 106q0 440 -182 440 t-182 -438zM520 1245v174h123v-174h-123z" />
<glyph unicode="&#xf7;" horiz-adv-x="1368" d="M147 612v86h1074v-86h-1074zM618 244q0 25 18.5 43t45.5 18t44 -18.5t17 -42.5q0 -27 -17 -44.5t-44 -17.5t-45.5 17.5t-18.5 44.5zM618 1073q2 23 20.5 39t43.5 16t43 -17t18 -42q0 -27 -18 -45t-43 -18q-27 0 -45.5 19t-18.5 48z" />
<glyph unicode="&#xf8;" d="M37 55l119 166q-39 135 -39 281q0 164 28.5 282.5t76.5 177t98.5 84t103.5 25.5q147 0 231 -139l95 125l69 -56l-121 -163q41 -137 41 -269q0 -260 -67 -413q-80 -174 -242 -174q-135 0 -233 147l-91 -129zM246 541q0 -90 6 -174h4l324 456q-16 72 -56.5 114t-95.5 42 q-182 0 -182 -438zM272 236q45 -162 158 -162q180 0 180 424q0 166 -6 202z" />
<glyph unicode="&#xf9;" d="M154 260v799h110v-783q0 -217 127 -217q74 0 135.5 81t61.5 114v805h110v-1059h-110v133q-78 -152 -211 -151q-102 0 -162.5 74.5t-60.5 203.5zM213 1499h201l127 -264h-103z" />
<glyph unicode="&#xfa;" d="M154 260v799h110v-783q0 -217 127 -217q74 0 135.5 81t61.5 114v805h110v-1059h-110v133q-78 -152 -211 -151q-102 0 -162.5 74.5t-60.5 203.5zM313 1235l129 264h199l-225 -264h-103z" />
<glyph unicode="&#xfb;" d="M150 1235l196 264h164l197 -264h-138l-139 182l-139 -182h-141zM154 260v799h110v-783q0 -217 127 -217q74 0 135.5 81t61.5 114v805h110v-1059h-110v133q-78 -152 -211 -151q-102 0 -162.5 74.5t-60.5 203.5z" />
<glyph unicode="&#xfc;" d="M154 260v799h110v-783q0 -217 127 -217q74 0 135.5 81t61.5 114v805h110v-1059h-110v133q-78 -152 -211 -151q-102 0 -162.5 74.5t-60.5 203.5zM211 1245v174h123v-174h-123zM520 1245v174h123v-174h-123z" />
<glyph unicode="&#xfd;" horiz-adv-x="661" d="M37 1059h113l186 -871l176 871h113l-324 -1378h-82l76 323zM217 1235l129 264h199l-226 -264h-102z" />
<glyph unicode="&#xfe;" d="M143 -291v1811h111v-648q45 111 92 157t115 46q133 0 210 -150.5t77 -416.5q0 -242 -72 -380t-197 -138q-76 0 -128 45t-97 147v-473h-111zM254 334q45 -139 88 -194.5t104 -55.5q84 0 133.5 107.5t49.5 291.5q0 236 -47 361t-136 125q-72 0 -132 -87t-60 -190v-358z" />
<glyph unicode="&#xff;" horiz-adv-x="661" d="M37 1059h113l186 -871l176 871h113l-324 -1378h-82l76 323zM115 1245v174h123v-174h-123zM424 1245v174h123v-174h-123z" />
<glyph unicode="&#x152;" horiz-adv-x="1343" d="M80 774q0 246 53 449q39 145 132 227t204 82q158 0 258 -166v154h516v-117h-391v-561h330v-121h-330v-602h426v-119h-551v158q-76 -92 -138.5 -130t-142.5 -38q-178 0 -272 202.5t-94 581.5zM219 774q0 -301 37 -455q23 -98 81 -157.5t144 -59.5q111 0 179.5 95.5 t68.5 248.5v594q0 184 -64.5 280.5t-185.5 96.5q-141 0 -200.5 -147.5t-59.5 -495.5z" />
<glyph unicode="&#x153;" horiz-adv-x="1236" d="M88 539q0 238 86 388t215 150q145 0 234 -162q96 162 233 162q80 0 144.5 -48t99.5 -134q49 -119 53 -375h-471q0 -80 1 -120t6 -102t16.5 -94t32 -66t54 -48t78.5 -14q82 0 128 85t51 240h100q-2 -195 -78 -307t-207 -112q-78 0 -135 37.5t-108 123.5 q-88 -162 -246 -161q-129 0 -208 152.5t-79 404.5zM213 530q0 -453 176 -452q182 0 182 442q0 461 -182 461q-176 0 -176 -451zM682 614h352q0 367 -184 367q-92 0 -139 -115q-29 -74 -29 -252z" />
<glyph unicode="&#x178;" d="M49 1520h123l256 -842l256 842h123l-318 -912v-608h-124v612zM211 1706v174h123v-174h-123zM520 1706v174h123v-174h-123z" />
<glyph unicode="&#x2c6;" horiz-adv-x="681" d="M63 1235l197 264h164l197 -264h-138l-139 182l-139 -182h-142z" />
<glyph unicode="&#x2dc;" horiz-adv-x="681" d="M20 1266q12 188 134 188q53 0 184 -45q88 -33 123 -33q55 0 67 78h93q-6 -90 -43 -139t-97 -49q-43 0 -174 47q-80 33 -129 33q-35 0 -49 -17.5t-20 -62.5h-89z" />
<glyph unicode="&#x2000;" horiz-adv-x="1003" />
<glyph unicode="&#x2001;" horiz-adv-x="2009" />
<glyph unicode="&#x2002;" horiz-adv-x="1003" />
<glyph unicode="&#x2003;" horiz-adv-x="2009" />
<glyph unicode="&#x2004;" horiz-adv-x="669" />
<glyph unicode="&#x2005;" horiz-adv-x="501" />
<glyph unicode="&#x2006;" horiz-adv-x="333" />
<glyph unicode="&#x2007;" horiz-adv-x="333" />
<glyph unicode="&#x2008;" horiz-adv-x="249" />
<glyph unicode="&#x2009;" horiz-adv-x="401" />
<glyph unicode="&#x200a;" horiz-adv-x="110" />
<glyph unicode="&#x2010;" horiz-adv-x="575" d="M92 465v127h393v-127h-393z" />
<glyph unicode="&#x2011;" horiz-adv-x="575" d="M92 465v127h393v-127h-393z" />
<glyph unicode="&#x2012;" horiz-adv-x="575" d="M92 465v127h393v-127h-393z" />
<glyph unicode="&#x2013;" horiz-adv-x="1024" d="M-12 473v86h1048v-86h-1048z" />
<glyph unicode="&#x2014;" horiz-adv-x="2048" d="M-18 473v88h2084v-88h-2084z" />
<glyph unicode="&#x2018;" horiz-adv-x="468" d="M170 1063v174q0 152 57 233q18 29 74 66v-51q-70 -74 -65 -193h53v-229h-119z" />
<glyph unicode="&#x2019;" horiz-adv-x="468" d="M170 1042v54q72 63 72 147v43h-62v234h119v-258q0 -72 -29.5 -122.5t-99.5 -97.5z" />
<glyph unicode="&#x201a;" horiz-adv-x="468" d="M170 -197q82 84 76 197h-64v229h119v-211q0 -98 -29.5 -158.5t-101.5 -105.5v49z" />
<glyph unicode="&#x201c;" horiz-adv-x="960" d="M354 1057v229q0 158 131 250v-57q-72 -55 -77 -193h65v-229h-119zM662 1061v219q0 117 65 199q27 33 66 57v-55q-43 -37 -58.5 -77t-17.5 -114h63v-229h-118z" />
<glyph unicode="&#x201d;" horiz-adv-x="960" d="M168 1038v54q72 63 78 192h-66v236h119v-238q0 -90 -43 -160q-27 -45 -88 -84zM477 1040v47q74 68 76 197h-66v236h119v-240q0 -156 -129 -240z" />
<glyph unicode="&#x201e;" horiz-adv-x="960" d="M262 -195q74 72 74 195h-64v231h119v-231q0 -158 -129 -246v51zM569 -199q72 59 72 199h-61v231h118v-231q0 -121 -65 -195q-25 -25 -64 -49v45z" />
<glyph unicode="&#x2022;" horiz-adv-x="1024" d="M262 719q0 102 74 175t176 73t176 -74t74 -178q0 -102 -74 -176t-176 -74t-176 75t-74 179z" />
<glyph unicode="&#x2026;" horiz-adv-x="1705" d="M225 0v229h117v-229h-117zM795 0v229h116v-229h-116zM1364 0v229h117v-229h-117z" />
<glyph unicode="&#x202f;" horiz-adv-x="401" />
<glyph unicode="&#x2039;" horiz-adv-x="385" d="M47 608l195 451h98l-195 -449l193 -452h-98z" />
<glyph unicode="&#x203a;" horiz-adv-x="385" d="M45 156l195 450l-195 453h98l197 -453l-199 -450h-96z" />
<glyph unicode="&#x205f;" horiz-adv-x="501" />
<glyph unicode="&#x20ac;" horiz-adv-x="960" d="M35 612l24 90h70v60v53h-94l24 90h74q18 301 117.5 468t265.5 167q90 0 157.5 -42t104.5 -111.5t55.5 -140t22.5 -146.5h-106q-8 135 -64.5 235.5t-167.5 100.5q-125 0 -187.5 -130t-72.5 -401h549l-25 -90h-526v-33v-80h518l-24 -90h-490q31 -530 262 -530 q68 0 115 26.5t70.5 77t34 97.5t16.5 114h114q-4 -43 -11 -86t-31.5 -106.5t-60.5 -110.5t-102.5 -80.5t-152.5 -33.5q-168 0 -265 163.5t-116 468.5h-98z" />
<glyph unicode="&#x2122;" horiz-adv-x="1925" d="M188 1432v88h635v-88h-268v-730h-100v730h-267zM918 702v818h153l205 -654l213 654h153v-818h-90v730l-243 -730h-70l-229 730v-730h-92z" />
<glyph unicode="&#xe000;" horiz-adv-x="1060" d="M0 1060h1060v-1060h-1060v1060z" />
<glyph unicode="&#xfb01;" d="M29 965v94h135v155q0 143 75.5 231.5t198.5 88.5q109 0 178.5 -74t75.5 -194h-104q-4 82 -45 127t-111 45t-114 -52.5t-44 -130.5v-196h154v-94h-154v-965h-110v965h-135zM596 0v1059h111v-1059h-111z" />
<glyph unicode="&#xfb02;" d="M39 967v92h123v106q0 371 276 371q29 0 86.5 -11.5t65.5 -11.5q23 0 45 25h67v-1538h-110v1274q0 172 -154 172q-168 0 -168 -260v-127h150v-92h-150v-967h-110v967h-121z" />
<glyph unicode="&#xfb03;" horiz-adv-x="1619" d="M1329 0v1059h111v-1059h-111zM1329 1315v205h113v-205h-113zM665 967v92h141v229q0 246 183 246q37 0 90 -18v-115q-61 27 -96 26q-29 0 -47.5 -30.5t-18.5 -79.5v-258h162v-92h-162v-967h-111v967h-141zM90 967v92h141v229q0 246 183 246q37 0 90 -18v-115 q-61 27 -96 26q-29 0 -47.5 -30.5t-18.5 -79.5v-258h162v-92h-162v-967h-111v967h-141z" />
<glyph unicode="&#xfb04;" horiz-adv-x="1619" d="M1331 0v1520h111v-1520h-111zM665 967v92h141v229q0 246 183 246q37 0 90 -18v-115q-61 27 -96 26q-29 0 -47.5 -30.5t-18.5 -79.5v-258h162v-92h-162v-967h-111v967h-141zM90 967v92h141v229q0 246 183 246q37 0 90 -18v-115q-61 27 -96 26q-29 0 -47.5 -30.5 t-18.5 -79.5v-258h162v-92h-162v-967h-111v967h-141z" />
</font>
</defs>
</svg>
