<?xml version="1.0" standalone="no"?>
<!DOCTYPE svg PUBLIC "-//W3C//DTD SVG 1.1//EN" "http://www.w3.org/Graphics/SVG/1.1/DTD/svg11.dtd" >
<svg xmlns="http://www.w3.org/2000/svg">
<metadata>
This is a custom SVG webfont generated by Font Squirrel.
Copyright   : Copyright  1992 2002 Adobe Systems Incorporated  All Rights Reserved  Copyright 1992 2002 The Monotype Corporation plc All Rights Reserved
Designer    : Unknown
Foundry URL : httpwwwadobecomtype
</metadata>
<defs>
<font id="GrotesqueMTStdBlack" horiz-adv-x="1216" >
<font-face units-per-em="2048" ascent="1477" descent="-571" />
<missing-glyph horiz-adv-x="491" />
<glyph unicode=" "  horiz-adv-x="491" />
<glyph unicode="&#x09;" horiz-adv-x="491" />
<glyph unicode="&#xa0;" horiz-adv-x="491" />
<glyph unicode="!" horiz-adv-x="681" d="M172 1530h340l-76 -977h-196zM186 0v336h312v-336h-312z" />
<glyph unicode="&#x22;" d="M201 1194v336h278v-336l-88 -399h-102zM737 1194v336h279v-336l-88 -399h-103z" />
<glyph unicode="#" horiz-adv-x="1368" d="M78 336v188h209l63 303h-272v191h309l84 383h188l-84 -383h355l82 383h190l-82 -383h168v-191h-205l-63 -303h268v-188h-303l-84 -379h-188l82 379h-359l-78 -379h-190l80 379h-170zM477 526h354l64 301h-356z" />
<glyph unicode="$" d="M111 213l139 156q61 -72 125.5 -116t94.5 -52t77 -19v516l-41 19q-47 20 -76 34.5t-77 43t-78.5 59.5t-63.5 73t-48.5 96t-15.5 118q0 115 58.5 210t165.5 152q72 39 176 56v51h131v-47q205 -23 391 -203l-145 -180q-72 66 -123 95.5t-123 49.5v-418q57 -23 96 -42 t107.5 -65t112.5 -95.5t78 -129t34 -172.5q0 -129 -64.5 -234.5t-177.5 -158.5q-70 -33 -188 -45v-182h-129v182q-102 14 -182 43t-130.5 71t-73.5 68.5t-50 65.5zM389 1151q0 -113 158 -190v364q-158 -41 -158 -174zM678 184q203 37 203 209q0 51 -19.5 92t-55.5 72 t-62.5 47.5t-65.5 34.5v-455z" />
<glyph unicode="%" horiz-adv-x="2433" d="M244 1157q0 156 110.5 265.5t266 109.5t265 -109.5t109.5 -265.5t-109.5 -266.5t-264.5 -110.5q-158 0 -267.5 109.5t-109.5 267.5zM434 1157q0 -76 54.5 -130t132.5 -54q76 0 130 54t54 130q0 78 -54.5 132t-130 54t-131 -55t-55.5 -131zM733 -33l836 1608h129 l-834 -1608h-131zM1434 381q0 156 110.5 267.5t268 111.5t268 -110.5t110.5 -268.5t-110.5 -268.5t-268 -110.5t-268 110.5t-110.5 268.5zM1630 381q0 -78 54.5 -132t130.5 -54q78 0 132 54t54 132q0 76 -54.5 130t-132 54t-131 -53t-53.5 -131z" />
<glyph unicode="&#x26;" horiz-adv-x="1748" d="M111 391q0 86 27.5 162t61 126t93 99t95.5 71.5t93 55.5q-92 168 -92 301q0 162 122 265.5t310 103.5q168 0 272.5 -86t104.5 -223q0 -66 -24.5 -124.5t-55.5 -96t-86 -75.5t-87 -55.5t-87 -44.5q119 -166 301 -366q109 131 174 280l226 -118q-86 -172 -222 -342 q86 -72 164 -72q63 0 139 35v-273q-92 -43 -196 -43q-72 0 -142.5 27t-105.5 50.5t-84 64.5q-78 -47 -129 -72t-141 -49.5t-189 -24.5q-250 0 -396 114.5t-146 309.5zM403 457q0 -106 79 -181t192 -75q57 0 131 24.5t125 61.5q-172 199 -342 444q-185 -110 -185 -274z M651 1253q0 -84 105 -233q47 20 78.5 35.5t75.5 47.5t69 73t25 90q0 66 -47.5 109.5t-116.5 43.5q-84 0 -136.5 -46t-52.5 -120z" />
<glyph unicode="'" horiz-adv-x="681" d="M203 1194v336h278v-336l-88 -399h-102z" />
<glyph unicode="(" horiz-adv-x="681" d="M70 768q0 418 280 801h262q-61 -88 -96 -145.5t-83 -160t-70.5 -224t-22.5 -267.5q0 -250 59.5 -417t202.5 -388h-258q-53 76 -88 134.5t-85 164t-75.5 232.5t-25.5 270z" />
<glyph unicode=")" horiz-adv-x="681" d="M72 -33q68 98 101.5 157.5t78.5 163t65.5 224.5t20.5 270q0 147 -25.5 277.5t-75 234t-80 155.5t-79.5 120h256q276 -362 276 -801q0 -256 -79.5 -445.5t-202.5 -355.5h-256z" />
<glyph unicode="*" horiz-adv-x="937" d="M45 995v219l373 -79l-256 284l190 111l117 -367l117 367l192 -111l-262 -289l377 84v-219l-375 78l260 -280l-188 -109l-121 360l-115 -362l-190 109l256 286z" />
<glyph unicode="+" horiz-adv-x="1366" d="M125 569v215h450v449h216v-449h450v-215h-450v-448h-216v448h-450z" />
<glyph unicode="," horiz-adv-x="681" d="M186 0v336h312v-336l-174 -401h-138l140 401h-140z" />
<glyph unicode="-" horiz-adv-x="811" d="M92 414v286h627v-286h-627z" />
<glyph unicode="." horiz-adv-x="681" d="M186 0v336h312v-336h-312z" />
<glyph unicode="/" horiz-adv-x="811" d="M102 -330l441 1884h168l-441 -1884h-168z" />
<glyph unicode="0" d="M141 784q0 786 469 787q467 0 467 -809q0 -389 -118.5 -592t-348.5 -203q-176 0 -286 117q-96 100 -139.5 266t-43.5 434zM438 848q0 -307 23 -457q8 -74 48 -123t105 -49q88 0 126 111.5t38 374.5q0 281 -20 454q-8 72 -46 117t-102 45q-41 -2 -71.5 -23.5t-49 -64.5 t-29.5 -83t-15.5 -104.5t-5.5 -100.5t-1 -97z" />
<glyph unicode="1" d="M227 0v236h316v1058h-295v236h575v-1294h248v-236h-844z" />
<glyph unicode="2" d="M123 0q14 111 43 202t60.5 154.5t100 142.5t119 127t158.5 148l49 45q137 137 138 287q0 96 -48.5 152.5t-130.5 56.5q-186 0 -227 -283l-242 158q133 373 492 373q207 0 332 -123t125 -328q0 -100 -28 -184t-88.5 -160t-102.5 -116t-121 -109q-125 -104 -178.5 -161.5 t-88.5 -119.5h607v-262h-969z" />
<glyph unicode="3" d="M96 -23l8 252q104 -12 211 -12q219 0 361.5 90t142.5 230q0 78 -47 126t-123 48q-74 0 -196 -45l-84 198q217 98 316 183.5t99 169.5q0 47 -42 79.5t-101 32.5q-152 0 -332 -192l-159 206q270 225 528 226q174 0 277.5 -86t103.5 -232q0 -70 -22.5 -130t-66.5 -106 t-71 -67.5t-70 -52.5q289 -66 289 -346q0 -33 -5 -72t-25.5 -97t-53.5 -111.5t-94 -110t-141 -97.5t-202 -67.5t-271 -26.5q-97 0 -230 10z" />
<glyph unicode="4" d="M109 387v291l514 852h360v-914h125v-227h-133v-389h-268v387h-598zM299 616h412v680z" />
<glyph unicode="5" d="M96 18l58 261q137 -59 272 -60q170 0 281.5 88t111.5 223q0 106 -63.5 175t-161.5 69q-61 0 -107.5 -19.5t-105.5 -72.5l-213 25l94 823h787l-7 -262h-555l-36 -301q115 45 225 45q197 0 319.5 -132t122.5 -343q0 -260 -181 -414t-486 -154q-160 0 -355 49z" />
<glyph unicode="6" d="M115 553q0 428 399 1016h369q-295 -309 -420 -668q127 57 217 57q184 0 303 -135t119 -346q0 -231 -130 -370.5t-347 -139.5q-242 0 -376 155t-134 431zM434 465q0 -123 48 -190.5t134 -67.5q84 0 135.5 64.5t51.5 172.5q0 274 -180 275q-88 0 -138.5 -66.5t-50.5 -187.5 z" />
<glyph unicode="7" d="M143 1260v270h932v-135q-301 -647 -495 -1395h-330q217 637 512 1260h-619z" />
<glyph unicode="8" d="M115 428q0 174 110 287q45 51 133 92q-70 45 -102 88q-88 111 -88 254q0 188 125 304t328 116q186 0 308 -119t122 -301q0 -219 -191 -342q45 -23 75 -41t75 -61t68.5 -113t23.5 -162q0 -201 -138.5 -332t-349.5 -131q-219 0 -359 129t-140 332zM418 457 q0 -119 52 -186.5t142 -67.5q88 0 140.5 68.5t52.5 183.5q0 113 -51.5 178t-139.5 65q-94 0 -145 -62t-51 -179zM455 1120q0 -90 41 -144t110 -54q74 0 117 55t43 151q0 94 -40 149.5t-110 55.5q-78 0 -119.5 -55.5t-41.5 -157.5z" />
<glyph unicode="9" d="M117 1071q0 223 134 360.5t351 137.5q236 0 368 -156t132 -434q0 -145 -41 -300t-116 -302.5t-121 -226t-115 -183.5h-375q55 57 92 99.5t100.5 126t122 196.5t109.5 250q-109 -63 -223 -64q-182 0 -300 140.5t-118 355.5zM420 1083q0 -127 46 -197.5t130 -70.5 q88 0 139 69.5t51 186.5q0 121 -47 190.5t-131 69.5q-88 0 -138 -65.5t-50 -182.5z" />
<glyph unicode=":" horiz-adv-x="681" d="M186 0v336h312v-336h-312zM186 668v336h312v-336h-312z" />
<glyph unicode=";" horiz-adv-x="681" d="M186 0v336h312v-336l-174 -401h-138l138 401h-138zM186 668v336h312v-336h-312z" />
<glyph unicode="&#x3c;" horiz-adv-x="1366" d="M127 580v192l1112 465v-231l-819 -330l819 -328v-233z" />
<glyph unicode="=" horiz-adv-x="1366" d="M127 332v215h1112v-215h-1112zM127 809v215h1112v-215h-1112z" />
<glyph unicode="&#x3e;" horiz-adv-x="1366" d="M127 115v233l819 328l-819 330v231l1112 -463v-194z" />
<glyph unicode="?" horiz-adv-x="937" d="M55 1278q20 43 34.5 68.5t52.5 71.5t81 74t114 49.5t157 21.5q180 0 284.5 -86t104.5 -234q0 -176 -181 -336q-135 -117 -135 -307v-49h-227q-4 41 -4 92q0 137 39 224t125 184q55 63 76.5 101t21.5 75q0 49 -36 84t-87 35q-59 0 -104 -46.5t-64 -128.5zM297 0v336h311 v-336h-311z" />
<glyph unicode="@" horiz-adv-x="1515" d="M-6 518q0 119 27.5 236.5t90 234.5t154.5 206t232.5 144.5t310.5 55.5q176 0 316.5 -62.5t224.5 -166t127 -228.5t43 -260q0 -164 -55.5 -298t-139.5 -209t-168 -115t-151 -40q-43 0 -74 11.5t-48.5 34t-23.5 35t-14 38.5q-119 -119 -240 -119q-145 0 -235 119t-90 309 q0 262 127 451.5t303 189.5q61 0 111 -26.5t70.5 -51t51.5 -69.5l17 113h196l-125 -791q-4 -16 -4 -37q0 -37 43 -37q29 0 73 26t97 78t90 156.5t37 239.5q0 254 -151.5 406.5t-405.5 152.5q-295 0 -479.5 -201.5t-184.5 -525.5q0 -313 177.5 -506.5t463.5 -193.5 q291 0 527 188h205q-94 -104 -159 -155.5t-171 -98.5q-186 -82 -393 -82q-350 0 -576.5 238.5t-226.5 609.5zM492 395q0 -106 39.5 -169.5t107.5 -63.5q115 0 170 145q76 209 76 414q0 94 -38 149.5t-104 55.5q-76 0 -130 -64.5t-77.5 -161t-33.5 -172.5t-10 -133z" />
<glyph unicode="A" horiz-adv-x="1343" d="M45 0l424 1530h393l436 -1530h-311l-96 346h-492l-96 -346h-258zM461 571h364l-184 646z" />
<glyph unicode="B" horiz-adv-x="1343" d="M178 0v1530h463q299 0 426 -127q106 -111 107 -273q0 -223 -224 -342q256 -117 256 -366q0 -174 -123 -301q-70 -70 -152.5 -95.5t-236.5 -25.5h-516zM489 907h105q137 0 195.5 42t58.5 143q0 188 -242 188h-117v-373zM492 250h131q121 0 185 54t64 157q0 84 -44 130 t-96 56t-130 10h-110v-407z" />
<glyph unicode="C" d="M59 741q0 113 4.5 192t17.5 172t37.5 156.5t67.5 128t104.5 101.5t151.5 60.5t205 23.5q143 0 243.5 -45t148.5 -121t67.5 -150.5t19.5 -156.5h-305q-8 113 -61 169t-162 56q-119 0 -162 -79t-43 -253v-413q0 -174 55.5 -250t182.5 -76q92 0 148.5 58.5t68.5 166.5h309 q-6 -248 -150.5 -381t-408.5 -133q-283 0 -411 178t-128 596z" />
<glyph unicode="D" horiz-adv-x="1343" d="M190 0v1530h408q598 0 598 -756q0 -184 -25.5 -314t-94 -239.5t-201 -165t-332.5 -55.5h-353zM500 252h65q166 0 231.5 103.5t65.5 363.5q0 127 -5 207t-22.5 154.5t-51 113.5t-88 62.5t-136.5 23.5h-59v-1028z" />
<glyph unicode="E" horiz-adv-x="1343" d="M150 0v1530h1052v-287h-741v-315h510v-287h-510v-354h776v-287h-1087z" />
<glyph unicode="F" horiz-adv-x="1343" d="M203 0v1530h1020v-291h-713v-321h483v-287h-483v-631h-307z" />
<glyph unicode="G" horiz-adv-x="1343" d="M98 670v170q0 188 37 326.5t91.5 215t138.5 121.5t158.5 58.5t168.5 13.5q72 0 130.5 -9.5t122 -39t108.5 -79.5t75.5 -137t34.5 -206h-305q-23 223 -209 223q-98 0 -155.5 -69.5t-57.5 -190.5v-477q0 -98 7.5 -165t30 -128t68.5 -91t117 -30q113 0 183.5 80t70.5 207v78 h-249v229h540v-801h-131l-51 111q-158 -113 -379 -113q-51 0 -93 4t-101.5 20.5t-104.5 44t-93 81t-80 125t-52.5 181.5t-20.5 247z" />
<glyph unicode="H" horiz-adv-x="1492" d="M219 0v1530h309v-612h439v612h309v-1530h-309v670h-439v-670h-309z" />
<glyph unicode="I" horiz-adv-x="811" d="M70 0v160h182v1210h-182v160h669v-160h-178v-1210h180v-160h-671z" />
<glyph unicode="J" d="M147 418v84h275v-119q0 -70 32.5 -111t90.5 -41q133 0 133 185v1114h309v-1124q0 -197 -121 -319t-317 -122q-402 0 -402 453z" />
<glyph unicode="K" horiz-adv-x="1492" d="M201 0v1530h309v-1530h-309zM549 838l516 692h352l-514 -688l555 -842h-356z" />
<glyph unicode="L" d="M166 0v1530h309v-1243h699v-287h-1008z" />
<glyph unicode="M" horiz-adv-x="1748" d="M193 0v1530h415l266 -1077l259 1077h423v-1530h-256v1368l-325 -1368h-199l-327 1362v-1362h-256z" />
<glyph unicode="N" horiz-adv-x="1492" d="M201 0v1530h329l476 -969v969h288v-1530h-284l-521 1047v-1047h-288z" />
<glyph unicode="O" d="M84 784q0 147 11 258t45 216.5t90.5 172t150.5 107.5t223 41q102 0 184 -23.5t137.5 -62.5t94.5 -102.5t61.5 -126t34.5 -152.5t15.5 -164t3.5 -176q0 -119 -6.5 -207t-24 -187t-54 -167t-93 -127t-146.5 -88t-207 -29q-102 0 -184 26.5t-135.5 67.5t-92 109t-59 131.5 t-32 155.5t-14.5 160.5t-3 166.5zM420 823q0 -315 38 -447t150 -132q102 0 146.5 109.5t44.5 367.5q0 231 -25 395q-12 82 -53 135.5t-111 53.5q-102 0 -146 -112t-44 -370z" />
<glyph unicode="P" horiz-adv-x="1343" d="M186 0v1530h521q242 0 388 -133t146 -355q0 -106 -37 -204.5t-100 -159.5q-139 -133 -524 -133h-82v-545h-312zM494 813h157q113 0 183.5 62.5t70.5 162.5q0 102 -73.5 160.5t-204.5 58.5h-133v-444z" />
<glyph unicode="Q" d="M47 784q0 94 3 163t14.5 157t33 150.5t60.5 127t92 104.5t134 65.5t183 25.5q233 0 369 -135q90 -90 126 -240.5t36 -429.5q0 -324 -56 -496q49 -45 83 -58q29 -12 74 -11h13v-334q-125 4 -184 44t-121 153q-137 -102 -340 -103q-104 0 -186 28t-135 68.5t-92 110.5 t-59.5 133.5t-32 156.5t-13.5 158.5t-2 161.5zM383 823q0 -315 38 -448t150 -133q96 0 144 102q-37 82 -142 92v277q53 0 92.5 -21.5t90.5 -89.5q4 37 4 150q0 287 -37 419t-150 132q-102 0 -146 -112t-44 -368z" />
<glyph unicode="R" horiz-adv-x="1343" d="M215 0v1530h487q252 0 383.5 -117t131.5 -340q0 -74 -20.5 -136.5t-45.5 -100t-69 -73.5t-67.5 -50.5t-62.5 -34.5l301 -678h-323l-275 621h-129v-621h-311zM524 858h49q53 0 82 1t79 12.5t78 32t49.5 63.5t21.5 102q0 113 -63.5 162t-203.5 49h-92v-422z" />
<glyph unicode="S" d="M100 293l230 158q76 -111 142.5 -159t143.5 -48q82 0 137.5 50t55.5 122q0 43 -20.5 76.5t-66.5 63.5t-79 46t-98 45q-4 2 -37 15.5t-52.5 22.5t-58.5 28.5t-65.5 39t-62.5 48t-58.5 61.5t-45 73t-33.5 89t-11 104q0 195 140 321t360 126q297 0 460 -291l-217 -162 q-76 104 -137 146.5t-135 42.5q-70 0 -116 -41t-46 -101q0 -80 58.5 -127t201.5 -104q66 -29 98.5 -44t93 -49t94.5 -69t71.5 -86t54 -116.5t16.5 -145.5q0 -207 -144.5 -334t-379.5 -127q-102 0 -189.5 33t-146.5 88t-95 103.5t-63 101.5z" />
<glyph unicode="T" d="M53 1243v287h1110v-287h-403v-1243h-309v1243h-398z" />
<glyph unicode="U" horiz-adv-x="1492" d="M207 567v963h309v-1008q0 -137 60.5 -211.5t173.5 -74.5q111 0 169 73.5t58 212.5v1008h309v-1036q0 -248 -143.5 -389.5t-392.5 -141.5q-264 0 -403.5 155.5t-139.5 448.5z" />
<glyph unicode="V" horiz-adv-x="1343" d="M45 1530h301l322 -1032l319 1032h311l-467 -1530h-311z" />
<glyph unicode="W" horiz-adv-x="2027" d="M100 1530h273l262 -1067l252 1065h248l262 -1067l254 1069h276l-387 -1530h-264l-262 979l-256 -979h-264z" />
<glyph unicode="X" horiz-adv-x="1343" d="M45 0l449 772l-445 758h354l267 -455l262 455h350l-436 -758l452 -772h-350l-278 467l-273 -467h-352z" />
<glyph unicode="Y" horiz-adv-x="1343" d="M47 1530h315l306 -631l297 631h331l-469 -991v-539h-307v537z" />
<glyph unicode="Z" d="M59 0v246l719 1034h-672v250h1039v-248l-719 -1032h733v-250h-1100z" />
<glyph unicode="[" horiz-adv-x="811" d="M98 0v1530h613v-123h-293v-1284h295v-123h-615z" />
<glyph unicode="\" horiz-adv-x="811" d="M102 1554h166l441 -1882h-168z" />
<glyph unicode="]" horiz-adv-x="811" d="M98 0v123h295v1284h-293v123h613v-1530h-615z" />
<glyph unicode="^" horiz-adv-x="1196" d="M115 692l377 799h223l366 -799h-284l-199 490l-197 -490h-286z" />
<glyph unicode="_" horiz-adv-x="1024" d="M0 -154h1024v-102h-1024v102z" />
<glyph unicode="`" horiz-adv-x="681" d="M33 1526h315l137 -299h-178z" />
<glyph unicode="a" horiz-adv-x="1087" d="M113 285q0 84 37 172q106 250 505 276v64q0 68 -46 109.5t-122 41.5q-121 0 -266 -125l-102 148q51 49 89 77.5t122 60.5t180 32q195 0 305.5 -91.5t110.5 -252.5v-529q0 -102 20.5 -143t71.5 -43v-111h-55q-109 0 -172.5 36t-96.5 118q-180 -154 -317 -154 q-113 0 -188.5 90.5t-75.5 223.5zM397 332q0 -63 35 -103.5t88 -40.5t95 46.5t42 105.5v235q-117 -12 -188.5 -79.5t-71.5 -163.5z" />
<glyph unicode="b" horiz-adv-x="1087" d="M156 0v1530h270v-639l31 41q86 115 147.5 160t128.5 45q78 0 134.5 -42t84 -99.5t43 -146.5t18.5 -148.5t3 -141.5q0 -223 -25.5 -340t-89.5 -182q-72 -72 -168 -72q-47 0 -94 24.5t-89 72t-65.5 77t-56.5 78.5v-217h-272zM428 365q106 -164 178 -164q61 0 86 65.5 t25 225.5q0 188 -17 303q-2 16 -8 35.5t-29.5 45t-58.5 25.5q-37 0 -76 -35t-100 -123v-378z" />
<glyph unicode="c" horiz-adv-x="937" d="M125 432v170q0 303 81 421t292 118q305 0 340 -350h-220q-37 125 -112 124q-53 0 -72.5 -43t-19.5 -155v-285q0 -141 19.5 -186t80.5 -45q98 0 117 135h225q-18 -178 -115 -273q-94 -92 -268 -92q-193 0 -270.5 103.5t-77.5 357.5z" />
<glyph unicode="d" horiz-adv-x="1087" d="M92 481v152q0 242 74 373t207 131q61 0 118.5 -37t93.5 -79t99 -126v635h270v-1530h-272v213q-49 -66 -74.5 -96.5t-67.5 -71.5t-82 -57.5t-85 -16.5q-281 0 -281 510zM397 418q0 -215 107 -215q61 0 162 139l16 27v372q-111 166 -182 166q-102 0 -103 -274v-215z" />
<glyph unicode="e" horiz-adv-x="937" d="M92 559q0 305 89 441.5t288 136.5q377 0 377 -516v-129h-484v-138q0 -94 53.5 -145t149.5 -51q49 0 97.5 14t78 29.5t95.5 52.5l-23 -213q-145 -70 -295 -70q-88 0 -157.5 23.5t-113.5 56.5t-75 89.5t-46 100.5t-23.5 114.5t-9.5 106.5t-1 97zM362 655h259v86 q0 231 -132 232q-127 0 -127 -201v-117z" />
<glyph unicode="f" horiz-adv-x="811" d="M104 891v207h144v102q0 195 90 281t295 86h115v-238q-125 -4 -177.5 -32.5t-52.5 -94.5v-104h230v-207h-230v-891h-270v891h-144z" />
<glyph unicode="g" horiz-adv-x="1087" d="M117 580q0 223 34.5 345t114.5 173q53 39 125 39q61 0 118.5 -34t92.5 -72t103 -120v187h268v-924q0 -272 -94.5 -385t-352.5 -113q-152 0 -230.5 35t-150.5 131l187 115q74 -98 178 -98q193 0 192 262v184q-109 -129 -169 -177t-146 -48q-94 0 -162 67 q-108 111 -108 433zM418 639q0 -172 18.5 -250t81.5 -78q76 0 184 144v303l-16 22q-94 123 -160 123q-57 0 -82.5 -61.5t-25.5 -202.5z" />
<glyph unicode="h" horiz-adv-x="1087" d="M121 0v1530h270v-600q188 203 357 203q219 0 219 -281v-852h-269v713q0 221 -110 221q-41 0 -85 -35t-114 -123v-776h-268z" />
<glyph unicode="i" horiz-adv-x="681" d="M207 0v1098h270v-1098h-270zM207 1278v252h270v-252h-270z" />
<glyph unicode="j" horiz-adv-x="681" d="M14 -86q127 0 171 37t44 178v971h273v-860q0 -78 -1 -121t-5 -105.5t-14.5 -98.5t-26 -80t-42 -67.5t-62.5 -47t-86 -33t-113 -9.5q-55 0 -138 9v227zM231 1282v248h271v-248h-271z" />
<glyph unicode="k" horiz-adv-x="1087" d="M182 0v1530h273v-1530h-273zM524 494v215l201 389h268l-258 -494l295 -604h-266z" />
<glyph unicode="l" horiz-adv-x="681" d="M207 0v1530h268v-1530h-268z" />
<glyph unicode="m" horiz-adv-x="1748" d="M131 0v1098h272v-234q55 63 89 99t89.5 83.5t112 69t117.5 21.5q195 0 203 -269q57 76 97 122t120 96.5t160 50.5q227 0 227 -297v-840h-270v803q0 53 -24 87t-62 34q-88 0 -170 -116t-82 -243v-565h-271v784q0 63 -24.5 99.5t-65.5 36.5q-78 0 -163 -111t-85 -199v-610 h-270z" />
<glyph unicode="n" horiz-adv-x="1087" d="M123 0v1098h272v-209q94 129 179 185t182 56q109 0 159 -72.5t50 -232.5v-825h-273v776q0 139 -92 139q-78 0 -141.5 -108.5t-63.5 -241.5v-565h-272z" />
<glyph unicode="o" horiz-adv-x="1087" d="M139 553q0 348 82 466t323.5 118t323.5 -118t82 -466t-82 -466t-323.5 -118t-323.5 118t-82 466zM410 553q0 -231 23.5 -292.5t111.5 -61.5t111.5 61.5t23.5 292.5t-23.5 292.5t-111.5 61.5t-111.5 -61.5t-23.5 -292.5z" />
<glyph unicode="p" horiz-adv-x="1087" d="M156 -289v1387h270v-209q100 135 171 190.5t146 55.5q86 0 148 -62q68 -66 95.5 -186.5t27.5 -347.5q0 -207 -24.5 -318.5t-86.5 -177.5q-74 -78 -166 -78q-61 0 -122.5 41t-99.5 86t-89 117v-498h-270zM426 358q70 -94 108.5 -128.5t73.5 -34.5q104 0 105 274v158 q0 143 -24.5 208.5t-80.5 65.5q-41 0 -76.5 -30.5t-87.5 -108.5l-18 -27v-377z" />
<glyph unicode="q" horiz-adv-x="1087" d="M115 449v186q0 240 73.5 371t208.5 131q59 0 122 -44t98.5 -89.5t84.5 -116.5v211h271v-1387h-271v506q-74 -117 -156.5 -182.5t-154.5 -65.5q-276 1 -276 480zM416 426q0 -223 102 -223q43 0 81 35.5t103 123.5v377l-26 41q-51 72 -82 96.5t-70 24.5q-57 0 -82.5 -60.5 t-25.5 -197.5v-217z" />
<glyph unicode="r" horiz-adv-x="811" d="M160 0v1098h266v-260q78 94 109.5 130t82 82t111.5 89h4v-371q-98 -8 -151 -31q-154 -68 -154 -237v-500h-268z" />
<glyph unicode="s" horiz-adv-x="811" d="M51 119l111 180q143 -125 233 -125q51 0 85 32t34 79q0 49 -42 87t-126 81q-53 27 -81.5 43t-74 51t-70 68.5t-44 87t-19.5 116.5q0 137 105.5 227.5t269.5 90.5q147 0 299 -105l-102 -176q-78 45 -112 59.5t-73 14.5q-57 0 -89.5 -29t-32.5 -80q0 -41 42 -77.5 t140 -84.5q45 -20 68.5 -34.5t78 -57.5t83 -109.5t28.5 -152.5q0 -135 -109.5 -234.5t-257.5 -99.5q-168 1 -344 148z" />
<glyph unicode="t" horiz-adv-x="811" d="M43 891v207h197v465h272v-465h215v-207h-215v-555q0 -66 27.5 -93.5t95.5 -27.5l90 10v-221q-106 -35 -190 -35t-144.5 27t-89.5 60.5t-44 87t-17 82t-2 71.5v594h-195z" />
<glyph unicode="u" horiz-adv-x="1087" d="M139 166v934h269v-742q0 -53 27.5 -86.5t72.5 -33.5q74 0 123 64.5t49 162.5v635h268v-1100h-270v211q-70 -80 -111 -120t-113.5 -81t-146.5 -41q-72 0 -120 56.5t-48 140.5z" />
<glyph unicode="v" horiz-adv-x="937" d="M72 1098h227l170 -668l178 668h221l-282 -1098h-236z" />
<glyph unicode="w" horiz-adv-x="1492" d="M106 1098h199l178 -697l181 697h170l180 -699l180 699h195l-281 -1098h-180l-178 698l-183 -698h-180z" />
<glyph unicode="x" horiz-adv-x="1087" d="M68 0l340 569l-314 529h279l174 -295l176 295h281l-318 -529l336 -569h-279l-198 334l-201 -334h-276z" />
<glyph unicode="y" horiz-adv-x="937" d="M63 1098h252l203 -574l168 574h232l-273 -932q-23 -76 -36 -116t-39.5 -108.5t-53.5 -106.5t-66.5 -80t-91 -60.5t-112.5 -18.5q-84 0 -172 41v258q74 -43 141 -43q133 0 188 195z" />
<glyph unicode="z" horiz-adv-x="937" d="M88 0v211l469 678h-457v209h744v-209l-465 -678h473v-211h-764z" />
<glyph unicode="{" horiz-adv-x="796" d="M57 487v240q143 6 181 91t38 302q0 98 5.5 155.5t28 121t65.5 95.5t120.5 53.5t192.5 21.5h53v-238q-131 0 -167.5 -25.5t-36.5 -119.5q0 -207 -18.5 -316.5t-55.5 -161t-115 -100.5q61 -35 99 -78t55.5 -109.5t21.5 -114.5t8 -152l5 -121q0 -98 42 -122t162 -24v-239 h-53q-86 0 -151.5 12t-109.5 29.5t-72.5 55.5t-44 68.5t-23.5 92t-9.5 101.5t-1.5 122q0 182 -32 250q-20 47 -55 72.5t-60 30.5t-72 7z" />
<glyph unicode="|" horiz-adv-x="1202" d="M494 -512v2048h217v-2048h-217z" />
<glyph unicode="}" horiz-adv-x="796" d="M55 -115q119 0 162 24.5t43 121.5l4 121q4 84 6 121.5t12.5 99t29 95.5t52 72t82.5 66q-117 76 -146.5 164t-35.5 293q-4 74 -4 121q-2 96 -39 120.5t-166 24.5v238h54q76 0 135 -7.5t101 -27t73 -38.5t49 -57t29.5 -67t16.5 -84t6 -93t1 -108q0 -178 31 -247 q20 -49 56 -75t59.5 -30t72.5 -6v-240q-143 -8 -181 -93t-38 -300q0 -98 -5 -155.5t-27.5 -122t-65.5 -96t-121 -53t-192 -21.5h-54v239z" />
<glyph unicode="~" horiz-adv-x="1343" d="M117 547v223q160 137 317 137q100 0 271 -84q158 -76 229 -75q127 0 293 147v-223q-168 -139 -303 -140q-63 0 -123 19.5t-183 79.5q-133 63 -198 63q-143 0 -303 -147z" />
<glyph unicode="&#xa1;" horiz-adv-x="681" d="M174 -289l78 977h190l68 -977h-336zM184 907v332h316v-332h-316z" />
<glyph unicode="&#xa2;" horiz-adv-x="937" d="M102 397v201q0 72 3.5 120t12.5 118.5t32.5 116.5t60.5 91.5t98.5 68t143.5 22.5q57 0 118 -13l119 443h111l-127 -482q135 -98 147 -299h-227l-154 -581q20 -8 41 -8q115 0 127 133h228q-12 -133 -64 -211q-96 -147 -323 -148q-35 0 -68 6l-80 -297h-113l84 320 q-37 16 -60.5 34.5t-52 59.5t-43 117.5t-14.5 187.5zM373 381l139 524q-20 4 -41 4q-39 0 -63 -28q-23 -23 -29 -70t-6 -215v-215z" />
<glyph unicode="&#xa3;" d="M90 -33v264q119 16 175.5 83t56.5 194q0 86 -13 160h-219v194h186q-33 168 -32 285q0 186 126 307t320 121q88 0 170 -29.5t115 -52.5t88 -66l-143 -229q-98 147 -228 148q-82 0 -132 -59.5t-50 -156.5q0 -113 41 -268h283v-192h-252q8 -59 8 -154q0 -109 -41 -229 q117 -90 209 -90q156 0 155 229h215v-37q0 -199 -90 -310.5t-252 -111.5q-76 0 -145.5 20.5t-110.5 44t-102 66.5q-37 -33 -64.5 -53t-102.5 -46t-171 -32z" />
<glyph unicode="&#xa4;" horiz-adv-x="1425" d="M186 295l131 129q-74 123 -73.5 252t73.5 252l-131 131l140 143l133 -133q123 74 252 74t254 -74l131 133l141 -143l-131 -131q72 -123 72 -252q0 -133 -72 -252l131 -129l-141 -141l-131 129q-121 -74 -254 -74q-131 0 -252 74l-129 -129zM444 675.5q0 -110.5 78 -189 t188.5 -78.5t189.5 78.5t79 189t-79 188.5t-189.5 78t-188.5 -78t-78 -188.5z" />
<glyph unicode="&#xa5;" horiz-adv-x="1343" d="M49 311v160h473v21v139h-473v160h395l-395 739h316l305 -555l299 555h327l-391 -739h391v-160h-467v-160h465v-160h-465v-311h-307v311h-473z" />
<glyph unicode="&#xa6;" horiz-adv-x="1202" d="M494 -358v716h217v-716h-217zM494 666v716h217v-716h-217z" />
<glyph unicode="&#xa7;" d="M139 743q0 186 211 265q-133 109 -133 231q0 141 112.5 238.5t276.5 97.5q115 0 217.5 -62.5t165.5 -173.5l-184 -100q-43 63 -103.5 101t-119.5 38q-57 0 -94 -29.5t-37 -76.5q0 -43 32.5 -75t64.5 -45t95 -34q436 -143 436 -418q0 -141 -127 -208q-45 -25 -125 -37 q182 -102 183 -267q0 -141 -118 -230t-304 -89q-195 0 -316 117q-43 43 -79 127l196 106q78 -168 236 -168q66 0 104.5 31t38.5 82q0 55 -49 93t-180 81q-227 76 -316 180q-84 98 -84 225zM358 784q0 -70 136.5 -140.5t232.5 -70.5q45 0 78 28t33 65q0 57 -83 108t-168 77 t-126 26q-45 0 -74 -26t-29 -67z" />
<glyph unicode="&#xa8;" horiz-adv-x="681" d="M6 1284v242h240v-242h-240zM436 1282v244h240v-244h-240z" />
<glyph unicode="&#xa9;" horiz-adv-x="1642" d="M57 727q0 317 223.5 540.5t541 223.5t540.5 -223.5t223 -540.5q0 -315 -224 -538.5t-539.5 -223.5t-540 223.5t-224.5 538.5zM205 727q0 -254 180 -434t436 -180t436.5 180t180.5 434q0 256 -180.5 436t-436.5 180t-436 -180t-180 -436zM410 729q0 186 117.5 307 t299.5 121q143 0 242.5 -74.5t126.5 -201.5l-197 -31q-37 160 -186 160q-84 0 -132 -74t-48 -203q0 -168 61 -235q49 -55 127 -56q137 0 178 193l205 -49q-88 -289 -377 -289q-186 0 -301.5 118.5t-115.5 313.5z" />
<glyph unicode="&#xaa;" horiz-adv-x="681" d="M57 1036q0 72 29 127.5t62.5 83t91 47t85 24.5t72.5 9v37q0 43 -29.5 69.5t-78.5 26.5q-72 0 -166 -78l-66 95q121 106 246 106q121 0 192.5 -57.5t71.5 -153.5v-352q0 -104 60 -107v-69h-45q-119 2 -162 98q-113 -98 -197 -98q-74 0 -120 54t-46 138zM233 1071 q0 -39 21.5 -63.5t56.5 -24.5q37 0 61.5 27.5t24.5 68.5v148q-74 -10 -119 -52.5t-45 -103.5z" />
<glyph unicode="&#xab;" horiz-adv-x="980" d="M49 549l215 549h256l-221 -549l221 -549h-256zM461 549l215 549h256l-217 -549l217 -549h-256z" />
<glyph unicode="&#xac;" horiz-adv-x="1366" d="M125 809v215h1116v-702h-215v487h-901z" />
<glyph unicode="&#xad;" horiz-adv-x="811" d="M92 414v286h627v-286h-627z" />
<glyph unicode="&#xae;" horiz-adv-x="1642" d="M57 727q0 317 223.5 540.5t541 223.5t540.5 -223.5t223 -540.5q0 -315 -224 -538.5t-539.5 -223.5t-540 223.5t-224.5 538.5zM205 727q0 -254 180 -434t436 -180t436.5 180t180.5 434q0 256 -180.5 436t-436.5 180t-436 -180t-180 -436zM475 319v818h365q295 0 295 -234 q0 -176 -222 -225q49 -18 80 -49q25 -27 51.5 -71t135.5 -239h-240l-31 60q-84 172 -127 222t-104 40v-322h-203zM678 791h88q160 0 160 102t-152 102h-96v-204z" />
<glyph unicode="&#xaf;" horiz-adv-x="681" d="M18 1272v186h646v-186h-646z" />
<glyph unicode="&#xb0;" horiz-adv-x="819" d="M90 1171.5q0 131.5 94.5 225.5t225.5 94t225 -94t94 -225.5t-94 -225.5t-225 -94q-133 2 -226.5 95t-93.5 224.5zM256 1171.5q0 -63.5 45 -107.5t108.5 -44t108.5 44t45 107.5t-45 108.5t-108.5 45t-108.5 -45t-45 -108.5z" />
<glyph unicode="&#xb1;" horiz-adv-x="1368" d="M125 -59v215h1116v-215h-1116zM125 748v215h450v450h216v-450h450v-215h-450v-451h-216v451h-450z" />
<glyph unicode="&#xb2;" horiz-adv-x="724" d="M102 1389q47 96 107.5 136t157.5 40q111 0 184.5 -61.5t73.5 -153.5q0 -70 -42 -133.5t-157 -165.5q-47 -43 -96 -93h284v-163h-505q8 88 37.5 155.5t60.5 100t94 90.5q76 68 103.5 107.5t27.5 82.5q0 41 -25.5 66.5t-66.5 25.5t-67.5 -25.5t-47.5 -82.5z" />
<glyph unicode="&#xb3;" horiz-adv-x="724" d="M86 780l6 142q66 -8 113 -9q115 0 184.5 41t69.5 107q0 35 -23.5 58.5t-60.5 23.5q-29 0 -90 -27l-45 111q115 53 156.5 89t41.5 77q0 23 -19.5 39t-45.5 16q-63 0 -172 -100l-90 108q55 41 86.5 59.5t87 36t121.5 17.5q90 0 147 -43t57 -109q0 -80 -123 -176 q154 -41 154 -178q0 -129 -119 -209t-309 -80q-35 0 -127 6z" />
<glyph unicode="&#xb4;" horiz-adv-x="681" d="M184 1227l140 299h315l-277 -299h-178z" />
<glyph unicode="&#xb5;" horiz-adv-x="1251" d="M156 -408v1506h268v-549q0 -74 7 -130.5t27.5 -108.5t62.5 -80.5t105.5 -28.5t105.5 28.5t62.5 80.5t27.5 108.5t7 130.5v549h267v-1098h-267v88q-70 -113 -202.5 -113t-202.5 113v-496h-268z" />
<glyph unicode="&#xb6;" horiz-adv-x="1138" d="M4 1116q0 188 138.5 301t396.5 113h596v-262h-113v-1608h-238v1608h-143v-1608h-244v1047q-186 14 -289.5 120.5t-103.5 288.5z" />
<glyph unicode="&#xb7;" horiz-adv-x="681" d="M186 598v336h312v-336h-312z" />
<glyph unicode="&#xb8;" horiz-adv-x="681" d="M68 -285q94 -12 188 -12q76 0 121 25.5t45 68.5q0 84 -129 84q-59 0 -129 -18l24 98q84 27 170 27q115 0 184.5 -52.5t69.5 -136.5q0 -100 -95 -159.5t-255 -59.5q-121 0 -194 17v118z" />
<glyph unicode="&#xb9;" horiz-adv-x="724" d="M129 795v145h168v463h-162v149h332v-612h131v-145h-469z" />
<glyph unicode="&#xba;" horiz-adv-x="681" d="M86 1210.5q0 219.5 52 294t204 74.5t204 -74.5t52 -294t-52 -293t-204 -73.5t-204 73.5t-52 293zM256 1210.5q0 -145.5 15.5 -184.5t70.5 -39q53 0 68.5 39t15.5 184.5t-15.5 184.5t-68.5 39q-55 0 -70.5 -39t-15.5 -184.5z" />
<glyph unicode="&#xbb;" horiz-adv-x="980" d="M47 0l221 549l-221 549h256l215 -549l-215 -549h-256zM463 0l217 549l-217 549h256l215 -549l-215 -549h-256z" />
<glyph unicode="&#xbc;" horiz-adv-x="1748" d="M104 797v145h166v463h-159v149h329v-612h131v-145h-467zM348 -74l889 1643h137l-893 -1643h-133zM1079 106v154l267 432h227v-452h74v-131h-74v-172h-172v169h-322zM1206 240h193v309z" />
<glyph unicode="&#xbd;" horiz-adv-x="1748" d="M123 797v145h166v463h-160v149h330v-612h131v-145h-467zM356 -74l889 1643h137l-893 -1643h-133zM1104 528q49 96 109.5 137.5t156.5 41.5q111 0 183.5 -61.5t72.5 -153.5q0 -70 -43 -134.5t-156 -167.5q-66 -59 -94 -90h283v-163h-506q8 88 38 154.5t60.5 99t94.5 90.5 q78 70 104.5 108.5t26.5 81.5q0 39 -26 65.5t-65 26.5q-41 0 -66.5 -23.5t-47.5 -82.5z" />
<glyph unicode="&#xbe;" horiz-adv-x="1748" d="M76 780l6 142q70 -8 115 -9q115 0 184.5 41t69.5 107q0 35 -25 58.5t-59 23.5q-29 0 -91 -27l-45 111q115 53 157 89t42 77q0 23 -19.5 39t-48.5 16q-61 0 -169 -100l-91 108q53 39 86 58.5t88.5 37t120.5 17.5q88 0 145.5 -43t57.5 -109q0 -82 -123 -176 q154 -39 154 -178q0 -129 -119 -209t-309 -80q-29 0 -127 6zM375 -74l889 1643h137l-893 -1643h-133zM1106 106v154l266 432h227v-452h74v-131h-74v-172h-172v169h-321zM1233 240h192v309z" />
<glyph unicode="&#xbf;" horiz-adv-x="937" d="M59 6q0 162 172 322q76 68 106 135t30 168v59h225v-141q0 -82 -32 -162t-59.5 -118t-74.5 -93q-86 -98 -86 -164q0 -51 36 -84.5t89 -33.5q125 0 166 176l248 -105q-41 -100 -93 -153q-125 -133 -337 -134q-184 0 -287 86t-103 242zM322 903v336h311v-336h-311z" />
<glyph unicode="&#xc0;" horiz-adv-x="1343" d="M45 0l424 1530h393l436 -1530h-311l-96 346h-492l-96 -346h-258zM324 1958h315l137 -299h-178zM461 571h364l-184 646z" />
<glyph unicode="&#xc1;" horiz-adv-x="1343" d="M45 0l424 1530h393l436 -1530h-311l-96 346h-492l-96 -346h-258zM461 571h364l-184 646zM557 1659l139 299h316l-277 -299h-178z" />
<glyph unicode="&#xc2;" horiz-adv-x="1343" d="M45 0l424 1530h393l436 -1530h-311l-96 346h-492l-96 -346h-258zM334 1663l211 295h260l207 -295h-226l-116 149l-109 -149h-227zM461 571h364l-184 646z" />
<glyph unicode="&#xc3;" horiz-adv-x="1343" d="M45 0l424 1530h393l436 -1530h-311l-96 346h-492l-96 -346h-258zM328 1673q-6 127 47 193q49 61 135 61q57 0 164 -47q88 -41 133 -41q70 0 82 88h129q0 -252 -178 -252q-53 0 -170 45q-102 39 -146 39q-70 0 -69 -86h-127zM461 571h364l-184 646z" />
<glyph unicode="&#xc4;" horiz-adv-x="1343" d="M45 0l424 1530h393l436 -1530h-311l-96 346h-492l-96 -346h-258zM338 1716v242h240v-242h-240zM461 571h364l-184 646zM768 1714v244h240v-244h-240z" />
<glyph unicode="&#xc5;" horiz-adv-x="1343" d="M45 0l424 1530h393l436 -1530h-311l-96 346h-492l-96 -346h-258zM461 571h364l-184 646zM477 1808q0 82 57.5 139.5t139.5 57.5t138 -57.5t56 -139.5q0 -80 -56 -137t-138 -57t-139.5 57t-57.5 137zM584 1810q0 -37 26.5 -63.5t63.5 -26.5t62.5 27t25.5 61 q0 39 -25.5 64.5t-62.5 25.5t-63.5 -26.5t-26.5 -61.5z" />
<glyph unicode="&#xc6;" horiz-adv-x="2027" d="M80 0l631 1530h1194v-287h-570v-309h344v-287h-342v-360h611v-287h-916v412h-459l-170 -412h-323zM674 657h358v652h-94z" />
<glyph unicode="&#xc7;" d="M59 741q0 334 48.5 491t175.5 243q147 100 364 100q336 0 440 -250q33 -76 39 -223h-305q-8 109 -66.5 167t-156.5 58q-82 0 -139 -57q-39 -39 -52.5 -97.5t-13.5 -177.5v-413q0 -174 55.5 -250t182.5 -76q92 0 148.5 58.5t68.5 166.5h309q-6 -248 -150.5 -381 t-408.5 -133q-283 0 -411 178t-128 596zM344 -346q94 -12 188 -12q76 0 121 25.5t45 68.5q0 84 -129 84q-59 0 -129 -19l25 99q84 27 170 26q115 0 184.5 -52t69.5 -136q0 -100 -95.5 -159.5t-254.5 -59.5q-121 0 -195 16v119z" />
<glyph unicode="&#xc8;" horiz-adv-x="1343" d="M150 0v1530h1052v-287h-741v-315h510v-287h-510v-354h776v-287h-1087zM365 1958h315l137 -299h-178z" />
<glyph unicode="&#xc9;" horiz-adv-x="1343" d="M150 0v1530h1052v-287h-741v-315h510v-287h-510v-354h776v-287h-1087zM516 1659l139 299h316l-277 -299h-178z" />
<glyph unicode="&#xca;" horiz-adv-x="1343" d="M150 0v1530h1052v-287h-741v-315h510v-287h-510v-354h776v-287h-1087zM354 1663l211 295h260l207 -295h-225l-117 149l-108 -149h-228z" />
<glyph unicode="&#xcb;" horiz-adv-x="1343" d="M150 0v1530h1052v-287h-741v-315h510v-287h-510v-354h776v-287h-1087zM358 1716v242h240v-242h-240zM788 1714v244h240v-244h-240z" />
<glyph unicode="&#xcc;" horiz-adv-x="811" d="M57 1958h316l137 -299h-178zM70 0v160h182v1210h-182v160h669v-160h-178v-1210h180v-160h-671z" />
<glyph unicode="&#xcd;" horiz-adv-x="811" d="M70 0v160h182v1210h-182v160h669v-160h-178v-1210h180v-160h-671zM291 1659l139 299h315l-276 -299h-178z" />
<glyph unicode="&#xce;" horiz-adv-x="811" d="M68 1663l211 295h260l206 -295h-225l-117 149l-108 -149h-227zM70 0v160h182v1210h-182v160h669v-160h-178v-1210h180v-160h-671z" />
<glyph unicode="&#xcf;" horiz-adv-x="811" d="M70 0v160h182v1210h-182v160h669v-160h-178v-1210h180v-160h-671zM72 1716v242h239v-242h-239zM502 1714v244h239v-244h-239z" />
<glyph unicode="&#xd0;" horiz-adv-x="1343" d="M98 694v135h142v701h407q119 0 233.5 -41t184.5 -109q180 -178 180 -606q0 -184 -25.5 -314t-94 -239.5t-200.5 -165t-333 -55.5h-352v694h-142zM549 252h65q166 0 231.5 103.5t65.5 363.5q0 127 -5 207t-22.5 154.5t-51 113.5t-88 62.5t-136.5 23.5h-59v-451h186v-135 h-186v-442z" />
<glyph unicode="&#xd1;" horiz-adv-x="1492" d="M201 0v1530h329l476 -969v969h288v-1530h-284l-521 1047v-1047h-288zM422 1673q-6 127 47 193q49 61 135 61q57 0 164 -47q88 -41 133 -41q70 0 82 88h129q0 -252 -178 -252q-53 0 -170 45q-102 39 -146 39q-70 0 -69 -86h-127z" />
<glyph unicode="&#xd2;" d="M84 784q0 147 11 258t45 216.5t90.5 172t150.5 107.5t223 41q102 0 184 -23.5t137.5 -62.5t94.5 -102.5t61.5 -126t34.5 -152.5t15.5 -164t3.5 -176q0 -119 -6.5 -207t-24 -187t-54 -167t-93 -127t-146.5 -88t-207 -29q-102 0 -184 26.5t-135.5 67.5t-92 109t-59 131.5 t-32 155.5t-14.5 160.5t-3 166.5zM301 1958h315l138 -299h-179zM420 823q0 -315 38 -447t150 -132q102 0 146.5 109.5t44.5 367.5q0 231 -25 395q-12 82 -53 135.5t-111 53.5q-102 0 -146 -112t-44 -370z" />
<glyph unicode="&#xd3;" d="M84 784q0 147 11 258t45 216.5t90.5 172t150.5 107.5t223 41q102 0 184 -23.5t137.5 -62.5t94.5 -102.5t61.5 -126t34.5 -152.5t15.5 -164t3.5 -176q0 -119 -6.5 -207t-24 -187t-54 -167t-93 -127t-146.5 -88t-207 -29q-102 0 -184 26.5t-135.5 67.5t-92 109t-59 131.5 t-32 155.5t-14.5 160.5t-3 166.5zM420 823q0 -315 38 -447t150 -132q102 0 146.5 109.5t44.5 367.5q0 231 -25 395q-12 82 -53 135.5t-111 53.5q-102 0 -146 -112t-44 -370zM453 1659l139 299h315l-276 -299h-178z" />
<glyph unicode="&#xd4;" d="M84 784q0 147 11 258t45 216.5t90.5 172t150.5 107.5t223 41q102 0 184 -23.5t137.5 -62.5t94.5 -102.5t61.5 -126t34.5 -152.5t15.5 -164t3.5 -176q0 -119 -6.5 -207t-24 -187t-54 -167t-93 -127t-146.5 -88t-207 -29q-102 0 -184 26.5t-135.5 67.5t-92 109t-59 131.5 t-32 155.5t-14.5 160.5t-3 166.5zM270 1663l211 295h260l207 -295h-225l-117 149l-108 -149h-228zM420 823q0 -315 38 -447t150 -132q102 0 146.5 109.5t44.5 367.5q0 231 -25 395q-12 82 -53 135.5t-111 53.5q-102 0 -146 -112t-44 -370z" />
<glyph unicode="&#xd5;" d="M84 784q0 147 11 258t45 216.5t90.5 172t150.5 107.5t223 41q102 0 184 -23.5t137.5 -62.5t94.5 -102.5t61.5 -126t34.5 -152.5t15.5 -164t3.5 -176q0 -119 -6.5 -207t-24 -187t-54 -167t-93 -127t-146.5 -88t-207 -29q-102 0 -184 26.5t-135.5 67.5t-92 109t-59 131.5 t-32 155.5t-14.5 160.5t-3 166.5zM264 1673q-6 127 47 193q49 61 135 61q57 0 164 -47q88 -41 133 -41q70 0 82 88h129q0 -252 -178 -252q-53 0 -170 45q-102 39 -145 39q-70 0 -70 -86h-127zM420 823q0 -315 38 -447t150 -132q102 0 146.5 109.5t44.5 367.5q0 231 -25 395 q-12 82 -53 135.5t-111 53.5q-102 0 -146 -112t-44 -370z" />
<glyph unicode="&#xd6;" d="M84 784q0 147 11 258t45 216.5t90.5 172t150.5 107.5t223 41q102 0 184 -23.5t137.5 -62.5t94.5 -102.5t61.5 -126t34.5 -152.5t15.5 -164t3.5 -176q0 -119 -6.5 -207t-24 -187t-54 -167t-93 -127t-146.5 -88t-207 -29q-102 0 -184 26.5t-135.5 67.5t-92 109t-59 131.5 t-32 155.5t-14.5 160.5t-3 166.5zM274 1716v242h240v-242h-240zM420 823q0 -315 38 -447t150 -132q102 0 146.5 109.5t44.5 367.5q0 231 -25 395q-12 82 -53 135.5t-111 53.5q-102 0 -146 -112t-44 -370zM705 1714v244h239v-244h-239z" />
<glyph unicode="&#xd7;" horiz-adv-x="1366" d="M158 1049l151 151l375 -375l375 375l151 -151l-372 -375l370 -371l-151 -151l-371 370l-373 -370l-151 151l370 371z" />
<glyph unicode="&#xd8;" d="M61 -92l138 250q-59 98 -85 226t-26 396q0 279 40 434.5t134 241.5q131 119 346 119q100 0 169 -20.5t147 -73.5l114 209l119 -66l-135 -250q39 -59 57 -121q53 -170 54 -512q0 -137 -9.5 -235t-40 -207t-86 -176.5t-155 -112.5t-238.5 -45q-170 0 -305 86l-115 -209z M422 782q0 -127 10 -204l324 596q-41 129 -148 129q-102 0 -144 -116t-42 -405zM465 352q45 -115 147 -114q100 0 142.5 118.5t42.5 405.5q0 102 -9 184z" />
<glyph unicode="&#xd9;" horiz-adv-x="1492" d="M207 567v963h309v-1008q0 -137 60.5 -211.5t173.5 -74.5q111 0 169 73.5t58 212.5v1008h309v-1036q0 -248 -143.5 -389.5t-392.5 -141.5q-264 0 -403.5 155.5t-139.5 448.5zM438 1958h316l137 -299h-178z" />
<glyph unicode="&#xda;" horiz-adv-x="1492" d="M207 567v963h309v-1008q0 -137 60.5 -211.5t173.5 -74.5q111 0 169 73.5t58 212.5v1008h309v-1036q0 -248 -143.5 -389.5t-392.5 -141.5q-264 0 -403.5 155.5t-139.5 448.5zM590 1659l139 299h315l-276 -299h-178z" />
<glyph unicode="&#xdb;" horiz-adv-x="1492" d="M207 567v963h309v-1008q0 -137 60.5 -211.5t173.5 -74.5q111 0 169 73.5t58 212.5v1008h309v-1036q0 -248 -143.5 -389.5t-392.5 -141.5q-264 0 -403.5 155.5t-139.5 448.5zM408 1663l210 295h261l206 -295h-225l-117 149l-108 -149h-227z" />
<glyph unicode="&#xdc;" horiz-adv-x="1492" d="M207 567v963h309v-1008q0 -137 60.5 -211.5t173.5 -74.5q111 0 169 73.5t58 212.5v1008h309v-1036q0 -248 -143.5 -389.5t-392.5 -141.5q-264 0 -403.5 155.5t-139.5 448.5zM412 1716v242h239v-242h-239zM842 1714v244h239v-244h-239z" />
<glyph unicode="&#xdd;" horiz-adv-x="1343" d="M47 1530h315l306 -631l297 631h331l-469 -991v-539h-307v537zM516 1659l139 299h316l-277 -299h-178z" />
<glyph unicode="&#xde;" horiz-adv-x="1343" d="M186 0v1530h312v-275h192q260 0 404.5 -133t144.5 -352t-145.5 -357.5t-403.5 -138.5h-194v-274h-310zM498 543h147q115 0 187.5 59.5t72.5 153.5q0 231 -282 231h-125v-444z" />
<glyph unicode="&#xdf;" horiz-adv-x="1130" d="M139 0v1145q0 213 106.5 313.5t329.5 100.5q203 0 317 -93.5t114 -261.5q0 -147 -59.5 -212.5t-180.5 -104.5q143 -25 204.5 -109t61.5 -299q0 -180 -23.5 -273t-82.5 -153q-94 -90 -244 -90q-84 0 -164 41v217q80 -35 119 -35q59 0 82.5 51.5t23.5 184.5v100 q0 248 -143 248h-41v213q92 2 129 39t37 123q0 207 -160 207q-70 0 -111.5 -51.5t-41.5 -137.5v-1163h-273z" />
<glyph unicode="&#xe0;" horiz-adv-x="1087" d="M113 285q0 84 37 172q106 250 505 276v64q0 68 -46 109.5t-122 41.5q-121 0 -266 -125l-102 148q51 49 89 77.5t122 60.5t180 32q195 0 305.5 -91.5t110.5 -252.5v-529q0 -102 20.5 -143t71.5 -43v-111h-55q-109 0 -172.5 36t-96.5 118q-180 -154 -317 -154 q-113 0 -188.5 90.5t-75.5 223.5zM236 1526h315l137 -299h-178zM397 332q0 -63 35 -103.5t88 -40.5t95 46.5t42 105.5v235q-117 -12 -188.5 -79.5t-71.5 -163.5z" />
<glyph unicode="&#xe1;" horiz-adv-x="1087" d="M113 285q0 84 37 172q106 250 505 276v64q0 68 -46 109.5t-122 41.5q-121 0 -266 -125l-102 148q51 49 89 77.5t122 60.5t180 32q195 0 305.5 -91.5t110.5 -252.5v-529q0 -102 20.5 -143t71.5 -43v-111h-55q-109 0 -172.5 36t-96.5 118q-180 -154 -317 -154 q-113 0 -188.5 90.5t-75.5 223.5zM387 1227l139 299h316l-277 -299h-178zM397 332q0 -63 35 -103.5t88 -40.5t95 46.5t42 105.5v235q-117 -12 -188.5 -79.5t-71.5 -163.5z" />
<glyph unicode="&#xe2;" horiz-adv-x="1087" d="M113 285q0 84 37 172q106 250 505 276v64q0 68 -46 109.5t-122 41.5q-121 0 -266 -125l-102 148q51 49 89 77.5t122 60.5t180 32q195 0 305.5 -91.5t110.5 -252.5v-529q0 -102 20.5 -143t71.5 -43v-111h-55q-109 0 -172.5 36t-96.5 118q-180 -154 -317 -154 q-113 0 -188.5 90.5t-75.5 223.5zM205 1231l211 295h260l207 -295h-226l-116 149l-109 -149h-227zM397 332q0 -63 35 -103.5t88 -40.5t95 46.5t42 105.5v235q-117 -12 -188.5 -79.5t-71.5 -163.5z" />
<glyph unicode="&#xe3;" horiz-adv-x="1087" d="M113 285q0 84 37 172q106 250 505 276v64q0 68 -46 109.5t-122 41.5q-121 0 -266 -125l-102 148q51 49 89 77.5t122 60.5t180 32q195 0 305.5 -91.5t110.5 -252.5v-529q0 -102 20.5 -143t71.5 -43v-111h-55q-109 0 -172.5 36t-96.5 118q-180 -154 -317 -154 q-113 0 -188.5 90.5t-75.5 223.5zM199 1241q-6 127 47 193q49 61 135 61q57 0 164 -47q88 -41 133 -41q70 0 82 88h129q0 -252 -178 -252q-53 0 -170 45q-102 39 -146 39q-70 0 -69 -86h-127zM397 332q0 -63 35 -103.5t88 -40.5t95 46.5t42 105.5v235q-117 -12 -188.5 -79.5 t-71.5 -163.5z" />
<glyph unicode="&#xe4;" horiz-adv-x="1087" d="M113 285q0 84 37 172q106 250 505 276v64q0 68 -46 109.5t-122 41.5q-121 0 -266 -125l-102 148q51 49 89 77.5t122 60.5t180 32q195 0 305.5 -91.5t110.5 -252.5v-529q0 -102 20.5 -143t71.5 -43v-111h-55q-109 0 -172.5 36t-96.5 118q-180 -154 -317 -154 q-113 0 -188.5 90.5t-75.5 223.5zM209 1284v242h240v-242h-240zM397 332q0 -63 35 -103.5t88 -40.5t95 46.5t42 105.5v235q-117 -12 -188.5 -79.5t-71.5 -163.5zM639 1282v244h240v-244h-240z" />
<glyph unicode="&#xe5;" horiz-adv-x="1087" d="M113 285q0 84 37 172q106 250 505 276v64q0 68 -46 109.5t-122 41.5q-121 0 -266 -125l-102 148q51 49 89 77.5t122 60.5t180 32q195 0 305.5 -91.5t110.5 -252.5v-529q0 -102 20.5 -143t71.5 -43v-111h-55q-109 0 -172.5 36t-96.5 118q-180 -154 -317 -154 q-113 0 -188.5 90.5t-75.5 223.5zM348 1376q0 82 57.5 139.5t139.5 57.5t138 -57.5t56 -139.5q0 -80 -56 -137t-138 -57t-139.5 57t-57.5 137zM397 332q0 -63 35 -103.5t88 -40.5t95 46.5t42 105.5v235q-117 -12 -188.5 -79.5t-71.5 -163.5zM455 1378q0 -37 26.5 -63.5 t63.5 -26.5t62.5 26.5t25.5 61.5q0 39 -25.5 64.5t-62.5 25.5t-63.5 -26.5t-26.5 -61.5z" />
<glyph unicode="&#xe6;" horiz-adv-x="1748" d="M158 270q0 127 83 234.5t228 165.5q117 47 301 57v39q0 80 -56.5 127t-152.5 47q-115 0 -280 -119l-107 133q207 182 399 183q150 0 297 -121q66 59 144 92q72 29 162 29q201 0 308 -133.5t107 -385.5v-126h-553v-48q0 -152 60.5 -222t191.5 -70q135 0 279 92l-17 -174 q-147 -102 -327 -103q-184 0 -310 103q-43 33 -86 100q-182 -203 -385 -203q-121 0 -203.5 87t-82.5 216zM455 305q0 -59 34.5 -101t85.5 -42q70 0 132.5 81t62.5 169v170q-141 -25 -228 -101t-87 -176zM1042 662h314v69q0 113 -45 180.5t-117 67.5t-112 -70.5t-40 -201.5 v-45z" />
<glyph unicode="&#xe7;" horiz-adv-x="937" d="M104 432v170q0 303 81 421t292 118q305 0 340 -350h-219q-37 125 -113 124q-53 0 -72.5 -43t-19.5 -155v-285q0 -141 19.5 -186t81.5 -45q98 0 116 135h226q-18 -178 -115 -273q-94 -92 -268 -92q-193 0 -271 103.5t-78 357.5zM182 -346q94 -12 189 -12q76 0 121 25.5 t45 68.5q0 84 -129 84q-59 0 -129 -19l24 99q84 27 170 26q115 0 184.5 -52t69.5 -136q0 -100 -95 -159.5t-255 -59.5q-121 0 -195 16v119z" />
<glyph unicode="&#xe8;" horiz-adv-x="937" d="M92 559q0 305 89 441.5t288 136.5q377 0 377 -516v-129h-484v-138q0 -94 53.5 -145t149.5 -51q49 0 97.5 14t78 29.5t95.5 52.5l-23 -213q-145 -70 -295 -70q-88 0 -157.5 23.5t-113.5 56.5t-75 89.5t-46 100.5t-23.5 114.5t-9.5 106.5t-1 97zM162 1526h315l137 -299 h-178zM362 655h259v86q0 231 -132 232q-127 0 -127 -201v-117z" />
<glyph unicode="&#xe9;" horiz-adv-x="937" d="M92 559q0 305 89 441.5t288 136.5q377 0 377 -516v-129h-484v-138q0 -94 53.5 -145t149.5 -51q49 0 97.5 14t78 29.5t95.5 52.5l-23 -213q-145 -70 -295 -70q-88 0 -157.5 23.5t-113.5 56.5t-75 89.5t-46 100.5t-23.5 114.5t-9.5 106.5t-1 97zM313 1227l140 299h315 l-276 -299h-179zM362 655h259v86q0 231 -132 232q-127 0 -127 -201v-117z" />
<glyph unicode="&#xea;" horiz-adv-x="937" d="M92 559q0 305 89 441.5t288 136.5q377 0 377 -516v-129h-484v-138q0 -94 53.5 -145t149.5 -51q49 0 97.5 14t78 29.5t95.5 52.5l-23 -213q-145 -70 -295 -70q-88 0 -157.5 23.5t-113.5 56.5t-75 89.5t-46 100.5t-23.5 114.5t-9.5 106.5t-1 97zM131 1231l211 295h260 l207 -295h-225l-117 149l-109 -149h-227zM362 655h259v86q0 231 -132 232q-127 0 -127 -201v-117z" />
<glyph unicode="&#xeb;" horiz-adv-x="937" d="M92 559q0 305 89 441.5t288 136.5q377 0 377 -516v-129h-484v-138q0 -94 53.5 -145t149.5 -51q49 0 97.5 14t78 29.5t95.5 52.5l-23 -213q-145 -70 -295 -70q-88 0 -157.5 23.5t-113.5 56.5t-75 89.5t-46 100.5t-23.5 114.5t-9.5 106.5t-1 97zM135 1284v242h240v-242 h-240zM362 655h259v86q0 231 -132 232q-127 0 -127 -201v-117zM565 1282v244h240v-244h-240z" />
<glyph unicode="&#xec;" horiz-adv-x="681" d="M12 1526h316l137 -299h-178zM207 0v1098h270v-1098h-270z" />
<glyph unicode="&#xed;" horiz-adv-x="681" d="M205 1227l139 299h315l-276 -299h-178zM207 0v1098h270v-1098h-270z" />
<glyph unicode="&#xee;" horiz-adv-x="681" d="M2 1231l211 295h260l207 -295h-225l-117 149l-109 -149h-227zM207 0v1098h270v-1098h-270z" />
<glyph unicode="&#xef;" horiz-adv-x="681" d="M6 1284v242h240v-242h-240zM207 0v1098h270v-1098h-270zM436 1282v244h240v-244h-240z" />
<glyph unicode="&#xf0;" horiz-adv-x="1087" d="M143 528q0 203 29 321t94 185q92 96 238 96q59 0 135 -36q-25 121 -94 209l-209 -99l-45 92l176 88q-43 39 -111 82l93 113q109 -45 194 -111l186 91l50 -97l-152 -71q104 -96 160.5 -275.5t56.5 -509.5q0 -80 -2 -131t-10 -125t-23.5 -122t-44 -101t-70.5 -85 t-105.5 -52.5t-143.5 -20.5q-109 0 -185.5 35t-117.5 86t-64.5 132t-29 147.5t-5.5 158.5zM408 563q0 -203 30.5 -284.5t108.5 -81.5q131 0 131 338q0 203 -31 288.5t-102 85.5q-137 0 -137 -346z" />
<glyph unicode="&#xf1;" horiz-adv-x="1087" d="M123 0v1098h272v-209q94 129 179 185t182 56q109 0 159 -72.5t50 -232.5v-825h-273v776q0 139 -92 139q-78 0 -141.5 -108.5t-63.5 -241.5v-565h-272zM199 1241q-6 127 47 193q49 61 135 61q57 0 164 -47q88 -41 133 -41q70 0 82 88h129q0 -252 -178 -252q-53 0 -170 45 q-102 39 -146 39q-70 0 -69 -86h-127z" />
<glyph unicode="&#xf2;" horiz-adv-x="1087" d="M139 553q0 348 82 466t323.5 118t323.5 -118t82 -466t-82 -466t-323.5 -118t-323.5 118t-82 466zM236 1526h315l137 -299h-178zM410 553q0 -231 23.5 -292.5t111.5 -61.5t111.5 61.5t23.5 292.5t-23.5 292.5t-111.5 61.5t-111.5 -61.5t-23.5 -292.5z" />
<glyph unicode="&#xf3;" horiz-adv-x="1087" d="M139 553q0 348 82 466t323.5 118t323.5 -118t82 -466t-82 -466t-323.5 -118t-323.5 118t-82 466zM387 1227l139 299h316l-277 -299h-178zM410 553q0 -231 23.5 -292.5t111.5 -61.5t111.5 61.5t23.5 292.5t-23.5 292.5t-111.5 61.5t-111.5 -61.5t-23.5 -292.5z" />
<glyph unicode="&#xf4;" horiz-adv-x="1087" d="M139 553q0 348 82 466t323.5 118t323.5 -118t82 -466t-82 -466t-323.5 -118t-323.5 118t-82 466zM205 1231l211 295h260l207 -295h-226l-116 149l-109 -149h-227zM410 553q0 -231 23.5 -292.5t111.5 -61.5t111.5 61.5t23.5 292.5t-23.5 292.5t-111.5 61.5t-111.5 -61.5 t-23.5 -292.5z" />
<glyph unicode="&#xf5;" horiz-adv-x="1087" d="M139 553q0 348 82 466t323.5 118t323.5 -118t82 -466t-82 -466t-323.5 -118t-323.5 118t-82 466zM199 1241q-6 127 47 193q49 61 135 61q57 0 164 -47q88 -41 133 -41q70 0 82 88h129q0 -252 -178 -252q-53 0 -170 45q-102 39 -146 39q-70 0 -69 -86h-127zM410 553 q0 -231 23.5 -292.5t111.5 -61.5t111.5 61.5t23.5 292.5t-23.5 292.5t-111.5 61.5t-111.5 -61.5t-23.5 -292.5z" />
<glyph unicode="&#xf6;" horiz-adv-x="1087" d="M139 553q0 348 82 466t323.5 118t323.5 -118t82 -466t-82 -466t-323.5 -118t-323.5 118t-82 466zM209 1284v242h240v-242h-240zM410 553q0 -231 23.5 -292.5t111.5 -61.5t111.5 61.5t23.5 292.5t-23.5 292.5t-111.5 61.5t-111.5 -61.5t-23.5 -292.5zM639 1282v244h240 v-244h-240z" />
<glyph unicode="&#xf7;" horiz-adv-x="1368" d="M127 580v204h1114v-204h-1114zM553 268.5q0 53.5 38 92t91 38.5t91 -37.5t38 -91t-38 -91.5t-91 -38t-91 37t-38 90.5zM553 1091.5q0 53.5 38 92.5t91 39t91 -38t38 -91.5t-38 -91t-91 -37.5t-91 36.5t-38 90z" />
<glyph unicode="&#xf8;" horiz-adv-x="1087" d="M125 -53l102 174q-45 82 -63.5 168t-18.5 262q0 324 91.5 459t312.5 133q135 0 233 -60l86 148l97 -55l-103 -179q86 -139 86 -438q0 -63 -1 -105t-9 -108.5t-23.5 -112t-45 -98.5t-70.5 -84t-104.5 -52.5t-145.5 -21.5q-141 0 -238 64l-88 -150zM410 440l235 404 q-27 76 -100 76q-135 0 -135 -310v-170zM446 276q33 -70 101 -69q70 0 101.5 77.5t31.5 250.5v145z" />
<glyph unicode="&#xf9;" horiz-adv-x="1087" d="M139 166v934h269v-742q0 -53 27.5 -86.5t72.5 -33.5q74 0 123 64.5t49 162.5v635h268v-1100h-270v211q-70 -80 -111 -120t-113.5 -81t-146.5 -41q-72 0 -120 56.5t-48 140.5zM236 1526h315l137 -299h-178z" />
<glyph unicode="&#xfa;" horiz-adv-x="1087" d="M139 166v934h269v-742q0 -53 27.5 -86.5t72.5 -33.5q74 0 123 64.5t49 162.5v635h268v-1100h-270v211q-70 -80 -111 -120t-113.5 -81t-146.5 -41q-72 0 -120 56.5t-48 140.5zM387 1227l139 299h316l-277 -299h-178z" />
<glyph unicode="&#xfb;" horiz-adv-x="1087" d="M139 166v934h269v-742q0 -53 27.5 -86.5t72.5 -33.5q74 0 123 64.5t49 162.5v635h268v-1100h-270v211q-70 -80 -111 -120t-113.5 -81t-146.5 -41q-72 0 -120 56.5t-48 140.5zM205 1231l211 295h260l207 -295h-226l-116 149l-109 -149h-227z" />
<glyph unicode="&#xfc;" horiz-adv-x="1087" d="M139 166v934h269v-742q0 -53 27.5 -86.5t72.5 -33.5q74 0 123 64.5t49 162.5v635h268v-1100h-270v211q-70 -80 -111 -120t-113.5 -81t-146.5 -41q-72 0 -120 56.5t-48 140.5zM209 1284v242h240v-242h-240zM639 1282v244h240v-244h-240z" />
<glyph unicode="&#xfd;" horiz-adv-x="937" d="M63 1098h252l203 -574l168 574h232l-273 -932q-23 -76 -36 -116t-39.5 -108.5t-53.5 -106.5t-66.5 -80t-91 -60.5t-112.5 -18.5q-84 0 -172 41v258q74 -43 141 -43q133 0 188 195zM313 1227l140 299h315l-276 -299h-179z" />
<glyph unicode="&#xfe;" horiz-adv-x="1087" d="M135 -289v1819h273v-645q45 66 77.5 108.5t102 92t137.5 49.5q37 0 81 -19.5t71 -46.5q66 -66 92 -186.5t26 -343.5q0 -213 -27.5 -327t-95.5 -181q-66 -66 -149 -66q-70 0 -138.5 49t-101 92.5t-75.5 108.5v-504h-273zM408 358q70 -92 106.5 -126.5t79.5 -34.5 q100 0 100 286v133q0 156 -24.5 220.5t-81.5 64.5q-41 0 -74 -28.5t-84 -104.5l-22 -33v-377z" />
<glyph unicode="&#xff;" horiz-adv-x="937" d="M63 1098h252l203 -574l168 574h232l-273 -932q-23 -76 -36 -116t-39.5 -108.5t-53.5 -106.5t-66.5 -80t-91 -60.5t-112.5 -18.5q-84 0 -172 41v258q74 -43 141 -43q133 0 188 195zM135 1284v242h240v-242h-240zM565 1282v244h240v-244h-240z" />
<glyph unicode="&#x152;" horiz-adv-x="1941" d="M86 756q0 268 96.5 464.5t259.5 264.5q109 45 306 45h1064v-285h-552v-317h327v-285h-330v-358h598v-285h-1159q-262 0 -403 143q-207 220 -207 613zM422 752q0 -78 3 -126t18.5 -121t44 -115t85 -73.5t138.5 -31.5q78 0 128 21.5t73.5 67.5t30.5 89t9 110v414 q0 135 -54 196.5t-173 61.5q-80 0 -135 -25.5t-88 -65.5t-51.5 -107.5t-23.5 -133t-5 -161.5z" />
<glyph unicode="&#x153;" horiz-adv-x="1748" d="M186 426v256q0 203 114 327t298 124q80 0 137.5 -15.5t87 -34t78.5 -59.5q57 53 127 84q66 27 141 27q182 0 289 -133.5t107 -362.5v-152h-537v-79q0 -123 66.5 -192t185.5 -69q117 0 270 97l-18 -187q-158 -90 -336 -90q-94 0 -159.5 23.5t-141.5 83.5 q-74 -61 -137.5 -85t-157.5 -24q-31 0 -69.5 6t-103.5 34t-115 73t-88 136t-38 212zM457 432q0 -109 40 -173t107 -64q70 0 113 69.5t43 179.5v238q0 98 -42 159.5t-108 61.5q-70 0 -111.5 -62.5t-41.5 -164.5v-244zM1026 649h305v58q0 266 -145 266q-76 0 -118 -64.5 t-42 -179.5v-80z" />
<glyph unicode="&#x178;" horiz-adv-x="1343" d="M47 1530h315l306 -631l297 631h331l-469 -991v-539h-307v537zM338 1716v242h240v-242h-240zM768 1714v244h240v-244h-240z" />
<glyph unicode="&#x2c6;" horiz-adv-x="681" d="M2 1231l211 295h260l207 -295h-225l-117 149l-109 -149h-227z" />
<glyph unicode="&#x2dc;" horiz-adv-x="681" d="M-4 1241q-6 127 47 193q49 61 135 61q57 0 164 -47q88 -41 133 -41q70 0 82 88h129q0 -252 -178 -252q-53 0 -170 45q-102 39 -145 39q-70 0 -70 -86h-127z" />
<glyph unicode="&#x2000;" horiz-adv-x="1001" />
<glyph unicode="&#x2001;" horiz-adv-x="2004" />
<glyph unicode="&#x2002;" horiz-adv-x="1001" />
<glyph unicode="&#x2003;" horiz-adv-x="2004" />
<glyph unicode="&#x2004;" horiz-adv-x="667" />
<glyph unicode="&#x2005;" horiz-adv-x="499" />
<glyph unicode="&#x2006;" horiz-adv-x="333" />
<glyph unicode="&#x2007;" horiz-adv-x="333" />
<glyph unicode="&#x2008;" horiz-adv-x="249" />
<glyph unicode="&#x2009;" horiz-adv-x="399" />
<glyph unicode="&#x200a;" horiz-adv-x="110" />
<glyph unicode="&#x2010;" horiz-adv-x="811" d="M92 414v286h627v-286h-627z" />
<glyph unicode="&#x2011;" horiz-adv-x="811" d="M92 414v286h627v-286h-627z" />
<glyph unicode="&#x2012;" horiz-adv-x="811" d="M92 414v286h627v-286h-627z" />
<glyph unicode="&#x2013;" horiz-adv-x="1024" d="M-10 422v182h1044v-182h-1044z" />
<glyph unicode="&#x2014;" horiz-adv-x="2048" d="M-10 422v182h2068v-182h-2068z" />
<glyph unicode="&#x2018;" horiz-adv-x="681" d="M186 795v335l170 400h142l-140 -400h140v-335h-312z" />
<glyph unicode="&#x2019;" horiz-adv-x="681" d="M184 795l140 399h-138v336h312v-336l-174 -399h-140z" />
<glyph unicode="&#x201a;" horiz-adv-x="681" d="M186 0v336h312v-336l-174 -401h-138l140 401h-140z" />
<glyph unicode="&#x201c;" d="M182 795v335l170 400h142l-140 -400h140v-335h-312zM725 795v335l170 400h141l-139 -400h139v-335h-311z" />
<glyph unicode="&#x201d;" d="M184 795l138 399h-138v336h312v-336l-170 -399h-142zM721 1194v336h311v-336l-168 -399h-141l139 399h-141z" />
<glyph unicode="&#x201e;" horiz-adv-x="1193" d="M193 0v336h311v-336l-174 -399h-137l139 399h-139zM688 -399l139 399h-137v336h311v-336l-176 -399h-137z" />
<glyph unicode="&#x2022;" horiz-adv-x="1024" d="M180 723q0 137 97.5 233.5t234.5 96.5t234.5 -96.5t97.5 -233.5t-97.5 -235.5t-234.5 -98.5t-234.5 97.5t-97.5 236.5z" />
<glyph unicode="&#x2026;" horiz-adv-x="2048" d="M184 0v336h312v-336h-312zM868 0v336h312v-336h-312zM1552 0v338h312v-338h-312z" />
<glyph unicode="&#x202f;" horiz-adv-x="399" />
<glyph unicode="&#x2039;" horiz-adv-x="555" d="M43 549l215 549h256l-219 -549l219 -549h-256z" />
<glyph unicode="&#x203a;" horiz-adv-x="555" d="M43 0l217 549l-217 549h256l215 -549l-215 -549h-256z" />
<glyph unicode="&#x205f;" horiz-adv-x="499" />
<glyph unicode="&#x20ac;" d="M37 518l24 195h150v24v88h-174l24 195h162q29 264 134.5 407.5t322.5 143.5q104 0 183 -32t124 -79t71.5 -113.5t35 -125t8.5 -123.5h-271q-8 119 -38.5 172t-112.5 53q-160 0 -170 -303h397l-24 -195h-373v-112h356l-24 -195h-330q10 -305 170 -305q145 0 147 225h273 q-12 -229 -104.5 -350t-315.5 -121q-401 0 -461 551h-184z" />
<glyph unicode="&#x2122;" horiz-adv-x="2048" d="M233 1386v144h664v-144h-246v-675h-166v675h-252zM995 711v819h260l150 -565l149 565h261v-819h-158v653l-178 -653h-150l-176 653v-653h-158z" />
<glyph unicode="&#xe000;" horiz-adv-x="1100" d="M0 1100h1100v-1100h-1100v1100z" />
<glyph unicode="&#xfb01;" d="M84 891v207h121v88q0 174 112.5 277.5t305.5 103.5q139 0 290 -54v-241q-201 53 -262 53q-84 0 -131 -41t-47 -117l2 -69h576v-1098h-269v891h-309v-891h-268v891h-121z" />
<glyph unicode="&#xfb02;" d="M82 891v207h121v80q0 174 108.5 280.5t286.5 106.5q90 0 211 -35l180 35h62v-1565h-269v891h-311v-891h-268v891h-121zM471 1098h311v200q-88 27 -135 27q-80 0 -128 -44t-48 -116v-67z" />
<glyph unicode="&#xfb03;" horiz-adv-x="2304" d="M1829 0v1098h270v-1098h-270zM1829 1278v252h270v-252h-270zM915 891v207h144v102q0 195 90 281t295 86h115v-238q-125 -4 -177.5 -32.5t-52.5 -94.5v-104h230v-207h-230v-891h-270v891h-144zM104 891v207h144v102q0 195 90 281t295 86h115v-238q-125 -4 -177.5 -32.5 t-52.5 -94.5v-104h230v-207h-230v-891h-270v891h-144z" />
<glyph unicode="&#xfb04;" horiz-adv-x="2304" d="M1829 0v1530h268v-1530h-268zM915 891v207h144v102q0 195 90 281t295 86h115v-238q-125 -4 -177.5 -32.5t-52.5 -94.5v-104h230v-207h-230v-891h-270v891h-144zM104 891v207h144v102q0 195 90 281t295 86h115v-238q-125 -4 -177.5 -32.5t-52.5 -94.5v-104h230v-207h-230 v-891h-270v891h-144z" />
</font>
</defs>
</svg>
