<?xml version="1.0" standalone="no"?>
<!DOCTYPE svg PUBLIC "-//W3C//DTD SVG 1.1//EN" "http://www.w3.org/Graphics/SVG/1.1/DTD/svg11.dtd" >
<svg xmlns="http://www.w3.org/2000/svg">
<metadata>
This is a custom SVG webfont generated by Font Squirrel.
Copyright   : Copyright  1992 2002 Adobe Systems Incorporated All Rights Reserved  Copyright 1992 2002 The Monotype Corporation plc All Rights Reserved
Designer    : Unknown
Foundry URL : httpwwwadobecomtype
</metadata>
<defs>
<font id="GrotesqueMTStdCondensed" horiz-adv-x="854" >
<font-face units-per-em="2048" ascent="1522" descent="-526" />
<missing-glyph horiz-adv-x="428" />
<glyph unicode=" "  horiz-adv-x="428" />
<glyph unicode="&#x09;" horiz-adv-x="428" />
<glyph unicode="&#xa0;" horiz-adv-x="428" />
<glyph unicode="!" horiz-adv-x="468" d="M106 1509h256q-61 -338 -73 -856l-4 -121h-99l-2 125q-6 330 -32 564q-19 155 -46 288zM143 0v334h183v-334h-183z" />
<glyph unicode="&#x22;" horiz-adv-x="768" d="M125 1270v239h184v-239l-41 -279h-102zM459 1270v239h184v-239l-41 -279h-102z" />
<glyph unicode="#" horiz-adv-x="1368" d="M86 395v144h219l74 350h-293v143h320l86 398h143l-86 -398h401l84 398h144l-86 -398h190v-143h-217l-74 -350h291v-144h-317l-84 -395h-146l86 395h-403l-82 -395h-143l81 395h-188zM449 541h401l72 348h-402z" />
<glyph unicode="$" d="M68 356q0 37 10 95h182q-6 -45 -6 -91q0 -182 113 -227v522q-61 55 -95 89t-90.5 101.5t-84 141.5t-27.5 152q0 141 77.5 224t221.5 97v78h118v-78q135 -8 212 -96t77 -211q0 -41 -8 -92h-178q6 49 6 65q0 154 -109 189v-494q72 -61 117 -105t98.5 -109.5t80 -137.5 t26.5 -150q0 -145 -85 -234t-241 -103v-156h-116v158q-141 8 -220 106t-79 266zM256 1153q0 -111 111 -217v385q-111 -43 -111 -168zM485 123q61 12 97 56t36 108q0 127 -133 252v-416z" />
<glyph unicode="%" horiz-adv-x="1259" d="M82 1102q0 231 38 298.5t171 67.5q131 0 166 -65.5t35 -292.5q0 -242 -36 -313.5t-165 -71.5q-133 0 -171 70.5t-38 306.5zM158 -43l796 1511h136l-797 -1511h-135zM217 1102q0 -170 12.5 -219t59.5 -49q45 0 57 50t12 218q0 160 -13 210t-56 50q-47 0 -59.5 -48 t-12.5 -212zM770 360q0 231 38 299t171 68q131 0 166 -65.5t35 -292.5q0 -242 -36 -313.5t-165 -71.5q-133 0 -171 70t-38 306zM905 360q0 -170 12.5 -219t59.5 -49q45 0 57.5 50.5t12.5 217.5q0 160 -13.5 210.5t-56.5 50.5q-47 0 -59.5 -48.5t-12.5 -212.5z" />
<glyph unicode="&#x26;" horiz-adv-x="1236" d="M70 555q0 74 24.5 139.5t53 105.5t78.5 81t74 55t67 39q-39 119 -39 237q0 129 76.5 213t193.5 84q106 0 178 -68.5t72 -166.5q0 -109 -61.5 -179.5t-178.5 -146.5l-39 -24q49 -170 164 -428q33 63 80 256h150q-59 -272 -150 -426q41 -78 70.5 -111t60.5 -33 q39 -2 60.5 44t31.5 165l4 45h136q-4 -156 -27 -239.5t-76 -139.5q-68 -72 -155 -71q-129 0 -226 164q-145 -164 -270 -164q-104 0 -180 82q-74 80 -123 219t-49 268zM248 606q0 -109 67 -272q37 -86 70 -125t80 -39q37 0 69.5 27.5t83.5 91.5q-129 285 -210 542 q-47 -33 -73 -53t-56.5 -68.5t-30.5 -103.5zM494 1231q0 -70 26 -170l29 18q84 59 117.5 101.5t33.5 89.5q0 41 -27.5 66.5t-70.5 25.5q-47 0 -77.5 -37t-30.5 -94z" />
<glyph unicode="'" horiz-adv-x="468" d="M143 1264v245h185v-245l-41 -273h-103z" />
<glyph unicode="(" horiz-adv-x="575" d="M92 621q0 270 107.5 506.5t312.5 398.5v-90q-143 -172 -188 -363.5t-45 -470.5q0 -258 48 -453.5t187 -353.5v-90q-207 162 -314.5 401t-107.5 515z" />
<glyph unicode=")" horiz-adv-x="575" d="M61 -205q139 158 187.5 353.5t48.5 453.5q0 279 -45 470.5t-189 363.5v90q205 -162 312.5 -398.5t107.5 -506.5q0 -276 -107.5 -515t-314.5 -401v90z" />
<glyph unicode="*" horiz-adv-x="768" d="M53 1137v155l273 -45l-170 213l137 76l94 -256l98 254l133 -80l-174 -211l273 45v-153l-273 47l172 -213l-137 -74l-92 252l-94 -256l-137 80l174 209z" />
<glyph unicode="+" horiz-adv-x="1366" d="M133 588v157h469v472h158v-472h471v-157h-471v-467h-158v467h-469z" />
<glyph unicode="," horiz-adv-x="468" d="M102 -211q57 45 84 92t31 119h-78v362h183v-356q0 -102 -54.5 -182t-146.5 -113z" />
<glyph unicode="-" horiz-adv-x="575" d="M109 492v184h360v-184h-360z" />
<glyph unicode="." horiz-adv-x="468" d="M143 0v365h183v-365h-183z" />
<glyph unicode="/" horiz-adv-x="575" d="M41 -309l332 1818h108l-331 -1818h-109z" />
<glyph unicode="0" d="M76 762q0 164 7 275.5t28.5 213t60.5 159.5t101.5 92t152.5 34q213 0 282.5 -180t69.5 -594q0 -135 -4 -225.5t-15 -188.5t-35 -157.5t-61.5 -111.5t-96 -74.5t-136.5 -22.5q-76 0 -133 24.5t-95 74.5t-63.5 113.5t-39 156.5t-18.5 188.5t-5 222.5zM295 592 q0 -272 26.5 -370.5t106.5 -98.5q78 0 104.5 98t26.5 371v332q0 283 -26.5 378t-104.5 95q-80 0 -106.5 -97.5t-26.5 -379.5v-328z" />
<glyph unicode="1" d="M94 1204v127q117 0 192.5 49.5t137.5 153.5h145v-1534h-204v1266q-72 -37 -124.5 -49.5t-146.5 -12.5z" />
<glyph unicode="2" d="M80 0v51q0 233 293 633l47 66q84 113 107.5 185.5t23.5 213.5q0 57 -3 90t-14.5 76t-40 63.5t-75.5 20.5q-86 0 -119 -84q-25 -66 -25 -246v-49h-194v72q0 152 21.5 229.5t76.5 130.5q84 82 246 82q168 0 256 -101.5t88 -297.5q0 -150 -44 -240t-157 -223 q-203 -238 -266 -369q-23 -43 -41 -113h496v-190h-676z" />
<glyph unicode="3" d="M84 371v47h195v-53q0 -121 26.5 -182.5t116.5 -61.5q82 0 111.5 68.5t29.5 222.5q0 59 -2 94t-15.5 81t-37 70.5t-67.5 43t-109 18.5q-53 0 -117 -14v153q59 -10 96 -10q78 0 126 21.5t68.5 67.5t27 88t6.5 112q0 145 -27 202.5t-94 57.5q-33 0 -55.5 -13.5t-34 -32 t-17.5 -56.5t-7 -65.5t-1 -80.5h-188q2 219 92 305q80 80 215 80q322 0 321 -395q0 -150 -48 -223.5t-152 -124.5q86 -25 123 -58q117 -96 116 -348q0 -401 -360 -401q-172 0 -254 82q-84 84 -84 305z" />
<glyph unicode="4" d="M57 389v205l430 936h160v-981h174v-160h-174v-389h-205v389h-385zM145 549h297v641z" />
<glyph unicode="5" d="M117 401h190q0 -70 3 -111.5t15.5 -84.5t39 -63.5t69.5 -20.5q29 0 50.5 8t34.5 31.5t20.5 44t10.5 65.5t4 75t1 91v105q0 174 -26.5 240.5t-96.5 66.5q-125 0 -129 -244h-172v905h563v-168h-403v-460q86 135 215 135q94 0 162 -64q59 -55 83.5 -156.5t24.5 -277.5 q0 -100 -6 -168.5t-26.5 -143.5t-56.5 -120t-101.5 -74.5t-155.5 -29.5q-158 0 -233 79q-51 53 -66.5 127t-13.5 213z" />
<glyph unicode="6" d="M92 700q0 158 3 249t13.5 201t32 169t58.5 114.5t95 78t138 22.5q164 0 240 -81t76 -279h-195q0 47 -3 78.5t-14.5 68.5t-38 56.5t-67.5 19.5q-70 0 -96.5 -67.5t-26.5 -217.5v-274q84 152 217 151q88 0 144 -59q109 -109 108 -393q0 -98 -6 -170t-26.5 -149t-57.5 -125 t-101.5 -79.5t-154.5 -31.5q-76 0 -131 18t-92 61t-60.5 96.5t-35 142.5t-15.5 178t-4 222zM307 444q0 -168 26.5 -246.5t98.5 -78.5q80 0 102.5 75.5t22.5 284.5q0 195 -23.5 267.5t-95.5 72.5q-131 0 -131 -246v-129z" />
<glyph unicode="7" d="M80 1321v188h688v-53q0 -102 -113 -412q-96 -256 -128.5 -388t-53.5 -343q-12 -133 -14 -313h-221l6 157q2 52 20.5 170.5t50.5 237.5q55 205 170 428q72 139 99.5 204t36.5 124h-541z" />
<glyph unicode="8" d="M80 416q0 152 44 251t161 132q-39 12 -63.5 27.5t-55.5 51t-47.5 104.5t-16.5 169q0 383 332 383q319 0 320 -383q0 -137 -40 -224t-155 -128q115 -35 164 -132.5t49 -258.5q0 -238 -79 -332t-277 -94q-182 0 -259 99t-77 335zM299 426q0 -164 24.5 -235.5t106.5 -71.5 q78 0 101.5 71.5t23.5 237.5q0 168 -24.5 230.5t-100.5 62.5t-103.5 -66.5t-27.5 -228.5zM305 1137q0 -141 24.5 -200.5t96.5 -59.5q76 0 100.5 60t24.5 204q0 141 -25.5 198.5t-99.5 57.5q-68 0 -94.5 -61.5t-26.5 -198.5z" />
<glyph unicode="9" d="M76 979q0 98 6 170t26.5 148.5t57.5 124.5t101.5 80t154.5 32q88 0 148.5 -28.5t98.5 -79t57 -143.5t26.5 -199.5t7.5 -268.5q0 -158 -3 -249t-13.5 -200.5t-32 -169t-58.5 -114.5t-95 -77.5t-138 -22.5q-164 0 -240 80.5t-76 279.5h195q0 -47 3 -79t14.5 -67.5t38 -54 t67.5 -18.5q74 0 98.5 66.5t24.5 213.5v275q-84 -152 -217 -152q-88 0 -144 60q-108 108 -108 393zM295 1036q0 -195 23.5 -267.5t91.5 -72.5q135 0 135 246v129q0 186 -21.5 256t-99.5 70t-103.5 -77t-25.5 -284z" />
<glyph unicode=":" horiz-adv-x="468" d="M143 0v365h183v-365h-183zM143 825v322h183v-322h-183z" />
<glyph unicode=";" horiz-adv-x="468" d="M106 -211q57 45 84 92t31 119h-78v362h183v-356q0 -102 -54.5 -182t-146.5 -113zM143 827v320h183v-320h-183z" />
<glyph unicode="&#x3c;" horiz-adv-x="1366" d="M137 596v143l1094 459v-170l-883 -360l883 -361v-170z" />
<glyph unicode="=" horiz-adv-x="1366" d="M135 354v158h1096v-158h-1096zM135 827v158h1096v-158h-1096z" />
<glyph unicode="&#x3e;" horiz-adv-x="1366" d="M135 137v170l883 359l-883 360v172l1094 -461v-141z" />
<glyph unicode="?" horiz-adv-x="768" d="M80 1075q0 94 2 141.5t19.5 111t50.5 106.5q76 94 221 94q307 0 307 -461q0 -92 -4 -148.5t-21.5 -122t-50.5 -101.5t-93 -61.5t-146 -27.5v-182h-119v291h51q139 0 170 59.5t31 280.5q0 184 -27 260t-111 76q-125 0 -124 -228v-88h-156zM211 0v289h180v-289h-180z" />
<glyph unicode="@" horiz-adv-x="2078" d="M117 469q0 309 134 544.5t357 357.5t498 122q172 0 316.5 -48t241.5 -126t165.5 -178.5t99.5 -205t31 -206.5q0 -299 -197 -526q-184 -207 -397 -207q-115 0 -152.5 50t-37.5 130q-150 -178 -312 -178q-158 0 -262 128t-104 325q0 240 160.5 436t359.5 196 q188 0 301 -182l33 154h180l-160 -744q-12 -51 -12 -86q0 -27 20.5 -45t49.5 -18q78 0 190 104q90 84 141 204t51 247q0 270 -203.5 450.5t-512.5 180.5q-360 0 -596 -245t-236 -618q0 -365 228.5 -566.5t637.5 -201.5q213 0 401.5 74t297.5 229l180 -2 q-57 -115 -156.5 -203.5t-219.5 -141t-248 -78t-257 -25.5q-473 0 -742 239.5t-269 659.5zM682 434q0 -129 61.5 -209t159.5 -80q133 0 246 157t113 343q0 133 -63.5 212t-170.5 79q-133 0 -239.5 -154.5t-106.5 -347.5z" />
<glyph unicode="A" horiz-adv-x="960" d="M86 0l264 1509h232l292 -1509h-204l-45 283h-297l-41 -283h-201zM352 446h246l-129 805z" />
<glyph unicode="B" horiz-adv-x="960" d="M162 0v1509h366q176 0 259 -103t83 -316q0 -86 -17 -147.5t-51 -95.5t-59.5 -49.5t-64.5 -29.5q33 -10 55.5 -19.5t55 -36t52 -62.5t34 -102.5t14.5 -152.5q0 -395 -346 -395h-381zM371 164h139q84 0 122 67.5t38 212.5q0 131 -47.5 190.5t-153.5 59.5h-98v-530zM371 856 h108q180 0 180 234q0 137 -35.5 197.5t-121.5 60.5h-131v-492z" />
<glyph unicode="C" horiz-adv-x="980" d="M143 559v262q0 260 22.5 398.5t92.5 212.5q98 102 256 102q156 0 242 -86q66 -68 88 -175q21 -99 20 -274v-32h-196q2 42 1 78q0 105 -13 173q-17 91 -51 121.5t-93 30.5q-63 0 -104 -57q-27 -37 -36.5 -144.5t-9.5 -396.5q0 -213 3.5 -304t18.5 -182t48 -117t94 -26 q39 0 67 11.5t44 37t26.5 49t14.5 70.5t5 76t1 88v146h203v-45q0 -208 -18 -311q-19 -114 -97 -191q-92 -92 -258 -92q-86 0 -151.5 23.5t-104.5 70.5t-63.5 96t-34.5 125t-13.5 129t-3.5 133z" />
<glyph unicode="D" horiz-adv-x="960" d="M147 0v1509h326q104 0 176 -31.5t115 -85t66.5 -149.5t30.5 -199.5t7 -261.5q0 -367 -26.5 -496.5t-87.5 -201.5q-31 -37 -93.5 -60.5t-134.5 -23.5h-379zM356 174h119q51 0 84 17.5t51.5 42t26.5 80t10 101.5t2 136v362q0 254 -37 340t-170 86h-86v-1165z" />
<glyph unicode="E" horiz-adv-x="960" d="M182 0v1509h680v-178h-471v-465h363v-182h-363v-502h506v-182h-715z" />
<glyph unicode="F" horiz-adv-x="960" d="M201 0v1509h655v-178h-446v-457h372v-182h-372v-692h-209z" />
<glyph unicode="G" horiz-adv-x="972" d="M121 598q0 449 19.5 606.5t107.5 245.5q86 86 254 86q162 0 252 -90q53 -55 69.5 -119.5t16.5 -175.5v-100h-189v63q0 170 -53 223q-41 45 -102 45q-53 0 -93 -39q-41 -41 -52 -132t-11 -291v-324q0 -238 28.5 -342t123.5 -104q76 0 114.5 79.5t38.5 223.5v176h-203v166 h412v-813h-131q0 33 -11.5 97t-21.5 91q-39 -88 -107.5 -138t-156.5 -50q-109 0 -184.5 75.5t-98 203.5t-22.5 337z" />
<glyph unicode="H" horiz-adv-x="1044" d="M180 0v1509h209v-649h268v649h209v-1509h-209v705h-268v-705h-209z" />
<glyph unicode="I" horiz-adv-x="575" d="M184 0v1509h209v-1509h-209z" />
<glyph unicode="J" horiz-adv-x="661" d="M59 -2v178q29 -14 80 -14q45 0 74 15.5t40 48t13 61t2 73.5v1149h209v-1183q0 -344 -284 -344q-52 0 -134 16z" />
<glyph unicode="K" horiz-adv-x="960" d="M147 0v1509h209v-667l330 667h201l-269 -514l297 -995h-210l-216 764l-133 -258v-506h-209z" />
<glyph unicode="L" horiz-adv-x="960" d="M186 0v1509h209v-1316h500v-193h-709z" />
<glyph unicode="M" horiz-adv-x="1343" d="M156 0v1509h325l189 -1108l194 1108h324v-1509h-184v1419l-271 -1419h-127l-268 1436v-1436h-182z" />
<glyph unicode="N" horiz-adv-x="960" d="M129 0v1509h229l293 -981v981h183v-1509h-183l-340 1135v-1135h-182z" />
<glyph unicode="O" horiz-adv-x="960" d="M119 793q0 119 3 196.5t14 174t36 155.5t63.5 114.5t102 81t147.5 25.5q139 0 224 -84q88 -86 111.5 -231.5t23.5 -479.5q0 -307 -25.5 -449t-111.5 -228q-84 -86 -224 -86q-143 0 -235 92q-84 86 -106.5 246t-22.5 473zM340 666q0 -164 2 -235t15.5 -151.5t45 -107.5 t84.5 -27q92 0 114 114t22 435v187q0 281 -22.5 389t-117.5 108q-98 0 -120.5 -109.5t-22.5 -404.5v-198z" />
<glyph unicode="P" horiz-adv-x="960" d="M143 0v1509h318q225 0 312 -94t87 -338q0 -92 -12 -159.5t-40 -110.5t-58.5 -69.5t-83 -39t-95.5 -16.5t-112 -4h-107v-678h-209zM352 821h105q113 0 153.5 55.5t40.5 206.5q0 162 -42 220.5t-156 58.5h-101v-541z" />
<glyph unicode="Q" horiz-adv-x="960" d="M121 788q0 100 1 156.5t8 147t20.5 142.5t41 116.5t66.5 98.5t98.5 58.5t135.5 24.5q131 0 213 -80q88 -88 112.5 -233.5t24.5 -475.5q0 -313 -23.5 -454.5t-109.5 -227.5q-33 -33 -77 -54t-67 -21q0 -94 34 -113.5t192 -19.5v-168h-93q-186 0 -241 55q-48 48 -48 196 q0 22 1 46q-94 16 -154 79q-88 86 -111.5 248t-23.5 479zM340 600q0 -139 2 -201.5t15.5 -136.5t45 -99.5t84.5 -25.5q92 0 114 114t22 435v186q0 281 -22.5 389.5t-119 108.5t-119 -121t-22.5 -450v-199z" />
<glyph unicode="R" horiz-adv-x="960" d="M156 0v1509h352q172 0 253 -98t81 -309q0 -172 -59.5 -237.5t-194.5 -98.5q53 -10 87 -24.5t77 -47t64.5 -95t21.5 -155.5v-444h-205v477q0 94 -41 145.5t-119 51.5h-108v-674h-209zM365 834h81q94 0 138.5 66.5t44.5 207.5q0 252 -148 252h-116v-526z" />
<glyph unicode="S" d="M76 383v111h194v-140q0 -102 42 -158.5t120 -56.5q143 0 143 191q0 82 -44 158.5t-154 189.5l-62 61q-115 117 -176 225.5t-61 258.5q0 139 94 224t250 85q158 0 242 -86t84 -248q0 -23 -7 -96h-188v72q0 197 -139 196q-59 0 -95 -40t-36 -105q0 -98 53 -176t176 -199 q70 -72 104.5 -113t79.5 -105.5t63.5 -131t18.5 -144.5q0 -170 -96 -272t-256 -102q-350 0 -350 401z" />
<glyph unicode="T" horiz-adv-x="960" d="M61 1343v166h840v-166h-315v-1343h-209v1343h-316z" />
<glyph unicode="U" horiz-adv-x="960" d="M133 362v1147h209v-1132q0 -223 143 -223q72 0 100.5 56t32.5 167v1132h209v-1147q0 -381 -346 -380q-348 -1 -348 380z" />
<glyph unicode="V" horiz-adv-x="960" d="M88 1509h207l194 -1110l179 1110h206l-280 -1509h-207z" />
<glyph unicode="W" horiz-adv-x="1429" d="M61 1509h203l178 -1159l176 1159h189l201 -1177l161 1177h199l-252 -1509h-201l-198 1147l-170 -1147h-201z" />
<glyph unicode="X" horiz-adv-x="960" d="M47 0l311 803l-284 706h219l188 -499l178 499h211l-278 -682l321 -827h-221l-227 592l-201 -592h-217z" />
<glyph unicode="Y" horiz-adv-x="960" d="M74 1509h205l200 -649l203 649h207l-307 -897v-612h-207v600z" />
<glyph unicode="Z" d="M74 0v307l530 1026h-475v176h655v-252l-553 -1077h553v-180h-710z" />
<glyph unicode="[" horiz-adv-x="575" d="M109 -279v1788h419v-88h-233v-1611h227v-89h-413z" />
<glyph unicode="\" horiz-adv-x="575" d="M94 1509h109l332 -1818h-109z" />
<glyph unicode="]" horiz-adv-x="575" d="M49 -193h232v1614h-232v88h416v-1790h-416v88z" />
<glyph unicode="^" horiz-adv-x="960" d="M53 709l355 800h145l354 -800h-182l-246 598l-239 -598h-187z" />
<glyph unicode="_" horiz-adv-x="1138" d="M-27 -154h1192v-102h-1192v102z" />
<glyph unicode="`" horiz-adv-x="681" d="M80 1520h239l136 -281h-146z" />
<glyph unicode="a" d="M90 313q0 172 86 258q33 33 76 49.5t131 28.5q78 8 147 29v199q0 68 -29.5 105.5t-82.5 37.5q-66 0 -93.5 -52.5t-29.5 -181.5l-178 23q6 358 303 358q150 0 221.5 -75.5t71.5 -233.5v-543q0 -119 32 -229q12 -45 39 -86h-186q-27 43 -53 166q-53 -94 -107.5 -136 t-124.5 -42q-223 -1 -223 325zM281 303q0 -182 100 -182q61 0 104 73.5t43 180.5v166q-147 -27 -197 -70t-50 -168z" />
<glyph unicode="b" d="M131 0v1509h184v-514q43 90 89.5 127t115.5 37q82 0 139 -61q51 -55 73 -173t22 -370q0 -379 -66 -469q-68 -96 -156 -96q-160 0 -233 219q-14 -70 -18 -209h-150zM313 600q0 -463 152 -463q61 0 76.5 69.5t15.5 221.5v270q0 188 -18.5 258t-67.5 70q-70 0 -114 -100.5 t-44 -325.5z" />
<glyph unicode="c" d="M111 541q0 109 3 175t12 148t31.5 130t57.5 92t92.5 63.5t134.5 19.5q86 0 146.5 -29.5t90.5 -67.5t46 -108.5t18 -116.5t2 -128h-180q0 66 -3 105.5t-13 94t-37 81t-70 26.5q-37 0 -61.5 -18.5t-37.5 -45t-20.5 -77.5t-9.5 -96.5t-2 -118.5v-232q0 -70 3 -110.5 t14.5 -94t40 -80t73.5 -26.5q47 0 77 27.5t42 88t14.5 103.5t2.5 123h178q0 -55 -1 -87t-6.5 -90.5t-16.5 -94t-34.5 -81.5t-55.5 -72t-83 -44t-115 -18q-70 0 -124 18t-88.5 43t-58 73t-36 86t-18.5 107.5t-7 110.5t-1 121z" />
<glyph unicode="d" d="M109 541q0 143 4 231t28.5 191.5t69.5 148.5q55 55 133 55q137 0 205 -166v508h186v-1509h-145q0 115 -21 197q-80 -209 -223 -209q-76 0 -133 57q-104 105 -104 496zM309 461q0 -160 18.5 -241t78.5 -81q35 0 71 37q76 76 76 359q0 143 -3 207.5t-22.5 135t-60.5 111.5 q-39 39 -72 39q-53 0 -69.5 -68.5t-16.5 -207.5v-291z" />
<glyph unicode="e" d="M115 573q0 248 34.5 370t122.5 181q66 45 154 45q127 0 207 -79q59 -59 82.5 -151.5t25.5 -276.5v-89h-436v-65q0 -84 4 -137.5t17.5 -112.5t47.5 -88t85 -29q143 0 143 250h168q-6 -137 -39 -217q-82 -193 -285 -192q-119 0 -206 84q-68 70 -96.5 184t-28.5 323z M307 709h246v45q0 61 -3 101t-13.5 89t-37 74.5t-69.5 25.5q-41 0 -66.5 -25.5t-37 -73.5t-15.5 -92t-4 -105v-39z" />
<glyph unicode="f" horiz-adv-x="661" d="M57 1022v125h172v47q0 106 18.5 164.5t63.5 103.5q74 68 185 68q53 0 118 -21v-145q-53 20 -90 20q-76 0 -98 -59q-14 -33 -14 -178h202v-125h-200v-1022h-185v1022h-172z" />
<glyph unicode="g" d="M96 -90h178q16 -72 121 -72q158 0 158 191q0 14 -1 49t-1 55q-45 -70 -92 -103.5t-119 -33.5q-78 0 -143 61q-57 59 -75 174t-18 301q0 254 18.5 377t86.5 191q57 57 141 57q63 0 115.5 -44t83.5 -122v156h186v-1061q0 -41 -1 -64.5t-7 -68.5t-19.5 -72.5t-39 -63.5 t-61.5 -57.5t-93 -36t-131 -14.5q-143 0 -215 57.5t-72 143.5zM307 520q0 -229 16.5 -321.5t79.5 -92.5q35 0 68 33q37 37 55.5 115t21.5 144.5t3 205.5q0 285 -74 369q-39 45 -88 45t-65.5 -67.5t-16.5 -211.5v-219z" />
<glyph unicode="h" d="M135 0v1509h187v-553q18 41 31.5 66t42 62.5t67.5 58t84 20.5q88 0 139 -84t51 -241v-838h-184v795q0 109 -18.5 155.5t-61.5 46.5q-66 0 -108.5 -88t-42.5 -221v-688h-187z" />
<glyph unicode="i" horiz-adv-x="468" d="M141 0v1147h187v-1147h-187zM143 1296v222h185v-222h-185z" />
<glyph unicode="j" horiz-adv-x="575" d="M41 -113q31 -6 57 -6q63 0 85 37t22 145v1084h186v-1112q0 -326 -258 -326q-41 0 -92 12v166zM205 1296v222h184v-222h-184z" />
<glyph unicode="k" d="M145 0v1509h185v-833l293 471h194l-270 -391l264 -756h-180l-205 578l-96 -138v-440h-185z" />
<glyph unicode="l" horiz-adv-x="468" d="M141 0v1509h187v-1509h-187z" />
<glyph unicode="m" horiz-adv-x="1236" d="M117 0v1147h166v-229q63 133 116.5 186t126.5 53q143 0 187 -207q51 111 102 159t121 48q94 0 146.5 -87t52.5 -243v-827h-187v844q0 72 -22.5 113.5t-61.5 41.5q-59 0 -102 -73.5t-43 -173.5v-752h-187v838q0 160 -86 159q-59 0 -101 -81.5t-42 -196.5v-719h-186z" />
<glyph unicode="n" d="M129 0v1147h168v-250q25 63 39 94t45 78t68.5 67.5t89.5 20.5q197 0 196 -375v-782h-184v809q0 195 -84 195q-66 0 -109 -105.5t-43 -261.5v-637h-186z" />
<glyph unicode="o" d="M111 559q0 215 23.5 335t98.5 196q78 78 193 77q113 0 201 -84q70 -70 93 -187.5t23 -303.5q0 -406 -122 -529q-82 -82 -195 -81.5t-203 86.5q-51 51 -77.5 146t-30.5 163.5t-4 181.5zM313 600q0 -260 18.5 -366.5t94.5 -106.5t95.5 107.5t19.5 357.5q0 219 -19.5 325.5 t-91.5 106.5q-29 0 -49.5 -14.5t-32.5 -47t-19 -64.5t-10.5 -89t-4.5 -97t-1 -112z" />
<glyph unicode="p" d="M133 -291v1438h152q0 -121 18 -215q84 225 219 225q76 0 133 -57q55 -55 78 -164t23 -338q0 -385 -60 -494q-61 -115 -174 -114q-70 0 -115 33.5t-88 115.5v-430h-186zM315 573q0 -168 15 -260q12 -76 53 -131t86 -55q59 0 74.5 71.5t15.5 227.5v268q0 172 -18.5 242 t-73.5 70q-53 0 -94 -58q-58 -80 -58 -375z" />
<glyph unicode="q" d="M98 541q0 455 101 555q63 61 127 61q145 0 233 -221q18 80 19 211h151v-1438h-186v441q-74 -162 -201 -162q-78 0 -133 55q-66 66 -88.5 183.5t-22.5 314.5zM299 508q0 -217 14.5 -302t75.5 -85q33 0 70 37q88 88 88 374q0 356 -88 445q-37 37 -72 37q-57 0 -72.5 -78 t-15.5 -264v-164z" />
<glyph unicode="r" horiz-adv-x="661" d="M133 0v1147h184v-299q39 72 43 80q80 160 124 195.5t141 35.5v-215q-23 4 -50 4q-170 0 -256 -250v-698h-186z" />
<glyph unicode="s" horiz-adv-x="768" d="M94 369l170 -2q-2 -18 -2 -38.5t2 -41.5q4 -43 13.5 -81t38 -63.5t75.5 -25.5q55 0 87 36.5t32 102.5q0 63 -39 114.5t-143 141.5q-63 53 -101.5 91t-80.5 113t-42 150q0 133 76 218t195 85q178 0 241 -153q27 -63 27 -215h-158q1 23 1 42q0 59 -5 88q-6 38 -30 64 q-29 35 -80 35q-45 0 -72 -34.5t-27 -92.5q0 -68 34 -114t122 -121q76 -66 139 -125q119 -125 119 -250q0 -139 -84 -225t-219 -86q-190 0 -260 170q-29 67 -29 217z" />
<glyph unicode="t" horiz-adv-x="661" d="M70 1022v125h172v340h184v-340h166v-125h-170v-717q0 -209 90 -305h-203q-72 94 -71 281v741h-168z" />
<glyph unicode="u" d="M121 291v856h184v-846q0 -156 84 -156q61 0 104.5 83t43.5 200v719h186v-1147h-158q-6 162 -16 201q-55 -115 -107.5 -163t-124.5 -48q-94 0 -145 79t-51 222z" />
<glyph unicode="v" d="M72 1147h180l172 -807l178 807h180l-282 -1157h-150z" />
<glyph unicode="w" horiz-adv-x="1236" d="M47 1147h170l154 -807l180 807h139l176 -809l156 809h168l-256 -1155h-141l-175 796l-174 -796h-143z" />
<glyph unicode="x" d="M51 0l254 612l-237 535h204l142 -346l143 346h197l-252 -537l301 -610h-201l-190 436l-164 -436h-197z" />
<glyph unicode="y" d="M76 1147h188l182 -651l150 651h180l-248 -1055q-23 -90 -34 -129t-35.5 -92t-57.5 -86q-72 -76 -188 -76q-41 0 -100 17v151q43 -10 69 -10q59 0 99 41q29 31 44 75t42 160l8 33z" />
<glyph unicode="z" d="M127 0v236l448 741h-423v170h581v-246l-442 -731h457v-170h-621z" />
<glyph unicode="{" horiz-adv-x="684" d="M70 539v153q55 0 96 21q74 37 92 110.5t18 231.5q2 123 4.5 173t17.5 107.5t48 96.5q41 51 102.5 68.5t200.5 17.5v-150q-133 0 -168 -34t-35 -156v-140q0 -141 -25.5 -226t-66.5 -124t-118 -74q78 -35 118.5 -73.5t66 -123.5t25.5 -224v-140q0 -123 35 -157.5t168 -34.5 v-148q-139 0 -200.5 16.5t-102.5 67.5q-33 39 -48 96.5t-17 107.5t-5 173q0 158 -18 231.5t-92 110.5q-39 23 -96 23z" />
<glyph unicode="|" horiz-adv-x="1118" d="M479 -512v2048h158v-2048h-158z" />
<glyph unicode="}" horiz-adv-x="684" d="M35 -139q133 0 168 34.5t35 157.5v140q0 139 25.5 224t66.5 124t119 73q-78 35 -119 74t-66.5 124t-25.5 226v140q0 123 -35 156.5t-168 33.5v150q139 0 200.5 -17.5t102.5 -68.5q33 -39 48 -96.5t17.5 -107.5t4.5 -173q0 -158 18 -231.5t92 -110.5q41 -20 96 -21v-153 q-57 0 -96 -23q-74 -37 -92 -110.5t-18 -231.5q-2 -123 -4.5 -173t-17.5 -107.5t-48 -96.5q-41 -51 -102.5 -67.5t-200.5 -16.5v148z" />
<glyph unicode="~" horiz-adv-x="1343" d="M127 584v168q154 129 303 129q92 0 293 -97q131 -66 203 -65q131 0 291 143v-170q-154 -131 -293 -131q-59 0 -119 19.5t-189 81.5q-125 61 -194 61q-135 0 -295 -139z" />
<glyph unicode="&#xa1;" horiz-adv-x="468" d="M104 -272q31 147 41 249q33 285 37 730h101q4 -293 20 -492q18 -270 62 -487h-261zM141 905v334h185v-334h-185z" />
<glyph unicode="&#xa2;" d="M92 -129l96 223q-37 51 -54 133t-20 141.5t-3 172.5q0 109 3 175t12 148t31.5 130t57.5 92t92.5 63.5t134.5 19.5q121 0 185 -53l92 217l72 -24l-107 -250q63 -90 64 -340h-177v76l-241 -562q25 -106 112 -106q47 0 77 27.5t42 88t14.5 103.5t2.5 123h178q0 -55 -1 -87 t-6.5 -90.5t-16.5 -94t-34.5 -81.5t-55.5 -72t-83 -44t-115 -18q-125 0 -198 53l-84 -197zM311 381l236 547q-29 98 -105 98q-37 0 -61.5 -18.5t-37.5 -45t-20.5 -77.5t-9.5 -96.5t-2 -118.5v-289z" />
<glyph unicode="&#xa3;" d="M55 84q0 61 50.5 115.5t117.5 64.5q0 227 -14 410h-152v143h144q-10 117 -11 293q0 424 293 424q80 0 147.5 -46t100.5 -122q25 -61 27 -203h-176q0 129 -21.5 176t-77.5 47q-51 0 -73.5 -48t-22.5 -158q0 -41 16 -363h254v-141h-249q0 -295 -46 -422q20 -6 92 -40 t107 -34q29 0 49.5 14.5t30.5 33t15.5 52t6.5 54t1 59.5h149q0 -238 -57 -317q-66 -92 -187 -92q-135 0 -276 100q-84 -102 -143 -102q-43 0 -69 27.5t-26 74.5z" />
<glyph unicode="&#xa4;" horiz-adv-x="1409" d="M205 272l129 127q-86 129 -86 269q0 137 86 266l-129 127l104 106l129 -127q129 84 267 84q139 0 266 -86l129 129l104 -106l-127 -127q84 -131 84 -266q0 -139 -86 -269l129 -127l-104 -104l-129 127q-125 -86 -266 -86q-139 0 -267 86l-127 -127zM397 668 q0 -129 90.5 -219.5t217 -90.5t217 90.5t90.5 219.5q0 127 -90.5 217t-217 90t-217 -90t-90.5 -217z" />
<glyph unicode="&#xa5;" horiz-adv-x="960" d="M74 360v148h313v180h-313v148h256l-254 673h205l200 -637l203 637h207l-260 -673h260v-148h-318v-180h318v-148h-318v-360h-186v360h-313z" />
<glyph unicode="&#xa6;" horiz-adv-x="1118" d="M479 -358v716h158v-716h-158zM479 666v716h158v-716h-158z" />
<glyph unicode="&#xa7;" horiz-adv-x="768" d="M55 692q0 86 33 156t115 158q-100 125 -101 247q0 127 77 205t202 78q281 0 287 -334h-158q0 199 -121 199q-47 0 -80 -33t-33 -82q0 -68 39 -124t146 -158q129 -123 192.5 -221.5t63.5 -227.5q0 -170 -148 -305q59 -80 81 -133.5t22 -128.5q0 -125 -78 -200t-209 -75 q-182 0 -252 168q-27 61 -31 164h160q2 -197 125 -197q49 0 80 34t31 87q0 63 -38 122t-145 157q-55 53 -86.5 86t-79 94t-71 126.5t-23.5 137.5zM221 741q0 -78 45 -151.5t164 -190.5l47 -47q78 74 78 170q0 72 -47 146.5t-162 185.5l-49 47q-76 -80 -76 -160z" />
<glyph unicode="&#xa8;" horiz-adv-x="681" d="M59 1239v205h189v-205h-189zM434 1239v205h189v-205h-189z" />
<glyph unicode="&#xa9;" horiz-adv-x="1511" d="M0 782.5q0 311.5 221 532.5t533 221q313 0 534 -221t221 -532.5t-221 -533.5t-534 -222q-311 0 -532.5 222t-221.5 533.5zM125 782q0 -260 184.5 -445t444.5 -185q262 0 446 184t184 446q0 260 -185 444.5t-445 184.5t-444.5 -184.5t-184.5 -444.5zM360 793 q0 188 110 299.5t294 111.5q131 0 219 -61.5t121 -173.5l-119 -29q-59 154 -233 154q-115 0 -185.5 -88t-70.5 -232q0 -145 68.5 -226t189.5 -81q88 0 154.5 52t88.5 140l123 -36q-31 -125 -128 -199t-234 -74q-186 0 -292 118t-106 325z" />
<glyph unicode="&#xaa;" horiz-adv-x="532" d="M47 985q0 57 13.5 99t29.5 64.5t47 36t49.5 16.5t49.5 7q63 6 90 19v135q0 37 -19.5 59.5t-52.5 22.5t-51.5 -24.5t-21.5 -52.5t-3 -73l-112 17q6 225 200 225q174 0 174 -199v-350q0 -109 43 -188h-114q-23 47 -33 106q-61 -115 -150 -114q-139 -1 -139 194zM168 989 q0 -115 63 -115q37 0 66 45.5t29 102.5v117q-55 -4 -90 -18.5t-48.5 -40t-16.5 -43t-3 -48.5z" />
<glyph unicode="&#xab;" d="M35 627l252 520h168l-219 -522l221 -521h-170zM432 625l223 522h166l-190 -522l190 -521h-164z" />
<glyph unicode="&#xac;" horiz-adv-x="1366" d="M135 836v157h1096v-645h-158v488h-938z" />
<glyph unicode="&#xad;" horiz-adv-x="575" d="M109 492v184h360v-184h-360z" />
<glyph unicode="&#xae;" horiz-adv-x="1511" d="M0 782q0 311 221 532.5t535 221.5q311 0 532 -221t221 -533q0 -313 -221 -534t-532 -221q-313 0 -534.5 221t-221.5 534zM125 782q0 -262 185.5 -446t445.5 -184t444 185t184 445t-184 444.5t-444 184.5t-445.5 -184.5t-185.5 -444.5zM424 365v811h281q154 0 219 -27 q53 -23 90 -76t37 -110q0 -98 -64.5 -163t-167.5 -73q47 -20 78 -53q53 -57 111 -152l98 -157h-160l-72 127q-78 137 -121.5 177t-119.5 40h-78v-344h-131zM555 821h160q84 0 129 19q68 27 67 104q0 76 -69 105q-37 16 -137 16h-150v-244z" />
<glyph unicode="&#xaf;" horiz-adv-x="681" d="M29 1272v147h624v-147h-624z" />
<glyph unicode="&#xb0;" horiz-adv-x="819" d="M131 1259.5q0 114.5 82 195.5t196.5 81t195.5 -81t81 -195.5t-81 -196.5t-195.5 -82t-196.5 82t-82 196.5zM240 1260q0 -72 50 -121t119.5 -49t119 50t49.5 119.5t-49.5 118.5t-119 49t-119.5 -48.5t-50 -118.5z" />
<glyph unicode="&#xb1;" horiz-adv-x="1366" d="M133 0v158h1098v-158h-1098zM133 807v158h469v469h158v-469h471v-158h-471v-467h-158v467h-469z" />
<glyph unicode="&#xb2;" horiz-adv-x="575" d="M88 721v127l62 82q117 152 156.5 222.5t39.5 123.5q0 70 -55 70q-33 0 -45.5 -26t-12.5 -81h-135q2 119 42 162t149 43q102 0 149 -42t47 -130q0 -82 -42 -160t-156 -211l-66 -74h275v-106h-408z" />
<glyph unicode="&#xb3;" horiz-adv-x="583" d="M84 905h139q0 -55 12.5 -74.5t47.5 -19.5q37 0 52 23.5t15 80.5q0 82 -20.5 104.5t-91.5 24.5v105q63 2 84.5 22.5t21.5 77.5q0 98 -59 99q-31 0 -43.5 -17.5t-14.5 -62.5h-135q0 94 41 135q43 43 146 43q111 0 158.5 -43t47.5 -141q0 -78 -22.5 -115t-81.5 -55 q66 -14 87 -47t21 -123q0 -119 -45 -164t-161 -45q-70 0 -113 14t-60.5 46t-21.5 57.5t-4 74.5z" />
<glyph unicode="&#xb4;" horiz-adv-x="681" d="M213 1239l133 281h236l-220 -281h-149z" />
<glyph unicode="&#xb5;" horiz-adv-x="1138" d="M139 -399v1468h178v-516q0 -145 15.5 -215t58.5 -119q68 -74 170 -74q106 0 168 56q55 51 72.5 120.5t17.5 227.5v520h178v-1069h-161v133q-31 -47 -50.5 -70.5t-77 -52t-135.5 -28.5q-70 0 -125 24.5t-77.5 47t-53.5 61.5v-514h-178z" />
<glyph unicode="&#xb6;" horiz-adv-x="1101" d="M4 1096q0 215 135 314t369 99h600v-172h-143v-1699h-170v1699h-224v-1699h-163v1044q-186 10 -295 121t-109 293z" />
<glyph unicode="&#xb7;" horiz-adv-x="468" d="M143 592v350h183v-350h-183z" />
<glyph unicode="&#xb8;" horiz-adv-x="681" d="M109 -410l10 117q74 -4 92 -4q162 0 162 76q0 66 -156 65l51 179h135l-34 -107q82 -10 127 -50t45 -102q0 -84 -80 -135t-209 -51q-84 0 -143 12z" />
<glyph unicode="&#xb9;" horiz-adv-x="575" d="M119 1202v123q53 31 76.5 51.5t46.5 57.5h131v-713h-142v559q-55 -43 -112 -78z" />
<glyph unicode="&#xba;" horiz-adv-x="532" d="M66 1157q0 199 37.5 290t158.5 91q123 0 162 -91t39 -288q0 -182 -43 -274t-154 -92q-113 0 -156.5 91t-43.5 273zM195 1126q0 -137 14 -189t55 -52q45 0 58.5 52t13.5 189v76q0 139 -14.5 193.5t-57.5 54.5q-41 0 -55 -55.5t-14 -194.5v-74z" />
<glyph unicode="&#xbb;" d="M35 1147h166l225 -522l-223 -521h-166l186 521zM399 1147h168l252 -524l-250 -519h-168l220 521z" />
<glyph unicode="&#xbc;" horiz-adv-x="1259" d="M102 -39l799 1512h137l-796 -1512h-140zM104 1202v123q53 31 77 51.5t46 57.5h131v-713h-141v559q-56 -43 -113 -78zM670 160v129l182 424h192v-455h78v-98h-80v-160h-133v160h-239zM784 227h129v389z" />
<glyph unicode="&#xbd;" horiz-adv-x="1259" d="M123 1202v123q86 47 123 111h131v-715h-141v559q-74 -55 -113 -78zM127 -39l799 1512h135l-797 -1512h-137zM760 0v127l61 82q117 152 157 222.5t40 123.5q0 70 -55 70q-33 0 -45.5 -26t-12.5 -81h-135q2 119 42 162t149 43q102 0 149 -42t47 -130q0 -82 -42 -160 t-157 -211l-65 -74h274v-106h-407z" />
<glyph unicode="&#xbe;" horiz-adv-x="1267" d="M84 905h139q0 -55 12.5 -74.5t47.5 -19.5q37 0 52 23.5t15 80.5q0 82 -20.5 104.5t-91.5 24.5v105q63 2 84.5 22.5t21.5 77.5q0 98 -59 99q-31 0 -43.5 -17.5t-14.5 -62.5h-135q0 94 41 135q43 43 146 43q111 0 158.5 -43t47.5 -141q0 -78 -22.5 -115t-81.5 -55 q66 -14 87 -47t21 -123q0 -119 -45 -164t-161 -45q-70 0 -113 14t-60.5 46t-21.5 57.5t-4 74.5zM162 -39l801 1512h135l-799 -1512h-137zM709 160v129l182 424h192v-455h78v-98h-80v-160h-131v160h-241zM823 238h129v389z" />
<glyph unicode="&#xbf;" horiz-adv-x="782" d="M92 174q0 92 4 148.5t21.5 122t50.5 101.5t93.5 61.5t146.5 27.5v182h118v-291h-51q-139 0 -170 -59t-31 -281q0 -184 27 -260t111 -76q125 0 125 228v88h155q0 -94 -2 -141.5t-19.5 -111t-49.5 -106.5q-76 -94 -222 -94q-307 0 -307 461zM381 950v289h180v-289h-180z " />
<glyph unicode="&#xc0;" horiz-adv-x="960" d="M86 0l264 1509h232l292 -1509h-204l-45 283h-297l-41 -283h-201zM199 1882h239l135 -280h-145zM352 446h246l-129 805z" />
<glyph unicode="&#xc1;" horiz-adv-x="960" d="M86 0l264 1509h232l292 -1509h-204l-45 283h-297l-41 -283h-201zM352 446h246l-129 805zM352 1602l133 280h236l-219 -280h-150z" />
<glyph unicode="&#xc2;" horiz-adv-x="960" d="M86 0l264 1509h232l292 -1509h-204l-45 283h-297l-41 -283h-201zM143 1602l217 280h191l225 -280h-205l-108 170l-113 -170h-207zM352 446h246l-129 805z" />
<glyph unicode="&#xc3;" horiz-adv-x="960" d="M86 0l264 1509h232l292 -1509h-204l-45 283h-297l-41 -283h-201zM145 1626q-2 109 57.5 169t147.5 60q61 0 152 -47l28 -14q43 -23 82 -22q33 0 49.5 19t22.5 67h131q-2 -106 -53 -167t-139 -61q-66 0 -152 47l-37 19q-45 27 -82 26q-33 0 -54.5 -25.5t-18.5 -70.5h-134z M352 446h246l-129 805z" />
<glyph unicode="&#xc4;" horiz-adv-x="960" d="M86 0l264 1509h232l292 -1509h-204l-45 283h-297l-41 -283h-201zM178 1602v204h189v-204h-189zM352 446h246l-129 805zM553 1602v204h188v-204h-188z" />
<glyph unicode="&#xc5;" horiz-adv-x="960" d="M86 0l264 1509h232l292 -1509h-204l-45 283h-297l-41 -283h-201zM281 1749q0 76 53 128t131 52q72 0 124 -54t52 -130t-52 -129t-128 -53t-128 54t-52 132zM352 446h246l-129 805zM354 1749q0 -47 31 -79t76 -32t75.5 32t30.5 77t-30.5 76.5t-75.5 31.5q-43 0 -75 -31.5 t-32 -74.5z" />
<glyph unicode="&#xc6;" horiz-adv-x="1343" d="M55 0l328 1509h868v-180h-458v-461h360v-182h-360v-506h487v-180h-696v276h-279l-55 -276h-195zM340 446h246v883h-70z" />
<glyph unicode="&#xc7;" horiz-adv-x="980" d="M143 559v262q0 260 22.5 398.5t92.5 212.5q98 102 256 102q156 0 242 -86q66 -68 88 -175.5t20 -305.5h-196q6 160 -11.5 251t-51.5 121.5t-93 30.5q-63 0 -104 -57q-27 -37 -36.5 -144.5t-9.5 -396.5q0 -213 3.5 -304t18.5 -182t48 -117t94 -26q39 0 67 11.5t44 37 t26.5 49t14.5 70.5t5 76t1 88v146h203q2 -242 -17.5 -355.5t-97.5 -191.5q-76 -76 -192 -88l-23 -70q82 -10 127 -50t45 -102q0 -84 -80 -135t-209 -51q-84 0 -143 12l10 117q74 -4 92 -4q162 0 162 76q0 66 -155 65l40 142q-72 10 -124 37.5t-84.5 75.5t-52 95.5t-29 119 t-11.5 120.5t-2 125z" />
<glyph unicode="&#xc8;" horiz-adv-x="960" d="M182 0v1509h680v-178h-471v-465h363v-182h-363v-502h506v-182h-715zM219 1882h240l135 -280h-145z" />
<glyph unicode="&#xc9;" horiz-adv-x="960" d="M182 0v1509h680v-178h-471v-465h363v-182h-363v-502h506v-182h-715zM393 1602l133 280h236l-219 -280h-150z" />
<glyph unicode="&#xca;" horiz-adv-x="960" d="M182 0v1509h680v-178h-471v-465h363v-182h-363v-502h506v-182h-715zM195 1602l217 280h190l225 -280h-204l-109 170l-113 -170h-206z" />
<glyph unicode="&#xcb;" horiz-adv-x="960" d="M182 0v1509h680v-178h-471v-465h363v-182h-363v-502h506v-182h-715zM229 1602v204h189v-204h-189zM604 1602v204h189v-204h-189z" />
<glyph unicode="&#xcc;" horiz-adv-x="575" d="M16 1882h240l135 -280h-145zM184 0v1509h209v-1509h-209z" />
<glyph unicode="&#xcd;" horiz-adv-x="575" d="M160 1602l133 280h235l-219 -280h-149zM184 0v1509h209v-1509h-209z" />
<glyph unicode="&#xce;" horiz-adv-x="575" d="M-29 1602l217 280h191l225 -280h-205l-108 170l-113 -170h-207zM184 0v1509h209v-1509h-209z" />
<glyph unicode="&#xcf;" horiz-adv-x="575" d="M6 1602v204h189v-204h-189zM184 0v1509h209v-1509h-209zM381 1602v204h188v-204h-188z" />
<glyph unicode="&#xd0;" horiz-adv-x="960" d="M35 686v172h112v651h326q104 0 176 -31.5t115 -85t66.5 -149.5t30.5 -199.5t7 -261.5q0 -367 -26.5 -496.5t-87.5 -201.5q-31 -37 -93.5 -60.5t-134.5 -23.5h-379v686h-112zM356 174h119q51 0 84 17.5t51.5 42t26.5 80t10 101.5t2 136v362q0 254 -37 340t-170 86h-86 v-481h146v-172h-146v-512z" />
<glyph unicode="&#xd1;" horiz-adv-x="960" d="M129 0v1509h229l293 -981v981h183v-1509h-183l-340 1135v-1135h-182zM145 1626q-2 109 57.5 169t147.5 60q61 0 152 -47l28 -14q43 -23 82 -22q33 0 49.5 19t22.5 67h131q-2 -106 -53 -167t-139 -61q-66 0 -152 47l-37 19q-45 27 -82 26q-33 0 -54.5 -25.5t-18.5 -70.5 h-134z" />
<glyph unicode="&#xd2;" horiz-adv-x="960" d="M119 793q0 119 3 196.5t14 174t36 155.5t63.5 114.5t102 81t147.5 25.5q139 0 224 -84q88 -86 111.5 -231.5t23.5 -479.5q0 -307 -25.5 -449t-111.5 -228q-84 -86 -224 -86q-143 0 -235 92q-84 86 -106.5 246t-22.5 473zM209 1882h240l135 -280h-146zM340 666 q0 -164 2 -235t15.5 -151.5t45 -107.5t84.5 -27q92 0 114 114t22 435v187q0 281 -22.5 389t-117.5 108q-98 0 -120.5 -109.5t-22.5 -404.5v-198z" />
<glyph unicode="&#xd3;" horiz-adv-x="960" d="M119 793q0 119 3 196.5t14 174t36 155.5t63.5 114.5t102 81t147.5 25.5q139 0 224 -84q88 -86 111.5 -231.5t23.5 -479.5q0 -307 -25.5 -449t-111.5 -228q-84 -86 -224 -86q-143 0 -235 92q-84 86 -106.5 246t-22.5 473zM340 666q0 -164 2 -235t15.5 -151.5t45 -107.5 t84.5 -27q92 0 114 114t22 435v187q0 281 -22.5 389t-117.5 108q-98 0 -120.5 -109.5t-22.5 -404.5v-198zM352 1602l133 280h236l-219 -280h-150z" />
<glyph unicode="&#xd4;" horiz-adv-x="960" d="M119 793q0 119 3 196.5t14 174t36 155.5t63.5 114.5t102 81t147.5 25.5q139 0 224 -84q88 -86 111.5 -231.5t23.5 -479.5q0 -307 -25.5 -449t-111.5 -228q-84 -86 -224 -86q-143 0 -235 92q-84 86 -106.5 246t-22.5 473zM154 1602l217 280h190l225 -280h-204l-109 170 l-113 -170h-206zM340 666q0 -164 2 -235t15.5 -151.5t45 -107.5t84.5 -27q92 0 114 114t22 435v187q0 281 -22.5 389t-117.5 108q-98 0 -120.5 -109.5t-22.5 -404.5v-198z" />
<glyph unicode="&#xd5;" horiz-adv-x="960" d="M119 793q0 119 3 196.5t14 174t36 155.5t63.5 114.5t102 81t147.5 25.5q139 0 224 -84q88 -86 111.5 -231.5t23.5 -479.5q0 -307 -25.5 -449t-111.5 -228q-84 -86 -224 -86q-143 0 -235 92q-84 86 -106.5 246t-22.5 473zM145 1626q-2 109 57.5 169t147.5 60q61 0 152 -47 l28 -14q43 -23 82 -22q33 0 49.5 19t22.5 67h131q-2 -106 -53 -167t-139 -61q-66 0 -152 47l-37 19q-45 27 -82 26q-33 0 -54.5 -25.5t-18.5 -70.5h-134zM340 666q0 -164 2 -235t15.5 -151.5t45 -107.5t84.5 -27q92 0 114 114t22 435v187q0 281 -22.5 389t-117.5 108 q-98 0 -120.5 -109.5t-22.5 -404.5v-198z" />
<glyph unicode="&#xd6;" horiz-adv-x="960" d="M119 793q0 119 3 196.5t14 174t36 155.5t63.5 114.5t102 81t147.5 25.5q139 0 224 -84q88 -86 111.5 -231.5t23.5 -479.5q0 -307 -25.5 -449t-111.5 -228q-84 -86 -224 -86q-143 0 -235 92q-84 86 -106.5 246t-22.5 473zM188 1602v204h189v-204h-189zM340 666 q0 -164 2 -235t15.5 -151.5t45 -107.5t84.5 -27q92 0 114 114t22 435v187q0 281 -22.5 389t-117.5 108q-98 0 -120.5 -109.5t-22.5 -404.5v-198zM563 1602v204h189v-204h-189z" />
<glyph unicode="&#xd7;" horiz-adv-x="1368" d="M176 1063l111 111l397 -398l397 398l113 -111l-397 -397l393 -396l-111 -110l-393 395l-397 -395l-111 110l395 396z" />
<glyph unicode="&#xd8;" horiz-adv-x="960" d="M119 793q0 119 3 196.5t14 174t36 155.5t63.5 114.5t102 81t147.5 25.5q139 0 228 -88l43 109l84 -25l-68 -168q45 -86 58.5 -220t13.5 -403q0 -307 -25.5 -449t-111.5 -228q-84 -86 -223.5 -86t-227.5 86l-47 -117l-82 29l68 172q-49 92 -62.5 236.5t-13.5 404.5z M340 518l272 680q-10 92 -40.5 136t-90.5 44q-96 0 -118.5 -120.5t-22.5 -450.5v-289zM352 309q10 -84 42 -124t93 -40q92 0 114 114t22 435v295h-2z" />
<glyph unicode="&#xd9;" horiz-adv-x="960" d="M133 362v1147h209v-1132q0 -223 143 -223q72 0 100.5 56t32.5 167v1132h209v-1147q0 -381 -346 -380q-348 -1 -348 380zM209 1882h240l135 -280h-146z" />
<glyph unicode="&#xda;" horiz-adv-x="960" d="M133 362v1147h209v-1132q0 -223 143 -223q72 0 100.5 56t32.5 167v1132h209v-1147q0 -381 -346 -380q-348 -1 -348 380zM352 1602l133 280h236l-219 -280h-150z" />
<glyph unicode="&#xdb;" horiz-adv-x="960" d="M133 362v1147h209v-1132q0 -223 143 -223q72 0 100.5 56t32.5 167v1132h209v-1147q0 -381 -346 -380q-348 -1 -348 380zM164 1602l217 280h190l226 -280h-205l-109 170l-112 -170h-207z" />
<glyph unicode="&#xdc;" horiz-adv-x="960" d="M133 362v1147h209v-1132q0 -223 143 -223q72 0 100.5 56t32.5 167v1132h209v-1147q0 -381 -346 -380q-348 -1 -348 380zM199 1602v204h188v-204h-188zM573 1602v204h189v-204h-189z" />
<glyph unicode="&#xdd;" horiz-adv-x="960" d="M74 1509h205l200 -649l203 649h207l-307 -897v-612h-207v600zM352 1602l133 280h236l-219 -280h-150z" />
<glyph unicode="&#xde;" horiz-adv-x="960" d="M154 0v1509h204v-335h107q76 0 130 -7.5t109.5 -32t89 -67.5t55 -118t21.5 -179q0 -229 -74.5 -328.5t-250.5 -99.5h-187v-342h-204zM358 483h105q111 0 152.5 55.5t41.5 202.5q0 168 -41 226.5t-157 58.5h-101v-543z" />
<glyph unicode="&#xdf;" d="M139 0v1219q0 113 23 167q31 70 97.5 108t152.5 38q303 0 303 -330q0 -98 -29 -154.5t-96 -84.5q104 -63 138 -148.5t34 -296.5q0 -270 -61.5 -396t-194.5 -126q-31 0 -84 22v160q31 -8 47 -8q98 0 98 270q0 205 -11 293t-44 121t-88 35v162q96 6 96 168q0 172 -102 172 q-94 0 -94 -148v-1243h-185z" />
<glyph unicode="&#xe0;" d="M90 313q0 172 86 258q33 33 76 49.5t131 28.5q78 8 147 29v199q0 68 -29.5 105.5t-82.5 37.5q-66 0 -93.5 -52.5t-29.5 -181.5l-178 23q6 358 303 358q150 0 221.5 -75.5t71.5 -233.5v-543q0 -119 32 -229q12 -45 39 -86h-186q-27 43 -53 166q-53 -94 -107.5 -136 t-124.5 -42q-223 -1 -223 325zM166 1520h240l135 -281h-146zM281 303q0 -182 100 -182q61 0 104 73.5t43 180.5v166q-147 -27 -197 -70t-50 -168z" />
<glyph unicode="&#xe1;" d="M90 313q0 172 86 258q33 33 76 49.5t131 28.5q78 8 147 29v199q0 68 -29.5 105.5t-82.5 37.5q-66 0 -93.5 -52.5t-29.5 -181.5l-178 23q6 358 303 358q150 0 221.5 -75.5t71.5 -233.5v-543q0 -119 32 -229q12 -45 39 -86h-186q-27 43 -53 166q-53 -94 -107.5 -136 t-124.5 -42q-223 -1 -223 325zM281 303q0 -182 100 -182q61 0 104 73.5t43 180.5v166q-147 -27 -197 -70t-50 -168zM319 1239l134 281h235l-219 -281h-150z" />
<glyph unicode="&#xe2;" d="M90 313q0 172 86 258q33 33 76 49.5t131 28.5q78 8 147 29v199q0 68 -29.5 105.5t-82.5 37.5q-66 0 -93.5 -52.5t-29.5 -181.5l-178 23q6 358 303 358q150 0 221.5 -75.5t71.5 -233.5v-543q0 -119 32 -229q12 -45 39 -86h-186q-27 43 -53 166q-53 -94 -107.5 -136 t-124.5 -42q-223 -1 -223 325zM111 1239l217 281h190l225 -281h-204l-109 170l-113 -170h-206zM281 303q0 -182 100 -182q61 0 104 73.5t43 180.5v166q-147 -27 -197 -70t-50 -168z" />
<glyph unicode="&#xe3;" d="M90 313q0 172 86 258q33 33 76 49.5t131 28.5q78 8 147 29v199q0 68 -29.5 105.5t-82.5 37.5q-66 0 -93.5 -52.5t-29.5 -181.5l-178 23q6 358 303 358q150 0 221.5 -75.5t71.5 -233.5v-543q0 -119 32 -229q12 -45 39 -86h-186q-27 43 -53 166q-53 -94 -107.5 -136 t-124.5 -42q-223 -1 -223 325zM92 1264q-2 109 57.5 169t147.5 60q61 0 152 -47l28 -14q43 -23 82 -23q33 0 49.5 19.5t22.5 66.5h131q-2 -106 -53.5 -166.5t-139.5 -60.5q-66 0 -151 47l-37 18q-45 27 -82 27q-33 0 -54.5 -25.5t-19.5 -70.5h-133zM281 303q0 -182 100 -182 q61 0 104 73.5t43 180.5v166q-147 -27 -197 -70t-50 -168z" />
<glyph unicode="&#xe4;" d="M90 313q0 172 86 258q33 33 76 49.5t131 28.5q78 8 147 29v199q0 68 -29.5 105.5t-82.5 37.5q-66 0 -93.5 -52.5t-29.5 -181.5l-178 23q6 358 303 358q150 0 221.5 -75.5t71.5 -233.5v-543q0 -119 32 -229q12 -45 39 -86h-186q-27 43 -53 166q-53 -94 -107.5 -136 t-124.5 -42q-223 -1 -223 325zM135 1239v205h189v-205h-189zM281 303q0 -182 100 -182q61 0 104 73.5t43 180.5v166q-147 -27 -197 -70t-50 -168zM510 1239v205h188v-205h-188z" />
<glyph unicode="&#xe5;" d="M90 313q0 172 86 258q33 33 76 49.5t131 28.5q78 8 147 29v199q0 68 -29.5 105.5t-82.5 37.5q-66 0 -93.5 -52.5t-29.5 -181.5l-178 23q6 358 303 358q150 0 221.5 -75.5t71.5 -233.5v-543q0 -119 32 -229q12 -45 39 -86h-186q-27 43 -53 166q-53 -94 -107.5 -136 t-124.5 -42q-223 -1 -223 325zM248 1407q0 76 53 128t131 52q72 0 124 -54t52 -130t-52 -129t-128 -53t-128 54t-52 132zM281 303q0 -182 100 -182q61 0 104 73.5t43 180.5v166q-147 -27 -197 -70t-50 -168zM322 1407q0 -47 30.5 -79t75.5 -32t76 32t31 77t-31 76.5 t-76 31.5q-43 0 -74.5 -31.5t-31.5 -74.5z" />
<glyph unicode="&#xe6;" horiz-adv-x="1236" d="M70 319q0 68 15 122.5t35.5 90t61.5 62.5t73 40t88 23.5t89 13.5t96 7v65q0 143 -7 187.5t-34 73.5q-35 35 -81 34q-84 0 -117 -80q-16 -41 -17 -176l-176 27q0 362 285 362q156 0 227 -124q84 125 228 124q121 0 200 -77q59 -61 83 -152.5t26 -269.5v-88h-432v-74 q-6 -197 23.5 -286t119.5 -89q72 0 112 64.5t40 183.5v8h161q-6 -231 -102 -328q-82 -82 -217 -81q-209 0 -283 227q-78 -227 -266 -227q-104 0 -167.5 91.5t-63.5 245.5zM266 311q0 -88 29 -137t80 -49q72 0 112.5 72.5t40.5 201.5v152q-154 -20 -208 -62.5t-54 -177.5z M713 715h239v59q0 156 -26.5 219.5t-91.5 63.5q-35 0 -58.5 -16.5t-36 -38t-18.5 -63.5t-7 -67.5t-1 -76.5v-80z" />
<glyph unicode="&#xe7;" d="M111 541q0 109 3 175t12 148t31.5 130t57.5 92t92.5 63.5t134.5 19.5q86 0 146.5 -29.5t90.5 -67.5t46 -108.5t18 -116.5t2 -128h-180q0 66 -3 105.5t-13 94t-37 81t-70 26.5q-37 0 -61.5 -18.5t-37.5 -45t-20.5 -77.5t-9.5 -96.5t-2 -118.5v-232q0 -70 3 -110.5 t14.5 -94t40 -80t73.5 -26.5q47 0 77 27.5t42 88t14.5 103.5t2.5 123h178q0 -61 -1 -96t-8.5 -97.5t-23.5 -101.5t-43 -83t-73 -70.5t-107 -34.5l-23 -70q82 -10 127 -50t45 -102q0 -84 -80 -135t-209 -51q-86 0 -143 12l10 117q74 -4 92 -4q162 0 162 76q0 66 -155 65 l41 144q-53 8 -94.5 31.5t-69 50t-46 75t-27.5 84t-13 100t-5 102.5t-1 110z" />
<glyph unicode="&#xe8;" d="M115 573q0 248 34.5 370t122.5 181q66 45 154 45q127 0 207 -79q59 -59 82.5 -151.5t25.5 -276.5v-89h-436v-65q0 -84 4 -137.5t17.5 -112.5t47.5 -88t85 -29q143 0 143 250h168q-6 -137 -39 -217q-82 -193 -285 -192q-119 0 -206 84q-68 70 -96.5 184t-28.5 323z M166 1520h240l135 -281h-146zM307 709h246v45q0 61 -3 101t-13.5 89t-37 74.5t-69.5 25.5q-41 0 -66.5 -25.5t-37 -73.5t-15.5 -92t-4 -105v-39z" />
<glyph unicode="&#xe9;" d="M115 573q0 248 34.5 370t122.5 181q66 45 154 45q127 0 207 -79q59 -59 82.5 -151.5t25.5 -276.5v-89h-436v-65q0 -84 4 -137.5t17.5 -112.5t47.5 -88t85 -29q143 0 143 250h168q-6 -137 -39 -217q-82 -193 -285 -192q-119 0 -206 84q-68 70 -96.5 184t-28.5 323z M307 709h246v45q0 61 -3 101t-13.5 89t-37 74.5t-69.5 25.5q-41 0 -66.5 -25.5t-37 -73.5t-15.5 -92t-4 -105v-39zM309 1239l133 281h236l-219 -281h-150z" />
<glyph unicode="&#xea;" d="M115 573q0 248 34.5 370t122.5 181q66 45 154 45q127 0 207 -79q59 -59 82.5 -151.5t25.5 -276.5v-89h-436v-65q0 -84 4 -137.5t17.5 -112.5t47.5 -88t85 -29q143 0 143 250h168q-6 -137 -39 -217q-82 -193 -285 -192q-119 0 -206 84q-68 70 -96.5 184t-28.5 323z M121 1239l217 281h190l226 -281h-205l-109 170l-112 -170h-207zM307 709h246v45q0 61 -3 101t-13.5 89t-37 74.5t-69.5 25.5q-41 0 -66.5 -25.5t-37 -73.5t-15.5 -92t-4 -105v-39z" />
<glyph unicode="&#xeb;" d="M115 573q0 248 34.5 370t122.5 181q66 45 154 45q127 0 207 -79q59 -59 82.5 -151.5t25.5 -276.5v-89h-436v-65q0 -84 4 -137.5t17.5 -112.5t47.5 -88t85 -29q143 0 143 250h168q-6 -137 -39 -217q-82 -193 -285 -192q-119 0 -206 84q-68 70 -96.5 184t-28.5 323z M145 1239v205h189v-205h-189zM307 709h246v45q0 61 -3 101t-13.5 89t-37 74.5t-69.5 25.5q-41 0 -66.5 -25.5t-37 -73.5t-15.5 -92t-4 -105v-39zM520 1239v205h189v-205h-189z" />
<glyph unicode="&#xec;" horiz-adv-x="468" d="M-27 1520h240l135 -281h-145zM141 0v1147h187v-1147h-187z" />
<glyph unicode="&#xed;" horiz-adv-x="468" d="M106 1239l134 281h235l-219 -281h-150zM141 0v1147h187v-1147h-187z" />
<glyph unicode="&#xee;" horiz-adv-x="468" d="M-82 1239l217 281h191l225 -281h-205l-108 170l-113 -170h-207zM141 0v1147h187v-1147h-187z" />
<glyph unicode="&#xef;" horiz-adv-x="468" d="M-47 1239v205h188v-205h-188zM141 0v1147h187v-1147h-187zM328 1239v205h188v-205h-188z" />
<glyph unicode="&#xf0;" d="M113 582q0 297 69.5 435t223.5 138q49 0 100 -29q-25 104 -78 197l-147 -92l-37 59l147 92q-47 61 -88 97l55 59q72 -43 127 -94l148 92l37 -59l-135 -86q43 -57 68.5 -100.5t63.5 -136.5t56 -231.5t18 -318.5q0 -328 -73.5 -475t-235.5 -147q-166 0 -242.5 141.5 t-76.5 458.5zM313 442q0 -164 23.5 -241.5t93.5 -77.5q68 0 89.5 75.5t21.5 243.5v310q0 139 -23.5 205.5t-85.5 66.5q-68 0 -93.5 -66.5t-25.5 -212.5v-303z" />
<glyph unicode="&#xf1;" d="M82 1264q-2 109 57.5 169t147.5 60q61 0 151 -47l29 -14q43 -23 82 -23q33 0 49 19.5t23 66.5h131q-2 -106 -53.5 -166.5t-139.5 -60.5q-66 0 -151 47l-37 18q-45 27 -82 27q-33 0 -54.5 -25.5t-19.5 -70.5h-133zM129 0v1147h168v-250q25 63 39 94t45 78t68.5 67.5 t89.5 20.5q197 0 196 -375v-782h-184v809q0 195 -84 195q-66 0 -109 -105.5t-43 -261.5v-637h-186z" />
<glyph unicode="&#xf2;" d="M111 559q0 215 23.5 335t98.5 196q78 78 193 77q113 0 201 -84q70 -70 93 -187.5t23 -303.5q0 -406 -122 -529q-82 -82 -195 -81.5t-203 86.5q-51 51 -77.5 146t-30.5 163.5t-4 181.5zM166 1520h240l135 -281h-146zM313 600q0 -260 18.5 -366.5t94.5 -106.5t95.5 107.5 t19.5 357.5q0 219 -19.5 325.5t-91.5 106.5q-29 0 -49.5 -14.5t-32.5 -47t-19 -64.5t-10.5 -89t-4.5 -97t-1 -112z" />
<glyph unicode="&#xf3;" d="M111 559q0 215 23.5 335t98.5 196q78 78 193 77q113 0 201 -84q70 -70 93 -187.5t23 -303.5q0 -406 -122 -529q-82 -82 -195 -81.5t-203 86.5q-51 51 -77.5 146t-30.5 163.5t-4 181.5zM299 1239l133 281h236l-219 -281h-150zM313 600q0 -260 18.5 -366.5t94.5 -106.5 t95.5 107.5t19.5 357.5q0 219 -19.5 325.5t-91.5 106.5q-29 0 -49.5 -14.5t-32.5 -47t-19 -64.5t-10.5 -89t-4.5 -97t-1 -112z" />
<glyph unicode="&#xf4;" d="M111 559q0 215 23.5 335t98.5 196q78 78 193 77q113 0 201 -84q70 -70 93 -187.5t23 -303.5q0 -406 -122 -529q-82 -82 -195 -81.5t-203 86.5q-51 51 -77.5 146t-30.5 163.5t-4 181.5zM111 1239l217 281h190l225 -281h-204l-109 170l-113 -170h-206zM313 600 q0 -260 18.5 -366.5t94.5 -106.5t95.5 107.5t19.5 357.5q0 219 -19.5 325.5t-91.5 106.5q-29 0 -49.5 -14.5t-32.5 -47t-19 -64.5t-10.5 -89t-4.5 -97t-1 -112z" />
<glyph unicode="&#xf5;" d="M92 1264q-2 109 57.5 169t147.5 60q61 0 152 -47l28 -14q43 -23 82 -23q33 0 49.5 19.5t22.5 66.5h131q-2 -106 -53.5 -166.5t-139.5 -60.5q-66 0 -151 47l-37 18q-45 27 -82 27q-33 0 -54.5 -25.5t-19.5 -70.5h-133zM111 559q0 215 23.5 335t98.5 196q78 78 193 77 q113 0 201 -84q70 -70 93 -187.5t23 -303.5q0 -406 -122 -529q-82 -82 -195 -81.5t-203 86.5q-51 51 -77.5 146t-30.5 163.5t-4 181.5zM313 600q0 -260 18.5 -366.5t94.5 -106.5t95.5 107.5t19.5 357.5q0 219 -19.5 325.5t-91.5 106.5q-29 0 -49.5 -14.5t-32.5 -47 t-19 -64.5t-10.5 -89t-4.5 -97t-1 -112z" />
<glyph unicode="&#xf6;" d="M111 559q0 215 23.5 335t98.5 196q78 78 193 77q113 0 201 -84q70 -70 93 -187.5t23 -303.5q0 -406 -122 -529q-82 -82 -195 -81.5t-203 86.5q-51 51 -77.5 146t-30.5 163.5t-4 181.5zM145 1239v205h189v-205h-189zM313 600q0 -260 18.5 -366.5t94.5 -106.5t95.5 107.5 t19.5 357.5q0 219 -19.5 325.5t-91.5 106.5q-29 0 -49.5 -14.5t-32.5 -47t-19 -64.5t-10.5 -89t-4.5 -97t-1 -112zM520 1239v205h189v-205h-189z" />
<glyph unicode="&#xf7;" horiz-adv-x="1368" d="M135 592v149h1096v-149h-1096zM582 252q0 41 29.5 69.5t70.5 28.5t69.5 -28.5t28.5 -69.5q0 -39 -29.5 -68.5t-68.5 -29.5q-41 0 -70.5 28.5t-29.5 69.5zM582 1085q0 39 28.5 67t69.5 28t69.5 -29t28.5 -70t-28.5 -69.5t-69.5 -28.5t-69.5 29.5t-28.5 72.5z" />
<glyph unicode="&#xf8;" d="M113 559q0 217 22.5 336t97.5 195q78 78 193 77q109 0 186 -71l45 108l68 -37l-57 -135q74 -123 73 -440q0 -408 -120 -529q-82 -82 -195 -81q-104 0 -180 67l-45 -102l-68 37l55 129q-75 124 -75 446zM311 602q0 -141 2 -199l211 490q-20 133 -94 133q-41 0 -66.5 -30.5 t-37 -100.5t-13.5 -127t-2 -166zM330 246q23 -117 96 -117q78 0 97.5 107.5t19.5 357.5q0 96 -2 139z" />
<glyph unicode="&#xf9;" d="M121 291v856h184v-846q0 -156 84 -156q61 0 104.5 83t43.5 200v719h186v-1147h-158q-6 162 -16 201q-55 -115 -107.5 -163t-124.5 -48q-94 0 -145 79t-51 222zM166 1520h240l135 -281h-146z" />
<glyph unicode="&#xfa;" d="M121 291v856h184v-846q0 -156 84 -156q61 0 104.5 83t43.5 200v719h186v-1147h-158q-6 162 -16 201q-55 -115 -107.5 -163t-124.5 -48q-94 0 -145 79t-51 222zM299 1239l133 281h236l-219 -281h-150z" />
<glyph unicode="&#xfb;" d="M111 1239l217 281h190l225 -281h-204l-109 170l-113 -170h-206zM121 291v856h184v-846q0 -156 84 -156q61 0 104.5 83t43.5 200v719h186v-1147h-158q-6 162 -16 201q-55 -115 -107.5 -163t-124.5 -48q-94 0 -145 79t-51 222z" />
<glyph unicode="&#xfc;" d="M121 291v856h184v-846q0 -156 84 -156q61 0 104.5 83t43.5 200v719h186v-1147h-158q-6 162 -16 201q-55 -115 -107.5 -163t-124.5 -48q-94 0 -145 79t-51 222zM145 1239v205h189v-205h-189zM520 1239v205h189v-205h-189z" />
<glyph unicode="&#xfd;" d="M76 1147h188l182 -651l150 651h180l-248 -1055q-23 -90 -34 -129t-35.5 -92t-57.5 -86q-72 -76 -188 -76q-41 0 -100 17v151q43 -10 69 -10q59 0 99 41q29 31 44 75t42 160l8 33zM299 1239l133 281h236l-219 -281h-150z" />
<glyph unicode="&#xfe;" d="M133 -291v1800h186v-544q31 90 84.5 141t118.5 51q76 0 133 -57q55 -55 78 -164t23 -338q0 -385 -60 -494q-61 -115 -174 -114q-70 0 -115 33.5t-88 115.5v-430h-186zM315 573q0 -168 15 -260q12 -76 53 -131t86 -55q59 0 74.5 71.5t15.5 227.5v268q0 172 -18.5 242 t-73.5 70q-53 0 -94 -58q-58 -80 -58 -375z" />
<glyph unicode="&#xff;" d="M76 1147h188l182 -651l150 651h180l-248 -1055q-23 -90 -34 -129t-35.5 -92t-57.5 -86q-72 -76 -188 -76q-41 0 -100 17v151q43 -10 69 -10q59 0 99 41q29 31 44 75t42 160l8 33zM145 1239v205h189v-205h-189zM520 1239v205h189v-205h-189z" />
<glyph unicode="&#x152;" horiz-adv-x="1429" d="M109 737q0 207 4 307.5t34.5 220t94.5 183.5q78 78 202 78q176 0 242 -174v157h662v-178h-459v-461h362v-182h-362v-506h481v-182h-686v156q-76 -164 -238 -164q-117 0 -188 71q-98 98 -123.5 244.5t-25.5 429.5zM326 659q0 -102 1 -159.5t6 -125t14 -102t26.5 -67.5 t43 -45.5t62.5 -12.5q59 0 113 56q43 43 65.5 133t25.5 160.5t3 201.5v131q0 215 -17.5 324t-80.5 172q-45 45 -107 45q-51 0 -83.5 -30.5t-48 -97t-19.5 -136.5t-4 -182v-265z" />
<glyph unicode="&#x153;" horiz-adv-x="1236" d="M111 608q0 360 125 486q78 76 186 75q152 0 215 -131q63 131 227 131q115 0 183 -67q76 -76 96 -183.5t22 -334.5h-428v-125q0 -82 4 -134.5t18.5 -102.5t45.5 -73.5t78 -23.5q150 0 149 264h148q0 -123 -19.5 -196.5t-73.5 -124.5q-86 -86 -204 -86q-160 0 -232 135 q-63 -135 -225 -135q-115 0 -184 69q-131 131 -131 557zM311 547q0 -254 23.5 -347.5t103.5 -93.5q35 0 59.5 19.5t36 43.5t17.5 69t7 72.5t1 76.5v332q0 78 -4 127t-15.5 98t-37 72.5t-64.5 23.5q-45 0 -71.5 -21.5t-39 -76.5t-14.5 -106.5t-2 -155.5v-133zM737 711h236v75 q0 61 -2 95t-12.5 81.5t-37 70t-69.5 22.5q-41 0 -65.5 -19.5t-35 -65.5t-12.5 -81t-2 -103v-75z" />
<glyph unicode="&#x178;" horiz-adv-x="960" d="M74 1509h205l200 -649l203 649h207l-307 -897v-612h-207v600zM199 1602v204h188v-204h-188zM573 1602v204h189v-204h-189z" />
<glyph unicode="&#x2c6;" horiz-adv-x="681" d="M25 1239l217 281h190l225 -281h-204l-109 170l-113 -170h-206z" />
<glyph unicode="&#x2dc;" horiz-adv-x="681" d="M6 1264q-2 109 57.5 169t147.5 60q61 0 151 -47l29 -14q43 -23 82 -23q33 0 49.5 19.5t22.5 66.5h131q-2 -106 -53.5 -166.5t-139.5 -60.5q-66 0 -151 47l-37 18q-45 27 -82 27q-33 0 -54.5 -25.5t-19.5 -70.5h-133z" />
<glyph unicode="&#x2000;" horiz-adv-x="964" />
<glyph unicode="&#x2001;" horiz-adv-x="1929" />
<glyph unicode="&#x2002;" horiz-adv-x="964" />
<glyph unicode="&#x2003;" horiz-adv-x="1929" />
<glyph unicode="&#x2004;" horiz-adv-x="643" />
<glyph unicode="&#x2005;" horiz-adv-x="481" />
<glyph unicode="&#x2006;" horiz-adv-x="321" />
<glyph unicode="&#x2007;" horiz-adv-x="321" />
<glyph unicode="&#x2008;" horiz-adv-x="239" />
<glyph unicode="&#x2009;" horiz-adv-x="385" />
<glyph unicode="&#x200a;" horiz-adv-x="106" />
<glyph unicode="&#x2010;" horiz-adv-x="575" d="M109 492v184h360v-184h-360z" />
<glyph unicode="&#x2011;" horiz-adv-x="575" d="M109 492v184h360v-184h-360z" />
<glyph unicode="&#x2012;" horiz-adv-x="575" d="M109 492v184h360v-184h-360z" />
<glyph unicode="&#x2013;" horiz-adv-x="1024" d="M-16 455v129h1056v-129h-1056z" />
<glyph unicode="&#x2014;" horiz-adv-x="2048" d="M-18 455v129h2084v-129h-2084z" />
<glyph unicode="&#x2018;" horiz-adv-x="468" d="M145 883v342q0 215 197 315l23 -86q-106 -78 -113 -209h72v-362h-179z" />
<glyph unicode="&#x2019;" horiz-adv-x="468" d="M104 938q106 78 113 209h-72v362h179v-342q0 -215 -197 -315z" />
<glyph unicode="&#x201a;" horiz-adv-x="468" d="M102 -209q113 78 113 209h-72v365h181v-359q0 -199 -203 -301z" />
<glyph unicode="&#x201c;" horiz-adv-x="768" d="M106 883v342q0 215 197 315l23 -86q-106 -78 -113 -209h72v-362h-179zM483 883v342q0 215 197 315l22 -86q-106 -78 -112 -209h72v-362h-179z" />
<glyph unicode="&#x201d;" horiz-adv-x="768" d="M66 938q106 78 112 209h-72v362h179v-342q0 -215 -197 -315zM442 938q106 78 113 209h-72v362h179v-342q0 -215 -197 -315z" />
<glyph unicode="&#x201e;" horiz-adv-x="768" d="M63 -209q113 78 113 209h-72v365h181v-359q0 -199 -203 -301zM442 -209q113 78 113 209h-72v365h181v-359q0 -199 -203 -301z" />
<glyph unicode="&#x2022;" horiz-adv-x="716" d="M104 717q0 106 74 180t178 74q106 0 180 -74t74 -180q0 -104 -73.5 -178t-180.5 -74q-104 0 -178 74t-74 178z" />
<glyph unicode="&#x2026;" horiz-adv-x="2048" d="M252 0v365h182v-365h-182zM934 0v365h182v-365h-182zM1616 0v365h182v-365h-182z" />
<glyph unicode="&#x202f;" horiz-adv-x="385" />
<glyph unicode="&#x2039;" horiz-adv-x="468" d="M39 625l223 522h166l-190 -522l192 -521h-166z" />
<glyph unicode="&#x203a;" horiz-adv-x="468" d="M39 104l190 521l-190 522h166l223 -520l-225 -523h-164z" />
<glyph unicode="&#x205f;" horiz-adv-x="481" />
<glyph unicode="&#x20ac;" d="M4 563l25 142h67v75v37h-92l25 141h69q2 133 15.5 225.5t48.5 178.5t103.5 129t170.5 43q90 0 153.5 -30.5t96.5 -87t47.5 -116t20.5 -137.5h-189q-8 129 -36.5 179.5t-86.5 50.5q-45 0 -68.5 -26t-39 -121t-19.5 -288h375l-24 -141h-353v-45v-67h336l-24 -142h-310 q2 -178 19.5 -275.5t45.5 -130t77 -32.5q74 0 97.5 68.5t25.5 199.5h194q-2 -92 -17.5 -161.5t-51 -129t-103 -90t-166 -30.5t-165 43t-101.5 128t-51.5 180t-20.5 230h-94z" />
<glyph unicode="&#x2122;" horiz-adv-x="2048" d="M209 1389v120h668v-120h-269v-695h-135v695h-264zM967 694v815h200l205 -651l199 651h196v-815h-125v684l-208 -684h-123l-219 695v-695h-125z" />
<glyph unicode="&#xe000;" horiz-adv-x="1145" d="M0 1145h1145v-1145h-1145v1145z" />
<glyph unicode="&#xfb01;" d="M53 1022v125h97q-2 152 24 219q33 74 105.5 119t169.5 45q276 0 299 -244h-183q-18 100 -110 100q-82 0 -103.5 -57t-19.5 -182h153v-125h-153v-1022h-187v1022h-92zM559 0v1147h186v-1147h-186z" />
<glyph unicode="&#xfb02;" d="M51 1022v125h96v51q0 100 19.5 153.5t60.5 98.5q86 80 230 80q61 0 129 -23q23 6 51 21h108v-1528h-186v1247q0 139 -113 139q-119 0 -118 -159v-80h153v-125h-151v-1022h-187v1022h-92z" />
<glyph unicode="&#xfb03;" horiz-adv-x="1792" d="M1464 0v1147h187v-1147h-187zM1466 1296v222h185v-222h-185zM719 1022v125h172v47q0 106 18.5 164.5t63.5 103.5q74 68 185 68q53 0 118 -21v-145q-53 20 -90 20q-76 0 -98 -59q-14 -33 -14 -178h202v-125h-200v-1022h-185v1022h-172zM57 1022v125h172v47 q0 106 18.5 164.5t63.5 103.5q74 68 185 68q53 0 118 -21v-145q-53 20 -90 20q-76 0 -98 -59q-14 -33 -14 -178h202v-125h-200v-1022h-185v1022h-172z" />
<glyph unicode="&#xfb04;" horiz-adv-x="1792" d="M1464 0v1509h187v-1509h-187zM719 1022v125h172v47q0 106 18.5 164.5t63.5 103.5q74 68 185 68q53 0 118 -21v-145q-53 20 -90 20q-76 0 -98 -59q-14 -33 -14 -178h202v-125h-200v-1022h-185v1022h-172zM57 1022v125h172v47q0 106 18.5 164.5t63.5 103.5q74 68 185 68 q53 0 118 -21v-145q-53 20 -90 20q-76 0 -98 -59q-14 -33 -14 -178h202v-125h-200v-1022h-185v1022h-172z" />
</font>
</defs>
</svg>
